<svg id="BIOGAS-JorgeDavidMendozaGordillo" xmlns="http://www.w3.org/2000/svg" width="190.929" height="203.148" viewBox="0 0 190.929 203.148">
  <g id="Default_x5F_Hexagon_copy" transform="translate(0 0)">
    <g id="Default_1_">
      <path id="Path_1105" data-name="Path 1105" d="M98.464,203.14a24.336,24.336,0,0,1-11.73-3.024l-71.09-39.027A24.368,24.368,0,0,1,3,139.723V63.409A24.37,24.37,0,0,1,15.644,42.043L86.734,3.014a24.269,24.269,0,0,1,23.458,0l71.092,39.027a24.379,24.379,0,0,1,12.644,21.368v76.315a24.369,24.369,0,0,1-12.646,21.366l-71.088,39.027A24.336,24.336,0,0,1,98.464,203.14Zm0-195.018a16.236,16.236,0,0,0-7.822,2.017L19.552,49.166a16.246,16.246,0,0,0-8.427,14.242v76.315a16.247,16.247,0,0,0,8.429,14.245l71.09,39.027a16.185,16.185,0,0,0,15.638,0l71.09-39.027a16.242,16.242,0,0,0,8.431-14.245V63.409a16.249,16.249,0,0,0-8.429-14.245l-71.09-39.027A16.243,16.243,0,0,0,98.464,8.123Z" transform="translate(-3 0.008)" fill="#fbb040"/>
    </g>
  </g>
  <g id="Your_Icon" transform="translate(41.572 43.626)">
    <path id="Path_1106" data-name="Path 1106" d="M141.428,24.2a4.062,4.062,0,0,0-5.173-2.5l-14.4,5.017a4.094,4.094,0,0,0-1.221.678L103.667,41.137,96.9,34.365a4.064,4.064,0,0,0-2.872-1.19H73.5V25.619a4.064,4.064,0,0,0-4.062-4.062H27.529a4.064,4.064,0,0,0-4.062,4.062v11.74a4.113,4.113,0,0,0,.1.888v97.272a4.064,4.064,0,0,0,4.062,4.062.468.468,0,0,0,.075,0h84.573a4.064,4.064,0,0,0,4.062-4.062V55.5a4.064,4.064,0,0,0-1.19-2.872l-5.71-5.71,15.75-12.76,13.735-4.783A4.065,4.065,0,0,0,141.428,24.2ZM65.378,29.684v3.494H31.592V29.684Zm42.841,101.775H31.7V41.3H92.343l7.172,7.172a4.075,4.075,0,0,0,.514.843,4.03,4.03,0,0,0,1.464,1.133l6.729,6.729v74.279Z" transform="translate(-23.467 -21.47)" fill="#fbb040"/>
    <path id="Path_1107" data-name="Path 1107" d="M86.794,57.88c-6.165,0-11.182-5.775-11.182-12.871,0-4.735,3.969-10.619,7.3-14.724a5.12,5.12,0,0,1,7.765,0c3.327,4.1,7.3,9.981,7.3,14.72C97.975,52.107,92.958,57.88,86.794,57.88Zm0-19.227c-2.015,2.959-3.057,5.3-3.057,6.356,0,2.8,1.611,4.747,3.057,4.747s3.057-1.95,3.057-4.747C89.85,43.956,88.808,41.61,86.794,38.653Zm-2.427-3.246.006.006Z" transform="translate(30.303 -14.219)" fill="#fbb040"/>
    <path id="Path_1108" data-name="Path 1108" d="M84.291,72.279A4.081,4.081,0,0,0,80.8,71.6c-1.972.528-5,.788-10.891-1.917-4.267-1.956-5.988-5.561-5.517-8.179l.026-.1a4.064,4.064,0,0,0-5.338-4.8,12.944,12.944,0,0,0-5,3.207,12.307,12.307,0,0,0-1.643,2.186,10.928,10.928,0,0,0-.587-3.27,12.9,12.9,0,0,0-7.107-7.2,4.07,4.07,0,0,0-4.54,1.119,10.535,10.535,0,0,0-2.374,8.825,12.237,12.237,0,0,0,2.6,5.374,12.092,12.092,0,0,0-4.142,4.777,4.069,4.069,0,0,0,1.81,5.46,4.018,4.018,0,0,0,1.822.435,4.068,4.068,0,0,0,3.638-2.242,3.1,3.1,0,0,1,3.081-2,12.664,12.664,0,0,0-2.194,4.82,13.288,13.288,0,0,0-.047,5.171,4.061,4.061,0,0,0,6.1,2.744c3.173-1.932,9.871-1.257,14.2,5.031l.3.429a16.739,16.739,0,0,1,2.09,3.54,4.056,4.056,0,0,0,5.141,2.433c.524-.183,1.042-.38,1.548-.6A11.253,11.253,0,0,0,80.4,86.615a13.381,13.381,0,0,0,5.5-11.163A4.05,4.05,0,0,0,84.291,72.279Zm-9.11,8.082a4.063,4.063,0,0,0-3,5.177,4.052,4.052,0,0,1-.043,1.944l-.473-.68-.274-.39a20.868,20.868,0,0,0-17.052-9.465h-.12a9.039,9.039,0,0,1,1.2-.892,6.8,6.8,0,0,0,3.187-5.683,18.618,18.618,0,0,0,7.913,6.7,31.591,31.591,0,0,0,9.262,2.852A2.079,2.079,0,0,1,75.181,80.361Z" transform="translate(-10.69 9.239)" fill="#fbb040"/>
    <path id="Path_1109" data-name="Path 1109" d="M46.443,46.7" transform="translate(0.225 4.541)" fill="none" stroke="#000" stroke-linecap="round" stroke-linejoin="round" stroke-width="4"/>
    <path id="Path_1110" data-name="Path 1110" d="M59.811,37.433A4.064,4.064,0,0,0,55.748,41.5v5.214H48.857V41.5a4.062,4.062,0,1,0-8.125,0V59.883a4.062,4.062,0,1,0,8.125,0V54.834h6.892v5.047a4.062,4.062,0,1,0,8.125,0V41.493A4.062,4.062,0,0,0,59.811,37.433Z" transform="translate(-5.664 -5.01)" fill="#fbb040"/>
    <path id="Path_1111" data-name="Path 1111" d="M71.833,51.128h-.126V40.375a4.062,4.062,0,0,0-8.125,0v2.909a3.993,3.993,0,0,0-1.022-.762A4.064,4.064,0,0,0,57.1,44.31l-4.586,9.055a4.064,4.064,0,0,0,3.62,5.9c.024,0,.049-.01.073-.01l.02,0H63.58v2.679a4.062,4.062,0,1,0,8.125,0V59.255h.126a4.063,4.063,0,0,0,0-8.127Zm-9.077,0,.827-1.633v1.633Z" transform="translate(6.033 -6.165)" fill="#fbb040"/>
    <path id="Path_1112" data-name="Path 1112" d="M42.025,64.07A13.315,13.315,0,1,1,50.56,40.534a4.062,4.062,0,0,1-5.21,6.234,5.126,5.126,0,0,0-3.325-1.2,5.191,5.191,0,0,0,0,10.381,5.125,5.125,0,0,0,3.855-1.716,4.062,4.062,0,0,1,6.039,5.435A13.327,13.327,0,0,1,42.025,64.07Z" transform="translate(-18.06 -5.004)" fill="#fbb040"/>
  </g>
</svg>
