<svg id="CARBONFOOTPRINT" xmlns="http://www.w3.org/2000/svg" width="190.725" height="203.116" viewBox="0 0 190.725 203.116">
  <g id="Default_x5F_Hexagon_copy" transform="translate(0)">
    <g id="Default_1_">
      <path id="Path_1113" data-name="Path 1113" d="M98.464,203.116a24.251,24.251,0,0,1-11.781-3.047l-71.09-39A24.357,24.357,0,0,1,3,139.744V63.372A24.357,24.357,0,0,1,15.593,42.045l71.09-39a23.908,23.908,0,0,1,23.358,0l71.09,39a24.357,24.357,0,0,1,12.593,21.327v76.372a24.357,24.357,0,0,1-12.593,21.327l-71.09,39A22.939,22.939,0,0,1,98.464,203.116Zm0-194.991a16.428,16.428,0,0,0-7.922,2.031l-71.09,39a15.987,15.987,0,0,0-8.328,14.218v76.372a16.394,16.394,0,0,0,8.328,14.218l71.09,39a16.429,16.429,0,0,0,15.64,0l71.09-39a15.987,15.987,0,0,0,8.328-14.218V63.372a16.176,16.176,0,0,0-8.531-14.218l-70.887-39A15.147,15.147,0,0,0,98.464,8.125Z" transform="translate(-3 0)" fill="#42b294"/>
    </g>
  </g>
  <g id="Your_Icon" transform="translate(15.234 29.858)">
    <path id="Path_1114" data-name="Path 1114" d="M29.39,61.18a18.89,18.89,0,1,1,18.89-18.89A18.985,18.985,0,0,1,29.39,61.18Zm0-29.655A10.765,10.765,0,1,0,40.155,42.29,10.836,10.836,0,0,0,29.39,31.525Z" transform="translate(-10.5 -5.729)" fill="#42b294"/>
    <path id="Path_1115" data-name="Path 1115" d="M43.118,45.136A14.218,14.218,0,1,1,57.336,30.918,14.26,14.26,0,0,1,43.118,45.136Zm0-20.312a6.093,6.093,0,1,0,6.093,6.093A5.985,5.985,0,0,0,43.118,24.825Z" transform="translate(8.473 -12.638)" fill="#42b294"/>
    <path id="Path_1116" data-name="Path 1116" d="M57.4,40.7a13,13,0,1,1,13-13A13.091,13.091,0,0,1,57.4,40.7Zm0-17.874A4.875,4.875,0,1,0,62.274,27.7,4.943,4.943,0,0,0,57.4,22.825Z" transform="translate(24.456 -14.7)" fill="#42b294"/>
    <path id="Path_1117" data-name="Path 1117" d="M81.781,49.061A11.781,11.781,0,1,1,93.561,37.281,11.789,11.789,0,0,1,81.781,49.061Zm0-15.437a3.656,3.656,0,1,0,3.656,3.656A3.776,3.776,0,0,0,81.781,33.625Z" transform="translate(50.854 -3.563)" fill="#42b294"/>
    <path id="Path_1118" data-name="Path 1118" d="M70.081,42.361A11.781,11.781,0,1,1,81.861,30.581,11.789,11.789,0,0,1,70.081,42.361Zm0-15.234a3.656,3.656,0,1,0,3.656,3.656A3.776,3.776,0,0,0,70.081,27.128Z" transform="translate(38.789 -10.472)" fill="#42b294"/>
    <path id="Path_1119" data-name="Path 1119" d="M61.117,165.391a3.961,3.961,0,0,1-3.859-2.844c-2.641-9.14-8.328-16.249-14.827-24.374-2.031-2.641-4.265-5.484-6.5-8.328l-3.656-4.469A59.639,59.639,0,0,1,20.9,90.035a60.935,60.935,0,0,1,121.869-.2h0a201.007,201.007,0,0,1-7.515,54.435,4.115,4.115,0,1,1-7.922-2.234,198.942,198.942,0,0,0,7.109-52.2,52.81,52.81,0,1,0-105.62,0,53.9,53.9,0,0,0,9.75,30.671l3.453,4.469c2.234,3.047,4.265,5.687,6.5,8.328,6.7,8.531,13.2,16.655,16.249,27.217a4.109,4.109,0,0,1-2.64,5.078C61.726,165.188,61.523,165.391,61.117,165.391Z" transform="translate(0.224 0.149)" fill="#42b294"/>
    <g id="Group_356" data-name="Group 356" transform="translate(34.53 71.7)">
      <path id="Path_1120" data-name="Path 1120" d="M44.562,84.123a17.062,17.062,0,0,1,0-34.123,16.556,16.556,0,0,1,13.2,6.3,4.044,4.044,0,1,1-6.3,5.078,8.971,8.971,0,1,0-.609,11.984,4.021,4.021,0,0,1,5.687,5.687A16.249,16.249,0,0,1,44.562,84.123Z" transform="translate(-27.5 -50)" fill="#42b294"/>
      <path id="Path_1121" data-name="Path 1121" d="M60.055,83.711A16.656,16.656,0,1,1,76.711,67.055,16.731,16.731,0,0,1,60.055,83.711Zm0-24.983a8.531,8.531,0,1,0,8.531,8.531A8.582,8.582,0,0,0,60.055,58.728Z" transform="translate(-11.105 -49.588)" fill="#42b294"/>
      <path id="Path_1122" data-name="Path 1122" d="M83.146,83.5H64.865A4.074,4.074,0,0,1,60.8,79.442c0-6.5,6.093-10.156,11.578-13.2,2.234-1.219,6.906-3.859,6.906-5.078,0-1.828-3.047-2.641-5.281-2.641h0c-1.422,0-5.078.406-5.281,2.844a4.074,4.074,0,0,1-4.062,4.062h0A4.074,4.074,0,0,1,60.6,61.365c0-6.3,5.687-10.765,13.2-10.765h.2c7.718,0,13.406,4.672,13.406,10.765,0,5.89-5.89,9.343-10.968,12.187-1.016.609-2.437,1.422-3.656,2.234H82.943A4.074,4.074,0,0,1,87,79.849C87.208,81.677,85.38,83.5,83.146,83.5Z" transform="translate(6.631 -49.381)" fill="#42b294"/>
    </g>
  </g>
</svg>
