<svg xmlns="http://www.w3.org/2000/svg" width="118" height="41.568" viewBox="0 0 118 41.568">
  <g id="cc-zero" transform="translate(0.5)">
    <path id="Path_426" data-name="Path 426" d="M2.518.482l111.466.2c1.557,0,2.947-.232,2.947,3.128l-.138,36.95H-.295V3.673C-.3,2.016-.137.482,2.518.482Z" transform="translate(0.07 0.164)" fill="#fff"/>
    <g id="Group_169" data-name="Group 169" transform="translate(3.906 5.803)">
      <ellipse id="Ellipse_74" data-name="Ellipse 74" cx="14.885" cy="14.983" rx="14.885" ry="14.983" fill="#fff"/>
    </g>
    <path id="Path_427" data-name="Path 427" d="M23.271,4.061A19.109,19.109,0,0,1,24.5,33.755h84.28V4.061Z" transform="translate(8.104 1.384)"/>
    <g id="Group_170" data-name="Group 170" transform="translate(44.293 9.936)">
      <path id="Path_428" data-name="Path 428" d="M36.705,7.559a3.506,3.506,0,0,1,1.344.232,2.56,2.56,0,0,1,.9.611,2.375,2.375,0,0,1,.508.868,3.284,3.284,0,0,1,0,2.014,2.359,2.359,0,0,1-.508.872,2.513,2.513,0,0,1-.9.611A3.506,3.506,0,0,1,36.705,13H34.758v3.04H32.9V7.559ZM36.2,11.55a3.929,3.929,0,0,0,.613-.047,1.411,1.411,0,0,0,.52-.184,1,1,0,0,0,.361-.386,1.358,1.358,0,0,0,.135-.653,1.361,1.361,0,0,0-.135-.653.972.972,0,0,0-.361-.385,1.419,1.419,0,0,0-.52-.185,3.782,3.782,0,0,0-.613-.048H34.758v2.542Z" transform="translate(-32.905 -7.359)" fill="#fff"/>
      <path id="Path_429" data-name="Path 429" d="M45.335,15.391a3.876,3.876,0,0,1-2.644.838,3.867,3.867,0,0,1-2.65-.831,3.255,3.255,0,0,1-.937-2.565V7.559h1.852v5.275a3.936,3.936,0,0,0,.06.677,1.31,1.31,0,0,0,.774,1,2.1,2.1,0,0,0,.9.161,1.727,1.727,0,0,0,1.369-.445,2.129,2.129,0,0,0,.378-1.395V7.559h1.853v5.275A3.225,3.225,0,0,1,45.335,15.391Z" transform="translate(-30.792 -7.359)" fill="#fff"/>
      <path id="Path_430" data-name="Path 430" d="M50.08,7.559a5.119,5.119,0,0,1,1.1.109,2.4,2.4,0,0,1,.849.35,1.635,1.635,0,0,1,.55.646,2.311,2.311,0,0,1,.2,1,1.86,1.86,0,0,1-.29,1.067,2.123,2.123,0,0,1-.857.7,2.02,2.02,0,0,1,1.16.79,2.385,2.385,0,0,1,.383,1.361,2.316,2.316,0,0,1-.251,1.11,2.187,2.187,0,0,1-.665.766,2.9,2.9,0,0,1-.956.438,4.344,4.344,0,0,1-1.1.141H46.108V7.559Zm-.235,3.433a1.32,1.32,0,0,0,.814-.239.9.9,0,0,0,.316-.772.988.988,0,0,0-.1-.487.8.8,0,0,0-.283-.3,1.134,1.134,0,0,0-.409-.146,2.515,2.515,0,0,0-.476-.043H47.968v1.985Zm.107,3.6a2.5,2.5,0,0,0,.519-.054,1.31,1.31,0,0,0,.437-.178.947.947,0,0,0,.3-.341,1.152,1.152,0,0,0,.111-.544,1.109,1.109,0,0,0-.363-.932,1.567,1.567,0,0,0-.969-.279H47.972v2.331h1.983v0Z" transform="translate(-28.404 -7.359)" fill="#fff"/>
      <path id="Path_431" data-name="Path 431" d="M54.614,7.559v6.914H58.72v1.566H52.76V7.559Z" transform="translate(-26.136 -7.359)" fill="#fff"/>
      <path id="Path_432" data-name="Path 432" d="M60.219,7.559v8.48H58.366V7.559Z" transform="translate(-24.225 -7.359)" fill="#fff"/>
      <path id="Path_433" data-name="Path 433" d="M66.918,9.873a1.884,1.884,0,0,0-.414-.468,1.913,1.913,0,0,0-1.215-.429,2.161,2.161,0,0,0-1.063.245,1.947,1.947,0,0,0-.7.652,2.926,2.926,0,0,0-.4.932A4.629,4.629,0,0,0,63,11.886a4.326,4.326,0,0,0,.125,1.041,2.807,2.807,0,0,0,.4.909,2.066,2.066,0,0,0,.7.648,2.175,2.175,0,0,0,1.063.243,1.709,1.709,0,0,0,1.327-.522,2.451,2.451,0,0,0,.586-1.378h1.793a4.348,4.348,0,0,1-.363,1.437,3.451,3.451,0,0,1-.78,1.093,3.223,3.223,0,0,1-1.133.688,4.1,4.1,0,0,1-1.428.239,4.3,4.3,0,0,1-1.739-.338,3.706,3.706,0,0,1-1.3-.932,4.072,4.072,0,0,1-.814-1.395,5.12,5.12,0,0,1-.283-1.728,5.294,5.294,0,0,1,.283-1.765,4.278,4.278,0,0,1,.814-1.42,3.715,3.715,0,0,1,1.3-.949,4.483,4.483,0,0,1,3.055-.145,3.609,3.609,0,0,1,1.109.59,3.239,3.239,0,0,1,.81.955,3.462,3.462,0,0,1,.4,1.307h-1.8A1.5,1.5,0,0,0,66.918,9.873Z" transform="translate(-23.276 -7.41)" fill="#fff"/>
      <path id="Path_434" data-name="Path 434" d="M36.539,16.418a4.309,4.309,0,0,1,1.517.257,3.258,3.258,0,0,1,1.215.784,3.647,3.647,0,0,1,.8,1.307,5.318,5.318,0,0,1,.29,1.838,5.919,5.919,0,0,1-.236,1.712,3.814,3.814,0,0,1-.713,1.357,3.407,3.407,0,0,1-1.193.9,4.053,4.053,0,0,1-1.682.325H32.9V16.418h3.634Zm-.129,6.911a2.3,2.3,0,0,0,.779-.131,1.689,1.689,0,0,0,.673-.433,2.194,2.194,0,0,0,.472-.791,3.483,3.483,0,0,0,.177-1.188,4.954,4.954,0,0,0-.125-1.157,2.277,2.277,0,0,0-.408-.884,1.806,1.806,0,0,0-.75-.565,2.953,2.953,0,0,0-1.151-.2H34.759v5.345Z" transform="translate(-32.905 -4.339)" fill="#fff"/>
      <path id="Path_435" data-name="Path 435" d="M39.872,18.979a4.339,4.339,0,0,1,.813-1.42,3.709,3.709,0,0,1,1.3-.951,4.584,4.584,0,0,1,3.488,0,3.725,3.725,0,0,1,1.3.951,4.191,4.191,0,0,1,.811,1.42,5.266,5.266,0,0,1,.286,1.765,5.068,5.068,0,0,1-.286,1.727,4.249,4.249,0,0,1-.811,1.395,3.812,3.812,0,0,1-1.3.932,4.669,4.669,0,0,1-3.488,0,3.782,3.782,0,0,1-1.3-.932,4.186,4.186,0,0,1-.813-1.395,5.167,5.167,0,0,1-.283-1.727A5.339,5.339,0,0,1,39.872,18.979Zm1.692,2.8a2.835,2.835,0,0,0,.4.912,2.085,2.085,0,0,0,.707.646,2.421,2.421,0,0,0,2.124,0,2.019,2.019,0,0,0,.709-.646,2.912,2.912,0,0,0,.4-.912,4.3,4.3,0,0,0,.123-1.038,4.645,4.645,0,0,0-.123-1.081,2.893,2.893,0,0,0-.4-.933,2.04,2.04,0,0,0-.709-.65,2.409,2.409,0,0,0-2.124,0,2.02,2.02,0,0,0-.707.65,2.9,2.9,0,0,0-.4.933,4.621,4.621,0,0,0-.125,1.081A4.434,4.434,0,0,0,41.564,21.782Z" transform="translate(-30.626 -4.392)" fill="#fff"/>
      <path id="Path_436" data-name="Path 436" d="M49.755,16.418l1.972,5.83h.027l1.868-5.83h2.6V24.9H54.491V18.888h-.027L52.4,24.9H50.972l-2.065-5.95h-.025V24.9H47.148V16.418Z" transform="translate(-28.049 -4.339)" fill="#fff"/>
      <path id="Path_437" data-name="Path 437" d="M60.057,16.418,63.209,24.9H61.286l-.638-1.888H57.495l-.66,1.888H54.97l3.187-8.477h1.9Zm.107,5.2L59.1,18.506h-.024l-1.1,3.114Z" transform="translate(-25.383 -4.339)" fill="#fff"/>
      <path id="Path_438" data-name="Path 438" d="M64.018,16.418V24.9H62.165V16.418Z" transform="translate(-22.93 -4.339)" fill="#fff"/>
      <path id="Path_439" data-name="Path 439" d="M67.072,16.418l3.517,5.688h.024V16.418h1.735V24.9H70.493l-3.5-5.677h-.027V24.9H65.23V16.418h1.842Z" transform="translate(-21.885 -4.339)" fill="#fff"/>
    </g>
    <path id="Path_440" data-name="Path 440" d="M115.29,0H1.708A2.219,2.219,0,0,0-.5,2.223V41.068a.5.5,0,0,0,.5.5H117a.5.5,0,0,0,.5-.5V2.223A2.218,2.218,0,0,0,115.29,0ZM1.708,1.006H115.29a1.213,1.213,0,0,1,1.21,1.218V40.516H.5V2.223A1.215,1.215,0,0,1,1.708,1.006Z" transform="translate(0)"/>
    <g id="Group_171" data-name="Group 171" transform="translate(3.55 5.026)">
      <ellipse id="Ellipse_75" data-name="Ellipse 75" cx="14.755" cy="14.852" rx="14.755" ry="14.852" transform="translate(0.847 1.122)" fill="#fff"/>
      <path id="text2809_4_" d="M15.868,8.746c-5.179,0-6.482,4.92-6.482,9.09s1.3,9.09,6.482,9.09S22.35,22,22.35,17.836,21.048,8.746,15.868,8.746Zm0,3.426a2.237,2.237,0,0,1,.583.08,1,1,0,0,1,.2,1.392L13.2,20.027a17.076,17.076,0,0,1-.122-2.191C13.078,16,13.2,12.172,15.868,12.172Zm2.583,2.941a15.152,15.152,0,0,1,.208,2.722c0,1.837-.126,5.663-2.789,5.663a2.506,2.506,0,0,1-.583-.066.72.72,0,0,0-.1-.034,1.378,1.378,0,0,1-.164-.055c-.593-.252-.967-.712-.428-1.527Z" transform="translate(-0.179 -2.044)"/>
      <path id="path2815_4_" d="M18.175,3.748A14.775,14.775,0,0,0,7.166,8.337a16.019,16.019,0,0,0-3.472,5.2,15.938,15.938,0,0,0,0,12.011,15.994,15.994,0,0,0,3.417,5.13,16.3,16.3,0,0,0,5.1,3.47,15.4,15.4,0,0,0,5.966,1.185,15.575,15.575,0,0,0,6.033-1.216,16.172,16.172,0,0,0,5.207-3.493,14.3,14.3,0,0,0,3.339-4.987A16.136,16.136,0,0,0,33.9,19.541a16.1,16.1,0,0,0-1.142-6.072,15.142,15.142,0,0,0-3.362-5.1A15.267,15.267,0,0,0,18.175,3.748Zm.066,2.841a12.353,12.353,0,0,1,9.1,3.8,12.647,12.647,0,0,1,2.78,4.182,13.064,13.064,0,0,1,.956,4.965,12.166,12.166,0,0,1-3.679,9.046,13.448,13.448,0,0,1-4.286,2.853,12.478,12.478,0,0,1-4.868.982,12.654,12.654,0,0,1-4.878-.961,13.173,13.173,0,0,1-4.174-2.821,13.457,13.457,0,0,1-2.856-4.2,12.648,12.648,0,0,1,0-9.809,13.74,13.74,0,0,1,2.856-4.257A12.137,12.137,0,0,1,18.241,6.589Z" transform="translate(-2.52 -3.748)"/>
    </g>
  </g>
</svg>
