<svg xmlns="http://www.w3.org/2000/svg" width="94" height="100.016" viewBox="0 0 94 100.016">
  <g id="Group_4836" data-name="Group 4836" transform="translate(18488 20187.008)">
    <circle id="Ellipse_228_15_" cx="1.3" cy="1.3" r="1.3" transform="translate(-18432.084 -20110.428)" fill="#f5964e"/>
    <circle id="Ellipse_228_14_" cx="1.3" cy="1.3" r="1.3" transform="translate(-18432.084 -20103.789)" fill="#f5964e"/>
    <circle id="Ellipse_228_13_" cx="1.3" cy="1.3" r="1.3" transform="translate(-18432.084 -20097.15)" fill="#f5964e"/>
    <g id="Group_217" data-name="Group 217" transform="translate(-18490.801 -20186.801)">
      <path id="Path_317" data-name="Path 317" d="M90.575,20.5l-35-19.213a11.94,11.94,0,0,0-11.55,0L9.025,20.5A12,12,0,0,0,2.8,31.014V68.586A12,12,0,0,0,9.026,79.1l35,19.215a11.949,11.949,0,0,0,11.549,0l35-19.215A12,12,0,0,0,96.8,68.586V31.014A12,12,0,0,0,90.575,20.5ZM34.812,42.655v-1c2.815.424,3.534,1.74,3.8,2.228,1.852,3.432-.623,10.615-3.73,16.767V43.144A1.924,1.924,0,0,0,34.812,42.655Zm-4,17.867c-3.076-6.123-5.5-13.229-3.663-16.636.259-.48.957-1.764,3.663-2.209Zm4.84,14.906a.721.721,0,0,1,.712.712v8.9a.721.721,0,0,1-.712.712H29.676a.721.721,0,0,1-.712-.712v-8.9a.721.721,0,0,1,.712-.712ZM40.3,85.664c1.4-.671,2.92-1.437,4.554-2.3L43.408,93.419l-6.85-3.761A4.7,4.7,0,0,0,40.3,85.664Zm13.35,9.149a7.953,7.953,0,0,1-6.478.531L49.38,80c0-.019,0-.038,0-.058a2.013,2.013,0,0,0,.009-.22c0-.059,0-.118,0-.176a1.9,1.9,0,0,0-.032-.2,1.918,1.918,0,0,0-.04-.189c-.017-.058-.041-.114-.063-.171a2.041,2.041,0,0,0-.086-.2c-.009-.018-.014-.036-.023-.053-.021-.037-.048-.066-.071-.1a2.063,2.063,0,0,0-.119-.17,1.869,1.869,0,0,0-.134-.147c-.043-.044-.087-.087-.134-.127s-.108-.084-.164-.122-.1-.068-.155-.1-.122-.061-.185-.088-.112-.047-.17-.066-.141-.038-.212-.053c-.039-.008-.075-.023-.115-.029-.019,0-.038,0-.057,0a1.869,1.869,0,0,0-.212-.009,1.736,1.736,0,0,0-.191,0c-.057,0-.113.017-.169.027a1.842,1.842,0,0,0-.223.048c-.045.013-.089.033-.133.049a1.894,1.894,0,0,0-.235.1c-.014.007-.029.011-.042.018-2.179,1.222-4.21,2.287-6.059,3.209V76.14a4.517,4.517,0,0,0-.056-.549c2.989-2.444,6.208-4.353,8.428-4.915a15.9,15.9,0,0,1,5.928-.566,2.043,2.043,0,0,0,.382.037H55.3c-.222.186-.443.383-.658.6a7.553,7.553,0,0,0-1.77,4.983,7.553,7.553,0,0,0,4.983-1.77,7.329,7.329,0,0,0,2.057-3.38h.047c.041,0,.081-.006.123-.006a7.233,7.233,0,0,0,2.058,3.42c1.865,1.865,5,1.752,5,1.752s.112-3.136-1.752-5c-.215-.215-.436-.412-.659-.6h.145a2.292,2.292,0,0,0,.4-.04,15.269,15.269,0,0,1,5.893.57c4.343,1.1,7.572,5,8.227,9.954,0,.016.008.03.011.045ZM92.8,68.586A8,8,0,0,1,88.65,75.6l-5.556,3.05A15.265,15.265,0,0,0,72.144,66.8c-.074-.019-.139-.03-.212-.048A20.611,20.611,0,0,0,79.9,44.113a1.983,1.983,0,0,0,.5-1.313V38.987a10.027,10.027,0,0,0-6.556-17.616c-.306,0-.61.018-.914.046-.12.011-.237.028-.355.043-.175.023-.349.048-.522.08-.147.027-.292.056-.437.089s-.266.066-.4.1c-.163.044-.327.088-.487.14l-.023.007c-.024-.039-.055-.072-.08-.11a12.627,12.627,0,0,0-.749-1.029c-.085-.106-.172-.21-.261-.314-.265-.308-.541-.6-.834-.886-.1-.1-.2-.186-.305-.279-.307-.277-.623-.545-.957-.792-.081-.06-.167-.114-.25-.172q-.489-.345-1.01-.643c-.066-.037-.128-.079-.195-.115a12.72,12.72,0,0,0-1.237-.586c-.077-.032-.153-.066-.231-.1a12.6,12.6,0,0,0-1.309-.43l-.236-.061a12.528,12.528,0,0,0-1.389-.269c-.064-.009-.129-.014-.194-.021a11.751,11.751,0,0,0-3,0c-.147.017-.29.044-.436.067q-.523.079-1.034.2c-.158.038-.314.077-.469.121-.339.095-.671.206-1,.328-.132.049-.266.092-.4.145a12.688,12.688,0,0,0-1.263.6c-.126.069-.243.15-.366.223-.281.166-.557.338-.823.524-.171.12-.335.247-.5.375q-.315.245-.614.508c-.162.142-.323.283-.477.434-.225.219-.436.45-.644.685-.142.161-.285.32-.419.489q-.374.467-.7.966c-.032.049-.072.092-.1.142a10.019,10.019,0,0,0-13.166,9.523,2,2,0,0,0,4,0,6.019,6.019,0,0,1,7.584-5.823A12.6,12.6,0,0,0,50.1,36.742a2,2,0,0,0,3.1-2.526,8.657,8.657,0,0,1-.722-9.959c.051-.085.1-.171.155-.255a8.636,8.636,0,0,1,.629-.867c.059-.071.124-.135.185-.2q.278-.313.582-.6c.09-.084.18-.168.274-.249a8.709,8.709,0,0,1,.821-.629c.069-.046.142-.085.212-.129a8.52,8.52,0,0,1,.775-.434c.091-.045.183-.091.276-.133a8.715,8.715,0,0,1,1.03-.4c.036-.011.075-.018.111-.029a8.844,8.844,0,0,1,1-.225c.1-.016.19-.031.286-.044a7.891,7.891,0,0,1,2.317,0c.069.009.138.017.207.028a8.7,8.7,0,0,1,1.08.242c.065.019.128.041.192.062a8.7,8.7,0,0,1,1.033.4l.058.028a8.876,8.876,0,0,1,.919.514c.076.048.153.094.227.145a8.5,8.5,0,0,1,.8.614c.079.068.155.139.232.21a8.658,8.658,0,0,1,.714.732c.046.054.087.112.131.166.177.218.34.449.5.685A10.005,10.005,0,0,0,65.2,36.5a2,2,0,0,0,3.446-2.033,6.033,6.033,0,0,1,3.6-8.868l.1-.026a6.118,6.118,0,0,1,.611-.123c.052-.008.1-.017.155-.024a5.943,5.943,0,0,1,.731-.049,6.028,6.028,0,0,1,3.42,10.993,2,2,0,0,0-.863,1.646v2.623a2.064,2.064,0,0,0-.3.168H49.242a2,2,0,0,0,0,4h26.7A16.737,16.737,0,0,1,63.688,66.151H56.15a16.619,16.619,0,0,1-9.568-6.246,2,2,0,1,0-3.195,2.406,20.889,20.889,0,0,0,4.562,4.448c-.067.016-.127.027-.195.044-2.62.663-6.2,2.677-9.581,5.375a4.669,4.669,0,0,0-2.523-.746h-.77V68.741c2.184-3.42,11.507-18.856,7.251-26.748-1.6-2.964-4.711-4.467-9.251-4.467s-7.653,1.5-9.251,4.467C19.373,49.886,28.7,65.321,30.88,68.741v2.691h-1.2a4.716,4.716,0,0,0-4.712,4.712V83.3L10.95,75.6A8,8,0,0,1,6.8,68.586V31.014A8,8,0,0,1,10.95,24l35-19.214a7.963,7.963,0,0,1,7.7,0L88.65,24a8,8,0,0,1,4.15,7.013V68.586Z" fill="#f5964e"/>
      <path id="Path_318" data-name="Path 318" d="M53.675,59.116c.01.167.32,4.077,6.344,4.077,5.94,0,6.421-3.823,6.438-3.985a2,2,0,0,0-3.943-.636c-.129.186-.79.621-2.495.621-1.609,0-2.246-.385-2.379-.554a2,2,0,0,0-3.965.477Z" fill="#f5964e"/>
      <circle id="Ellipse_74" data-name="Ellipse 74" cx="2" cy="2" r="2" transform="translate(50.719 48.191)" fill="#f5964e"/>
      <circle id="Ellipse_75" data-name="Ellipse 75" cx="2" cy="2" r="2" transform="translate(65.219 48.191)" fill="#f5964e"/>
    </g>
  </g>
</svg>
