<svg id="COASTAL" xmlns="http://www.w3.org/2000/svg" width="190.725" height="203.116" viewBox="0 0 190.725 203.116">
  <g id="Default_x5F_Hexagon" transform="translate(0)">
    <g id="Default">
      <path id="Path_1123" data-name="Path 1123" d="M98.464,203.116a24.251,24.251,0,0,1-11.781-3.047l-71.09-39A24.357,24.357,0,0,1,3,139.744V63.372A24.357,24.357,0,0,1,15.593,42.045l71.09-39a23.908,23.908,0,0,1,23.358,0l71.09,39a24.357,24.357,0,0,1,12.593,21.327v76.372a24.357,24.357,0,0,1-12.593,21.327l-71.09,39A22.939,22.939,0,0,1,98.464,203.116Zm0-194.991a16.428,16.428,0,0,0-7.922,2.031l-71.09,39a15.987,15.987,0,0,0-8.328,14.218v76.372a16.394,16.394,0,0,0,8.328,14.218l71.09,39a16.429,16.429,0,0,0,15.64,0l71.09-39a15.987,15.987,0,0,0,8.328-14.218V63.372a16.176,16.176,0,0,0-8.531-14.218l-70.887-39A15.147,15.147,0,0,0,98.464,8.125Z" transform="translate(-3 0)" fill="#42b294"/>
    </g>
  </g>
  <g id="Your_Icon" transform="translate(6.5 17.468)">
    <g id="Group_358" data-name="Group 358" transform="translate(0 85.526)">
      <g id="Group_357" data-name="Group 357">
        <path id="Path_1124" data-name="Path 1124" d="M110.244,67.485c-2.234,13.2-19.5,13.2-20.312,13.2l-37.17-.609a4.062,4.062,0,0,0,0,8.125l37.17.609c8.734.2,25.8-3.859,28.436-19.905a3.964,3.964,0,0,0-3.25-4.672C112.681,63.829,110.447,65.251,110.244,67.485Z" transform="translate(37.624 -36.829)" fill="#42b294"/>
        <path id="Path_1125" data-name="Path 1125" d="M79.627,79.1l-10.765-.2a4.062,4.062,0,1,0,0,8.125l10.765.2a4.062,4.062,0,1,0,0-8.125Z" transform="translate(54.226 -21.635)" fill="#42b294"/>
        <path id="Path_1126" data-name="Path 1126" d="M183.723,68.567c-7.515-.609-11.984-2.234-22.749-11.171l-1.625-1.422A23.617,23.617,0,0,0,141.475,50.9a21.776,21.776,0,0,0-15.031,10.359,3.671,3.671,0,0,0,.2,4.265,3.473,3.473,0,0,0,4.062,1.016c4.469-1.625,7.109-.406,7.922.609.609,1.219-.406,2.844-1.625,3.859-7.312,6.906-38.389,4.469-56.466,1.422a1.831,1.831,0,0,0-1.016-.2c-2.437-.406-4.469-.812-6.3-1.219-8.125-1.828-20.312-3.453-32.3-5.078C27.527,64.1,13.512,62.27,6.4,60.239l-.2,7.515c7.922,2.031,20.515,3.656,33.717,5.484,9.953,1.219,20.108,2.641,27.624,4.062a23.167,23.167,0,0,0-7.109,6.906c-2.031,3.453-1.625,6.093-.812,7.922,1.422,3.25,5.078,4.875,8.328,6.3,1.625.609,3.453,1.422,4.062,2.234,1.422,1.422,1.828,2.844,2.437,5.484l.2,1.016c3.453,15.64,15.031,18.484,26,19.093a98.634,98.634,0,0,0,10.562.2c6.093-.2,7.312-.2,10.156,4.265l6.3-3.453c-5.281-8.125-8.937-8.328-16.655-8.125a87.291,87.291,0,0,1-9.953-.2c-12.187-.812-17.265-4.469-19.3-13.609l-.2-1.016a17.05,17.05,0,0,0-4.265-9.14c-1.625-1.625-4.062-2.641-6.3-3.656-1.422-.609-4.265-1.828-4.672-2.641a2.006,2.006,0,0,1,.406-1.219c2.437-3.859,9.953-7.922,12.593-8.531a220.158,220.158,0,0,0,26.2,2.844c2.234.2,4.265.2,6.3.2,15.437.2,25.389-1.828,30.061-6.3,4.062-3.859,5.281-8.937,2.844-13a10.4,10.4,0,0,0-5.687-4.265,9.064,9.064,0,0,1,3.656-1.016,15.755,15.755,0,0,1,12.187,3.453l1.625,1.422c11.578,9.546,17.062,11.984,27.217,12.8Z" transform="translate(-6.2 -50.707)" fill="#42b294"/>
      </g>
    </g>
    <g id="Group_360" data-name="Group 360" transform="translate(13.349)">
      <g id="Group_359" data-name="Group 359">
        <path id="Path_1127" data-name="Path 1127" d="M40.68,52.067A24.986,24.986,0,0,1,18.134,37.849c-1.422-2.844-2.234-4.672-2.234-8.125l8.125-.406c0,1.828.406,2.641,1.625,4.875A16.627,16.627,0,1,0,55.711,19.974c-1.422-2.844-1.828-3.453-3.656-4.875l4.875-6.5c3.25,2.437,4.469,4.469,6.093,7.922A24.913,24.913,0,0,1,40.68,52.067Z" transform="translate(-9.547 -8.6)" fill="#42b294"/>
        <path id="Path_1128" data-name="Path 1128" d="M16.891,39.991a4.24,4.24,0,0,1-3.25-1.625,4.125,4.125,0,0,1,.609-5.687l11.171-8.937a4.045,4.045,0,0,1,5.078,6.3L19.329,38.975A2.734,2.734,0,0,1,16.891,39.991Z" transform="translate(-12.772 6.117)" fill="#42b294"/>
        <path id="Path_1129" data-name="Path 1129" d="M25.388,40.86a3.457,3.457,0,0,1-1.422-.2,4.226,4.226,0,0,1-2.437-5.281l2.641-7.109a4.113,4.113,0,1,1,7.718,2.844l-2.64,7.109A4.165,4.165,0,0,1,25.388,40.86Z" transform="translate(-4.004 8.904)" fill="#42b294"/>
        <path id="Path_1130" data-name="Path 1130" d="M35.144,50.1a4.33,4.33,0,0,1-4.062-3.25L28.035,31.01a4.143,4.143,0,1,1,8.125-1.625l3.047,15.64a4.165,4.165,0,0,1-3.25,4.875A1.535,1.535,0,0,1,35.144,50.1Z" transform="translate(2.895 9.41)" fill="#42b294"/>
        <path id="Path_1131" data-name="Path 1131" d="M44.025,39.3a4.478,4.478,0,0,1-3.047-1.219L33.87,30.36a4.168,4.168,0,1,1,6.093-5.687l7.109,7.718a4.174,4.174,0,0,1-.2,5.89A5.391,5.391,0,0,1,44.025,39.3Z" transform="translate(7.826 6.607)" fill="#42b294"/>
        <path id="Path_1132" data-name="Path 1132" d="M55.227,32.825a2.576,2.576,0,0,1-1.219-.2l-15.64-4.875a3.88,3.88,0,0,1-2.64-5.078,3.88,3.88,0,0,1,5.078-2.641L56.446,24.9a3.88,3.88,0,0,1,2.641,5.078A4.152,4.152,0,0,1,55.227,32.825Z" transform="translate(10.639 2.924)" fill="#42b294"/>
        <path id="Path_1133" data-name="Path 1133" d="M41.1,22.888a4.1,4.1,0,0,1-.812-8.125l9.343-1.828a4.143,4.143,0,1,1,1.625,8.125L41.91,22.888Z" transform="translate(12.176 -4.201)" fill="#42b294"/>
      </g>
    </g>
  </g>
</svg>
