<svg id="Component_7_1" data-name="Component 7 – 1" xmlns="http://www.w3.org/2000/svg" width="721.088" height="285.189" viewBox="0 0 721.088 285.189">
  <g id="Group_388" data-name="Group 388" transform="translate(0 0)">
    <g id="Group_282" data-name="Group 282" transform="translate(0 51.725)">
      <path id="Path_333" data-name="Path 333" d="M154.968,391.1s-22.307,4.865-32.512-3.845c0,0-7.336-.466-4.386,7.549s43.956,29.817,95.573,33.446a107.375,107.375,0,0,0,38.511,9.677c22.38,1.412,98.8,20.769,188.323,5.041,0,0,92.547,6.654,154.245-5.445s65.935-30.848,79.847-30.848,25.405-1.009,38.308.806,33.875,12.3,48.794,26.412,40.527,37.3,74.2,36.7c0,0-14.719-11.752-3.426-41.666s4.032-80.725-.4-95.646-6.051-43.954,4.435-49.6c0,0-28.631-5.645-58.071,26.617s-36.7,25.2-44.357,27.824-10.083,3.226-12.7,8.67c0,0-59.078,4.636-106.662-15.527s-101.621-12.9-123.8-19.355-61.094-5.647-84.282-5.041-106.057,1.813-141.948,9.477S161.622,340.338,137.83,355.259s-20.97,21.17-19.156,23.186,6.857-.4,12.1,1.613S150.936,385.4,154.968,391.1Z" transform="translate(-117.371 -283.3)" fill="#6792d7"/>
    </g>
    <path id="Path_334" data-name="Path 334" d="M836.412,283.686s-28.633-5.645-58.071,26.615-36.7,25.2-44.359,27.825-10.081,3.226-12.7,8.67c0,0-59.078,4.638-106.662-15.525S513,318.366,490.817,311.914s-61.094-5.645-84.28-5.041-106.059,1.816-141.948,9.477-103.033,24-126.826,38.914c-18.568,11.646-20.925,18.009-20.2,21.2H838.117c-.9-18.7-3.885-35.585-6.143-43.177C827.539,318.366,825.926,289.332,836.412,283.686Z" transform="translate(-117.28 -231.568)" fill="#97bfff"/>
    <path id="Path_335" data-name="Path 335" d="M836.412,283.686s-28.633-5.645-58.071,26.615-36.7,25.2-44.359,27.825-10.081,3.226-12.7,8.67c0,0-59.078,4.638-106.662-15.525S513,318.366,490.817,311.914s-61.094-5.645-84.28-5.041-106.059,1.816-141.948,9.477-103.033,24-126.826,38.914c-18.568,11.646-20.925,18.009-20.2,21.2H838.117c-.9-18.7-3.885-35.585-6.143-43.177C827.539,318.366,825.926,289.332,836.412,283.686Z" transform="translate(-117.28 -231.568)" fill="#97bfff"/>
    <g id="Group_204" data-name="Group 204" transform="translate(43.749 74.959)">
      <path id="Path_336" data-name="Path 336" d="M144.991,325.02a6.89,6.89,0,1,0,6.889-6.891A6.888,6.888,0,0,0,144.991,325.02Z" transform="translate(-129.183 -266.262)" fill="#5284d2"/>
      <path id="Path_337" data-name="Path 337" d="M155.569,316.7a6.89,6.89,0,1,0,6.892-6.891A6.891,6.891,0,0,0,155.569,316.7Z" transform="translate(-116.952 -275.88)" fill="#5284d2"/>
      <path id="Path_338" data-name="Path 338" d="M171.753,318.129a6.89,6.89,0,1,0,6.889,6.891A6.892,6.892,0,0,0,171.753,318.129Z" transform="translate(-106.208 -266.262)" fill="#5284d2"/>
      <path id="Path_339" data-name="Path 339" d="M175.44,316.7a6.89,6.89,0,1,0,6.889-6.891A6.889,6.889,0,0,0,175.44,316.7Z" transform="translate(-93.976 -275.88)" fill="#5284d2"/>
      <path id="Path_340" data-name="Path 340" d="M191.621,318.129a6.891,6.891,0,1,0,6.892,6.891A6.89,6.89,0,0,0,191.621,318.129Z" transform="translate(-83.232 -266.262)" fill="#5284d2"/>
      <path id="Path_341" data-name="Path 341" d="M171.123,308.092a6.868,6.868,0,0,0,6.816-6.161c-4.1.992-8.291,2.033-12.534,3.114A6.883,6.883,0,0,0,171.123,308.092Z" transform="translate(-105.579 -284.991)" fill="#5284d2"/>
      <path id="Path_342" data-name="Path 342" d="M290.974,298.4a6.891,6.891,0,1,0,6.889,6.891A6.892,6.892,0,0,0,290.974,298.4Z" transform="translate(31.646 -289.079)" fill="#5284d2"/>
      <circle id="Ellipse_75" data-name="Ellipse 75" cx="6.891" cy="6.891" r="6.891" transform="translate(252.847 33.931)" fill="#5284d2"/>
      <path id="Path_343" data-name="Path 343" d="M147.212,315.211a6.855,6.855,0,0,0-1.369-4.11,24.062,24.062,0,0,0-8.183,10.467,6.9,6.9,0,0,0,9.552-6.357Z" transform="translate(-137.66 -274.388)" fill="#5284d2"/>
      <path id="Path_344" data-name="Path 344" d="M263.222,294.075c-2.255.024-4.457.056-6.592.1a6.655,6.655,0,0,0,6.592-.1Z" transform="translate(-0.098 -294.075)" fill="#5284d2"/>
      <path id="Path_345" data-name="Path 345" d="M215.18,316.7a6.89,6.89,0,1,0,6.891-6.891A6.891,6.891,0,0,0,215.18,316.7Z" transform="translate(-48.025 -275.88)" fill="#5284d2"/>
      <circle id="Ellipse_76" data-name="Ellipse 76" cx="6.891" cy="6.891" r="6.891" transform="translate(187.191 51.868)" fill="#5284d2"/>
      <path id="Path_346" data-name="Path 346" d="M191.621,298.4a6.891,6.891,0,1,0,6.892,6.891A6.89,6.89,0,0,0,191.621,298.4Z" transform="translate(-83.232 -289.079)" fill="#5284d2"/>
      <path id="Path_347" data-name="Path 347" d="M235.051,316.7a6.89,6.89,0,1,0,6.889-6.891A6.889,6.889,0,0,0,235.051,316.7Z" transform="translate(-25.049 -275.88)" fill="#5284d2"/>
      <circle id="Ellipse_77" data-name="Ellipse 77" cx="6.891" cy="6.891" r="6.891" transform="translate(230.037 9.318)" fill="#5284d2"/>
      <circle id="Ellipse_78" data-name="Ellipse 78" cx="6.891" cy="6.891" r="6.891" transform="translate(187.191 9.318)" fill="#5284d2"/>
      <circle id="Ellipse_79" data-name="Ellipse 79" cx="6.891" cy="6.891" r="6.891" transform="translate(124.309 33.931)" fill="#5284d2"/>
      <path id="Path_348" data-name="Path 348" d="M211.491,318.129a6.891,6.891,0,1,0,6.891,6.891A6.891,6.891,0,0,0,211.491,318.129Z" transform="translate(-60.256 -266.262)" fill="#5284d2"/>
      <path id="Path_349" data-name="Path 349" d="M211.491,298.4a6.891,6.891,0,1,0,6.891,6.891A6.891,6.891,0,0,0,211.491,298.4Z" transform="translate(-60.256 -289.079)" fill="#5284d2"/>
      <path id="Path_350" data-name="Path 350" d="M290.974,318.129a6.891,6.891,0,1,0,6.889,6.891A6.891,6.891,0,0,0,290.974,318.129Z" transform="translate(31.646 -266.262)" fill="#5284d2"/>
      <path id="Path_351" data-name="Path 351" d="M251.232,318.129a6.891,6.891,0,1,0,6.891,6.891A6.89,6.89,0,0,0,251.232,318.129Z" transform="translate(-14.305 -266.262)" fill="#5284d2"/>
      <path id="Path_352" data-name="Path 352" d="M400.9,322.788a6.865,6.865,0,0,0,4.244-12.282,12.249,12.249,0,0,0-3.653,4.841s-2.728.214-7.461.349c0,.069-.019.132-.019.2A6.889,6.889,0,0,0,400.9,322.788Z" transform="translate(158.756 -275.076)" fill="#5284d2"/>
      <path id="Path_353" data-name="Path 353" d="M301.551,323.592a6.89,6.89,0,1,0-6.889-6.889A6.891,6.891,0,0,0,301.551,323.592Z" transform="translate(43.878 -275.88)" fill="#5284d2"/>
      <path id="Path_354" data-name="Path 354" d="M310.843,318.129a6.891,6.891,0,1,0,6.892,6.891A6.89,6.89,0,0,0,310.843,318.129Z" transform="translate(54.622 -266.262)" fill="#5284d2"/>
      <circle id="Ellipse_80" data-name="Ellipse 80" cx="6.891" cy="6.891" r="6.891" transform="translate(595.616 33.931)" fill="#5284d2"/>
      <path id="Path_355" data-name="Path 355" d="M310.843,298.4a6.891,6.891,0,1,0,6.892,6.891A6.89,6.89,0,0,0,310.843,298.4Z" transform="translate(54.622 -289.079)" fill="#5284d2"/>
      <path id="Path_356" data-name="Path 356" d="M440.532,321.3a6.889,6.889,0,0,0,6.376-9.5,33.75,33.75,0,0,1-13.056,4.271A6.888,6.888,0,0,0,440.532,321.3Z" transform="translate(204.82 -273.583)" fill="#5284d2"/>
      <circle id="Ellipse_81" data-name="Ellipse 81" cx="6.891" cy="6.891" r="6.891" transform="translate(658.498 51.868)" fill="#5284d2"/>
      <path id="Path_357" data-name="Path 357" d="M403.306,325.02a6.89,6.89,0,1,0,6.889-6.891A6.89,6.89,0,0,0,403.306,325.02Z" transform="translate(169.5 -266.262)" fill="#5284d2"/>
      <circle id="Ellipse_82" data-name="Ellipse 82" cx="6.891" cy="6.891" r="6.891" transform="translate(615.652 51.868)" fill="#5284d2"/>
      <path id="Path_358" data-name="Path 358" d="M314.532,316.7a6.89,6.89,0,1,0,6.891-6.891A6.891,6.891,0,0,0,314.532,316.7Z" transform="translate(66.853 -275.88)" fill="#5284d2"/>
      <path id="Path_359" data-name="Path 359" d="M330.715,310.792a6.866,6.866,0,0,0,6.391-9.434q-5.913-1.032-11.733-1.764a6.855,6.855,0,0,0,5.341,11.2Z" transform="translate(77.597 -287.692)" fill="#5284d2"/>
      <circle id="Ellipse_83" data-name="Ellipse 83" cx="6.891" cy="6.891" r="6.891" transform="translate(401.421 51.868)" fill="#5284d2"/>
      <path id="Path_360" data-name="Path 360" d="M381.034,321.006a6.889,6.889,0,0,0,6.889-6.889,6.7,6.7,0,0,0-.084-.837c-4.235-.293-8.707-.7-13.345-1.233a6.8,6.8,0,0,0,6.54,8.959Z" transform="translate(135.78 -273.295)" fill="#5284d2"/>
      <circle id="Ellipse_84" data-name="Ellipse 84" cx="6.891" cy="6.891" r="6.891" transform="translate(272.883 9.318)" fill="#5284d2"/>
      <circle id="Ellipse_85" data-name="Ellipse 85" cx="6.891" cy="6.891" r="6.891" transform="translate(487.113 51.868)" fill="#5284d2"/>
      <circle id="Ellipse_86" data-name="Ellipse 86" cx="6.891" cy="6.891" r="6.891" transform="translate(272.883 51.868)" fill="#5284d2"/>
      <circle id="Ellipse_87" data-name="Ellipse 87" cx="6.891" cy="6.891" r="6.891" transform="translate(529.959 51.868)" fill="#5284d2"/>
      <path id="Path_361" data-name="Path 361" d="M354.273,316.7a6.89,6.89,0,1,0,6.889-6.891A6.891,6.891,0,0,0,354.273,316.7Z" transform="translate(112.805 -275.88)" fill="#5284d2"/>
      <path id="Path_362" data-name="Path 362" d="M334.4,316.7a6.891,6.891,0,1,0,6.891-6.891A6.891,6.891,0,0,0,334.4,316.7Z" transform="translate(89.828 -275.88)" fill="#5284d2"/>
      <path id="Path_363" data-name="Path 363" d="M274.791,316.7a6.89,6.89,0,1,0,6.892-6.891A6.891,6.891,0,0,0,274.791,316.7Z" transform="translate(20.901 -275.88)" fill="#5284d2"/>
      <circle id="Ellipse_88" data-name="Ellipse 88" cx="6.891" cy="6.891" r="6.891" transform="translate(444.268 51.868)" fill="#5284d2"/>
    </g>
    <g id="Group_205" data-name="Group 205" transform="translate(0 88.488)">
      <path id="Path_364" data-name="Path 364" d="M247.869,300.35c-37.131,8.509-89.591,22.369-110.039,35.195-23.792,14.919-20.97,21.17-19.156,23.187s6.857-.4,12.1,1.613,20.163,5.343,24.2,11.04c0,0-22.307,4.865-32.512-3.845,0,0-7.336-.466-4.386,7.549,2.844,7.732,41.116,28.293,90.16,32.991C231.939,377.672,246.435,340.569,247.869,300.35Z" transform="translate(-117.371 -300.35)" fill="#fcd572"/>
    </g>
    <g id="Group_206" data-name="Group 206" transform="translate(90.862 85.169)">
      <path id="Path_365" data-name="Path 365" d="M192.72,303.623c2.182-.513,4.332-1.011,6.426-1.492-1.434,40.219-15.931,77.322-39.637,107.728,1.79.172,3.59.33,5.41.457a75.51,75.51,0,0,0,7.446,3.116A228.83,228.83,0,0,0,214.076,298.81C207.721,300.177,200.47,301.8,192.72,303.623Z" transform="translate(-159.509 -298.81)" fill="#fbcc53"/>
    </g>
    <circle id="Ellipse_89" data-name="Ellipse 89" cx="8.116" cy="8.116" r="8.116" transform="translate(44.1 131.85)" fill="#fff9ec"/>
    <circle id="Ellipse_90" data-name="Ellipse 90" cx="4.918" cy="4.918" r="4.918" transform="translate(47.297 135.048)" fill="#0f0f0f"/>
    <circle id="Ellipse_91" data-name="Ellipse 91" cx="2.268" cy="2.268" r="2.268" transform="translate(49.339 135.048)" fill="#fff"/>
    <path id="Path_366" data-name="Path 366" d="M268.035,357.39s-2.413,24.862,5.3,46.789,17.845,26.009,21.474,26.917a86.233,86.233,0,0,0,5.6-13.308c1.964-6.5,1.361-8.013,7.258-10.434s3.78-8.015,7.107-11.946,7.864-11.191,6.654-18.9-19.974-17.682-19.974-17.682Z" transform="translate(56.425 -145.906)" fill="#fbc640"/>
    <path id="Path_367" data-name="Path 367" d="M413.224,341.859c-9.981,5.731-23.685,18.762-70.566,27.954-2.382.468-4.819.9-7.288,1.318l0,0a152.94,152.94,0,0,1,11.827,19.245c5.9,11.342,17.543,34.328,42.192,37.353,0,0,3.025-16.635,8.317-23.742s14.669-26.766,16.332-34.63,10.434-22.078,13.611-23.894l-14.419-3.608Z" transform="translate(134.694 -163.865)" fill="#fbc640"/>
    <path id="Path_368" data-name="Path 368" d="M406.641,326.855c.022-.022,10.866-10.283,5.125-17.93s-14.971-11.4-28.582-7.165c-13.58,4.224-29.963,14.29-30.03,14.33C371.31,322.3,390.341,325.391,406.641,326.855Z" transform="translate(155.26 -212.278)" fill="#fbc640"/>
    <path id="Path_369" data-name="Path 369" d="M329.541,339.833c5.423,1.578,12.761,2.333,21.433,2.874.089-.035,27.059-10.335,27.965-11.092s-15.728-14.971-24.5-20.39-15.577-12.877-23.894-19.987-10.585-17.086-11.493-22.078-5.445-9.828-5.445-9.828c-14.365-1.059-38.863,38.108-43.7,51.893a80.317,80.317,0,0,1-13,23.3h0C279.977,334.111,310.758,334.369,329.541,339.833Z" transform="translate(43.972 -259.313)" fill="#fbc640"/>
    <g id="Group_207" data-name="Group 207" transform="translate(610.398 51.724)">
      <path id="Path_370" data-name="Path 370" d="M505.127,428.926c11.29-29.914,4.032-80.725-.4-95.646s-6.051-43.954,4.436-49.6c0,0-28.631-5.645-58.071,26.617s-36.7,25.2-44.357,27.824c-.841.287-1.607.546-2.327.793,10.4,9.617,16.61,21.69,16.61,34.811,0,14.714-7.788,28.122-20.564,38.211a117.579,117.579,0,0,1,33.9,21.957c14.921,14.115,40.527,37.3,74.2,36.7C508.553,470.592,493.834,458.84,505.127,428.926Z" transform="translate(-400.45 -283.3)" fill="#fbc640"/>
    </g>
    <path id="Path_371" data-name="Path 371" d="M508.737,376.466c-.9-18.7-3.885-35.6-6.143-43.193-4.436-14.913-6.049-43.932,4.422-49.592-.779-.147-29-5.19-58.032,26.621-29.438,32.26-36.7,25.2-44.359,27.825-.841.289-1.611.55-2.333.8,10.389,9.615,16.593,21.679,16.593,34.794q0,1.381-.091,2.747Z" transform="translate(212.077 -231.569)" fill="#fcd572"/>
    <path id="Path_372" data-name="Path 372" d="M178.849,350.678s3.025,14.214,3.629,39.318,10.889,42.494,23.743,44.611c0,0-3.176-9.225,1.21-16.485a289.429,289.429,0,0,0,14.82-29.336c5.141-11.493-.151-16.938-3.78-21.776S197,354.76,192.761,343.873C192.761,343.873,181.572,339.336,178.849,350.678Z" transform="translate(-46.285 -162.573)" fill="#fbc640"/>
    <path id="Path_373" data-name="Path 373" d="M206.475,407.639c1.7-2.812,3.536-6.13,5.447-9.8l-32.247-45.8c.774,6.62,1.57,15.883,1.848,27.471.606,25.1,10.889,42.494,23.743,44.611C205.266,424.124,202.09,414.9,206.475,407.639Z" transform="translate(-45.33 -152.091)" fill="#fcd572"/>
    <path id="Path_374" data-name="Path 374" d="M300.375,410.684c1.964-6.5,1.36-8.013,7.258-10.434a8.5,8.5,0,0,0,.94-.453L267.7,363.533c.244,9.16,1.464,21.772,5.6,33.543,7.713,21.927,17.845,26.009,21.474,26.917A86.249,86.249,0,0,0,300.375,410.684Z" transform="translate(56.453 -138.804)" fill="#fcd572"/>
    <path id="Path_375" data-name="Path 375" d="M397.7,391.879c2.829-3.8,6.82-11.178,10.182-18.428l-42.632-21.118c-6.542,1.872-14.007,3.685-22.6,5.369-2.382.468-4.819.9-7.288,1.317l0,0a152.928,152.928,0,0,1,11.827,19.245c5.9,11.342,17.543,34.328,42.192,37.353C389.386,415.622,392.411,398.986,397.7,391.879Z" transform="translate(134.694 -151.754)" fill="#fde098"/>
    <path id="Path_376" data-name="Path 376" d="M330.548,291.24c-8.317-7.107-10.585-17.086-11.493-22.078s-5.445-9.828-5.445-9.828c-14.365-1.059-38.863,38.108-43.7,51.893a80.35,80.35,0,0,1-13,23.3h0c16.362-.3,36.6-.248,53.687,1.751h0l24.715-40.812C333.761,294.056,332.189,292.641,330.548,291.24Z" transform="translate(43.972 -259.313)" fill="#fcd572"/>
    <path id="Path_377" data-name="Path 377" d="M353.154,315.37a198.083,198.083,0,0,0,23.892,6.456l7.648-21.211c-.5.138-1,.263-1.51.425C369.6,305.263,353.221,315.328,353.154,315.37Z" transform="translate(155.26 -211.556)" fill="#fde098"/>
  </g>
</svg>
