<svg width="109" height="116" viewBox="0 0 109 116" fill="none" xmlns="http://www.w3.org/2000/svg">
<g clip-path="url(#clip0_30_737)">
<path d="M30.4926 63.3309C31.6988 63.3309 32.6766 62.3531 32.6766 61.1469C32.6766 59.9407 31.6988 58.9629 30.4926 58.9629C29.2864 58.9629 28.3086 59.9407 28.3086 61.1469C28.3086 62.3531 29.2864 63.3309 30.4926 63.3309Z" fill="#3E89FF"/>
<path d="M46.3324 63.3309C47.5386 63.3309 48.5164 62.3531 48.5164 61.1469C48.5164 59.9407 47.5386 58.9629 46.3324 58.9629C45.1262 58.9629 44.1484 59.9407 44.1484 61.1469C44.1484 62.3531 45.1262 63.3309 46.3324 63.3309Z" fill="#3E89FF"/>
<path d="M107.573 28.0279L61.3995 2.61193C59.368 1.49068 57.0854 0.902588 54.765 0.902588C52.4446 0.902588 50.1621 1.49068 48.1305 2.61193L7.91953 24.6859C5.7544 25.8755 3.94858 27.6249 2.6908 29.7512C1.43302 31.8774 0.769481 34.3025 0.769531 36.7729V79.9349C0.769236 82.4053 1.43269 84.8303 2.6905 86.9564C3.94831 89.0826 5.75427 90.8317 7.91953 92.0209L48.1305 114.094C50.162 115.215 52.4446 115.804 54.765 115.804C57.0855 115.804 59.3681 115.215 61.3995 114.094L92.5615 96.9869C92.838 96.8483 93.0837 96.6553 93.2839 96.4195C93.4841 96.1838 93.6347 95.91 93.7267 95.6147C93.8186 95.3194 93.8501 95.0086 93.8191 94.7008C93.7882 94.3931 93.6955 94.0947 93.5466 93.8236C93.3977 93.5525 93.1956 93.3142 92.9525 93.123C92.7094 92.9318 92.4302 92.7916 92.1316 92.7108C91.8331 92.63 91.5213 92.6102 91.2149 92.6527C90.9085 92.6951 90.6138 92.799 90.3485 92.9579L64.6615 107.059C64.5755 105.334 64.4835 103.321 64.4325 101.768C63.9655 87.3189 60.9885 81.9679 52.1775 79.7409C51.9023 79.6705 51.6236 79.6144 51.3425 79.5729C55.0026 77.0497 57.8442 73.5105 59.517 69.3917C61.1898 65.2729 61.6207 60.7546 60.7565 56.3939H65.1565C65.6259 56.393 66.0838 56.2486 66.4687 55.9799C66.8536 55.7112 67.1471 55.3311 67.3098 54.8908C67.4724 54.4505 67.4964 53.9709 67.3786 53.5165C67.2607 53.0622 67.0067 52.6547 66.6505 52.3489L59.2615 46.0209C55.5085 35.7209 47.9195 29.8279 38.3535 29.8279C28.6345 29.8279 21.2235 35.5719 17.4245 46.0209L10.0305 52.3459C9.67338 52.6513 9.41836 53.0588 9.29978 53.5136C9.1812 53.9683 9.20476 54.4484 9.36727 54.8893C9.52979 55.3303 9.82347 55.7108 10.2088 55.9798C10.5941 56.2488 11.0526 56.3933 11.5225 56.3939H16.0705C15.2053 60.7903 15.6533 65.3441 17.3589 69.4876C19.0645 73.631 21.952 77.1807 25.6615 79.6939L25.4905 79.7369C22.8957 80.4285 20.511 81.7481 18.5467 83.5793C16.5825 85.4105 15.0992 87.6969 14.2275 90.2369L10.1315 87.9939C8.68727 87.2013 7.48256 86.0351 6.64342 84.6173C5.80427 83.1996 5.36154 81.5824 5.36153 79.9349V36.7709C5.36147 35.1237 5.8042 33.5068 6.64337 32.0893C7.48254 30.6719 8.68729 29.5061 10.1315 28.7139L50.3415 6.63993C51.6957 5.89293 53.217 5.50116 54.7635 5.50116C56.3101 5.50116 57.8314 5.89293 59.1855 6.63993L104.162 31.3999V54.5449C104.106 55.7265 103.598 56.8414 102.743 57.6581C101.887 58.4748 100.749 58.9305 99.5665 58.9305C98.3837 58.9305 97.2462 58.4748 96.3905 57.6581C95.5349 56.8414 95.0267 55.7265 94.9715 54.5449C94.9715 53.9349 94.7292 53.3499 94.2979 52.9186C93.8665 52.4872 93.2815 52.2449 92.6715 52.2449C92.0615 52.2449 91.4765 52.4872 91.0452 52.9186C90.6138 53.3499 90.3715 53.9349 90.3715 54.5449C90.3715 56.9825 91.3399 59.3203 93.0635 61.0439C94.7872 62.7676 97.1249 63.7359 99.5625 63.7359C102 63.7359 104.338 62.7676 106.062 61.0439C107.785 59.3203 108.754 56.9825 108.754 54.5449V30.0449C108.755 29.6339 108.646 29.23 108.438 28.8752C108.231 28.5205 107.932 28.2279 107.573 28.0279V28.0279ZM59.8425 101.915C59.9185 104.257 60.0885 107.615 60.1885 109.515L59.1885 110.064C58.4861 110.448 57.7369 110.74 56.9595 110.932L55.6155 86.1459C58.0495 88.1219 59.5275 92.1419 59.8425 101.915V101.915ZM52.3485 110.871C51.6506 110.684 50.977 110.415 50.3415 110.071L26.2565 96.8439L26.7405 84.1659C28.2675 83.8319 29.0285 84.6549 30.8405 87.6729V97.7329C30.8405 98.3429 31.0829 98.9279 31.5142 99.3593C31.9455 99.7906 32.5305 100.033 33.1405 100.033H44.5115C45.1215 100.033 45.7065 99.7906 46.1379 99.3593C46.5692 98.9279 46.8115 98.3429 46.8115 97.7329V88.3849C46.8097 88.2564 46.7966 88.1282 46.7725 88.0019L46.9465 87.7019C48.7805 84.5109 49.4885 83.8499 50.9065 84.1599L52.3485 110.871ZM35.4325 93.0569C36.5027 93.6762 37.7201 93.9954 38.9565 93.9809C40.0918 93.9919 41.2116 93.7168 42.2125 93.1809V95.4339H35.4325V93.0569ZM42.9615 85.4109C41.4095 88.1109 40.5075 89.3839 38.9615 89.3839C37.3935 89.3839 36.4615 88.1039 34.8305 85.3839C34.3955 84.6569 33.9005 83.8309 33.3165 83.0329C37.0631 83.8696 40.9584 83.7665 44.6555 82.7329C44.0369 83.5903 43.4712 84.4846 42.9615 85.4109V85.4109ZM38.3485 34.4239C46.9435 34.4239 51.5305 40.1779 53.8755 45.0699H22.7875C25.3295 39.6829 29.9615 34.4239 38.3485 34.4239ZM19.0125 51.7939H17.7415L20.2305 49.6649H56.4465L58.9355 51.7939H57.8415C57.7815 51.7939 57.7205 51.7939 57.6625 51.7939H19.1195C19.0845 51.7939 19.0475 51.7939 19.0125 51.7939ZM20.2325 60.8329C20.2309 59.3353 20.4129 57.8432 20.7745 56.3899H56.0425C56.6727 58.8885 56.7645 61.4925 56.3119 64.0292C55.8593 66.566 54.8727 68.9775 53.4174 71.104C51.9621 73.2305 50.0714 75.0234 47.8706 76.3637C45.6698 77.7041 43.2093 78.5613 40.6521 78.8786C38.0949 79.1959 35.4995 78.966 33.0379 78.2041C30.5763 77.4422 28.3048 76.1657 26.3739 74.4593C24.4431 72.753 22.897 70.6556 21.8382 68.3064C20.7794 65.9572 20.2321 63.4097 20.2325 60.8329V60.8329ZM22.0465 86.6069L21.7465 94.3699L18.3125 92.4839C18.9925 90.2189 20.2851 88.1858 22.0475 86.6089L22.0465 86.6069Z" fill="#3E89FF"/>
<path d="M91.9578 67.3989C84.9498 67.3989 80.0578 71.5989 77.5638 74.4289C76.257 73.0086 74.6764 71.8672 72.9172 71.0733C71.158 70.2793 69.2565 69.8493 67.3268 69.8089C66.909 69.8093 66.4991 69.9235 66.1412 70.1393C65.7834 70.3551 65.4911 70.6643 65.2957 71.0337C65.1004 71.4032 65.0094 71.8188 65.0325 72.236C65.0556 72.6533 65.1919 73.0563 65.4268 73.4019C66.3266 74.7944 66.8525 76.3952 66.9538 78.0499C66.831 79.7683 66.281 81.4289 65.3538 82.8809C65.1235 83.2272 64.9913 83.6294 64.9714 84.0448C64.9515 84.4602 65.0446 84.8732 65.2407 85.2399C65.4369 85.6066 65.7288 85.9132 66.0854 86.1272C66.442 86.3411 66.85 86.4544 67.2658 86.4549C69.2007 86.4117 71.1072 85.9805 72.8723 85.1869C74.6374 84.3933 76.2253 83.2535 77.5418 81.8349C80.0178 84.6659 84.8678 88.8639 91.8758 88.8639C100.023 88.8639 105.348 83.1099 107.259 80.6369C107.811 79.9213 108.112 79.0435 108.115 78.1395C108.118 77.2355 107.822 76.3558 107.274 75.6369C105.39 73.1589 100.111 67.3989 91.9578 67.3989ZM71.1698 80.8989C71.4151 79.9675 71.5428 79.0091 71.5498 78.0459C71.5452 77.138 71.4317 76.2339 71.2118 75.3529C72.541 76.0478 73.7282 76.9856 74.7118 78.1179C73.7142 79.2582 72.5127 80.2023 71.1688 80.9019L71.1698 80.8989ZM80.4528 78.1359C82.0608 76.1549 85.7938 72.3919 91.1238 72.0269C89.9421 73.8419 89.3131 75.9611 89.3131 78.1269C89.3131 80.2927 89.9421 82.4119 91.1238 84.2269C85.7688 83.9039 82.0488 80.1269 80.4528 78.1389V78.1359ZM96.4358 83.3859C96.3878 83.3379 96.3478 83.2859 96.2948 83.2399C95.5321 82.6001 94.9221 81.7978 94.5095 80.8918C94.0968 79.9858 93.892 78.9989 93.9101 78.0035C93.9281 77.0081 94.1685 76.0294 94.6136 75.1389C95.0588 74.2484 95.6974 73.4687 96.4828 72.8569C99.1948 73.9913 101.571 75.8023 103.383 78.1169C101.55 80.4336 99.1601 82.2475 96.4358 83.3889V83.3859Z" fill="#3E89FF"/>
<path d="M97.6986 74.5159C97.462 74.5192 97.2317 74.5925 97.0366 74.7263C96.8415 74.8602 96.6904 75.0488 96.6022 75.2683C96.5139 75.4879 96.4926 75.7286 96.5408 75.9602C96.589 76.1919 96.7046 76.4041 96.8731 76.5702C97.0416 76.7364 97.2554 76.849 97.4877 76.8939C97.72 76.9389 97.9604 76.9141 98.1787 76.8228C98.397 76.7315 98.5834 76.5777 98.7145 76.3808C98.8456 76.1838 98.9156 75.9525 98.9156 75.7159C98.9127 75.3956 98.783 75.0895 98.5549 74.8646C98.3268 74.6397 98.0189 74.5143 97.6986 74.5159V74.5159Z" fill="#3E89FF"/>
</g>
<defs>
<clipPath id="clip0_30_737">
<rect width="107.992" height="114.902" fill="white" transform="translate(0.769531 0.901978)"/>
</clipPath>
</defs>
</svg>
