<svg xmlns="http://www.w3.org/2000/svg" width="728.419" height="775.028" viewBox="0 0 728.419 775.028">
  <g id="FISHERPERSON-FilipaCampos" opacity="0.13">
    <ellipse id="Ellipse_340" data-name="Ellipse 340" cx="14.733" cy="14.733" rx="14.733" ry="14.733" transform="translate(185.769 391.624)" fill="#fcfcfc"/>
    <ellipse id="Ellipse_341" data-name="Ellipse 341" cx="14.733" cy="14.733" rx="14.733" ry="14.733" transform="translate(292.585 391.624)" fill="#fcfcfc"/>
    <path id="Path_1140" data-name="Path 1140" d="M723.406,182.977,411.964,11.538a92.611,92.611,0,0,0-89.5,0L51.239,160.431A93.024,93.024,0,0,0,3.008,241.957V533.093a92.994,92.994,0,0,0,48.231,81.519L322.463,763.5a92.591,92.591,0,0,0,89.5,0l210.19-115.4a15.5,15.5,0,0,0-14.927-27.173L433.991,716.048c-.581-11.633-1.2-25.212-1.542-35.691C429.3,582.9,409.221,546.8,349.791,531.783a55.364,55.364,0,0,0-5.635-1.132,153.626,153.626,0,0,0,63.468-156.364h29.692a15.5,15.5,0,0,0,10.075-27.281L397.525,304.34c-25.313-69.482-76.5-109.226-141.026-109.226-65.553,0-115.543,38.744-141.165,109.226L65.461,347.006a15.5,15.5,0,0,0,10.075,27.281h30.676A153.931,153.931,0,0,0,170.9,531.5c-.38.093-.767.186-1.155.287-35.2,8.905-62.956,35.288-75.969,70.815l-27.615-15.16a62.007,62.007,0,0,1-32.149-54.346V241.949A61.983,61.983,0,0,1,66.158,187.6L337.375,38.711a61.75,61.75,0,0,1,59.655-.008l303.4,167.013V361.832a30.994,30.994,0,1,1-61.987,0,15.5,15.5,0,1,0-31,0,62,62,0,1,0,123.991,0V196.555A15.5,15.5,0,0,0,723.406,182.977ZM401.463,681.35c.511,15.8,1.659,38.473,2.333,51.276l-6.751,3.7a62.542,62.542,0,0,1-15.036,5.852l-9.06-167.2C389.364,588.314,399.339,615.433,401.463,681.35Zm-50.548,60.406a62.361,62.361,0,0,1-13.54-5.425L174.919,647.147l3.263-85.518c10.3-2.255,15.431,3.3,27.63,23.654v67.855a15.506,15.506,0,0,0,15.5,15.5h76.737a15.5,15.5,0,0,0,15.5-15.5V590.089a14.942,14.942,0,0,0-.264-2.581c.388-.674.791-1.364,1.17-2.023,12.37-21.523,17.144-25.979,26.708-23.895ZM236.814,621.6a46.374,46.374,0,0,0,23.77,6.231,45.6,45.6,0,0,0,21.965-5.425v15.23H236.814Zm50.757-51.571c-10.471,18.221-16.555,26.8-26.995,26.8-10.579,0-16.9-8.634-27.863-26.964-2.937-4.906-6.27-10.479-10.215-15.857a156.987,156.987,0,0,0,76.481-2A175.3,175.3,0,0,0,287.571,570.031ZM256.484,226.115c57.973,0,88.912,38.814,104.731,71.807H151.521C168.665,261.589,199.9,226.115,256.484,226.115ZM126.061,343.286h-8.572l16.787-14.361H378.553l16.787,14.361h-7.378c-.4-.016-.814-.023-1.209,0H126.782C126.541,343.278,126.293,343.278,126.061,343.286Zm8.231,60.972a123.536,123.536,0,0,1,3.658-29.971H375.832a122.19,122.19,0,0,1,3.7,29.971c0,67.614-55.043,122.627-122.7,122.627C189.265,526.884,134.292,471.88,134.292,404.258Zm12.238,173.849-2,52.362L121.364,617.75C126.34,601.815,135.051,588.151,146.529,578.107Z" transform="translate(-3.008 -0.008)" fill="#fcfcfc"/>
    <path id="Path_1141" data-name="Path 1141" d="M240.93,57.88c-47.27,0-80.247,28.343-97.089,47.417-13.47-13.865-36.76-31.164-69.048-31.164A15.53,15.53,0,0,0,61.981,98.368c.109.155,10.3,15.431,10.3,31.35,0,15.9-10.486,32.1-10.8,32.583a15.5,15.5,0,0,0,12.9,24.1c32.3,0,55.733-17.322,69.312-31.164,16.7,19.1,49.416,47.409,96.686,47.409,54.95,0,90.873-38.814,103.762-55.493a27.7,27.7,0,0,0,.1-33.722C331.5,96.733,295.926,57.88,240.93,57.88ZM100.71,148.963a77.807,77.807,0,0,0,2.565-19.244A76.642,76.642,0,0,0,101,111.551,80.917,80.917,0,0,1,124.628,130.2,82.17,82.17,0,0,1,100.71,148.963Zm62.615-18.64c10.843-13.362,36.024-38.744,71.978-41.209a75.411,75.411,0,0,0,.031,82.317C199.186,169.207,174.09,143.731,163.325,130.323Zm107.808,35.411c-.325-.326-.6-.682-.953-.984a45.038,45.038,0,0,1,1.271-70.032c22.678,8.82,38.643,25.561,46.564,35.481C310.009,140.119,293.888,156.876,271.133,165.734Z" transform="translate(374.133 390.647)" fill="#fcfcfc"/>
    <path id="Path_1142" data-name="Path 1142" d="M94.519,64.074a8.127,8.127,0,1,0,8.208,8.122A8.165,8.165,0,0,0,94.519,64.074Z" transform="translate(559.271 432.459)" fill="#fcfcfc"/>
  </g>
</svg>
