<svg id="FISHFRIENDLY" xmlns="http://www.w3.org/2000/svg" width="190.929" height="203.148" viewBox="0 0 190.929 203.148">
  <path id="Path_1143" data-name="Path 1143" d="M181.285,42.041,110.192,3.014a24.269,24.269,0,0,0-23.458,0L15.644,42.043A24.37,24.37,0,0,0,3,63.409v74.625a4.057,4.057,0,0,0,6.975,2.823l35.641-25.781a20.336,20.336,0,0,1,11.563-3.589H93.356a8.939,8.939,0,0,1,8.939,8.974l0,.4a8.954,8.954,0,0,1-8.939,8.9H69.839a4.062,4.062,0,1,0,0,8.125H98.3a16.239,16.239,0,0,0,8.571-2.443l36.943-22.93c.028-.016.057-.035.085-.053a8.221,8.221,0,0,1,5.064-.662,8.127,8.127,0,0,1,3.55,14.322L97.463,162.934a20.261,20.261,0,0,1-11.247,3.394H41.83a4.045,4.045,0,0,0-3.467,1.974,3.973,3.973,0,0,0-.313.453,4.064,4.064,0,0,0,1.607,5.517l47.078,25.844a24.259,24.259,0,0,0,23.46,0l71.088-39.027a24.369,24.369,0,0,0,12.646-21.366V63.409A24.38,24.38,0,0,0,181.285,42.041Zm4.519,97.682a16.242,16.242,0,0,1-8.431,14.245l-71.09,39.027a16.185,16.185,0,0,1-15.638,0L56.868,174.452H86.216a28.359,28.359,0,0,0,15.75-4.759l55.191-36.906c.081-.053.16-.112.238-.171a16.252,16.252,0,0,0-17.665-27.148,4.133,4.133,0,0,0-.563.37l-29.035,18.02a16.912,16.912,0,0,0,.286-2.957l0-.4a17.067,17.067,0,0,0-17.064-17.135H57.179a28.491,28.491,0,0,0-16.245,5.074L11.125,130V63.409a16.249,16.249,0,0,1,8.429-14.245l71.09-39.027a16.179,16.179,0,0,1,15.64,0l71.09,39.027A16.249,16.249,0,0,1,185.8,63.409v76.315Z" transform="translate(-3 0.008)" fill="#42b294"/>
  <path id="Path_1144" data-name="Path 1144" d="M107.124,17.9c-24.742,0-41.052,17.106-47.669,25.67-5.679-6.516-17.98-17.545-36.2-17.545a4.063,4.063,0,0,0-3.295,6.439c.061.083,6.043,8.484,6.043,17.663,0,9.11-6.181,18.106-6.282,18.252a4.061,4.061,0,0,0,3.327,6.392c18.226,0,30.634-11.039,36.364-17.545,6.553,8.578,22.706,25.67,47.442,25.67,25.434,0,42.159-18.421,48.167-26.338a10.261,10.261,0,0,0,.039-12.313C149.122,36.327,132.56,17.9,107.124,17.9Zm-76.78,47.98a39.183,39.183,0,0,0,3.786-15.756,37.969,37.969,0,0,0-3.557-15.205C42.9,37.56,51.2,46.259,54.54,50.382,51.154,54.518,42.741,63.254,30.345,65.884ZM64.507,50.411c4.5-6.252,19.534-24.384,42.62-24.382a43.368,43.368,0,0,1,4.708.28,33.815,33.815,0,0,0-2.7,48.362c-.76.041-1.507.106-2.283.106C83.886,74.776,68.967,56.661,64.507,50.411Zm84.047,1.239C144.337,57.2,134.133,68.63,119.088,73a3.928,3.928,0,0,0-.406-.394,26.523,26.523,0,0,1-10.32-20.728c0-9.461,5.181-18.085,13.875-23.147,13.391,4.9,22.44,15.2,26.326,20.389A2.084,2.084,0,0,1,148.554,51.65Z" transform="translate(13.486 18.478)" fill="#42b294"/>
  <ellipse id="Ellipse_342" data-name="Ellipse 342" cx="4.062" cy="4.062" rx="4.062" ry="4.062" transform="translate(136.063 56.692)" fill="#42b294"/>
</svg>
