<svg xmlns="http://www.w3.org/2000/svg" width="93.9" height="100" viewBox="0 0 93.9 100">
  <g id="MICROENTERPRISE-CameronWard" transform="translate(-3)">
    <path id="Path_314" data-name="Path 314" d="M90.7,20.7,55.7,1.5a11.771,11.771,0,0,0-11.5,0L9.2,20.7A11.992,11.992,0,0,0,3,31.2V68.8A11.992,11.992,0,0,0,9.2,79.3l35,19.2A11.94,11.94,0,0,0,50,100a11.294,11.294,0,0,0,5.7-1.5l35-19.2a11.992,11.992,0,0,0,6.2-10.5V31.2A11.992,11.992,0,0,0,90.7,20.7ZM93,68.8a7.964,7.964,0,0,1-4.2,7L53.8,95a8.089,8.089,0,0,1-7.7,0l-35-19.2a8.071,8.071,0,0,1-4.1-7V31.2a7.964,7.964,0,0,1,4.2-7L46.2,5a7.72,7.72,0,0,1,7.6,0l35,19.2a7.964,7.964,0,0,1,4.2,7Z" fill="#eec04e"/>
    <path id="Path_315" data-name="Path 315" d="M37.7,34.8a9.514,9.514,0,0,0,6.2-2.2,9.01,9.01,0,0,0,6.2,2.2,9.439,9.439,0,0,0,6.1-2.2,9.01,9.01,0,0,0,6.2,2.2c4.6,0,8.2-2.8,8.3-6.4a2.144,2.144,0,0,0-.4-1.2l-2.5-3.5-.1-.1-6.3-8.8a1.943,1.943,0,0,0-1.6-.8H40.4a2.088,2.088,0,0,0-1.6.8l-6.3,8.8-.1.1-2.5,3.5a1.922,1.922,0,0,0-.4,1.2C29.5,32,33.1,34.8,37.7,34.8Zm-2.2-8.7.1-.1,5.7-8H58.6l5.8,8.1.1.1,1.9,2.7c-.4,1-2,1.9-4.1,1.9-2.4,0-4.2-1.3-4.2-2.4a2,2,0,1,0-4,0c0,1.1-1.7,2.4-4.1,2.4s-4.2-1.3-4.2-2.4a2.006,2.006,0,0,0-2-2,1.837,1.837,0,0,0-1.9,1.9c0,1.1-1.8,2.4-4.2,2.4-2.1,0-3.7-.9-4.1-1.9Z" fill="#eec04e"/>
    <path id="Path_316" data-name="Path 316" d="M79.7,53.734V48.5A2,2,0,0,0,78,46.531V37.9a2.006,2.006,0,0,0-2-2H68.9a2.006,2.006,0,0,0-2,2v8.63a2,2,0,0,0-1.7,1.97v5.1H63.8V38.8a2,2,0,0,0-4,0V53.6H57.4V50.7a4.588,4.588,0,0,0-4.6-4.6H47.1a4.866,4.866,0,0,0-4.6,4.6v2.9H40.2V38.8a2,2,0,0,0-4,0V53.6H32.7V46.2a2.006,2.006,0,0,0-2-2H21.3a2.006,2.006,0,0,0-2,2v7.471a2,2,0,0,0,.5,3.928H32.3V83.9a2.006,2.006,0,0,0,2,2H65.7A2.157,2.157,0,0,0,67.8,84V57.6H79a2,2,0,0,0,.7-3.866ZM70.9,40H74v6.5H70.9ZM23.3,53.6V48.2h5.4v5.4ZM36.3,82V57.6H63.8V82ZM69.2,53.6V50.5h6.5v3.1Z" fill="#eec04e"/>
    <circle id="Ellipse_73" data-name="Ellipse 73" cx="4.2" cy="4.2" r="4.2" transform="translate(46.1 36.3)" fill="#eec04e"/>
  </g>
</svg>
