<svg id="PROCUREMENT-EDIT-KathleenFoster-01" xmlns="http://www.w3.org/2000/svg" width="58.052" height="61.758" viewBox="0 0 58.052 61.758">
  <g id="Group_212" data-name="Group 212" transform="translate(17.786 40.266)">
    <path id="Path_308" data-name="Path 308" d="M47.919,67.67H33.035a1.235,1.235,0,1,1,0-2.47H47.919a1.235,1.235,0,1,1,0,2.47Z" transform="translate(-31.8 -65.2)" fill="rgba(0,0,0,0.25)"/>
  </g>
  <g id="Group_213" data-name="Group 213" transform="translate(17.786 22.048)">
    <path id="Path_309" data-name="Path 309" d="M47.919,38.17H33.035a1.235,1.235,0,0,1,0-2.47H47.919a1.235,1.235,0,1,1,0,2.47Z" transform="translate(-31.8 -35.7)" fill="rgba(0,0,0,0.25)"/>
  </g>
  <g id="Group_214" data-name="Group 214" transform="translate(17.786 28.1)">
    <path id="Path_310" data-name="Path 310" d="M47.919,47.97H33.035a1.235,1.235,0,0,1,0-2.47H47.919a1.235,1.235,0,1,1,0,2.47Z" transform="translate(-31.8 -45.5)" fill="rgba(0,0,0,0.25)"/>
  </g>
  <g id="Group_215" data-name="Group 215" transform="translate(17.786 34.276)">
    <path id="Path_311" data-name="Path 311" d="M47.919,57.97H33.035a1.235,1.235,0,1,1,0-2.47H47.919a1.235,1.235,0,1,1,0,2.47Z" transform="translate(-31.8 -55.5)" fill="rgba(0,0,0,0.25)"/>
  </g>
  <g id="Group_216" data-name="Group 216" transform="translate(42.736 16.227)">
    <path id="Path_312" data-name="Path 312" d="M77.017,29.749v7.164a1.239,1.239,0,0,1-1.235,1.235,1.273,1.273,0,0,1-1.112-.679v11.61a1.235,1.235,0,0,1-2.47,0V29.749a1.262,1.262,0,0,1,.865-1.173H73c-.062,0-.124-.062-.185-.124s-.124-.124-.185-.124a1.219,1.219,0,0,1-.371-.865v-.247c0-.062.062-.124.062-.247,0-.062.062-.124.124-.185s.124-.124.124-.185a1.315,1.315,0,0,1,1.729,0c.062.062.124.124.124.185.062.062.062.124.124.185s.062.124.062.247v.247a1.219,1.219,0,0,1-.371.865c-.062.062-.124.124-.185.124-.062.062-.124.062-.185.124h-.062a1.3,1.3,0,0,1,.8.8,1.262,1.262,0,0,1,1.173-.865A1.239,1.239,0,0,1,77.017,29.749Z" transform="translate(-72.2 -26.275)" fill="rgba(0,0,0,0.25)"/>
  </g>
  <path id="Path_313" data-name="Path 313" d="M43.019,13.216h-5a4.259,4.259,0,0,0-4.2-3.705H32.582a3.211,3.211,0,0,0-5.929,0H25.48a4.259,4.259,0,0,0-4.2,3.705h-5a1.239,1.239,0,0,0-1.235,1.235v33.1a1.239,1.239,0,0,0,1.235,1.235H38.82l5.435-.062V14.451A1.239,1.239,0,0,0,43.019,13.216Zm-13.4-3.15a.741.741,0,1,1,0,1.482.751.751,0,0,1-.741-.741A.8.8,0,0,1,29.618,10.067Zm-5.867,3.705a1.792,1.792,0,0,1,1.791-1.791h1.173a3.211,3.211,0,0,0,5.929,0h1.235a1.792,1.792,0,0,1,1.791,1.791v2.1H23.751ZM41.784,46.318H17.575V15.686H21.28v1.42a1.239,1.239,0,0,0,1.235,1.235H36.843a1.239,1.239,0,0,0,1.235-1.235v-1.42h3.705Zm1.235-33.1h-5a4.259,4.259,0,0,0-4.2-3.705H32.582a3.211,3.211,0,0,0-5.929,0H25.48a4.259,4.259,0,0,0-4.2,3.705h-5a1.239,1.239,0,0,0-1.235,1.235v33.1a1.239,1.239,0,0,0,1.235,1.235H38.82l5.435-.062V14.451A1.239,1.239,0,0,0,43.019,13.216Zm-13.4-3.15a.741.741,0,1,1,0,1.482.751.751,0,0,1-.741-.741A.8.8,0,0,1,29.618,10.067Zm-5.867,3.705a1.792,1.792,0,0,1,1.791-1.791h1.173a3.211,3.211,0,0,0,5.929,0h1.235a1.792,1.792,0,0,1,1.791,1.791v2.1H23.751ZM41.784,46.318H17.575V15.686H21.28v1.42a1.239,1.239,0,0,0,1.235,1.235H36.843a1.239,1.239,0,0,0,1.235-1.235v-1.42h3.705ZM57.223,12.784,35.608.926a7.388,7.388,0,0,0-7.164,0L6.829,12.784A7.406,7.406,0,0,0,3,19.268V42.489a7.406,7.406,0,0,0,3.829,6.485L28.444,60.831a7.388,7.388,0,0,0,7.164,0l5.867-3.211h.062l15.007-8.831a12.245,12.245,0,0,0,4.138-4.014h0a7.465,7.465,0,0,0,.371-2.347V19.268A7.406,7.406,0,0,0,57.223,12.784Zm1.359,29.706V42.8l-.309.926a3.864,3.864,0,0,1-1.791,2.162l-14.143,8.4L34.373,58.67a5,5,0,0,1-4.755,0L8,46.812a4.918,4.918,0,0,1-2.594-4.323V19.268A4.918,4.918,0,0,1,8,14.945L29.679,3.088a4.605,4.605,0,0,1,2.347-.618,4.451,4.451,0,0,1,2.347.618L55.988,14.945a4.918,4.918,0,0,1,2.594,4.323ZM43.019,13.216h-5a4.259,4.259,0,0,0-4.2-3.705H32.582a3.211,3.211,0,0,0-5.929,0H25.48a4.259,4.259,0,0,0-4.2,3.705h-5a1.239,1.239,0,0,0-1.235,1.235v33.1a1.239,1.239,0,0,0,1.235,1.235H38.82l5.435-.062V14.451A1.239,1.239,0,0,0,43.019,13.216Zm-13.4-3.15a.741.741,0,1,1,0,1.482.751.751,0,0,1-.741-.741A.8.8,0,0,1,29.618,10.067Zm-5.867,3.705a1.792,1.792,0,0,1,1.791-1.791h1.173a3.211,3.211,0,0,0,5.929,0h1.235a1.792,1.792,0,0,1,1.791,1.791v2.1H23.751ZM41.784,46.318H17.575V15.686H21.28v1.42a1.239,1.239,0,0,0,1.235,1.235H36.843a1.239,1.239,0,0,0,1.235-1.235v-1.42h3.705Zm1.235-33.1h-5a4.259,4.259,0,0,0-4.2-3.705H32.582a3.211,3.211,0,0,0-5.929,0H25.48a4.259,4.259,0,0,0-4.2,3.705h-5a1.239,1.239,0,0,0-1.235,1.235v33.1a1.239,1.239,0,0,0,1.235,1.235H38.82l5.435-.062V14.451A1.239,1.239,0,0,0,43.019,13.216Zm-13.4-3.15a.741.741,0,1,1,0,1.482.751.751,0,0,1-.741-.741A.8.8,0,0,1,29.618,10.067Zm-5.867,3.705a1.792,1.792,0,0,1,1.791-1.791h1.173a3.211,3.211,0,0,0,5.929,0h1.235a1.792,1.792,0,0,1,1.791,1.791v2.1H23.751ZM41.784,46.318H17.575V15.686H21.28v1.42a1.239,1.239,0,0,0,1.235,1.235H36.843a1.239,1.239,0,0,0,1.235-1.235v-1.42h3.705Z" transform="translate(-3)" fill="rgba(0,0,0,0.25)"/>
</svg>
