<svg xmlns="http://www.w3.org/2000/svg" width="94" height="100" viewBox="0 0 94 100">
  <g id="Group_4838" data-name="Group 4838" transform="translate(18488 19929)">
    <g id="Group_212" data-name="Group 212" transform="translate(-18491 -19929)">
      <path id="Path_308" data-name="Path 308" d="M57.9,69.2H33.8a2,2,0,1,1,0-4H57.9a2,2,0,0,1,0,4Z" fill="#95c33c"/>
    </g>
    <g id="Group_213" data-name="Group 213" transform="translate(-18491 -19929)">
      <path id="Path_309" data-name="Path 309" d="M57.9,39.7H33.8a2,2,0,1,1,0-4H57.9a2,2,0,0,1,0,4Z" fill="#95c33c"/>
    </g>
    <g id="Group_214" data-name="Group 214" transform="translate(-18491 -19929)">
      <path id="Path_310" data-name="Path 310" d="M57.9,49.5H33.8a2,2,0,1,1,0-4H57.9a2,2,0,0,1,0,4Z" fill="#95c33c"/>
    </g>
    <g id="Group_215" data-name="Group 215" transform="translate(-18491 -19929)">
      <path id="Path_311" data-name="Path 311" d="M57.9,59.5H33.8a2,2,0,1,1,0-4H57.9a2,2,0,0,1,0,4Z" fill="#95c33c"/>
    </g>
    <g id="Group_216" data-name="Group 216" transform="translate(-18491 -19929)">
      <path id="Path_312" data-name="Path 312" d="M80,31.9V43.5a2.006,2.006,0,0,1-2,2,2.062,2.062,0,0,1-1.8-1.1V63.2a2,2,0,0,1-4,0V31.9A2.044,2.044,0,0,1,73.6,30h-.1c-.1,0-.2-.1-.3-.2s-.2-.2-.3-.2a1.974,1.974,0,0,1-.6-1.4v-.4c0-.1.1-.2.1-.4,0-.1.1-.2.2-.3s.2-.2.2-.3a2.129,2.129,0,0,1,2.8,0c.1.1.2.2.2.3.1.1.1.2.2.3s.1.2.1.4v.4a1.974,1.974,0,0,1-.6,1.4c-.1.1-.2.2-.3.2-.1.1-.2.1-.3.2h-.1a2.1,2.1,0,0,1,1.3,1.3A2.044,2.044,0,0,1,78,29.9,2.006,2.006,0,0,1,80,31.9Z" fill="#95c33c"/>
    </g>
    <path id="Path_313" data-name="Path 313" d="M67.8,21.4H59.7a6.9,6.9,0,0,0-6.8-6h-2a5.2,5.2,0,0,0-9.6,0H39.4a6.9,6.9,0,0,0-6.8,6H24.5a2.006,2.006,0,0,0-2,2V77a2.006,2.006,0,0,0,2,2H61l8.8-.1V23.4A2.006,2.006,0,0,0,67.8,21.4ZM46.1,16.3a1.2,1.2,0,1,1,0,2.4,1.216,1.216,0,0,1-1.2-1.2A1.287,1.287,0,0,1,46.1,16.3Zm-9.5,6a2.9,2.9,0,0,1,2.9-2.9h1.9a5.2,5.2,0,0,0,9.6,0h2a2.9,2.9,0,0,1,2.9,2.9v3.4H36.6ZM65.8,75H26.6V25.4h6v2.3a2.006,2.006,0,0,0,2,2H57.8a2.006,2.006,0,0,0,2-2V25.4h6Zm2-53.6H59.7a6.9,6.9,0,0,0-6.8-6h-2a5.2,5.2,0,0,0-9.6,0H39.4a6.9,6.9,0,0,0-6.8,6H24.5a2.006,2.006,0,0,0-2,2V77a2.006,2.006,0,0,0,2,2H61l8.8-.1V23.4A2.006,2.006,0,0,0,67.8,21.4ZM46.1,16.3a1.2,1.2,0,1,1,0,2.4,1.216,1.216,0,0,1-1.2-1.2A1.287,1.287,0,0,1,46.1,16.3Zm-9.5,6a2.9,2.9,0,0,1,2.9-2.9h1.9a5.2,5.2,0,0,0,9.6,0h2a2.9,2.9,0,0,1,2.9,2.9v3.4H36.6ZM65.8,75H26.6V25.4h6v2.3a2.006,2.006,0,0,0,2,2H57.8a2.006,2.006,0,0,0,2-2V25.4h6Zm25-54.3L55.8,1.5a11.963,11.963,0,0,0-11.6,0L9.2,20.7A11.992,11.992,0,0,0,3,31.2V68.8A11.992,11.992,0,0,0,9.2,79.3l35,19.2a11.963,11.963,0,0,0,11.6,0l9.5-5.2h.1L89.7,79a19.827,19.827,0,0,0,6.7-6.5h0a12.088,12.088,0,0,0,.6-3.8V31.2A11.992,11.992,0,0,0,90.8,20.7ZM93,68.8v.5l-.5,1.5a6.256,6.256,0,0,1-2.9,3.5L66.7,87.9,53.8,95a8.089,8.089,0,0,1-7.7,0l-35-19.2a7.964,7.964,0,0,1-4.2-7V31.2a7.964,7.964,0,0,1,4.2-7L46.2,5A7.457,7.457,0,0,1,50,4a7.207,7.207,0,0,1,3.8,1l35,19.2a7.964,7.964,0,0,1,4.2,7ZM67.8,21.4H59.7a6.9,6.9,0,0,0-6.8-6h-2a5.2,5.2,0,0,0-9.6,0H39.4a6.9,6.9,0,0,0-6.8,6H24.5a2.006,2.006,0,0,0-2,2V77a2.006,2.006,0,0,0,2,2H61l8.8-.1V23.4A2.006,2.006,0,0,0,67.8,21.4ZM46.1,16.3a1.2,1.2,0,1,1,0,2.4,1.216,1.216,0,0,1-1.2-1.2A1.287,1.287,0,0,1,46.1,16.3Zm-9.5,6a2.9,2.9,0,0,1,2.9-2.9h1.9a5.2,5.2,0,0,0,9.6,0h2a2.9,2.9,0,0,1,2.9,2.9v3.4H36.6ZM65.8,75H26.6V25.4h6v2.3a2.006,2.006,0,0,0,2,2H57.8a2.006,2.006,0,0,0,2-2V25.4h6Zm2-53.6H59.7a6.9,6.9,0,0,0-6.8-6h-2a5.2,5.2,0,0,0-9.6,0H39.4a6.9,6.9,0,0,0-6.8,6H24.5a2.006,2.006,0,0,0-2,2V77a2.006,2.006,0,0,0,2,2H61l8.8-.1V23.4A2.006,2.006,0,0,0,67.8,21.4ZM46.1,16.3a1.2,1.2,0,1,1,0,2.4,1.216,1.216,0,0,1-1.2-1.2A1.287,1.287,0,0,1,46.1,16.3Zm-9.5,6a2.9,2.9,0,0,1,2.9-2.9h1.9a5.2,5.2,0,0,0,9.6,0h2a2.9,2.9,0,0,1,2.9,2.9v3.4H36.6ZM65.8,75H26.6V25.4h6v2.3a2.006,2.006,0,0,0,2,2H57.8a2.006,2.006,0,0,0,2-2V25.4h6Z" transform="translate(-18491 -19929)" fill="#95c33c"/>
  </g>
</svg>
