<svg id="MICROENTERPRISE-CameronWard" xmlns="http://www.w3.org/2000/svg" width="57.991" height="61.758" viewBox="0 0 57.991 61.758">
  <path id="Path_314" data-name="Path 314" d="M57.162,12.784,35.546.926a7.269,7.269,0,0,0-7.1,0L6.829,12.784A7.406,7.406,0,0,0,3,19.268V42.489a7.406,7.406,0,0,0,3.829,6.485L28.444,60.831a7.374,7.374,0,0,0,3.582.926,6.975,6.975,0,0,0,3.52-.926L57.162,48.974a7.406,7.406,0,0,0,3.829-6.485V19.268A7.406,7.406,0,0,0,57.162,12.784Zm1.42,29.706a4.918,4.918,0,0,1-2.594,4.323L34.373,58.67a5,5,0,0,1-4.755,0L8,46.812A4.985,4.985,0,0,1,5.47,42.489V19.268a4.918,4.918,0,0,1,2.594-4.323L29.679,3.088a4.768,4.768,0,0,1,4.694,0L55.988,14.945a4.918,4.918,0,0,1,2.594,4.323Z" transform="translate(-3)" fill="rgba(0,0,0,0.25)"/>
  <path id="Path_315" data-name="Path 315" d="M34.564,26.846a5.876,5.876,0,0,0,3.829-1.359,5.564,5.564,0,0,0,3.829,1.359,5.83,5.83,0,0,0,3.767-1.359,5.564,5.564,0,0,0,3.829,1.359c2.841,0,5.064-1.729,5.126-3.952a1.324,1.324,0,0,0-.247-.741l-1.544-2.162-.062-.062L49.2,14.494A1.2,1.2,0,0,0,48.213,14H36.232a1.289,1.289,0,0,0-.988.494l-3.891,5.435-.062.062-1.544,2.162a1.187,1.187,0,0,0-.247.741C29.5,25.116,31.723,26.846,34.564,26.846Zm-1.359-5.373.062-.062,3.52-4.941H47.472l3.582,5,.062.062L52.289,23.2a2.7,2.7,0,0,1-2.532,1.173c-1.482,0-2.594-.8-2.594-1.482a1.235,1.235,0,0,0-2.47,0c0,.679-1.05,1.482-2.532,1.482s-2.594-.8-2.594-1.482a1.239,1.239,0,0,0-1.235-1.235,1.135,1.135,0,0,0-1.173,1.173c0,.679-1.112,1.482-2.594,1.482a2.7,2.7,0,0,1-2.532-1.173Z" transform="translate(-13.134 -5.354)" fill="rgba(0,0,0,0.25)"/>
  <path id="Path_316" data-name="Path 316" d="M56.028,46.914V43.681a1.236,1.236,0,0,0-1.05-1.216v-5.33A1.239,1.239,0,0,0,53.743,35.9H49.358a1.239,1.239,0,0,0-1.235,1.235v5.33a1.236,1.236,0,0,0-1.05,1.217v3.15h-.865v-9.14a1.235,1.235,0,1,0-2.47,0v9.14H42.256V45.04A2.833,2.833,0,0,0,39.415,42.2H35.9a3.005,3.005,0,0,0-2.841,2.841v1.791h-1.42v-9.14a1.235,1.235,0,1,0-2.47,0v9.14H27v-4.57a1.239,1.239,0,0,0-1.235-1.235H19.962a1.239,1.239,0,0,0-1.235,1.235v4.614a1.232,1.232,0,0,0,.309,2.426h7.72V65.543a1.239,1.239,0,0,0,1.235,1.235H47.382a1.332,1.332,0,0,0,1.3-1.173V49.3H55.6a1.232,1.232,0,0,0,.432-2.388Zm-5.435-8.482h1.914v4.014H50.593Zm-29.4,8.4V43.5h3.335v3.335ZM29.225,64.37V49.3H46.209V64.37ZM49.544,46.831V44.917h4.014v1.914Z" transform="translate(-8.66 -13.729)" fill="rgba(0,0,0,0.25)"/>
  <ellipse id="Ellipse_73" data-name="Ellipse 73" cx="2.594" cy="2.594" rx="2.594" ry="2.594" transform="translate(26.618 22.418)" fill="rgba(0,0,0,0.25)"/>
</svg>
