<svg xmlns="http://www.w3.org/2000/svg" width="797.819" height="779.12" viewBox="0 0 797.819 779.12">
  <g id="GLOBE" transform="translate(-3)" opacity="0.134">
    <g id="Default_x5F_Hexagon" transform="translate(3)">
      <g id="Default">
        <path id="Path_1175" data-name="Path 1175" d="M369.186,779.12A93.023,93.023,0,0,1,324,767.433L51.305,617.842A93.429,93.429,0,0,1,3,536.035V243.085a93.429,93.429,0,0,1,48.305-81.808L324,11.687a91.709,91.709,0,0,1,89.6,0L686.288,161.278a93.429,93.429,0,0,1,48.305,81.808V536.035a93.429,93.429,0,0,1-48.305,81.808L413.6,767.433A87.99,87.99,0,0,1,369.186,779.12Zm0-747.955A63.014,63.014,0,0,0,338.8,38.956L66.109,188.547c-20.257,10.908-31.944,31.944-31.944,54.538V536.035a62.884,62.884,0,0,0,31.944,54.538L338.8,740.164a63.021,63.021,0,0,0,59.992,0L671.485,590.573a62.049,62.049,0,0,0,32.723-54.538V243.085a62.049,62.049,0,0,0-32.723-54.538L398.793,38.956A58.1,58.1,0,0,0,369.186,31.165Z" transform="translate(-3)" fill="#fff"/>
      </g>
    </g>
    <g id="Your_Icon" transform="translate(119.868 140.242)">
      <g id="Globe-2" data-name="Globe">
        <path id="Path_1176" data-name="Path 1176" d="M63.582,481.639A15.628,15.628,0,0,1,48,466.057V35.982a15.582,15.582,0,1,1,31.165,0V466.057A15.628,15.628,0,0,1,63.582,481.639Z" transform="translate(185.736 -1.701)" fill="#fff"/>
        <path id="Path_1177" data-name="Path 1177" d="M65.306,488.275a15.638,15.638,0,0,1-14.8-10.908c-2.337-8.57,1.558-17.141,10.129-19.478C125.3,436.853,172.824,351.15,172.824,254.539c0-97.39-47.526-183.093-113.751-203.35A14.614,14.614,0,0,1,48.944,31.711c2.337-8.57,10.908-12.466,19.478-10.129,79.47,24.153,135.567,120.764,135.567,232.957,0,111.414-55.317,207.246-134.009,232.957A9.882,9.882,0,0,1,65.306,488.275Z" transform="translate(185.571 1.791)" fill="#fff"/>
        <path id="Path_1178" data-name="Path 1178" d="M172.242,488.275a9.882,9.882,0,0,1-4.675-.779C88.1,463.343,32,367.512,32,254.539,32,143.125,87.318,47.293,166.009,21.582c8.57-2.337,17.141,1.558,19.478,10.129s-1.558,17.141-10.129,19.478C110.691,72.225,63.165,157.928,63.165,254.539c0,97.39,47.526,183.093,113.752,203.35a14.614,14.614,0,0,1,10.129,19.478C185.487,484.38,179.254,488.275,172.242,488.275Z" transform="translate(77.077 1.791)" fill="#fff"/>
        <path id="Path_1179" data-name="Path 1179" d="M267.318,516.637C130.193,516.637,18,404.444,18,267.318S130.193,18,267.318,18,516.637,130.193,516.637,267.318,404.444,516.637,267.318,516.637Zm0-467.472c-119.985,0-218.154,98.169-218.154,218.154s98.169,218.154,218.154,218.154S485.472,387.3,485.472,267.318,387.3,49.165,267.318,49.165Z" transform="translate(-18 -18)" fill="#fff"/>
        <path id="Path_1621" d="M22.4,49.2" transform="translate(11.881 193.885)" fill="#fff"/>
        <path id="Path_1180" data-name="Path 1180" d="M35.686,143.381a22.748,22.748,0,0,1-7.012-1.558,15.614,15.614,0,0,1-7.012-21.036C46.594,71.7,142.425,38.2,253.84,38.2c112.193,0,204.909,32.723,231.4,81.028,3.9,7.791,1.558,17.141-6.233,21.036s-17.141,1.558-21.036-6.233C440.828,102.867,363.7,68.586,253.84,68.586c-110.635,0-187.768,34.281-204.909,66.225A14.4,14.4,0,0,1,35.686,143.381Z" transform="translate(-4.521 119.182)" fill="#fff"/>
        <path id="Path_1181" data-name="Path 1181" d="M253.71,168.043c-110.635,0-206.467-40.514-232.178-97.39A14.835,14.835,0,0,1,29.323,50.4,14.835,14.835,0,0,1,49.58,58.187c21.036,45.968,106.739,79.47,203.35,79.47S437.582,103.376,457.06,57.408a15.553,15.553,0,1,1,28.827,11.687C460.956,127.529,365.124,168.043,253.71,168.043Z" transform="translate(-4.391 184.119)" fill="#fff"/>
      </g>
      <line id="Line_101" data-name="Line 101" y2="0.779" transform="translate(680.951 57.655)"/>
    </g>
  </g>
</svg>
