<svg width="119" height="116" viewBox="0 0 119 116" fill="none" xmlns="http://www.w3.org/2000/svg">
<g clip-path="url(#clip0_30_760)">
<path d="M54.9531 115.802C52.6214 115.803 50.3279 115.21 48.2891 114.078L8.07712 92.0209C5.91927 90.8307 4.12012 89.0836 2.86713 86.9615C1.61414 84.8395 0.953181 82.4203 0.953125 79.9559V36.7519C0.953181 34.2876 1.61414 31.8684 2.86713 29.7463C4.12012 27.6243 5.91927 25.8772 8.07712 24.6869L48.2931 2.62594C50.3118 1.49579 52.5866 0.902344 54.9001 0.902344C57.2136 0.902344 59.4885 1.49579 61.5071 2.62594L101.723 24.6879C103.881 25.8782 105.68 27.6253 106.933 29.7473C108.186 31.8694 108.847 34.2886 108.847 36.7529V79.9529C108.847 82.4173 108.186 84.8365 106.933 86.9585C105.68 89.0806 103.881 90.8277 101.723 92.0179L61.5071 114.082C59.5133 115.226 57.2516 115.819 54.9531 115.802V115.802ZM54.9531 5.50194C53.3865 5.50111 51.8451 5.89635 50.4721 6.65094L10.2601 28.7089C8.81942 29.4961 7.62015 30.6606 6.79093 32.0775C5.96171 33.4944 5.53381 35.1103 5.55312 36.7519V79.9519C5.55693 81.5899 5.99447 83.1976 6.82125 84.6116C7.64803 86.0256 8.83455 87.1953 10.2601 88.0019L50.4761 110.064C51.8347 110.799 53.3553 111.184 54.9001 111.184C56.445 111.184 57.9655 110.799 59.3241 110.064L99.5401 88.0019C100.995 87.2215 102.212 86.0618 103.062 84.6458C103.912 83.2298 104.362 81.6103 104.366 79.9589V36.7519C104.362 35.1006 103.912 33.4811 103.062 32.0651C102.212 30.6491 100.995 29.4894 99.5401 28.7089L59.3241 6.64694C57.9958 5.88108 56.4863 5.48567 54.9531 5.50194Z" fill="#42B294"/>
<path d="M54.9602 92.366C54.3502 92.366 53.7651 92.1237 53.3338 91.6924C52.9025 91.261 52.6602 90.676 52.6602 90.066V26.643C52.6602 26.033 52.9025 25.448 53.3338 25.0167C53.7651 24.5853 54.3502 24.343 54.9602 24.343C55.5702 24.343 56.1552 24.5853 56.5865 25.0167C57.0178 25.448 57.2602 26.033 57.2602 26.643V90.068C57.2596 90.6777 57.0171 91.2622 56.5858 91.6931C56.1545 92.124 55.5698 92.366 54.9602 92.366Z" fill="#42B294"/>
<path d="M55.1882 93.8589C54.701 93.8557 54.2273 93.6983 53.8351 93.4093C53.443 93.1202 53.1524 92.7144 53.0052 92.25C52.9067 91.9635 52.8675 91.6601 52.8899 91.358C52.9124 91.056 52.996 90.7616 53.1358 90.4929C53.2755 90.2242 53.4684 89.9867 53.7028 89.7948C53.9372 89.603 54.2081 89.4608 54.4992 89.377C64.0362 86.277 71.0452 73.635 71.0452 59.387C71.0452 45.024 64.0362 32.387 54.2692 29.397C53.9716 29.3237 53.693 29.1879 53.4521 28.9985C53.2111 28.8091 53.0134 28.5705 52.872 28.2986C52.7306 28.0267 52.6488 27.7277 52.6321 27.4217C52.6154 27.1157 52.6642 26.8096 52.7752 26.5239C52.859 26.2329 53.0012 25.962 53.1931 25.7276C53.3849 25.4932 53.6224 25.3003 53.8911 25.1605C54.1598 25.0208 54.4542 24.9372 54.7562 24.9147C55.0583 24.8923 55.3617 24.9315 55.6482 25.03C67.3682 28.592 75.6412 42.84 75.6412 59.386C75.6412 75.817 67.4832 89.95 55.8782 93.742C55.6611 93.8364 55.4243 93.8766 55.1882 93.8589Z" fill="#42B294"/>
<path d="M54.9564 93.859C54.7208 93.8771 54.4844 93.8376 54.2674 93.744C42.5464 90.182 34.2734 76.049 34.2734 59.388C34.2734 42.957 42.4314 28.819 54.0364 25.032C54.3231 24.9414 54.6248 24.9082 54.9243 24.9343C55.2238 24.9603 55.5153 25.0451 55.782 25.1838C56.0487 25.3225 56.2855 25.5123 56.4789 25.7425C56.6723 25.9728 56.8184 26.2388 56.9089 26.5255C56.9995 26.8121 57.0327 27.1138 57.0066 27.4133C56.9806 27.7128 56.8958 28.0043 56.7571 28.271C56.6184 28.5378 56.4286 28.7746 56.1983 28.9679C55.9681 29.1613 55.7021 29.3074 55.4154 29.398C45.8784 32.501 38.8734 45.14 38.8734 59.388C38.8734 73.751 45.8824 86.388 55.6494 89.378C55.947 89.4512 56.2256 89.587 56.4665 89.7764C56.7075 89.9658 56.9052 90.2044 57.0466 90.4763C57.188 90.7483 57.2698 91.0472 57.2865 91.3532C57.3032 91.6592 57.2544 91.9653 57.1434 92.251C57.0251 92.7328 56.7413 93.1577 56.3416 93.4516C55.9419 93.7455 55.4516 93.8897 54.9564 93.859Z" fill="#42B294"/>
<path d="M54.9565 95.123C47.6843 95.123 40.5754 92.9665 34.5288 88.9263C28.4821 84.8861 23.7693 79.1435 20.9864 72.4249C18.2034 65.7062 17.4753 58.3132 18.894 51.1807C20.3128 44.0482 23.8147 37.4966 28.9569 32.3544C34.0991 27.2121 40.6507 23.7102 47.7832 22.2915C54.9157 20.8727 62.3087 21.6009 69.0274 24.3839C75.7461 27.1668 81.4886 31.8796 85.5288 37.9262C89.5691 43.9728 91.7255 51.0818 91.7255 58.354C91.697 68.097 87.814 77.4328 80.9247 84.3221C74.0353 91.2115 64.6995 95.0945 54.9565 95.123ZM54.9565 26.181C48.5933 26.181 42.373 28.0679 37.0822 31.6031C31.7913 35.1383 27.6676 40.1631 25.2325 46.0419C22.7974 51.9207 22.1603 58.3897 23.4017 64.6306C24.6431 70.8716 27.7073 76.6042 32.2068 81.1037C36.7062 85.6032 42.4389 88.6674 48.6799 89.9088C54.9208 91.1502 61.3897 90.513 67.2686 88.0779C73.1474 85.6429 78.1722 81.5192 81.7074 76.2283C85.2426 70.9375 87.1295 64.7172 87.1295 58.354C87.1034 49.8296 83.7052 41.6618 77.6772 35.6345C71.6491 29.6072 63.4809 26.21 54.9565 26.185V26.181Z" fill="#42B294"/>
<path d="M22.7842 60.308C22.4295 60.2865 22.0805 60.2089 21.7502 60.078C21.4778 59.9434 21.2347 59.7562 21.035 59.5272C20.8354 59.2981 20.6831 59.0318 20.5869 58.7435C20.4908 58.4553 20.4527 58.1509 20.4749 57.8478C20.4971 57.5448 20.5791 57.2491 20.7162 56.978C24.3932 49.739 38.5262 44.798 54.9572 44.798C71.5032 44.798 85.1772 49.624 89.0832 56.748C89.3727 57.2813 89.4384 57.9078 89.266 58.4897C89.0936 59.0715 88.6971 59.561 88.1637 59.8505C87.6304 60.14 87.0039 60.2057 86.422 60.0333C85.8402 59.8608 85.3507 59.4643 85.0612 58.931C82.5332 54.331 71.1612 49.279 54.9612 49.279C38.6452 49.279 27.2692 54.335 24.7412 59.046C24.5733 59.424 24.2987 59.7449 23.9511 59.9691C23.6034 60.1933 23.1979 60.311 22.7842 60.308V60.308Z" fill="#42B294"/>
<path d="M54.956 73.521C38.64 73.521 24.506 67.546 20.715 59.158C20.5897 58.8857 20.5198 58.5913 20.5092 58.2918C20.4987 57.9922 20.5477 57.6936 20.6535 57.4132C20.7593 57.1328 20.9197 56.8762 21.1255 56.6583C21.3313 56.4404 21.5783 56.2655 21.8522 56.1439C22.1261 56.0222 22.4215 55.9562 22.7211 55.9496C23.0208 55.943 23.3187 55.996 23.5977 56.1055C23.8767 56.215 24.1311 56.3789 24.3463 56.5875C24.5614 56.7962 24.733 57.0455 24.851 57.321C27.951 64.1 40.593 69.041 54.841 69.041C69.089 69.041 82.073 63.985 84.941 57.206C85.0505 56.9217 85.2155 56.662 85.4265 56.4422C85.6374 56.2224 85.89 56.0468 86.1695 55.9256C86.4491 55.8045 86.75 55.7402 87.0546 55.7366C87.3592 55.733 87.6615 55.7901 87.9439 55.9046C88.2262 56.0191 88.4829 56.1887 88.699 56.4035C88.915 56.6183 89.0862 56.8739 89.2024 57.1556C89.3185 57.4372 89.3775 57.7392 89.3757 58.0438C89.3739 58.3485 89.3115 58.6497 89.192 58.93C85.52 67.547 71.385 73.521 54.956 73.521Z" fill="#42B294"/>
</g>
<defs>
<clipPath id="clip0_30_760">
<rect width="117.661" height="114.904" fill="white" transform="translate(0.953125 0.901978)"/>
</clipPath>
</defs>
</svg>
