<svg xmlns="http://www.w3.org/2000/svg" xmlns:xlink="http://www.w3.org/1999/xlink" width="1703" height="644" viewBox="0 0 1703 644">
  <defs>
    <clipPath id="clip-The_Scoring_System_1">
      <rect width="1703" height="644"/>
    </clipPath>
  </defs>
  <g id="The_Scoring_System_1" data-name="The Scoring System – 1" clip-path="url(#clip-The_Scoring_System_1)">
    <g id="Rectangle_2150" data-name="Rectangle 2150" transform="translate(12 13)" fill="#fff" stroke="#42b294" stroke-width="1">
      <rect width="170" height="185" rx="20" stroke="none"/>
      <rect x="0.5" y="0.5" width="169" height="184" rx="19.5" fill="none"/>
    </g>
    <g id="Rectangle_2153" data-name="Rectangle 2153" transform="translate(269 91)" fill="#fff" stroke="#42b294" stroke-width="1">
      <rect width="532" height="30" rx="15" stroke="none"/>
      <rect x="0.5" y="0.5" width="531" height="29" rx="14.5" fill="none"/>
    </g>
    <g id="Rectangle_2165" data-name="Rectangle 2165" transform="translate(842 91)" fill="#fff" stroke="#42b294" stroke-width="1">
      <rect width="236" height="30" rx="15" stroke="none"/>
      <rect x="0.5" y="0.5" width="235" height="29" rx="14.5" fill="none"/>
    </g>
    <g id="Rectangle_2156" data-name="Rectangle 2156" transform="translate(269 126)" fill="#fff" stroke="#42b294" stroke-width="1">
      <rect width="532" height="30" rx="15" stroke="none"/>
      <rect x="0.5" y="0.5" width="531" height="29" rx="14.5" fill="none"/>
    </g>
    <g id="Rectangle_2166" data-name="Rectangle 2166" transform="translate(842 126)" fill="#fff" stroke="#42b294" stroke-width="1">
      <rect width="236" height="30" rx="15" stroke="none"/>
      <rect x="0.5" y="0.5" width="235" height="29" rx="14.5" fill="none"/>
    </g>
    <g id="Rectangle_2157" data-name="Rectangle 2157" transform="translate(269 161)" fill="#fff" stroke="#42b294" stroke-width="1">
      <rect width="532" height="30" rx="15" stroke="none"/>
      <rect x="0.5" y="0.5" width="531" height="29" rx="14.5" fill="none"/>
    </g>
    <g id="Rectangle_2167" data-name="Rectangle 2167" transform="translate(842 161)" fill="#fff" stroke="#42b294" stroke-width="1">
      <rect width="236" height="30" rx="15" stroke="none"/>
      <rect x="0.5" y="0.5" width="235" height="29" rx="14.5" fill="none"/>
    </g>
    <g id="Rectangle_2158" data-name="Rectangle 2158" transform="translate(265 269)" fill="#fff" stroke="#3e89fb" stroke-width="1">
      <rect width="536" height="30" rx="15" stroke="none"/>
      <rect x="0.5" y="0.5" width="535" height="29" rx="14.5" fill="none"/>
    </g>
    <g id="Rectangle_2168" data-name="Rectangle 2168" transform="translate(840 269)" fill="#fff" stroke="#3e89fb" stroke-width="1">
      <rect width="238" height="30" rx="15" stroke="none"/>
      <rect x="0.5" y="0.5" width="237" height="29" rx="14.5" fill="none"/>
    </g>
    <g id="Rectangle_2159" data-name="Rectangle 2159" transform="translate(265 305)" fill="#fff" stroke="#3e89fb" stroke-width="1">
      <rect width="536" height="30" rx="15" stroke="none"/>
      <rect x="0.5" y="0.5" width="535" height="29" rx="14.5" fill="none"/>
    </g>
    <g id="Rectangle_2169" data-name="Rectangle 2169" transform="translate(840 305)" fill="#fff" stroke="#3e89fb" stroke-width="1">
      <rect width="238" height="30" rx="15" stroke="none"/>
      <rect x="0.5" y="0.5" width="237" height="29" rx="14.5" fill="none"/>
    </g>
    <g id="Rectangle_2160" data-name="Rectangle 2160" transform="translate(265 341)" fill="#fff" stroke="#3e89fb" stroke-width="1">
      <rect width="536" height="30" rx="15" stroke="none"/>
      <rect x="0.5" y="0.5" width="535" height="29" rx="14.5" fill="none"/>
    </g>
    <g id="Rectangle_2170" data-name="Rectangle 2170" transform="translate(840 341)" fill="#fff" stroke="#3e89fb" stroke-width="1">
      <rect width="238" height="30" rx="15" stroke="none"/>
      <rect x="0.5" y="0.5" width="237" height="29" rx="14.5" fill="none"/>
    </g>
    <g id="Rectangle_2161" data-name="Rectangle 2161" transform="translate(267 483)" fill="#fff" stroke="#fbb040" stroke-width="1">
      <rect width="534" height="30" rx="15" stroke="none"/>
      <rect x="0.5" y="0.5" width="533" height="29" rx="14.5" fill="none"/>
    </g>
    <g id="Rectangle_2171" data-name="Rectangle 2171" transform="translate(841 483)" fill="#fff" stroke="#fbb040" stroke-width="1">
      <rect width="237" height="30" rx="15" stroke="none"/>
      <rect x="0.5" y="0.5" width="236" height="29" rx="14.5" fill="none"/>
    </g>
    <g id="Rectangle_2162" data-name="Rectangle 2162" transform="translate(267 555)" fill="#fff" stroke="#fbb040" stroke-width="1">
      <rect width="534" height="30" rx="15" stroke="none"/>
      <rect x="0.5" y="0.5" width="533" height="29" rx="14.5" fill="none"/>
    </g>
    <g id="Rectangle_2172" data-name="Rectangle 2172" transform="translate(841 555)" fill="#fff" stroke="#fbb040" stroke-width="1">
      <rect width="237" height="30" rx="15" stroke="none"/>
      <rect x="0.5" y="0.5" width="236" height="29" rx="14.5" fill="none"/>
    </g>
    <g id="Rectangle_2154" data-name="Rectangle 2154" transform="translate(269 56)" fill="#fff" stroke="#42b294" stroke-width="1">
      <rect width="532" height="30" rx="15" stroke="none"/>
      <rect x="0.5" y="0.5" width="531" height="29" rx="14.5" fill="none"/>
    </g>
    <g id="Rectangle_2164" data-name="Rectangle 2164" transform="translate(842 56)" fill="#fff" stroke="#42b294" stroke-width="1">
      <rect width="236" height="30" rx="15" stroke="none"/>
      <rect x="0.5" y="0.5" width="235" height="29" rx="14.5" fill="none"/>
    </g>
    <g id="Rectangle_2155" data-name="Rectangle 2155" transform="translate(269 21)" fill="#fff" stroke="#42b294" stroke-width="1">
      <rect width="532" height="30" rx="15" stroke="none"/>
      <rect x="0.5" y="0.5" width="531" height="29" rx="14.5" fill="none"/>
    </g>
    <g id="Rectangle_2163" data-name="Rectangle 2163" transform="translate(842 21)" fill="#fff" stroke="#42b294" stroke-width="1">
      <rect width="236" height="30" rx="15" stroke="none"/>
      <rect x="0.5" y="0.5" width="235" height="29" rx="14.5" fill="none"/>
    </g>
    <g id="Rectangle_2151" data-name="Rectangle 2151" transform="translate(12 226)" fill="#fff" stroke="#3e89fb" stroke-width="1">
      <rect width="170" height="185" rx="20" stroke="none"/>
      <rect x="0.5" y="0.5" width="169" height="184" rx="19.5" fill="none"/>
    </g>
    <g id="Rectangle_2173" data-name="Rectangle 2173" transform="translate(1206 266)" fill="#fff" stroke="#0fbcc0" stroke-width="1">
      <rect width="158" height="105" rx="20" stroke="none"/>
      <rect x="0.5" y="0.5" width="157" height="104" rx="19.5" fill="none"/>
    </g>
    <g id="Rectangle_2174" data-name="Rectangle 2174" transform="translate(1392 266)" fill="#fff" stroke="#0fbcc0" stroke-width="1">
      <rect width="158" height="105" rx="20" stroke="none"/>
      <rect x="0.5" y="0.5" width="157" height="104" rx="19.5" fill="none"/>
    </g>
    <rect id="Rectangle_2175" data-name="Rectangle 2175" width="115" height="105" rx="20" transform="translate(1578 266)" fill="#97c21c"/>
    <g id="Rectangle_2152" data-name="Rectangle 2152" transform="translate(12 439)" fill="#fff" stroke="#fbb040" stroke-width="1">
      <rect width="170" height="185" rx="20" stroke="none"/>
      <rect x="0.5" y="0.5" width="169" height="184" rx="19.5" fill="none"/>
    </g>
    <line id="Line_130" data-name="Line 130" x2="42" transform="translate(182.5 105.5)" fill="none" stroke="#42b294" stroke-width="1"/>
    <line id="Line_142" data-name="Line 142" x2="42" transform="translate(181.5 319.5)" fill="none" stroke="#3e89fb" stroke-width="1"/>
    <line id="Line_149" data-name="Line 149" x2="42" transform="translate(182.5 533.5)" fill="none" stroke="#fbb040" stroke-width="1"/>
    <line id="Line_131" data-name="Line 131" x2="44" transform="translate(224.5 174.5)" fill="none" stroke="#42b294" stroke-width="1"/>
    <line id="Line_166" data-name="Line 166" x2="44" transform="translate(1077 174.5)" fill="none" stroke="#42b294" stroke-width="1"/>
    <line id="Line_132" data-name="Line 132" x2="44" transform="translate(224.5 34.5)" fill="none" stroke="#42b294" stroke-width="1"/>
    <line id="Line_170" data-name="Line 170" x2="44" transform="translate(1077 34.5)" fill="none" stroke="#42b294" stroke-width="1"/>
    <line id="Line_151" data-name="Line 151" x2="41" transform="translate(801 37)" fill="none" stroke="#42b294" stroke-width="1"/>
    <line id="Line_152" data-name="Line 152" x2="41" transform="translate(801 72)" fill="none" stroke="#42b294" stroke-width="1"/>
    <line id="Line_153" data-name="Line 153" x2="41" transform="translate(801 107)" fill="none" stroke="#42b294" stroke-width="1"/>
    <line id="Line_154" data-name="Line 154" x2="41" transform="translate(801 141)" fill="none" stroke="#42b294" stroke-width="1"/>
    <line id="Line_155" data-name="Line 155" x2="41" transform="translate(801 175)" fill="none" stroke="#42b294" stroke-width="1"/>
    <line id="Line_156" data-name="Line 156" x2="39" transform="translate(801 284)" fill="none" stroke="#3e89fb" stroke-width="1"/>
    <line id="Line_157" data-name="Line 157" x2="39" transform="translate(801 321)" fill="none" stroke="#3e89fb" stroke-width="1"/>
    <line id="Line_178" data-name="Line 178" x2="28" transform="translate(1364 319)" fill="none" stroke="#707070" stroke-width="1"/>
    <line id="Line_179" data-name="Line 179" x2="28" transform="translate(1550 319)" fill="none" stroke="#707070" stroke-width="1"/>
    <line id="Line_158" data-name="Line 158" x2="39" transform="translate(801 355)" fill="none" stroke="#3e89fb" stroke-width="1"/>
    <line id="Line_159" data-name="Line 159" x2="41" transform="translate(801 498)" fill="none" stroke="#fbb040" stroke-width="1"/>
    <line id="Line_160" data-name="Line 160" x2="41" transform="translate(801 571)" fill="none" stroke="#fbb040" stroke-width="1"/>
    <line id="Line_133" data-name="Line 133" y2="140" transform="translate(224.5 34.5)" fill="none" stroke="#42b294" stroke-width="1"/>
    <line id="Line_171" data-name="Line 171" y2="140" transform="translate(1122 34.5)" fill="none" stroke="#42b294" stroke-width="1"/>
    <line id="Line_177" data-name="Line 177" y2="429" transform="translate(1164 105)" fill="none" stroke="#707070" stroke-width="1"/>
    <line id="Line_143" data-name="Line 143" y2="75" transform="translate(223.5 283.5)" fill="none" stroke="#3e89fb" stroke-width="1"/>
    <line id="Line_172" data-name="Line 172" x1="1.5" y2="78" transform="translate(1121 280.5)" fill="none" stroke="#3e89fb" stroke-width="1"/>
    <line id="Line_150" data-name="Line 150" y2="75" transform="translate(224.5 497.5)" fill="none" stroke="#fbb040" stroke-width="1"/>
    <line id="Line_173" data-name="Line 173" y2="75" transform="translate(1122 497.5)" fill="none" stroke="#fbb040" stroke-width="1"/>
    <line id="Line_134" data-name="Line 134" x2="44" transform="translate(224.5 69.5)" fill="none" stroke="#42b294" stroke-width="1"/>
    <line id="Line_169" data-name="Line 169" x2="44" transform="translate(1077 69.5)" fill="none" stroke="#42b294" stroke-width="1"/>
    <line id="Line_138" data-name="Line 138" x2="42" transform="translate(223.5 283.5)" fill="none" stroke="#3e89fb" stroke-width="1"/>
    <line id="Line_165" data-name="Line 165" x2="43.5" transform="translate(1077.5 280.5)" fill="none" stroke="#3e89fb" stroke-width="1"/>
    <line id="Line_145" data-name="Line 145" x2="44" transform="translate(224.5 497.5)" fill="none" stroke="#fbb040" stroke-width="1"/>
    <line id="Line_162" data-name="Line 162" x2="44" transform="translate(1077 497.5)" fill="none" stroke="#fbb040" stroke-width="1"/>
    <line id="Line_135" data-name="Line 135" x2="44" transform="translate(224.5 105.5)" fill="none" stroke="#42b294" stroke-width="1"/>
    <line id="Line_168" data-name="Line 168" x2="44" transform="translate(1077 105.5)" fill="none" stroke="#42b294" stroke-width="1"/>
    <line id="Line_174" data-name="Line 174" x2="44" transform="translate(1120 105.5)" fill="none" stroke="#707070" stroke-width="1"/>
    <line id="Line_175" data-name="Line 175" x2="84.75" transform="translate(1121.75 319.5)" fill="none" stroke="#707070" stroke-width="1"/>
    <line id="Line_176" data-name="Line 176" x2="44" transform="translate(1121 533.5)" fill="none" stroke="#707070" stroke-width="1"/>
    <line id="Line_139" data-name="Line 139" x2="42" transform="translate(223.5 319.5)" fill="none" stroke="#3e89fb" stroke-width="1"/>
    <line id="Line_164" data-name="Line 164" x2="42" transform="translate(1079 319.5)" fill="none" stroke="#3e89fb" stroke-width="1"/>
    <line id="Line_136" data-name="Line 136" x2="44" transform="translate(224.5 144.5)" fill="none" stroke="#42b294" stroke-width="1"/>
    <line id="Line_167" data-name="Line 167" x2="44" transform="translate(1077 139.5)" fill="none" stroke="#42b294" stroke-width="1"/>
    <line id="Line_140" data-name="Line 140" x2="42" transform="translate(223.5 358.5)" fill="none" stroke="#3e89fb" stroke-width="1"/>
    <line id="Line_163" data-name="Line 163" x2="45.5" transform="translate(1076 358.5)" fill="none" stroke="#3e89fb" stroke-width="1"/>
    <line id="Line_147" data-name="Line 147" x2="44" transform="translate(224.5 572.5)" fill="none" stroke="#fbb040" stroke-width="1"/>
    <line id="Line_161" data-name="Line 161" x2="44" transform="translate(1077 572.5)" fill="none" stroke="#fbb040" stroke-width="1"/>
    <text id="Helps_address_climate_change" data-name="Helps address climate change" transform="translate(287 44)" font-size="20" font-family="SegoeUI, Segoe UI"><tspan x="0" y="0">Helps address climate change</tspan></text>
    <text id="_0_-_1" data-name="0 - 1" transform="translate(734 43)" fill="#42b294" font-size="20" font-family="SegoeUI, Segoe UI"><tspan x="0" y="0">0 - 1</tspan></text>
    <text id="_0_2_per_practice" data-name="+ 0,2    per practice" transform="translate(862 44)" fill="#42b294" font-size="20" font-family="SegoeUI, Segoe UI"><tspan x="0" y="0" xml:space="preserve">+ 0,2    per practice</tspan></text>
    <text id="_0_-_1-2" data-name="0 - 1" transform="translate(734 77)" fill="#42b294" font-size="20" font-family="SegoeUI, Segoe UI"><tspan x="0" y="0">0 - 1</tspan></text>
    <text id="_0_2_per_practice-2" data-name="+ 0,2    per practice" transform="translate(862 78)" fill="#42b294" font-size="20" font-family="SegoeUI, Segoe UI"><tspan x="0" y="0" xml:space="preserve">+ 0,2    per practice</tspan></text>
    <text id="_0_-_1-3" data-name="0 - 1" transform="translate(734 113)" fill="#42b294" font-size="20" font-family="SegoeUI, Segoe UI"><tspan x="0" y="0">0 - 1</tspan></text>
    <text id="_0_2_per_practice-3" data-name="+ 0,2    per practice" transform="translate(862 114)" fill="#42b294" font-size="20" font-family="SegoeUI, Segoe UI"><tspan x="0" y="0" xml:space="preserve">+ 0,2    per practice</tspan></text>
    <text id="_0_-_1-4" data-name="0 - 1" transform="translate(734 148)" fill="#42b294" font-size="20" font-family="SegoeUI, Segoe UI"><tspan x="0" y="0">0 - 1</tspan></text>
    <text id="_0_2_per_practice-4" data-name="+ 0,2    per practice" transform="translate(862 149)" fill="#42b294" font-size="20" font-family="SegoeUI, Segoe UI"><tspan x="0" y="0" xml:space="preserve">+ 0,2    per practice</tspan></text>
    <text id="_0_-_1-5" data-name="0 - 1" transform="translate(734 181)" fill="#42b294" font-size="20" font-family="SegoeUI, Segoe UI"><tspan x="0" y="0">0 - 1</tspan></text>
    <text id="_0_2_per_practice-5" data-name="+ 0,2    per practice" transform="translate(862 182)" fill="#42b294" font-size="20" font-family="SegoeUI, Segoe UI"><tspan x="0" y="0" xml:space="preserve">+ 0,2    per practice</tspan></text>
    <text id="_0_-_1-6" data-name="0 - 1" transform="translate(734 291)" fill="#3e89fb" font-size="20" font-family="SegoeUI, Segoe UI"><tspan x="0" y="0">0 - 1</tspan></text>
    <text id="_0_2_per_practice-6" data-name="+ 0,2    per practice" transform="translate(862 292)" fill="#3e89fb" font-size="20" font-family="SegoeUI, Segoe UI"><tspan x="0" y="0" xml:space="preserve">+ 0,2    per practice</tspan></text>
    <text id="_0_-_1-7" data-name="0 - 1" transform="translate(734 327)" fill="#3e89fb" font-size="20" font-family="SegoeUI, Segoe UI"><tspan x="0" y="0">0 - 1</tspan></text>
    <text id="_0_2_per_practice-7" data-name="+ 0,2    per practice" transform="translate(862 328)" fill="#3e89fb" font-size="20" font-family="SegoeUI, Segoe UI"><tspan x="0" y="0" xml:space="preserve">+ 0,2    per practice</tspan></text>
    <text id="_0_-_1-8" data-name="0 - 1" transform="translate(734 363)" fill="#3e89fb" font-size="20" font-family="SegoeUI, Segoe UI"><tspan x="0" y="0">0 - 1</tspan></text>
    <text id="_0_2_per_practice-8" data-name="+ 0,2    per practice" transform="translate(862 364)" fill="#3e89fb" font-size="20" font-family="SegoeUI, Segoe UI"><tspan x="0" y="0" xml:space="preserve">+ 0,2    per practice</tspan></text>
    <text id="_0_-_1-9" data-name="0 - 1" transform="translate(734 505)" fill="#fbb040" font-size="20" font-family="SegoeUI, Segoe UI"><tspan x="0" y="0">0 - 1</tspan></text>
    <text id="_0_2_per_practice-9" data-name="+ 0,2    per practice" transform="translate(862 506)" fill="#fbb040" font-size="20" font-family="SegoeUI, Segoe UI"><tspan x="0" y="0" xml:space="preserve">+ 0,2    per practice</tspan></text>
    <text id="_0_-_1-10" data-name="0 - 1" transform="translate(734 577)" fill="#fbb040" font-size="20" font-family="SegoeUI, Segoe UI"><tspan x="0" y="0">0 - 1</tspan></text>
    <text id="_0_2_per_practice-10" data-name="+ 0,2    per practice" transform="translate(862 578)" fill="#fbb040" font-size="20" font-family="SegoeUI, Segoe UI"><tspan x="0" y="0" xml:space="preserve">+ 0,2    per practice</tspan></text>
    <text id="Supports_global_ecosystems" data-name="Supports global ecosystems" transform="translate(287 79)" font-size="20" font-family="SegoeUI, Segoe UI"><tspan x="0" y="0">Supports global ecosystems</tspan></text>
    <text id="Optimizes_impact_on_water_resources" data-name="Optimizes impact on water resources" transform="translate(289 114)" font-size="20" font-family="SegoeUI, Segoe UI"><tspan x="0" y="0">Optimizes impact on water resources</tspan></text>
    <text id="Safe_food_source" data-name="Safe food source" transform="translate(289 149)" font-size="20" font-family="SegoeUI, Segoe UI"><tspan x="0" y="0">Safe food source</tspan></text>
    <text id="Certifications_0_-_2" data-name="Certifications
∑ 0 - 2" transform="translate(1285 311)" fill="#0fbcc0" font-size="20" font-family="SegoeUI, Segoe UI"><tspan x="-57.539" y="0">Certifications</tspan><tspan x="-29.165" y="30">∑ 0 - 2</tspan></text>
    <text id="Transparency_Programs_X_1_-_1_75" data-name="Transparency
Programs
X 1 - 1,75" transform="translate(1471 296)" fill="#0fbcc0" font-size="20" font-family="SegoeUI, Segoe UI"><tspan x="-57.627" y="0">Transparency</tspan><tspan x="-42.246" y="30">Programs</tspan><tspan x="-41.846" y="60">X 1 - 1,75</tspan></text>
    <text id="Overall_Score" data-name="Overall
Score" transform="translate(1635 309)" fill="#fff" font-size="20" font-family="SegoeUI, Segoe UI"><tspan x="-30.967" y="0">Overall</tspan><tspan x="-24.497" y="30">Score</tspan></text>
    <text id="Advances_animal_welfare" data-name="Advances animal welfare" transform="translate(289 181)" font-size="20" font-family="SegoeUI, Segoe UI"><tspan x="0" y="0">Advances animal welfare</tspan></text>
    <text id="Enhances_flavor_and_nutrition" data-name="Enhances flavor and nutrition" transform="translate(291 289)" font-size="20" font-family="SegoeUI, Segoe UI"><tspan x="0" y="0">Enhances flavor and nutrition</tspan></text>
    <text id="Fair_treatment_of_workers" data-name="Fair treatment of workers" transform="translate(291 326)" font-size="20" font-family="SegoeUI, Segoe UI"><tspan x="0" y="0">Fair treatment of workers</tspan></text>
    <text id="Builds_opportunities_in_local_communities" data-name="Builds opportunities in local communities" transform="translate(287 363)" font-size="20" font-family="SegoeUI, Segoe UI"><tspan x="0" y="0">Builds opportunities in local communities</tspan></text>
    <text id="Quality_and_story_of_the_product" data-name="Quality and story of the product" transform="translate(287 504)" font-size="20" font-family="SegoeUI, Segoe UI"><tspan x="0" y="0">Quality and story of the product</tspan></text>
    <text id="Creates_co-products_beyond_seafood" data-name="Creates co-products beyond seafood" transform="translate(287 575)" font-size="20" font-family="SegoeUI, Segoe UI"><tspan x="0" y="0">Creates co-products beyond seafood</tspan></text>
    <g id="Group_71" data-name="Group 71" transform="translate(-319 -419)">
      <text id="Planet_0_-_8_8" data-name="Planet
∑ 0 - 8,8" transform="translate(355 545)" fill="#42b294" font-size="20" font-family="SegoeUI, Segoe UI"><tspan x="33.612" y="22">Planet</tspan><tspan x="24.276" y="52">∑ 0 - 8,8</tspan></text>
      <text id="People_0_-_5_6" data-name="People
∑ 0 - 5,6" transform="translate(355 760)" fill="#3e89fb" font-size="20" font-family="SegoeUI, Segoe UI"><tspan x="31.151" y="22">People</tspan><tspan x="24.276" y="52">∑ 0 - 5,6</tspan></text>
      <text id="Supply_Chain_0_-_6" data-name="Supply Chain
∑ 0 - 6" transform="translate(346 975)" fill="#fbb040" font-size="20" font-family="SegoeUI, Segoe UI"><tspan x="12.751" y="22">Supply Chain</tspan><tspan x="41.335" y="52">∑ 0 - 6</tspan></text>
    </g>
    <g id="Group_678" data-name="Group 678" transform="translate(-108 -309)">
      <g id="VALUE_CHAIN_DIVYA_PR" transform="translate(155.5 762.344)">
        <path id="Path_308" data-name="Path 308" d="M22.274,29.146" transform="translate(-0.132 -0.207)" fill="none" stroke="#fbb040" stroke-linecap="round" stroke-linejoin="round" stroke-width="4"/>
        <path id="Path_309" data-name="Path 309" d="M30.424,29.314" transform="translate(-0.194 -0.208)" fill="none" stroke="#fbb040" stroke-linecap="round" stroke-linejoin="round" stroke-width="4"/>
        <path id="Path_310" data-name="Path 310" d="M24.979,31.64" transform="translate(-0.152 -0.226)" fill="none" stroke="#fbb040" stroke-linecap="round" stroke-miterlimit="10" stroke-width="4"/>
        <g id="Group_198" data-name="Group 198" transform="translate(38.686 2.043)">
          <g id="Group_197" data-name="Group 197">
            <path id="Path_311" data-name="Path 311" d="M69.7,87.805,88.779,77.331a11.134,11.134,0,0,0,5.715-9.777V31.8a11.135,11.135,0,0,0-5.715-9.777L54.621,3.27a9.94,9.94,0,0,0-9.566,0L38.945,6.632" transform="translate(-38.945 -2.043)" fill="none" stroke="#fbb040" stroke-linecap="round" stroke-linejoin="round" stroke-width="4"/>
            <line id="Line_94" data-name="Line 94" x1="8.142" y1="2.617" transform="translate(30.758 85.762)" fill="none" stroke="#fbb040" stroke-linecap="round" stroke-linejoin="round" stroke-width="4"/>
          </g>
          <line id="Line_95" data-name="Line 95" y1="8.493" x2="2.632" transform="translate(30.758 77.269)" fill="none" stroke="#fbb040" stroke-linecap="round" stroke-linejoin="round" stroke-width="4"/>
          <line id="Line_96" data-name="Line 96" y1="8.493" x2="2.632" transform="translate(30.758 77.269)" fill="none" stroke="#fbb040" stroke-linecap="round" stroke-linejoin="round" stroke-width="4"/>
        </g>
        <g id="Group_170826_1_" transform="translate(20.047 14.847)">
          <g id="Layer_19_1_" transform="translate(0 0)">
            <g id="Group_170600_1_">
              <path id="Path_95904_1_" d="M-3346.332-2220.316v34.072" transform="translate(3376.102 2220.316)" fill="none" stroke="#fbb040" stroke-linecap="round" stroke-width="4"/>
              <path id="Path_95905_1_" d="M-3347.1-2185.321l-29.232,16.877" transform="translate(3376.331 2220.049)" fill="none" stroke="#fbb040" stroke-linecap="round" stroke-width="4"/>
              <path id="Path_95906_1_" d="M-3346.332-2185.323l29.232,16.877" transform="translate(3376.102 2220.049)" fill="none" stroke="#fbb040" stroke-linecap="round" stroke-width="4"/>
            </g>
          </g>
        </g>
        <path id="Path_312" data-name="Path 312" d="M22.274,29.146" transform="translate(-0.132 -0.207)" fill="none" stroke="#fbb040" stroke-linecap="round" stroke-linejoin="round" stroke-width="4"/>
        <path id="Path_313" data-name="Path 313" d="M30.424,29.314" transform="translate(-0.194 -0.208)" fill="none" stroke="#fbb040" stroke-linecap="round" stroke-linejoin="round" stroke-width="4"/>
        <path id="Path_314" data-name="Path 314" d="M24.979,31.64" transform="translate(-0.152 -0.226)" fill="none" stroke="#fbb040" stroke-linecap="round" stroke-miterlimit="10" stroke-width="4"/>
        <path id="Line_294_1_" d="M27.462,55.8" transform="translate(-0.171 -0.41)" fill="none" stroke="#fbb040" stroke-linecap="round" stroke-linejoin="round" stroke-width="4"/>
        <g id="Group_199" data-name="Group 199" transform="translate(58.461 23.803)">
          <path id="Path_789_2_" d="M76.655,23.97l-3.73,3.717" transform="translate(-58.979 -23.97)" fill="none" stroke="#fbb040" stroke-linecap="round" stroke-width="4"/>
          <path id="Path_788_2_" d="M62.377,23.97l4,3.989" transform="translate(-58.898 -23.97)" fill="none" stroke="#fbb040" stroke-linecap="round" stroke-width="4"/>
          <path id="Path_786_1_" d="M69.658,27.932c2.571,0,4.209,1.563,4.209,4.309v2.618a.191.191,0,0,1-.171.209h-.029l-8.516-.018a.192.192,0,0,1-.2-.182.279.279,0,0,1,0-.029V32.249a3.945,3.945,0,0,1,4.214-4.317" transform="translate(-58.918 -24)" fill="none" stroke="#fbb040" stroke-linecap="round" stroke-linejoin="round" stroke-width="4"/>
          <path id="Path_787_1_" d="M69.658,49.1c2.571,0,4.209-2.418,4.209-6.667V38.383c0-.2-.079-.325-.2-.325l-8.516.027c-.12,0-.2.122-.2.325v4.01c0,4.228,1.656,6.68,4.214,6.68" transform="translate(-58.918 -24.077)" fill="none" stroke="#fbb040" stroke-linecap="round" stroke-linejoin="round" stroke-width="4"/>
          <path id="Path_784_2_" d="M60.868,35.059a4.5,4.5,0,1,0,5.281,7.27c2.1-1.529,3-7.732,3-7.732S62.971,33.529,60.868,35.059Z" transform="translate(-58.871 -24.048)" fill="#f4f4f4" stroke="#fbb040" stroke-linecap="round" stroke-linejoin="round" stroke-width="4"/>
          <path id="Path_785_1_" d="M78.071,35.061a4.5,4.5,0,1,1-5.283,7.269c-2.1-1.53-3-7.734-3-7.734S75.967,33.53,78.071,35.061Z" transform="translate(-58.955 -24.048)" fill="#f4f4f4" stroke="#fbb040" stroke-linecap="round" stroke-linejoin="round" stroke-miterlimit="4.001" stroke-width="4"/>
        </g>
        <path id="Path_315" data-name="Path 315" d="M27.209,35.825,17.161,30.7c-1.234-.63-1.242-.922-.36-1.944a3.083,3.083,0,0,1,3.6-1.023C24,28.8,27.641,29.687,31.247,30.706a1.482,1.482,0,0,0,1.716-.477c1.051-1.131,2.165-2.2,3.266-3.288a6.754,6.754,0,0,1,4.376-2c.977-.068,1.35.306,1.279,1.275a6.8,6.8,0,0,1-2.059,4.447c-1.116,1.113-2.2,2.26-3.355,3.332A1.279,1.279,0,0,0,36.1,35.49c1.038,3.733,2.035,7.479,3.046,11.22a3.142,3.142,0,0,1-1.642,3.817c-.712.373-1.017-.124-1.294-.671q-1.941-3.838-3.9-7.666c-.439-.861-.883-1.721-1.376-2.679-1.821,1.626-3.564,3.161-5.272,4.735a1.186,1.186,0,0,0-.238.843c.062,1.133.139,2.268.283,3.392a2.347,2.347,0,0,1-.825,2.191c-.666.6-1.171.494-1.5-.363-.519-1.353-1.027-2.711-1.49-4.085a1.845,1.845,0,0,0-1.258-1.274c-1.372-.462-2.729-.974-4.081-1.493-.9-.345-1-.857-.338-1.557a2.268,2.268,0,0,1,2.03-.78,9.126,9.126,0,0,1,1.409.135c2.042.592,3.434-.194,4.6-1.867a39.02,39.02,0,0,1,2.857-3.276A1.184,1.184,0,0,0,27.209,35.825Z" transform="translate(-0.082 -0.175)" fill="#fbb040"/>
        <g id="Group_200" data-name="Group 200" transform="translate(5 8.726)">
          <path id="Path_316" data-name="Path 316" d="M29.793,11.579,10.715,22.053A11.134,11.134,0,0,0,5,31.829V67.586a11.135,11.135,0,0,0,5.715,9.777L44.874,96.114a9.94,9.94,0,0,0,9.566,0l6.109-3.362" transform="translate(-5 -8.798)" fill="none" stroke="#fbb040" stroke-linecap="round" stroke-linejoin="round" stroke-width="4"/>
          <path id="Path_317" data-name="Path 317" d="M21.264,8.777l8.653,2.781-2.868,9.256" transform="translate(-5.124 -8.777)" fill="none" stroke="#fbb040" stroke-linecap="round" stroke-linejoin="round" stroke-width="4"/>
        </g>
        <path id="Path_318" data-name="Path 318" d="M57.379,81.76H42.658L40.85,68.768H59.187Z" transform="translate(-0.273 -0.509)" fill="none" stroke="#fbb040" stroke-linecap="round" stroke-linejoin="round" stroke-miterlimit="10" stroke-width="4"/>
        <line id="Line_97" data-name="Line 97" x2="14.301" transform="translate(42.595 61.964)" fill="none" stroke="#fbb040" stroke-linecap="round" stroke-linejoin="round" stroke-miterlimit="10" stroke-width="4"/>
        <g id="_x2D_----------MODIFIER----------" transform="translate(27.291 54.394)">
          <path id="Line_294_7_" d="M27.462,54.8" transform="translate(-27.462 -54.796)" fill="none" stroke="#fbb040" stroke-linecap="round" stroke-linejoin="round" stroke-width="4"/>
        </g>
      </g>
      <g id="FISHERPERSON-FilipaCampos" transform="translate(160.5 550.055)">
        <ellipse id="Ellipse_336" data-name="Ellipse 336" cx="1.805" cy="1.805" rx="1.805" ry="1.805" transform="translate(22.758 47.976)" fill="#3e89ff"/>
        <ellipse id="Ellipse_337" data-name="Ellipse 337" cx="1.805" cy="1.805" rx="1.805" ry="1.805" transform="translate(35.843 47.976)" fill="#3e89ff"/>
        <path id="Path_1101" data-name="Path 1101" d="M91.261,22.423l-38.153-21a11.345,11.345,0,0,0-10.964,0L8.917,19.661a11.4,11.4,0,0,0-5.909,9.987V65.314A11.392,11.392,0,0,0,8.917,75.3l33.227,18.24a11.343,11.343,0,0,0,10.964,0L78.857,79.4a1.9,1.9,0,1,0-1.829-3.329L55.806,87.727c-.071-1.425-.147-3.089-.189-4.372-.385-11.939-2.846-16.362-10.126-18.2a6.778,6.778,0,0,0-.69-.139A18.82,18.82,0,0,0,52.576,45.86h3.637a1.9,1.9,0,0,0,1.234-3.342l-6.109-5.227c-3.1-8.512-9.372-13.381-17.276-13.381-8.031,0-14.155,4.746-17.294,13.381l-6.11,5.227a1.9,1.9,0,0,0,1.234,3.342h3.758a18.857,18.857,0,0,0,7.924,19.259l-.141.035a13.521,13.521,0,0,0-9.307,8.675l-3.383-1.857a7.6,7.6,0,0,1-3.938-6.658V29.647a7.593,7.593,0,0,1,3.938-6.658L43.97,4.75a7.565,7.565,0,0,1,7.308,0l37.168,20.46V44.334a3.8,3.8,0,0,1-7.594,0,1.9,1.9,0,1,0-3.8,0,7.595,7.595,0,0,0,15.19,0V24.086A1.9,1.9,0,0,0,91.261,22.423ZM51.821,83.476c.063,1.935.2,4.713.286,6.282l-.827.454a7.661,7.661,0,0,1-1.842.717l-1.11-20.483C50.339,72.079,51.561,75.4,51.821,83.476Zm-6.192,7.4a7.639,7.639,0,0,1-1.659-.665l-19.9-10.925.4-10.476c1.262-.276,1.89.4,3.385,2.9V80.02a1.9,1.9,0,0,0,1.9,1.9h9.4a1.9,1.9,0,0,0,1.9-1.9V72.3a1.83,1.83,0,0,0-.032-.316l.143-.248c1.515-2.637,2.1-3.183,3.272-2.927ZM31.65,76.157a5.681,5.681,0,0,0,2.912.763,5.586,5.586,0,0,0,2.691-.665v1.866h-5.6Zm6.218-6.318c-1.283,2.232-2.028,3.283-3.307,3.283-1.3,0-2.07-1.058-3.413-3.3-.36-.6-.768-1.284-1.251-1.943a19.232,19.232,0,0,0,9.369-.245A21.475,21.475,0,0,0,37.869,69.839ZM34.06,27.708c7.1,0,10.892,4.755,12.83,8.8H21.2C23.3,32.053,27.128,27.708,34.06,27.708ZM18.083,42.062h-1.05L19.089,40.3H49.014l2.057,1.759h-.9c-.049,0-.1,0-.148,0H18.083Zm1.008,7.469a15.134,15.134,0,0,1,.448-3.672H48.681a15.023,15.023,0,1,1-29.59,3.672Zm1.5,21.3-.245,6.415-2.838-1.558A10.606,10.606,0,0,1,20.59,70.828Z" transform="translate(-3.008 -0.008)" fill="#3e89ff"/>
        <path id="Path_1102" data-name="Path 1102" d="M81.18,57.88c-5.791,0-9.831,3.472-11.894,5.809a11.831,11.831,0,0,0-8.459-3.818,1.9,1.9,0,0,0-1.569,2.969,7.975,7.975,0,0,1,1.262,3.841A8.55,8.55,0,0,1,59.2,70.672a1.9,1.9,0,0,0,1.58,2.953,11.948,11.948,0,0,0,8.491-3.818c2.046,2.339,6.054,5.808,11.845,5.808,6.732,0,11.132-4.755,12.711-6.8a3.393,3.393,0,0,0,.012-4.131C92.275,62.64,87.917,57.88,81.18,57.88ZM64,69.038a9.531,9.531,0,0,0,.314-2.358,9.389,9.389,0,0,0-.279-2.226,9.912,9.912,0,0,1,2.895,2.284A10.066,10.066,0,0,1,64,69.038Zm7.671-2.283c1.328-1.637,4.413-4.746,8.818-5.048a9.238,9.238,0,0,0,0,10.084C76.066,71.518,72.992,68.4,71.673,66.755ZM84.88,71.093c-.04-.04-.073-.084-.117-.121a5.517,5.517,0,0,1,.156-8.579,14.2,14.2,0,0,1,5.7,4.347A14.429,14.429,0,0,1,84.88,71.093Z" transform="translate(-5.831 -2.933)" fill="#3e89ff"/>
        <path id="Path_1103" data-name="Path 1103" d="M87.31,64.074a1,1,0,1,0,1.005,1A1,1,0,0,0,87.31,64.074Z" transform="translate(-7.217 -3.246)" fill="#3e89ff"/>
      </g>
      <g id="GLOBE" transform="translate(157.5 334)">
        <g id="Default_x5F_Hexagon" transform="translate(3)">
          <g id="Default">
            <path id="Path_1175" data-name="Path 1175" d="M47.18,94a11.223,11.223,0,0,1-5.452-1.41L8.828,74.542A11.272,11.272,0,0,1,3,64.672V29.328a11.272,11.272,0,0,1,5.828-9.87L41.728,1.41a11.065,11.065,0,0,1,10.81,0l32.9,18.048a11.272,11.272,0,0,1,5.828,9.87V64.672a11.272,11.272,0,0,1-5.828,9.87L52.538,92.59A10.616,10.616,0,0,1,47.18,94Zm0-90.24a7.6,7.6,0,0,0-3.666.94l-32.9,18.048a7.4,7.4,0,0,0-3.854,6.58V64.672a7.587,7.587,0,0,0,3.854,6.58L43.514,89.3a7.6,7.6,0,0,0,7.238,0l32.9-18.048a7.486,7.486,0,0,0,3.948-6.58V29.328a7.486,7.486,0,0,0-3.948-6.58L50.752,4.7A7.01,7.01,0,0,0,47.18,3.76Z" transform="translate(-3)" fill="#42b294"/>
          </g>
        </g>
        <g id="Your_Icon" transform="translate(17.1 16.92)">
          <g id="Globe-2" data-name="Globe">
            <path id="Path_1176" data-name="Path 1176" d="M49.88,76.048A1.886,1.886,0,0,1,48,74.168V22.28a1.88,1.88,0,1,1,3.76,0V74.168A1.886,1.886,0,0,1,49.88,76.048Z" transform="translate(-19.8 -18.144)" fill="#42b294"/>
            <path id="Path_1177" data-name="Path 1177" d="M50.067,77.3a1.887,1.887,0,0,1-1.786-1.316,1.828,1.828,0,0,1,1.222-2.35C57.3,71.1,63.039,60.757,63.039,49.1c0-11.75-5.734-22.09-13.724-24.534a1.763,1.763,0,0,1-1.222-2.35,1.828,1.828,0,0,1,2.35-1.222C60.031,23.909,66.8,35.565,66.8,49.1c0,13.442-6.674,25-16.168,28.106A1.192,1.192,0,0,1,50.067,77.3Z" transform="translate(-19.799 -18.175)" fill="#42b294"/>
            <path id="Path_1178" data-name="Path 1178" d="M48.92,77.3a1.192,1.192,0,0,1-.564-.094C38.768,74.293,32,62.731,32,49.1c0-13.442,6.674-25,16.168-28.106A1.873,1.873,0,0,1,49.3,24.567C41.494,27.1,35.76,37.445,35.76,49.1c0,11.75,5.734,22.09,13.724,24.534a1.763,1.763,0,0,1,1.222,2.35A1.732,1.732,0,0,1,48.92,77.3Z" transform="translate(-18.84 -18.175)" fill="#42b294"/>
            <path id="Path_1179" data-name="Path 1179" d="M48.08,78.16A30.08,30.08,0,1,1,78.16,48.08,30.168,30.168,0,0,1,48.08,78.16Zm0-56.4A26.32,26.32,0,1,0,74.4,48.08,26.4,26.4,0,0,0,48.08,21.76Z" transform="translate(-18 -18)" fill="#42b294"/>
            <path id="Path_1621" d="M22.4,49.2" transform="translate(-18.264 -19.872)" fill="#42b294"/>
            <path id="Path_1180" data-name="Path 1180" d="M21.879,50.89a2.745,2.745,0,0,1-.846-.188,1.884,1.884,0,0,1-.846-2.538C23.2,42.242,34.757,38.2,48.2,38.2c13.536,0,24.722,3.948,27.918,9.776a1.872,1.872,0,0,1-3.29,1.786c-2.068-3.76-11.374-7.9-24.628-7.9-13.348,0-22.654,4.136-24.722,7.99A1.737,1.737,0,0,1,21.879,50.89Z" transform="translate(-18.119 -19.212)" fill="#42b294"/>
            <path id="Path_1181" data-name="Path 1181" d="M48.2,62.274c-13.348,0-24.91-4.888-28.012-11.75a1.852,1.852,0,1,1,3.384-1.5c2.538,5.546,12.878,9.588,24.534,9.588s22.278-4.136,24.628-9.682a1.876,1.876,0,0,1,3.478,1.41C73.2,57.386,61.642,62.274,48.2,62.274Z" transform="translate(-18.12 -19.786)" fill="#42b294"/>
          </g>
          <line id="Line_101" data-name="Line 101" y2="0.094" transform="translate(82.156 6.956)"/>
        </g>
      </g>
    </g>
  </g>
</svg>
