<svg xmlns="http://www.w3.org/2000/svg" width="82.658" height="88.027" viewBox="0 0 82.658 88.027">
  <g id="Group_4839" data-name="Group 4839" transform="translate(17967 19471)">
    <g id="MICROENTERPRISE-CameronWard" transform="translate(-17970 -19471)">
      <path id="Path_16930" data-name="Path 16930" d="M80.2,18.222,49.39,1.32a10.362,10.362,0,0,0-10.123,0l-30.81,16.9A10.556,10.556,0,0,0,3,27.465v33.1a10.556,10.556,0,0,0,5.458,9.243l30.81,16.9a10.51,10.51,0,0,0,5.106,1.32,9.941,9.941,0,0,0,5.018-1.32l30.81-16.9a10.556,10.556,0,0,0,5.458-9.243v-33.1A10.556,10.556,0,0,0,80.2,18.222Zm2.025,42.341a7.011,7.011,0,0,1-3.7,6.162l-30.81,16.9a7.12,7.12,0,0,1-6.778,0l-30.81-16.9a7.1,7.1,0,0,1-3.609-6.162v-33.1a7.011,7.011,0,0,1,3.7-6.162L41.028,4.4a6.8,6.8,0,0,1,6.69,0l30.81,16.9a7.011,7.011,0,0,1,3.7,6.162Z" transform="translate(0)" fill="#95c33c"/>
      <path id="Path_16931" data-name="Path 16931" d="M36.718,32.31a8.375,8.375,0,0,0,5.458-1.937,7.931,7.931,0,0,0,5.458,1.937A8.309,8.309,0,0,0,53,30.373a7.931,7.931,0,0,0,5.458,1.937c4.049,0,7.218-2.465,7.306-5.634a1.888,1.888,0,0,0-.352-1.056l-2.2-3.081-.088-.088L57.581,14.7a1.711,1.711,0,0,0-1.408-.7H39.095a1.838,1.838,0,0,0-1.408.7l-5.546,7.746-.088.088-2.2,3.081a1.692,1.692,0,0,0-.352,1.056C29.5,29.845,32.669,32.31,36.718,32.31Zm-1.937-7.658.088-.088,5.018-7.042H55.116l5.106,7.13.088.088,1.673,2.377c-.352.88-1.761,1.673-3.609,1.673-2.113,0-3.7-1.144-3.7-2.113a1.761,1.761,0,0,0-3.521,0c0,.968-1.5,2.113-3.609,2.113s-3.7-1.144-3.7-2.113a1.766,1.766,0,0,0-1.761-1.761,1.617,1.617,0,0,0-1.673,1.673c0,.968-1.584,2.113-3.7,2.113-1.849,0-3.257-.792-3.609-1.673Z" transform="translate(-3.173 -1.676)" fill="#95c33c"/>
      <path id="Path_16932" data-name="Path 16932" d="M72.289,51.6V46.991a1.761,1.761,0,0,0-1.5-1.733v-7.6A1.766,1.766,0,0,0,69.032,35.9h-6.25a1.766,1.766,0,0,0-1.761,1.761v7.6a1.762,1.762,0,0,0-1.5,1.734v4.489H58.293V38.453a1.761,1.761,0,0,0-3.521,0V51.481H52.659V48.928a4.038,4.038,0,0,0-4.049-4.049H43.592a4.283,4.283,0,0,0-4.049,4.049v2.553H37.518V38.453a1.761,1.761,0,0,0-3.521,0V51.481H30.916V44.967a1.766,1.766,0,0,0-1.761-1.761H20.881a1.766,1.766,0,0,0-1.761,1.761v6.577A1.756,1.756,0,0,0,19.561,55h11V78.152a1.766,1.766,0,0,0,1.761,1.761H59.965a1.9,1.9,0,0,0,1.849-1.673V55h9.859a1.757,1.757,0,0,0,.616-3.4Zm-7.746-12.09h2.729v5.722H64.543Zm-41.9,11.972V46.727h4.753v4.753Zm11.444,25V55H58.293V76.481Zm28.961-25V48.752h5.722v2.729Z" transform="translate(-1.772 -4.298)" fill="#95c33c"/>
      <circle id="Ellipse_76" data-name="Ellipse 76" cx="3.697" cy="3.697" r="3.697" transform="translate(40.94 31.954)" fill="#95c33c"/>
    </g>
  </g>
</svg>
