<svg xmlns="http://www.w3.org/2000/svg" width="82.732" height="88.027" viewBox="0 0 82.732 88.027">
  <g id="Group_4843" data-name="Group 4843" transform="translate(18668 19471)">
    <g id="DATA2" transform="translate(-18668 -19471)">
      <path id="Path_16899" data-name="Path 16899" d="M80.254,18.212,49.448,1.3a10.516,10.516,0,0,0-10.165,0L8.479,18.213A10.56,10.56,0,0,0,3,27.471V60.54A10.559,10.559,0,0,0,8.479,69.8l30.8,16.911a10.512,10.512,0,0,0,10.166,0L80.253,69.8a10.56,10.56,0,0,0,5.48-9.258V27.471A10.564,10.564,0,0,0,80.254,18.212ZM82.212,60.54a7.038,7.038,0,0,1-3.653,6.172l-30.8,16.911a7.013,7.013,0,0,1-6.776,0l-30.8-16.911A7.04,7.04,0,0,1,6.521,60.54V27.471A7.04,7.04,0,0,1,10.172,21.3l30.8-16.911a7.011,7.011,0,0,1,6.778,0L78.559,21.3a7.041,7.041,0,0,1,3.653,6.172Z" transform="translate(-3 0.008)" fill="#eec04e"/>
      <path id="Path_16900" data-name="Path 16900" d="M69.567,62.74H25.561V32.815a1.76,1.76,0,0,0-3.521,0V64.5a1.761,1.761,0,0,0,1.76,1.76H69.567a1.76,1.76,0,1,0,0-3.521Z" transform="translate(-5.282 -3.715)" fill="#eec04e"/>
      <path id="Path_16901" data-name="Path 16901" d="M33.867,59.835a1.76,1.76,0,0,0,2.427-.559l7.69-12.3,7.243,6.518a1.76,1.76,0,0,0,2.577-.242L67.885,34.766a1.76,1.76,0,1,0-2.8-2.133L52.16,49.6l-7.382-6.643a1.761,1.761,0,0,0-2.67.375l-8.8,14.082A1.76,1.76,0,0,0,33.867,59.835Z" transform="translate(-6.601 -3.821)" fill="#eec04e"/>
    </g>
  </g>
</svg>
