<svg xmlns="http://www.w3.org/2000/svg" width="62.037" height="66.172" viewBox="0 0 62.037 66.172">
  <g id="Group_654" data-name="Group 654" transform="translate(14860.635 -3259.323)">
    <g id="Icons_Planet" transform="translate(-14860 3260)">
      <path id="Path_17" data-name="Path 17" d="M89.77,56.812V31.443a6.752,6.752,0,0,0-3.5-5.92L62.634,12.551a6.752,6.752,0,0,0-6.5,0L32.5,25.524A6.752,6.752,0,0,0,29,31.443V56.812a6.752,6.752,0,0,0,3.5,5.917L56.134,75.7a6.752,6.752,0,0,0,6.5,0L86.264,62.729a6.752,6.752,0,0,0,3.506-5.917Z" transform="translate(-29 -11.718)" fill="#fbb040"/>
    </g>
    <g id="VALUE_CHAIN_DIVYA_PR" transform="translate(-14864.385 3258.599)">
      <path id="Path_308" data-name="Path 308" d="M22.274,29.146" transform="translate(-5.837 -9.158)" fill="none" stroke="#fff" stroke-linecap="round" stroke-linejoin="round" stroke-width="2.5"/>
      <path id="Path_309" data-name="Path 309" d="M30.424,29.314" transform="translate(-8.59 -9.215)" fill="none" stroke="#fff" stroke-linecap="round" stroke-linejoin="round" stroke-width="2.5"/>
      <path id="Path_310" data-name="Path 310" d="M24.979,31.64" transform="translate(-6.751 -10.001)" fill="none" stroke="#fff" stroke-linecap="round" stroke-miterlimit="10" stroke-width="2.5"/>
      <g id="Group_198" data-name="Group 198" transform="translate(27.475 2.043)">
        <g id="Group_197" data-name="Group 197">
          <path id="Path_311" data-name="Path 311" d="M59.466,59.263l12.728-6.988a7.428,7.428,0,0,0,3.813-6.523V21.9a7.429,7.429,0,0,0-3.813-6.523L49.4,2.861a6.632,6.632,0,0,0-6.383,0L38.945,5.1" transform="translate(-38.945 -2.043)" fill="none" stroke="#fff" stroke-linecap="round" stroke-linejoin="round" stroke-width="2.5"/>
          <line id="Line_94" data-name="Line 94" x1="5.433" y1="1.746" transform="translate(20.521 57.22)" fill="none" stroke="#fff" stroke-linecap="round" stroke-linejoin="round" stroke-width="2.5"/>
        </g>
        <line id="Line_95" data-name="Line 95" y1="5.666" x2="1.756" transform="translate(20.521 51.554)" fill="none" stroke="#fff" stroke-linecap="round" stroke-linejoin="round" stroke-width="2.5"/>
        <line id="Line_96" data-name="Line 96" y1="5.666" x2="1.756" transform="translate(20.521 51.554)" fill="none" stroke="#fff" stroke-linecap="round" stroke-linejoin="round" stroke-width="2.5"/>
      </g>
      <g id="Group_170826_1_" transform="translate(15.04 10.586)">
        <g id="Layer_19_1_" transform="translate(0 0)">
          <g id="Group_170600_1_">
            <path id="Path_95904_1_" d="M-3346.332-2220.314v22.733" transform="translate(3366.194 2220.314)" fill="none" stroke="#fff" stroke-linecap="round" stroke-width="2.5"/>
            <path id="Path_95905_1_" d="M-3356.824-2185.32l-19.5,11.261" transform="translate(3376.327 2208.49)" fill="none" stroke="#fff" stroke-linecap="round" stroke-width="2.5"/>
            <path id="Path_95906_1_" d="M-3346.332-2185.322l19.5,11.26" transform="translate(3366.194 2208.491)" fill="none" stroke="#fff" stroke-linecap="round" stroke-width="2.5"/>
          </g>
        </g>
      </g>
      <path id="Path_312" data-name="Path 312" d="M22.274,29.146" transform="translate(-5.837 -9.158)" fill="none" stroke="#fff" stroke-linecap="round" stroke-linejoin="round" stroke-width="2.5"/>
      <path id="Path_313" data-name="Path 313" d="M30.424,29.314" transform="translate(-8.59 -9.215)" fill="none" stroke="#fff" stroke-linecap="round" stroke-linejoin="round" stroke-width="2.5"/>
      <path id="Path_314" data-name="Path 314" d="M24.979,31.64" transform="translate(-6.751 -10.001)" fill="none" stroke="#fff" stroke-linecap="round" stroke-miterlimit="10" stroke-width="2.5"/>
      <path id="Line_294_1_" d="M27.462,55.8" transform="translate(-7.59 -18.163)" fill="none" stroke="#fff" stroke-linecap="round" stroke-linejoin="round" stroke-width="2.5"/>
      <g id="Group_199" data-name="Group 199" transform="translate(40.669 16.561)">
        <path id="Path_789_2_" d="M75.414,23.97l-2.489,2.48" transform="translate(-63.62 -23.97)" fill="rgba(0,0,0,0)" stroke="#fff" stroke-linecap="round" stroke-width="2.5"/>
        <path id="Path_788_2_" d="M62.377,23.97l2.671,2.662" transform="translate(-60.056 -23.97)" fill="rgba(0,0,0,0)" stroke="#fff" stroke-linecap="round" stroke-width="2.5"/>
        <path id="Path_786_1_" d="M68.091,27.932A2.617,2.617,0,0,1,70.9,30.807v1.747a.127.127,0,0,1-.114.14h-.019l-5.682-.012a.128.128,0,0,1-.134-.121.188.188,0,0,1,0-.019V30.812a2.632,2.632,0,0,1,2.811-2.88" transform="translate(-60.926 -25.309)" fill="rgba(0,0,0,0)" stroke="#fff" stroke-linecap="round" stroke-linejoin="round" stroke-width="2.5"/>
        <path id="Path_787_1_" d="M68.092,45.426c1.716,0,2.808-1.614,2.808-4.448v-2.7c0-.136-.053-.217-.133-.217l-5.682.018c-.08,0-.133.081-.133.217v2.676c0,2.821,1.105,4.457,2.811,4.457" transform="translate(-60.926 -28.73)" fill="rgba(0,0,0,0)" stroke="#fff" stroke-linecap="round" stroke-linejoin="round" stroke-width="2.5"/>
        <path id="Path_784_2_" d="M60.2,34.784a3,3,0,1,0,3.524,4.851c1.4-1.02,2-5.158,2-5.158S61.607,33.764,60.2,34.784Z" transform="translate(-58.871 -27.438)" fill="none" stroke="#fff" stroke-linecap="round" stroke-linejoin="round" stroke-width="2.5"/>
        <path id="Path_785_1_" d="M75.316,34.786a3,3,0,1,1-3.525,4.85c-1.4-1.021-2-5.16-2-5.16S73.911,33.765,75.316,34.786Z" transform="translate(-62.561 -27.438)" fill="none" stroke="#fff" stroke-linecap="round" stroke-linejoin="round" stroke-miterlimit="4.001" stroke-width="2.5"/>
      </g>
      <path id="Path_315" data-name="Path 315" d="M23.409,32.2l-6.7-3.421c-.823-.42-.829-.615-.24-1.3a2.057,2.057,0,0,1,2.4-.683c2.4.712,4.827,1.305,7.234,1.985a.989.989,0,0,0,1.145-.318c.7-.755,1.445-1.471,2.179-2.194a4.506,4.506,0,0,1,2.92-1.332c.652-.046.9.2.853.851a4.539,4.539,0,0,1-1.374,2.967c-.745.743-1.469,1.508-2.239,2.223a.854.854,0,0,0-.246.994c.693,2.491,1.358,4.99,2.032,7.486a2.1,2.1,0,0,1-1.1,2.546c-.475.249-.679-.083-.863-.448q-1.3-2.56-2.6-5.115c-.293-.575-.589-1.148-.918-1.788-1.215,1.085-2.378,2.109-3.518,3.159a.791.791,0,0,0-.159.562c.041.756.093,1.513.189,2.263a1.566,1.566,0,0,1-.55,1.462c-.444.4-.781.33-1-.242-.346-.9-.685-1.809-.994-2.725a1.231,1.231,0,0,0-.84-.85c-.916-.309-1.821-.65-2.723-1-.6-.23-.664-.572-.226-1.039a1.513,1.513,0,0,1,1.355-.52,6.089,6.089,0,0,1,.94.09,2.565,2.565,0,0,0,3.072-1.245,26.032,26.032,0,0,1,1.906-2.186A.79.79,0,0,0,23.409,32.2Z" transform="translate(-3.646 -7.736)" fill="#fff"/>
      <g id="Group_200" data-name="Group 200" transform="translate(5 6.502)">
        <path id="Path_316" data-name="Path 316" d="M21.542,11.579,8.813,18.567A7.428,7.428,0,0,0,5,25.09V48.947A7.429,7.429,0,0,0,8.813,55.47L31.6,67.981a6.632,6.632,0,0,0,6.383,0l4.076-2.243" transform="translate(-5 -9.724)" fill="none" stroke="#fff" stroke-linecap="round" stroke-linejoin="round" stroke-width="2.5"/>
        <path id="Path_317" data-name="Path 317" d="M21.264,8.777l5.773,1.855-1.914,6.176" transform="translate(-10.495 -8.777)" fill="none" stroke="#fff" stroke-linecap="round" stroke-linejoin="round" stroke-width="2.5"/>
      </g>
      <path id="Path_318" data-name="Path 318" d="M51.878,77.436H42.056L40.85,68.768H53.084Z" transform="translate(-12.113 -22.546)" fill="none" stroke="#fff" stroke-linecap="round" stroke-linejoin="round" stroke-miterlimit="10" stroke-width="2.5"/>
      <line id="Line_97" data-name="Line 97" x2="9.542" transform="translate(30.083 42.022)" fill="none" stroke="#fff" stroke-linecap="round" stroke-linejoin="round" stroke-miterlimit="10" stroke-width="2.5"/>
      <g id="_x2D_----------MODIFIER----------" transform="translate(19.872 36.971)">
        <path id="Line_294_7_" d="M27.462,54.8" transform="translate(-27.462 -54.796)" fill="none" stroke="#fff" stroke-linecap="round" stroke-linejoin="round" stroke-width="2.5"/>
      </g>
    </g>
  </g>
</svg>
