<svg xmlns="http://www.w3.org/2000/svg" width="65.788" height="69.998" viewBox="0 0 65.788 69.998">
  <g id="Group_683" data-name="Group 683" transform="translate(-6758 -19173.686)">
    <path id="Path_1238" data-name="Path 1238" d="M64.431,14.481,39.935,1.033a8.362,8.362,0,0,0-8.083,0L7.357,14.481A8.4,8.4,0,0,0,3,21.843v26.3A8.4,8.4,0,0,0,7.357,55.5l24.5,13.447a8.359,8.359,0,0,0,8.084,0L64.43,55.5a8.4,8.4,0,0,0,4.357-7.362v-26.3A8.4,8.4,0,0,0,64.431,14.481Zm1.557,33.657a5.6,5.6,0,0,1-2.9,4.908l-24.5,13.447a5.577,5.577,0,0,1-5.388,0L8.7,53.047A5.6,5.6,0,0,1,5.8,48.139v-26.3a5.6,5.6,0,0,1,2.9-4.908L33.2,3.488a5.573,5.573,0,0,1,5.389,0l24.5,13.447a5.6,5.6,0,0,1,2.9,4.907Z" transform="translate(6755 19173.693)"/>
    <circle id="Ellipse_355" data-name="Ellipse 355" cx="1.447" cy="1.447" r="1.447" transform="translate(6784.301 19193.404)"/>
    <circle id="Ellipse_356" data-name="Ellipse 356" cx="1.447" cy="1.447" r="1.447" transform="translate(6794.425 19193.404)"/>
    <path id="Path_1239" data-name="Path 1239" d="M62.278,52.6l-6.668-.048c.98-5.049-.349-9.127-2.825-11.662,4.1-2.928,6.423-6.351,6.888-10.2.774-6.364-3.972-11.638-4.168-11.848,0,0-5.251-6.128-15.965-6.128s-16.548,6.34-16.548,6.34c-.2.21-4.845,5.257-4.072,11.621C19.4,34.617,21.8,38.1,26.064,41.056c-2.7,2.954-3.333,7.516-2.607,11.5L16.81,52.51H16.8a1.446,1.446,0,0,0-.034,2.893l12.547.064A1.594,1.594,0,0,0,30.8,54.189L32.85,41.837l0-.013a1.452,1.452,0,0,0,.012-.356A9.581,9.581,0,0,1,34.3,43.5c1.092,1.822,2.452,4.086,5.279,4.086s4.224-2.365,5.178-4.115a7.983,7.983,0,0,1,1.5-2.116,1.45,1.45,0,0,0,.013.372l2.019,12.176c0,.011,0,.022,0,.033A1.447,1.447,0,0,0,49.711,55.4l12.568.064A1.342,1.342,0,0,0,63.684,53.8,1.446,1.446,0,0,0,62.278,52.6Zm-9.639-.323a1.473,1.473,0,0,0-.024.254l-1.589-.011L49.212,41.8C52.03,43.432,53.714,47.226,52.639,52.277Zm-13-37.255a19.851,19.851,0,0,1,13.841,6.02c.043.043,3.934,4.3,3.319,9.322-.374,3.222-2.561,6.148-6.47,8.7a9.205,9.205,0,0,0-1.97-.754,5.289,5.289,0,0,0-.943-.148,15,15,0,0,0,6.918-12.617,1.447,1.447,0,0,0-2.893,0c0,.326-.024.647-.049.967-.512-.4-.875-1.249-1.4-2.8-.709-2.068-1.591-4.643-4.433-5.25A53.023,53.023,0,0,0,39.6,18.04c-1.167.01-2.489.1-3.58.2V15.312A18.3,18.3,0,0,1,39.643,15.022ZM27.811,29.285c2.017-.949,2.752-3.109,3.376-4.894.831-2.43,1.314-3.259,2.536-3.215a41.087,41.087,0,0,1,5.872-.761,13.273,13.273,0,0,1,5.362.9c1.179.246,1.642,1.432,2.293,3.348.6,1.787,1.389,4.061,3.534,4.809a12.105,12.105,0,0,1-22.973-.182Zm-6.017,1.065c-.622-4.983,3.269-9.271,3.312-9.322a21.2,21.2,0,0,1,8.111-5v2.454c-3.117.2-4.087,2.951-4.77,5a9.135,9.135,0,0,1-1.2,2.653c-.009-.2-.029-.387-.029-.584a1.447,1.447,0,0,0-2.893,0A14.994,14.994,0,0,0,31.3,38.2a5.426,5.426,0,0,0-.565.111,9.94,9.94,0,0,0-2.289.88,1.5,1.5,0,0,0-.141-.113C24.39,36.518,22.191,33.582,21.794,30.349Zm4.525,21.8c-.979-5.145.74-8.913,3.624-10.457l-1.785,10.9-1.822-.013A1.405,1.405,0,0,0,26.319,52.146ZM42.347,42.029c-1.041,1.815-1.584,2.669-2.719,2.669s-1.8-1.02-2.8-2.683a16.515,16.515,0,0,0-1.321-1.974,14.727,14.727,0,0,0,8.251-.157A14.71,14.71,0,0,0,42.347,42.029Z" transform="translate(6751.298 19169.875)"/>
    <path id="Path_1240" data-name="Path 1240" d="M53.158,39.025c.237-.234.216-.49.181-.929a1.883,1.883,0,0,0-1.433-1.843c-.925-.208-1.536.359-2,1.3-.828,1.661-1.322,1.6-2.433.673-.556-.465-.831-1.053-1.786.03-1.256,1.424,1.754,2.713,3.833,2.711A5.145,5.145,0,0,0,53.158,39.025Z" transform="translate(6742.278 19162.824)"/>
    <path id="Path_1241" data-name="Path 1241" d="M53.207,73.077H51.969a2.969,2.969,0,0,0,.206-1.242,4,4,0,0,0-1.123-2.3c-.1-.125-.248-.3-.33-.418a3.861,3.861,0,0,1,.871-.869,1.4,1.4,0,0,0-1.627-2.279c-.489.349-2.084,1.6-2.084,3.161a3.453,3.453,0,0,0,1.019,2.2,3,3,0,0,1,.48.673,2.828,2.828,0,0,1-.742,1.079H47.244a2.969,2.969,0,0,0,.206-1.242,4,4,0,0,0-1.123-2.3c-.1-.125-.248-.3-.33-.418a3.861,3.861,0,0,1,.871-.869,1.4,1.4,0,0,0-1.627-2.279c-.489.349-2.084,1.6-2.084,3.161a3.453,3.453,0,0,0,1.019,2.2,3,3,0,0,1,.48.673,2.828,2.828,0,0,1-.742,1.079H42.523a2.991,2.991,0,0,0,.2-1.242,3.992,3.992,0,0,0-1.123-2.3c-.1-.125-.248-.3-.33-.418a3.856,3.856,0,0,1,.871-.869,1.4,1.4,0,0,0-1.627-2.279c-.489.349-2.084,1.6-2.084,3.161a3.45,3.45,0,0,0,1.02,2.2,2.977,2.977,0,0,1,.479.673,2.827,2.827,0,0,1-.742,1.078H37.3a2.134,2.134,0,0,0-2.111,2.053l0,.031,0,.185c.1,3.571,1.939,7.8,10.074,7.833,8.124-.039,9.957-4.273,10.056-7.835l.008-.1-.008-.063A2.136,2.136,0,0,0,53.207,73.077Zm-7.946,7.3c-5.816-.026-7.026-2.435-7.237-4.5H52.481C52.262,77.958,51.049,80.352,45.261,80.38Z" transform="translate(6745.341 19153.971)"/>
  </g>
</svg>
