<svg xmlns="http://www.w3.org/2000/svg" width="65.729" height="69.998" viewBox="0 0 65.729 69.998">
  <g id="Group_681" data-name="Group 681" transform="translate(-7064.636 -19173.686)">
    <path id="Path_1204" data-name="Path 1204" d="M64.389,14.49,39.889,1.05a8.239,8.239,0,0,0-8.05,0L7.34,14.49A8.394,8.394,0,0,0,3,21.84v26.32a8.394,8.394,0,0,0,4.34,7.35l18.266,10.02.034.019,6.2,3.4A8.358,8.358,0,0,0,35.9,70a7.905,7.905,0,0,0,3.99-1.05l24.5-13.44a8.394,8.394,0,0,0,4.34-7.35V21.84A8.394,8.394,0,0,0,64.389,14.49ZM66,21.84v6.439c-.014.029-.032.053-.043.083A8.621,8.621,0,0,1,63.878,29.8l-9.361,5.486a.753.753,0,0,1-.886-.135.6.6,0,0,1,.17-.826h0L56.1,33a1.381,1.381,0,0,0,.323-.267l2.491-1.438a1.4,1.4,0,1,0-1.4-2.425l-4.3,2.485c-.121.07-.988.651-1.054.689l-1.7.981-.364.21-.545.315a.436.436,0,0,1-.408-.007.592.592,0,0,1-.331-.294.692.692,0,0,1,.326-.835L56.8,27.905a1.4,1.4,0,1,0-1.4-2.425l-4.785,2.813a1.4,1.4,0,0,0-.307.127l-4.3,2.485a.6.6,0,0,1-.8-.266.692.692,0,0,1,.326-.835l1.759-1.031c.02-.008.041-.011.059-.019l.3-.175,2.493-1.48,4.625-2.711a1.4,1.4,0,1,0-1.4-2.425l-1.986,1.164a1.385,1.385,0,0,0-.136.061l-2.571,1.525-2.546,1.492a.621.621,0,0,1-.741-.283.754.754,0,0,1,.326-.835l7.127-4.034a1.337,1.337,0,0,0,.134-.1c.416-.1.911-.222,1.47-.344,2.153,1.909,5.488,2.085,5.992,2.118a1.472,1.472,0,0,0,1.452-1.4,1.437,1.437,0,0,0-1.344-1.487c-.912-.039-3.475-.419-4.557-1.734a1.482,1.482,0,0,0-1.373-.419c-2.012.435-3.556.841-3.677.911s-.182.1-.277.079a.836.836,0,0,1-.618-.37,18.3,18.3,0,0,1,2.463-.775c.772-.2,1.6-.441,2.22-.635l1.2-.448A11.143,11.143,0,0,1,58.8,15.68a.243.243,0,0,0,.156-.009,16.893,16.893,0,0,1,1.913.064l2.191,1.2A5.575,5.575,0,0,1,66,21.84ZM33.17,3.5a5.661,5.661,0,0,1,2.73-.7,5.22,5.22,0,0,1,2.66.7l17.9,9.817c-.465.146-.941.316-1.469.524l-1.2.448a16.687,16.687,0,0,1-2,.591c-2.749.7-4.691,1.254-4.719,2.886a3.614,3.614,0,0,0,1.131,2.7l-3.879,2.2a3.429,3.429,0,0,0-.922,5.3,3.479,3.479,0,0,0-1.035,2.418,6.713,6.713,0,0,0-13.116.921,3.484,3.484,0,0,0-.532-2.624,2.806,2.806,0,0,0,.358-.36,3.467,3.467,0,0,0-.82-4.78c-.036-.063-.073-.085-.2-.146a3.494,3.494,0,0,0,.722-1.046,3.409,3.409,0,0,0-1.487-4.4L18.037,12.7l-.131-.086c-.22-.127-.446-.252-.673-.374ZM35.9,39.479c-2.38-3.29-3.92-6.09-3.92-7.28a3.92,3.92,0,1,1,7.84,0C39.819,33.39,38.28,36.259,35.9,39.479ZM8.67,16.94l5.407-2.967c.028,0,.056,0,.085,0a6.234,6.234,0,0,1,2.323,1.084L25.9,20.447a.581.581,0,0,1,.3.8.866.866,0,0,1-.354.366.606.606,0,0,1-.469.028c-.1-.026-.809-.422-.905-.447l-4.353-2.5a1.438,1.438,0,0,0-1.882.521,1.357,1.357,0,0,0,.521,1.882l2.33,1.338a1.38,1.38,0,0,0,.474.439l4.222,2.412a3.711,3.711,0,0,0,.357.2,6.583,6.583,0,0,1,.583.31.567.567,0,0,1,.143.807.6.6,0,0,1-.688.2L23.4,25.209a1.313,1.313,0,0,0-.276-.122l-4.885-2.8a1.38,1.38,0,0,0-1.361,2.4l4.914,2.745a1.392,1.392,0,0,0,.248.175l4.257,2.473a.589.589,0,0,1,.143.807.739.739,0,0,1-.9.117L16.248,25.7a1.38,1.38,0,0,0-1.361,2.4l1.83,1.046a1.4,1.4,0,0,0,.251.178l2.559,1.428,2.626,1.5a1.482,1.482,0,0,1,.185.356.465.465,0,0,1-.067.443.674.674,0,0,1-.867.178l-7.025-4.188a1.362,1.362,0,0,0-.217-.113c-.306-.311-.664-.684-1.047-1.1a10.508,10.508,0,0,0-1.156-6.2,1.4,1.4,0,1,0-2.495,1.278c.394.823,1.351,3.181.759,4.815a1.383,1.383,0,0,0,.276,1.457,37.9,37.9,0,0,0,2.643,2.758c.1.026.166.147.2.207a.734.734,0,0,1,.012.72c-.592-.466-1.36-1.235-1.927-1.8s-1.134-1.123-1.63-1.564a13.112,13.112,0,0,0-.994-.881,11.787,11.787,0,0,1-2.1-2.1l-.07-.121A9.6,9.6,0,0,1,5.8,24.859V21.84A5.51,5.51,0,0,1,8.67,16.94ZM5.8,48.159v-18.4c.36.338.748.676,1.187,1.042.3.233.627.527.959.82.4.415.933.916,1.5,1.478,1.63,1.564,2.869,2.87,4.059,2.83a1.335,1.335,0,0,0,.858-.334,3.434,3.434,0,0,0,1.726-2.289l3.856,2.3a2.9,2.9,0,0,0,1.756.521,3.074,3.074,0,0,0,2.677-1.384,3.165,3.165,0,0,0,.491-.988,2.6,2.6,0,0,0,1.059.174A3.419,3.419,0,0,0,28.7,32.573a3.337,3.337,0,0,0,.537-1.214,6.657,6.657,0,0,0-.059.841c0,2.73,3.36,7.42,5.32,10.01a1.5,1.5,0,0,0,.482.433,3.588,3.588,0,0,0-1.093.595,3.2,3.2,0,0,0-.873,1.135,3.663,3.663,0,0,0-.764-.19,3.487,3.487,0,0,0-2.463.775,3.365,3.365,0,0,0-1.24,2.332,1.1,1.1,0,0,0-.03.349,4.1,4.1,0,0,0-1.114-.092,3.461,3.461,0,0,0-3.084,3.478l.073,10.627c0,.008,0,.022,0,.031L8.67,53.059A5.65,5.65,0,0,1,5.8,48.159ZM38.56,66.5a5.662,5.662,0,0,1-5.39,0L27.229,63.24c-.052-.293-.024-.732-.046-1.1a3.107,3.107,0,0,1,0-.564l-.073-10.627a.7.7,0,0,1,.587-.662.553.553,0,0,1,.478.128q.144.039.21.364a3.608,3.608,0,0,1,.091,1L28.46,56.8a1.388,1.388,0,0,0,1.369,1.392,1.33,1.33,0,0,0,1.392-1.369l.007-2.936a1.522,1.522,0,0,0,.073-.425l.022-4.862a.99.99,0,0,0,.007-.408,4.259,4.259,0,0,1-.038-.625.638.638,0,0,1,.2-.357c.061-.035.207-.2.4-.149a.653.653,0,0,1,.576.718l.066,8.934A1.317,1.317,0,0,0,33.9,58.1a1.54,1.54,0,0,0,1.443-1.56l-.02-5.561a1.482,1.482,0,0,0,.02-.178l-.013-4.923a.609.609,0,0,1,.224-.452c.061-.035.207-.2.4-.149a.653.653,0,0,1,.576.718l.048,10.722a1.317,1.317,0,0,0,1.369,1.392,1.638,1.638,0,0,0,1.513-1.439L39.42,48.05a.484.484,0,0,1,.138-.166c.061-.035.207-.2.4-.149a.664.664,0,0,1,.576.718L40.4,56.615a1.541,1.541,0,0,0,.051.4c-.109.376-.238.8-.391,1.253a10.5,10.5,0,0,0-4.836,4.085A1.409,1.409,0,1,0,37.571,63.9c.457-.749,2.124-2.761,3.8-3.082a1.286,1.286,0,0,0,1.072-.942c.367-1.249.677-2.361.86-3.026.016-.055.035-.108.046-.164v-.006c.073-.267.12-.444.128-.472.026-.1.086-.131.112-.226a.992.992,0,0,1,.51-.376.069.069,0,0,0,.1.026,21.557,21.557,0,0,1-.57,2.512c-.205.765-.435,1.625-.554,2.26a12.168,12.168,0,0,1-.237,1.268,11.772,11.772,0,0,1-.769,2.869c-.008.014-.01.029-.018.042Zm24.5-13.44L45.65,62.61c.023-.141.047-.271.071-.419a12.168,12.168,0,0,0,.237-1.268c.119-.634.3-1.3.5-2.068.682-2.738,1.195-4.651-.207-5.538a3.834,3.834,0,0,0-2.754-.43c-.029.007-.055.02-.085.028l.073-4.386a3.436,3.436,0,0,0-3.063-3.485,3.4,3.4,0,0,0-1.1.076A3.426,3.426,0,0,0,36.9,42.586a2.1,2.1,0,0,0,.4-.377c2.03-2.59,5.32-7.28,5.32-10.01,0-.187-.013-.371-.028-.554.02.051.028.1.05.153a3.61,3.61,0,0,0,1.927,1.8,3.325,3.325,0,0,0,1.173.212,2.905,2.905,0,0,0,.312,0,3.484,3.484,0,0,0,.194.6,3.364,3.364,0,0,0,3.1,2.009,4.1,4.1,0,0,0,1.422-.337.447.447,0,0,0,.2-.058,3.585,3.585,0,0,0,.409.837,3.519,3.519,0,0,0,2.75,1.4,2.731,2.731,0,0,0,1.847-.581l9.18-5.381.121-.07q.365-.211.721-.429V48.159A5.573,5.573,0,0,1,63.059,53.059Z" transform="translate(7061.636 19173.686)" fill="#231f20"/>
    <path id="Path_1205" data-name="Path 1205" d="M49.35,43.2h-.07a1.658,1.658,0,0,0-1.68,1.68,1.7,1.7,0,0,0,1.68,1.68,1.816,1.816,0,0,0,1.75-1.68A1.7,1.7,0,0,0,49.35,43.2Z" transform="translate(7048.255 19160.725)" fill="#231f20"/>
  </g>
</svg>
