<svg xmlns="http://www.w3.org/2000/svg" width="82.645" height="88.014" viewBox="0 0 82.645 88.014">
  <g id="Group_4847" data-name="Group 4847" transform="translate(19370 19471)">
    <g id="LOCAL-AmoolyaKumar" transform="translate(-19370 -19471)">
      <g id="Default_1_" transform="translate(0)">
        <path id="Path_16890" data-name="Path 16890" d="M44.366,88.013a10.508,10.508,0,0,1-5.1-1.32l-30.8-16.9A10.554,10.554,0,0,1,3,60.553V27.46a10.554,10.554,0,0,1,5.457-9.241l30.8-16.9a10.36,10.36,0,0,1,10.122,0l30.8,16.9a10.554,10.554,0,0,1,5.457,9.241V60.553a10.554,10.554,0,0,1-5.457,9.241l-30.8,16.9A9.94,9.94,0,0,1,44.366,88.013Zm0-84.493a7.118,7.118,0,0,0-3.433.88l-30.8,16.9A6.928,6.928,0,0,0,6.521,27.46V60.553a7.1,7.1,0,0,0,3.609,6.161l30.8,16.9a7.119,7.119,0,0,0,6.777,0l30.8-16.9a7.009,7.009,0,0,0,3.7-6.161V27.46a7.009,7.009,0,0,0-3.7-6.161L47.711,4.4A6.563,6.563,0,0,0,44.366,3.521Z" transform="translate(-3)" fill="#f5964e"/>
      </g>
      <g id="Group_360" data-name="Group 360" transform="translate(0.93 16.546)">
        <g id="Group_357" data-name="Group 357" transform="translate(57.125 37.196)">
          <path id="Path_16891" data-name="Path 16891" d="M71,63c8.185,2.024,12.322,4.4,17.6,8.713" transform="translate(-69.206 -61.294)" fill="#f5964e"/>
          <path id="Path_16892" data-name="Path 16892" d="M88.358,73.241a1.936,1.936,0,0,1-1.144-.352c-5.017-4.049-8.8-6.337-16.9-8.361a1.761,1.761,0,1,1,.792-3.433,40.684,40.684,0,0,1,18.307,9.065,1.721,1.721,0,0,1-1.056,3.08Z" transform="translate(-68.962 -61.062)" fill="#f5964e"/>
        </g>
        <g id="Group_358" data-name="Group 358" transform="translate(0 37.196)">
          <path id="Path_16893" data-name="Path 16893" d="M6,71.8c6.161-4.4,11.09-6.777,20.243-8.8" transform="translate(-4.29 -61.294)" fill="#f5964e"/>
          <path id="Path_16894" data-name="Path 16894" d="M5.767,73.329a1.837,1.837,0,0,1-1.408-.7,1.819,1.819,0,0,1,.44-2.464c6.777-4.841,12.058-7.129,20.859-9.065a1.761,1.761,0,1,1,.792,3.433c-9.417,2.024-13.994,4.4-19.627,8.449A1.691,1.691,0,0,1,5.767,73.329Z" transform="translate(-4.057 -61.062)" fill="#f5964e"/>
        </g>
        <path id="Path_16895" data-name="Path 16895" d="M47,73.72a1.738,1.738,0,0,1-1.232-.528C44.891,72.312,25,52.6,25,40.8a22,22,0,0,1,44.007,0c0,11.794-19.891,31.509-20.771,32.389A1.738,1.738,0,0,1,47,73.72Zm0-51.4A18.48,18.48,0,0,0,28.521,40.8c0,8.009,12.322,22.355,18.483,28.6,6.161-6.337,18.483-20.683,18.483-28.6A18.48,18.48,0,0,0,47,22.321Z" transform="translate(-6.567 -18.8)" fill="#f5964e"/>
        <g id="Apple_1_" transform="translate(28.994 8.337)">
          <path id="Path_16896" data-name="Path 16896" d="M46.241,59.113c-3.7,0-7.305-4.489-8.625-9.065h0c-.088-.176-.088-.352-.176-.528A11.037,11.037,0,0,1,37,46.791c0-3.785,2.464-8.273,6.073-8.713a12.752,12.752,0,0,1,5.369.88c.968-.528,3.961-1.408,5.721-.88,3.521,1.056,5.721,5.369,5.721,8.713a12.515,12.515,0,0,1-.44,3.168c-.528,2.64-3.7,9.417-7.657,9.153a5.6,5.6,0,0,1-1.848-.616c-.352-.176-.44-.264-.7-.264a.888.888,0,0,0-.7.264,4.557,4.557,0,0,1-1.584.616Zm-2.376-17.6h-.352c-1.32.176-2.992,2.728-2.992,5.281a6.926,6.926,0,0,0,.352,1.76,5.611,5.611,0,0,1,.176.616h0C42.1,53.04,45.1,55.944,46.417,55.68c.088,0,.176-.088.44-.176a5.22,5.22,0,0,1,2.552-.7,4.2,4.2,0,0,1,2.376.7c.176.088.264.176.352.176.968-.176,3.433-3.873,3.961-6.337a11.886,11.886,0,0,0,.352-2.464c0-2.024-1.408-4.753-3.256-5.281a7.3,7.3,0,0,0-2.992.616,3.257,3.257,0,0,1-3.345,0A6.807,6.807,0,0,0,43.865,41.51Z" transform="translate(-37 -29.429)" fill="#f5964e"/>
          <g id="Group_359" data-name="Group 359" transform="translate(5.186)">
            <path id="Path_16897" data-name="Path 16897" d="M49.4,35.145c5.809.528,5.545-4.665,5.545-4.665h0S49.4,28.544,49.4,38.842h0c-.088-1.32-.176-5.721-4.4-5.9" transform="translate(-43.145 -28.52)" fill="#f5964e"/>
            <path id="Path_16898" data-name="Path 16898" d="M49.06,40.355a1.747,1.747,0,0,1-1.76-1.672v-.088c-.176-2.816-.968-4.049-2.728-4.137A1.714,1.714,0,0,1,42.9,32.609a1.667,1.667,0,0,1,1.848-1.672,5.611,5.611,0,0,1,3.609,1.232,5.829,5.829,0,0,1,2.2-2.9,5.37,5.37,0,0,1,4.577-.792,1.691,1.691,0,0,1,1.232,1.584,7.044,7.044,0,0,1-1.848,4.929,6.54,6.54,0,0,1-3.7,1.672,13.627,13.627,0,0,0-.088,1.936,1.593,1.593,0,0,1-1.672,1.76Z" transform="translate(-42.892 -28.273)" fill="#f5964e"/>
          </g>
        </g>
      </g>
    </g>
  </g>
</svg>
