<svg xmlns="http://www.w3.org/2000/svg" width="82.823" height="88.027" viewBox="0 0 82.823 88.027">
  <g id="Group_380" data-name="Group 380" transform="translate(-1154 -673)">
    <path id="MARKETPLACE" d="M85.474,26.3a1.761,1.761,0,0,0-2.457-.394L71.5,34.241a6.067,6.067,0,0,1-3.447,1.069H56.459A2.407,2.407,0,0,1,54.052,32.9v-.134a2.41,2.41,0,0,1,2.406-2.4H64a1.76,1.76,0,0,0,0-3.521h-9.12a5.66,5.66,0,0,0-2.988.852L40.049,35.048l-.007,0a2.147,2.147,0,0,1-3.029-1.6,2.143,2.143,0,0,1,.761-2L55.4,19.664a6.038,6.038,0,0,1,3.351-1.011H74.038a1.756,1.756,0,0,0,1.75-1.66.015.015,0,0,1,0-.006c0-.032.01-.062.01-.094s-.007-.056-.009-.085a1.752,1.752,0,0,0-.9-1.539L49.446,1.3a10.516,10.516,0,0,0-10.165,0L8.476,18.212A10.562,10.562,0,0,0,3,27.471V59.565a1.756,1.756,0,0,0,1.741,2.01c.032,0,.062-.013.094-.015A1.778,1.778,0,0,0,5.21,61.5l.109-.033a1.733,1.733,0,0,0,.5-.264L17.286,52.91a6.055,6.055,0,0,1,3.446-1.069H32.326a2.407,2.407,0,0,1,2.407,2.417v.128a2.412,2.412,0,0,1-2.407,2.4H24.789a1.76,1.76,0,0,0,0,3.521h9.119a5.658,5.658,0,0,0,2.988-.852L48.735,52.1l0,0a2.144,2.144,0,0,1,3.031,1.6,2.143,2.143,0,0,1-.761,2L33.387,67.488a6.042,6.042,0,0,1-3.351,1.01h-16.9a1.754,1.754,0,0,0-1.742,1.581c0,.03-.007.06-.009.09s-.009.059-.009.09.007.053.008.079a1.753,1.753,0,0,0,.9,1.509l27,14.862a10.512,10.512,0,0,0,10.166,0L80.251,69.8A10.561,10.561,0,0,0,85.73,60.54V27.83A1.754,1.754,0,0,0,85.474,26.3ZM78.556,66.712l-30.8,16.911a7.005,7.005,0,0,1-6.774,0L19.9,72.019h10.14a9.549,9.549,0,0,0,5.3-1.6L53.026,58.591c.035-.023.069-.048.1-.073a5.666,5.666,0,0,0-6.157-9.467,1.715,1.715,0,0,0-.222.141l-8.5,5.276c0-.023,0-.046,0-.07v-.129a5.927,5.927,0,0,0-5.928-5.95H20.731a9.589,9.589,0,0,0-5.474,1.713l-8.739,6.32V27.471A7.041,7.041,0,0,1,10.171,21.3l30.8-16.911a7.008,7.008,0,0,1,6.777,0l19.57,10.744H58.748a9.553,9.553,0,0,0-5.3,1.6L35.758,28.561q-.053.034-.1.074A5.667,5.667,0,0,0,38.1,38.682a5.881,5.881,0,0,0,1.039.093,5.624,5.624,0,0,0,2.672-.673,1.677,1.677,0,0,0,.228-.146l8.5-5.273c0,.021,0,.042,0,.064v.133a5.927,5.927,0,0,0,5.927,5.951H68.052a9.607,9.607,0,0,0,5.476-1.712l8.681-6.28v29.7A7.038,7.038,0,0,1,78.556,66.712Z" transform="translate(1151.021 673.008)" fill="#eec04e"/>
  </g>
</svg>
