<svg xmlns="http://www.w3.org/2000/svg" width="47.566" height="50.61" viewBox="0 0 47.566 50.61">
  <g id="Group_647" data-name="Group 647" transform="translate(-18377.443 -11176.81)">
    <g id="Icons_Increase_Resilience" data-name="Icons_Increase Resilience" transform="translate(18377.443 11177.477)" opacity="0.94">
      <path id="Path_5" data-name="Path 5" d="M75.135,46.464V26.917a5.2,5.2,0,0,0-2.7-4.561l-18.209-10a5.2,5.2,0,0,0-5.007,0l-18.21,10a5.2,5.2,0,0,0-2.7,4.561V46.464a5.2,5.2,0,0,0,2.7,4.559l18.21,10a5.2,5.2,0,0,0,5.007,0l18.21-10a5.2,5.2,0,0,0,2.7-4.559Z" transform="translate(-28.31 -11.718)" fill="#3e89ff"/>
      <path id="Path_382" data-name="Path 382" d="M0,25.891" transform="translate(23.454 -2.84)" fill="none"/>
      <path id="Path_9" data-name="Path 9" d="M363.2,409.538" transform="translate(-330.636 -372.068)" fill="#bfbfbf"/>
    </g>
    <g id="Layer_21" transform="translate(18377.443 11176.81)">
      <g id="Group_361" data-name="Group 361" transform="translate(0 0)">
        <path id="Path_1136" data-name="Path 1136" d="M47.416,10.468,29.7.745a6.046,6.046,0,0,0-5.844,0L6.15,10.468A6.071,6.071,0,0,0,3,15.791V34.8a6.071,6.071,0,0,0,3.15,5.323l17.711,9.723a6.044,6.044,0,0,0,5.844,0l17.71-9.723a6.071,6.071,0,0,0,3.15-5.323V15.791A6.072,6.072,0,0,0,47.416,10.468ZM48.542,34.8a4.048,4.048,0,0,1-2.1,3.549L28.731,48.074a4.032,4.032,0,0,1-3.9,0L7.125,38.352a4.046,4.046,0,0,1-2.1-3.549V15.791a4.048,4.048,0,0,1,2.1-3.549L24.835,2.52a4.03,4.03,0,0,1,3.9,0l17.711,9.723a4.047,4.047,0,0,1,2.1,3.548Z" transform="translate(-3 0.008)" fill="#fcfcfc"/>
        <ellipse id="Ellipse_338" data-name="Ellipse 338" cx="1.046" cy="1.046" rx="1.046" ry="1.046" transform="translate(19.016 14.258)" fill="#fcfcfc"/>
        <ellipse id="Ellipse_339" data-name="Ellipse 339" cx="1.046" cy="1.046" rx="1.046" ry="1.046" transform="translate(26.336 14.258)" fill="#fcfcfc"/>
        <path id="Path_1137" data-name="Path 1137" d="M49.276,41.552l-4.821-.034c.708-3.65-.252-6.6-2.042-8.432,2.966-2.117,4.644-4.592,4.98-7.376.56-4.6-2.872-8.415-3.013-8.566,0,0-3.8-4.431-11.543-4.431A16.942,16.942,0,0,0,20.872,17.3c-.141.152-3.5,3.8-2.944,8.4.343,2.85,2.079,5.37,5.164,7.506-1.951,2.136-2.41,5.434-1.885,8.316L16.4,41.487h-.009a1.046,1.046,0,0,0-.025,2.091l9.071.046a1.152,1.152,0,0,0,1.079-.923L28,33.77l0-.009a1.05,1.05,0,0,0,.009-.258,6.927,6.927,0,0,1,1.036,1.472c.789,1.318,1.773,2.954,3.817,2.954s3.054-1.71,3.744-2.975a5.772,5.772,0,0,1,1.083-1.53,1.049,1.049,0,0,0,.009.269l1.46,8.8c0,.008,0,.016,0,.024a1.046,1.046,0,0,0,1.033,1.058l9.087.046a.97.97,0,0,0,1.016-1.206A1.045,1.045,0,0,0,49.276,41.552Zm-6.969-.234a1.065,1.065,0,0,0-.018.184l-1.149-.008-1.311-7.749C41.865,34.924,43.083,37.667,42.306,41.318Zm-9.4-26.936a14.353,14.353,0,0,1,10.008,4.353c.031.031,2.844,3.111,2.4,6.74-.271,2.329-1.852,4.445-4.678,6.292a6.655,6.655,0,0,0-1.424-.545,3.825,3.825,0,0,0-.682-.107,10.848,10.848,0,0,0,5-9.122,1.046,1.046,0,0,0-2.092,0c0,.236-.017.468-.035.7a4.505,4.505,0,0,1-1.016-2.022c-.513-1.5-1.15-3.357-3.205-3.8a38.335,38.335,0,0,0-4.31-.31c-.844.008-1.8.074-2.588.143V14.592A13.233,13.233,0,0,1,32.909,14.382ZM24.355,24.694c1.458-.686,1.99-2.248,2.441-3.539.6-1.757.95-2.356,1.834-2.325a29.706,29.706,0,0,1,4.245-.551,9.6,9.6,0,0,1,3.877.648c.852.178,1.187,1.035,1.658,2.421.435,1.292,1,2.936,2.555,3.477a8.752,8.752,0,0,1-16.61-.132ZM20,25.464c-.45-3.6,2.364-6.7,2.395-6.74a15.33,15.33,0,0,1,5.864-3.617v1.774c-2.253.145-2.955,2.133-3.449,3.615a6.6,6.6,0,0,1-.867,1.918c-.007-.141-.021-.28-.021-.423a1.046,1.046,0,0,0-2.092,0,10.841,10.841,0,0,0,5.041,9.148,3.924,3.924,0,0,0-.408.08,7.186,7.186,0,0,0-1.655.636,1.081,1.081,0,0,0-.1-.082C21.881,29.925,20.292,27.8,20,25.464Zm3.272,15.76c-.708-3.72.535-6.444,2.62-7.561l-1.29,7.883-1.317-.01A1.017,1.017,0,0,0,23.276,41.224Zm11.588-7.315c-.753,1.313-1.145,1.929-1.966,1.929s-1.3-.737-2.024-1.94a11.939,11.939,0,0,0-.955-1.427,10.648,10.648,0,0,0,5.966-.114A10.634,10.634,0,0,0,34.865,33.909Z" transform="translate(-9.093 -6.276)" fill="#fcfcfc"/>
        <path id="Path_1138" data-name="Path 1138" d="M51.006,38.245c.172-.17.156-.354.131-.672A1.361,1.361,0,0,0,50.1,36.241c-.669-.15-1.111.26-1.449.938-.6,1.2-.956,1.158-1.759.486-.4-.336-.6-.761-1.291.022-.908,1.03,1.268,1.961,2.771,1.96A3.72,3.72,0,0,0,51.006,38.245Z" transform="translate(-23.939 -17.883)" fill="#fcfcfc"/>
        <path id="Path_1139" data-name="Path 1139" d="M48.215,71.036h-.9a2.147,2.147,0,0,0,.149-.9,2.892,2.892,0,0,0-.812-1.664c-.075-.09-.179-.215-.239-.3a2.791,2.791,0,0,1,.63-.628A1.012,1.012,0,0,0,45.872,65.9a3.3,3.3,0,0,0-1.507,2.286A2.5,2.5,0,0,0,45.1,69.77a2.168,2.168,0,0,1,.347.486,2.044,2.044,0,0,1-.536.78H43.9a2.147,2.147,0,0,0,.149-.9,2.892,2.892,0,0,0-.812-1.664c-.075-.09-.179-.215-.239-.3a2.792,2.792,0,0,1,.63-.628A1.012,1.012,0,0,0,42.455,65.9a3.3,3.3,0,0,0-1.507,2.286,2.5,2.5,0,0,0,.737,1.588,2.169,2.169,0,0,1,.347.486,2.044,2.044,0,0,1-.536.78H40.49a2.163,2.163,0,0,0,.144-.9,2.886,2.886,0,0,0-.812-1.664c-.075-.09-.179-.215-.238-.3a2.788,2.788,0,0,1,.629-.628A1.012,1.012,0,0,0,39.038,65.9a3.3,3.3,0,0,0-1.507,2.286,2.494,2.494,0,0,0,.737,1.588,2.153,2.153,0,0,1,.347.487,2.044,2.044,0,0,1-.536.78H36.713a1.543,1.543,0,0,0-1.526,1.485l0,.023,0,.134c.073,2.582,1.4,5.638,7.284,5.663,5.874-.028,7.2-3.089,7.271-5.665l.006-.074-.006-.046A1.545,1.545,0,0,0,48.215,71.036Zm-5.745,5.28c-4.2-.019-5.08-1.76-5.233-3.256H47.69C47.532,74.565,46.654,76.3,42.47,76.317Z" transform="translate(-18.898 -32.455)" fill="#fcfcfc"/>
      </g>
    </g>
  </g>
</svg>
