<svg xmlns="http://www.w3.org/2000/svg" width="65.729" height="69.999" viewBox="0 0 65.729 69.999">
  <g id="Group_651" data-name="Group 651" transform="translate(1618.864 -2148.686)">
    <path id="Path_1206" data-name="Path 1206" d="M35.9,70a8.358,8.358,0,0,1-4.06-1.05L7.34,55.509A8.394,8.394,0,0,1,3,48.159V21.84a8.394,8.394,0,0,1,4.34-7.35L31.84,1.05a8.239,8.239,0,0,1,8.05,0l24.5,13.44a8.394,8.394,0,0,1,4.34,7.35v26.32a8.394,8.394,0,0,1-4.34,7.35l-24.5,13.44A7.905,7.905,0,0,1,35.9,70Zm0-67.2a5.661,5.661,0,0,0-2.73.7L8.67,16.94a5.51,5.51,0,0,0-2.87,4.9v26.32a5.65,5.65,0,0,0,2.87,4.9L33.17,66.5a5.662,5.662,0,0,0,5.39,0l24.5-13.44a5.51,5.51,0,0,0,2.87-4.9V21.84a5.575,5.575,0,0,0-2.94-4.9L38.56,3.5A5.22,5.22,0,0,0,35.9,2.8Z" transform="translate(-1621.864 2148.686)"/>
    <path id="Path_1207" data-name="Path 1207" d="M69.91,65.31c-.77,4.55-6.72,4.55-7,4.55L50.1,69.65a1.4,1.4,0,1,0,0,2.8l12.81.21c3.01.07,8.89-1.33,9.8-6.86a1.422,1.422,0,0,0-2.8-.49Z" transform="translate(-1635.575 2129.435)"/>
    <path id="Path_1208" data-name="Path 1208" d="M69.91,78.97,66.2,78.9a1.4,1.4,0,0,0,0,2.8l3.71.07a1.4,1.4,0,0,0,0-2.8Z" transform="translate(-1640.405 2125.015)"/>
    <path id="Path_1209" data-name="Path 1209" d="M67.379,56.862c-2.59-.21-4.13-.77-7.84-3.85l-.56-.49a8.139,8.139,0,0,0-6.16-1.75,7.5,7.5,0,0,0-5.18,3.57,1.265,1.265,0,0,0,.07,1.47,1.2,1.2,0,0,0,1.4.35c1.54-.56,2.45-.14,2.73.21.21.42-.14.98-.56,1.33-2.52,2.38-13.23,1.54-19.46.49a.631.631,0,0,0-.35-.07c-.84-.14-1.54-.28-2.17-.42-2.8-.63-7-1.19-11.13-1.75a113.027,113.027,0,0,1-11.9-1.96l-.07,2.59c2.73.7,7.07,1.26,11.62,1.89,3.43.42,6.93.91,9.52,1.4a7.984,7.984,0,0,0-2.45,2.38,2.83,2.83,0,0,0-.28,2.73c.49,1.12,1.75,1.68,2.87,2.17a3.683,3.683,0,0,1,1.4.77,3.393,3.393,0,0,1,.84,1.89l.07.35c1.19,5.39,5.18,6.37,8.96,6.58a33.994,33.994,0,0,0,3.64.07c2.1-.07,2.52-.07,3.5,1.47l2.17-1.19c-1.82-2.8-3.08-2.87-5.74-2.8a30.083,30.083,0,0,1-3.43-.07c-4.2-.28-5.95-1.54-6.65-4.69l-.07-.35a5.876,5.876,0,0,0-1.47-3.15,7.362,7.362,0,0,0-2.17-1.26,4.876,4.876,0,0,1-1.61-.91.691.691,0,0,1,.14-.42A9.6,9.6,0,0,1,31.4,60.5a75.873,75.873,0,0,0,9.03.98c.77.07,1.47.07,2.17.07,5.32.07,8.75-.63,10.36-2.17,1.4-1.33,1.82-3.08.98-4.48a3.583,3.583,0,0,0-1.96-1.47,3.124,3.124,0,0,1,1.26-.35,5.43,5.43,0,0,1,4.2,1.19l.56.49c3.99,3.29,5.88,4.13,9.38,4.41Z" transform="translate(-1622.824 2133.473)"/>
    <path id="Path_1210" data-name="Path 1210" d="M24.44,23.58a8.611,8.611,0,0,1-7.77-4.9,5.419,5.419,0,0,1-.77-2.8l2.8-.14a2.982,2.982,0,0,0,.56,1.68,5.73,5.73,0,0,0,10.36-4.9,3.655,3.655,0,0,0-1.26-1.68L30.04,8.6a6.138,6.138,0,0,1,2.1,2.73,8.586,8.586,0,0,1-7.7,12.25Z" transform="translate(-1625.734 2146.105)"/>
    <path id="Path_1211" data-name="Path 1211" d="M14.192,28.772a1.461,1.461,0,0,1-1.12-.56,1.422,1.422,0,0,1,.21-1.96l3.85-3.08a1.394,1.394,0,1,1,1.75,2.17l-3.85,3.08A.942.942,0,0,1,14.192,28.772Z" transform="translate(-1624.796 2141.824)"/>
    <path id="Path_1212" data-name="Path 1212" d="M22.692,30.842a1.191,1.191,0,0,1-.49-.07,1.456,1.456,0,0,1-.84-1.82l.91-2.45a1.417,1.417,0,0,1,2.66.98l-.91,2.45A1.436,1.436,0,0,1,22.692,30.842Z" transform="translate(-1627.347 2141.013)"/>
    <path id="Path_1213" data-name="Path 1213" d="M30.44,34.35a1.492,1.492,0,0,1-1.4-1.12l-1.05-5.46a1.428,1.428,0,0,1,2.8-.56l1.05,5.39a1.435,1.435,0,0,1-1.12,1.68A.529.529,0,0,1,30.44,34.35Z" transform="translate(-1629.354 2140.866)"/>
    <path id="Path_1214" data-name="Path 1214" d="M36.634,28.844a1.543,1.543,0,0,1-1.05-.42l-2.45-2.66a1.436,1.436,0,1,1,2.1-1.96l2.45,2.66a1.438,1.438,0,0,1-.07,2.03A1.858,1.858,0,0,1,36.634,28.844Z" transform="translate(-1630.789 2141.681)"/>
    <path id="Path_1215" data-name="Path 1215" d="M42.283,24.273a.888.888,0,0,1-.42-.07l-5.39-1.68a1.395,1.395,0,1,1,.84-2.66l5.39,1.68a1.337,1.337,0,0,1,.91,1.75A1.431,1.431,0,0,1,42.283,24.273Z" transform="translate(-1631.607 2142.753)"/>
    <path id="Path_1216" data-name="Path 1216" d="M38.39,16.32a1.412,1.412,0,0,1-.28-2.8l3.22-.63a1.428,1.428,0,0,1,.56,2.8l-3.22.63Z" transform="translate(-1632.054 2144.826)"/>
  </g>
</svg>
