<svg xmlns="http://www.w3.org/2000/svg" width="67.887" height="69.998" viewBox="0 0 67.887 69.998">
  <g id="Group_694" data-name="Group 694" transform="translate(-5648 -17778.686)">
    <path id="Path_1230" data-name="Path 1230" d="M43.779,57" transform="translate(5632.761 17761.582)"/>
    <path id="Path_1231" data-name="Path 1231" d="M12.865,57" transform="translate(5642.039 17761.582)"/>
    <path id="Path_1232" data-name="Path 1232" d="M52.024,70.092c-1.274-1.813-4.831-6.028-10.349-6.028-4.6,0-7.825,2.88-9.551,4.938a6.985,6.985,0,0,0-5.906-3.152A1.4,1.4,0,0,0,24.9,67.726a12.841,12.841,0,0,1,.642,3.844,15.25,15.25,0,0,1-.693,4.164,1.4,1.4,0,0,0,1.327,1.844,7.048,7.048,0,0,0,5.929-3.153c1.71,2.06,4.916,4.938,9.513,4.938,5.514,0,9.107-4.214,10.4-6.024A2.819,2.819,0,0,0,52.024,70.092ZM28.067,74.365a15.645,15.645,0,0,0,.277-2.8,14.584,14.584,0,0,0-.227-2.5,4.931,4.931,0,0,1,2.3,2.639A5.012,5.012,0,0,1,28.067,74.365Zm5.493-2.647c1.049-1.469,3.874-4.783,7.993-4.849a8.387,8.387,0,0,0-1.512,4.844A9.9,9.9,0,0,0,41.6,76.562C37.433,76.553,34.605,73.2,33.56,71.718ZM44.6,75.976a7.828,7.828,0,0,1-1.757-4.263A5.433,5.433,0,0,1,44.755,67.5a12.176,12.176,0,0,1,4.979,4.218A12.343,12.343,0,0,1,44.6,75.976Z" transform="translate(5638.463 17759.463)"/>
    <ellipse id="Ellipse_349" data-name="Ellipse 349" cx="0.782" cy="0.774" rx="0.782" ry="0.774" transform="translate(5683.042 17828.828)"/>
    <path id="Path_1233" data-name="Path 1233" d="M58.2,20.8a4.249,4.249,0,0,1-2.125-.6,1.4,1.4,0,0,1,1.389-2.431,1.307,1.307,0,0,0,.965.2.862.862,0,0,0,.486-.406l.531-.929.017,0c.514-.893,1.554-2.713,3.643-6.406l.01-.019-6.1-3.483-.237.414C55.714,9,52.8,14.069,52.8,14.069c-.106.186-.386.849.582,1.4A1.4,1.4,0,0,1,51.994,17.9a3.785,3.785,0,0,1-1.623-5.224S53.289,7.6,54.356,5.751l.82-1.435a1.627,1.627,0,0,1,2.216-.6l8.129,4.644a1.625,1.625,0,0,1,.766.985,1.6,1.6,0,0,1-.154,1.225l-.591,1.036c-.4.7-1.436,2.538-2.381,4.2-.474.833-.924,1.621-1.258,2.2-.209.364-.391.678-.57.933l.014.008a3.641,3.641,0,0,1-2.108,1.7A3.564,3.564,0,0,1,58.2,20.8Zm5.931-10.007,0,0Z" transform="translate(5630.926 17777.639)"/>
    <path id="Path_1234" data-name="Path 1234" d="M53.04,32.731a1.856,1.856,0,0,1-.923-.248l-5.25-3a1.852,1.852,0,0,1-.874-1.126,1.813,1.813,0,0,1,.176-1.388l1.3-2.267a1.847,1.847,0,0,1,2.519-.675l5.252,3a1.846,1.846,0,0,1,.7,2.515l-1.3,2.267a1.81,1.81,0,0,1-1.105.855A1.884,1.884,0,0,1,53.04,32.731Zm-.834-2.31v0Zm-3.129-2.9,3.608,2.061.339-.594-3.608-2.061Zm-.477.836h0Zm4.9-.206h0Z" transform="translate(5632.116 17771.553)"/>
    <circle id="Ellipse_350" data-name="Ellipse 350" cx="1.839" cy="1.839" r="1.839" transform="translate(5678.136 17803.9)"/>
    <circle id="Ellipse_351" data-name="Ellipse 351" cx="1.839" cy="1.839" r="1.839" transform="translate(5673.23 17809.406)"/>
    <circle id="Ellipse_352" data-name="Ellipse 352" cx="1.839" cy="1.839" r="1.839" transform="translate(5679.443 17808.596)"/>
    <circle id="Ellipse_353" data-name="Ellipse 353" cx="1.839" cy="1.839" r="1.839" transform="translate(5670.375 17820.211)"/>
    <path id="Path_1235" data-name="Path 1235" d="M68.348,50.765a8.361,8.361,0,0,0,.44-2.627v-26.3a8.4,8.4,0,0,0-4.357-7.362l-9.479-5.2A1.4,1.4,0,0,0,53.6,11.732l9.479,5.2a5.6,5.6,0,0,1,2.905,4.908V37.895H54.88a3.355,3.355,0,0,0-6.066,0H22.827a3.355,3.355,0,0,0-6.066,0H5.8V21.843a5.6,5.6,0,0,1,2.9-4.908L33.2,3.488a5.576,5.576,0,0,1,5.39,0,1.4,1.4,0,0,0,1.347-2.454,8.362,8.362,0,0,0-8.083,0L7.357,14.481A8.4,8.4,0,0,0,3,21.843v26.3A8.4,8.4,0,0,0,7.357,55.5l24.5,13.447a8.359,8.359,0,0,0,8.084,0l8.811-4.838a11.884,11.884,0,1,0,19.6-13.345Zm-2.78,8.307-5.416,5.416a1.314,1.314,0,0,1-.15.183,1.394,1.394,0,0,1-.99.41h-.034a1.452,1.452,0,0,1-.274-.027c-.042-.008-.08-.024-.121-.036a1.406,1.406,0,0,1-.14-.043,1.28,1.28,0,0,1-.137-.072c-.034-.019-.071-.034-.1-.057a1.406,1.406,0,0,1-.372-.367l-5.406-5.406A1.4,1.4,0,1,1,54.4,57.094l3.176,3.176V52.484a1.4,1.4,0,1,1,2.8,0V60.3l3.21-3.21a1.4,1.4,0,0,1,1.98,1.979Zm.42-10.933c0,.112-.016.22-.022.331A11.883,11.883,0,0,0,47.608,61.543l-9.019,4.952a5.577,5.577,0,0,1-5.388,0L8.7,53.047A5.6,5.6,0,0,1,5.8,48.139V40.694H16.761a3.355,3.355,0,0,0,6.066,0H48.814a3.355,3.355,0,0,0,6.066,0H65.988Z" transform="translate(5645 17778.693)"/>
  </g>
</svg>
