<svg xmlns="http://www.w3.org/2000/svg" width="47.427" height="50.462" viewBox="0 0 47.427 50.462">
  <g id="Group_655" data-name="Group 655" transform="translate(14759.557 -3261.022)">
    <g id="Icons_Increase_Resilience" data-name="Icons_Increase Resilience" transform="translate(-14759.557 3261.541)" opacity="0.94">
      <path id="Path_5" data-name="Path 5" d="M75.135,46.464V26.917a5.2,5.2,0,0,0-2.7-4.561l-18.209-10a5.2,5.2,0,0,0-5.007,0l-18.21,10a5.2,5.2,0,0,0-2.7,4.561V46.464a5.2,5.2,0,0,0,2.7,4.559l18.21,10a5.2,5.2,0,0,0,5.007,0l18.21-10a5.2,5.2,0,0,0,2.7-4.559Z" transform="translate(-28.31 -11.718)" fill="#c1c1c1"/>
      <path id="Path_382" data-name="Path 382" d="M0,25.891" transform="translate(23.454 -2.84)" fill="none"/>
      <path id="Path_9" data-name="Path 9" d="M363.2,409.538" transform="translate(-330.636 -372.068)" fill="#fbb040"/>
    </g>
    <g id="Your_Icon" transform="translate(-14759.557 3261.022)">
      <path id="Path_1165" data-name="Path 1165" d="M20.618,64.624a5.714,5.714,0,0,1-4.33-2.548,7.884,7.884,0,0,1,1.054-1.162A1.009,1.009,0,1,0,16,59.412a9.481,9.481,0,0,0-.773.779,4.151,4.151,0,0,0-3.377-1.669,1.011,1.011,0,0,0-.949,1.352,7.1,7.1,0,0,1,.353,2.118,8.46,8.46,0,0,1-.384,2.3,1.008,1.008,0,0,0,.957,1.329,4.187,4.187,0,0,0,3.388-1.669,7.281,7.281,0,0,0,5.408,2.686,1.009,1.009,0,0,0,0-2.019ZM13.18,63.169a8.533,8.533,0,0,0,.088-1.178,8.168,8.168,0,0,0-.065-1.009,2.667,2.667,0,0,1,.805,1.086A2.7,2.7,0,0,1,13.18,63.169Z" transform="translate(-6.871 -28.991)" fill="#fff"/>
      <g id="Group_364" data-name="Group 364" transform="translate(36.193 24.357)">
        <path id="Path_1166" data-name="Path 1166" d="M83.264,51.723c-.062-.089-.128-.187-.2-.293a5.933,5.933,0,0,0-5.126-3.163,1.009,1.009,0,0,0-1.009,1.009,1,1,0,0,0,.141.506,4.946,4.946,0,0,0-.988,2.984,5.575,5.575,0,0,0,.72,2.5,4.258,4.258,0,0,1-.782-.138,1.009,1.009,0,1,0-.556,1.94,6.281,6.281,0,0,0,1.729.243c3.224,0,5.315-2.45,6.065-3.5A1.813,1.813,0,0,0,83.264,51.723ZM78.95,54.917a4.18,4.18,0,0,1-.849-2.15A2.89,2.89,0,0,1,79.174,50.5a4.752,4.752,0,0,1,2.214,2.056l.14.208A6.8,6.8,0,0,1,78.95,54.917Z" transform="translate(-74.734 -48.267)" fill="#fff"/>
        <ellipse id="Ellipse_348" data-name="Ellipse 348" cx="0.443" cy="0.438" rx="0.443" ry="0.438" transform="translate(4.137 3.17)" fill="#fff"/>
      </g>
      <path id="Path_1167" data-name="Path 1167" d="M46.293,72.869" transform="translate(-24.45 -36.1)" fill="#fff"/>
      <path id="Path_1168" data-name="Path 1168" d="M44.929,37.219H31.86a1.009,1.009,0,1,1,0-2.018H44.929a1.009,1.009,0,0,1,0,2.018Z" transform="translate(-16.799 -17.437)" fill="#fff"/>
      <path id="Path_1169" data-name="Path 1169" d="M36.99,42.346H31.86a1.009,1.009,0,0,1,0-2.018h5.13a1.009,1.009,0,0,1,0,2.018Z" transform="translate(-16.799 -19.977)" fill="#fff"/>
      <g id="Group_365" data-name="Group 365" transform="translate(0 0)">
        <path id="Path_1170" data-name="Path 1170" d="M47.286,10.437,29.626.743a6.029,6.029,0,0,0-5.827,0L6.141,10.437A6.053,6.053,0,0,0,3,15.745V34.7a6.053,6.053,0,0,0,3.141,5.307L23.8,49.7a6.029,6.029,0,0,0,5.834,0L40.21,43.781a1.009,1.009,0,0,0,.388-1.373.972.972,0,0,0-.072-.1h0l-4.788-7.442a12.838,12.838,0,0,0,1.333-1.291,13.712,13.712,0,0,0,2.356-3.552,14.06,14.06,0,0,0,.523-10.485h.975a2.418,2.418,0,0,0,4.373,0h3.109V34.281a1.009,1.009,0,1,0,2.018,0V15.745A6.054,6.054,0,0,0,47.286,10.437ZM7.112,12.207,24.771,2.513a4.019,4.019,0,0,1,3.885,0l17.659,9.694a4.028,4.028,0,0,1,1.465,1.385,2.876,2.876,0,0,1-4.247-.62,5.013,5.013,0,0,0-7.816,0c-.075.074-.147.143-.221.214A14.046,14.046,0,0,0,18,13.014l-.043-.041a5.008,5.008,0,0,0-7.812,0,3.2,3.2,0,0,1-2.489,1.291,3.583,3.583,0,0,1-1.918-.8A4.023,4.023,0,0,1,7.112,12.207Zm7.092,5.31H12.3a2.419,2.419,0,0,0-4.373,0h-2.9V15.745c0-.1.013-.205.021-.308a5.066,5.066,0,0,0,2.613.843,5.146,5.146,0,0,0,3.909-1.874,3.2,3.2,0,0,1,2.483-1.289,3.149,3.149,0,0,1,2.449,1.251A14.137,14.137,0,0,0,14.2,17.517ZM28.656,47.934a4.02,4.02,0,0,1-3.884,0L7.112,38.24A4.035,4.035,0,0,1,5.018,34.7V19.535h2.9a2.418,2.418,0,0,0,4.373,0h1.03A14.081,14.081,0,0,0,32.32,37.01l4.2,6.525Zm8.939-18.759a11.726,11.726,0,0,1-2.024,3.048,10.968,10.968,0,0,1-1.248,1.2A12.143,12.143,0,0,1,31.654,35.1a12.058,12.058,0,0,1-11.006-.51h3.976a1.009,1.009,0,0,0,0-2.018H18.711a1,1,0,0,0-.525.151,12.076,12.076,0,0,1-1.041-1.166,1.009,1.009,0,0,0,.426.1,5.174,5.174,0,0,0,4.365-2.335,9.271,9.271,0,0,0,7.013,3.651c4.053,0,6.694-3.1,7.642-4.43a2.055,2.055,0,0,0,.007-2.367c-.936-1.332-3.553-4.431-7.607-4.431a9.361,9.361,0,0,0-7.041,3.65A5.128,5.128,0,0,0,17.6,23.061a1.01,1.01,0,0,0-.949,1.355,9.328,9.328,0,0,1,.473,2.838,11.26,11.26,0,0,1-.512,3.075,1.006,1.006,0,0,0-.042.44A12.058,12.058,0,0,1,34.795,15.244c.019.019.037.037.057.054a12.042,12.042,0,0,1,2.743,13.877Zm-18.626-3.8a3.641,3.641,0,0,1,1.745,1.983,3.708,3.708,0,0,1-1.782,2,11.546,11.546,0,0,0,.211-2.1A10.7,10.7,0,0,0,18.969,25.371Zm12.167,5.156a5.8,5.8,0,0,1-1.311-3.169,4.025,4.025,0,0,1,1.429-3.132,8.884,8.884,0,0,1,3.691,3.146A9.1,9.1,0,0,1,31.136,30.527Zm-2.16.426-.028,0c-3.1,0-5.2-2.5-5.966-3.593.772-1.084,2.88-3.574,5.964-3.6a6.148,6.148,0,0,0-1.139,3.594A7.3,7.3,0,0,0,28.976,30.954ZM45.3,17.517a2.419,2.419,0,0,0-4.373,0H39.071a14.156,14.156,0,0,0-2.1-2.951c.054-.053.113-.107.166-.161a3.046,3.046,0,0,1,4.978,0,5.148,5.148,0,0,0,3.908,1.872,4.814,4.814,0,0,0,2.376-.686c0,.05.01.1.01.151v1.771Z" transform="translate(-3 0.008)" fill="#fff"/>
        <path id="Path_1171" data-name="Path 1171" d="M59.329,50.805a.571.571,0,1,0,.576.571A.573.573,0,0,0,59.329,50.805Z" transform="translate(-30.624 -25.168)" fill="#fff"/>
      </g>
    </g>
  </g>
</svg>
