<svg xmlns="http://www.w3.org/2000/svg" width="65.729" height="69.998" viewBox="0 0 65.729 69.998">
  <g id="Group_682" data-name="Group 682" transform="translate(-6911.636 -19173.686)">
    <path id="Path_1201" data-name="Path 1201" d="M64.389,14.49,39.889,1.05a8.239,8.239,0,0,0-8.05,0L7.34,14.49A8.394,8.394,0,0,0,3,21.84v26.32a8.394,8.394,0,0,0,4.34,7.35l24.5,13.44A8.358,8.358,0,0,0,35.9,70a7.905,7.905,0,0,0,3.99-1.05l24.5-13.44a8.394,8.394,0,0,0,4.34-7.35V21.84A8.394,8.394,0,0,0,64.389,14.49ZM66,48.159a5.575,5.575,0,0,1-2.94,4.9L38.56,66.5a5.662,5.662,0,0,1-5.39,0L8.67,53.059a5.65,5.65,0,0,1-2.87-4.9V21.84a5.51,5.51,0,0,1,2.87-4.9L33.17,3.5a5.661,5.661,0,0,1,2.73-.7,5.22,5.22,0,0,1,2.66.7l24.5,13.44A5.575,5.575,0,0,1,66,21.84Z" transform="translate(6908.636 19173.686)" fill="#231f20"/>
    <path id="Path_1202" data-name="Path 1202" d="M48.527,57.506c3.15,0,3.43-1.96,3.43-2.17a1.39,1.39,0,0,0-2.66-.7,7.292,7.292,0,0,1-.77.07,1.97,1.97,0,0,1-.77-.07,1.316,1.316,0,0,0-1.4-.84,1.412,1.412,0,0,0-1.26,1.54C45.1,55.546,45.377,57.506,48.527,57.506Z" transform="translate(6896.008 19157.549)" fill="#231f20"/>
    <path id="Path_1203" data-name="Path 1203" d="M58.059,22.982l-14.63-7.07-.07-.07a5.224,5.224,0,0,0-3.85,0l-15.05,7.14a5.327,5.327,0,0,0-3.36,4.97l.98,16.31a3.964,3.964,0,0,0,.21,1.26c.42,1.4,4.55,13.93,17.22,18.62a6,6,0,0,0,1.89.35,8.811,8.811,0,0,0,1.89-.28c12.67-4.69,16.8-17.22,17.22-18.62a4.308,4.308,0,0,0,.21-1.26l.77-16.38A5.359,5.359,0,0,0,58.059,22.982ZM33.14,56.792a6.777,6.777,0,0,1,1.935-6.331l-1.2,7.3q-.37-.3-.72-.6A1.427,1.427,0,0,0,33.14,56.792Zm4.13-26.95a5.053,5.053,0,0,1,3.36.35,1.483,1.483,0,0,0,1.33,0,5.167,5.167,0,0,1,3.36-.35c1.5.437,2.826,2.381,2.748,5.18h-13.5C34.478,32.224,35.791,30.273,37.27,29.842Zm-2.883,7.98H48.133a7.14,7.14,0,1,1-13.746,0Zm15.2,19.04a1.341,1.341,0,0,0-.037.477c-.2.17-.406.337-.614.5l-1.205-7.33A6.762,6.762,0,0,1,49.59,56.862Zm-6.91-7.313-.02.034c-.56,1.05-.84,1.4-1.26,1.4s-.757-.474-1.3-1.415a8.889,8.889,0,0,0,2.577-.019Zm-.3,12a2.706,2.706,0,0,1-1.82,0A23.409,23.409,0,0,1,36.4,59.545a1.629,1.629,0,0,0,.1-.3L37.822,51.2c.692,1.159,1.669,2.579,3.578,2.579,1.965,0,2.944-1.466,3.579-2.572L46.3,59.242a1.6,1.6,0,0,0,.122.36A23.256,23.256,0,0,1,42.38,61.552Zm15.54-17.29a1.191,1.191,0,0,1-.07.49,28.332,28.332,0,0,1-5.339,9.6,8.392,8.392,0,0,0-4.747-7.1,9.613,9.613,0,0,0,3.366-7.536,10.924,10.924,0,0,0-.158-1.89H54.49a1.4,1.4,0,1,0,0-2.8H50.907c.123-4.243-2.166-7.155-4.747-7.91a7.535,7.535,0,0,0-4.83.28,7.535,7.535,0,0,0-4.83-.28c-2.557.811-4.829,3.681-4.7,7.91H28.66a1.4,1.4,0,1,0,0,2.8h2.917a10.111,10.111,0,0,0-.187,1.89,9.927,9.927,0,0,0,3.524,7.564,8.4,8.4,0,0,0-4.626,6.95,29.554,29.554,0,0,1-5.268-9.474,1.191,1.191,0,0,1-.07-.49l-.98-16.31a2.648,2.648,0,0,1,1.68-2.38l14.91-7.14a2.509,2.509,0,0,1,1.75,0l14.91,7.21h.07a2.575,2.575,0,0,1,1.4,2.24Z" transform="translate(6903.206 19169.043)" fill="#231f20"/>
  </g>
</svg>
