<svg xmlns="http://www.w3.org/2000/svg" width="63.679" height="67.753" viewBox="0 0 63.679 67.753">
  <g id="Group_644" data-name="Group 644" transform="translate(1587.431 -1497)">
    <g id="Icons_Planet" transform="translate(-1586 1499.936)">
      <path id="Path_17" data-name="Path 17" d="M89.77,56.812V31.443a6.752,6.752,0,0,0-3.5-5.92L62.634,12.551a6.752,6.752,0,0,0-6.5,0L32.5,25.524A6.752,6.752,0,0,0,29,31.443V56.812a6.752,6.752,0,0,0,3.5,5.917L56.134,75.7a6.752,6.752,0,0,0,6.5,0L86.264,62.729a6.752,6.752,0,0,0,3.506-5.917Z" transform="translate(-29 -11.718)" fill="#3e89ff"/>
    </g>
    <g id="FISHERPERSON-FilipaCampos" transform="translate(-1587.431 1497)">
      <ellipse id="Ellipse_340" data-name="Ellipse 340" cx="1.288" cy="1.288" rx="1.288" ry="1.288" transform="translate(16.24 34.236)" fill="#fff"/>
      <ellipse id="Ellipse_341" data-name="Ellipse 341" cx="1.288" cy="1.288" rx="1.288" ry="1.288" transform="translate(25.578 34.236)" fill="#fff"/>
      <path id="Path_1140" data-name="Path 1140" d="M65.986,16,38.759,1.016a8.1,8.1,0,0,0-7.824,0L7.224,14.033A8.132,8.132,0,0,0,3.008,21.16V46.611a8.13,8.13,0,0,0,4.216,7.126L30.935,66.754a8.094,8.094,0,0,0,7.824,0L57.134,56.666a1.355,1.355,0,0,0-1.3-2.375L40.685,62.605c-.051-1.017-.105-2.2-.135-3.12-.275-8.52-2.031-11.676-7.226-12.989a4.836,4.836,0,0,0-.493-.1A13.43,13.43,0,0,0,38.38,32.728h2.6a1.355,1.355,0,0,0,.881-2.385L37.5,26.613c-2.213-6.074-6.688-9.549-12.329-9.549-5.731,0-10.1,3.387-12.341,9.549l-4.36,3.73a1.355,1.355,0,0,0,.881,2.385H12.03a13.457,13.457,0,0,0,5.655,13.743l-.1.025a9.649,9.649,0,0,0-6.641,6.191L8.529,51.362a5.421,5.421,0,0,1-2.81-4.751V21.159a5.419,5.419,0,0,1,2.81-4.751L32.239,3.392a5.4,5.4,0,0,1,5.215,0l26.523,14.6V31.639a2.709,2.709,0,1,1-5.419,0,1.355,1.355,0,1,0-2.71,0,5.42,5.42,0,1,0,10.839,0V17.191A1.355,1.355,0,0,0,65.986,16ZM37.841,59.572c.045,1.381.145,3.363.2,4.483l-.59.324a5.468,5.468,0,0,1-1.314.512l-.792-14.617C36.784,51.438,37.656,53.809,37.841,59.572Zm-4.419,5.281a5.451,5.451,0,0,1-1.184-.474l-14.2-7.8.285-7.476c.9-.2,1.349.289,2.415,2.068v5.932a1.356,1.356,0,0,0,1.355,1.355H28.8a1.355,1.355,0,0,0,1.355-1.355V51.594a1.306,1.306,0,0,0-.023-.226l.1-.177c1.081-1.882,1.5-2.271,2.335-2.089Zm-9.975-10.5a4.054,4.054,0,0,0,2.078.545,3.986,3.986,0,0,0,1.92-.474V55.75h-4Zm4.437-4.508c-.915,1.593-1.447,2.343-2.36,2.343s-1.477-.755-2.436-2.357c-.257-.429-.548-.916-.893-1.386a13.724,13.724,0,0,0,6.686-.175A15.325,15.325,0,0,0,27.885,49.84ZM25.167,19.775c5.068,0,7.773,3.393,9.156,6.277H15.991C17.49,22.876,20.22,19.775,25.167,19.775Zm-11.4,10.243h-.749l1.468-1.255H35.838l1.468,1.255h-.645c-.035,0-.071,0-.106,0H13.765Zm.72,5.33a10.8,10.8,0,0,1,.32-2.62H35.6a10.72,10.72,0,1,1-21.116,2.62Zm1.07,15.2-.175,4.577-2.025-1.112A7.568,7.568,0,0,1,15.555,50.546Z" transform="translate(-3.008 -0.008)" fill="#fff"/>
      <path id="Path_1141" data-name="Path 1141" d="M74.793,57.88a11.48,11.48,0,0,0-8.488,4.145A8.443,8.443,0,0,0,60.269,59.3a1.358,1.358,0,0,0-1.12,2.119,5.691,5.691,0,0,1,.9,2.741,6.1,6.1,0,0,1-.944,2.848,1.355,1.355,0,0,0,1.127,2.107,8.526,8.526,0,0,0,6.059-2.724,11.366,11.366,0,0,0,8.452,4.145c4.8,0,7.944-3.393,9.071-4.851a2.422,2.422,0,0,0,.009-2.948C82.71,61.277,79.6,57.88,74.793,57.88ZM62.535,65.842a6.8,6.8,0,0,0,.224-1.682,6.7,6.7,0,0,0-.2-1.588,7.074,7.074,0,0,1,2.066,1.63A7.183,7.183,0,0,1,62.535,65.842Zm5.474-1.629a9.314,9.314,0,0,1,6.292-3.6,6.592,6.592,0,0,0,0,7.2A9.167,9.167,0,0,1,68.008,64.213Zm9.425,3.1c-.028-.028-.052-.06-.083-.086a3.937,3.937,0,0,1,.111-6.122,10.134,10.134,0,0,1,4.071,3.1A10.3,10.3,0,0,1,77.433,67.309Z" transform="translate(-21.024 -18.669)" fill="#fff"/>
      <path id="Path_1142" data-name="Path 1142" d="M87.022,64.074a.71.71,0,1,0,.718.71A.714.714,0,0,0,87.022,64.074Z" transform="translate(-29.867 -20.667)" fill="#fff"/>
    </g>
  </g>
</svg>
