<svg xmlns="http://www.w3.org/2000/svg" width="82.732" height="88.027" viewBox="0 0 82.732 88.027">
  <g id="Group_4840" data-name="Group 4840" transform="translate(18142 19471)">
    <g id="TRUCK-KathleenFoster" transform="translate(-18142 -19471)">
      <g id="Default_x5F_Hexagon_copy" transform="translate(0 0)">
        <g id="Default_1_">
          <path id="Path_16902" data-name="Path 16902" d="M44.366,88.019a10.545,10.545,0,0,1-5.083-1.311L8.479,69.8A10.559,10.559,0,0,1,3,60.54V27.471a10.56,10.56,0,0,1,5.479-9.258L39.283,1.3a10.516,10.516,0,0,1,10.165,0L80.254,18.212a10.564,10.564,0,0,1,5.479,9.259V60.54a10.56,10.56,0,0,1-5.48,9.258l-30.8,16.911A10.545,10.545,0,0,1,44.366,88.019Zm0-84.5a7.036,7.036,0,0,0-3.389.874L10.172,21.3a7.04,7.04,0,0,0-3.652,6.171V60.54a7.04,7.04,0,0,0,3.653,6.172l30.8,16.911a7.013,7.013,0,0,0,6.776,0l30.8-16.911a7.038,7.038,0,0,0,3.653-6.172V27.471A7.041,7.041,0,0,0,78.559,21.3L47.755,4.388A7.039,7.039,0,0,0,44.366,3.515Z" transform="translate(-3 0.008)" fill="#95c33c"/>
        </g>
      </g>
      <g id="Your_Icon" transform="translate(6.543 26.031)">
        <path id="Path_16903" data-name="Path 16903" d="M79.007,47.019H72.216v-3.9h4.837a1.954,1.954,0,0,1,1.955,1.955v1.948Z" transform="translate(-17.84 -31.192)" fill="#95c33c"/>
        <path id="Path_16904" data-name="Path 16904" d="M16.921,61.211H12.194a1.76,1.76,0,1,1,0-3.521h4.726a1.76,1.76,0,1,1,0,3.521Z" transform="translate(-10.434 -32.939)" fill="#95c33c"/>
        <path id="Path_16905" data-name="Path 16905" d="M77,57.247a1.745,1.745,0,0,0,.452-1.167V43.113a6.894,6.894,0,0,0-6.885-6.886H63.475v-4.9a1.761,1.761,0,0,0-1.76-1.76H17.182a1.761,1.761,0,0,0-1.76,1.76V56.079a1.748,1.748,0,0,0,.272.932,5.128,5.128,0,0,0,8.569,5.577,5.126,5.126,0,0,0,8.925-4.748H44.081a5.129,5.129,0,0,0,9.565,3.676,5.129,5.129,0,0,0,9.566-3.676h4.3a5.134,5.134,0,1,0,9.5-.592ZM18.942,33.089H59.956V54.319H39.095c0-.011,0-.023,0-.034V48.9c.086.006.17.026.257.026a3.95,3.95,0,0,0,1.014-.135h0a10.492,10.492,0,0,0,4.789-2.63c3.117-3.116,3.116-7.979,3.114-8.184a1.761,1.761,0,0,0-1.747-1.747c-.206,0-5.07,0-8.184,3.114a9.832,9.832,0,0,0-2.133,3.312A9.141,9.141,0,0,0,30.9,40.816a1.76,1.76,0,0,0-1.745,1.749c0,.421.037,4.18,2.254,6.712a7.693,7.693,0,0,0,3.61,2.264,3.1,3.1,0,0,0,.558.11v2.635c0,.011,0,.023,0,.034H18.942ZM35.578,48.3h0Zm3.878-2.914a.271.271,0,0,1-.344-.344,7.043,7.043,0,0,1,1.719-3.213A7.469,7.469,0,0,1,44.5,40a7.48,7.48,0,0,1-1.831,3.67A7.058,7.058,0,0,1,39.456,45.389ZM35.5,47.972a3.947,3.947,0,0,1-1.443-1.015A5.52,5.52,0,0,1,33,44.8a3.974,3.974,0,0,1,1.441,1.014A5.452,5.452,0,0,1,35.5,47.972ZM20.208,61.064a1.612,1.612,0,1,1,1.612-1.612A1.614,1.614,0,0,1,20.208,61.064Zm9.722-1.612a1.612,1.612,0,1,1-1.612-1.612A1.614,1.614,0,0,1,29.93,59.452Zm19.02,1.612a1.612,1.612,0,1,1,1.612-1.612A1.614,1.614,0,0,1,48.95,61.064Zm9.393,0a1.612,1.612,0,1,1,1.612-1.612A1.614,1.614,0,0,1,58.342,61.064Zm5.133-21.316H70.57a3.369,3.369,0,0,1,3.365,3.366v11.2H63.475Zm8.9,21.316a1.612,1.612,0,1,1,1.612-1.612A1.614,1.614,0,0,1,72.377,61.064Z" transform="translate(-10.99 -29.568)" fill="#95c33c"/>
      </g>
    </g>
  </g>
</svg>
