<svg xmlns="http://www.w3.org/2000/svg" width="66.385" height="64.828" viewBox="0 0 66.385 64.828">
  <g id="Group_666" data-name="Group 666" transform="translate(14890 -2914)">
    <g id="Icons_Planet" transform="translate(-14890 2914)">
      <path id="Path_17" data-name="Path 17" d="M89.77,56.812V31.443a6.752,6.752,0,0,0-3.5-5.92L62.634,12.551a6.752,6.752,0,0,0-6.5,0L32.5,25.524A6.752,6.752,0,0,0,29,31.443V56.812a6.752,6.752,0,0,0,3.5,5.917L56.134,75.7a6.752,6.752,0,0,0,6.5,0L86.264,62.729a6.752,6.752,0,0,0,3.506-5.917Z" transform="translate(-29 -11.718)" fill="#42b294"/>
      <g id="GLOBE" transform="translate(-3)">
        <g id="Default_x5F_Hexagon" transform="translate(3)">
          <g id="Default">
            <path id="Path_1242" data-name="Path 1242" d="M33.469,64.828a7.74,7.74,0,0,1-3.76-.972L7.019,51.409A7.774,7.774,0,0,1,3,44.6V20.226a7.774,7.774,0,0,1,4.019-6.807L29.709.972a7.631,7.631,0,0,1,7.455,0l22.69,12.447a7.774,7.774,0,0,1,4.019,6.807V44.6a7.774,7.774,0,0,1-4.019,6.807L37.164,63.856A7.321,7.321,0,0,1,33.469,64.828Zm0-62.235a5.243,5.243,0,0,0-2.528.648L8.251,15.688a5.1,5.1,0,0,0-2.658,4.538V44.6A5.232,5.232,0,0,0,8.251,49.14l22.69,12.447a5.244,5.244,0,0,0,4.992,0L58.623,49.14A5.163,5.163,0,0,0,61.345,44.6V20.226a5.163,5.163,0,0,0-2.723-4.538L35.933,3.241A4.834,4.834,0,0,0,33.469,2.593Z" transform="translate(-3 0)" fill="#fff"/>
          </g>
        </g>
        <g id="Your_Icon" transform="translate(12.724 11.669)">
          <g id="Globe-2" data-name="Globe" transform="translate(0)">
            <path id="Path_1243" data-name="Path 1243" d="M49.3,58.778a1.3,1.3,0,0,1-1.3-1.3V21.7a1.3,1.3,0,1,1,2.593,0V57.482A1.3,1.3,0,0,1,49.3,58.778Z" transform="translate(-28.552 -18.844)" fill="#fff"/>
            <path id="Path_1244" data-name="Path 1244" d="M49.418,59.8a1.3,1.3,0,0,1-1.232-.908,1.261,1.261,0,0,1,.843-1.621c5.381-1.75,9.335-8.881,9.335-16.92,0-8.1-3.955-15.235-9.465-16.92a1.216,1.216,0,0,1-.843-1.621,1.261,1.261,0,0,1,1.621-.843c6.612,2.01,11.28,10.048,11.28,19.384,0,9.27-4.6,17.244-11.15,19.384A.822.822,0,0,1,49.418,59.8Z" transform="translate(-28.543 -19.025)" fill="#fff"/>
            <path id="Path_1245" data-name="Path 1245" d="M43.669,59.8a.822.822,0,0,1-.389-.065C36.668,57.727,32,49.754,32,40.353c0-9.27,4.6-17.244,11.15-19.384a1.292,1.292,0,1,1,.778,2.463c-5.381,1.75-9.335,8.881-9.335,16.92,0,8.1,3.955,15.235,9.465,16.92a1.216,1.216,0,0,1,.843,1.621A1.194,1.194,0,0,1,43.669,59.8Z" transform="translate(-22.924 -19.025)" fill="#fff"/>
            <path id="Path_1246" data-name="Path 1246" d="M38.745,59.49A20.745,20.745,0,1,1,59.49,38.745,20.806,20.806,0,0,1,38.745,59.49Zm0-38.9A18.152,18.152,0,1,0,56.9,38.745,18.205,18.205,0,0,0,38.745,20.593Z" transform="translate(-18 -18)" fill="#fff"/>
            <path id="Path_1621" d="M22.4,49.2" transform="translate(-19.548 -28.974)" fill="#fff"/>
            <path id="Path_1247" data-name="Path 1247" d="M21.291,46.952a1.893,1.893,0,0,1-.583-.13,1.3,1.3,0,0,1-.583-1.75C22.2,40.988,30.173,38.2,39.443,38.2c9.335,0,17.05,2.723,19.254,6.742a1.291,1.291,0,0,1-2.269,1.232C55,43.581,48.584,40.728,39.443,40.728c-9.206,0-15.624,2.852-17.05,5.51A1.2,1.2,0,0,1,21.291,46.952Z" transform="translate(-18.698 -25.105)" fill="#fff"/>
            <path id="Path_1248" data-name="Path 1248" d="M39.45,57.77c-9.206,0-17.179-3.371-19.319-8.1a1.277,1.277,0,1,1,2.334-1.037c1.75,3.825,8.881,6.612,16.92,6.612s15.364-2.852,16.985-6.677a1.294,1.294,0,1,1,2.4.972C56.694,54.4,48.72,57.77,39.45,57.77Z" transform="translate(-18.705 -28.468)" fill="#fff"/>
          </g>
          <line id="Line_102" data-name="Line 102" y2="0.065" transform="translate(56.66 4.797)"/>
        </g>
      </g>
    </g>
  </g>
</svg>
