<svg xmlns="http://www.w3.org/2000/svg" width="47.427" height="50.462" viewBox="0 0 47.427 50.462">
  <g id="Group_649" data-name="Group 649" transform="translate(1424.958 -1644.022)">
    <g id="Icons_Increase_Resilience" data-name="Icons_Increase Resilience" transform="translate(-1424.356 1644.541)" opacity="0.94">
      <path id="Path_5" data-name="Path 5" d="M75.135,46.464V26.917a5.2,5.2,0,0,0-2.7-4.561l-18.209-10a5.2,5.2,0,0,0-5.007,0l-18.21,10a5.2,5.2,0,0,0-2.7,4.561V46.464a5.2,5.2,0,0,0,2.7,4.559l18.21,10a5.2,5.2,0,0,0,5.007,0l18.21-10a5.2,5.2,0,0,0,2.7-4.559Z" transform="translate(-28.31 -11.718)" fill="#fbb040"/>
      <path id="Path_382" data-name="Path 382" d="M0,25.891" transform="translate(23.454 -2.84)" fill="none"/>
      <path id="Path_9" data-name="Path 9" d="M363.2,409.538" transform="translate(-330.636 -372.068)" fill="#bfbfbf"/>
    </g>
    <g id="BIOGAS-JorgeDavidMendozaGordillo" transform="translate(-1424.958 1644.022)">
      <g id="Default_x5F_Hexagon_copy" transform="translate(0 0)">
        <g id="Default_1_">
          <path id="Path_1105" data-name="Path 1105" d="M26.713,50.454A6.045,6.045,0,0,1,23.8,49.7L6.141,40.008A6.053,6.053,0,0,1,3,34.7V15.745a6.053,6.053,0,0,1,3.141-5.307L23.8.743a6.029,6.029,0,0,1,5.827,0l17.659,9.694a6.056,6.056,0,0,1,3.141,5.308V34.7a6.053,6.053,0,0,1-3.141,5.307L29.627,49.7A6.045,6.045,0,0,1,26.713,50.454Zm0-48.442a4.033,4.033,0,0,0-1.943.5L7.111,12.207a4.035,4.035,0,0,0-2.093,3.538V34.7A4.036,4.036,0,0,0,7.112,38.24l17.659,9.694a4.02,4.02,0,0,0,3.884,0L46.314,38.24A4.035,4.035,0,0,0,48.408,34.7V15.745a4.036,4.036,0,0,0-2.094-3.538L28.656,2.512A4.035,4.035,0,0,0,26.713,2.012Z" transform="translate(-3 0.008)" fill="#fff"/>
        </g>
      </g>
      <g id="Your_Icon" transform="translate(10.326 10.837)">
        <path id="Path_1106" data-name="Path 1106" d="M52.769,22.148a1.009,1.009,0,0,0-1.285-.621l-3.578,1.246a1.017,1.017,0,0,0-.3.169l-4.214,3.414-1.682-1.682a1.009,1.009,0,0,0-.713-.3H35.9V22.5a1.009,1.009,0,0,0-1.009-1.009H24.476A1.009,1.009,0,0,0,23.467,22.5v2.916a1.022,1.022,0,0,0,.026.22V49.8A1.009,1.009,0,0,0,24.5,50.809H45.528A1.009,1.009,0,0,0,46.537,49.8V29.922a1.009,1.009,0,0,0-.3-.713l-1.418-1.418,3.912-3.17,3.412-1.188A1.01,1.01,0,0,0,52.769,22.148ZM33.878,23.511v.868H25.485v-.868ZM44.519,48.791H25.511V26.4H40.576l1.782,1.782a1.012,1.012,0,0,0,.128.209,1,1,0,0,0,.364.282L44.52,30.34V48.791Z" transform="translate(-23.467 -21.47)" fill="#fff"/>
        <path id="Path_1107" data-name="Path 1107" d="M78.389,35.8a3.013,3.013,0,0,1-2.777-3.2c0-1.176.986-2.638,1.813-3.657a1.272,1.272,0,0,1,1.929,0c.826,1.018,1.813,2.479,1.813,3.656A3.013,3.013,0,0,1,78.389,35.8Zm0-4.776A3.9,3.9,0,0,0,77.63,32.6c0,.695.4,1.179.759,1.179s.759-.484.759-1.179A3.9,3.9,0,0,0,78.389,31.024Zm-.6-.806,0,0Z" transform="translate(-49.303 -24.955)" fill="#fff"/>
        <path id="Path_1108" data-name="Path 1108" d="M47.889,56.475a1.014,1.014,0,0,0-.867-.169,3.818,3.818,0,0,1-2.705-.476,2.037,2.037,0,0,1-1.37-2.032l.007-.024a1.01,1.01,0,0,0-1.326-1.193,3.215,3.215,0,0,0-1.242.8,3.057,3.057,0,0,0-.408.543,2.715,2.715,0,0,0-.146-.812,3.2,3.2,0,0,0-1.765-1.788,1.011,1.011,0,0,0-1.128.278,2.617,2.617,0,0,0-.59,2.192,3.04,3.04,0,0,0,.647,1.335,3,3,0,0,0-1.029,1.187,1.011,1.011,0,0,0,.45,1.356,1,1,0,0,0,.453.108,1.011,1.011,0,0,0,.9-.557.769.769,0,0,1,.765-.5,3.146,3.146,0,0,0-.545,1.2A3.3,3.3,0,0,0,37.98,59.2a1.009,1.009,0,0,0,1.516.682,2.825,2.825,0,0,1,3.527,1.25l.074.106a4.158,4.158,0,0,1,.519.879,1.007,1.007,0,0,0,1.277.6c.13-.045.259-.094.384-.148a2.8,2.8,0,0,0,1.644-2.541,3.324,3.324,0,0,0,1.367-2.773A1.006,1.006,0,0,0,47.889,56.475Zm-2.263,2.008a1.009,1.009,0,0,0-.746,1.286,1.007,1.007,0,0,1-.011.483l-.118-.169-.068-.1a5.184,5.184,0,0,0-4.236-2.351h-.03a2.245,2.245,0,0,1,.3-.221A1.688,1.688,0,0,0,41.509,56a4.625,4.625,0,0,0,1.966,1.664,7.847,7.847,0,0,0,2.3.708A.517.517,0,0,1,45.626,58.482Z" transform="translate(-29.606 -36.226)" fill="#fff"/>
        <path id="Path_1109" data-name="Path 1109" d="M46.443,46.7" transform="translate(-34.851 -33.969)" fill="none" stroke="#000" stroke-linecap="round" stroke-linejoin="round" stroke-width="4"/>
        <path id="Path_1110" data-name="Path 1110" d="M45.471,37.433a1.009,1.009,0,0,0-1.009,1.009v1.3H42.75v-1.3a1.009,1.009,0,1,0-2.018,0V43.01a1.009,1.009,0,1,0,2.018,0V41.755h1.712v1.254a1.009,1.009,0,0,0,2.018,0V38.442A1.009,1.009,0,0,0,45.471,37.433Z" transform="translate(-32.021 -29.379)" fill="#fff"/>
        <path id="Path_1111" data-name="Path 1111" d="M56.984,39.993h-.031V37.322a1.009,1.009,0,0,0-2.018,0v.722a.992.992,0,0,0-.254-.189,1.01,1.01,0,0,0-1.356.444l-1.139,2.249a1.009,1.009,0,0,0,.9,1.465l.018,0h1.831v.665a1.009,1.009,0,1,0,2.018,0v-.665h.031a1.009,1.009,0,0,0,0-2.019Zm-2.255,0,.205-.406v.406Z" transform="translate(-37.642 -28.824)" fill="#fff"/>
        <path id="Path_1112" data-name="Path 1112" d="M32.018,44.054a3.308,3.308,0,1,1,2.12-5.846,1.009,1.009,0,1,1-1.294,1.548,1.273,1.273,0,0,0-.826-.3,1.289,1.289,0,0,0,0,2.579,1.273,1.273,0,0,0,.958-.426,1.009,1.009,0,0,1,1.5,1.35A3.31,3.31,0,0,1,32.018,44.054Z" transform="translate(-26.065 -29.382)" fill="#fff"/>
      </g>
    </g>
  </g>
</svg>
