<svg xmlns="http://www.w3.org/2000/svg" width="65.788" height="69.998" viewBox="0 0 65.788 69.998">
  <g id="Group_684" data-name="Group 684" transform="translate(-6602.106 -19173.686)">
    <path id="Path_1236" data-name="Path 1236" d="M64.431,14.481,39.935,1.033a8.362,8.362,0,0,0-8.083,0L7.357,14.481A8.4,8.4,0,0,0,3,21.843V47.557a1.4,1.4,0,0,0,2.4.973l12.281-8.883a7.007,7.007,0,0,1,3.984-1.237H34.134a3.08,3.08,0,0,1,3.08,3.092v.139a3.085,3.085,0,0,1-3.08,3.068h-8.1a1.4,1.4,0,1,0,0,2.8h9.805a5.6,5.6,0,0,0,2.953-.842l12.729-7.9.029-.018a2.833,2.833,0,0,1,1.745-.228,2.8,2.8,0,0,1,1.223,4.935L35.549,56.136a6.981,6.981,0,0,1-3.875,1.169H16.379a1.394,1.394,0,0,0-1.195.68,1.37,1.37,0,0,0-.108.156,1.4,1.4,0,0,0,.554,1.9l16.222,8.905a8.359,8.359,0,0,0,8.084,0L64.43,55.5a8.4,8.4,0,0,0,4.357-7.362v-26.3A8.4,8.4,0,0,0,64.431,14.481Zm1.557,33.658a5.6,5.6,0,0,1-2.905,4.908l-24.5,13.447a5.577,5.577,0,0,1-5.388,0L21.561,60.105H31.674a9.772,9.772,0,0,0,5.427-1.64L56.117,45.749c.028-.018.055-.038.082-.059a5.6,5.6,0,0,0-6.087-9.354,1.424,1.424,0,0,0-.194.127l-10,6.209a5.828,5.828,0,0,0,.1-1.019v-.139a5.881,5.881,0,0,0-5.88-5.9H21.668a9.817,9.817,0,0,0-5.6,1.748L5.8,44.788V21.843a5.6,5.6,0,0,1,2.9-4.908L33.2,3.488a5.575,5.575,0,0,1,5.389,0l24.5,13.447a5.6,5.6,0,0,1,2.9,4.908Z" transform="translate(6599.106 19173.693)" fill="#231f20"/>
    <path id="Path_1237" data-name="Path 1237" d="M49.357,17.9c-8.525,0-14.145,5.894-16.425,8.845A16.761,16.761,0,0,0,20.459,20.7a1.4,1.4,0,0,0-1.135,2.219,11.993,11.993,0,0,1,2.082,6.086A12.915,12.915,0,0,1,19.241,35.3a1.4,1.4,0,0,0,1.146,2.2c6.28,0,10.555-3.8,12.53-6.045C35.175,34.41,40.741,40.3,49.264,40.3c8.764,0,14.527-6.347,16.6-9.075a3.536,3.536,0,0,0,.013-4.243C63.828,24.252,58.121,17.9,49.357,17.9ZM22.9,34.436a13.5,13.5,0,0,0,1.3-5.429,13.083,13.083,0,0,0-1.225-5.239,15.2,15.2,0,0,1,8.258,5.327A15.413,15.413,0,0,1,22.9,34.436ZM34.672,29.1c1.55-2.154,6.731-8.4,14.685-8.4a14.944,14.944,0,0,1,1.622.1,11.652,11.652,0,0,0-.929,16.664c-.262.014-.519.036-.787.036C41.349,37.5,36.209,31.258,34.672,29.1Zm28.96.427a20.726,20.726,0,0,1-10.153,7.358,1.353,1.353,0,0,0-.14-.136,9.139,9.139,0,0,1-3.556-7.142,9.232,9.232,0,0,1,4.781-7.976,20.886,20.886,0,0,1,9.071,7.025A.718.718,0,0,1,63.632,29.532Z" transform="translate(6594.308 19168.318)" fill="#231f20"/>
    <circle id="Ellipse_354" data-name="Ellipse 354" cx="1.4" cy="1.4" r="1.4" transform="translate(6648.989 19193.219)" fill="#231f20"/>
  </g>
</svg>
