<svg xmlns="http://www.w3.org/2000/svg" width="48.904" height="52.034" viewBox="0 0 48.904 52.034">
  <g id="Group_648" data-name="Group 648" transform="translate(1490 -1643)">
    <g id="Icons_Increase_Resilience" data-name="Icons_Increase Resilience" transform="translate(-1489.557 1644.541)" opacity="0.94">
      <path id="Path_5" data-name="Path 5" d="M75.135,46.464V26.917a5.2,5.2,0,0,0-2.7-4.561l-18.209-10a5.2,5.2,0,0,0-5.007,0l-18.21,10a5.2,5.2,0,0,0-2.7,4.561V46.464a5.2,5.2,0,0,0,2.7,4.559l18.21,10a5.2,5.2,0,0,0,5.007,0l18.21-10a5.2,5.2,0,0,0,2.7-4.559Z" transform="translate(-28.31 -11.718)" fill="#fbb040"/>
      <path id="Path_382" data-name="Path 382" d="M0,25.891" transform="translate(23.454 -2.84)" fill="none"/>
      <path id="Path_9" data-name="Path 9" d="M363.2,409.538" transform="translate(-330.636 -372.068)" fill="#fbb040"/>
    </g>
    <g id="PROCESSINGFACILITY-DivyaPR_1_" data-name="PROCESSINGFACILITY-DivyaPR (1)" transform="translate(-1490 1643)">
      <path id="Path_1148" data-name="Path 1148" d="M48.665,10.762,30.456.766a6.216,6.216,0,0,0-6.008,0l-18.209,10A6.242,6.242,0,0,0,3,16.235V35.782a6.241,6.241,0,0,0,3.239,5.473l18.209,10a6.214,6.214,0,0,0,6.009,0l18.208-10A6.242,6.242,0,0,0,51.9,35.782V16.235A6.244,6.244,0,0,0,48.665,10.762ZM7.24,12.587l18.209-10a4.144,4.144,0,0,1,4.006,0l18.209,10a4.146,4.146,0,0,1,.981.755H6.259A4.152,4.152,0,0,1,7.24,12.587ZM49.823,35.782a4.16,4.16,0,0,1-2.16,3.649l-18.209,10a4.146,4.146,0,0,1-4.005,0l-18.209-10a4.161,4.161,0,0,1-2.159-3.649V16.235a4.131,4.131,0,0,1,.089-.812H49.734a4.17,4.17,0,0,1,.089.812Z" transform="translate(-3 0.008)" fill="#fff"/>
      <path id="Path_1149" data-name="Path 1149" d="M70.926,48.266l1.87-1.65a1.04,1.04,0,1,0-1.377-1.56l-1.87,1.65a1.041,1.041,0,0,0,1.377,1.561Z" transform="translate(-34.758 -21.486)" fill="#fff"/>
      <path id="Path_1150" data-name="Path 1150" d="M15,32.672h3.442c0,.033-.01.066-.01.1v3.042a1.041,1.041,0,1,0,2.081,0V32.772c0-.034-.007-.067-.01-.1h3.441a1,1,0,0,0,1-1v-.947H14v.947A1,1,0,0,0,15,32.672Z" transform="translate(-8.277 -14.736)" fill="#fff"/>
      <path id="Path_1151" data-name="Path 1151" d="M40.481,32.672h3.441c0,.033-.01.066-.01.1v3.042a1.041,1.041,0,1,0,2.081,0V32.772c0-.034-.007-.067-.01-.1h3.441a1,1,0,0,0,1-1v-.947H39.481v.947A1,1,0,0,0,40.481,32.672Z" transform="translate(-20.502 -14.736)" fill="#fff"/>
      <path id="Path_1152" data-name="Path 1152" d="M65.961,32.672H69.4c0,.033-.01.066-.01.1v3.042a1.041,1.041,0,1,0,2.081,0V32.772c0-.034-.007-.067-.01-.1h3.442a1,1,0,0,0,1-1v-.947H64.961v.947A1,1,0,0,0,65.961,32.672Z" transform="translate(-32.726 -14.736)" fill="#fff"/>
      <path id="Path_1153" data-name="Path 1153" d="M49.415,59.188H39.8a1.041,1.041,0,0,0-1.031,1.184l.948,6.811a1.04,1.04,0,0,0,1.031.9h7.717a1.04,1.04,0,0,0,1.031-.9l.948-6.811a1.04,1.04,0,0,0-1.031-1.184ZM47.561,66h-.468V62.715a1.041,1.041,0,0,0-2.081,0V66h-.866V62.715a1.041,1.041,0,0,0-2.081,0V66h-.41L41,61.269H48.22Z" transform="translate(-20.156 -28.391)" fill="#fff"/>
      <path id="Path_1154" data-name="Path 1154" d="M40.795,54.886a1.041,1.041,0,0,0,1.041,1.041h7.5a1.041,1.041,0,0,0,0-2.081h-7.5A1.041,1.041,0,0,0,40.795,54.886Z" transform="translate(-21.132 -25.828)" fill="#fff"/>
      <path id="Path_1155" data-name="Path 1155" d="M74.9,59.187H65.282a1.04,1.04,0,0,0-1.031,1.184l.948,6.811a1.039,1.039,0,0,0,1.03.9h7.717a1.042,1.042,0,0,0,1.032-.9l.947-6.811A1.04,1.04,0,0,0,74.9,59.187ZM73.042,66h-.468V62.715a1.041,1.041,0,0,0-2.081,0V66h-.866V62.715a1.041,1.041,0,0,0-2.081,0V66h-.409l-.659-4.73H73.7Z" transform="translate(-32.381 -28.391)" fill="#fff"/>
      <path id="Path_1156" data-name="Path 1156" d="M66.275,54.886a1.041,1.041,0,0,0,1.041,1.041h7.5a1.041,1.041,0,0,0,0-2.081h-7.5A1.041,1.041,0,0,0,66.275,54.886Z" transform="translate(-33.356 -25.828)" fill="#fff"/>
      <path id="Path_1157" data-name="Path 1157" d="M23.935,59.188H14.321a1.04,1.04,0,0,0-1.031,1.184l.948,6.811a1.04,1.04,0,0,0,1.031.9h7.717a1.04,1.04,0,0,0,1.031-.9l.948-6.811a1.041,1.041,0,0,0-1.031-1.184ZM22.082,66h-.468V62.715a1.041,1.041,0,1,0-2.081,0V66h-.866V62.715a1.041,1.041,0,1,0-2.081,0V66h-.41l-.658-4.73H22.74Z" transform="translate(-7.932 -28.391)" fill="#fff"/>
      <path id="Path_1158" data-name="Path 1158" d="M50.154,45.315a1.04,1.04,0,1,0-1.04,1.04A1.04,1.04,0,0,0,50.154,45.315Z" transform="translate(-24.624 -21.237)" fill="#fff"/>
    </g>
  </g>
</svg>
