<svg xmlns="http://www.w3.org/2000/svg" width="82.732" height="88.027" viewBox="0 0 82.732 88.027">
  <g id="Group_385" data-name="Group 385" transform="translate(-277 -673)">
    <path id="Path_16919" data-name="Path 16919" d="M80.254,18.212,49.448,1.3a10.516,10.516,0,0,0-10.165,0L8.479,18.213A10.56,10.56,0,0,0,3,27.471V59.807a1.754,1.754,0,0,0,3.068,1.168L21.376,49.9a8.8,8.8,0,0,1,5.01-1.555H42.062a3.875,3.875,0,0,1,3.874,3.888v.176a3.881,3.881,0,0,1-3.866,3.857H32.044a1.76,1.76,0,0,0,0,3.521H44.2a7.036,7.036,0,0,0,3.713-1.059l16.008-9.936.034-.021a3.558,3.558,0,0,1,2.2-.289,3.522,3.522,0,0,1,1.539,6.207L43.84,70.64a8.768,8.768,0,0,1-4.872,1.472H19.735a1.755,1.755,0,0,0-1.748,1.638c0,.026-.005.051-.008.077s0,.03,0,.046,0,.027,0,.042a1.752,1.752,0,0,0,.9,1.6l20.4,11.2a10.512,10.512,0,0,0,10.166,0L80.253,69.8a10.56,10.56,0,0,0,5.48-9.258V27.471A10.564,10.564,0,0,0,80.254,18.212ZM82.212,60.54a7.038,7.038,0,0,1-3.653,6.172l-30.8,16.911a7.013,7.013,0,0,1-6.776,0L26.422,75.632H38.967a12.288,12.288,0,0,0,6.825-2.063L69.707,57.577c.035-.023.07-.048.1-.074a7.042,7.042,0,0,0-7.653-11.765,1.869,1.869,0,0,0-.246.16l-12.58,7.808a7.383,7.383,0,0,0,.124-1.279v-.176a7.4,7.4,0,0,0-7.395-7.424H26.386a12.34,12.34,0,0,0-7.039,2.2L6.521,56.3V27.471A7.041,7.041,0,0,1,10.173,21.3l30.8-16.911a7.01,7.01,0,0,1,6.777,0L78.559,21.3a7.041,7.041,0,0,1,3.653,6.172V60.54Z" transform="translate(274 673.008)" fill="#f5964e"/>
    <path id="Path_16920" data-name="Path 16920" d="M77.152,45.342H13.782a1.76,1.76,0,1,0,0,3.521H77.152a1.76,1.76,0,1,0,0-3.521Z" transform="translate(272.918 667.572)" fill="#f5964e"/>
    <path id="Path_16921" data-name="Path 16921" d="M20.765,39.317H71.843a1.76,1.76,0,0,0,0-3.521H69.15A22.777,22.777,0,0,0,48.931,14.582V12.476a1.76,1.76,0,0,0-3.521,0V14.45A22.8,22.8,0,0,0,23.458,35.8H20.765a1.76,1.76,0,0,0,0,3.521ZM46.3,17.948A19.283,19.283,0,0,1,65.619,35.8H26.989A19.283,19.283,0,0,1,46.3,17.948Z" transform="translate(272.082 671.723)" fill="#f5964e"/>
  </g>
</svg>
