<svg xmlns="http://www.w3.org/2000/svg" width="82.733" height="88.027" viewBox="0 0 82.733 88.027">
  <g id="Group_383" data-name="Group 383" transform="translate(-628 -673)">
    <path id="Path_16927" data-name="Path 16927" d="M80.254,18.213,49.448,1.3a10.516,10.516,0,0,0-10.165,0L8.479,18.213A10.56,10.56,0,0,0,3,27.472V60.54A10.559,10.559,0,0,0,8.479,69.8l30.8,16.911a10.512,10.512,0,0,0,10.166,0L80.253,69.8a10.56,10.56,0,0,0,5.48-9.258V27.472A10.564,10.564,0,0,0,80.254,18.213ZM82.212,60.54a7.038,7.038,0,0,1-3.653,6.172l-30.8,16.911a7.013,7.013,0,0,1-6.776,0l-30.8-16.911A7.04,7.04,0,0,1,6.521,60.54V27.472A7.04,7.04,0,0,1,10.172,21.3l30.8-16.911a7.011,7.011,0,0,1,6.778,0L78.56,21.3a7.041,7.041,0,0,1,3.653,6.172Z" transform="translate(625 673.008)" fill="#eec04e"/>
    <path id="Path_16928" data-name="Path 16928" d="M77.459,64.635c-.352-1.366-1.655-3.193-4.117-6.528-2.589-3.506-5.813-7.868-6.738-11.04-.637-2.009-1-7.529-1-15.141a1.714,1.714,0,0,0-.027-.271,1.77,1.77,0,0,0,.023-.228V28.915c0-.018.005-.034.005-.052s0-.051-.005-.077v-.027a5.751,5.751,0,0,0-5.436-5.951H54.676c0-.329.008-.7.011-1.164a1.76,1.76,0,0,0-3.521-.035l-.014,1.2H31.2c0-.33.005-.7.008-1.167a1.76,1.76,0,0,0-1.748-1.77H29.45a1.76,1.76,0,0,0-1.76,1.745l-.01,1.192H22.306a4.671,4.671,0,0,0-1.12.139A5.693,5.693,0,0,0,16,28.611V57.1a5.648,5.648,0,0,0,1.666,4.022,5.754,5.754,0,0,0,4.023,1.667h4.43a1.756,1.756,0,0,0,.479-.074c1.76,2.658,7.28,10.495,11.664,11.429,2.214.949,7.469,1.4,10.142,1.4.4,0,.745-.011,1.011-.031,11.436-.874,21.718-3.721,28.214-7.81a1.759,1.759,0,0,0,.552-2.427A1.74,1.74,0,0,0,77.459,64.635ZM20.541,28.78a2.518,2.518,0,0,1,1.274-2.337H27.66A1.756,1.756,0,0,0,29.4,28.118h.012a1.757,1.757,0,0,0,1.752-1.675H51.12a1.756,1.756,0,0,0,1.732,1.675h.018a1.758,1.758,0,0,0,1.753-1.675h4.262c1.331,0,3.154,1.375,3.189,2.39v.833H20.541Zm1.147,30.488a2.267,2.267,0,0,1-1.533-.635,2.154,2.154,0,0,1-.635-1.533v-9A55.711,55.711,0,0,0,22.2,54.265c.341.669.7,1.428,1.082,2.231.419.882.869,1.825,1.347,2.772Zm7.363.763c-.944-1.582-1.817-3.421-2.587-5.044-.4-.835-.771-1.625-1.125-2.32A55.909,55.909,0,0,1,19.7,33.186H62.086c.03,5.5.268,12.116,1.15,14.9,1.09,3.735,4.519,8.379,7.276,12.109,1.079,1.462,2.349,3.181,3.038,4.308-8.832,1.853-28.381,1.773-31.661.131a1.761,1.761,0,0,0-2.522,1.876c.291,1.692.212,3.764-.178,4.2C37.545,71.177,31.588,64.281,29.052,60.031ZM49.148,72a37.9,37.9,0,0,1-6.5-.423,9.238,9.238,0,0,0,.424-3c5.085.926,14.7,1.064,22.724.457A79.391,79.391,0,0,1,49.148,72Z" transform="translate(623.442 670.625)" fill="#eec04e"/>
    <path id="Path_16929" data-name="Path 16929" d="M43.76,43.34c1.034-.05,1.839.307,2.31,2.073A6.458,6.458,0,0,0,43.1,53.107a1.59,1.59,0,0,1-.066,1.137,7.831,7.831,0,0,0-.227,6.076c1.059,2.612,3.137,3.926,6.2,3.926a13.533,13.533,0,0,0,2.352-.224c6.7-1.192,7.848-4.652,7.938-6.608a8.024,8.024,0,0,0-3.37-6.78,1.646,1.646,0,0,1-.631-1.069,5.828,5.828,0,0,0-.7-1.971,6.227,6.227,0,0,0-4.622-2.957,5.467,5.467,0,0,0,2.84-1.7,6.16,6.16,0,0,0,1.3-4.65,1.763,1.763,0,0,0-1.4-1.469,4.992,4.992,0,0,0-4.187,1.092,6,6,0,0,0-1.727,2.656,5.64,5.64,0,0,0-3.229-.747,1.76,1.76,0,1,0,.183,3.515Zm7.787,6.02a2.282,2.282,0,0,1,.275.778,5.137,5.137,0,0,0,2.015,3.329h0a4.52,4.52,0,0,1,1.942,3.785c-.1,2.112-3.2,2.977-5.038,3.3-3.311.591-4.2-.4-4.668-1.559a4.407,4.407,0,0,1,.2-3.362,5.125,5.125,0,0,0,.179-3.623,2.949,2.949,0,0,1,2.222-3.861,2.9,2.9,0,0,1,.508-.045A2.747,2.747,0,0,1,51.546,49.36Z" transform="translate(620.336 668.604)" fill="#eec04e"/>
  </g>
</svg>
