<svg xmlns="http://www.w3.org/2000/svg" width="65.789" height="69.998" viewBox="0 0 65.789 69.998">
  <g id="Group_680" data-name="Group 680" transform="translate(-7219.605 -19173.686)">
    <path id="Path_1190" data-name="Path 1190" d="M64.432,14.481,39.935,1.033a8.363,8.363,0,0,0-8.083,0L7.357,14.482A8.4,8.4,0,0,0,3,21.844v26.3A8.4,8.4,0,0,0,7.357,55.5l24.5,13.447a8.359,8.359,0,0,0,8.084,0L64.431,55.5a8.4,8.4,0,0,0,4.357-7.362v-26.3A8.4,8.4,0,0,0,64.432,14.481ZM8.7,16.936,33.2,3.489a5.575,5.575,0,0,1,5.39,0l24.5,13.447A5.578,5.578,0,0,1,64.4,17.952H7.385A5.586,5.586,0,0,1,8.7,16.936Zm57.286,31.2a5.6,5.6,0,0,1-2.905,4.908L38.588,66.5a5.577,5.577,0,0,1-5.388,0L8.7,53.048A5.6,5.6,0,0,1,5.8,48.14v-26.3a5.557,5.557,0,0,1,.12-1.093H65.87a5.609,5.609,0,0,1,.12,1.093Z" transform="translate(7216.605 19173.693)" fill="#231f20"/>
    <path id="Path_1191" data-name="Path 1191" d="M71.523,49.464l2.516-2.22a1.4,1.4,0,1,0-1.852-2.1l-2.516,2.219a1.4,1.4,0,0,0,1.852,2.1Z" transform="translate(7196.738 19160.248)" fill="#231f20"/>
    <path id="Path_1192" data-name="Path 1192" d="M15.346,33.345h4.63c0,.045-.013.088-.013.134v4.093a1.4,1.4,0,1,0,2.8,0V33.479c0-.046-.009-.09-.013-.134h4.63A1.345,1.345,0,0,0,28.724,32V30.725H14V32A1.346,1.346,0,0,0,15.346,33.345Z" transform="translate(7213.304 19164.471)" fill="#231f20"/>
    <path id="Path_1193" data-name="Path 1193" d="M40.827,33.345h4.63c0,.045-.013.088-.013.134v4.093a1.4,1.4,0,0,0,2.8,0V33.479c0-.046-.009-.09-.013-.134h4.63A1.346,1.346,0,0,0,54.205,32V30.725H39.481V32A1.346,1.346,0,0,0,40.827,33.345Z" transform="translate(7205.657 19164.471)" fill="#231f20"/>
    <path id="Path_1194" data-name="Path 1194" d="M66.307,33.345h4.63c0,.045-.013.088-.013.134v4.093a1.4,1.4,0,1,0,2.8,0V33.479c0-.046-.009-.09-.013-.134h4.63A1.346,1.346,0,0,0,79.685,32V30.725H64.961V32A1.346,1.346,0,0,0,66.307,33.345Z" transform="translate(7198.01 19164.471)" fill="#231f20"/>
    <path id="Path_1195" data-name="Path 1195" d="M53.093,59.188H40.161a1.4,1.4,0,0,0-1.386,1.593l1.275,9.162a1.4,1.4,0,0,0,1.386,1.207H51.818A1.4,1.4,0,0,0,53.2,69.944l1.275-9.163a1.4,1.4,0,0,0-1.386-1.593ZM50.6,68.351H49.97V63.933a1.4,1.4,0,1,0-2.8,0v4.418H46.005V63.933a1.4,1.4,0,1,0-2.8,0v4.418h-.552l-.885-6.363h9.716Z" transform="translate(7205.873 19155.928)" fill="#231f20"/>
    <path id="Path_1196" data-name="Path 1196" d="M40.795,55.245a1.4,1.4,0,0,0,1.4,1.4H52.281a1.4,1.4,0,0,0,0-2.8H42.195A1.4,1.4,0,0,0,40.795,55.245Z" transform="translate(7205.262 19157.531)" fill="#231f20"/>
    <path id="Path_1197" data-name="Path 1197" d="M78.574,59.187H65.642a1.4,1.4,0,0,0-1.386,1.593l1.275,9.163a1.4,1.4,0,0,0,1.386,1.207H77.3a1.4,1.4,0,0,0,1.388-1.207l1.274-9.163a1.4,1.4,0,0,0-1.386-1.593ZM76.08,68.351h-.63V63.933a1.4,1.4,0,1,0-2.8,0v4.418H71.486V63.933a1.4,1.4,0,1,0-2.8,0v4.418h-.551l-.886-6.363h9.716Z" transform="translate(7198.226 19155.928)" fill="#231f20"/>
    <path id="Path_1198" data-name="Path 1198" d="M66.275,55.245a1.4,1.4,0,0,0,1.4,1.4H77.761a1.4,1.4,0,0,0,0-2.8H67.675A1.4,1.4,0,0,0,66.275,55.245Z" transform="translate(7197.615 19157.531)" fill="#231f20"/>
    <path id="Path_1199" data-name="Path 1199" d="M27.613,59.188H14.681a1.4,1.4,0,0,0-1.386,1.593l1.275,9.162a1.4,1.4,0,0,0,1.386,1.207H26.338a1.4,1.4,0,0,0,1.386-1.207L29,60.781a1.4,1.4,0,0,0-1.386-1.593ZM25.12,68.351h-.63V63.933a1.4,1.4,0,1,0-2.8,0v4.418H20.525V63.933a1.4,1.4,0,1,0-2.8,0v4.418h-.552l-.885-6.363h9.716Z" transform="translate(7213.52 19155.928)" fill="#231f20"/>
    <path id="Path_1200" data-name="Path 1200" d="M50.872,45.674a1.4,1.4,0,1,0-1.4,1.4A1.4,1.4,0,0,0,50.872,45.674Z" transform="translate(7203.078 19160.402)" fill="#231f20"/>
  </g>
</svg>
