<svg xmlns="http://www.w3.org/2000/svg" width="65.789" height="69.999" viewBox="0 0 65.789 69.999">
  <g id="Group_655" data-name="Group 655" transform="translate(508.051 -2148.685)">
    <path id="Path_1182" data-name="Path 1182" d="M35.894,69.991a8.386,8.386,0,0,1-4.042-1.042L7.357,55.5A8.4,8.4,0,0,1,3,48.14v-26.3a8.4,8.4,0,0,1,4.357-7.362l24.5-13.448a8.363,8.363,0,0,1,8.083,0l24.5,13.447a8.4,8.4,0,0,1,4.357,7.363v26.3A8.4,8.4,0,0,1,64.431,55.5l-24.5,13.448A8.386,8.386,0,0,1,35.894,69.991Zm0-67.2a5.6,5.6,0,0,0-2.7.695L8.7,16.936a5.6,5.6,0,0,0-2.9,4.908v26.3a5.6,5.6,0,0,0,2.9,4.908L33.2,66.5a5.577,5.577,0,0,0,5.388,0l24.5-13.448a5.6,5.6,0,0,0,2.905-4.908v-26.3a5.6,5.6,0,0,0-2.9-4.908L38.589,3.488A5.6,5.6,0,0,0,35.894,2.794Z" transform="translate(-511.051 2148.693)"/>
    <path id="Path_1183" data-name="Path 1183" d="M64.113,22.41a1.4,1.4,0,0,0-1.783-.862l-4.963,1.729a1.41,1.41,0,0,0-.421.234L51.1,28.247l-2.333-2.333a1.4,1.4,0,0,0-.99-.41H40.708V22.9a1.4,1.4,0,0,0-1.4-1.4H24.867a1.4,1.4,0,0,0-1.4,1.4v4.045a1.417,1.417,0,0,0,.036.306V60.768a1.4,1.4,0,0,0,1.4,1.4H54.07a1.4,1.4,0,0,0,1.4-1.4V33.194a1.4,1.4,0,0,0-.41-.99l-1.967-1.967,5.427-4.4,4.733-1.648A1.4,1.4,0,0,0,64.113,22.41Zm-26.2,1.89v1.2H26.267V24.3ZM52.67,59.369H26.3V28.3H47.2l2.471,2.471a1.4,1.4,0,0,0,.177.29,1.388,1.388,0,0,0,.5.391l2.319,2.319V59.369Z" transform="translate(-517.193 2142.247)"/>
    <path id="Path_1184" data-name="Path 1184" d="M79.465,38.625a4.18,4.18,0,0,1-3.853-4.435c0-1.631,1.368-3.659,2.515-5.073a1.764,1.764,0,0,1,2.676,0c1.146,1.412,2.515,3.439,2.515,5.072A4.18,4.18,0,0,1,79.465,38.625Zm0-6.625a5.411,5.411,0,0,0-1.053,2.19c0,.964.555,1.636,1.053,1.636s1.053-.672,1.053-1.636A5.407,5.407,0,0,0,79.465,32Zm-.836-1.118,0,0Z" transform="translate(-532.843 2140.136)"/>
    <path id="Path_1185" data-name="Path 1185" d="M52.547,58.5a1.406,1.406,0,0,0-1.2-.234c-.68.182-1.722.272-3.753-.661a2.825,2.825,0,0,1-1.9-2.818l.009-.034A1.4,1.4,0,0,0,43.86,53.1,4.46,4.46,0,0,0,42.137,54.2a4.241,4.241,0,0,0-.566.753,3.766,3.766,0,0,0-.2-1.127,4.443,4.443,0,0,0-2.449-2.48,1.4,1.4,0,0,0-1.564.386,3.63,3.63,0,0,0-.818,3.041,4.216,4.216,0,0,0,.9,1.852,4.167,4.167,0,0,0-1.427,1.646,1.4,1.4,0,0,0,.624,1.881,1.384,1.384,0,0,0,.628.15,1.4,1.4,0,0,0,1.253-.773,1.067,1.067,0,0,1,1.062-.691,4.364,4.364,0,0,0-.756,1.661,4.579,4.579,0,0,0-.016,1.782,1.4,1.4,0,0,0,2.1.946c1.093-.666,3.4-.433,4.893,1.734l.1.148a5.767,5.767,0,0,1,.72,1.22,1.4,1.4,0,0,0,1.771.838c.181-.063.359-.131.533-.205a3.878,3.878,0,0,0,2.281-3.525,4.611,4.611,0,0,0,1.9-3.847A1.4,1.4,0,0,0,52.547,58.5Zm-3.139,2.785a1.4,1.4,0,0,0-1.034,1.784,1.4,1.4,0,0,1-.015.67L48.2,63.5l-.094-.134a7.191,7.191,0,0,0-5.875-3.261h-.041A3.115,3.115,0,0,1,42.6,59.8a2.341,2.341,0,0,0,1.1-1.958,6.415,6.415,0,0,0,2.727,2.308,10.885,10.885,0,0,0,3.191.983A.716.716,0,0,1,49.408,61.282Z" transform="translate(-520.912 2133.308)"/>
    <path id="Path_1186" data-name="Path 1186" d="M46.443,46.7" transform="translate(-524.089 2134.676)" fill="none" stroke="#000" stroke-linecap="round" stroke-linejoin="round" stroke-width="4"/>
    <path id="Path_1187" data-name="Path 1187" d="M47.306,37.433a1.4,1.4,0,0,0-1.4,1.4v1.8H43.532v-1.8a1.4,1.4,0,1,0-2.8,0v6.336a1.4,1.4,0,1,0,2.8,0v-1.74h2.375v1.739a1.4,1.4,0,1,0,2.8,0V38.832A1.4,1.4,0,0,0,47.306,37.433Z" transform="translate(-522.375 2137.456)"/>
    <path id="Path_1188" data-name="Path 1188" d="M58.884,41.418H58.84V37.713a1.4,1.4,0,1,0-2.8,0v1a1.376,1.376,0,0,0-.352-.262,1.4,1.4,0,0,0-1.881.616l-1.58,3.12a1.4,1.4,0,0,0,1.247,2.032c.008,0,.017,0,.025,0H56.04v.923a1.4,1.4,0,0,0,2.8,0v-.923h.043a1.4,1.4,0,0,0,0-2.8Zm-3.128,0,.285-.563v.563Z" transform="translate(-525.779 2137.792)"/>
    <path id="Path_1189" data-name="Path 1189" d="M33.3,46.615a4.588,4.588,0,1,1,2.941-8.11,1.4,1.4,0,0,1-1.8,2.148,1.766,1.766,0,0,0-1.146-.415,1.789,1.789,0,0,0,0,3.577,1.766,1.766,0,0,0,1.328-.591A1.4,1.4,0,0,1,36.708,45.1,4.592,4.592,0,0,1,33.3,46.615Z" transform="translate(-518.767 2137.454)"/>
  </g>
</svg>
