<svg xmlns="http://www.w3.org/2000/svg" width="47.516" height="50.609" viewBox="0 0 47.516 50.609">
  <g id="Group_648" data-name="Group 648" transform="translate(-18443.09 -11177.477)">
    <g id="Icons_Increase_Resilience" data-name="Icons_Increase Resilience" transform="translate(18443.779 11178.143)" style="isolation: isolate">
      <path id="Path_5" data-name="Path 5" d="M75.135,46.464V26.917a5.2,5.2,0,0,0-2.7-4.561l-18.209-10a5.2,5.2,0,0,0-5.007,0l-18.21,10a5.2,5.2,0,0,0-2.7,4.561V46.464a5.2,5.2,0,0,0,2.7,4.559l18.21,10a5.2,5.2,0,0,0,5.007,0l18.21-10a5.2,5.2,0,0,0,2.7-4.559Z" transform="translate(-28.31 -11.718)" fill="#3e89ff"/>
      <path id="Path_382" data-name="Path 382" d="M0,25.891" transform="translate(23.454 -2.84)" fill="none"/>
      <path id="Path_9" data-name="Path 9" d="M363.2,409.538" transform="translate(-330.636 -372.068)" fill="#bfbfbf"/>
    </g>
    <g id="COMMUNITY-LOCAL_1_" data-name="COMMUNITY-LOCAL (1)" transform="translate(18443.09 11177.477)">
      <path id="Path_1134" data-name="Path 1134" d="M47.378,10.475,29.667.759a5.956,5.956,0,0,0-5.819,0L6.137,10.475A6.068,6.068,0,0,0,3,15.788V34.814a6.068,6.068,0,0,0,3.137,5.313l13.2,7.243.025.014,4.482,2.459a6.042,6.042,0,0,0,2.935.759,5.715,5.715,0,0,0,2.884-.759l17.711-9.716a6.068,6.068,0,0,0,3.137-5.313V15.788A6.068,6.068,0,0,0,47.378,10.475Zm1.164,5.313v4.654c-.01.021-.023.038-.031.06a6.232,6.232,0,0,1-1.5,1.042L40.241,25.51a.544.544,0,0,1-.641-.1.431.431,0,0,1,.123-.6h0l1.664-.961a1,1,0,0,0,.234-.193l1.8-1.04a1.012,1.012,0,1,0-1.012-1.753l-3.111,1.8c-.088.051-.714.471-.762.5l-1.228.709-.263.152-.394.228a.315.315,0,0,1-.3-.005.428.428,0,0,1-.239-.213.5.5,0,0,1,.236-.6l5.54-3.257a1.012,1.012,0,0,0-1.012-1.753l-3.459,2.034a1.014,1.014,0,0,0-.222.092l-3.112,1.8a.431.431,0,0,1-.578-.192.5.5,0,0,1,.236-.6l1.272-.745c.014-.006.029-.008.043-.014l.219-.127,1.8-1.07,3.343-1.96a1.012,1.012,0,0,0-1.012-1.753l-1.436.842a1,1,0,0,0-.1.044l-1.859,1.1-1.84,1.078a.449.449,0,0,1-.535-.2.545.545,0,0,1,.236-.6l5.152-2.916a.967.967,0,0,0,.1-.07c.3-.075.659-.16,1.063-.249a7.643,7.643,0,0,0,4.332,1.531,1.064,1.064,0,0,0,1.05-1.015,1.039,1.039,0,0,0-.972-1.075c-.659-.028-2.512-.3-3.294-1.253a1.071,1.071,0,0,0-.993-.3c-1.455.314-2.571.608-2.658.658s-.132.076-.2.057a.6.6,0,0,1-.447-.268,13.232,13.232,0,0,1,1.78-.56c.558-.147,1.16-.319,1.6-.459l.865-.324a8.055,8.055,0,0,1,2.075-.555.176.176,0,0,0,.113-.007,12.211,12.211,0,0,1,1.383.047l1.584.871A4.03,4.03,0,0,1,48.542,15.788ZM24.809,2.53a4.093,4.093,0,0,1,1.973-.506,3.773,3.773,0,0,1,1.923.506l12.937,7.1c-.337.105-.68.228-1.062.379l-.865.324a12.063,12.063,0,0,1-1.448.427c-1.987.5-3.391.906-3.412,2.086a2.613,2.613,0,0,0,.818,1.955l-2.8,1.587a2.479,2.479,0,0,0-.666,3.828,2.515,2.515,0,0,0-.748,1.748,4.853,4.853,0,0,0-9.482.666,2.519,2.519,0,0,0-.385-1.9,2.028,2.028,0,0,0,.259-.261,2.506,2.506,0,0,0-.593-3.456c-.026-.046-.053-.061-.143-.106a2.525,2.525,0,0,0,.522-.756,2.464,2.464,0,0,0-1.075-3.177L13.87,9.183l-.095-.062c-.159-.092-.322-.182-.487-.271Zm1.973,26.009c-1.72-2.378-2.834-4.4-2.834-5.263a2.834,2.834,0,1,1,5.667,0C29.617,24.137,28.5,26.212,26.783,28.539ZM7.1,12.246,11.008,10.1c.02,0,.04,0,.061,0a4.506,4.506,0,0,1,1.679.783l6.808,3.9a.42.42,0,0,1,.216.576.626.626,0,0,1-.256.265.438.438,0,0,1-.339.02c-.069-.019-.585-.305-.654-.323l-3.146-1.806a1.04,1.04,0,0,0-1.36.376.981.981,0,0,0,.376,1.36l1.685.967a1,1,0,0,0,.343.317l3.052,1.744a2.683,2.683,0,0,0,.258.143,4.76,4.76,0,0,1,.422.224.41.41,0,0,1,.1.583.432.432,0,0,1-.5.144l-2.011-1.149a.95.95,0,0,0-.2-.088l-3.531-2.023a1,1,0,0,0-.984,1.737l3.552,1.985a1.006,1.006,0,0,0,.179.127l3.077,1.788a.426.426,0,0,1,.1.583.535.535,0,0,1-.652.085l-6.714-3.837a1,1,0,1,0-.984,1.737l1.323.756a1.013,1.013,0,0,0,.181.129l1.85,1.032,1.9,1.085a1.071,1.071,0,0,1,.134.257.336.336,0,0,1-.049.32.487.487,0,0,1-.627.129L11.226,21a.985.985,0,0,0-.157-.081c-.221-.225-.48-.494-.757-.793a7.6,7.6,0,0,0-.836-4.484,1.013,1.013,0,1,0-1.8.924c.285.6.977,2.3.549,3.481a1,1,0,0,0,.2,1.054,27.4,27.4,0,0,0,1.911,1.994c.069.019.12.106.145.15a.531.531,0,0,1,.009.521c-.428-.337-.983-.893-1.393-1.3s-.82-.812-1.179-1.131a9.48,9.48,0,0,0-.719-.637,8.521,8.521,0,0,1-1.52-1.519l-.051-.088a6.936,6.936,0,0,1-.6-1.116V15.788A3.983,3.983,0,0,1,7.1,12.246ZM5.024,34.814v-13.3c.261.244.54.489.858.753.214.169.453.381.693.593.29.3.675.662,1.084,1.069C8.838,25.06,9.734,26,10.594,25.974a.965.965,0,0,0,.62-.241,2.482,2.482,0,0,0,1.248-1.655L15.25,25.74a2.094,2.094,0,0,0,1.27.377,2.222,2.222,0,0,0,1.935-1,2.288,2.288,0,0,0,.355-.715,1.883,1.883,0,0,0,.766.126,2.472,2.472,0,0,0,2-.982,2.412,2.412,0,0,0,.388-.877,4.812,4.812,0,0,0-.043.608c0,1.973,2.429,5.364,3.846,7.236a1.082,1.082,0,0,0,.349.313,2.594,2.594,0,0,0-.79.43,2.309,2.309,0,0,0-.631.821,2.648,2.648,0,0,0-.552-.138,2.521,2.521,0,0,0-1.78.56,2.433,2.433,0,0,0-.9,1.686.8.8,0,0,0-.022.253,2.96,2.96,0,0,0-.806-.067,2.5,2.5,0,0,0-2.23,2.514l.053,7.682c0,.006,0,.016,0,.023L7.1,38.356A4.084,4.084,0,0,1,5.024,34.814ZM28.706,48.072a4.093,4.093,0,0,1-3.9,0l-4.295-2.356c-.037-.212-.017-.529-.033-.793a2.246,2.246,0,0,1,0-.408l-.053-7.682a.5.5,0,0,1,.425-.479.4.4,0,0,1,.346.093q.1.028.152.263a2.608,2.608,0,0,1,.066.722L21.4,41.059a1,1,0,0,0,.99,1.006.962.962,0,0,0,1.006-.99l.005-2.122a1.1,1.1,0,0,0,.053-.307l.016-3.515a.716.716,0,0,0,.005-.3,3.078,3.078,0,0,1-.027-.452.461.461,0,0,1,.143-.258c.044-.025.15-.145.288-.108a.472.472,0,0,1,.416.519L24.348,41A.952.952,0,0,0,25.338,42a1.113,1.113,0,0,0,1.043-1.128l-.014-4.02a1.071,1.071,0,0,0,.014-.129l-.01-3.559a.44.44,0,0,1,.162-.327c.044-.025.15-.145.288-.108a.472.472,0,0,1,.416.519L27.272,41a.952.952,0,0,0,.99,1.006,1.184,1.184,0,0,0,1.093-1.04l-.028-6.232a.349.349,0,0,1,.1-.12c.044-.025.15-.145.288-.108a.48.48,0,0,1,.416.519l-.1,5.9a1.114,1.114,0,0,0,.037.288c-.079.272-.172.576-.283.906a7.591,7.591,0,0,0-3.5,2.953,1.018,1.018,0,0,0,1.7,1.122,5.338,5.338,0,0,1,2.746-2.228.93.93,0,0,0,.775-.681c.266-.9.489-1.707.621-2.188.012-.039.025-.078.033-.119v0l.093-.342c.019-.069.062-.095.081-.163a.717.717,0,0,1,.369-.272.05.05,0,0,0,.069.019,15.585,15.585,0,0,1-.412,1.816c-.148.553-.315,1.175-.4,1.633a8.8,8.8,0,0,1-.172.917,8.51,8.51,0,0,1-.556,2.074c-.006.01-.008.021-.013.03Zm17.711-9.716-12.585,6.9c.017-.1.034-.2.051-.3a8.792,8.792,0,0,0,.172-.917c.086-.458.216-.942.364-1.5.493-1.979.864-3.362-.15-4a2.771,2.771,0,0,0-1.991-.311c-.021.005-.04.015-.061.02l.053-3.171a2.484,2.484,0,0,0-2.214-2.519,2.458,2.458,0,0,0-.8.055A2.477,2.477,0,0,0,27.5,30.785a1.517,1.517,0,0,0,.291-.272c1.467-1.872,3.846-5.263,3.846-7.236,0-.135-.01-.268-.02-.4.014.037.02.074.036.111a2.609,2.609,0,0,0,1.393,1.3,2.4,2.4,0,0,0,.848.153,2.1,2.1,0,0,0,.226,0,2.518,2.518,0,0,0,.14.431A2.432,2.432,0,0,0,36.5,26.324a2.961,2.961,0,0,0,1.028-.243.323.323,0,0,0,.146-.042,2.591,2.591,0,0,0,.3.605,2.544,2.544,0,0,0,1.988,1.014,1.974,1.974,0,0,0,1.335-.42l6.636-3.89.088-.051q.264-.153.521-.31V34.814A4.028,4.028,0,0,1,46.416,38.356Z" transform="translate(-3 0)" fill="#fcfcfc"/>
      <path id="Path_1135" data-name="Path 1135" d="M48.865,43.2h-.051A1.2,1.2,0,0,0,47.6,44.414a1.231,1.231,0,0,0,1.214,1.214,1.313,1.313,0,0,0,1.265-1.214A1.231,1.231,0,0,0,48.865,43.2Z" transform="translate(-25.032 -21.34)" fill="#fcfcfc"/>
    </g>
  </g>
</svg>
