<svg xmlns="http://www.w3.org/2000/svg" width="65.729" height="69.999" viewBox="0 0 65.729 69.999">
  <g id="Group_650" data-name="Group 650" transform="translate(1899.364 -2148.686)">
    <path id="Path_1217" data-name="Path 1217" d="M35.9,70a8.358,8.358,0,0,1-4.06-1.05L7.34,55.509A8.394,8.394,0,0,1,3,48.159V21.84a8.394,8.394,0,0,1,4.34-7.35L31.84,1.05a8.239,8.239,0,0,1,8.05,0l24.5,13.44a8.394,8.394,0,0,1,4.34,7.35v26.32a8.394,8.394,0,0,1-4.34,7.35l-24.5,13.44A7.905,7.905,0,0,1,35.9,70Zm0-67.2a5.661,5.661,0,0,0-2.73.7L8.67,16.94a5.51,5.51,0,0,0-2.87,4.9v26.32a5.65,5.65,0,0,0,2.87,4.9L33.17,66.5a5.662,5.662,0,0,0,5.39,0l24.5-13.44a5.51,5.51,0,0,0,2.87-4.9V21.84a5.575,5.575,0,0,0-2.94-4.9L38.56,3.5A5.22,5.22,0,0,0,35.9,2.8Z" transform="translate(-1902.364 2148.686)"/>
    <path id="Path_1218" data-name="Path 1218" d="M17.01,36.42a6.51,6.51,0,1,1,6.51-6.51A6.543,6.543,0,0,1,17.01,36.42Zm0-10.22a3.71,3.71,0,1,0,3.71,3.71A3.735,3.735,0,0,0,17.01,26.2Z" transform="translate(-1904.614 2141.665)"/>
    <path id="Path_1219" data-name="Path 1219" d="M33.8,26.5a4.9,4.9,0,1,1,4.9-4.9A4.914,4.914,0,0,1,33.8,26.5Zm0-7a2.1,2.1,0,1,0,2.1,2.1A2.062,2.062,0,0,0,33.8,19.5Z" transform="translate(-1910.135 2143.675)"/>
    <path id="Path_1220" data-name="Path 1220" d="M48.88,23.66a4.48,4.48,0,1,1,4.48-4.48A4.511,4.511,0,0,1,48.88,23.66Zm0-6.16a1.68,1.68,0,1,0,1.68,1.68A1.7,1.7,0,0,0,48.88,17.5Z" transform="translate(-1914.785 2144.275)"/>
    <path id="Path_1221" data-name="Path 1221" d="M74.06,33.62a4.06,4.06,0,1,1,4.06-4.06A4.063,4.063,0,0,1,74.06,33.62Zm0-5.32a1.26,1.26,0,1,0,1.26,1.26A1.3,1.3,0,0,0,74.06,28.3Z" transform="translate(-1922.465 2141.035)"/>
    <path id="Path_1222" data-name="Path 1222" d="M62.36,26.92a4.06,4.06,0,1,1,4.06-4.06A4.063,4.063,0,0,1,62.36,26.92Zm0-5.25a1.26,1.26,0,1,0,1.26,1.26A1.3,1.3,0,0,0,62.36,21.67Z" transform="translate(-1918.955 2143.045)"/>
    <path id="Path_1223" data-name="Path 1223" d="M34.76,76.069a1.365,1.365,0,0,1-1.33-.98c-.91-3.15-2.87-5.6-5.11-8.4-.7-.91-1.47-1.89-2.24-2.87l-1.26-1.54A20.553,20.553,0,0,1,20.9,50.1a21,21,0,0,1,42-.07h0a69.272,69.272,0,0,1-2.59,18.76,1.418,1.418,0,0,1-2.73-.77,68.56,68.56,0,0,0,2.45-17.99,18.2,18.2,0,1,0-36.4,0A18.576,18.576,0,0,0,26.99,60.6l1.19,1.54c.77,1.05,1.47,1.96,2.24,2.87,2.31,2.94,4.55,5.74,5.6,9.38a1.416,1.416,0,0,1-.91,1.75C34.97,76,34.9,76.069,34.76,76.069Z" transform="translate(-1907.734 2139.955)"/>
    <path id="Path_1224" data-name="Path 1224" d="M33.38,61.76a5.88,5.88,0,1,1,0-11.76,5.706,5.706,0,0,1,4.55,2.17,1.394,1.394,0,0,1-2.17,1.75,3.092,3.092,0,1,0-.21,4.13,1.386,1.386,0,0,1,1.96,1.96A5.6,5.6,0,0,1,33.38,61.76Z" transform="translate(-1909.715 2133.685)"/>
    <path id="Path_1225" data-name="Path 1225" d="M49.14,61.88a5.74,5.74,0,1,1,5.74-5.74A5.766,5.766,0,0,1,49.14,61.88Zm0-8.61a2.94,2.94,0,1,0,2.94,2.94A2.958,2.958,0,0,0,49.14,53.27Z" transform="translate(-1914.485 2133.565)"/>
    <path id="Path_1226" data-name="Path 1226" d="M68.37,61.94h-6.3a1.4,1.4,0,0,1-1.4-1.4c0-2.24,2.1-3.5,3.99-4.55.77-.42,2.38-1.33,2.38-1.75,0-.63-1.05-.91-1.82-.91h0c-.49,0-1.75.14-1.82.98a1.4,1.4,0,0,1-1.4,1.4h0a1.4,1.4,0,0,1-1.4-1.4c0-2.17,1.96-3.71,4.55-3.71h.07c2.66,0,4.62,1.61,4.62,3.71,0,2.03-2.03,3.22-3.78,4.2-.35.21-.84.49-1.26.77h3.5a1.4,1.4,0,0,1,1.4,1.4A1.271,1.271,0,0,1,68.37,61.94Z" transform="translate(-1919.645 2133.505)"/>
  </g>
</svg>
