<svg xmlns="http://www.w3.org/2000/svg" width="82.678" height="87.988" viewBox="0 0 82.678 87.988">
  <g id="Group_4842" data-name="Group 4842" transform="translate(18493 19471)">
    <g id="ECONOMY" transform="translate(-18493 -19471)">
      <g id="Cycle_x5F_Hexagon" transform="translate(29.893 0)">
        <path id="Path_16912" data-name="Path 16912" d="M83.75,17.979,53.455,1.346a10.529,10.529,0,0,0-10.18,0L37.857,4.33a1.76,1.76,0,1,0,1.7,3.084l5.417-2.981a7.02,7.02,0,0,1,6.789,0l30.3,16.632a8.1,8.1,0,0,1,4.156,7.128V59.9a8.1,8.1,0,0,1-4.156,7.128l-13.1,7.192,1.931-6.232a1.76,1.76,0,0,0-3.362-1.042L64.3,77.343a.051.051,0,0,1,0,.012,1.66,1.66,0,0,0-.048.237c-.005.035-.017.07-.02.1a1.618,1.618,0,0,0,0,.185c0,.052,0,.1,0,.157s.017.079.023.119a1.734,1.734,0,0,0,.044.216c.011.033.027.066.04.1a1.822,1.822,0,0,0,.094.222c0,.005,0,.011.007.017s.02.025.028.039a1.749,1.749,0,0,0,.223.3c.026.029.053.057.081.084a1.706,1.706,0,0,0,.3.231c.012.008.024.018.037.026a1.763,1.763,0,0,0,.337.151l10.195,3.277a1.761,1.761,0,0,0,1.077-3.352l-6.3-2.025L83.75,70.118A11.622,11.622,0,0,0,89.731,59.9V28.193A11.619,11.619,0,0,0,83.75,17.979Z" transform="translate(-36.945 -0.035)" fill="#eec04e"/>
      </g>
      <g id="Your_Icon" transform="translate(0 5.124)">
        <path id="Path_16913" data-name="Path 16913" d="M72.425,51.632a7.041,7.041,0,0,0-10.291-5.123,1.732,1.732,0,0,0-.246.16l-12.58,7.809a7.32,7.32,0,0,0,.124-1.281V53.02A7.4,7.4,0,0,0,42.039,45.6H26.363a12.344,12.344,0,0,0-7.039,2.2L6.518,57.058v-28.2a8.1,8.1,0,0,1,4.156-7.128l13.1-7.193-1.931,6.232A1.76,1.76,0,1,0,25.208,21.8l3.22-10.392c0-.005,0-.011,0-.016a1.627,1.627,0,0,0,.041-.205c.008-.045.021-.09.026-.135s0-.1,0-.151a1.712,1.712,0,0,0,0-.19c0-.034-.015-.069-.02-.1a1.686,1.686,0,0,0-.048-.231c-.01-.033-.026-.062-.039-.1a1.749,1.749,0,0,0-.1-.225l-.007-.017c-.018-.033-.042-.06-.062-.091a1.652,1.652,0,0,0-.123-.179c-.033-.041-.072-.076-.108-.113a1.641,1.641,0,0,0-.132-.128,1.688,1.688,0,0,0-.141-.1c-.047-.032-.092-.064-.142-.092a1.909,1.909,0,0,0-.18-.078c-.039-.016-.075-.037-.115-.05L17.09,5.941a1.76,1.76,0,1,0-1.077,3.352l6.3,2.025L8.98,18.639A11.619,11.619,0,0,0,3,28.853v31.4a1.75,1.75,0,0,0,.008.538A11.61,11.61,0,0,0,8.98,70.778l30.3,16.632a10.532,10.532,0,0,0,10.18,0l5.418-2.983a1.76,1.76,0,1,0-1.7-3.084l-5.415,2.982a7.029,7.029,0,0,1-6.791,0L26.536,76.4H38.944a12.294,12.294,0,0,0,6.825-2.063L69.683,58.346c.035-.023.07-.048.1-.074A7.08,7.08,0,0,0,72.425,51.632ZM67.669,55.46,43.817,71.409a8.78,8.78,0,0,1-4.873,1.472H20.123l-9.45-5.188a8.06,8.06,0,0,1-4.1-6.329L21.352,50.671a8.8,8.8,0,0,1,5.01-1.555H42.038A3.873,3.873,0,0,1,45.912,53v.176a3.881,3.881,0,0,1-3.874,3.858H31.848a1.76,1.76,0,1,0,0,3.521H44.179A7.036,7.036,0,0,0,47.892,59.5L63.9,49.563l.034-.021a3.562,3.562,0,0,1,2.2-.289,3.522,3.522,0,0,1,1.538,6.207Z" transform="translate(-2.98 -5.857)" fill="#eec04e"/>
        <path id="Path_16914" data-name="Path 16914" d="M34.251,48.07a1.76,1.76,0,0,1-.96-3.237c6.148-3.989,12.778-3.2,18.629-2.512,4.141.489,8.055.953,11.137-.368a1.76,1.76,0,1,1,1.387,3.235c-3.946,1.692-8.313,1.176-12.938.628-5.517-.652-11.219-1.327-16.3,1.97A1.749,1.749,0,0,1,34.251,48.07Z" transform="translate(-6.518 -10.16)" fill="#eec04e"/>
        <path id="Path_16915" data-name="Path 16915" d="M34.251,41.78a1.76,1.76,0,0,1-.96-3.237c6.148-3.989,12.779-3.2,18.63-2.513,4.143.489,8.056.953,11.136-.368A1.76,1.76,0,0,1,64.444,38.9c-3.947,1.691-8.314,1.175-12.937.628-5.518-.653-11.219-1.328-16.3,1.97A1.742,1.742,0,0,1,34.251,41.78Z" transform="translate(-6.518 -9.406)" fill="#eec04e"/>
        <path id="Path_16916" data-name="Path 16916" d="M45.982,32.872c-3.2,0-5.711-1.861-5.711-4.236S42.78,24.4,45.982,24.4s5.711,1.861,5.711,4.236S49.184,32.872,45.982,32.872Zm-2.17-4.236a2.93,2.93,0,0,0,2.17.716,2.933,2.933,0,0,0,2.17-.716,2.93,2.93,0,0,0-2.17-.716A2.93,2.93,0,0,0,43.812,28.636Zm4.369.05h0Z" transform="translate(-7.45 -8.079)" fill="#eec04e"/>
        <path id="Path_16917" data-name="Path 16917" d="M59.349,27.545c-3.2,0-5.711-1.861-5.711-4.236s2.509-4.236,5.711-4.236,5.71,1.861,5.71,4.236S62.552,27.545,59.349,27.545Zm-2.17-4.236a3.648,3.648,0,0,0,4.34,0,3.648,3.648,0,0,0-4.34,0Zm4.368.049h0Z" transform="translate(-9.053 -7.441)" fill="#eec04e"/>
        <path id="Path_16918" data-name="Path 16918" d="M48.5,19.789c-3.2,0-5.711-1.861-5.711-4.236S45.3,11.317,48.5,11.317s5.711,1.861,5.711,4.236S51.7,19.789,48.5,19.789Zm-2.17-4.236a3.649,3.649,0,0,0,4.341,0,3.649,3.649,0,0,0-4.341,0Zm4.368.05h0Z" transform="translate(-7.752 -6.511)" fill="#eec04e"/>
      </g>
    </g>
  </g>
</svg>
