<svg xmlns="http://www.w3.org/2000/svg" width="82.732" height="88.123" viewBox="0 0 82.732 88.123">
  <g id="Group_4845" data-name="Group 4845" transform="translate(19020 19472)">
    <g id="Chef_1" transform="translate(-19020 -19472)">
      <g id="Group_354" data-name="Group 354" transform="translate(0 0)">
        <g id="Default_3_">
          <path id="Path_16859" data-name="Path 16859" d="M44.066,87.9a10.508,10.508,0,0,1-5.1-1.32l-30.8-16.9A10.62,10.62,0,0,1,2.7,60.35V27.257a10.7,10.7,0,0,1,5.545-9.329l30.8-16.9a10.837,10.837,0,0,1,10.122,0l30.8,16.9a10.62,10.62,0,0,1,5.457,9.329V60.35a10.7,10.7,0,0,1-5.545,9.329l-30.8,16.9A9.94,9.94,0,0,1,44.066,87.9Zm.088-84.581a6.88,6.88,0,0,0-3.433.88L10.005,21.1a7.094,7.094,0,0,0-3.785,6.161V60.35a7.252,7.252,0,0,0,3.7,6.249l30.8,16.9a6.674,6.674,0,0,0,6.777,0L78.3,66.6a7.094,7.094,0,0,0,3.785-6.161V27.257a7.252,7.252,0,0,0-3.7-6.249l-30.8-16.9A8.131,8.131,0,0,0,44.154,3.318Z" transform="translate(-2.7 0.225)" fill="#f5964e"/>
        </g>
        <path id="Path_16860" data-name="Path 16860" d="M44.066,87.9a10.508,10.508,0,0,1-5.1-1.32l-30.8-16.9A10.62,10.62,0,0,1,2.7,60.35V27.257a10.7,10.7,0,0,1,5.545-9.329l30.8-16.9a10.837,10.837,0,0,1,10.122,0l30.8,16.9a10.62,10.62,0,0,1,5.457,9.329V60.35a10.7,10.7,0,0,1-5.545,9.329l-30.8,16.9A9.94,9.94,0,0,1,44.066,87.9Zm.088-84.581a6.88,6.88,0,0,0-3.433.88L10.005,21.1a7.094,7.094,0,0,0-3.785,6.161V60.35a7.252,7.252,0,0,0,3.7,6.249l30.8,16.9a6.674,6.674,0,0,0,6.777,0L78.3,66.6a7.094,7.094,0,0,0,3.785-6.161V27.257a7.252,7.252,0,0,0-3.7-6.249l-30.8-16.9A8.131,8.131,0,0,0,44.154,3.318Z" transform="translate(-2.7 0.225)" fill="#f5964e"/>
        <g id="Group_346" data-name="Group 346" transform="translate(20.868 58.428)">
          <path id="Path_16861" data-name="Path 16861" d="M65.567,86.262h-.352a1.687,1.687,0,0,1-1.32-2.112c1.584-7.305-2.464-12.41-6.953-13.554a16.02,16.02,0,0,0-6.425-.792c-.792,0-1.848.088-3.345.088S44.62,69.8,43.828,69.8a16.679,16.679,0,0,0-6.6.792c-4.489,1.144-8.449,6.161-7.041,13.466a1.744,1.744,0,0,1-3.433.616c-1.76-9.417,3.521-15.93,9.681-17.515a20.62,20.62,0,0,1,7.657-.968c.792,0,1.848.088,3.168.088,1.408,0,2.376-.088,3.168-.088,2.464-.088,3.433-.088,7.481.968,6.161,1.584,11.618,8.273,9.593,17.779A2.2,2.2,0,0,1,65.567,86.262Z" transform="translate(-26.41 -66.16)" fill="#f5964e"/>
        </g>
        <g id="Group_349" data-name="Group 349" transform="translate(23.147 35.759)">
          <g id="Group_347" data-name="Group 347">
            <path id="Path_16862" data-name="Path 16862" d="M47.219,67.068A18.464,18.464,0,0,1,29,48.674a17.95,17.95,0,0,1,1.5-7.217,1.734,1.734,0,0,1,3.168,1.408,14.26,14.26,0,0,0-1.144,5.809A14.743,14.743,0,1,0,62,48.762a14.26,14.26,0,0,0-1.144-5.809,1.734,1.734,0,1,1,3.168-1.408,17.95,17.95,0,0,1,1.5,7.217A18.293,18.293,0,0,1,47.219,67.068Z" transform="translate(-29 -40.404)" fill="#f5964e"/>
          </g>
          <path id="Path_16863" data-name="Path 16863" d="M48.957,62.456a5.987,5.987,0,0,1-4.489-1.5,3.6,3.6,0,0,1-.968-2.288A1.828,1.828,0,0,1,45.348,57a1.716,1.716,0,0,1,1.672,1.584,4.043,4.043,0,0,0,1.936.352c1.5,0,2.112-.352,2.2-.528A1.728,1.728,0,0,1,53.005,57a1.775,1.775,0,0,1,1.584,1.936C54.678,59.023,54.326,62.456,48.957,62.456Zm-1.936-3.609Zm0,0Zm4.137-.264Zm0,0Zm0,0Zm.088-.176Z" transform="translate(-30.738 -42.392)" fill="#f5964e"/>
          <g id="Group_348" data-name="Group 348" transform="translate(10.122 6.862)">
            <ellipse id="Ellipse_228_7_" cx="1.76" cy="1.76" rx="1.76" ry="1.76" fill="#f5964e"/>
            <ellipse id="Ellipse_229_7_" cx="1.76" cy="1.76" rx="1.76" ry="1.76" transform="translate(12.762)" fill="#f5964e"/>
          </g>
        </g>
        <g id="Group_352" data-name="Group 352" transform="translate(20.507 14.28)">
          <path id="Path_16864" data-name="Path 16864" d="M63.318,41.348H30.841a1.765,1.765,0,0,1-1.76-1.76V36.243A8.8,8.8,0,0,1,34.8,20.753a9.815,9.815,0,0,1,2.728.44A11.2,11.2,0,0,1,46.947,16a11.469,11.469,0,0,1,9.505,5.193,9.319,9.319,0,0,1,2.728-.44,8.827,8.827,0,0,1,8.8,8.8,9,9,0,0,1-2.9,6.6v3.433A1.765,1.765,0,0,1,63.318,41.348ZM32.6,37.827H61.557V35.363a1.837,1.837,0,0,1,.7-1.408,5.675,5.675,0,0,0,2.2-4.4,5.3,5.3,0,0,0-5.281-5.281,5.641,5.641,0,0,0-2.64.7,1.618,1.618,0,0,1-1.408.176,1.9,1.9,0,0,1-1.056-.968,7.713,7.713,0,0,0-14.17,0,1.9,1.9,0,0,1-1.056.968,1.618,1.618,0,0,1-1.408-.176,5.641,5.641,0,0,0-2.64-.7,5.3,5.3,0,0,0-5.281,5.281,5.106,5.106,0,0,0,2.288,4.313,1.729,1.729,0,0,1,.792,1.5Z" transform="translate(-26 -16)" fill="#f5964e"/>
          <g id="Group_351" data-name="Group 351" transform="translate(9.769)">
            <path id="Path_16865" data-name="Path 16865" d="M40.973,34.923a1.584,1.584,0,0,1-1.32-.616A11.378,11.378,0,0,1,37.1,27.178,11.193,11.193,0,0,1,48.278,16a11.04,11.04,0,0,1,10.386,6.865,1.757,1.757,0,0,1-3.256,1.32,7.433,7.433,0,0,0-7.041-4.577,7.7,7.7,0,0,0-5.985,12.5,1.717,1.717,0,0,1-.264,2.464A2.5,2.5,0,0,1,40.973,34.923Z" transform="translate(-37.1 -16)" fill="#f5964e"/>
            <g id="Group_350" data-name="Group 350" transform="translate(14.61 4.753)">
              <path id="Path_16866" data-name="Path 16866" d="M56.428,35.57a1.7,1.7,0,0,1-1.5-.88A8.8,8.8,0,1,1,71.3,30.2a1.76,1.76,0,1,1-3.521,0,5.281,5.281,0,0,0-10.562,0,5.717,5.717,0,0,0,.7,2.728,1.775,1.775,0,0,1-1.5,2.64Z" transform="translate(-53.7 -21.4)" fill="#f5964e"/>
            </g>
          </g>
        </g>
        <g id="Group_353" data-name="Group 353" transform="translate(35.204 60.602)">
          <path id="Path_16867" data-name="Path 16867" d="M47.1,73.356c1.672-1.672,2.376-3.609,1.584-4.4s-2.728-.088-4.4,1.584a6.626,6.626,0,0,0-1.584,4.4A7.2,7.2,0,0,0,47.1,73.356Z" transform="translate(-42.699 -68.631)" fill="#f5964e"/>
          <path id="Path_16868" data-name="Path 16868" d="M51.74,73.356c-1.672-1.672-2.376-3.609-1.584-4.4s2.728-.088,4.4,1.584a6.626,6.626,0,0,1,1.584,4.4S53.324,75.029,51.74,73.356Z" transform="translate(-43.554 -68.631)" fill="#f5964e"/>
        </g>
        <ellipse id="Ellipse_228_4_" cx="0.792" cy="1.144" rx="0.792" ry="1.144" transform="translate(40.398 67.44)" fill="#f5964e"/>
        <ellipse id="Ellipse_228_2_" cx="1.144" cy="1.144" rx="1.144" ry="1.144" transform="translate(40.31 73.249)" fill="#f5964e"/>
        <ellipse id="Ellipse_228_3_" cx="1.144" cy="1.144" rx="1.144" ry="1.144" transform="translate(40.31 79.058)" fill="#f5964e"/>
      </g>
    </g>
  </g>
</svg>
