<?xml version="1.0" encoding="UTF-8" standalone="no"?>
<svg
   xmlns:dc="http://purl.org/dc/elements/1.1/"
   xmlns:cc="http://creativecommons.org/ns#"
   xmlns:rdf="http://www.w3.org/1999/02/22-rdf-syntax-ns#"
   xmlns:svg="http://www.w3.org/2000/svg"
   xmlns="http://www.w3.org/2000/svg"
   xmlns:sodipodi="http://sodipodi.sourceforge.net/DTD/sodipodi-0.dtd"
   xmlns:inkscape="http://www.inkscape.org/namespaces/inkscape"
   width="102.016"
   height="108.708"
   viewBox="0 0 102.016 108.708"
   version="1.1"
   id="svg1790"
   sodipodi:docname="icon-power-header.svg"
   inkscape:version="1.0.2 (e86c8708, 2021-01-15)">
  <metadata
     id="metadata1794">
    <rdf:RDF>
      <cc:Work
         rdf:about="">
        <dc:format>image/svg+xml</dc:format>
        <dc:type
           rdf:resource="http://purl.org/dc/dcmitype/StillImage" />
        <dc:title></dc:title>
      </cc:Work>
    </rdf:RDF>
  </metadata>
  <sodipodi:namedview
     pagecolor="#ffffff"
     bordercolor="#666666"
     borderopacity="1"
     objecttolerance="10"
     gridtolerance="10"
     guidetolerance="10"
     inkscape:pageopacity="0"
     inkscape:pageshadow="2"
     inkscape:window-width="1440"
     inkscape:window-height="874"
     id="namedview1792"
     showgrid="false"
     inkscape:zoom="6.3656768"
     inkscape:cx="20.767696"
     inkscape:cy="54.354"
     inkscape:window-x="0"
     inkscape:window-y="26"
     inkscape:window-maximized="0"
     inkscape:current-layer="g1788" />
  <defs
     id="defs1772">
    <style
       id="style1770">.a{fill:none;stroke:#eec04e;stroke-linecap:round;stroke-linejoin:round;stroke-width:5px;}</style>
  </defs>
  <g
     transform="translate(2.5 2.615)"
     id="g1788">
    <path
       class="a"
       d="M126.016,83.708v-40.5a10.78,10.78,0,0,0-5.593-9.45L82.695,13.048a10.78,10.78,0,0,0-10.374,0L34.593,33.759A10.78,10.78,0,0,0,29,43.209v40.5a10.779,10.779,0,0,0,5.588,9.446l37.73,20.712a10.78,10.78,0,0,0,10.374,0L120.42,93.154a10.78,10.78,0,0,0,5.6-9.446Z"
       transform="translate(-29 -11.718)"
       id="path1774"
       style="stroke:#fcffff;stroke-opacity:1" />
    <rect
       class="a"
       width="12.632"
       height="34.306"
       rx="6.316"
       transform="translate(50.005 20.956)"
       id="rect1776"
       style="stroke:#fcffff;stroke-opacity:1" />
    <path
       class="a"
       d="M237,149.039V134.677a6.335,6.335,0,0,1,6.317-6.317h0a6.335,6.335,0,0,1,6.315,6.317"
       transform="translate(-199.631 -107.404)"
       id="path1778"
       style="stroke:#fcffff;stroke-opacity:1" />
    <path
       class="a"
       d="M166.71,171.234V160.855a6.335,6.335,0,0,1,6.315-6.315h0a6.335,6.335,0,0,1,6.313,6.315"
       transform="translate(-141.969 -128.881)"
       id="path1780"
       style="stroke:#fcffff;stroke-opacity:1" />
    <path
       class="a"
       d="M378.11,160.855a6.335,6.335,0,0,1,6.315-6.315h0a6.335,6.335,0,0,1,6.317,6.315v16.971a6.335,6.335,0,0,1-6.317,6.317h0a6.335,6.335,0,0,1-6.315-6.317"
       transform="translate(-315.389 -128.881)"
       id="path1782"
       style="stroke:#fcffff;stroke-opacity:1" />
    <path
       class="a"
       d="M177.783,280.915h0a15.023,15.023,0,0,0-15.023-15.023h-1.1a1.175,1.175,0,0,1-1.175-1.175v-3.872a1.175,1.175,0,0,1,1.175-1.175H166.7a6.525,6.525,0,0,0,6.525-6.525h0a6.525,6.525,0,0,0-6.525-6.525h-12.01a7.416,7.416,0,0,0-7.415,7.415v23.178a6.4,6.4,0,0,0,1.872,4.509l6.322,6.32v10.42"
       transform="translate(-126.03 -204.418)"
       id="path1784"
       style="stroke:#fcffff;stroke-opacity:1" />
    <path
       class="a"
       d="M409.954,284.15v23.715a8.424,8.424,0,0,1-8.424,8.417h0v13.582"
       transform="translate(-334.601 -235.205)"
       id="path1786"
       style="stroke:#fcffff;stroke-opacity:1" />
  </g>
</svg>
