<svg xmlns="http://www.w3.org/2000/svg" width="102.016" height="108.708" viewBox="0 0 102.016 108.708"><defs><style>.a{fill:none;stroke:#eec04e;stroke-linecap:round;stroke-linejoin:round;stroke-width:5px;}</style></defs><g transform="translate(2.5 2.615)"><path class="a" d="M126.016,83.708v-40.5a10.78,10.78,0,0,0-5.593-9.45L82.695,13.048a10.78,10.78,0,0,0-10.374,0L34.593,33.759A10.78,10.78,0,0,0,29,43.209v40.5a10.779,10.779,0,0,0,5.588,9.446l37.73,20.712a10.78,10.78,0,0,0,10.374,0L120.42,93.154a10.78,10.78,0,0,0,5.6-9.446Z" transform="translate(-29 -11.718)"/><rect class="a" width="12.632" height="34.306" rx="6.316" transform="translate(50.005 20.956)"/><path class="a" d="M237,149.039V134.677a6.335,6.335,0,0,1,6.317-6.317h0a6.335,6.335,0,0,1,6.315,6.317" transform="translate(-199.631 -107.404)"/><path class="a" d="M166.71,171.234V160.855a6.335,6.335,0,0,1,6.315-6.315h0a6.335,6.335,0,0,1,6.313,6.315" transform="translate(-141.969 -128.881)"/><path class="a" d="M378.11,160.855a6.335,6.335,0,0,1,6.315-6.315h0a6.335,6.335,0,0,1,6.317,6.315v16.971a6.335,6.335,0,0,1-6.317,6.317h0a6.335,6.335,0,0,1-6.315-6.317" transform="translate(-315.389 -128.881)"/><path class="a" d="M177.783,280.915h0a15.023,15.023,0,0,0-15.023-15.023h-1.1a1.175,1.175,0,0,1-1.175-1.175v-3.872a1.175,1.175,0,0,1,1.175-1.175H166.7a6.525,6.525,0,0,0,6.525-6.525h0a6.525,6.525,0,0,0-6.525-6.525h-12.01a7.416,7.416,0,0,0-7.415,7.415v23.178a6.4,6.4,0,0,0,1.872,4.509l6.322,6.32v10.42" transform="translate(-126.03 -204.418)"/><path class="a" d="M409.954,284.15v23.715a8.424,8.424,0,0,1-8.424,8.417h0v13.582" transform="translate(-334.601 -235.205)"/></g></svg>