<svg xmlns="http://www.w3.org/2000/svg" width="42.196" height="26.705" viewBox="0 0 42.196 26.705"><defs><style>.a{fill:gray;}</style></defs><path class="a" d="M44.953,32.962a1.126,1.126,0,0,0-.251-.423,32.471,32.471,0,0,0-3.285-2.928l3.17-3.287a1.147,1.147,0,0,0-1.651-1.593l-3.377,3.5a35.044,35.044,0,0,0-5.207-3.011L36.1,21.2a1.147,1.147,0,1,0-2.1-.915l-1.763,4.05a24.864,24.864,0,0,0-5.057-1.325q-.966-.142-1.965-.2V18.682a1.147,1.147,0,0,0-2.294,0v4.133c-.316.017-.631.04-.943.071A24.346,24.346,0,0,0,15.9,24.336l-1.764-4.05a1.147,1.147,0,0,0-2.1.916l1.751,4.021a35.026,35.026,0,0,0-5.206,3.01L5.2,24.731a1.147,1.147,0,1,0-1.651,1.593l3.169,3.287a32.254,32.254,0,0,0-3.285,2.927,1.121,1.121,0,0,0-.251.424,1.147,1.147,0,0,0,.1,1.45c.379.4,9.4,9.828,20.786,9.828s20.406-9.427,20.785-9.828A1.147,1.147,0,0,0,44.953,32.962ZM24.066,25.235a8.248,8.248,0,1,1-8.247,8.248A8.257,8.257,0,0,1,24.066,25.235ZM16,26.776a10.469,10.469,0,0,0,.086,13.515A35.519,35.519,0,0,1,5.678,33.545,35.346,35.346,0,0,1,16,26.776Zm18.558,6.707a10.443,10.443,0,0,0-2.431-6.708,35.338,35.338,0,0,1,10.326,6.771,35.5,35.5,0,0,1-10.413,6.747A10.449,10.449,0,0,0,34.561,33.483Z" transform="translate(-2.969 -17.535)"/></svg>