<?xml version="1.0" encoding="UTF-8" standalone="no"?>
<svg
   xmlns:dc="http://purl.org/dc/elements/1.1/"
   xmlns:cc="http://creativecommons.org/ns#"
   xmlns:rdf="http://www.w3.org/1999/02/22-rdf-syntax-ns#"
   xmlns:svg="http://www.w3.org/2000/svg"
   xmlns="http://www.w3.org/2000/svg"
   xmlns:sodipodi="http://sodipodi.sourceforge.net/DTD/sodipodi-0.dtd"
   xmlns:inkscape="http://www.inkscape.org/namespaces/inkscape"
   width="102.016"
   height="108.708"
   viewBox="0 0 102.016 108.708"
   version="1.1"
   id="svg92"
   sodipodi:docname="icon-planet-header.svg"
   inkscape:version="1.0.2 (e86c8708, 2021-01-15)">
  <metadata
     id="metadata96">
    <rdf:RDF>
      <cc:Work
         rdf:about="">
        <dc:format>image/svg+xml</dc:format>
        <dc:type
           rdf:resource="http://purl.org/dc/dcmitype/StillImage" />
        <dc:title></dc:title>
      </cc:Work>
    </rdf:RDF>
  </metadata>
  <sodipodi:namedview
     pagecolor="#ff56ff"
     bordercolor="#666666"
     borderopacity="1"
     objecttolerance="10"
     gridtolerance="10"
     guidetolerance="10"
     inkscape:pageopacity="0"
     inkscape:pageshadow="2"
     inkscape:window-width="1440"
     inkscape:window-height="900"
     id="namedview94"
     showgrid="false"
     inkscape:zoom="5.2158075"
     inkscape:cx="44.968666"
     inkscape:cy="50.711228"
     inkscape:window-x="0"
     inkscape:window-y="0"
     inkscape:window-maximized="0"
     inkscape:current-layer="g90"
     inkscape:document-rotation="0" />
  <defs
     id="defs74">
    <style
       id="style72">.a{fill:none;stroke:#95c33c;stroke-linecap:round;stroke-linejoin:round;stroke-width:5px;}</style>
  </defs>
  <g
     transform="translate(2.5 2.615)"
     id="g90">
    <path
       class="a"
       d="M126.016,83.708v-40.5a10.78,10.78,0,0,0-5.593-9.45L82.695,13.048a10.78,10.78,0,0,0-10.374,0L34.593,33.759A10.78,10.78,0,0,0,29,43.209v40.5a10.779,10.779,0,0,0,5.588,9.446l37.73,20.712a10.78,10.78,0,0,0,10.374,0L120.42,93.154a10.78,10.78,0,0,0,5.6-9.446Z"
       id="path76"
       transform="translate(-29 -11.718)"
       style="stroke:#ffffff;stroke-opacity:1;opacity:1" />
    <line
       class="a"
       y2="35.813"
       id="line78"
       transform="translate(46.938 36.689)"
       style="stroke:#ffffff;stroke-opacity:1;opacity:1" />
    <path
       class="a"
       d="M290.26,134.868l.1-.9c1.579-13.7,3.286-15.406,16.985-16.985l.9-.1h0C307.037,131.3,304.688,133.646,290.26,134.868Z"
       id="path80"
       transform="translate(-243.322 -97.987)"
       style="stroke:#ffffff;stroke-opacity:1;opacity:1" />
    <path
       class="a"
       d="M290.252,273.356l.1-.9c1.579-13.7,3.286-15.406,16.985-16.983l.9-.1h0c-1.213,14.427-3.561,16.777-17.989,17.989Z"
       id="path82"
       transform="translate(-243.314 -211.596)"
       style="stroke:#ffffff;stroke-opacity:1;opacity:1" />
    <path
       class="a"
       d="M208.136,199.016l-.1-.9c-1.577-13.7-3.286-15.406-16.983-16.985l-.9-.1h0c1.213,14.427,3.561,16.777,17.989,17.988Z"
       id="path84"
       transform="translate(-161.198 -150.611)"
       style="stroke:#ffffff;stroke-opacity:1;opacity:1" />
    <line
       class="a"
       x2="80.531"
       id="line86"
       transform="translate(7.28 72.502)"
       style="stroke:#ffffff;stroke-opacity:1;opacity:1" />
    <line
       class="a"
       x2="29.541"
       id="line88"
       transform="translate(39.856 82.214)"
       style="stroke:#ffffff;stroke-opacity:1;opacity:1" />
  </g>
</svg>
