<?xml version="1.0" encoding="UTF-8" standalone="no"?>
<svg
   xmlns:dc="http://purl.org/dc/elements/1.1/"
   xmlns:cc="http://creativecommons.org/ns#"
   xmlns:rdf="http://www.w3.org/1999/02/22-rdf-syntax-ns#"
   xmlns:svg="http://www.w3.org/2000/svg"
   xmlns="http://www.w3.org/2000/svg"
   xmlns:sodipodi="http://sodipodi.sourceforge.net/DTD/sodipodi-0.dtd"
   xmlns:inkscape="http://www.inkscape.org/namespaces/inkscape"
   width="102.016"
   height="108.72"
   viewBox="0 0 102.016 108.72"
   version="1.1"
   id="svg1097"
   sodipodi:docname="icon-people-header.svg"
   inkscape:version="1.0.2 (e86c8708, 2021-01-15)">
  <metadata
     id="metadata1101">
    <rdf:RDF>
      <cc:Work
         rdf:about="">
        <dc:format>image/svg+xml</dc:format>
        <dc:type
           rdf:resource="http://purl.org/dc/dcmitype/StillImage" />
        <dc:title></dc:title>
      </cc:Work>
    </rdf:RDF>
  </metadata>
  <sodipodi:namedview
     pagecolor="#ffffff"
     bordercolor="#666666"
     borderopacity="1"
     objecttolerance="10"
     gridtolerance="10"
     guidetolerance="10"
     inkscape:pageopacity="0"
     inkscape:pageshadow="2"
     inkscape:window-width="1440"
     inkscape:window-height="874"
     id="namedview1099"
     showgrid="false"
     inkscape:zoom="6.3649742"
     inkscape:cx="20.764357"
     inkscape:cy="54.360001"
     inkscape:window-x="0"
     inkscape:window-y="26"
     inkscape:window-maximized="0"
     inkscape:current-layer="g1095" />
  <defs
     id="defs1079">
    <style
       id="style1077">.a{fill:none;stroke:#f5964e;stroke-linecap:round;stroke-linejoin:round;stroke-width:5px;}</style>
  </defs>
  <g
     transform="translate(2.5 2.615)"
     id="g1095">
    <path
       class="a"
       d="M254.963,207.34c.318,0,.634.016.95.047s.631.077.943.138.618.14.923.232.6.2.9.322.58.257.861.406a9.173,9.173,0,0,1,.816.49,9.37,9.37,0,0,1,.765.568,9.48,9.48,0,0,1,.7.638,9.146,9.146,0,0,1,.64.706,9.375,9.375,0,0,1,.568.765q.264.4.489.816c.151.28.286.568.408.861s.228.593.322.9a9.867,9.867,0,0,1,.37,1.867c.031.316.047.632.047.95s-.016.634-.047.95a9.221,9.221,0,0,1-.14.941q-.088.465-.223.92c-.093.305-.2.6-.322.9a9.418,9.418,0,0,1-.408.861q-.225.42-.489.817a9.363,9.363,0,0,1-.578.765,9.894,9.894,0,0,1-1.344,1.344q-.368.3-.765.568t-.814.5c-.28.151-.568.286-.861.408a9.2,9.2,0,0,1-.9.32q-.458.137-.923.232c-.311.063-.627.108-.943.14a9.327,9.327,0,0,1-.95.047c-.318,0-.634-.016-.95-.047s-.631-.079-.941-.14a9.507,9.507,0,0,1-.922-.241c-.305-.092-.6-.2-.9-.32a9.414,9.414,0,0,1-.861-.408,9.267,9.267,0,0,1-.817-.489q-.4-.266-.765-.566t-.7-.64a8.006,8.006,0,0,1-.64-.7c-.2-.246-.392-.5-.568-.765s-.34-.539-.489-.817a9.409,9.409,0,0,1-.408-.861,9.168,9.168,0,0,1-.32-.9,9.013,9.013,0,0,1-.232-.923,9.213,9.213,0,0,1-.14-.941c-.031-.316-.047-.632-.047-.95s.016-.634.047-.95a9.689,9.689,0,0,1,.372-1.867,9.512,9.512,0,0,1,.32-.9c.122-.293.257-.58.408-.861s.313-.552.489-.816a8.259,8.259,0,0,1,.568-.765,9.518,9.518,0,0,1,.64-.706q.338-.336.7-.638a9.368,9.368,0,0,1,.765-.568,9.467,9.467,0,0,1,.817-.49,9.184,9.184,0,0,1,.861-.406c.295-.122.591-.228.9-.322s.611-.169.923-.232a9.284,9.284,0,0,1,.941-.138C254.329,207.353,254.645,207.34,254.963,207.34Z"
       transform="translate(-206.455 -172.3)"
       id="path1081"
       style="stroke:#fffffa;stroke-opacity:0.902834" />
    <path
       class="a"
       d="M231.3,396.278V381.929h6.468V371.013a10.683,10.683,0,0,0-10.681-10.683H213.951c-5.9,0-10.681,5.542-10.681,10.683v10.916h6.468v14.349"
       transform="translate(-172.009 -297.804)"
       id="path1083"
       style="stroke:#fffffa;stroke-opacity:0.902834" />
    <path
       class="a"
       d="M379.29,161.214a9.7,9.7,0,1,1,5.2,14.013"
       transform="translate(-316.406 -130.485)"
       id="path1085"
       style="stroke:#fffffa;stroke-opacity:0.902834" />
    <path
       class="a"
       d="M415.91,339.054V327.937h6.468V317.021A10.681,10.681,0,0,0,411.7,306.34H400.72"
       transform="translate(-333.985 -253.514)"
       id="path1087"
       style="stroke:#fffffa;stroke-opacity:0.902834" />
    <path
       class="a"
       d="M136.578,161.191a9.7,9.7,0,1,0-5.268,14.031"
       transform="translate(-102.446 -130.461)"
       id="path1089"
       style="stroke:#fffffa;stroke-opacity:0.902834" />
    <path
       class="a"
       d="M83.728,339.054V327.937H77.26V317.021A10.679,10.679,0,0,1,87.943,306.34H98.918"
       transform="translate(-68.638 -253.514)"
       id="path1091"
       style="stroke:#fffffa;stroke-opacity:0.902834" />
    <path
       class="a"
       d="M126.286,84.3V43.8a10.78,10.78,0,0,0-5.593-9.454L82.965,13.635a10.78,10.78,0,0,0-10.375,0L34.861,34.348A10.78,10.78,0,0,0,29.27,43.8V84.3a10.78,10.78,0,0,0,5.593,9.45l37.728,20.711a10.78,10.78,0,0,0,10.375,0L120.7,93.753a10.78,10.78,0,0,0,5.591-9.45Z"
       transform="translate(-29.27 -12.305)"
       id="path1093"
       style="stroke:#ffffff;stroke-opacity:1" />
  </g>
</svg>
