<svg xmlns="http://www.w3.org/2000/svg" width="102.016" height="108.708" viewBox="0 0 102.016 108.708"><defs><style>.a{fill:none;stroke:#95c33c;stroke-linecap:round;stroke-linejoin:round;stroke-width:5px;}</style></defs><g transform="translate(2.5 2.615)"><path class="a" d="M126.016,83.708v-40.5a10.78,10.78,0,0,0-5.593-9.45L82.695,13.048a10.78,10.78,0,0,0-10.374,0L34.593,33.759A10.78,10.78,0,0,0,29,43.209v40.5a10.779,10.779,0,0,0,5.588,9.446l37.73,20.712a10.78,10.78,0,0,0,10.374,0L120.42,93.154a10.78,10.78,0,0,0,5.6-9.446Z" transform="translate(-29 -11.718)"/><line class="a" y2="35.813" transform="translate(46.938 36.689)"/><path class="a" d="M290.26,134.868l.1-.9c1.579-13.7,3.286-15.406,16.985-16.985l.9-.1h0C307.037,131.3,304.688,133.646,290.26,134.868Z" transform="translate(-243.322 -97.987)"/><path class="a" d="M290.252,273.356l.1-.9c1.579-13.7,3.286-15.406,16.985-16.983l.9-.1h0c-1.213,14.427-3.561,16.777-17.989,17.989Z" transform="translate(-243.314 -211.596)"/><path class="a" d="M208.136,199.016l-.1-.9c-1.577-13.7-3.286-15.406-16.983-16.985l-.9-.1h0c1.213,14.427,3.561,16.777,17.989,17.988Z" transform="translate(-161.198 -150.611)"/><line class="a" x2="80.531" transform="translate(7.28 72.502)"/><line class="a" x2="29.541" transform="translate(39.856 82.214)"/></g></svg>