<svg xmlns="http://www.w3.org/2000/svg" width="67.9" height="69.998" viewBox="0 0 67.9 69.998">
  <g id="IMPROVEDWATERQUALITY-VeroÌnicaDiaz" transform="translate(-3)">
    <g id="Group_378" data-name="Group 378" transform="translate(20.202 13.007)">
      <path id="Path_1227" data-name="Path 1227" d="M43.194,59.368c-8.6,0-15.594-7.482-15.594-16.713,0-8.951,14.056-23.006,14.615-23.636a1.352,1.352,0,0,1,1.958,0c.629.629,14.615,14.685,14.615,23.636C58.788,51.886,51.8,59.368,43.194,59.368Zm0-37.272c-4.336,4.545-12.8,14.685-12.8,20.629,0,7.692,5.734,13.916,12.8,13.916s12.8-6.294,12.8-13.916C55.991,36.781,47.53,26.642,43.194,22.1Z" transform="translate(-27.6 -18.6)"/>
    </g>
    <path id="Path_1228" data-name="Path 1228" d="M42.442,61.685a1.4,1.4,0,0,1-1.4-1.4A4.536,4.536,0,0,0,36.5,55.741a1.4,1.4,0,1,1,0-2.8A4.536,4.536,0,0,0,41.044,48.4a1.4,1.4,0,0,1,2.8,0,4.536,4.536,0,0,0,4.545,4.545,1.4,1.4,0,1,1,0,2.8,4.536,4.536,0,0,0-4.545,4.545A1.4,1.4,0,0,1,42.442,61.685Zm-1.608-7.342a7.02,7.02,0,0,1,1.608,1.608,7.02,7.02,0,0,1,1.608-1.608,7.02,7.02,0,0,1-1.608-1.608A7.02,7.02,0,0,1,40.834,54.342Z" transform="translate(-9.653 -14.134)"/>
    <path id="Path_1229" data-name="Path 1229" d="M68.313,50.768a8.453,8.453,0,0,0,.42-2.657V21.818A8.386,8.386,0,0,0,64.4,14.475L39.922,1.049a8.231,8.231,0,0,0-8.042,0L7.405,14.475A8.313,8.313,0,0,0,3,21.818V48.111a8.386,8.386,0,0,0,4.336,7.342L31.81,68.879a8.366,8.366,0,0,0,8.112,0l8.811-4.825A12.02,12.02,0,0,0,59.012,70,11.878,11.878,0,0,0,70.9,58.11,12.615,12.615,0,0,0,68.313,50.768Zm-2.8,8.321a1.352,1.352,0,0,1-1.958,0l-3.217-3.147V63.7a1.4,1.4,0,0,1-2.8,0V55.873l-3.217,3.217a1.352,1.352,0,0,1-1.958,0,1.352,1.352,0,0,1,0-1.958l5.384-5.384c.07-.07.07-.14.14-.21a1.381,1.381,0,0,1,.979-.42h.28c.07,0,.07,0,.14.07.07,0,.07,0,.14.07.07,0,.07.07.14.07a.068.068,0,0,1,.07.07.843.843,0,0,1,.35.35l5.384,5.384A1.258,1.258,0,0,1,65.516,59.089Zm.42-10.979v.35a11.926,11.926,0,0,0-18.881,9.65,13.978,13.978,0,0,0,.489,3.426l-9.021,4.895a5.656,5.656,0,0,1-5.384,0L8.664,53.006A5.5,5.5,0,0,1,5.8,48.111V21.818a5.644,5.644,0,0,1,2.867-4.895L33.139,3.5a5.287,5.287,0,0,1,2.727-.7,5.215,5.215,0,0,1,2.657.7L63,16.923a5.569,5.569,0,0,1,2.937,4.895Z"/>
  </g>
</svg>
