<svg id="IMPROVEDWATERQUALITY-VeroÌnicaDiaz" xmlns="http://www.w3.org/2000/svg" width="197.225" height="203.319" viewBox="0 0 197.225 203.319">
  <g id="Group_362" data-name="Group 362" transform="translate(49.966 37.78)">
    <path id="Path_1145" data-name="Path 1145" d="M72.895,137.016c-24.983,0-45.295-21.733-45.295-48.545,0-26,40.826-66.825,42.451-68.653a3.927,3.927,0,0,1,5.687,0c1.828,1.828,42.451,42.654,42.451,68.653C118.19,115.283,97.878,137.016,72.895,137.016Zm0-108.261C60.3,41.958,35.725,71.41,35.725,88.675c0,22.343,16.655,40.42,37.17,40.42s37.17-18.28,37.17-40.42C110.065,71.41,85.488,41.958,72.895,28.756Z" transform="translate(-27.6 -18.6)" fill="#42b294"/>
  </g>
  <path id="Path_1146" data-name="Path 1146" d="M56.427,89.654a4.074,4.074,0,0,1-4.062-4.062,13.176,13.176,0,0,0-13.2-13.2,4.062,4.062,0,0,1,0-8.125,13.176,13.176,0,0,0,13.2-13.2,4.062,4.062,0,0,1,8.125,0,13.176,13.176,0,0,0,13.2,13.2,4.062,4.062,0,0,1,0,8.125,13.176,13.176,0,0,0-13.2,13.2A4.074,4.074,0,0,1,56.427,89.654ZM51.755,68.327A20.39,20.39,0,0,1,56.427,73,20.39,20.39,0,0,1,61.1,68.327a20.39,20.39,0,0,1-4.672-4.672A20.39,20.39,0,0,1,51.755,68.327Z" transform="translate(30.1 48.464)" fill="#42b294"/>
  <path id="Path_1147" data-name="Path 1147" d="M192.71,147.462a24.553,24.553,0,0,0,1.219-7.718V63.372a24.357,24.357,0,0,0-12.593-21.327l-71.09-39a23.908,23.908,0,0,0-23.358,0l-71.09,39A24.146,24.146,0,0,0,3,63.372v76.372a24.357,24.357,0,0,0,12.593,21.327l71.09,39a24.3,24.3,0,0,0,23.561,0l25.593-14.015A34.914,34.914,0,0,0,165.7,203.319a34.5,34.5,0,0,0,34.53-34.53A36.642,36.642,0,0,0,192.71,147.462Zm-8.125,24.171a3.927,3.927,0,0,1-5.687,0l-9.343-9.14v22.546a4.062,4.062,0,1,1-8.125,0V162.289l-9.343,9.343a3.927,3.927,0,0,1-5.687,0,3.927,3.927,0,0,1,0-5.687l15.64-15.64c.2-.2.2-.406.406-.609a4.01,4.01,0,0,1,2.844-1.219h.812c.2,0,.2,0,.406.2.2,0,.2,0,.406.2.2,0,.2.2.406.2a.2.2,0,0,1,.2.2,2.448,2.448,0,0,1,1.016,1.016l15.64,15.64A3.653,3.653,0,0,1,184.585,171.633Zm1.219-31.889v1.016a34.641,34.641,0,0,0-54.841,28.03,40.6,40.6,0,0,0,1.422,9.953l-26.2,14.218a16.429,16.429,0,0,1-15.64,0l-71.09-39a15.987,15.987,0,0,1-8.328-14.218V63.372a16.394,16.394,0,0,1,8.328-14.218l71.09-39a15.358,15.358,0,0,1,7.922-2.031,15.147,15.147,0,0,1,7.718,2.031l71.09,39A16.176,16.176,0,0,1,185.8,63.372Z" transform="translate(-3 0)" fill="#42b294"/>
</svg>
