<svg id="Layer_21" xmlns="http://www.w3.org/2000/svg" width="190.929" height="203.148" viewBox="0 0 190.929 203.148">
  <g id="Group_361" data-name="Group 361" transform="translate(0 0)">
    <path id="Path_1136" data-name="Path 1136" d="M181.285,42.043,110.192,3.014a24.269,24.269,0,0,0-23.458,0L15.644,42.043A24.37,24.37,0,0,0,3,63.409v76.315a24.367,24.367,0,0,0,12.644,21.366l71.09,39.027a24.259,24.259,0,0,0,23.46,0l71.088-39.027a24.369,24.369,0,0,0,12.646-21.366V63.409A24.374,24.374,0,0,0,181.285,42.043Zm4.519,97.68a16.247,16.247,0,0,1-8.429,14.245l-71.09,39.027a16.185,16.185,0,0,1-15.638,0l-71.09-39.027a16.242,16.242,0,0,1-8.431-14.245V63.409a16.249,16.249,0,0,1,8.429-14.245l71.09-39.027a16.175,16.175,0,0,1,15.64,0l71.09,39.027A16.244,16.244,0,0,1,185.8,63.409Z" transform="translate(-3 0.008)" fill="#3e89ff"/>
    <ellipse id="Ellipse_338" data-name="Ellipse 338" cx="4.198" cy="4.198" rx="4.198" ry="4.198" transform="translate(76.331 57.23)" fill="#3e89ff"/>
    <ellipse id="Ellipse_339" data-name="Ellipse 339" cx="4.198" cy="4.198" rx="4.198" ry="4.198" transform="translate(105.714 57.23)" fill="#3e89ff"/>
    <path id="Path_1137" data-name="Path 1137" d="M151.576,128.473l-19.351-.138c2.844-14.653-1.014-26.488-8.2-33.845,11.907-8.5,18.642-18.433,19.991-29.606,2.246-18.469-11.529-33.776-12.1-34.385,0,0-15.24-17.785-46.333-17.785s-48.025,18.4-48.025,18.4C37,31.723,23.5,46.371,25.748,64.841,27.123,76.282,34.094,86.4,46.476,94.969c-7.83,8.574-9.672,21.813-7.566,33.38l-19.292-.138h-.037a4.2,4.2,0,0,0-.1,8.395l36.413.185a4.626,4.626,0,0,0,4.33-3.7l5.945-35.85.006-.037a4.215,4.215,0,0,0,.035-1.034,27.807,27.807,0,0,1,4.16,5.909c3.169,5.289,7.115,11.858,15.321,11.858s12.258-6.863,15.029-11.943c1.84-3.205,3.1-5.131,4.349-6.142a4.207,4.207,0,0,0,.037,1.081l5.86,35.336c0,.033-.01.063-.01.1a4.2,4.2,0,0,0,4.148,4.247l36.473.185a3.895,3.895,0,0,0,4.079-4.842A4.2,4.2,0,0,0,151.576,128.473Zm-27.975-.938a4.278,4.278,0,0,0-.071.737l-4.613-.032-5.263-31.105C121.832,101.867,126.721,112.878,123.6,127.534ZM85.882,19.414a57.612,57.612,0,0,1,40.17,17.472c.126.126,11.417,12.488,9.634,27.055C134.6,73.29,128.254,81.785,116.91,89.2a26.715,26.715,0,0,0-5.718-2.19,15.351,15.351,0,0,0-2.738-.429A43.545,43.545,0,0,0,128.53,49.962a4.2,4.2,0,0,0-8.4,0c0,.947-.069,1.879-.142,2.807-1.485-1.154-2.539-3.624-4.077-8.117-2.058-6-4.617-13.475-12.865-15.238a153.882,153.882,0,0,0-17.3-1.243c-3.386.03-7.225.3-10.389.575v-8.49A53.116,53.116,0,0,1,85.882,19.414ZM51.546,60.807c5.854-2.754,7.987-9.022,9.8-14.2,2.413-7.052,3.815-9.457,7.361-9.331a119.241,119.241,0,0,1,17.041-2.21,38.522,38.522,0,0,1,15.561,2.6c3.42.713,4.765,4.156,6.654,9.717,1.747,5.188,4.03,11.787,10.255,13.956a35.132,35.132,0,0,1-66.671-.528ZM34.082,63.9C32.276,49.434,43.569,36.989,43.7,36.841A61.535,61.535,0,0,1,67.234,22.324v7.121c-9.045.583-11.86,8.563-13.842,14.511-1.162,3.4-2.121,6.014-3.481,7.7-.026-.567-.085-1.123-.085-1.7a4.2,4.2,0,1,0-8.4,0A43.516,43.516,0,0,0,61.663,86.68,15.748,15.748,0,0,0,60.024,87a28.847,28.847,0,0,0-6.642,2.553,4.339,4.339,0,0,0-.41-.329C41.615,81.8,35.235,73.278,34.082,63.9Zm13.133,63.26c-2.842-14.931,2.149-25.867,10.517-30.35l-5.179,31.641-5.287-.039A4.079,4.079,0,0,0,47.215,127.157ZM93.731,97.794c-3.022,5.269-4.6,7.745-7.891,7.745s-5.226-2.959-8.123-7.787a47.931,47.931,0,0,0-3.835-5.73,42.741,42.741,0,0,0,23.947-.457A42.692,42.692,0,0,0,93.731,97.794Z" transform="translate(9.718 13.125)" fill="#3e89ff"/>
    <path id="Path_1138" data-name="Path 1138" d="M67.941,44.38c.689-.68.626-1.422.526-2.7-.221-2.856-1.777-4.812-4.16-5.348-2.685-.6-4.458,1.042-5.815,3.766-2.4,4.82-3.837,4.647-7.06,1.952-1.615-1.349-2.413-3.055-5.184.087-3.644,4.133,5.09,7.873,11.125,7.867C61.975,50,65.008,47.278,67.941,44.38Z" transform="translate(40.708 37.354)" fill="#3e89ff"/>
    <path id="Path_1139" data-name="Path 1139" d="M87.49,87.093H83.9a8.617,8.617,0,0,0,.6-3.605c-.2-3.006-1.968-5.129-3.258-6.68-.3-.362-.719-.863-.959-1.213a11.206,11.206,0,0,1,2.529-2.521,4.063,4.063,0,0,0-4.722-6.613c-1.418,1.012-6.049,4.657-6.049,9.175,0,2.825,1.71,4.875,2.957,6.376a8.7,8.7,0,0,1,1.393,1.952,8.207,8.207,0,0,1-2.153,3.132H70.185a8.617,8.617,0,0,0,.6-3.605c-.2-3.006-1.968-5.129-3.258-6.68-.3-.362-.719-.863-.959-1.213a11.205,11.205,0,0,1,2.529-2.521,4.063,4.063,0,0,0-4.722-6.613c-1.418,1.012-6.049,4.657-6.049,9.175,0,2.825,1.71,4.875,2.957,6.376a8.7,8.7,0,0,1,1.393,1.952A8.207,8.207,0,0,1,60.521,87.1H56.483a8.681,8.681,0,0,0,.579-3.605c-.2-3.006-1.966-5.129-3.258-6.68-.3-.362-.719-.863-.957-1.213a11.191,11.191,0,0,1,2.527-2.521,4.063,4.063,0,0,0-4.72-6.613c-1.42,1.012-6.049,4.657-6.049,9.175,0,2.825,1.71,4.875,2.959,6.376a8.641,8.641,0,0,1,1.391,1.954A8.2,8.2,0,0,1,46.8,87.1h-5.48A6.194,6.194,0,0,0,35.2,93.058l-.012.091.012.536c.292,10.363,5.628,22.629,29.236,22.733,23.578-.114,28.9-12.4,29.186-22.739l.024-.3L93.62,93.2A6.2,6.2,0,0,0,87.49,87.093Zm-23.062,21.2c-16.879-.075-20.391-7.066-21-13.07H85.382C84.748,101.256,81.226,108.207,64.429,108.288Z" transform="translate(30.187 67.773)" fill="#3e89ff"/>
  </g>
</svg>
