<svg xmlns="http://www.w3.org/2000/svg" width="227.728" height="91" viewBox="0 0 227.728 91"><defs><style>.a{fill:#fff;}.b{fill:none;stroke:#fff;stroke-linecap:round;stroke-linejoin:round;stroke-miterlimit:10;}</style></defs><path class="a" d="M93.775,39.414c0-4.862-.331-9.779,1.16-14.531a23.33,23.33,0,0,1,11.547-13.812c2.707-1.436,5.58-.773,8.066,1.1,6.685,4.972,10.608,11.381,10.663,19.89.055,5.359.11,10.663.11,16.022,0,2.486-.5,2.928-2.873,2.983a18.425,18.425,0,0,1-5.746-.5c-3.425-.939-5.028.387-5.028,4.033,0,1.658.331,3.315.387,4.972.276,6.243.553,12.486.718,18.73.055,3.039.553,5.8,2.431,8.287,2.818,3.7,2.983,7.956,2.431,12.376-.221,1.492-.608,2.32-2.376,2.32-3.757-.11-7.569-.055-11.326,0-1.437,0-1.989-.5-2.321-1.989a16.338,16.338,0,0,1,2.928-13.591,10.4,10.4,0,0,0,1.934-6.188c.166-8.066.442-16.188.994-24.255a5.676,5.676,0,0,0-.11-2.155c-.829-2.6-1.878-3.315-4.53-2.541a21.936,21.936,0,0,1-6.575.552c-1.713,0-2.486-.773-2.486-2.541C93.83,45.491,93.775,42.453,93.775,39.414Zm15.58,56.631c1.768.11,3.481.11,5.083.276,1.547.166,1.879-.608,1.879-1.934-.055-3.039-3.149-7.569-6.022-8.674a1.829,1.829,0,0,0-1.326,0c-2.818.994-6.188,5.912-6.243,8.9,0,1.326.5,1.823,1.823,1.713C106.206,96.155,107.863,96.1,109.355,96.045Zm-2.486-53.869h0v-5.47c0-.442-.055-.994-.608-1.05s-.773.5-.773.939c0,3.757-.055,7.514,0,11.271,0,.5.111,1.05.663,1.05.773.055.718-.663.718-1.16C106.924,45.823,106.869,44,106.869,42.176Zm7.238.166V36.817c0-.552-.111-1.16-.884-1.1-.608.055-.608.608-.608,1.05V47.48c0,.442-.055.994.552,1.1.773.11.884-.5.884-1.05C114.106,45.823,114.051,44.11,114.106,42.342ZM109.8,71.293c.331-.055,1.381.276,1.381-.331,0-.995-1.05-.5-1.657-.608a5.339,5.339,0,0,0-1.326.055c-.276,0-.552.11-.552.442s.276.442.552.442Z" transform="translate(-52.045 -10.294)"/><path class="a" d="M179.491,33.7c0-1.768.055-3.481,0-5.249-.332-8.619,6.575-15.415,16.078-14.973,5.47.276,10,2.376,12.707,7.4,1.381,2.541,1.05,3.646-1.326,5.359-.387.276-.773.5-1.16.774-3.481,2.21-3.757,2.155-6.133-1.16a6.724,6.724,0,0,0-2.818-2.6c-3.37-1.326-6.8.663-6.961,4.309-.166,4.144-.111,8.287,0,12.431a4.558,4.558,0,0,0,3.26,4.365,4.869,4.869,0,0,0,5.359-1.215,12.83,12.83,0,0,0,1.658-2.21c.442-.608.773-1.381,1.436-1.6,2.818-.994,4.31,1.437,6.3,2.6,1.436.829,1.492,2.265.884,3.646a11.59,11.59,0,0,1-3.149,4.475A16.645,16.645,0,0,1,184.076,50a12.935,12.935,0,0,1-4.42-8.9c-.166-2.486-.055-4.972-.055-7.459C179.546,33.7,179.546,33.7,179.491,33.7Zm1.713-.055h0c-.055,1.547.055,3.149-.055,4.7-.608,10.5,10,16.63,19.393,12.873a11.771,11.771,0,0,0,6.409-5.8,1.8,1.8,0,0,0-.608-2.6c-3.2-2.486-3.37-2.541-5.857.608a6.71,6.71,0,0,1-7.569,2.6,6.391,6.391,0,0,1-4.807-6.354c-.11-4.033-.166-8.122,0-12.155a6.412,6.412,0,0,1,5.194-6.3c2.983-.718,5.525.387,7.569,3.26.553.718.829,2.044,1.768,1.989a7.316,7.316,0,0,0,4.365-2.6c.884-.939-.111-1.934-.608-2.762-2.818-4.751-9.171-7.072-15.3-5.58a12.666,12.666,0,0,0-9.945,11.492C181.093,29.23,181.2,31.44,181.2,33.65Z" transform="translate(-90.412 -11.712)"/><path class="a" d="M18.287,38.239c0-3.149.11-6.243,0-9.392C17.9,19.786,24.7,13.708,32.928,13.487a23.146,23.146,0,0,1,12.928,3.37c2.652,1.6,2.983,3.039,1.436,5.691a11.76,11.76,0,0,1-.884,1.381c-1.492,2.265-2.486,2.541-4.807,1.215a15.221,15.221,0,0,0-8.122-2.32,4.7,4.7,0,0,0-4.751,4.144c-.166,1.381.111,2.265,1.823,2.21,2.873-.11,5.691-.055,8.564,0,2.762.055,3.37.663,3.425,3.425.221,5.138-.166,5.47-5.249,5.47-2.1,0-4.254.111-6.354-.055-1.878-.111-2.376.663-2.32,2.431.111,3.039.055,6.077,0,9.116-.055,2.707-.829,3.425-3.481,3.481-1.271.055-2.6.055-3.867,0-2.265-.11-2.873-.773-2.983-3.039V38.239Zm1.657.221V47.3c0,4.42,0,4.42,4.42,4.254,2.431-.111,2.541-.166,2.541-2.762v-8.84c0-3.094.276-3.37,3.26-3.37,2.762-.055,5.525,0,8.287,0,2.32-.055,2.32-.055,2.32-2.6,0-2.873,0-2.873-2.265-2.928q-4.558-.083-9.116,0c-1.713,0-2.431-.773-2.486-2.486a6.813,6.813,0,0,1,7.68-7.348,19.717,19.717,0,0,1,7.293,2.265c2.155,1.1,2.32,1.05,3.867-1.657,1.05-1.878.939-2.32-1.05-3.481a21.342,21.342,0,0,0-11.547-3.094C25.3,15.532,20.055,21,19.945,28.9,19.89,32,19.945,35.2,19.945,38.46Z" transform="translate(-18.272 -11.716)"/><path class="a" d="M270.236,38.275c0-4.033-.055-8.066.055-12.155.055-1.823-.608-2.486-2.376-2.376-1.713.111-3.481,0-5.249,0a2.409,2.409,0,0,1-2.6-2.6c-.055-5.47-.608-6.464,5.47-6.354,7.072.111,14.144,0,21.216.055,3.425,0,3.978.552,3.978,4.033,0,.663.055,1.271,0,1.934-.111,2.21-.773,2.873-3.094,2.983-1.658.055-3.315.111-4.973,0-1.713-.11-2.265.608-2.21,2.265.055,5.967,0,11.934,0,17.9,0,2.21.055,4.42,0,6.63-.055,2.542-.663,3.094-3.094,3.2-1.271.055-2.6.055-3.867,0-2.542-.055-3.2-.663-3.26-3.37-.055-4.088,0-8.122,0-12.155Zm8.564-.718V24.849c0-2.32.387-2.707,2.763-2.762,1.768-.055,3.481,0,5.249,0,2.265-.055,2.265-.055,2.265-2.707,0-2.6-.11-2.818-2.155-2.873-3.149-.055-6.243,0-9.393,0-4.531,0-9.006.055-13.536,0-1.657,0-2.431.552-2.265,2.265a5.768,5.768,0,0,1,0,1.381c-.111,1.381.442,2.044,1.934,1.989,1.658-.055,3.315,0,4.972,0,3.149,0,3.37.276,3.426,3.536,0,7.348-.055,14.752,0,22.1.055,4.7-.939,4.309,4.42,4.42,1.823.055,2.431-.663,2.376-2.431C278.69,45.678,278.745,41.59,278.8,37.557Z" transform="translate(-126.461 -12.304)"/><path class="a" d="M260.067,142.862c-2.486-.055-3.315-1.326-2.044-3.094a1.745,1.745,0,0,0,.055-2.155,1.39,1.39,0,0,1,.774-2.044,2.81,2.81,0,0,1,2.873.221c.829.608.608,1.436.166,2.21-.276.5-1.271.774-.553,1.547.663.663.773-.553,1.271-.5a.638.638,0,0,1,.608.718,7.649,7.649,0,0,1,.276,2.431c-.331,1.1-1.381-.166-2.1.387C261.116,142.862,260.4,142.806,260.067,142.862Zm-.055-1.105c.442-.055.995,0,.939-.608a1.354,1.354,0,0,0-1.215-1.216.816.816,0,0,0-.884.773C258.741,141.536,259.348,141.7,260.011,141.757Zm.939-4.7a.768.768,0,0,0-.663-.718c-.608-.055-.884.221-.884.773a.719.719,0,0,0,.608.773C260.564,137.889,260.785,137.5,260.951,137.06Z" transform="translate(-125.297 -66.227)"/><path class="a" d="M394.533,138.694c.221-.829-.608-2.376.552-2.762,1.381-.5,1.437,1.326,2.1,2.1.387.442.442,1.492,1.16,1.326.829-.166.387-1.05.5-1.6.055-.332,0-.718.055-1.105a.643.643,0,0,1,.608-.718c.166,0,.442.387.442.608a49.723,49.723,0,0,1-.055,5.746c-.055.939-.829.884-1.326.221-.608-.884-1.16-1.879-1.713-2.818-.166-.276-.331-.442-.663-.387s-.332.332-.387.608a11.551,11.551,0,0,1-.055,1.381c-.055.608.166,1.547-.718,1.437-.773-.055-.5-.995-.553-1.6C394.478,140.351,394.533,139.578,394.533,138.694Z" transform="translate(-186.612 -66.479)"/><path class="a" d="M369.3,138.88v-.829c.055-2.762,1.216-3.591,3.757-2.652,1.271.442,1.989,1.492,1.216,2.542-.939,1.326-.552,2.32,0,3.536.166.331.331.773-.055.994-.5.276-.829-.111-1.05-.5a4.165,4.165,0,0,1-.331-.718c-.276-.663-.5-1.492-1.492-1.326-.884.166-.608.995-.663,1.6-.055.5-.166,1.05-.718.995-.5-.055-.608-.608-.608-1.105,0-.939,0-1.713-.055-2.541Zm2.321-2.707c-.829.111-.995.663-.939,1.381.055.829.552,1.105,1.326.995a1.1,1.1,0,0,0,1.05-1.326C372.947,136.394,372.283,136.228,371.621,136.173Z" transform="translate(-175.358 -66.113)"/><path class="a" d="M268.38,112.383v-1.1c.055-2.431,1.492-3.315,3.7-2.376.332.166.774.387.829.663.166,1.823.608,3.757.221,5.47-.387,1.492-2.21,1.271-3.591,1.105-1.326-.166-1.1-1.215-1.16-2.1C268.325,113.488,268.38,112.935,268.38,112.383Zm3.7,1.436a1.282,1.282,0,0,0-1.326-.995c-.884-.055-1.05.5-1.05,1.215,0,.773.387,1.216,1.216,1.105A1.213,1.213,0,0,0,272.082,113.819Zm-.221-3.2a1.041,1.041,0,0,0-1.16-.884c-.718-.055-.939.442-.939,1.05,0,.718.387.939,1.05.829C271.364,111.5,271.806,111.278,271.861,110.615Z" transform="translate(-130.185 -54.257)"/><path class="a" d="M194.176,112.705a6.492,6.492,0,0,1,0-1.05c.166-1.16-.553-2.707,1.547-2.873,2.21-.166,3.536.608,4.033,2.431a5.006,5.006,0,0,1-.11,2.983,3.391,3.391,0,0,1-4.033,2.044C193.071,115.8,194.728,113.755,194.176,112.705Zm1.326-.221c.442.939-.608,2.376.994,2.762,1.16.276,2.1-.939,2.155-2.6s-.718-2.818-1.989-2.707C194.839,110.108,195.944,111.6,195.5,112.484Z" transform="translate(-96.976 -54.358)"/><path class="a" d="M243.824,108.8c2.542.111,3.37,1.216,2.21,3.315-.774,1.326.221,2.044.332,3.039.055.387.11.773-.332.829a1.091,1.091,0,0,1-.663-.331,2.206,2.206,0,0,1-.387-.718c-.276-.663-.5-1.547-1.381-1.492-1.16.055-.663,1.05-.829,1.713-.111.331-.111.773-.553.829-.608.055-.773-.442-.773-.884-.055-1.657-.111-3.315,0-4.972C241.5,108.468,242.885,108.911,243.824,108.8Zm-.111,3.426c.829,0,1.437-.331,1.492-1.215.055-.773-.608-1.05-1.271-1.16-.829-.166-1.16.276-1.16,1.05C242.774,111.562,242.774,112.226,243.714,112.226Z" transform="translate(-118.115 -54.375)"/><path class="a" d="M291.025,116.353c-2.1.055-3.425-1.381-3.425-3.757,0-2.265,1.1-3.591,3.149-3.7,2.21-.111,3.481,1.16,3.536,3.591C294.4,114.862,293.18,116.3,291.025,116.353Zm1.934-3.757c0-1.713-.773-2.707-2.1-2.6-1.547.11-1.878,1.215-1.934,2.486-.055,1.381.331,2.6,1.934,2.818C292.075,115.414,292.959,114.2,292.959,112.6Z" transform="translate(-138.797 -54.415)"/><path class="a" d="M185.785,112.712c-.055,2.376-1.326,3.757-3.481,3.646-1.989-.11-3.149-1.492-3.2-3.7,0-2.376,1.215-3.757,3.37-3.757Q185.785,108.9,185.785,112.712Zm-5.3-.055c.055,1.215.276,2.486,1.934,2.652,1.16.111,2.1-1.105,2.044-2.707-.055-1.215-.276-2.376-1.823-2.6C181.31,109.839,180.537,110.778,180.481,112.657Z" transform="translate(-90.243 -54.42)"/><path class="a" d="M322.258,139.962a10.23,10.23,0,0,1,.221-1.381c.221-.884-.552-2.376.663-2.431.884-.055.442,1.547.5,2.376.055,1.1,0,2.21,0,3.315,0,.442-.055.995-.608,1.05a1.057,1.057,0,0,1-1.05-.718c-.5-.884-.995-1.768-1.492-2.6a.788.788,0,0,0-.663-.332c-.332,0-.332.387-.387.663a7.407,7.407,0,0,1-.055,1.105c-.111.608.276,1.768-.663,1.713-.884-.055-.5-1.215-.553-1.878-.055-1.16,0-2.376,0-3.591,0-.552-.055-1.215.608-1.381.608-.166.939.331,1.271.829A14.109,14.109,0,0,0,322.258,139.962Z" transform="translate(-152.459 -66.476)"/><path class="a" d="M259.984,112.5c.055,2.32-1.326,3.812-3.37,3.812s-3.2-1.326-3.315-3.591c-.055-2.431,1.1-3.867,3.2-3.923C258.6,108.8,259.928,110.126,259.984,112.5Zm-1.381,0c0-1.658-.829-2.652-2.1-2.6-1.6.111-1.823,1.271-1.878,2.486-.055,1.6.773,2.762,1.934,2.818C257.774,115.264,258.6,114.1,258.6,112.5Z" transform="translate(-123.446 -54.375)"/><path class="a" d="M168.019,108.9c2.1.055,3.315,1.492,3.2,3.923-.055,2.321-1.492,3.7-3.591,3.591-2.044-.11-3.149-1.547-3.039-4.088C164.76,109.948,165.865,108.843,168.019,108.9Zm1.878,3.426c-.055-1.105-.387-2.265-1.934-2.376-1.271-.11-2.1.939-2.1,2.6,0,1.6.884,2.818,2.044,2.707C169.566,115.086,169.843,113.871,169.9,112.324Z" transform="translate(-83.748 -54.419)"/><path class="a" d="M206.727,135.267c2.818.055,3.646,1.16,2.486,3.425-.608,1.215.166,1.878.387,2.818.055.332.276.773-.111.995-.552.332-.773-.166-1.05-.5a1.963,1.963,0,0,1-.221-.5c-.276-.663-.5-1.492-1.381-1.492-1.16.055-.718,1.05-.829,1.658-.055.387-.11.773-.552.829-.608.055-.718-.5-.718-.939-.055-1.381.055-2.762-.055-4.144C204.517,135.709,205.346,135.046,206.727,135.267Zm.608,3.37a1.13,1.13,0,0,0,1.05-1.381c-.111-.718-.773-.939-1.436-.994-.884,0-.995.608-.995,1.271C205.954,138.361,206.34,138.747,207.335,138.637Z" transform="translate(-101.682 -66.201)"/><path class="a" d="M232.368,114.572c.166,1.05-.663,1.713-2.265,1.713a3.579,3.579,0,0,1-3.812-4.033c.166-2.431,1.768-3.757,4.31-3.481.332.055.829-.055.884.387.111.774-.5.5-.884.553-2.431.387-3.37,1.547-2.818,3.591a2.4,2.4,0,0,0,1.05,1.547c.553.331,1.216.608,1.768.055a1.293,1.293,0,0,0-.055-1.934c-.276-.332-1.271-.111-.884-.995.111-.221.663-.276.995-.276.663-.055,1.326,0,1.547.829A13.515,13.515,0,0,1,232.368,114.572Z" transform="translate(-111.355 -54.346)"/><path class="a" d="M303.08,112.442a4.155,4.155,0,0,1,0-.829c.166-1.05-.608-2.486,1.326-2.762s3.481.387,4.144,1.934c1.1,2.652-.276,5.249-2.983,5.525-1.934.221-2.376-.221-2.431-2.21A8.324,8.324,0,0,1,303.08,112.442Zm4.42-.055c0-.166-.055-.553-.111-.939A1.868,1.868,0,0,0,305.4,109.9c-1.216.055-1.05,1.05-1.05,1.823a14.757,14.757,0,0,0,0,2.21c.166,1.271.995,1.657,2.1.994C307.334,114.375,307.445,113.491,307.5,112.386Z" transform="translate(-145.713 -54.371)"/><path class="a" d="M344.3,139.1V137.44c0-1.05-.055-2.155,1.436-2.155,1.381,0,2.873-.276,3.591,1.326a2.318,2.318,0,0,1-1.547,3.26c-1.215.276-2.32.442-2.155,2.1a.588.588,0,0,1-.5.552.723.723,0,0,1-.718-.663c-.055-.939,0-1.823,0-2.762Zm2.376-.11c.995-.111,1.6-.553,1.547-1.381,0-.995-.718-1.381-1.657-1.381-1.105.055-.829.939-.884,1.6C345.681,138.656,346.013,139.1,346.676,138.987Z" transform="translate(-164.17 -66.219)"/><path class="a" d="M349.91,112.442a7.371,7.371,0,0,1,0-1.1c.11-.939-.387-2.21.994-2.486,1.216-.221,2.6-.442,3.591.608a1.87,1.87,0,0,1-.055,2.707c-.773.829-.111,1.492.111,2.21.166.5.663,1.1.055,1.436-.663.331-.884-.331-1.16-.829-.11-.221-.221-.5-.331-.773a1.294,1.294,0,0,0-1.215-.939c-.718.055-.718.663-.829,1.215-.055.5.11,1.326-.608,1.271-.884-.055-.608-.939-.663-1.547A16.841,16.841,0,0,0,349.91,112.442Zm3.812-1.547c-.166-.939-.829-1.16-1.6-1.1-.884.055-.884.718-.884,1.381a.919.919,0,0,0,1.05.994A1.319,1.319,0,0,0,353.723,110.895Z" transform="translate(-166.631 -54.316)"/><path class="a" d="M291.955,138.968a11.523,11.523,0,0,1,0-1.381c.055-.829-.387-1.989.939-2.21,1.271-.221,2.6-.331,3.646.608a1.5,1.5,0,0,1,.442,1.768,3.4,3.4,0,0,0-.055,4.033.538.538,0,0,1-.166.718c-.387.276-.663,0-.884-.276a3.072,3.072,0,0,1-.5-.939c-.276-.718-.552-1.492-1.492-1.326-.829.166-.608.995-.718,1.6-.055.442-.055.995-.663.995-.608-.055-.552-.608-.608-1.05.055-.884.055-1.713.055-2.542Zm2.32-.332c.774-.055,1.437-.332,1.437-1.215,0-.773-.608-1.05-1.271-1.16-.773-.111-1.16.332-1.216,1.105C293.171,138.084,293.392,138.636,294.276,138.636Z" transform="translate(-140.721 -66.2)"/><path class="a" d="M386.388,138.644c-.442.773-1.05.608-1.547.663-.774.111-1.16.442-1.16,1.216.055.829.552,1.05,1.271,1.1a7.484,7.484,0,0,1,1.1.111c.166.055.387.166.387.331.055.276-.166.5-.442.608-2.21.884-3.646-.111-3.7-2.486v-1.658c0-3.536.387-3.757,4.088-2.818-.11.773-.773.552-1.215.608-.608.11-1.381,0-1.437.884s.608.995,1.271,1.05A1.842,1.842,0,0,1,386.388,138.644Z" transform="translate(-181.175 -66.208)"/><path class="a" d="M361.182,141.936a1.63,1.63,0,0,1-.276.718c-.387.276-.608-.055-.884-.276-1.657-1.6-1.657-1.6-3.591.166-.221.166-.387.5-.663.221a.875.875,0,0,1-.276-.663c.608-1.934,1.105-3.867,1.879-5.746.442-1.105,1.547-1.05,1.989.11C360.022,138.179,360.574,140.058,361.182,141.936Zm-3.646-2.818c-.055.552.166.939.718.939a.7.7,0,0,0,.718-.939c-.055-.553-.221-1.436-.608-1.436C357.591,137.682,357.756,138.621,357.536,139.118Z" transform="translate(-169.173 -66.351)"/><path class="a" d="M196.372,141.617q.083.995-.331.995a.963.963,0,0,1-.663-.332c-1.271-1.934-2.431-2.044-3.646.055a.6.6,0,0,1-.718.276c-.442-.166-.387-.553-.276-.939.608-1.823,1.16-3.646,1.823-5.47.387-1.05,1.381-1.16,1.823-.221A53.873,53.873,0,0,1,196.372,141.617Zm-2.652-1.658c.552-.221.552-.718.442-1.326-.055-.331-.11-.884-.5-.829-.884.111-.718.939-.773,1.492C192.781,139.683,193.168,139.9,193.72,139.959Z" transform="translate(-95.415 -66.252)"/><path class="a" d="M219.629,114.878c.166.718.11,1.05-.166,1.16a1,1,0,0,1-.718-.111c-1.215-1.823-2.376-2.265-3.7-.111a.848.848,0,0,1-.718.276c-.387-.166-.387-.553-.276-.939.608-1.823,1.16-3.646,1.879-5.414.442-1.1,1.381-1.05,1.823-.055C218.579,111.508,219.132,113.442,219.629,114.878Zm-2.044-1.934c-.11-.939-.221-1.547-.718-1.547-.663,0-.663.718-.718,1.215s.166.884.773.829C217.529,113.331,217.584,112.944,217.584,112.944Z" transform="translate(-105.854 -54.431)"/><path class="a" d="M309.978,141.842c-.111.718-.553,1.16-.884.718-1.381-1.934-2.652-2.486-4.033-.055-.055.111-.332.166-.5.166a.472.472,0,0,1-.387-.608c.608-1.989,1.216-4.033,1.989-5.967a.9.9,0,0,1,1.713,0C308.707,138.03,309.315,140.019,309.978,141.842Zm-2.21-2.652c-.166-.5-.11-1.271-.608-1.381-.663-.166-.718.608-.829,1.1-.111.442-.055.939.552,1.05C307.436,140.075,307.712,139.8,307.768,139.191Z" transform="translate(-146.202 -66.312)"/><path class="a" d="M334.552,135.3a8.55,8.55,0,0,1,.939.166.924.924,0,0,1,.608.5c0,.552-.442.387-.773.387-.718-.055-1.658-.276-1.823.663-.221,1.105.829,1.271,1.547,1.6,1.216.553,1.989,1.437,1.492,2.818-.552,1.547-1.878,1.492-3.2,1.381-.387-.055-.773-.221-.773-.663,0-.5.442-.442.773-.442.774.055,1.6.11,1.823-.773s-.663-1.16-1.271-1.547a5.068,5.068,0,0,1-1.16-.718,1.889,1.889,0,0,1-.552-2.21C332.619,135.411,333.5,135.355,334.552,135.3Z" transform="translate(-158.677 -66.234)"/><path class="a" d="M342.117,115.762c-.608.718-1.271.5-1.878.5-2.431.055-2.486,0-2.542-2.32,0-1.105.055-2.21,0-3.26-.055-1.326.608-1.823,1.823-1.713.773.055,2.21-.276,2.265.331.11,1.271-1.216.552-1.878.773-.5.166-.829.331-.829.884a.826.826,0,0,0,.829.884c.442.055.939.055,1.381.111.276.055.552.221.5.552a.557.557,0,0,1-.608.387c-.387,0-.718.055-1.1.055a.944.944,0,0,0-.994,1.05c-.055.773.331,1.16,1.1,1.215A2.569,2.569,0,0,1,342.117,115.762Z" transform="translate(-161.214 -54.431)"/><path class="a" d="M364.754,116.278a7.568,7.568,0,0,1-.884-.11c-.331-.111-.773-.221-.718-.663.055-.5.442-.387.829-.331.829.11,1.768.331,1.989-.829.166-.939-.718-1.215-1.326-1.492-1.326-.552-2.21-1.492-1.6-2.983.608-1.547,2.1-1.1,3.315-1.05a.545.545,0,0,1,.552.5c.11.553-.332.5-.718.5a7.4,7.4,0,0,0-1.1-.055.9.9,0,0,0-.829.608.943.943,0,0,0,.5,1.16c.387.221.829.387,1.216.608a2.081,2.081,0,0,1,1.326,2.652C366.964,116,365.97,116.222,364.754,116.278Z" transform="translate(-172.469 -54.339)"/><path class="a" d="M329.428,110.515c-.442,1.381-.994,3.315-1.768,5.194-.442.994-1.381,1.05-1.823.055-.774-1.768-1.271-3.646-1.879-5.47-.111-.387-.055-.829.276-.939.5-.166.829.276.939.773.331,1.05.608,2.1.939,3.149.11.332.276.773.718.608.166-.055.332-.387.387-.608.442-1.215.829-2.431,1.271-3.646.055-.166.442-.331.663-.331C329.428,109.3,329.594,109.632,329.428,110.515Z" transform="translate(-155.044 -54.599)"/><path class="a" d="M423.384,138.276c.829-.5.884-1.547,1.492-2.21.221-.276.552-.552.939-.331.442.221.332.552.11.939-.939,1.768-2.1,3.426-1.934,5.58,0,.166-.331.5-.552.552a.586.586,0,0,1-.663-.663c.221-2.1-.995-3.646-1.823-5.359-.166-.332-.331-.773.055-.995.5-.332.829.055,1.1.442C422.5,136.84,422.666,137.724,423.384,138.276Z" transform="translate(-198.391 -66.393)"/><path class="a" d="M412.824,135.956c-1.436.5-3.149.442-3.425,2.542-.276,1.768.442,2.873,2.32,3.315.387.11,1.105-.166,1.105.442,0,.718-.773.663-1.271.663a3.076,3.076,0,0,1-3.149-1.768,4.186,4.186,0,0,1,.442-4.641C409.9,135.183,411.277,135.127,412.824,135.956Z" transform="translate(-192.638 -66.283)"/><path class="a" d="M281.608,135.255h1.381c.331,0,.773,0,.884.442.111.5-.331.5-.663.608-1.6.608-.829,1.989-.994,3.039s.331,2.983-.553,2.928c-1.492-.111-.5-1.879-.773-2.928-.221-1.1.608-2.652-1.326-3.149-.718-.221-.387-.718.11-.829a10.79,10.79,0,0,1,1.879-.166A.054.054,0,0,0,281.608,135.255Z" transform="translate(-135.015 -66.189)"/><path class="a" d="M168.573,142.883c-2.431,0-3.812-1.768-3.591-4.31a3.3,3.3,0,0,1,3.978-3.2c.331.055.829.055.829.552s-.5.442-.829.442c-1.879,0-2.652,1.05-2.652,2.762a2.4,2.4,0,0,0,2.265,2.652c.442.055,1.271-.276,1.271.5C169.733,142.938,168.959,142.772,168.573,142.883Z" transform="translate(-83.914 -66.248)"/><path class="a" d="M243.359,136.474a15.433,15.433,0,0,1-.995,1.879A6.071,6.071,0,0,0,241.37,142c0,.332-.11.773-.608.773-.442,0-.608-.442-.608-.773.166-1.879-.884-3.315-1.658-4.862-.221-.442-.718-.994,0-1.381.5-.221.829.276,1.05.663a8.348,8.348,0,0,1,.5.995c.5.995.939.995,1.437,0,.276-.553.387-1.271,1.05-1.547a.816.816,0,0,1,.5-.055C243.359,135.811,243.469,136.087,243.359,136.474Z" transform="translate(-116.655 -66.414)"/><path class="a" d="M400.809,109.606c-.166.331-.331.773-.553,1.16-.773,1.436-1.768,2.762-1.6,4.53a.643.643,0,0,1-.608.773.546.546,0,0,1-.552-.5c.166-2.155-1.05-3.812-1.934-5.58-.166-.331-.331-.718.111-.939a.814.814,0,0,1,.939.331c.055.055.111.166.166.221.5.608.552,1.878,1.437,1.823.773-.055.884-1.271,1.381-1.934a.9.9,0,0,1,.884-.442C400.588,109.109,400.643,109.385,400.809,109.606Z" transform="translate(-187.031 -54.463)"/><path class="a" d="M157.855,112.856c-2.1-.055-3.2.608-2.928,2.652.055.276-.221.5-.5.552-.442.055-.663-.276-.663-.663q-.083-2.735,0-5.47c.055-.939.829-1.05,1.6-1.05.773.055,1.658-.221,2.376.276.055.055-.166.608-.331.608a10.874,10.874,0,0,1-1.326.166c-.608.055-1.05.276-1.05.994,0,.663.387.939.994,1.05A1.816,1.816,0,0,1,157.855,112.856Z" transform="translate(-78.887 -54.398)"/><path class="a" d="M230.167,135.791c-.055.111-.055.221-.111.276-2.652,1.1-1.1,3.425-1.547,5.194a4.265,4.265,0,0,1-.11.829c-.111.221-.276.553-.608.442a.656.656,0,0,1-.442-.552c-.055-1.16-.055-2.376-.111-3.536-.055-.608.111-1.271-.442-1.768-.387-.387-1.547,0-1.16-.995.276-.608,1.16-.332,1.768-.332.718,0,1.437,0,2.155.055C229.781,135.4,229.946,135.681,230.167,135.791Z" transform="translate(-111.033 -66.228)"/><path class="a" d="M178.659,138.973c.332-.829-.663-2.818.663-2.873,1.436,0,.663,1.934.718,2.984.111,1.6-.111,3.26,2.32,2.983.276-.055.829,0,.663.608-.055.332-.387.332-.608.387C179.322,143.78,178.659,143.117,178.659,138.973Z" transform="translate(-90.023 -66.592)"/><path class="a" d="M385.323,108.8c.663.055,1.271.055,1.934.166.442.111.552.663.166.774-2.321.552-1.381,2.376-1.547,3.757-.11.829.387,2.376-.5,2.376-1.271-.055-.552-1.6-.773-2.486-.276-1.271.884-3.039-1.437-3.591-.442-.11-.387-.829.276-.884.608-.055,1.271,0,1.934,0A.171.171,0,0,1,385.323,108.8Z" transform="translate(-181.436 -54.375)"/><path class="a" d="M218.2,138.9v-2.486a.654.654,0,0,1,.663-.718.686.686,0,0,1,.663.718c0,1.934,0,3.812-.055,5.746a.613.613,0,0,1-.718.608.815.815,0,0,1-.5-.552c-.055-1.105-.055-2.21-.055-3.315Z" transform="translate(-107.74 -66.413)"/><path class="a" d="M376.937,112.889c0,.663.055,1.271,0,1.934-.055.553.221,1.437-.718,1.437-.663,0-.718-.718-.718-1.271v-4.641c0-.442.11-.994.663-1.05.773-.055.773.608.773,1.16v2.431Z" transform="translate(-178.132 -54.597)"/><path class="a" d="M318.471,112.763v2.707a.729.729,0,0,1-.608.773.61.61,0,0,1-.663-.663V109.89a.568.568,0,0,1,.718-.608.729.729,0,0,1,.608.774C318.471,110.94,318.471,111.879,318.471,112.763Z" transform="translate(-152.043 -54.582)"/><path class="a" d="M283.116,112.681v2.707a.678.678,0,0,1-.608.773c-.5.055-.608-.387-.608-.718,0-1.934,0-3.812.055-5.746a.493.493,0,0,1,.5-.5.682.682,0,0,1,.608.442c.11.994.166,1.989.221,2.983A.427.427,0,0,1,283.116,112.681Z" transform="translate(-136.246 -54.554)"/><path class="b" d="M203.584,28.295A24.614,24.614,0,0,0,208,25.532c.995-.829.939-1.547.331-2.762-2.155-4.7-5.8-6.8-10.829-7.514a14.92,14.92,0,0,0-13.536,4.807c-2.818,2.928-2.983,6.74-3.039,10.5a77.73,77.73,0,0,0,.331,12.431,12.3,12.3,0,0,0,8.011,9.834,15.155,15.155,0,0,0,15.746-2.044c.332-.276.718-.552,1.05-.884,4.033-3.923,3.481-6.63-1.657-8.84-1.16-.5-2.044-.5-2.818.829a8.948,8.948,0,0,1-3.26,3.646,5.8,5.8,0,0,1-8.785-4.751,81.318,81.318,0,0,1,0-12.707c.166-2.818,2.044-4.586,4.917-5.3,1.989-.442,4.254.553,6.133,2.762.829.994,1.16,2.486,2.762,2.762" transform="translate(-91.024 -12.434)"/><path class="b" d="M47.644,20.382c.11-1.547-1.271-1.878-2.21-2.486a22.079,22.079,0,0,0-11.05-3.2,13.679,13.679,0,0,0-8.84,2.652c-2.873,2.155-5.028,4.751-5.635,8.564a37.839,37.839,0,0,0-.442,5.525c-.055,6.188-.055,12.321,0,18.509,0,2.32.442,2.818,2.762,2.762,1.823-.055,4.088.773,5.414-.387,1.6-1.381.5-3.757.608-5.691a57.6,57.6,0,0,0,0-6.906c-.055-1.492.5-1.989,1.934-1.934,3.2.055,6.464-.055,9.669.055,1.713.055,2.265-.552,2.265-2.265-.166-5.746.773-4.917-4.7-4.972-2.486,0-4.972-.055-7.459,0-1.271.055-1.657-.387-1.713-1.657-.166-4.53,3.26-7.017,7.79-6.188a16.909,16.909,0,0,1,6.354,2.32c1.547.994,2.652.5,3.591-.829a7.937,7.937,0,0,0,1.657-3.591" transform="translate(-18.788 -12.257)"/><path class="b" d="M168.676,116.354c2.541-1.16,2.652-1.823,2.265-4.42-.331-2.21-1.713-1.878-3.094-1.934-1.768,0-1.823,1.105-1.989,2.486-.276,2.21.552,3.481,2.541,4.144" transform="translate(-84.294 -54.912)"/><path class="b" d="M183.524,116.267c1.768-.829,2.928-3.26,2.21-4.7-.552-1.1-2.928-2.1-3.867-1.658-1.16.608-1.768,3.7-1.16,4.972.553,1.105,1.879.774,2.542,1.658" transform="translate(-90.854 -54.825)"/><path class="b" d="M231.642,109.971c-3.26-.221-4.2.552-4.144,3.315,0,1.326.332,2.431,1.934,2.762,1.16.276,2.376.608,2.707-.884.331-1.326,0-2.652-1.879-2.486" transform="translate(-111.9 -54.884)"/><path class="b" d="M196.017,116.021a2.457,2.457,0,0,0,3.536-1.381,3.833,3.833,0,0,0-.5-4.144c-.829-.939-1.878-.553-2.762-.5-1.16.111-.829,1.16-.829,1.879v3.867" transform="translate(-97.546 -54.855)"/><path class="b" d="M109.21,158.1c-1.823-2.1-.663-4.31.055-6.354a11.553,11.553,0,0,1,3.812-5.249" transform="translate(-58.53 -71.246)"/><path class="b" d="M128.5,146.5c1.6,2.21,3.425,4.31,3.923,7.182.331,1.878.331,3.481-.884,4.973" transform="translate(-67.599 -71.246)"/><path class="b" d="M346.049,139.832a11.517,11.517,0,0,1,1.381,0c1.105.111,1.437-.608,1.989-1.381.718-.995-.276-1.16-.608-1.658-.608-1.05-1.6-.884-2.486-.829-.939.11-.829.939-.829,1.657v5.249" transform="translate(-164.704 -66.512)"/><path class="b" d="M413.177,136c-3.646.111-4.862,1.934-3.646,4.972.773,1.823,2.21,1.6,3.646,1.658" transform="translate(-193.157 -66.547)"/><path class="b" d="M170.158,136c-3.647.111-4.917,2.044-3.647,4.972.829,1.934,2.21,1.547,3.647,1.658" transform="translate(-84.395 -66.547)"/><path class="b" d="M293.53,139.575c.718-.221,1.436.5,2.265-.221.718-.608,1.326-1.1,1.05-1.989a2.065,2.065,0,0,0-2.486-1.381,1.4,1.4,0,0,0-1.326,1.934c.442,1.713-.221,3.315-.055,4.973" transform="translate(-141.191 -66.531)"/><path class="b" d="M367.531,110.208c-.276-.111-.608-.331-.829-.276-.939.221-2.32-.718-2.762.829-.387,1.326.829,1.989,1.658,2.431.939.5,2.1.608,1.326,1.989a2.036,2.036,0,0,1-3.039.829" transform="translate(-172.926 -54.845)"/><path class="b" d="M180,135.5v4.42c.055,2.32.111,2.376,2.486,2.486h1.1" transform="translate(-90.645 -66.324)"/><path class="b" d="M351.5,113.124h1.381c1.547.055,1.878-.884,1.934-2.21.055-1.879-1.547-1.05-2.265-1.271-1.16-.331-1.713.553-1.658,1.823.111,1.547,0,3.149,0,4.7" transform="translate(-167.12 -54.721)"/><path class="b" d="M206.552,139.514c1.216.718,1.934-.111,2.763-.829a1.413,1.413,0,0,0,.5-1.657,2.9,2.9,0,0,0-2.983-1.16c-.829.111-.829.718-.829,1.381v5.525" transform="translate(-102.28 -66.47)"/><path class="b" d="M371.049,139.264c.387.111.718.166,1.1.276a1.843,1.843,0,0,0,2.155-1.16,1.287,1.287,0,0,0-.221-1.6,3.216,3.216,0,0,0-2.762-.829c-.939.166-.829.939-.829,1.658v5.249" transform="translate(-175.891 -66.497)"/><path class="b" d="M245.529,112.822c.5-.773,1.934-1.326.552-2.486-.939-.773-1.823-1.215-3.094-.331-.387.276-.553.5-.5.884.166,1.768-.276,3.536.276,5.249" transform="translate(-118.604 -54.696)"/><path class="b" d="M336.367,136.222a5.889,5.889,0,0,0-1.658-.332,1.821,1.821,0,0,0-1.878,1.16c-.331.718.332,1.271,1.05,1.658.276.166.442.442.829.608.829.332,1.823.939,1.6,1.878-.332,1.216-1.437,1.6-2.707,1.381a8.077,8.077,0,0,1-1.1-.276" transform="translate(-158.889 -66.493)"/><path class="b" d="M270.051,112.606c.718-.166,1.547.276,2.21-.276a1.741,1.741,0,0,0,.829-1.934c-.332-.829-1.326-.773-1.934-.718-.552,0-1.713.055-1.657,1.271.055,1.547,0,3.149,0,4.7" transform="translate(-130.695 -54.756)"/><path class="b" d="M261.085,138.965l.553-.553c.5-.552,1.326-.994.552-1.934a1.493,1.493,0,0,0-2.21-.276c-.884.663-.829,1.436,0,2.21a5.213,5.213,0,0,1,.552.553" transform="translate(-126.149 -66.474)"/><path class="b" d="M245.349,135.5c-1.492,2.155-3.2,4.254-2.486,7.182" transform="translate(-118.701 -66.324)"/><path class="b" d="M219.276,135.5c-.111,2.376.276,4.807-.276,7.182" transform="translate(-108.098 -66.324)"/><path class="b" d="M318,109.5a16.742,16.742,0,0,1,0,6.63" transform="translate(-152.401 -54.689)"/><path class="b" d="M283,109.5v6.63" transform="translate(-136.738 -54.689)"/><path class="b" d="M283.5,137v6.354" transform="translate(-136.962 -66.995)"/><path class="b" d="M330.986,109.5c-.552,2.155-.608,4.475-2.486,6.077" transform="translate(-157.099 -54.689)"/><path class="b" d="M376.752,109.5c-.553,1.989-.166,4.033-.276,6.077" transform="translate(-178.555 -54.689)"/><path class="b" d="M230,137.5v6.077" transform="translate(-113.02 -67.219)"/><path class="b" d="M386.783,136h-1.934c-1.216-.055-1.547.608-1.381,1.657a8.879,8.879,0,0,1,.166,1.658c.166,3.315.055,3.315,3.094,3.315" transform="translate(-181.68 -66.545)"/><path class="b" d="M130.92,79c-1.436.663-2.763,1.658-4.42,1.658" transform="translate(-66.704 -41.04)"/><path class="b" d="M342.5,109.939a11.524,11.524,0,0,1-1.381,0c-1.823-.331-2.652.442-2.155,2.21.331,1.215-.718,2.6.276,3.591.884.884,2.265-.111,3.26.608" transform="translate(-161.71 -54.852)"/><path class="b" d="M158.581,109.5a4.1,4.1,0,0,1-1.381.276c-2.044-.221-2.6.5-1.989,2.541.332,1.16-.111,2.542-.221,3.868" transform="translate(-79.448 -54.689)"/><path class="b" d="M387,111v5.8" transform="translate(-183.278 -55.36)"/><path class="b" d="M325,109.5a13.581,13.581,0,0,0,1.657,5.249" transform="translate(-155.533 -54.689)"/><path class="b" d="M403.053,135.5c-.221,1.768.552,3.591-.552,5.249" transform="translate(-190.215 -66.324)"/><path class="b" d="M319.208,135.5a11.338,11.338,0,0,1-.221,3.867,5.714,5.714,0,0,0,.221,3.315" transform="translate(-152.78 -66.324)"/><path class="b" d="M326.83,136.5c.331,2.21-.608,4.42,0,6.63" transform="translate(-156.258 -66.771)"/><path class="b" d="M396.252,140c-.552,1.547-.166,3.149-.276,4.7" transform="translate(-187.282 -68.337)"/><path class="b" d="M243.5,115.863c2.542-.829,2.6,1.6,3.591,2.762" transform="translate(-119.062 -57.461)"/><path class="b" d="M323.539,142.591c-1.657-.663-1.381-2.928-3.039-3.591" transform="translate(-153.519 -67.89)"/><path class="b" d="M356,143.364a31.821,31.821,0,0,0,1.657-5.525c.166-.608.5-.939,1.105-.773a1.139,1.139,0,0,1,.608.773,27.649,27.649,0,0,0,1.658,5.525" transform="translate(-169.406 -67.005)"/><path class="b" d="M310.017,143.665a46.986,46.986,0,0,1-1.6-4.7,1.412,1.412,0,0,0-1.16-1.271c-.221-.055-.608.829-.773,1.326-.5,1.547-.939,3.149-1.381,4.7" transform="translate(-146.628 -67.306)"/><path class="b" d="M395.5,110c1.547.442,1.326,2.486,2.762,3.039" transform="translate(-187.082 -54.912)"/><path class="b" d="M193.71,137.5c-1.547,1.547-.995,3.867-2.21,5.525" transform="translate(-95.792 -67.219)"/><path class="b" d="M272.434,115.5c.663.608,1.768,1.271,1.326,2.155a2.26,2.26,0,0,1-3.26.884" transform="translate(-131.144 -57.374)"/><path class="b" d="M220,112a4.36,4.36,0,0,1,1.1,2.762,2.335,2.335,0,0,0,1.381,2.486" transform="translate(-108.545 -55.807)"/><path class="b" d="M197,138.5c.939,1.713.884,3.757,1.658,5.525" transform="translate(-98.253 -67.666)"/><path class="b" d="M238.5,135.5a13.344,13.344,0,0,0,1.934,3.315" transform="translate(-116.824 -66.324)"/><path class="b" d="M427.341,137c-1.216,1.934-2.431,3.867-1.934,6.354" transform="translate(-200.415 -66.995)"/><path class="b" d="M210.5,143a8.908,8.908,0,0,1,1.381,3.039" transform="translate(-104.294 -69.68)"/><path class="b" d="M402.19,109.5a2.269,2.269,0,0,1-.829,1.934,5.9,5.9,0,0,0-1.381,4.7" transform="translate(-189.076 -54.689)"/><path class="b" d="M396.5,137.5a11.742,11.742,0,0,0,3.591,4.475c.442.332.331,1.05,0,1.6" transform="translate(-187.53 -67.219)"/><path class="b" d="M422,137a10.933,10.933,0,0,0,1.934,3.039" transform="translate(-198.941 -66.995)"/><path class="b" d="M343.039,115.27a8.128,8.128,0,0,0-3.039-.276" transform="translate(-162.246 -57.144)"/><path class="b" d="M360.763,144.5H358" transform="translate(-170.301 -70.351)"/><path class="b" d="M309.763,144.5H307" transform="translate(-147.478 -70.351)"/><path class="b" d="M216.658,112.5,215,117.472" transform="translate(-106.308 -56.031)"/><path class="b" d="M229.92,136c-1.437.663-2.983-.166-4.42.276" transform="translate(-111.007 -66.547)"/><path class="b" d="M158.486,115.5H156" transform="translate(-79.905 -57.374)"/><path class="b" d="M382.5,109.5c1.6.663,3.315.221,4.972.276" transform="translate(-181.265 -54.689)"/><path class="b" d="M283.92,136H279.5" transform="translate(-135.172 -66.547)"/><path class="b" d="M194,144a4.379,4.379,0,0,0,2.21.276" transform="translate(-96.91 -70.127)"/><path class="b" d="M262.833,16.5c-.718.332-1.381.718-1.381,1.657a33.294,33.294,0,0,0,.055,4.7c.11.718.994.884,1.878.884,1.934-.111,3.867.111,5.8-.055,2.1-.166,2.542.442,2.542,2.541-.111,7.348-.055,14.752-.055,22.1v1.657c.055,3.591.055,3.591,3.591,3.591,4.973,0,4.973,0,4.973-4.972,0-7.569.055-15.083-.055-22.652,0-1.823.442-2.431,2.265-2.265,1.934.166,3.867-.055,5.8.055a2.244,2.244,0,0,0,2.431-1.713,7.429,7.429,0,0,0,0-3.812c-.331-1.271-1.492-1.713-2.983-1.713-8.177.111-16.409.055-24.586.055" transform="translate(-127.069 -13.071)"/><path class="b" d="M290.293,109.988c-2.044,1.271-1.547,3.2-1.05,4.972.387,1.436,2.6,1.878,3.812.829,1.326-1.1,1.215-2.541.884-4.144-.5-2.1-1.989-1.6-3.37-1.657" transform="translate(-139.335 -54.901)"/><path class="b" d="M256.131,110c-1.934.995-1.878,2.6-1.437,4.42a2.365,2.365,0,0,0,2.762,1.879c1.326-.055,2.1-.884,2.265-2.431.221-2.818-.553-3.867-3.37-3.867" transform="translate(-123.958 -54.912)"/><path class="b" d="M304.731,110c-1.713,1.6-.552,3.7-.718,5.525-.055.5,1.05.995,1.823.829,1.1-.276,2.155-.442,2.542-1.879.829-3.039-.11-4.42-3.37-4.42" transform="translate(-146.038 -54.912)"/></svg>