<svg xmlns="http://www.w3.org/2000/svg" width="88" height="31" viewBox="0 0 88 31"><defs><style>.a{fill:#fff;}</style></defs><g transform="translate(0.5)"><path class="a" d="M1.8.482,84.93.631c1.161,0,2.2-.173,2.2,2.333l-.1,27.556H-.295V2.862C-.295,1.626-.177.482,1.8.482Z"/><ellipse class="a" cx="11.101" cy="11.174" rx="11.101" ry="11.174" transform="translate(2.786 4.328)"/><path d="M23.271,4.061a14.251,14.251,0,0,1,.913,22.145H87.037V4.061Z"/><path class="a" d="M35.739,7.559a2.615,2.615,0,0,1,1,.173,1.909,1.909,0,0,1,.674.456,1.771,1.771,0,0,1,.379.647,2.449,2.449,0,0,1,0,1.5,1.759,1.759,0,0,1-.379.65,1.874,1.874,0,0,1-.674.456,2.615,2.615,0,0,1-1,.173H34.287v2.267H32.9V7.559Zm-.379,2.976a2.93,2.93,0,0,0,.457-.035,1.053,1.053,0,0,0,.388-.137.748.748,0,0,0,.269-.288,1.225,1.225,0,0,0,0-.974.725.725,0,0,0-.269-.287,1.058,1.058,0,0,0-.388-.138,2.821,2.821,0,0,0-.457-.036H34.287v1.9Z"/><path class="a" d="M43.751,13.4A3.441,3.441,0,0,1,39.8,13.4a2.428,2.428,0,0,1-.7-1.913V7.559h1.381v3.934A2.936,2.936,0,0,0,40.53,12a.977.977,0,0,0,.577.748,1.563,1.563,0,0,0,.673.12,1.288,1.288,0,0,0,1.021-.332,1.588,1.588,0,0,0,.282-1.04V7.559h1.382v3.934A2.4,2.4,0,0,1,43.751,13.4Z"/><path class="a" d="M49.07,7.559a3.817,3.817,0,0,1,.818.081,1.792,1.792,0,0,1,.633.261,1.219,1.219,0,0,1,.41.482,1.723,1.723,0,0,1,.146.745,1.387,1.387,0,0,1-.216.8,1.583,1.583,0,0,1-.639.523,1.507,1.507,0,0,1,.865.589,1.779,1.779,0,0,1,.286,1.015,1.727,1.727,0,0,1-.187.828,1.631,1.631,0,0,1-.5.571,2.165,2.165,0,0,1-.713.327,3.239,3.239,0,0,1-.822.1H46.108V7.559Zm-.175,2.56a.985.985,0,0,0,.607-.178.67.67,0,0,0,.236-.576A.737.737,0,0,0,49.66,9a.6.6,0,0,0-.211-.221.846.846,0,0,0-.305-.109,1.875,1.875,0,0,0-.355-.032H47.5v1.48Zm.08,2.685a1.867,1.867,0,0,0,.387-.04.977.977,0,0,0,.326-.133.707.707,0,0,0,.226-.254A.859.859,0,0,0,50,11.971a.827.827,0,0,0-.271-.695A1.169,1.169,0,0,0,49,11.068H47.5v1.738h1.479v0Z"/><path class="a" d="M54.143,7.559v5.156h3.062v1.168H52.76V7.559Z"/><path class="a" d="M59.748,7.559v6.324H58.366V7.559Z"/><path class="a" d="M65.451,9.247a1.4,1.4,0,0,0-.309-.349,1.426,1.426,0,0,0-.906-.32,1.611,1.611,0,0,0-.793.183,1.452,1.452,0,0,0-.525.486,2.182,2.182,0,0,0-.3.695,3.453,3.453,0,0,0-.093.806,3.226,3.226,0,0,0,.093.776,2.093,2.093,0,0,0,.3.678,1.541,1.541,0,0,0,.525.483,1.622,1.622,0,0,0,.793.181,1.275,1.275,0,0,0,.99-.389,1.828,1.828,0,0,0,.437-1.028H67a3.242,3.242,0,0,1-.271,1.072,2.574,2.574,0,0,1-.582.815,2.4,2.4,0,0,1-.845.513,3.059,3.059,0,0,1-1.065.178,3.206,3.206,0,0,1-1.3-.252,2.763,2.763,0,0,1-.973-.695,3.036,3.036,0,0,1-.607-1.04,3.818,3.818,0,0,1-.211-1.289,3.948,3.948,0,0,1,.211-1.316,3.191,3.191,0,0,1,.607-1.059,2.77,2.77,0,0,1,.973-.708,3.343,3.343,0,0,1,2.278-.108,2.691,2.691,0,0,1,.827.44,2.416,2.416,0,0,1,.6.712,2.582,2.582,0,0,1,.3.975H65.61A1.121,1.121,0,0,0,65.451,9.247Z"/><path class="a" d="M35.615,16.418a3.214,3.214,0,0,1,1.131.192,2.429,2.429,0,0,1,.906.585,2.72,2.72,0,0,1,.6.975,3.966,3.966,0,0,1,.216,1.371,4.415,4.415,0,0,1-.176,1.277,2.845,2.845,0,0,1-.532,1.012,2.541,2.541,0,0,1-.89.668,3.023,3.023,0,0,1-1.254.242H32.9V16.418h2.71Zm-.1,5.154a1.717,1.717,0,0,0,.581-.1,1.259,1.259,0,0,0,.5-.323,1.637,1.637,0,0,0,.352-.59,2.6,2.6,0,0,0,.132-.886,3.694,3.694,0,0,0-.093-.863,1.7,1.7,0,0,0-.3-.659,1.347,1.347,0,0,0-.559-.421,2.2,2.2,0,0,0-.858-.146h-.984v3.986Z"/><path class="a" d="M39.8,18.289a3.236,3.236,0,0,1,.606-1.059,2.766,2.766,0,0,1,.973-.709,3.419,3.419,0,0,1,2.6,0,2.778,2.778,0,0,1,.969.709,3.126,3.126,0,0,1,.6,1.059,3.927,3.927,0,0,1,.213,1.316,3.78,3.78,0,0,1-.213,1.288,3.168,3.168,0,0,1-.6,1.04,2.843,2.843,0,0,1-.969.695,3.482,3.482,0,0,1-2.6,0,2.82,2.82,0,0,1-.973-.695,3.122,3.122,0,0,1-.606-1.04,3.854,3.854,0,0,1-.211-1.288A3.982,3.982,0,0,1,39.8,18.289Zm1.262,2.09a2.114,2.114,0,0,0,.295.68,1.555,1.555,0,0,0,.527.482,1.805,1.805,0,0,0,1.584,0A1.506,1.506,0,0,0,44,21.059a2.172,2.172,0,0,0,.295-.68,3.2,3.2,0,0,0,.092-.774,3.465,3.465,0,0,0-.092-.806A2.157,2.157,0,0,0,44,18.1a1.522,1.522,0,0,0-.529-.485,1.8,1.8,0,0,0-1.584,0,1.507,1.507,0,0,0-.527.485,2.164,2.164,0,0,0-.295.7,3.446,3.446,0,0,0-.093.806A3.306,3.306,0,0,0,41.062,20.379Z"/><path class="a" d="M49.092,16.418l1.471,4.348h.02l1.393-4.348h1.942V22.74H52.624V18.26H52.6l-1.539,4.48H50L48.46,18.3h-.019V22.74H47.148V16.418Z"/><path class="a" d="M58.764,16.418l2.35,6.322H59.68L59.2,21.332H56.853l-.492,1.408H54.97l2.377-6.322h1.417Zm.08,3.879-.793-2.322h-.018L57.216,20.3Z"/><path class="a" d="M63.547,16.418V22.74H62.165V16.418Z"/><path class="a" d="M66.6,16.418l2.623,4.242h.018V16.418h1.294V22.74H69.155l-2.611-4.234h-.02V22.74H65.23V16.418H66.6Z"/><path d="M85.852,0H1.147A1.655,1.655,0,0,0-.5,1.658V30.627A.372.372,0,0,0-.128,31H87.128a.372.372,0,0,0,.372-.373V1.658A1.654,1.654,0,0,0,85.852,0ZM1.147.75H85.852a.9.9,0,0,1,.9.908V30.215H.245V1.658A.906.906,0,0,1,1.147.75Z"/><ellipse class="a" cx="11.004" cy="11.076" rx="11.004" ry="11.076" transform="translate(3.152 4.585)"/><path d="M14.22,8.746c-3.862,0-4.834,3.669-4.834,6.779S10.357,22.3,14.22,22.3s4.834-3.67,4.834-6.779S18.083,8.746,14.22,8.746Zm0,2.555a1.668,1.668,0,0,1,.435.06A.744.744,0,0,1,14.8,12.4l-2.572,4.76a12.735,12.735,0,0,1-.091-1.634C12.139,14.155,12.233,11.3,14.22,11.3Zm1.926,2.193a11.3,11.3,0,0,1,.155,2.03c0,1.37-.094,4.223-2.08,4.223a1.869,1.869,0,0,1-.435-.049.537.537,0,0,0-.074-.025,1.028,1.028,0,0,1-.122-.041c-.442-.188-.721-.531-.319-1.139Z"/><path d="M14.195,3.748A11.019,11.019,0,0,0,5.985,7.17,11.946,11.946,0,0,0,3.4,11.046,11.886,11.886,0,0,0,3.4,20a11.928,11.928,0,0,0,2.548,3.826,12.157,12.157,0,0,0,3.8,2.588,11.486,11.486,0,0,0,4.449.884,11.616,11.616,0,0,0,4.5-.907,12.06,12.06,0,0,0,3.883-2.6,10.665,10.665,0,0,0,2.49-3.719,12.034,12.034,0,0,0,.853-4.544A12.007,12.007,0,0,0,25.068,11a11.292,11.292,0,0,0-2.507-3.8A11.386,11.386,0,0,0,14.195,3.748Zm.049,2.119A9.212,9.212,0,0,1,21.028,8.7,9.432,9.432,0,0,1,23.1,11.822a9.743,9.743,0,0,1,.713,3.7,9.073,9.073,0,0,1-2.744,6.746,10.029,10.029,0,0,1-3.2,2.128,9.306,9.306,0,0,1-3.63.732,9.437,9.437,0,0,1-3.638-.717,9.824,9.824,0,0,1-3.113-2.1,10.035,10.035,0,0,1-2.13-3.135,9.432,9.432,0,0,1,0-7.315,10.247,10.247,0,0,1,2.13-3.175A9.051,9.051,0,0,1,14.244,5.867Z"/></g></svg>