<svg id="PROCESSINGFACILITY-DivyaPR_1_" data-name="PROCESSINGFACILITY-DivyaPR (1)" xmlns="http://www.w3.org/2000/svg" width="190.929" height="203.148" viewBox="0 0 190.929 203.148">
  <path id="Path_1148" data-name="Path 1148" d="M181.285,42.041,110.192,3.014a24.269,24.269,0,0,0-23.458,0L15.644,42.043A24.37,24.37,0,0,0,3,63.409v76.315a24.367,24.367,0,0,0,12.644,21.366l71.09,39.027a24.259,24.259,0,0,0,23.46,0l71.088-39.027a24.369,24.369,0,0,0,12.646-21.366V63.409A24.38,24.38,0,0,0,181.285,42.041ZM19.552,49.166,90.642,10.14a16.179,16.179,0,0,1,15.642,0l71.09,39.027a16.188,16.188,0,0,1,3.829,2.949H15.725A16.21,16.21,0,0,1,19.552,49.166ZM185.8,139.723a16.242,16.242,0,0,1-8.431,14.245l-71.09,39.027a16.185,16.185,0,0,1-15.638,0l-71.09-39.027a16.247,16.247,0,0,1-8.429-14.245V63.409a16.127,16.127,0,0,1,.349-3.171H185.457a16.28,16.28,0,0,1,.347,3.171Z" transform="translate(-3 0.008)" fill="#fbb040"/>
  <path id="Path_1149" data-name="Path 1149" d="M75.946,58.345l7.3-6.443a4.062,4.062,0,1,0-5.374-6.091l-7.3,6.441a4.062,4.062,0,0,0,5.374,6.093Z" transform="translate(65.26 46.207)" fill="#fbb040"/>
  <path id="Path_1150" data-name="Path 1150" d="M17.906,38.328H31.344c-.012.13-.039.256-.039.39V50.6a4.062,4.062,0,1,0,8.125,0V38.718c0-.134-.026-.26-.039-.39H52.828a3.9,3.9,0,0,0,3.9-3.906v-3.7H14v3.7A3.906,3.906,0,0,0,17.906,38.328Z" transform="translate(8.343 31.699)" fill="#fbb040"/>
  <path id="Path_1151" data-name="Path 1151" d="M43.387,38.328H56.823c-.012.13-.039.256-.039.39V50.6a4.062,4.062,0,1,0,8.125,0V38.718c0-.134-.026-.26-.039-.39H78.307a3.906,3.906,0,0,0,3.906-3.906v-3.7H39.481v3.7A3.906,3.906,0,0,0,43.387,38.328Z" transform="translate(34.618 31.699)" fill="#fbb040"/>
  <path id="Path_1152" data-name="Path 1152" d="M68.867,38.328H82.3c-.012.13-.039.256-.039.39V50.6a4.062,4.062,0,1,0,8.125,0V38.718c0-.134-.026-.26-.039-.39h13.438a3.906,3.906,0,0,0,3.9-3.906v-3.7H64.961v3.7A3.906,3.906,0,0,0,68.867,38.328Z" transform="translate(60.891 31.699)" fill="#fbb040"/>
  <path id="Path_1153" data-name="Path 1153" d="M80.355,59.188H42.823A4.065,4.065,0,0,0,38.8,63.811L42.5,90.4a4.062,4.062,0,0,0,4.024,3.5h30.13a4.06,4.06,0,0,0,4.024-3.5l3.7-26.592a4.062,4.062,0,0,0-4.024-4.623ZM73.118,85.78H71.292V72.959a4.062,4.062,0,1,0-8.125,0V85.78H59.786V72.959a4.062,4.062,0,1,0-8.125,0V85.78h-1.6L47.491,67.313h28.2Z" transform="translate(33.875 61.048)" fill="#fbb040"/>
  <path id="Path_1154" data-name="Path 1154" d="M40.795,57.907a4.064,4.064,0,0,0,4.062,4.062H74.128a4.062,4.062,0,0,0,0-8.125H44.857A4.064,4.064,0,0,0,40.795,57.907Z" transform="translate(35.973 55.539)" fill="#fbb040"/>
  <path id="Path_1155" data-name="Path 1155" d="M105.836,59.187H68.3a4.062,4.062,0,0,0-4.024,4.623l3.7,26.592A4.057,4.057,0,0,0,72,93.906h30.13a4.068,4.068,0,0,0,4.028-3.5l3.7-26.592a4.062,4.062,0,0,0-4.024-4.623ZM98.6,85.781H96.771V72.96a4.062,4.062,0,1,0-8.125,0V85.781H85.265V72.96a4.062,4.062,0,1,0-8.125,0V85.781h-1.6L72.97,67.314h28.2Z" transform="translate(60.15 61.047)" fill="#fbb040"/>
  <path id="Path_1156" data-name="Path 1156" d="M66.275,57.907a4.064,4.064,0,0,0,4.062,4.062H99.61a4.062,4.062,0,0,0,0-8.125H70.337A4.064,4.064,0,0,0,66.275,57.907Z" transform="translate(62.246 55.539)" fill="#fbb040"/>
  <path id="Path_1157" data-name="Path 1157" d="M54.875,59.188H17.343a4.062,4.062,0,0,0-4.024,4.623l3.7,26.59a4.062,4.062,0,0,0,4.024,3.5h30.13A4.062,4.062,0,0,0,55.2,90.4l3.7-26.592a4.065,4.065,0,0,0-4.024-4.623ZM47.64,85.78H45.812V72.959a4.062,4.062,0,1,0-8.125,0V85.78H34.306V72.959a4.062,4.062,0,1,0-8.125,0V85.78h-1.6L22.011,67.313h28.2Z" transform="translate(7.601 61.048)" fill="#fbb040"/>
  <path id="Path_1158" data-name="Path 1158" d="M56.195,48.335a4.06,4.06,0,1,0-4.06,4.06A4.06,4.06,0,0,0,56.195,48.335Z" transform="translate(43.478 45.671)" fill="#fbb040"/>
</svg>
