<svg id="REDUCEDINPUTS-AQUACULTURE" xmlns="http://www.w3.org/2000/svg" width="197.022" height="203.148" viewBox="0 0 197.022 203.148">
  <g id="Your_Icon" transform="translate(20.037 7.134)">
    <path id="Path_1159" data-name="Path 1159" d="M43.779,57" transform="translate(19.012 51.66)" fill="#42b294"/>
    <path id="Path_1160" data-name="Path 1160" d="M12.865,57" transform="translate(-12.865 51.66)" fill="#42b294"/>
    <path id="Path_1161" data-name="Path 1161" d="M103.849,81.558c-3.7-5.261-14.021-17.494-30.035-17.494C60.476,64.064,51.1,72.422,46.1,78.4a20.271,20.271,0,0,0-17.139-9.148,4.067,4.067,0,0,0-3.819,5.446A37.267,37.267,0,0,1,27,85.848,44.259,44.259,0,0,1,24.99,97.932a4.06,4.06,0,0,0,3.851,5.352,20.454,20.454,0,0,0,17.206-9.15c4.964,5.978,14.267,14.332,27.61,14.332,16,0,26.429-12.23,30.169-17.484A8.18,8.18,0,0,0,103.849,81.558Zm-69.528,12.4a45.406,45.406,0,0,0,.8-8.114,42.327,42.327,0,0,0-.66-7.257,14.312,14.312,0,0,1,6.662,7.657A14.545,14.545,0,0,1,34.321,93.961Zm15.941-7.682C53.306,82.015,61.5,72.4,73.457,72.2a24.341,24.341,0,0,0-4.387,14.06c0,4.621,1.942,9.819,4.532,14.072C61.5,100.31,53.3,90.577,50.261,86.279ZM82.295,98.636c-2.645-3.29-5.1-8.45-5.1-12.372a15.769,15.769,0,0,1,5.557-12.236c7.292,3.047,12.28,9.122,14.45,12.242C94.967,89.411,89.8,95.634,82.295,98.636Z" transform="translate(-0.579 58.943)" fill="#42b294"/>
    <ellipse id="Ellipse_343" data-name="Ellipse 343" cx="2.271" cy="2.246" rx="2.271" ry="2.246" transform="translate(81.663 138.395)" fill="#42b294"/>
    <g id="Group_363" data-name="Group 363" transform="translate(67.153)">
      <path id="Path_1162" data-name="Path 1162" d="M74.006,53.7a12.331,12.331,0,0,1-6.167-1.753,4.063,4.063,0,0,1,4.032-7.056,3.793,3.793,0,0,0,2.8.589,2.5,2.5,0,0,0,1.41-1.178l1.542-2.7.049.012c1.493-2.592,4.509-7.875,10.572-18.591l.03-.055L70.584,12.868l-.689,1.2c-3.106,5.385-11.559,20.1-11.559,20.1-.309.54-1.119,2.464,1.69,4.066a4.063,4.063,0,0,1-4.032,7.056c-6.546-3.739-7.314-10.6-4.71-15.161.006-.01,8.468-14.728,11.565-20.1L65.23,5.86a4.723,4.723,0,0,1,6.433-1.733L95.254,17.606a4.715,4.715,0,0,1,2.224,2.86,4.648,4.648,0,0,1-.447,3.557l-1.716,3.006c-1.15,2.031-4.168,7.365-6.91,12.187-1.375,2.417-2.681,4.7-3.652,6.388-.607,1.056-1.133,1.968-1.653,2.708l.041.022a10.568,10.568,0,0,1-6.118,4.926A10.343,10.343,0,0,1,74.006,53.7ZM91.218,24.66l.012.006Z" transform="translate(-41.838 -3.504)" fill="#42b294"/>
      <path id="Path_1163" data-name="Path 1163" d="M66.57,49.751a5.386,5.386,0,0,1-2.679-.719l-15.238-8.7a5.376,5.376,0,0,1-2.537-3.268,5.263,5.263,0,0,1,.512-4.028l3.76-6.579A5.36,5.36,0,0,1,57.7,24.5L72.94,33.2a5.357,5.357,0,0,1,2.025,7.3l-3.76,6.579A5.253,5.253,0,0,1,68,49.56,5.466,5.466,0,0,1,66.57,49.751Zm-2.421-6.7s0,0,0,.006Zm-9.081-8.411,10.471,5.982.983-1.724L56.051,32.911ZM53.682,37.06l0,0S53.68,37.062,53.682,37.06Zm14.228-.6s0,0,0,0Z" transform="translate(-45.927 17.407)" fill="#42b294"/>
    </g>
    <ellipse id="Ellipse_344" data-name="Ellipse 344" cx="5.336" cy="5.336" rx="5.336" ry="5.336" transform="translate(67.422 66.049)" fill="#42b294"/>
    <ellipse id="Ellipse_345" data-name="Ellipse 345" cx="5.336" cy="5.336" rx="5.336" ry="5.336" transform="translate(53.186 82.024)" fill="#42b294"/>
    <ellipse id="Ellipse_346" data-name="Ellipse 346" cx="5.336" cy="5.336" rx="5.336" ry="5.336" transform="translate(71.216 79.676)" fill="#42b294"/>
    <ellipse id="Ellipse_347" data-name="Ellipse 347" cx="5.336" cy="5.336" rx="5.336" ry="5.336" transform="translate(44.899 113.385)" fill="#42b294"/>
  </g>
  <g id="Modifier_x5F_Down" transform="translate(0 0)">
    <path id="Path_1164" data-name="Path 1164" d="M192.653,147.346a24.265,24.265,0,0,0,1.276-7.623V63.409a24.374,24.374,0,0,0-12.644-21.366l-27.51-15.1a4.063,4.063,0,0,0-3.912,7.123l27.51,15.1A16.247,16.247,0,0,1,185.8,63.409v46.585H153.565a9.736,9.736,0,0,0-17.606,0H60.543a9.736,9.736,0,0,0-17.606,0H11.125V63.409a16.249,16.249,0,0,1,8.429-14.245l71.09-39.027a16.183,16.183,0,0,1,15.642,0,4.062,4.062,0,0,0,3.908-7.123,24.269,24.269,0,0,0-23.458,0L15.646,42.043A24.368,24.368,0,0,0,3,63.409v76.315a24.367,24.367,0,0,0,12.644,21.366l71.09,39.027a24.259,24.259,0,0,0,23.46,0l25.572-14.039a34.49,34.49,0,1,0,56.887-38.73Zm-8.068,24.108-15.719,15.719a3.816,3.816,0,0,1-.435.53,4.046,4.046,0,0,1-2.872,1.19c-.016,0-.033,0-.049,0s-.033,0-.049,0a4.217,4.217,0,0,1-.8-.079c-.122-.024-.234-.069-.351-.1a4.082,4.082,0,0,1-.406-.126,3.711,3.711,0,0,1-.4-.209c-.1-.055-.205-.1-.3-.165a4.08,4.08,0,0,1-1.081-1.064l-15.691-15.691a4.062,4.062,0,0,1,5.744-5.744l9.217,9.217v-22.6a4.062,4.062,0,1,1,8.125,0v22.692l9.315-9.315a4.062,4.062,0,0,1,5.746,5.744Zm1.219-31.731c0,.325-.047.64-.065.961a34.488,34.488,0,0,0-53.279,37.94l-26.175,14.37a16.185,16.185,0,0,1-15.638,0l-71.09-39.027a16.242,16.242,0,0,1-8.431-14.245V118.118H42.937a9.737,9.737,0,0,0,17.606,0h75.417a9.737,9.737,0,0,0,17.606,0H185.8Z" transform="translate(-3 0.008)" fill="#42b294"/>
  </g>
</svg>
