<svg xmlns="http://www.w3.org/2000/svg" width="302.3" height="558.234" viewBox="0 0 302.3 558.234">
  <g id="Group_589" data-name="Group 589" transform="translate(-4636.888 22475.289)">
    <g id="Group_210" data-name="Group 210" transform="translate(4815.597 -22475.289)">
      <path id="Path_380" data-name="Path 380" d="M1866,753.146c7.134,14.213-12.009,32.639-4.629,55.962s7.478,45.536-9.617,65.105-11.372,33.2-7.881,43.369,25.474,24.5,4.049,45.167-6.352,30.455,6.36,43.808,11.95,22.814-3.366,42.064-9.919,22.088-5.254,40.79-9.808,26.684-23.592,33.02-21.291,22.656-10.224,38.323,5.253,24.467-5.289,31.385-13.3,10.506-7.953,21.556,12.929,19.545-6.779,27.08-17.386,21.192-24.748,18.886c0,0-4.944-3.194-5.321-12.1s5.187-16.563-.893-31.016-17.827-13.885-16.766-31.522,15.183-15.287,9.579-32.7-9.439-27.513,4.12-40.138,16.983-17.51,14.734-27.492-11.85-27.65,9.189-44.009,15.027-33.141,4.028-43.735-22.005-30.192-11.568-47.935,10.045-22.447,2.592-33.88-23.434-23.566,1.993-47.2,20.516-34.113,16.418-50.351-2.172-23.274,8.683-29.261,28.031-9.549,24.587-29.433S1847.9,717.087,1866,753.146Z" transform="translate(-1744.031 -733.85)" fill="#34a94a"/>
      <path id="Path_381" data-name="Path 381" d="M1778.766,867.93c25.427-23.636,20.516-34.115,16.418-50.353s-2.172-23.274,8.683-29.261,28.031-9.549,24.587-29.434c-2.184-12.6,6.214-26.014,17.265-24.971L1771.53,1258.48a3.878,3.878,0,0,1-4.453,1.179s-4.944-3.194-5.321-12.1,5.187-16.565-.893-31.018-17.827-13.885-16.766-31.522,15.182-15.287,9.579-32.7-9.439-27.511,4.12-40.137,16.983-17.511,14.734-27.494-11.85-27.649,9.189-44.007,15.027-33.143,4.028-43.735-22.005-30.193-11.568-47.937,10.045-22.447,2.592-33.88S1753.339,891.565,1778.766,867.93Z" transform="translate(-1744.031 -733.848)" fill="#68bf78"/>
      <path id="Rectangle_115" data-name="Rectangle 115" d="M.624,0h3.99a.624.624,0,0,1,.624.624V31.1a0,0,0,0,1,0,0H0a0,0,0,0,1,0,0V.624A.624.624,0,0,1,.624,0Z" transform="translate(22.469 554.639) rotate(-171.95)" fill="#fbb54b"/>
    </g>
    <g id="Group_209" data-name="Group 209" transform="translate(4636.888 -22396.361) rotate(-13)">
      <path id="Path_378" data-name="Path 378" d="M1632.674,659.026c-6.83,12.925,10.405,30.229,3.171,51.52s-7.754,41.7,7.578,60.02,9.807,30.729,6.4,40.011-23.887,22.025-4.6,41.43,5.248,28.112-6.694,40.139-11.424,20.735,2.278,38.722,8.688,20.492,4.038,37.589,8.5,24.714,21.044,30.8,19.127,21.233,8.654,35.418-5.3,22.384,4.251,28.945,12.022,9.913,6.892,19.965-12.261,17.712,5.706,25.019,15.568,19.812,22.378,17.836c0,0,4.607-2.84,5.125-11.019s-4.447-15.324,1.421-28.488,16.652-12.415,16.019-28.645-13.657-14.344-8.17-30.237,9.208-25.1-3.01-36.967-15.269-16.422-13.008-25.552,11.426-25.181-7.593-40.623-13.168-30.75-2.855-40.272,20.808-27.32,11.56-43.831-8.8-20.824-1.727-31.187,21.994-21.2-.917-43.417-18.195-31.749-14.113-46.592,2.446-21.347-7.415-27.061-25.576-9.318-22.025-27.527S1650,626.236,1632.674,659.026Z" transform="translate(-1630.03 -641.706)" fill="#68bf78"/>
      <path id="Path_379" data-name="Path 379" d="M1708.391,766.205c-22.912-22.213-18.194-31.749-14.113-46.592s2.446-21.347-7.415-27.06-25.576-9.319-22.025-27.527c2.251-11.541-5.208-24.029-15.384-23.284l58.024,483.531a3.565,3.565,0,0,0,4.069,1.169s4.607-2.839,5.125-11.018-4.447-15.324,1.42-28.489,16.653-12.415,16.019-28.644-13.657-14.344-8.17-30.238,9.208-25.1-3.01-36.967-15.269-16.422-13.008-25.553,11.426-25.181-7.593-40.622-13.169-30.75-2.855-40.272,20.809-27.322,11.56-43.832-8.8-20.823-1.726-31.186S1731.3,788.42,1708.391,766.205Z" transform="translate(-1627.799 -641.705)" fill="#34a94a"/>
      <path id="Rectangle_114" data-name="Rectangle 114" d="M0,0H4.814a0,0,0,0,1,0,0V27.772a.82.82,0,0,1-.82.82H.82a.82.82,0,0,1-.82-.82V0A0,0,0,0,1,0,0Z" transform="matrix(0.993, -0.119, 0.119, 0.993, 80.314, 482.855)" fill="#fbb54b"/>
    </g>
  </g>
</svg>
