<svg xmlns="http://www.w3.org/2000/svg" width="302.899" height="268.789" viewBox="0 0 302.899 268.789">
  <g id="Group_590" data-name="Group 590" transform="translate(-5097.603 22380.658)">
    <g id="Group_212" data-name="Group 212" transform="translate(5049.769 -22481.736)">
      <g id="Group_203" data-name="Group 203">
        <g id="Group_202" data-name="Group 202" transform="matrix(-0.839, 0.545, -0.545, -0.839, 287.318, 296.951)">
          <path id="Path_326" data-name="Path 326" d="M56.811.25C59.27-.338,69.586-1.569,81.7,19.115s47.654,99.4,51.953,143.2c2.17,22.1-10.592,64.934-49.41,70.445s-67.053-18.841-77.59-41.185S-1.785,111.01,12.139,84.143,32.97,5.957,56.811.25Z" transform="translate(0 0.001)" fill="#787779"/>
          <path id="Path_327" data-name="Path 327" d="M77.8,19.117C65.688-1.569,55.372-.338,52.912.251,29.072,5.957,22.164,57.277,8.241,84.145,4.331,91.689,1.653,101.1,0,111.2c12.437,53.426,36.429,89.888,62.6,88.879,25.4-.978,46.036-36.991,54.813-88.682C104.7,73.236,85.948,33.037,77.8,19.117Z" transform="translate(3.898 0)" fill="#8b8a8c"/>
          <path id="Path_328" data-name="Path 328" d="M37.043.251C17.922,4.827,9.692,38.739,0,65.85c5.907,46.107,24.252,80.129,44.618,79.344,20.318-.783,35.966-35.952,38.369-82.215C74.581,43.355,66.548,27.007,61.928,19.117,49.818-1.569,39.5-.338,37.043.251Z" transform="translate(19.768 0)" fill="#dddcdd"/>
          <ellipse id="Ellipse_74" data-name="Ellipse 74" cx="13.638" cy="32.979" rx="13.638" ry="32.979" transform="matrix(0.999, -0.038, 0.038, 0.999, 45.536, 10.074)" fill="#eee"/>
          <path id="Path_329" data-name="Path 329" d="M22.056,19.1C12.7,3.117,4.418.221,0,0V232.264a75.087,75.087,0,0,0,24.6.482c38.818-5.51,51.581-48.343,49.41-70.445C69.71,118.5,34.167,39.783,22.056,19.1Z" transform="translate(59.639 0.018)" fill="#5b5a5d"/>
          <path id="Path_330" data-name="Path 330" d="M0,0V199.459a27.882,27.882,0,0,0,6.859.6c25.4-.978,46.036-36.991,54.813-88.682C48.96,73.218,30.207,33.019,22.056,19.1,12.7,3.117,4.418.22,0,0Z" transform="translate(59.639 0.018)" fill="#7f7e81"/>
          <path id="Path_331" data-name="Path 331" d="M0,0V144.729a18.236,18.236,0,0,0,4.746.446c20.318-.783,35.966-35.952,38.369-82.215C34.709,43.338,26.676,26.989,22.056,19.1,12.7,3.117,4.418.22,0,0Z" transform="translate(59.639 0.018)" fill="#bababb"/>
          <path id="Path_332" data-name="Path 332" d="M0,0V65.607a5.945,5.945,0,0,0,2.061.292c7.527-.289,13.061-15.278,12.36-33.479C13.735,14.6,7.33.325,0,0Z" transform="translate(59.639 9.56)" fill="#dbdbdb"/>
        </g>
        <g id="Group_201" data-name="Group 201" transform="translate(185.384 350.177) rotate(-131)">
          <path id="Path_319" data-name="Path 319" d="M53.292.235c2.307-.553,11.984-1.707,23.344,17.7s44.7,93.243,48.735,134.335c2.035,20.733-9.936,60.913-46.35,66.081s-62.9-17.674-72.785-38.634-7.91-75.578,5.151-100.781S30.928,5.587,53.292.235Z" transform="translate(0 0)" fill="#a57255"/>
          <path id="Path_320" data-name="Path 320" d="M72.98,17.933C61.62-1.472,51.943-.317,49.635.235,27.272,5.587,20.792,53.728,7.73,78.933,4.063,86.01,1.551,94.84,0,104.309c11.667,50.117,34.173,84.321,58.723,83.375,23.828-.917,43.185-34.7,51.418-83.19C98.218,68.7,80.625,30.991,72.98,17.933Z" transform="translate(3.657 0)" fill="#d9a683"/>
          <path id="Path_321" data-name="Path 321" d="M34.749.235C16.812,4.527,9.092,36.34,0,61.77c5.541,43.251,22.75,75.166,41.854,74.43,19.06-.734,33.738-33.726,35.992-77.122C69.962,40.67,62.427,25.335,58.093,17.933,46.733-1.472,37.056-.317,34.749.235Z" transform="translate(18.544 0)" fill="#ebd1bf"/>
          <ellipse id="Ellipse_73" data-name="Ellipse 73" cx="12.793" cy="30.937" rx="12.793" ry="30.937" transform="matrix(0.999, -0.038, 0.038, 0.999, 42.716, 9.45)" fill="#f1dfd2"/>
          <path id="Path_322" data-name="Path 322" d="M20.69,17.915C11.913,2.924,4.145.207,0,0V217.879a70.407,70.407,0,0,0,23.075.451c36.414-5.168,48.385-45.348,46.35-66.081C65.393,111.158,32.051,37.319,20.69,17.915Z" transform="translate(55.946 0.017)" fill="#965b39"/>
          <path id="Path_323" data-name="Path 323" d="M0,0V187.108a26.154,26.154,0,0,0,6.434.56c23.827-.917,43.185-34.7,51.418-83.19C45.928,68.685,28.336,30.975,20.69,17.917,11.913,2.925,4.145.207,0,0Z" transform="translate(55.946 0.016)" fill="#d49b73"/>
          <path id="Path_324" data-name="Path 324" d="M0,0V135.767a17.1,17.1,0,0,0,4.452.417c19.06-.734,33.738-33.726,35.992-77.122C32.56,40.655,25.024,25.319,20.69,17.917,11.913,2.925,4.145.207,0,0Z" transform="translate(55.946 0.016)" fill="#e6c5ae"/>
          <path id="Path_325" data-name="Path 325" d="M0,0V61.544a5.6,5.6,0,0,0,1.933.273c7.061-.271,12.252-14.333,11.595-31.406C12.885,13.7,6.876.3,0,0Z" transform="translate(55.946 8.968)" fill="#eed8c8"/>
        </g>
      </g>
    </g>
  </g>
</svg>
