<svg xmlns="http://www.w3.org/2000/svg" xmlns:xlink="http://www.w3.org/1999/xlink" width="378.748" height="373.047" viewBox="0 0 378.748 373.047">
  <defs>
    <clipPath id="clip-path">
      <rect id="Rectangle_404" data-name="Rectangle 404" width="150.802" height="230.236" fill="none"/>
    </clipPath>
    <clipPath id="clip-path-2">
      <rect id="Rectangle_403" data-name="Rectangle 403" width="215.66" height="288.84" fill="none"/>
    </clipPath>
  </defs>
  <g id="Group_591" data-name="Group 591" transform="translate(-4529.778 21602.594)">
    <g id="Group_387" data-name="Group 387" transform="matrix(0.342, -0.94, 0.94, 0.342, 4529.778, -21308.293)">
      <g id="Group_386" data-name="Group 386" clip-path="url(#clip-path)">
        <path id="Path_1274" data-name="Path 1274" d="M105.48,238.914c.585,1.239,1.164,2.315,1.78,3.434.632,1.081,1.258,2.172,1.928,3.22,1.329,2.105,2.747,4.128,4.233,6.091a89.8,89.8,0,0,0,9.829,10.912,72.548,72.548,0,0,0,11.658,9.089,41.228,41.228,0,0,0,14.158,5.72c3.968.709,7.689-2.382,8.311-6.905.566-4.115-1.629-8-5.018-9.2l-.324-.114a59.428,59.428,0,0,1-10.133-4.723,114.081,114.081,0,0,1-10.32-6.782c-3.431-2.5-6.838-5.192-10.3-7.906l-5.228-4.108-2.651-2.056c-.888-.664-1.8-1.384-2.669-1.986l-.2-.142a3.361,3.361,0,0,0-4.955,1.365,4.62,4.62,0,0,0-.1,4.089" transform="translate(-80.122 -47.245)" fill="#dadada"/>
        <path id="Path_1275" data-name="Path 1275" d="M97.051,231.4c.838,1.032,1.634,1.908,2.477,2.816.85.866,1.7,1.745,2.573,2.567,1.749,1.66,3.566,3.214,5.436,4.689a81.421,81.421,0,0,0,11.912,7.761,66.585,66.585,0,0,0,13.282,5.475,39.39,39.39,0,0,0,14.963,1.5c4-.446,6.921-4.5,6.531-9.057-.355-4.147-3.333-7.28-6.878-7.475l-.339-.018a56.261,56.261,0,0,1-10.848-1.682,105.7,105.7,0,0,1-11.48-3.622c-3.87-1.439-7.76-3.076-11.707-4.717l-5.963-2.485-3.019-1.235c-1-.389-2.05-.825-3.019-1.161l-.227-.079a3.55,3.55,0,0,0-4.5,2.735,4.548,4.548,0,0,0,.8,3.987" transform="translate(-70.652 -45.549)" fill="#adadad"/>
        <path id="Path_1276" data-name="Path 1276" d="M186.361,231.989,187.8,230.9c5.059-3.84,6.429-11.629,3.06-17.4l-4.289-7.343a4.628,4.628,0,0,0-6.919-1.581L168.2,213.271a6.193,6.193,0,0,0-1.387,7.887l4.29,7.344c3.369,5.767,10.2,7.329,15.261,3.488" transform="translate(-157.958 -41.314)" fill="#807e81"/>
        <path id="Path_1277" data-name="Path 1277" d="M188.586,227.441l.413-.313c5.059-3.84,6.429-11.629,3.06-17.4l-3.147-5.386a4.627,4.627,0,0,0-6.918-1.581l-10.428,7.915a6.193,6.193,0,0,0-1.387,7.887l3.147,5.387c3.369,5.767,10.2,7.329,15.26,3.488" transform="translate(-161.517 -40.946)" fill="#dadada"/>
        <path id="Path_1278" data-name="Path 1278" d="M194.795,209.943l1.684-.418c5.939-1.475,9.705-8.158,8.411-14.929l-.8-4.17c-1.056-5.527-5.842-9.032-10.691-7.828l-5.633,1.4c-4.849,1.2-7.923,6.661-6.867,12.187l.8,4.17c1.294,6.77,7.157,11.063,13.1,9.588" transform="translate(-180.694 -37)" fill="#807e81"/>
        <path id="Path_1279" data-name="Path 1279" d="M195.8,207.1h0c5.939-1.475,9.705-8.158,8.411-14.928-1.056-5.527-5.843-9.032-10.691-7.828l-3.949.981c-4.849,1.2-7.923,6.66-6.867,12.187,1.294,6.77,7.157,11.063,13.1,9.588" transform="translate(-181.282 -37.354)" fill="#dadada"/>
        <path id="Path_1280" data-name="Path 1280" d="M175.133,179.986l3.505,2.307c5.264,3.465,12,1.408,15.034-4.592l3.48-6.871c2.235-4.413.909-10.055-2.962-12.6L185.64,152.6c-3.87-2.548-8.82-1.035-11.055,3.377l-3.48,6.872c-3.039,6-1.236,13.674,4.028,17.138" transform="translate(-166.05 -30.71)" fill="#807e81"/>
        <path id="Path_1281" data-name="Path 1281" d="M177.28,178.213l1.714,1.128c5.264,3.464,12,1.408,15.034-4.592l.859-1.695c2.235-4.413.908-10.056-2.963-12.6L185.166,156c-3.871-2.548-8.82-1.035-11.055,3.377l-.859,1.7c-3.039,6-1.236,13.674,4.028,17.138" transform="translate(-165.286 -31.401)" fill="#dadada"/>
        <path id="Path_1282" data-name="Path 1282" d="M154.307,145.02l3,5.92c3.04,6,9.771,8.057,15.034,4.592l7.388-4.862c4.052-2.667,5.441-8.574,3.1-13.194L177.3,126.556c-2.34-4.62-7.522-6.2-11.575-3.536l-7.387,4.862c-5.264,3.464-7.067,11.137-4.028,17.138" transform="translate(-140.031 -24.697)" fill="#807e81"/>
        <path id="Path_1283" data-name="Path 1283" d="M159.431,146.518l.933,1.844c3.04,6,9.771,8.056,15.035,4.592l2.15-1.416c4.052-2.667,5.441-8.574,3.1-13.194l-3.467-6.845c-2.34-4.619-7.521-6.2-11.574-3.535l-2.15,1.416c-5.264,3.464-7.067,11.137-4.028,17.138" transform="translate(-141.436 -25.7)" fill="#dadada"/>
        <path id="Path_1284" data-name="Path 1284" d="M117.965,121.882l-.524,9.725c-.372,6.917,4.244,12.867,10.311,13.291l16.927,1.185c3.8.265,7.075-3.033,7.309-7.368l1.027-19.07c.234-4.335-2.66-8.065-6.463-8.331l-16.927-1.184c-6.067-.424-11.287,4.838-11.659,11.754" transform="translate(-84.333 -22.339)" fill="#807e81"/>
        <path id="Path_1285" data-name="Path 1285" d="M121.457,124.728l-.314,5.833c-.373,6.916,4.244,12.867,10.311,13.291l7.96.557c3.8.265,7.076-3.033,7.309-7.368l.817-15.179c.234-4.335-2.661-8.065-6.464-8.331l-7.96-.557c-6.067-.424-11.287,4.838-11.659,11.754" transform="translate(-81.448 -22.917)" fill="#dadada"/>
        <path id="Path_1286" data-name="Path 1286" d="M74.489,119.8l-2.143,5.361c-3.295,8.246-.1,17.977,7.132,21.733l6.674,3.466c7.5,3.894,16.345.121,19.76-8.426l1.708-4.272c3.415-8.547.106-18.632-7.393-22.526l-6.674-3.466c-7.235-3.756-15.77-.116-19.066,8.13" transform="translate(-7.847 -22.358)" fill="#f3832a"/>
        <path id="Path_1287" data-name="Path 1287" d="M48.378,133.59a41.489,41.489,0,0,0,9.3-4.929,31.141,31.141,0,0,0,4.17-3.512,21.826,21.826,0,0,0,3.479-4.524,16.269,16.269,0,0,0,1.992-5.734,16.585,16.585,0,0,0,.115-3.133c-.058-.517-.08-1.043-.183-1.549l-.131-.765-.18-.748a21.7,21.7,0,0,0-2.261-5.514,32.529,32.529,0,0,0-3.254-4.672,47.2,47.2,0,0,0-3.752-4.056c-1.3-1.279-2.662-2.461-4.038-3.617a96.762,96.762,0,0,0-8.585-6.294C42.112,82.6,39.114,80.8,36.08,79.087c-3.013-1.72-5.972-3.395-8.84-5.328a72.158,72.158,0,0,1-15.664-13.7,44.084,44.084,0,0,1-5.789-8.944A36.1,36.1,0,0,1,2.54,40.752,37.783,37.783,0,0,1,2.587,29.72,47.216,47.216,0,0,1,5.568,19.064,64.763,64.763,0,0,1,17.126.684L17.139.67a.431.431,0,0,0,0-.553.314.314,0,0,0-.466-.025,57.025,57.025,0,0,0-7.05,8.366,58.583,58.583,0,0,0-5.577,9.765A46.71,46.71,0,0,0,.612,29.3a37.658,37.658,0,0,0,.961,17.657A36.752,36.752,0,0,0,3.66,52.427a47.088,47.088,0,0,0,6.084,9.58,61.52,61.52,0,0,0,7.678,7.818,87.755,87.755,0,0,0,8.533,6.445l2.218,1.441,2.249,1.373c.745.468,1.516.874,2.273,1.313l2.265,1.279c3,1.672,5.965,3.432,8.857,5.318s5.721,3.884,8.434,6.05c1.345,1.1,2.676,2.221,3.937,3.426a44.813,44.813,0,0,1,3.614,3.8,29.914,29.914,0,0,1,3.068,4.274,19.041,19.041,0,0,1,2.061,4.83l.163.636.118.645c.094.428.112.864.171,1.3a13.513,13.513,0,0,1-1.661,7.527,24.285,24.285,0,0,1-6.927,7.614A42.721,42.721,0,0,1,52.5,129.9a40.359,40.359,0,0,1-4.535,2.263l-.024.01a.785.785,0,0,0-.394.964.643.643,0,0,0,.828.456" transform="translate(83.342 0)" fill="#dadada"/>
        <path id="Path_1288" data-name="Path 1288" d="M121.975,171.2l.02-.018a45.125,45.125,0,0,0,3.724-3.718,47.76,47.76,0,0,0,3.345-4.156,27.5,27.5,0,0,0,4.489-9.254,6.949,6.949,0,0,0,2.287-1.758,18.347,18.347,0,0,1-.351,1.918,24.179,24.179,0,0,1-2.118,5.51,35,35,0,0,1-3.045,4.783,46.545,46.545,0,0,1-7.561,7.9.608.608,0,0,1-.91-.15.824.824,0,0,1,.12-1.055" transform="translate(-70.151 -30.9)" fill="#5b5a5d"/>
        <path id="Path_1289" data-name="Path 1289" d="M132.858,167.984l.021-.018a45.225,45.225,0,0,0,3.724-3.718,47.9,47.9,0,0,0,3.346-4.156,32.783,32.783,0,0,0,3.062-5.224l1.967.138c-.229.509-.468,1.012-.723,1.5a35,35,0,0,1-3.045,4.783,46.546,46.546,0,0,1-7.561,7.9.608.608,0,0,1-.91-.15.824.824,0,0,1,.12-1.055" transform="translate(-86.898 -31.422)" fill="#5b5a5d"/>
        <path id="Path_1290" data-name="Path 1290" d="M155.491,165.452a9.448,9.448,0,0,0-2.1-3.813,13.661,13.661,0,0,1,1.79,1.023,20.461,20.461,0,0,1,4.1,3.785,34.422,34.422,0,0,1,3.242,4.612,52.718,52.718,0,0,1,4.686,10.4.792.792,0,0,1-.367.961.634.634,0,0,1-.86-.41l-.01-.027a51.972,51.972,0,0,0-2.161-5.077,51.266,51.266,0,0,0-2.633-4.776,26.631,26.631,0,0,0-5.687-6.677" transform="translate(-123.71 -32.795)" fill="#5b5a5d"/>
        <path id="Path_1291" data-name="Path 1291" d="M160.826,175.67c.076-.148.136-.3.2-.453a35.378,35.378,0,0,1,2.8,4.056,52.717,52.717,0,0,1,4.686,10.4.791.791,0,0,1-.367.961.633.633,0,0,1-.86-.411l-.01-.027a52.131,52.131,0,0,0-2.162-5.076,51.266,51.266,0,0,0-2.633-4.776,34.681,34.681,0,0,0-2.35-3.3Z" transform="translate(-129.724 -35.55)" fill="#5b5a5d"/>
        <path id="Path_1292" data-name="Path 1292" d="M172.89,204.652a40.8,40.8,0,0,0-4.465-2.434,40.062,40.062,0,0,0-4.67-1.865,23.689,23.689,0,0,0-6.55-1.216,14.344,14.344,0,0,0-.207-1.562l-.1-.532a19.743,19.743,0,0,1,2.27.213,27.428,27.428,0,0,1,5.056,1.3,41.339,41.339,0,0,1,9.35,4.8.814.814,0,0,1,.238,1.012.619.619,0,0,1-.9.29Z" transform="translate(-132.802 -39.978)" fill="#5b5a5d"/>
        <path id="Path_1293" data-name="Path 1293" d="M158.79,206.628c.648.035,1.292.092,1.929.19a27.427,27.427,0,0,1,5.056,1.3,41.434,41.434,0,0,1,9.35,4.8.814.814,0,0,1,.238,1.012.619.619,0,0,1-.9.29l-.022-.014a42.48,42.48,0,0,0-9.136-4.3,22.457,22.457,0,0,0-7.411-1.2,13.385,13.385,0,0,0,.893-2.081" transform="translate(-135.056 -41.923)" fill="#5b5a5d"/>
        <path id="Path_1294" data-name="Path 1294" d="M70.122,138.1a44.282,44.282,0,0,0,8.361-6.771,33.44,33.44,0,0,0,3.542-4.316,23.326,23.326,0,0,0,2.7-5.168,16.84,16.84,0,0,0,1.046-6.052,16.43,16.43,0,0,0-.385-3.1c-.14-.5-.245-1.009-.426-1.485l-.252-.725-.3-.7a20.49,20.49,0,0,0-3.1-4.955,30.319,30.319,0,0,0-3.944-3.922,44.2,44.2,0,0,0-4.335-3.212c-1.483-.989-3.01-1.87-4.547-2.722a91.142,91.142,0,0,0-9.445-4.414c-3.2-1.3-6.435-2.454-9.69-3.51-3.238-1.068-6.414-2.1-9.541-3.411A67.484,67.484,0,0,1,22.223,73.4a41.179,41.179,0,0,1-7.116-7.6,34.322,34.322,0,0,1-4.842-9.517A37.344,37.344,0,0,1,8.554,45.427a48.431,48.431,0,0,1,1.235-11.1,68.593,68.593,0,0,1,8.439-20.465l.01-.017a.426.426,0,0,0-.084-.544.315.315,0,0,0-.462.071,61,61,0,0,0-5.6,9.686A61.859,61.859,0,0,0,8.164,33.818,48.1,48.1,0,0,0,6.545,45.425a38.759,38.759,0,0,0,1.6,11.719A37.483,37.483,0,0,0,10.3,62.589a34.675,34.675,0,0,0,2.922,4.945A43.9,43.9,0,0,0,20.733,75.7a57.327,57.327,0,0,0,8.795,6.1,82.43,82.43,0,0,0,9.417,4.572l2.411.959,2.43.884c.807.306,1.63.545,2.445.821l2.431.789c3.219,1.022,6.413,2.139,9.557,3.4s6.244,2.636,9.257,4.2c1.5.8,2.984,1.63,4.417,2.555a41.5,41.5,0,0,1,4.158,2.984,27.81,27.81,0,0,1,3.7,3.569,17.959,17.959,0,0,1,2.8,4.324l.262.592.219.609c.162.4.248.827.374,1.24a13.88,13.88,0,0,1,.352,2.572,14.491,14.491,0,0,1-.787,5.174,26,26,0,0,1-5.6,8.92,45.753,45.753,0,0,1-3.772,3.652,42.993,42.993,0,0,1-4.1,3.163l-.022.015a.814.814,0,0,0-.234,1.03.618.618,0,0,0,.887.277" transform="translate(60.453 -2.685)" fill="#dadada"/>
        <path id="Path_1295" data-name="Path 1295" d="M17.436,121.663s2.733-6.84,2.736-6.846c7.1-17.766,26.621-5.65,36.363,1.846,13.219,10.171,26.66,20.521,37.626,33.852.9,1.1,3.734,3.975,3.188,5.814-1.349,4.538-23.041-2.26-23.041-2.26s10.455,7.308,2.449,8.183c-2.738.3-5.713-.653-8.353-1.341-4.261-1.111-8.452-2.507-12.622-3.991a215.631,215.631,0,0,1-27.028-11.177,28.8,28.8,0,0,1-8.79-6.271c-4.067-4.642-4.888-11.9-2.528-17.81" transform="translate(42.108 -21.429)" fill="#807e81"/>
        <path id="Path_1296" data-name="Path 1296" d="M72.025,158.29c-31.835-3.492-55.9-19.575-55.9-38.893a24.728,24.728,0,0,1,3.4-12.316c8.962-4.94,22.532,3.73,30.139,9.583,13.219,10.172,26.66,20.522,37.626,33.853.9,1.1,3.734,3.975,3.188,5.813-1.348,4.539-23.041-2.259-23.041-2.259a23.826,23.826,0,0,1,4.584,4.219" transform="translate(48.975 -21.429)" fill="#dadada"/>
        <path id="Path_1297" data-name="Path 1297" d="M48.237,146.546a3.34,3.34,0,1,0,3.34-3.287,3.314,3.314,0,0,0-3.34,3.287" transform="translate(62.155 -29.066)" fill="#807e81"/>
        <path id="Path_1298" data-name="Path 1298" d="M48.665,145.75a2.03,2.03,0,1,0,2.029-2,2.013,2.013,0,0,0-2.029,2" transform="translate(64.049 -29.166)" fill="#fff"/>
      </g>
    </g>
    <g id="Group_385" data-name="Group 385" transform="translate(4713.072 -21602.594) rotate(25)">
      <g id="Group_384" data-name="Group 384" clip-path="url(#clip-path-2)">
        <path id="Path_1249" data-name="Path 1249" d="M179.4,240.456c-.837,1.554-1.664,2.9-2.545,4.308-.9,1.356-1.8,2.725-2.757,4.039-1.9,2.641-3.928,5.179-6.054,7.641a119.361,119.361,0,0,1-14.057,13.689,103.122,103.122,0,0,1-16.672,11.4,63.861,63.861,0,0,1-20.247,7.176,10.4,10.4,0,0,1-4.71-20.2l.464-.143a90.955,90.955,0,0,0,14.491-5.925,166.932,166.932,0,0,0,14.759-8.508c4.906-3.133,9.779-6.514,14.728-9.918l7.476-5.153,3.791-2.579c1.27-.833,2.58-1.736,3.817-2.491l.29-.178a5.155,5.155,0,0,1,7.226,6.843" fill="#f48d3b"/>
        <path id="Path_1250" data-name="Path 1250" d="M177.907,233.155c-1.2,1.295-2.337,2.394-3.542,3.533-1.215,1.087-2.424,2.189-3.68,3.221-2.5,2.082-5.1,4.032-7.774,5.883a119.27,119.27,0,0,1-17.035,9.736,103.084,103.084,0,0,1-19,6.868,63.854,63.854,0,0,1-21.4,1.882,10.4,10.4,0,0,1,.5-20.74l.485-.023a90.936,90.936,0,0,0,15.513-2.11,166.939,166.939,0,0,0,16.418-4.544c5.535-1.8,11.1-3.859,16.742-5.918l8.527-3.117,4.317-1.549c1.437-.488,2.932-1.035,4.318-1.456l.325-.1a5.155,5.155,0,0,1,5.284,8.433" fill="#f3832a"/>
        <path id="Path_1251" data-name="Path 1251" d="M175.041,239.209l-2.051-1.366a15.739,15.739,0,0,1-4.376-21.824l6.134-9.212a7.136,7.136,0,0,1,9.9-1.984l16.373,10.9A7.136,7.136,0,0,1,203,225.62l-6.135,9.213a15.739,15.739,0,0,1-21.824,4.376" fill="#f3832a"/>
        <path id="Path_1252" data-name="Path 1252" d="M176.949,233.965l-.591-.393a15.739,15.739,0,0,1-4.376-21.824l4.5-6.757a7.134,7.134,0,0,1,9.894-1.984l14.913,9.93a7.136,7.136,0,0,1,1.984,9.894l-4.5,6.758a15.738,15.738,0,0,1-21.823,4.376" fill="#f6a463"/>
        <path id="Path_1253" data-name="Path 1253" d="M195.495,216.963l-2.408-.524a15.74,15.74,0,0,1-12.029-18.729l1.14-5.231a12.849,12.849,0,0,1,15.289-9.821l8.056,1.755a12.849,12.849,0,0,1,9.82,15.289l-1.14,5.232a15.739,15.739,0,0,1-18.728,12.029" fill="#f3832a"/>
        <path id="Path_1254" data-name="Path 1254" d="M194.893,212.953h0a15.739,15.739,0,0,1-12.029-18.728,12.85,12.85,0,0,1,15.289-9.821l5.648,1.231a12.848,12.848,0,0,1,9.82,15.289,15.739,15.739,0,0,1-18.728,12.029" fill="#f6a463"/>
        <path id="Path_1255" data-name="Path 1255" d="M202.671,187.272l-5.013,2.894a15.738,15.738,0,0,1-21.5-5.761l-4.977-8.62a11.573,11.573,0,0,1,4.236-15.81l12.228-7.06a11.574,11.574,0,0,1,15.81,4.236l4.977,8.621a15.739,15.739,0,0,1-5.761,21.5" fill="#f3832a"/>
        <path id="Path_1256" data-name="Path 1256" d="M198.507,184.181l-2.451,1.415a15.739,15.739,0,0,1-21.5-5.761l-1.228-2.126a11.575,11.575,0,0,1,4.237-15.811l9.665-5.58a11.574,11.574,0,0,1,15.81,4.236l1.228,2.127a15.739,15.739,0,0,1-5.761,21.5" fill="#f6a463"/>
        <path id="Path_1257" data-name="Path 1257" d="M195.244,150.95l-4.288,7.427a15.739,15.739,0,0,1-21.5,5.761l-10.565-6.1a12.117,12.117,0,0,1-4.435-16.552l7.91-13.7a12.118,12.118,0,0,1,16.553-4.436l10.564,6.1a15.739,15.739,0,0,1,5.761,21.5" fill="#f3832a"/>
        <path id="Path_1258" data-name="Path 1258" d="M189.926,151.57l-1.335,2.313a15.741,15.741,0,0,1-21.5,5.761l-3.075-1.776a12.117,12.117,0,0,1-4.435-16.552l4.958-8.587a12.117,12.117,0,0,1,16.552-4.435l3.075,1.776a15.739,15.739,0,0,1,5.761,21.5" fill="#f6a463"/>
        <path id="Path_1259" data-name="Path 1259" d="M167.563,124.88l.749,12.2a15.739,15.739,0,0,1-14.746,16.674l-24.207,1.486A9.867,9.867,0,0,1,118.907,146l-1.468-23.924a9.866,9.866,0,0,1,9.243-10.452l24.207-1.486a15.74,15.74,0,0,1,16.674,14.746" fill="#f3832a"/>
        <path id="Path_1260" data-name="Path 1260" d="M158.443,127.726l.449,7.318a15.739,15.739,0,0,1-14.746,16.674l-11.384.7a9.866,9.866,0,0,1-10.452-9.244l-1.169-19.042a9.866,9.866,0,0,1,9.244-10.452l11.384-.7a15.74,15.74,0,0,1,16.674,14.746" fill="#f6a463"/>
        <path id="Path_1261" data-name="Path 1261" d="M120.355,122.251l3.064,6.726a20.584,20.584,0,0,1-10.2,27.265l-9.545,4.348a21.333,21.333,0,0,1-28.259-10.571l-2.442-5.36A21.336,21.336,0,0,1,83.545,116.4l9.544-4.348a20.585,20.585,0,0,1,27.266,10.2" fill="#f3832a"/>
        <path id="Path_1262" data-name="Path 1262" d="M27.288,167.594a62.54,62.54,0,0,1-13.3-6.183,43.659,43.659,0,0,1-5.963-4.406A28.15,28.15,0,0,1,3.05,151.33,18.817,18.817,0,0,1,.2,144.136a18.275,18.275,0,0,1-.165-3.931c.083-.648.115-1.308.261-1.943l.188-.96.257-.938a25.464,25.464,0,0,1,3.234-6.918,41.188,41.188,0,0,1,4.653-5.861,63.074,63.074,0,0,1,5.366-5.088c1.861-1.605,3.807-3.088,5.774-4.538a139.064,139.064,0,0,1,12.278-7.9c4.2-2.435,8.49-4.7,12.829-6.846,4.309-2.158,8.541-4.259,12.642-6.684a100.43,100.43,0,0,0,22.4-17.189A55.111,55.111,0,0,0,88.2,64.123a41.4,41.4,0,0,0,4.642-13,41.648,41.648,0,0,0-.066-13.84,53.711,53.711,0,0,0-4.263-13.369A80.6,80.6,0,0,0,71.982.858L71.963.84a.491.491,0,0,1,.66-.725A74.828,74.828,0,0,1,82.705,10.61,71.749,71.749,0,0,1,90.68,22.861a53.5,53.5,0,0,1,4.918,13.9,43.062,43.062,0,0,1,.415,14.874,43.835,43.835,0,0,1-1.79,7.277,42.794,42.794,0,0,1-2.984,6.859,58.681,58.681,0,0,1-8.7,12.018A83.174,83.174,0,0,1,71.559,87.6a125.471,125.471,0,0,1-12.2,8.085L56.184,97.49l-3.216,1.722c-1.065.587-2.168,1.1-3.251,1.647l-3.239,1.6c-4.3,2.1-8.531,4.305-12.666,6.672s-8.181,4.873-12.061,7.59c-1.924,1.378-3.827,2.786-5.63,4.3a60.218,60.218,0,0,0-5.168,4.761,38.077,38.077,0,0,0-4.387,5.362,22.441,22.441,0,0,0-2.948,6.06l-.233.8-.169.809c-.135.537-.16,1.084-.244,1.627a15.418,15.418,0,0,0,.091,3.264,16.132,16.132,0,0,0,2.285,6.179,32.342,32.342,0,0,0,9.906,9.552,62.538,62.538,0,0,0,6.135,3.526,61.3,61.3,0,0,0,6.485,2.839l.035.013a.943.943,0,0,1-.621,1.781" fill="#f6a463"/>
        <path id="Path_1263" data-name="Path 1263" d="M141.547,176.013l-.029-.023a61.249,61.249,0,0,1-5.326-4.664,62.112,62.112,0,0,1-4.784-5.214,32.934,32.934,0,0,1-6.419-11.61,9.9,9.9,0,0,1-3.271-2.206,20.49,20.49,0,0,0,.5,2.406,28.187,28.187,0,0,0,3.029,6.912,43.626,43.626,0,0,0,4.355,6,62.613,62.613,0,0,0,10.813,9.91.944.944,0,0,0,1.13-1.511" fill="#f3832a"/>
        <path id="Path_1264" data-name="Path 1264" d="M149.933,171.323l-.03-.023a61.386,61.386,0,0,1-5.325-4.664,62.3,62.3,0,0,1-4.785-5.214,40.309,40.309,0,0,1-4.379-6.554l-2.813.173c.328.639.669,1.27,1.034,1.883a43.626,43.626,0,0,0,4.355,6,62.614,62.614,0,0,0,10.813,9.91.944.944,0,0,0,1.13-1.511" fill="#f3832a"/>
        <path id="Path_1265" data-name="Path 1265" d="M170.21,166.422a11.525,11.525,0,0,1,3-4.783,20.4,20.4,0,0,0-2.56,1.284,28.19,28.19,0,0,0-5.866,4.748,43.649,43.649,0,0,0-4.636,5.786,62.5,62.5,0,0,0-6.7,13.047.943.943,0,0,0,1.755.69l.015-.034a61.2,61.2,0,0,1,3.091-6.369,62.434,62.434,0,0,1,3.765-5.992,35.03,35.03,0,0,1,8.133-8.377" fill="#f3832a"/>
        <path id="Path_1266" data-name="Path 1266" d="M171.181,175.785c-.108-.186-.2-.379-.291-.568a44.708,44.708,0,0,0-4,5.089,62.5,62.5,0,0,0-6.7,13.047.943.943,0,0,0,1.755.69l.014-.034a61.389,61.389,0,0,1,3.092-6.368,62.437,62.437,0,0,1,3.765-5.992,44.09,44.09,0,0,1,3.361-4.139Z" fill="#f3832a"/>
        <path id="Path_1267" data-name="Path 1267" d="M158.331,206.589a61.3,61.3,0,0,1,6.386-3.054,62.212,62.212,0,0,1,6.679-2.34,38.133,38.133,0,0,1,9.367-1.526,15.911,15.911,0,0,1,.3-1.959l.145-.668a32.084,32.084,0,0,0-3.246.267,43.733,43.733,0,0,0-7.231,1.636,62.547,62.547,0,0,0-13.371,6.028.943.943,0,0,0,.942,1.634Z" fill="#f3832a"/>
        <path id="Path_1268" data-name="Path 1268" d="M181.718,206.628c-.926.044-1.848.116-2.759.238a43.731,43.731,0,0,0-7.231,1.635,62.691,62.691,0,0,0-13.371,6.028.943.943,0,0,0,.943,1.634l.032-.017a61.2,61.2,0,0,1,6.386-3.055,62.735,62.735,0,0,1,6.679-2.341,36.23,36.23,0,0,1,10.6-1.511,15.779,15.779,0,0,1-1.277-2.611" fill="#f3832a"/>
        <path id="Path_1269" data-name="Path 1269" d="M28.926,169.882a62.523,62.523,0,0,1-11.957-8.494,43.656,43.656,0,0,1-5.065-5.415,28.2,28.2,0,0,1-3.862-6.483,18.82,18.82,0,0,1-1.5-7.593A18.218,18.218,0,0,1,7.1,138c.2-.622.35-1.266.609-1.863l.36-.91.422-.876a25.48,25.48,0,0,1,4.436-6.216,41.182,41.182,0,0,1,5.64-4.92,63.413,63.413,0,0,1,6.2-4.029c2.121-1.241,4.305-2.346,6.5-3.415a139.455,139.455,0,0,1,13.507-5.537c4.574-1.632,9.2-3.079,13.858-4.4,4.63-1.34,9.173-2.639,13.645-4.279A100.459,100.459,0,0,0,97.425,88.716,55.157,55.157,0,0,0,107.6,79.184a39.943,39.943,0,0,0,9.371-25.563A53.645,53.645,0,0,0,115.207,39.7a80.574,80.574,0,0,0-12.069-25.674l-.015-.021a.491.491,0,0,1,.78-.594,74.847,74.847,0,0,1,8.01,12.151,71.743,71.743,0,0,1,5.618,13.495,53.45,53.45,0,0,1,2.315,14.562,43.079,43.079,0,0,1-2.291,14.7,43.8,43.8,0,0,1-3.082,6.831,42.693,42.693,0,0,1-4.179,6.2A58.6,58.6,0,0,1,99.557,91.6,83.147,83.147,0,0,1,86.98,99.248a125.6,125.6,0,0,1-13.467,5.736l-3.448,1.2L66.59,107.3c-1.154.384-2.331.684-3.5,1.03l-3.476.99c-4.6,1.282-9.171,2.684-13.667,4.262s-8.929,3.307-13.239,5.275c-2.141,1.006-4.268,2.045-6.316,3.205A59.863,59.863,0,0,0,20.45,125.8a37.989,37.989,0,0,0-5.287,4.477,22.45,22.45,0,0,0-4,5.424l-.374.743-.313.764c-.231.5-.354,1.038-.535,1.556a15.412,15.412,0,0,0-.5,3.227,16.147,16.147,0,0,0,1.125,6.491,32.347,32.347,0,0,0,8.008,11.19,62.463,62.463,0,0,0,5.394,4.582,61.24,61.24,0,0,0,5.862,3.968l.032.019a.943.943,0,0,1-.934,1.639" fill="#f6a463"/>
        <path id="Path_1270" data-name="Path 1270" d="M130.507,125.748s-3.909-8.581-3.912-8.589c-10.153-22.288-38.071-7.088-52,2.316-18.905,12.76-38.126,25.744-53.809,42.469-1.293,1.38-5.34,4.987-4.559,7.294,1.929,5.693,32.951-2.835,32.951-2.835s-14.951,9.168-3.5,10.266c3.916.375,8.17-.819,11.946-1.682,6.093-1.394,12.087-3.145,18.05-5.007,13.084-4.085,26.153-8.352,38.652-14.022,4.526-2.054,9.057-4.349,12.57-7.867,5.816-5.823,6.99-14.933,3.615-22.343" fill="#f3832a"/>
        <path id="Path_1271" data-name="Path 1271" d="M42.619,171.7c45.527-4.381,79.941-24.558,79.941-48.793a28.2,28.2,0,0,0-4.866-15.451c-12.817-6.2-32.223,4.679-43.1,12.022-18.905,12.761-38.126,25.745-53.808,42.47-1.294,1.379-5.34,4.987-4.559,7.293,1.928,5.694,32.95-2.834,32.95-2.834a33.011,33.011,0,0,0-6.556,5.293" fill="#f6a463"/>
        <path id="Path_1272" data-name="Path 1272" d="M57.789,147.383c0,2.277-2.138,4.124-4.776,4.124s-4.776-1.847-4.776-4.124,2.138-4.124,4.776-4.124,4.776,1.847,4.776,4.124" fill="#0f0f0f"/>
        <path id="Path_1273" data-name="Path 1273" d="M54.469,146.258a2.933,2.933,0,1,1-2.9-2.5,2.725,2.725,0,0,1,2.9,2.5" fill="#fff"/>
      </g>
    </g>
  </g>
</svg>
