<svg width="106" height="112" viewBox="0 0 106 112" fill="none" xmlns="http://www.w3.org/2000/svg">
<g clip-path="url(#clip0_30_858)">
<path d="M75.626 99.19L97.187 87.355C99.1534 86.2594 100.79 84.6563 101.926 82.7129C103.062 80.7695 103.655 78.5569 103.645 76.306V35.9C103.655 33.649 103.061 31.4365 101.926 29.4931C100.79 27.5497 99.1533 25.9466 97.187 24.851L58.586 3.65896C56.9294 2.74958 55.0702 2.27283 53.1805 2.27283C51.2908 2.27283 49.4316 2.74958 47.775 3.65896L40.875 7.45896" stroke="#FBB040" stroke-width="4" stroke-linecap="round" stroke-linejoin="round"/>
<path d="M84.8309 102.147L75.6289 99.1899" stroke="#FBB040" stroke-width="4" stroke-linecap="round" stroke-linejoin="round"/>
<path d="M75.6289 99.19L78.6029 89.593" stroke="#FBB040" stroke-width="4" stroke-linecap="round" stroke-linejoin="round"/>
<path d="M75.6289 99.19L78.6029 89.593" stroke="#FBB040" stroke-width="4" stroke-linecap="round" stroke-linejoin="round"/>
<path d="M53.4531 16.7421V55.2421" stroke="#FBB040" stroke-width="4" stroke-linecap="round"/>
<path d="M52.8396 55.9869L19.8047 75.0599" stroke="#FBB040" stroke-width="4" stroke-linecap="round"/>
<path d="M53.4531 55.985L86.488 75.058" stroke="#FBB040" stroke-width="4" stroke-linecap="round"/>
<path d="M83.1926 26.8629L78.9766 31.0629" stroke="#FBB040" stroke-width="4" stroke-linecap="round"/>
<path d="M67.1484 26.8629L71.6714 31.3709" stroke="#FBB040" stroke-width="4" stroke-linecap="round"/>
<path d="M75.3556 31.3059C78.2616 31.3059 80.1116 33.0719 80.1116 36.1749V39.1339C80.1146 39.1622 80.112 39.1908 80.104 39.218C80.0959 39.2453 80.0825 39.2706 80.0645 39.2927C80.0466 39.3147 80.0245 39.333 79.9994 39.3464C79.9744 39.3598 79.9469 39.3682 79.9186 39.3709H79.8856L70.2626 39.3509C70.2054 39.3536 70.1494 39.3336 70.1068 39.2952C70.0643 39.2568 70.0387 39.2031 70.0356 39.1459C70.035 39.1349 70.035 39.1239 70.0356 39.1129V36.1839C70.0356 33.0969 71.9076 31.3059 74.7976 31.3059" stroke="#FBB040" stroke-width="4" stroke-linecap="round" stroke-linejoin="round"/>
<path d="M75.3561 55.1419C78.2621 55.1419 80.1121 52.4089 80.1121 47.6079V43.0299C80.1121 42.7999 80.0221 42.6619 79.8871 42.6619L70.2641 42.6919C70.1281 42.6919 70.0391 42.8299 70.0391 43.0599V47.5919C70.0391 52.3689 71.9111 55.1409 74.8011 55.1409" stroke="#FBB040" stroke-width="4" stroke-linecap="round" stroke-linejoin="round"/>
<path d="M65.4733 39.3059C64.9036 39.6858 64.4166 40.177 64.0415 40.7499C63.6664 41.3228 63.4109 41.9656 63.2903 42.6396C63.1698 43.3137 63.1867 44.0052 63.34 44.6726C63.4933 45.34 63.7799 45.9695 64.1826 46.5234C64.5853 47.0772 65.0957 47.544 65.6832 47.8957C66.2708 48.2475 66.9233 48.4768 67.6017 48.5701C68.2801 48.6633 68.9704 48.6185 69.631 48.4384C70.2917 48.2583 70.9091 47.9465 71.4463 47.5219C73.8253 45.7939 74.8353 38.7849 74.8353 38.7849C74.8353 38.7849 67.8463 37.5779 65.4733 39.3059Z" fill="#F4F4F4" stroke="#FBB040" stroke-width="4" stroke-linecap="round" stroke-linejoin="round"/>
<path d="M84.8189 39.3079C85.392 39.6863 85.8825 40.1769 86.2607 40.7501C86.6389 41.3233 86.8971 41.9672 87.0196 42.6429C87.1421 43.3186 87.1264 44.0121 86.9735 44.6816C86.8205 45.3511 86.5335 45.9827 86.1298 46.5382C85.726 47.0937 85.2139 47.5616 84.6243 47.9137C84.0347 48.2658 83.3798 48.4948 82.6993 48.5868C82.0188 48.6788 81.3266 48.632 80.6647 48.4492C80.0028 48.2663 79.3847 47.9512 78.8479 47.5229C76.4689 45.7939 75.4609 38.7829 75.4609 38.7829C75.4609 38.7829 82.4409 37.5789 84.8189 39.3079Z" fill="#F4F4F4" stroke="#FBB040" stroke-width="4" stroke-miterlimit="4.001" stroke-linecap="round" stroke-linejoin="round"/>
<path d="M27.811 40.253L16.456 34.458C15.062 33.746 15.056 33.416 16.049 32.258C16.5067 31.6448 17.1536 31.1993 17.8897 30.9903C18.6259 30.7814 19.4103 30.8206 20.122 31.102C24.181 32.308 28.299 33.312 32.374 34.464C32.7119 34.5964 33.0837 34.6154 33.4334 34.5182C33.7831 34.421 34.0918 34.2128 34.313 33.925C35.501 32.647 36.76 31.434 38.004 30.21C39.32 28.8768 41.0804 28.0742 42.95 27.955C44.05 27.878 44.475 28.3 44.396 29.396C44.2715 31.3019 43.442 33.0933 42.069 34.421C40.807 35.679 39.582 36.975 38.277 38.187C38.0348 38.385 37.8634 38.6561 37.7884 38.9597C37.7134 39.2633 37.7389 39.5831 37.861 39.871C39.034 44.09 40.161 48.322 41.303 52.55C41.5716 53.3716 41.5312 54.263 41.1896 55.057C40.8479 55.8511 40.2283 56.4932 39.447 56.863C38.647 57.285 38.298 56.723 37.985 56.105C36.5223 53.2137 35.0536 50.326 33.579 47.442C33.079 46.469 32.579 45.497 32.024 44.414C29.966 46.251 27.997 47.986 26.066 49.764C25.8582 50.0355 25.762 50.376 25.797 50.716C25.867 51.997 25.954 53.279 26.117 54.549C26.1919 55.0072 26.1453 55.477 25.9818 55.9115C25.8182 56.346 25.5435 56.73 25.185 57.025C24.433 57.699 23.862 57.583 23.49 56.615C22.903 55.086 22.329 53.551 21.807 51.999C21.7117 51.658 21.5312 51.3468 21.2824 51.0949C21.0336 50.843 20.7248 50.6585 20.385 50.559C18.834 50.036 17.301 49.459 15.774 48.872C14.757 48.482 14.649 47.903 15.392 47.112C15.6699 46.7847 16.0256 46.5325 16.4264 46.3785C16.8273 46.2246 17.2604 46.1738 17.686 46.231C18.2198 46.2407 18.7521 46.2919 19.278 46.384C21.586 47.054 23.158 46.165 24.478 44.275C25.4847 42.9826 26.5627 41.7474 27.707 40.575C27.7551 40.4725 27.7901 40.3643 27.811 40.253V40.253Z" fill="#FBB040"/>
<path d="M30.8218 12.9669L9.26282 24.8029C7.29658 25.8984 5.66021 27.5014 4.52433 29.4446C3.38845 31.3878 2.79464 33.6001 2.80482 35.8509V76.2589C2.79457 78.5099 3.38834 80.7224 4.52422 82.6658C5.6601 84.6091 7.2965 86.2122 9.26282 87.3079L47.8628 108.499C49.5194 109.408 51.3786 109.885 53.2683 109.885C55.1581 109.885 57.0173 109.408 58.6738 108.499L65.5738 104.699" stroke="#FBB040" stroke-width="4" stroke-linecap="round" stroke-linejoin="round"/>
<path d="M21.043 9.82495L30.821 12.967L27.579 23.427" stroke="#FBB040" stroke-width="4" stroke-linecap="round" stroke-linejoin="round"/>
<path d="M61.6868 91.7839H45.0508L43.0078 77.1019H63.7298L61.6868 91.7839Z" stroke="#FBB040" stroke-width="4" stroke-miterlimit="10" stroke-linecap="round" stroke-linejoin="round"/>
<path d="M45.2891 69.9879H61.4501" stroke="#FBB040" stroke-width="4" stroke-miterlimit="10" stroke-linecap="round" stroke-linejoin="round"/>
</g>
<defs>
<clipPath id="clip0_30_858">
<rect width="104.842" height="111.843" fill="white" transform="translate(0.804688 0.156982)"/>
</clipPath>
</defs>
</svg>
