<svg id="surface1" xmlns="http://www.w3.org/2000/svg" width="127.33" height="44.566" viewBox="0 0 127.33 44.566">
  <path id="Path_16952" data-name="Path 16952" d="M3.585.453,123.86.665c1.683,0,3.183-.249,3.183,3.357l-.149,39.608H.547V3.873C.547,2.094.721.453,3.585.453Z" transform="translate(0.033 0.028)" fill="#aab2ab"/>
  <path id="Path_16953" data-name="Path 16953" d="M124.947,0H2.383A2.386,2.386,0,0,0,0,2.383V44.027a.538.538,0,0,0,.539.539H126.791a.538.538,0,0,0,.539-.539V2.383A2.386,2.386,0,0,0,124.947,0ZM2.383,1.078H124.947a1.305,1.305,0,0,1,1.306,1.306V31.269h-87.6a18.836,18.836,0,0,1-32.993,0H1.078V2.383A1.305,1.305,0,0,1,2.383,1.078Z"/>
  <path id="Path_16954" data-name="Path 16954" d="M36.189,20.384A14.468,14.468,0,0,1,7.254,20.4v-.017a14.468,14.468,0,0,1,28.935-.017Z" transform="translate(0.443 0.361)" fill="#fff"/>
  <path id="Path_16955" data-name="Path 16955" d="M33.6,8.722a16.028,16.028,0,0,1,4.812,11.784,15.769,15.769,0,0,1-4.729,11.659A16.366,16.366,0,0,1,21.82,37.1a15.915,15.915,0,0,1-11.655-4.9,15.953,15.953,0,0,1-4.9-11.7,16.238,16.238,0,0,1,4.9-11.784A15.78,15.78,0,0,1,21.82,3.91,16.028,16.028,0,0,1,33.6,8.722Zm-21.28,2.159a13.24,13.24,0,0,0-4.07,9.628,13.047,13.047,0,0,0,4.025,9.546,13.091,13.091,0,0,0,9.591,4.025,13.3,13.3,0,0,0,9.67-4.066,12.667,12.667,0,0,0,3.9-9.5,13.134,13.134,0,0,0-3.967-9.649A13.093,13.093,0,0,0,21.87,6.9,12.839,12.839,0,0,0,12.324,10.882Zm7.137,8.012A2,2,0,0,0,17.6,17.538q-2.188,0-2.193,2.951T17.6,23.445A2.13,2.13,0,0,0,19.669,22L21.7,23.084a4.692,4.692,0,0,1-4.348,2.574,4.794,4.794,0,0,1-3.585-1.372,5.165,5.165,0,0,1-1.347-3.78A5.092,5.092,0,0,1,13.8,16.747a4.69,4.69,0,0,1,3.461-1.393,4.609,4.609,0,0,1,4.389,2.416Zm9.537,0a1.972,1.972,0,0,0-1.824-1.355q-2.238,0-2.238,2.951t2.238,2.955A2.052,2.052,0,0,0,29.206,22l2.072,1.082a4.684,4.684,0,0,1-4.34,2.574,4.785,4.785,0,0,1-3.581-1.372,5.181,5.181,0,0,1-1.343-3.78,5.13,5.13,0,0,1,1.368-3.759,4.647,4.647,0,0,1,3.473-1.393,4.6,4.6,0,0,1,4.381,2.416Z" transform="translate(0.322 0.239)"/>
  <path id="Path_16956" data-name="Path 16956" d="M63.816,15.879a11.4,11.4,0,1,1-11.4-11.394A11.4,11.4,0,0,1,63.816,15.879Z" transform="translate(2.506 0.274)" fill="#fff"/>
  <path id="Path_16957" data-name="Path 16957" d="M55.252,12.163a.8.8,0,0,0-.8-.8H49.425a.8.8,0,0,0-.8.8v5.032h1.405v5.96h3.813v-5.96h1.405Z" transform="translate(2.97 0.694)"/>
  <path id="Path_16958" data-name="Path 16958" d="M53.569,9.22a1.72,1.72,0,1,1-1.72-1.72A1.719,1.719,0,0,1,53.569,9.22Z" transform="translate(3.062 0.458)"/>
  <path id="Path_16959" data-name="Path 16959" d="M52.442,3.391a11.732,11.732,0,0,0-8.654,3.569A12.041,12.041,0,0,0,40.156,15.7a11.826,11.826,0,0,0,3.631,8.671A11.829,11.829,0,0,0,52.442,28a12.154,12.154,0,0,0,8.812-3.66A11.666,11.666,0,0,0,64.764,15.7a11.866,11.866,0,0,0-3.573-8.737A11.906,11.906,0,0,0,52.442,3.391Zm.033,2.217a9.627,9.627,0,0,1,7.113,2.951A9.648,9.648,0,0,1,62.547,15.7a9.383,9.383,0,0,1-2.9,7.042,9.864,9.864,0,0,1-7.175,3.013,9.727,9.727,0,0,1-7.117-2.984A9.653,9.653,0,0,1,42.374,15.7a9.809,9.809,0,0,1,3.017-7.137A9.537,9.537,0,0,1,52.475,5.608Z" transform="translate(2.453 0.207)" fill-rule="evenodd"/>
  <path id="Path_16960" data-name="Path 16960" d="M48.593,32.746a4.483,4.483,0,0,1,.916.091,1.919,1.919,0,0,1,.709.29,1.345,1.345,0,0,1,.46.535,1.888,1.888,0,0,1,.162.825,1.532,1.532,0,0,1-.24.887,1.788,1.788,0,0,1-.717.58,1.7,1.7,0,0,1,.974.655,1.932,1.932,0,0,1,.323,1.127,1.957,1.957,0,0,1-.207.92,1.838,1.838,0,0,1-.56.634,2.433,2.433,0,0,1-.8.365,3.592,3.592,0,0,1-.92.12H45.277v-7.03Zm-.2,2.843a1.128,1.128,0,0,0,.68-.195.741.741,0,0,0,.265-.638.814.814,0,0,0-.087-.4.65.65,0,0,0-.236-.249.974.974,0,0,0-.34-.12,2.1,2.1,0,0,0-.4-.037H46.828v1.641Zm.091,2.98a2.084,2.084,0,0,0,.431-.041,1.047,1.047,0,0,0,.369-.149.718.718,0,0,0,.249-.282.949.949,0,0,0,.1-.452.906.906,0,0,0-.307-.771,1.308,1.308,0,0,0-.808-.232H46.828V38.57Z" transform="translate(2.766 2)" fill="#fff"/>
  <path id="Path_16961" data-name="Path 16961" d="M51.094,32.746h1.733l1.646,2.777,1.637-2.777h1.724l-2.611,4.331v2.7h-1.55v-2.74Z" transform="translate(3.121 2)" fill="#fff"/>
  <path id="Path_16962" data-name="Path 16962" d="M98.535,38.045a1.071,1.071,0,0,0,.34.4,1.5,1.5,0,0,0,.493.224,2.314,2.314,0,0,0,.589.075,3.447,3.447,0,0,0,.443-.033,1.615,1.615,0,0,0,.444-.133,1.007,1.007,0,0,0,.344-.274.7.7,0,0,0,.137-.435.628.628,0,0,0-.182-.464,1.483,1.483,0,0,0-.477-.294A4.884,4.884,0,0,0,100,36.9c-.253-.058-.5-.124-.759-.195a6.879,6.879,0,0,1-.767-.245,2.422,2.422,0,0,1-.667-.369,1.7,1.7,0,0,1-.477-.564,1.739,1.739,0,0,1-.182-.821,1.841,1.841,0,0,1,.232-.941,2.107,2.107,0,0,1,.6-.667,2.755,2.755,0,0,1,.85-.394,3.645,3.645,0,0,1,.941-.124,4.614,4.614,0,0,1,1.057.12,2.575,2.575,0,0,1,.9.4,1.992,1.992,0,0,1,.626.7,2.191,2.191,0,0,1,.232,1.04h-1.5a1.238,1.238,0,0,0-.133-.522.864.864,0,0,0-.3-.323,1.178,1.178,0,0,0-.427-.166,2.569,2.569,0,0,0-.522-.05,1.9,1.9,0,0,0-.373.037,1.1,1.1,0,0,0-.336.137.851.851,0,0,0-.253.249.692.692,0,0,0-.1.373.671.671,0,0,0,.075.336.725.725,0,0,0,.311.236,4.174,4.174,0,0,0,.638.216c.274.07.63.166,1.069.278.128.025.311.075.543.141a2.577,2.577,0,0,1,.692.332,2.078,2.078,0,0,1,.6.605,1.737,1.737,0,0,1,.249.97,2.165,2.165,0,0,1-.187.9,1.961,1.961,0,0,1-.555.713,2.687,2.687,0,0,1-.916.468,4.308,4.308,0,0,1-1.264.166,4.446,4.446,0,0,1-1.127-.141,2.745,2.745,0,0,1-.962-.452,2.21,2.21,0,0,1-.667-.779,2.371,2.371,0,0,1-.236-1.119h1.5A1.246,1.246,0,0,0,98.535,38.045Z" transform="translate(5.919 1.99)" fill="#fff"/>
  <path id="Path_16963" data-name="Path 16963" d="M106.889,32.746l2.628,7.03h-1.6l-.531-1.567h-2.628l-.551,1.567h-1.554l2.657-7.03Zm.091,4.311-.887-2.578h-.021l-.912,2.578Z" transform="translate(6.27 2)" fill="#fff"/>
  <path id="Path_16964" data-name="Path 16964" d="M72.608,32.746l2.935,4.717h.017V32.746H77.01v7.03H75.464l-2.926-4.7h-.021v4.7H71.07v-7.03Z" transform="translate(4.341 2)" fill="#fff"/>
  <path id="Path_16965" data-name="Path 16965" d="M82.473,34.629a1.541,1.541,0,0,0-.344-.39,1.567,1.567,0,0,0-.468-.261,1.613,1.613,0,0,0-.547-.091,1.833,1.833,0,0,0-.887.2,1.683,1.683,0,0,0-.589.543,2.4,2.4,0,0,0-.332.771,4.007,4.007,0,0,0-.1.9,3.718,3.718,0,0,0,.1.862,2.366,2.366,0,0,0,.332.75,1.711,1.711,0,0,0,.589.539,1.833,1.833,0,0,0,.887.2,1.422,1.422,0,0,0,1.107-.431,1.984,1.984,0,0,0,.489-1.144h1.5a3.514,3.514,0,0,1-.307,1.194,2.873,2.873,0,0,1-.647.9,2.748,2.748,0,0,1-.945.576,3.82,3.82,0,0,1-2.644-.087,3.083,3.083,0,0,1-1.09-.771,3.426,3.426,0,0,1-.68-1.156,4.249,4.249,0,0,1-.236-1.434,4.4,4.4,0,0,1,.236-1.463,3.563,3.563,0,0,1,.68-1.177,3.177,3.177,0,0,1,1.09-.788,3.807,3.807,0,0,1,2.549-.116,2.905,2.905,0,0,1,.924.489,2.609,2.609,0,0,1,.676.792,2.809,2.809,0,0,1,.336,1.082h-1.5A1.314,1.314,0,0,0,82.473,34.629Z" transform="translate(4.743 1.99)" fill="#fff"/>
  <path id="Path_16966" data-name="Path 16966" d="M115.871,15.627a11.23,11.23,0,1,1-22.461.017v-.017a11.23,11.23,0,0,1,22.461-.017Z" transform="translate(5.706 0.268)" fill="#fff"/>
  <path id="Path_16967" data-name="Path 16967" d="M104.625,3.387a11.744,11.744,0,0,0-8.654,3.565,12.052,12.052,0,0,0-3.635,8.737,11.846,11.846,0,0,0,3.635,8.675,11.825,11.825,0,0,0,8.654,3.627,12.138,12.138,0,0,0,8.808-3.66,11.669,11.669,0,0,0,3.515-8.642,12.187,12.187,0,0,0-12.323-12.3Zm.033,2.213a9.628,9.628,0,0,1,7.113,2.955,9.628,9.628,0,0,1,2.955,7.133,9.389,9.389,0,0,1-2.893,7.046,9.887,9.887,0,0,1-7.175,3.013,9.727,9.727,0,0,1-7.117-2.984,9.673,9.673,0,0,1-2.988-7.075,9.8,9.8,0,0,1,3.022-7.133A9.519,9.519,0,0,1,104.659,5.6Z" transform="translate(5.64 0.207)"/>
  <path id="Path_16968" data-name="Path 16968" d="M98.833,13.617a5.244,5.244,0,0,1,5.4-4.75c3.925,0,6.321,2.852,6.321,6.652a6.259,6.259,0,0,1-6.383,6.586,5.272,5.272,0,0,1-5.434-4.812h3.1c.091,1.658,1.165,2.238,2.7,2.238,1.745,0,2.885-1.625,2.885-4.108,0-2.6-.982-3.983-2.827-3.983a2.429,2.429,0,0,0-2.76,2.176l.9,0L100.3,16.05l-2.441-2.437Z" transform="translate(5.978 0.542)"/>
  <path id="Path_16969" data-name="Path 16969" d="M89.947,15.64a11.446,11.446,0,0,1-22.892.017V15.64a11.446,11.446,0,0,1,22.892-.017Z" transform="translate(4.096 0.256)" fill="#fff"/>
  <path id="Path_16970" data-name="Path 16970" d="M78.536,3.387a12.187,12.187,0,0,1,12.318,12.3,11.666,11.666,0,0,1-3.511,8.642,12.145,12.145,0,0,1-8.808,3.66,11.812,11.812,0,0,1-8.654-3.627,11.83,11.83,0,0,1-3.635-8.675,12.035,12.035,0,0,1,3.635-8.737A11.738,11.738,0,0,1,78.536,3.387Zm-9.521,9a9.781,9.781,0,0,0-.551,3.3,9.657,9.657,0,0,0,2.988,7.075,9.711,9.711,0,0,0,7.113,2.984,9.884,9.884,0,0,0,7.179-3.017,9.378,9.378,0,0,0,1.679-2.151l-4.638-2.064a3.57,3.57,0,0,1-3.386,2.74v1.894H77.984V21.255A5.859,5.859,0,0,1,74.25,19.78l1.7-1.708a3.714,3.714,0,0,0,2.748,1.111c.721,0,1.521-.282,1.521-1.223a.917.917,0,0,0-.332-.738L78.71,16.7l-1.463-.651c-.721-.323-1.335-.593-1.948-.866ZM78.565,5.6a9.525,9.525,0,0,0-7.084,2.955,10.993,10.993,0,0,0-1.368,1.658l4.7,2.1a3.359,3.359,0,0,1,3.171-2.184v-1.9H79.4v1.9a5.279,5.279,0,0,1,3.092,1.127l-1.616,1.662a3.746,3.746,0,0,0-2.106-.721c-.609,0-1.471.187-1.471.953a.5.5,0,0,0,.108.315l1.575.7,1.065.473c.68.3,1.33.593,1.977.879l6.3,2.81a10.836,10.836,0,0,0,.311-2.636,9.644,9.644,0,0,0-2.955-7.133A9.631,9.631,0,0,0,78.565,5.6Z" transform="translate(4.046 0.207)"/>
</svg>
