<svg xmlns="http://www.w3.org/2000/svg" width="134.684" height="41.844" viewBox="0 0 134.684 41.844">
  <g id="TheLexicon_logo" transform="translate(-2.7 -2.381)">
    <g id="Group_657" data-name="Group 657" transform="translate(2.7 2.38)">
      <g id="Group_656" data-name="Group 656">
        <path id="Path_36048" data-name="Path 36048" d="M41.012,15.913a13.917,13.917,0,0,0-6.234-6.364.569.569,0,0,0,.13-.39,3.466,3.466,0,0,0-.519-1.3,9.515,9.515,0,0,0-2.727-3.117,12.749,12.749,0,0,0-5.455-2.208,11.616,11.616,0,0,0-5.844.519,25.494,25.494,0,0,0-3.507,1.558C16.337,5,14,6.562,12.181,7.6a19.849,19.849,0,0,0-5.455,4.805A20.752,20.752,0,0,0,2.7,24.224a19.414,19.414,0,0,0,2.078,8.961,19.2,19.2,0,0,0,7.013,7.792,20.293,20.293,0,0,0,22.987-.649,20.348,20.348,0,0,0,6.1-7.533,19.164,19.164,0,0,0,1.948-8.831A19.385,19.385,0,0,0,41.012,15.913Zm-1.688,6.494a14.768,14.768,0,0,1-2.857,7.922,14.255,14.255,0,0,1-8.961,5.714,15.52,15.52,0,0,1-12.857-3.636A15.625,15.625,0,0,1,9.973,21.5c0-4.935,2.078-7.533,3.507-8.572a3.084,3.084,0,0,1,2.857-.779,46.419,46.419,0,0,1,4.546,1.3,18.655,18.655,0,0,0,7.4.39,7.034,7.034,0,0,0,2.6-.779A12.543,12.543,0,0,0,34,10.848a9.853,9.853,0,0,1,4.416,5.195A14.518,14.518,0,0,1,39.324,22.406Z" transform="translate(-2.7 -2.38)" fill="#502c1e"/>
        <g id="Group_655" data-name="Group 655" transform="translate(17.505 2.877)">
          <g id="Group_654" data-name="Group 654">
            <path id="Path_36049" data-name="Path 36049" d="M30.363,8.757a11.6,11.6,0,0,0-2.6-.779c-.39-.13-1.429-.39-1.429-.39-.519-.39-1.3-2.468-2.727-2.857-.649-.13,1.429,2.338.649,1.948-.649-.26-2.857-1.818-3.766-2.078-.779-.13,1.948,2.078,1.558,1.948-3.117-.39-7.4,1.169-5.325,1.169,2.208-.13,5.844-.39,4.675.13-1.948.649-3.507,2.727-1.429,1.688,2.208-1.3,5.065-1.558,4.286-1.039-.519.39-2.987,2.468-1.3,1.948C24.778,9.8,25.947,8.5,26.336,8.5a.569.569,0,0,0,.39.13,5.428,5.428,0,0,1,1.3.519c.39.13,1.818.909,1.818.909.26-.26.909-1.039.909-1.039Z" transform="translate(-16.178 -4.596)" fill="#a2d45e"/>
          </g>
        </g>
      </g>
    </g>
    <path id="Path_36050" data-name="Path 36050" d="M124.073,32.578H39.136A3.63,3.63,0,0,1,35.5,28.942V14.136A3.63,3.63,0,0,1,39.136,10.5h84.806a3.63,3.63,0,0,1,3.636,3.636V28.812A3.556,3.556,0,0,1,124.073,32.578Z" transform="translate(9.798 2.425)" fill="#97c21c"/>
    <g id="Group_658" data-name="Group 658" transform="translate(48.805 16.562)">
      <path id="Path_36051" data-name="Path 36051" d="M40.538,15.578H38.2V13.5h7.143v2.078H43.005V27.526H40.538Z" transform="translate(-38.2 -13.24)" fill="#fff"/>
      <path id="Path_36052" data-name="Path 36052" d="M44.4,27.526V13.5h2.468v5.714h2.6V13.5h2.468V27.526H49.465V21.292h-2.6v6.234Z" transform="translate(-36.348 -13.24)" fill="#fff"/>
      <path id="Path_36053" data-name="Path 36053" d="M51.6,27.526V13.5h6.494v2.078H54.068v3.636h3.117v2.078H54.068v4.156h4.286v2.078H51.6Z" transform="translate(-34.197 -13.24)" fill="#fff"/>
      <path id="Path_36054" data-name="Path 36054" d="M60.9,27.526V13.5h2.468V25.448h3.766v2.078H60.9Z" transform="translate(-31.419 -13.24)" fill="#fff"/>
      <path id="Path_36055" data-name="Path 36055" d="M66.6,27.526V13.5h6.494v2.078H69.068v3.636h3.117v2.078H69.068v4.156h4.286v2.078H66.6Z" transform="translate(-29.716 -13.24)" fill="#fff"/>
      <path id="Path_36056" data-name="Path 36056" d="M75.087,20.253,72.49,13.5h2.338l1.429,4.416h0l1.3-4.416h2.338l-2.468,6.753,2.727,7.4H77.814l-1.688-5.065h0l-1.688,5.065H72.1Z" transform="translate(-28.073 -13.24)" fill="#fff"/>
      <path id="Path_36057" data-name="Path 36057" d="M79.5,27.526V13.5h2.468V27.526Z" transform="translate(-25.863 -13.24)" fill="#fff"/>
      <path id="Path_36058" data-name="Path 36058" d="M88.035,18.235V17.2c0-1.169-.519-1.688-1.169-1.688-1.039,0-1.3.519-1.3,1.558v7.143c0,1.039.26,1.558,1.3,1.558.909,0,1.169-.519,1.169-1.429V22.651H90.5v1.558a3.4,3.4,0,0,1-3.636,3.636c-2.6,0-3.766-1.558-3.766-3.636V16.936A3.441,3.441,0,0,1,86.866,13.3c2.468,0,3.636,1.688,3.636,3.9v1.039H88.035Z" transform="translate(-24.788 -13.3)" fill="#fff"/>
      <path id="Path_36059" data-name="Path 36059" d="M90.3,16.936A3.441,3.441,0,0,1,94.066,13.3,3.343,3.343,0,0,1,97.7,16.936v7.273a3.4,3.4,0,0,1-3.636,3.636c-2.6,0-3.766-1.558-3.766-3.636Zm2.468,7.273c0,1.039.26,1.558,1.3,1.558s1.3-.519,1.3-1.558V17.066c0-1.039-.26-1.558-1.3-1.558s-1.3.519-1.3,1.558Z" transform="translate(-22.637 -13.3)" fill="#fff"/>
      <path id="Path_36060" data-name="Path 36060" d="M97.5,27.526V13.5h2.208l2.987,8.052h0V13.5H104.9V27.526h-2.078l-3.117-8.831h0v8.831Z" transform="translate(-20.486 -13.24)" fill="#fff"/>
    </g>
  </g>
</svg>
