<svg xmlns="http://www.w3.org/2000/svg" width="677.873" height="721.496" viewBox="0 0 677.873 721.496">
  <g id="VALUE_CHAIN_DIVYA_PR" transform="translate(9 11.957)" opacity="0.13">
    <path id="Path_308" data-name="Path 308" d="M22.274,29.146" transform="translate(107.568 168.774)" fill="none" stroke="#fff" stroke-linecap="round" stroke-linejoin="round" stroke-width="28"/>
    <path id="Path_309" data-name="Path 309" d="M30.424,29.314" transform="translate(158.319 169.821)" fill="none" stroke="#fff" stroke-linecap="round" stroke-linejoin="round" stroke-width="28"/>
    <path id="Path_310" data-name="Path 310" d="M24.979,31.64" transform="translate(124.412 184.305)" fill="none" stroke="#fff" stroke-linecap="round" stroke-miterlimit="10" stroke-width="28"/>
    <g id="Group_198" data-name="Group 198" transform="translate(250.326 2.043)">
      <g id="Group_197" data-name="Group 197">
        <path id="Path_311" data-name="Path 311" d="M262.943,626.621l138.927-76.275c25.628-14.071,41.621-41.426,41.621-71.2V218.749c0-29.769-15.994-57.131-41.621-71.2L153.105,10.976a72.389,72.389,0,0,0-69.67,0L38.945,35.461" transform="translate(-38.945 -2.043)" fill="none" stroke="#fff" stroke-linecap="round" stroke-linejoin="round" stroke-width="28"/>
        <line id="Line_94" data-name="Line 94" x1="59.299" y1="19.058" transform="translate(223.998 624.578)" fill="none" stroke="#fff" stroke-linecap="round" stroke-linejoin="round" stroke-width="28"/>
      </g>
      <line id="Line_95" data-name="Line 95" y1="61.85" x2="19.166" transform="translate(223.998 562.728)" fill="none" stroke="#fff" stroke-linecap="round" stroke-linejoin="round" stroke-width="28"/>
      <line id="Line_96" data-name="Line 96" y1="61.85" x2="19.166" transform="translate(223.998 562.728)" fill="none" stroke="#fff" stroke-linecap="round" stroke-linejoin="round" stroke-width="28"/>
    </g>
    <g id="Group_170826_1_" transform="translate(114.585 95.288)">
      <g id="Layer_19_1_" transform="translate(0 0)">
        <g id="Group_170600_1_">
          <path id="Path_95904_1_" d="M-3346.332-2220.314l0,248.136" transform="translate(3563.139 2220.314)" fill="none" stroke="#fff" stroke-linecap="round" stroke-width="28"/>
          <path id="Path_95905_1_" d="M-3163.441-2185.32-3376.328-2062.4" transform="translate(3376.328 2438.235)" fill="none" stroke="#fff" stroke-linecap="round" stroke-width="28"/>
          <path id="Path_95906_1_" d="M-3346.332-2185.322l212.89,122.912" transform="translate(3563.139 2438.221)" fill="none" stroke="#fff" stroke-linecap="round" stroke-width="28"/>
        </g>
      </g>
    </g>
    <path id="Path_312" data-name="Path 312" d="M22.274,29.146" transform="translate(107.568 168.774)" fill="none" stroke="#fff" stroke-linecap="round" stroke-linejoin="round" stroke-width="28"/>
    <path id="Path_313" data-name="Path 313" d="M30.424,29.314" transform="translate(158.319 169.821)" fill="none" stroke="#fff" stroke-linecap="round" stroke-linejoin="round" stroke-width="28"/>
    <path id="Path_314" data-name="Path 314" d="M24.979,31.64" transform="translate(124.412 184.305)" fill="none" stroke="#fff" stroke-linecap="round" stroke-miterlimit="10" stroke-width="28"/>
    <path id="Line_294_1_" d="M27.462,55.8" transform="translate(139.874 334.728)" fill="none" stroke="#fff" stroke-linecap="round" stroke-linejoin="round" stroke-width="28"/>
    <g id="Group_199" data-name="Group 199" transform="translate(394.337 160.513)">
      <path id="Path_789_2_" d="M100.092,23.97,72.925,51.043" transform="translate(28.642 -23.97)" fill="rgba(0,0,0,0)" stroke="#fff" stroke-linecap="round" stroke-width="28"/>
      <path id="Path_788_2_" d="M62.377,23.97,91.531,53.023" transform="translate(-37.042 -23.97)" fill="rgba(0,0,0,0)" stroke="#fff" stroke-linecap="round" stroke-width="28"/>
      <path id="Path_786_1_" d="M99.229,27.932c18.726,0,30.65,11.383,30.65,31.38V78.378a1.389,1.389,0,0,1-1.243,1.525,2.021,2.021,0,0,1-.21.007l-62.016-.13a1.4,1.4,0,0,1-1.46-1.323,2.053,2.053,0,0,1,.007-.21V59.37c0-19.9,12.062-31.438,30.686-31.438" transform="translate(-21.013 0.702)" fill="rgba(0,0,0,0)" stroke="#fff" stroke-linecap="round" stroke-linejoin="round" stroke-width="28"/>
      <path id="Path_787_1_" d="M99.223,118.482c18.726,0,30.65-17.613,30.65-48.552v-29.5c0-1.482-.578-2.371-1.453-2.371l-62.016.2c-.875,0-1.453.889-1.453,2.371v29.2c0,30.788,12.062,48.646,30.687,48.646" transform="translate(-21.007 63.758)" fill="rgba(0,0,0,0)" stroke="#fff" stroke-linecap="round" stroke-linejoin="round" stroke-width="28"/>
      <path id="Path_784_2_" d="M73.409,40.236C58.08,51.373,54.264,72.259,64.888,86.873s31.655,17.446,46.984,6.309,21.84-56.307,21.84-56.307S88.731,29.1,73.409,40.236Z" transform="translate(-58.871 39.949)" fill="none" stroke="#fff" stroke-linecap="round" stroke-linejoin="round" stroke-width="28"/>
      <path id="Path_785_1_" d="M130.094,40.248c15.329,11.144,19.138,32.023,8.514,46.644s-31.662,17.439-46.991,6.295S69.791,36.865,69.791,36.865,114.765,29.1,130.094,40.248Z" transform="translate(9.126 39.952)" fill="none" stroke="#fff" stroke-linecap="round" stroke-linejoin="round" stroke-miterlimit="4.001" stroke-width="28"/>
    </g>
    <path id="Path_315" data-name="Path 315" d="M98.948,104.233C74.362,91.687,50.064,79.292,25.774,66.89,16.79,62.3,16.725,60.176,23.15,52.732c7.321-8.477,15.206-10.725,26.249-7.451,26.155,7.769,52.693,14.245,78.957,21.667,5.406,1.525,8.781.52,12.5-3.476,7.654-8.239,15.77-16.051,23.785-23.944a49.186,49.186,0,0,1,31.872-14.534c7.112-.5,9.829,2.226,9.316,9.287a49.539,49.539,0,0,1-15,32.385c-8.131,8.109-16.03,16.456-24.435,24.269-3.6,3.353-3.924,6.382-2.681,10.855,7.56,27.189,14.823,54.464,22.18,81.71,3.18,11.78-1.193,22.158-11.961,27.8-5.182,2.717-7.408-.9-9.424-4.885q-14.136-27.947-28.4-55.83c-3.194-6.273-6.432-12.532-10.024-19.513-13.262,11.838-25.953,23.019-38.4,34.481-1.351,1.243-1.843,4.091-1.735,6.136.448,8.253,1.012,16.514,2.06,24.7.846,6.577-1.221,11.665-6.006,15.958-4.849,4.344-8.528,3.6-10.92-2.645-3.78-9.851-7.48-19.745-10.848-29.747-1.612-4.784-4.343-7.654-9.164-9.28-10-3.368-19.875-7.09-29.718-10.87-6.555-2.515-7.249-6.244-2.464-11.339,4.026-4.293,8.81-6.418,14.787-5.681,3.411.419,7.018.043,10.263.983,14.873,4.315,25.006-1.409,33.527-13.594,6.013-8.6,13.826-15.936,20.807-23.857A8.625,8.625,0,0,0,98.948,104.233Z" transform="translate(67.195 142.565)" fill="#fff"/>
    <g id="Group_200" data-name="Group 200" transform="translate(5 50.711)">
      <path id="Path_316" data-name="Path 316" d="M185.556,11.579,46.621,87.854C20.994,101.926,5,129.28,5,159.056v260.4c0,29.769,15.994,57.131,41.621,71.2L295.387,627.224a72.389,72.389,0,0,0,69.67,0l44.49-24.486" transform="translate(-5 8.671)" fill="none" stroke="#fff" stroke-linecap="round" stroke-linejoin="round" stroke-width="28"/>
      <path id="Path_317" data-name="Path 317" d="M21.264,8.777l63.013,20.25L63.391,96.435" transform="translate(96.278 -8.777)" fill="none" stroke="#fff" stroke-linecap="round" stroke-linejoin="round" stroke-width="28"/>
    </g>
    <path id="Path_318" data-name="Path 318" d="M161.225,163.386H54.018L40.85,68.768H174.393Z" transform="translate(223.243 415.507)" fill="none" stroke="#fff" stroke-linecap="round" stroke-linejoin="round" stroke-miterlimit="10" stroke-width="28"/>
    <line id="Line_97" data-name="Line 97" x2="104.15" transform="translate(278.793 438.426)" fill="none" stroke="#fff" stroke-linecap="round" stroke-linejoin="round" stroke-miterlimit="10" stroke-width="28"/>
    <g id="_x2D_----------MODIFIER----------" transform="translate(167.336 383.297)">
      <path id="Line_294_7_" d="M27.462,54.8" transform="translate(-27.462 -54.796)" fill="none" stroke="#fff" stroke-linecap="round" stroke-linejoin="round" stroke-width="28"/>
    </g>
  </g>
</svg>
