<svg id="WORKERWELFARE_1_" data-name="WORKERWELFARE (1)" xmlns="http://www.w3.org/2000/svg" width="190.725" height="203.116" viewBox="0 0 190.725 203.116">
  <path id="Path_1172" data-name="Path 1172" d="M181.132,42.045l-71.09-39a23.908,23.908,0,0,0-23.358,0l-71.09,39A24.357,24.357,0,0,0,3,63.372v76.372a24.357,24.357,0,0,0,12.593,21.327l71.09,39a24.251,24.251,0,0,0,11.781,3.047,22.939,22.939,0,0,0,11.578-3.047l71.09-39a24.357,24.357,0,0,0,12.593-21.327V63.372A24.357,24.357,0,0,0,181.132,42.045Zm4.672,97.7a16.176,16.176,0,0,1-8.531,14.218l-71.09,39a16.429,16.429,0,0,1-15.64,0l-71.09-39a16.394,16.394,0,0,1-8.328-14.218V63.372a15.987,15.987,0,0,1,8.328-14.218l71.09-39a16.428,16.428,0,0,1,7.922-2.031,15.147,15.147,0,0,1,7.718,2.031l71.09,39A16.176,16.176,0,0,1,185.8,63.372Z" transform="translate(-3 0)" fill="#3e89ff"/>
  <path id="Path_1173" data-name="Path 1173" d="M55.061,64.578c9.14,0,9.953-5.687,9.953-6.3A4.033,4.033,0,0,0,57.3,56.25a21.156,21.156,0,0,1-2.234.2,5.717,5.717,0,0,1-2.234-.2,3.82,3.82,0,0,0-4.062-2.437,4.1,4.1,0,0,0-3.656,4.469C45.109,58.891,45.921,64.578,55.061,64.578Z" transform="translate(40.403 55.463)" fill="#3e89ff"/>
  <path id="Path_1174" data-name="Path 1174" d="M128.345,37.259,85.894,16.744l-.2-.2a15.16,15.16,0,0,0-11.171,0L30.85,37.259A15.459,15.459,0,0,0,21.1,51.68l2.844,47.326a11.5,11.5,0,0,0,.609,3.656c1.219,4.062,13.2,40.42,49.966,54.029A17.414,17.414,0,0,0,80,157.707a25.567,25.567,0,0,0,5.484-.812c36.764-13.609,48.748-49.966,49.966-54.029a12.5,12.5,0,0,0,.609-3.656L138.3,51.68A15.55,15.55,0,0,0,128.345,37.259Zm-72.309,98.1c-1.414-7.859,1.434-14.85,5.616-18.37l-3.485,21.189q-1.072-.862-2.09-1.749A4.14,4.14,0,0,0,56.036,135.364Zm11.984-78.2a14.663,14.663,0,0,1,9.75,1.016,4.3,4.3,0,0,0,3.859,0s4.875-2.437,9.75-1.016c4.349,1.267,8.2,6.908,7.974,15.031H60.169C59.917,64.075,63.73,58.416,68.02,57.165ZM59.655,80.32H99.541a20.717,20.717,0,1,1-39.886,0Zm44.113,55.247a3.891,3.891,0,0,0-.108,1.385c-.579.494-1.178.979-1.781,1.462l-3.5-21.268C102.58,120.8,105.324,127.938,103.768,135.567ZM83.716,114.346c-.018.032-.039.067-.057.1-1.625,3.047-2.437,4.062-3.656,4.062-1.194,0-2.2-1.375-3.766-4.1a25.794,25.794,0,0,0,7.479-.055Zm-.869,34.83a7.851,7.851,0,0,1-5.281,0,67.924,67.924,0,0,1-12.059-5.823,4.726,4.726,0,0,0,.278-.879l3.837-23.328c2.009,3.364,4.842,7.485,10.381,7.485,5.7,0,8.543-4.253,10.385-7.462l3.833,23.306a4.633,4.633,0,0,0,.355,1.046A67.482,67.482,0,0,1,82.847,149.176Zm45.092-50.17a3.457,3.457,0,0,1-.2,1.422,82.211,82.211,0,0,1-15.492,27.855c-.879-9.9-6.792-17.771-13.773-20.612A27.894,27.894,0,0,0,108.237,85.8a31.7,31.7,0,0,0-.459-5.484h10.209a4.062,4.062,0,1,0,0-8.125h-10.4c.357-12.313-6.284-20.76-13.775-22.952-5.89-1.828-11.171-.2-14.015.812-2.844-1.016-8.125-2.64-14.015-.812C58.366,51.6,51.772,59.923,52.142,72.2H43.036a4.062,4.062,0,0,0,0,8.125H51.5a29.338,29.338,0,0,0-.542,5.484,28.806,28.806,0,0,0,10.225,21.949c-7.284,3.079-12.429,11.064-13.422,20.167a85.756,85.756,0,0,1-15.286-27.492,3.457,3.457,0,0,1-.2-1.422L29.428,51.68A7.685,7.685,0,0,1,34.3,44.774L77.566,24.057a7.281,7.281,0,0,1,5.078,0l43.264,20.921h.2a7.472,7.472,0,0,1,4.062,6.5Z" transform="translate(15.664 15.957)" fill="#3e89ff"/>
</svg>
