<svg id="Your_Icon" xmlns="http://www.w3.org/2000/svg" width="190.929" height="203.146" viewBox="0 0 190.929 203.146">
  <path id="Path_1165" data-name="Path 1165" d="M50.284,83.089c-8.766,0-14.884-6.792-17.433-10.259A31.741,31.741,0,0,1,37.1,68.152,4.061,4.061,0,1,0,31.675,62.1a38.166,38.166,0,0,0-3.112,3.136,16.711,16.711,0,0,0-13.595-6.717,4.069,4.069,0,0,0-3.821,5.443,28.582,28.582,0,0,1,1.422,8.525,34.061,34.061,0,0,1-1.546,9.278,4.06,4.06,0,0,0,3.851,5.352A16.854,16.854,0,0,0,28.516,80.4c4.184,4.761,11.515,10.812,21.77,10.812a4.063,4.063,0,0,0,0-8.127ZM20.339,77.231a34.352,34.352,0,0,0,.353-4.743,32.88,32.88,0,0,0-.262-4.062A10.737,10.737,0,0,1,23.672,72.8,10.872,10.872,0,0,1,20.339,77.231Z" transform="translate(5.057 60.362)" fill="#fbb040"/>
  <g id="Group_364" data-name="Group 364" transform="translate(145.704 98.054)">
    <path id="Path_1166" data-name="Path 1166" d="M109.074,62.18c-.25-.357-.516-.754-.8-1.178-2.98-4.45-8.521-12.735-20.637-12.735a4.064,4.064,0,0,0-4.062,4.062,4.021,4.021,0,0,0,.567,2.037,19.912,19.912,0,0,0-3.977,12.014,22.443,22.443,0,0,0,2.9,10.079,17.141,17.141,0,0,1-3.146-.557,4.063,4.063,0,0,0-2.238,7.812,25.288,25.288,0,0,0,6.959.979c12.981,0,21.4-9.863,24.414-14.1A7.3,7.3,0,0,0,109.074,62.18ZM91.706,75.04c-1.814-2.466-3.416-6.028-3.416-8.657a11.635,11.635,0,0,1,4.318-9.142c4.464,1.643,6.963,5.368,8.915,8.279.195.295.382.573.563.839A27.367,27.367,0,0,1,91.706,75.04Z" transform="translate(-74.734 -48.267)" fill="#fbb040"/>
    <ellipse id="Ellipse_348" data-name="Ellipse 348" cx="1.783" cy="1.765" rx="1.783" ry="1.765" transform="translate(16.653 12.762)" fill="#fbb040"/>
  </g>
  <path id="Path_1167" data-name="Path 1167" d="M46.293,72.869" transform="translate(41.642 75.156)" fill="#fbb040"/>
  <path id="Path_1168" data-name="Path 1168" d="M87.524,43.326H34.913a4.062,4.062,0,0,1,0-8.125H87.524a4.062,4.062,0,0,1,0,8.125Z" transform="translate(25.719 36.314)" fill="#fbb040"/>
  <path id="Path_1169" data-name="Path 1169" d="M55.564,48.453H34.913a4.062,4.062,0,1,1,0-8.125H55.564a4.062,4.062,0,0,1,0,8.125Z" transform="translate(25.719 41.601)" fill="#fbb040"/>
  <g id="Group_365" data-name="Group 365" transform="translate(0 0)">
    <path id="Path_1170" data-name="Path 1170" d="M181.285,42.043,110.192,3.014a24.269,24.269,0,0,0-23.458,0L15.644,42.043A24.37,24.37,0,0,0,3,63.409v76.315a24.367,24.367,0,0,0,12.644,21.366l71.09,39.027a24.271,24.271,0,0,0,23.488-.016L152.8,176.278a4.061,4.061,0,0,0,1.562-5.529,3.912,3.912,0,0,0-.288-.41l0,0L134.8,140.375a51.685,51.685,0,0,0,5.366-5.2,55.2,55.2,0,0,0,9.485-14.3,56.6,56.6,0,0,0,2.1-42.212h3.924a9.736,9.736,0,0,0,17.606,0H185.8v59.369a4.062,4.062,0,1,0,8.125,0V63.409A24.374,24.374,0,0,0,181.285,42.043ZM19.554,49.166,90.644,10.14a16.179,16.179,0,0,1,15.64,0l71.09,39.027a16.217,16.217,0,0,1,5.9,5.576,12.794,12.794,0,0,1-7.075,2.7c-4.769,0-6.971-2.177-10.022-5.192-3.4-3.362-7.635-7.544-15.754-7.544-8.1,0-12.319,4.18-15.711,7.538-.3.3-.593.575-.89.861a56.545,56.545,0,0,0-70.451-.689c-.057-.057-.116-.11-.173-.167C59.8,48.886,55.572,44.7,47.462,44.7s-12.319,4.18-15.713,7.54c-3.047,3.016-5.251,5.2-10.022,5.2-2.844,0-5.929-1.854-7.722-3.2A16.2,16.2,0,0,1,19.554,49.166ZM48.1,70.542H40.42a9.737,9.737,0,0,0-17.606,0H11.125V63.411c0-.418.053-.827.083-1.239a20.4,20.4,0,0,0,10.519,3.392c8.112,0,12.339-4.184,15.737-7.546,3.043-3.012,5.242-5.19,10-5.19,4.684,0,6.9,2.106,9.859,5.037A56.911,56.911,0,0,0,48.1,70.542Zm58.18,122.452a16.185,16.185,0,0,1-15.638,0l-71.09-39.027a16.242,16.242,0,0,1-8.431-14.245V78.667H22.814a9.736,9.736,0,0,0,17.606,0h4.146a56.686,56.686,0,0,0,76.469,70.353l16.9,26.267Zm35.986-75.518a47.208,47.208,0,0,1-8.149,12.27,44.155,44.155,0,0,1-5.025,4.836,48.884,48.884,0,0,1-10.743,6.752,48.543,48.543,0,0,1-44.31-2.051H90.049a4.062,4.062,0,0,0,0-8.125h-23.8a4.033,4.033,0,0,0-2.112.607,48.615,48.615,0,0,1-4.19-4.694,4.063,4.063,0,0,0,1.714.4,20.829,20.829,0,0,0,17.572-9.4c5.047,6.1,14.582,14.7,28.231,14.7,16.318,0,26.949-12.473,30.764-17.834a8.272,8.272,0,0,0,.028-9.528c-3.77-5.364-14.3-17.84-30.626-17.84-13.649,0-23.253,8.6-28.347,14.7a20.646,20.646,0,0,0-17.5-9.4,4.065,4.065,0,0,0-3.819,5.454,37.552,37.552,0,0,1,1.905,11.425,45.329,45.329,0,0,1-2.06,12.378,4.049,4.049,0,0,0-.169,1.771A48.544,48.544,0,0,1,131,61.394c.075.075.148.15.23.217a48.478,48.478,0,0,1,11.041,55.865ZM67.288,102.161a14.658,14.658,0,0,1,7.026,7.984,14.927,14.927,0,0,1-7.174,8.039,46.482,46.482,0,0,0,.851-8.448A43.084,43.084,0,0,0,67.288,102.161Zm48.981,20.758c-2.732-3.376-5.277-8.708-5.277-12.758a16.2,16.2,0,0,1,5.754-12.607c7.5,3.122,12.632,9.388,14.858,12.666C129.311,113.448,124,119.853,116.269,122.92Zm-8.7,1.716c-.037,0-.073.006-.112.006-12.486,0-20.933-10.079-24.018-14.464,3.108-4.365,11.6-14.387,24.01-14.482a24.749,24.749,0,0,0-4.586,14.468C102.868,114.921,104.893,120.277,107.574,124.636Zm65.712-54.094a9.737,9.737,0,0,0-17.606,0h-7.465a56.989,56.989,0,0,0-8.46-11.878c.219-.215.453-.433.67-.648,3.043-3.012,5.242-5.188,10-5.188,4.781,0,6.987,2.181,10.042,5.2,3.4,3.358,7.627,7.536,15.731,7.536a19.38,19.38,0,0,0,9.567-2.76c.008.2.041.4.041.607v7.131Z" transform="translate(-3 0.008)" fill="#fbb040"/>
    <path id="Path_1171" data-name="Path 1171" d="M61.073,50.805a2.3,2.3,0,1,0,2.32,2.3A2.308,2.308,0,0,0,61.073,50.805Z" transform="translate(54.49 52.404)" fill="#fbb040"/>
  </g>
</svg>
