<svg xmlns="http://www.w3.org/2000/svg" xmlns:xlink="http://www.w3.org/1999/xlink" width="1920" height="1080" viewBox="0 0 1920 1080">
  <defs>
    <clipPath id="clip-path">
      <rect id="Rectangle_2143" data-name="Rectangle 2143" width="2048.317" height="1114.099" transform="translate(0 0.001)" fill="none"/>
    </clipPath>
    <clipPath id="clip-path-2">
      <rect id="Rectangle_1138" data-name="Rectangle 1138" width="497.915" height="1682.837" fill="none"/>
    </clipPath>
    <clipPath id="clip-Certifications_1">
      <rect width="1920" height="1080"/>
    </clipPath>
  </defs>
  <g id="Certifications_1" data-name="Certifications – 1" clip-path="url(#clip-Certifications_1)">
    <rect width="1920" height="1080" fill="#fff"/>
    <g id="Background">
      <g id="Group_633" data-name="Group 633" transform="translate(-44 -17.001)">
        <rect id="Rectangle_2124" data-name="Rectangle 2124" width="1953" height="372.54" transform="translate(27.093 0.001)" fill="#4fd3ff"/>
        <g id="Group_632" data-name="Group 632">
          <g id="Group_631" data-name="Group 631" clip-path="url(#clip-path)">
            <path id="Path_35400" data-name="Path 35400" d="M1407.545,89.385c0-.043,0-.085,0-.128a23.143,23.143,0,0,0-22.819-23.139,36.249,36.249,0,0,0-71.081,10.037c0,.565.017,1.126.043,1.684a23.146,23.146,0,0,0-43.281,11.418h-2.4a15.5,15.5,0,0,0-15.5,15.5h0a15.5,15.5,0,0,0,15.5,15.5h137.575a15.5,15.5,0,0,0,15.5-15.5h0a15.5,15.5,0,0,0-13.542-15.376" fill="#8fdafa"/>
            <path id="Path_35401" data-name="Path 35401" d="M1576.854,108.934c0-.019,0-.038,0-.057A10.388,10.388,0,0,1,1587.1,98.49,16.271,16.271,0,0,1,1619,103c0,.254-.007.506-.019.756a10.39,10.39,0,0,1,19.428,5.126h1.078a6.959,6.959,0,1,1,0,13.919h-61.754a6.959,6.959,0,0,1-.881-13.862" fill="#8fdafa"/>
            <path id="Path_35402" data-name="Path 35402" d="M430.165,168.581H277.387s60-69.945,152.778,0" fill="#63c3ef"/>
            <path id="Path_35403" data-name="Path 35403" d="M637.723,211.841q1.5,1.83,3.01,3.73h-183.8s1.49-2.9,4.38-7.45h-54.33q2.1,1.861,4.22,3.79h-96.51q6.645,3.765,13.35,7.81H27.083v-15.93h.01v-46.94c50.25-10.83,113.42-12.27,187.05,10.71a51.119,51.119,0,0,0,34.62-1.49c21.62-8.84,48.6-12.91,80.07-3.91a78.879,78.879,0,0,0,48.56-1.72c27.72-10.04,63.57-11.84,105.86,10.34a12.381,12.381,0,0,0,13.07-.97c18.12-13.19,41.99-21.85,70.59-12.73a48.374,48.374,0,0,0,42.31-6.36c57.24-39.94,152.33-65.27,272.96,53.07q3.99,3.915,8.03,8.05Z" fill="#5bbcea"/>
            <rect id="Rectangle_2125" data-name="Rectangle 2125" width="1953" height="480.35" transform="translate(27.083 203.792)" fill="#3e89ff"/>
            <path id="Path_35404" data-name="Path 35404" d="M365.1,97.952c0-.031,0-.061,0-.092a16.723,16.723,0,0,0-16.488-16.72,26.192,26.192,0,0,0-51.361,7.252c0,.409.013.814.031,1.218a16.724,16.724,0,0,0-31.273,8.25h-1.736a11.2,11.2,0,1,0,0,22.406H363.68A11.2,11.2,0,0,0,365.1,97.952" fill="#8fdafa"/>
            <path id="Path_35405" data-name="Path 35405" d="M892.7,314.782H560.788a13.894,13.894,0,0,1,0-27.788H892.7a13.894,13.894,0,1,1,0,27.788" fill="#70a8ff"/>
            <path id="Path_35406" data-name="Path 35406" d="M1020.746,455H688.838a13.894,13.894,0,0,1,0-27.788h331.908a13.894,13.894,0,1,1,0,27.788" fill="#70a8ff"/>
            <path id="Path_35407" data-name="Path 35407" d="M1252,375.432H920.1a13.894,13.894,0,0,1,0-27.788H1252a13.894,13.894,0,0,1,0,27.788" fill="#70a8ff"/>
            <path id="Path_35408" data-name="Path 35408" d="M1515.748,468.893H1183.84a13.894,13.894,0,0,1,0-27.787h331.908a13.894,13.894,0,1,1,0,27.787" fill="#70a8ff"/>
            <path id="Path_35409" data-name="Path 35409" d="M1636.108,311.613H1304.2a13.894,13.894,0,0,1,0-27.788h331.908a13.894,13.894,0,0,1,0,27.788" fill="#70a8ff"/>
            <rect id="Rectangle_2126" data-name="Rectangle 2126" width="1956.964" height="454.453" transform="translate(26.705 617.456)" fill="#4fd3ff"/>
            <path id="Path_35410" data-name="Path 35410" d="M25.033,562.339l-7.158,32.949H1972.052l6.281-32.949Z" fill="#7db775"/>
            <path id="Path_35411" data-name="Path 35411" d="M25.033,578.814l-7.158,16.474H1972.052l6.281-16.474Z" fill="#5e9b53"/>
            <path id="Path_35412" data-name="Path 35412" d="M12.583,748.455,5.336,781.4H1984l6.36-32.949Z" fill="#a76e4d"/>
            <path id="Path_35413" data-name="Path 35413" d="M7.181,590.61,0,623.559H1960.467l6.3-32.949Z" fill="#a76e4d"/>
            <path id="Path_35414" data-name="Path 35414" d="M1116.9,971.556H808.513a11.5,11.5,0,0,1,0-23.006H1116.9a11.5,11.5,0,1,1,0,23.006" fill="#5cb2db"/>
            <path id="Path_35415" data-name="Path 35415" d="M15.746,906.264,8.512,939.213H1983.631l6.348-32.949Z" fill="#a76e4d"/>
            <path id="Path_35416" data-name="Path 35416" d="M16.427,1081.151,9.193,1114.1H1984.312l6.348-32.949Z" fill="#5e9b53"/>
            <path id="Path_35417" data-name="Path 35417" d="M255.591,868.8,336.8,728.093l16.31,9.711L271.9,878.515Z" fill="#a76e4d"/>
            <path id="Path_35418" data-name="Path 35418" d="M370.832,1034.064l81.21-140.711,16.31,9.711-81.21,140.711Z" fill="#a76e4d"/>
            <path id="Path_35419" data-name="Path 35419" d="M1076.766,1034.243l81.21-140.711,16.31,9.711-81.21,140.711Z" fill="#a76e4d"/>
            <path id="Path_35420" data-name="Path 35420" d="M1681.978,1050.792l81.21-140.711,16.31,9.711-81.21,140.711Z" fill="#a76e4d"/>
            <path id="Path_35421" data-name="Path 35421" d="M1235.469,716.382,1304.43,596.86l16.31,9.711-68.961,119.522Z" fill="#a76e4d"/>
            <path id="Path_35422" data-name="Path 35422" d="M653.512,714.273l68.961-119.522,16.31,9.711L669.822,723.984Z" fill="#a76e4d"/>
            <path id="Path_35423" data-name="Path 35423" d="M1507.127,879.205l81.21-140.711,16.31,9.711-81.21,140.711Z" fill="#a76e4d"/>
            <path id="Path_35424" data-name="Path 35424" d="M866,872.611,947.209,731.9l16.31,9.711-81.21,140.711Z" fill="#a76e4d"/>
            <path id="Path_35425" data-name="Path 35425" d="M25.088,866.022l-7.239,40H1994.3l6.353-40Z" fill="#7db775"/>
            <path id="Path_35426" data-name="Path 35426" d="M25.088,896.76l-7.239,9.262H1994.3l6.353-9.262Z" fill="#5e9b53"/>
            <path id="Path_35427" data-name="Path 35427" d="M22.535,708.455l-7.239,40H1991.752l6.352-40Z" fill="#7db775"/>
            <path id="Path_35428" data-name="Path 35428" d="M22.535,738.334,15.3,748.455H1991.752l6.352-10.121Z" fill="#5e9b53"/>
            <path id="Path_35429" data-name="Path 35429" d="M20.4,1024.188l-7.239,63.121H1989.62l6.353-63.121Z" fill="#7db775"/>
            <path id="Path_35430" data-name="Path 35430" d="M466.505,906.264l1.847,32.949-44.633,84.975H398.446Z" fill="#965b39"/>
            <path id="Path_35431" data-name="Path 35431" d="M347.082,748.1l1.847,32.949L304.3,866.022H279.023Z" fill="#965b39"/>
            <path id="Path_35432" data-name="Path 35432" d="M959.736,748.1l1.847,32.949L916.95,866.022H891.677Z" fill="#965b39"/>
            <path id="Path_35433" data-name="Path 35433" d="M746.823,590.531l1.847,32.949-44.633,84.975H678.764Z" fill="#965b39"/>
            <path id="Path_35434" data-name="Path 35434" d="M1328.781,592.641l1.847,32.949-44.633,84.975h-25.273Z" fill="#965b39"/>
            <path id="Path_35435" data-name="Path 35435" d="M1604.652,748.1l1.847,32.949-44.633,84.975h-25.273Z" fill="#965b39"/>
            <path id="Path_35436" data-name="Path 35436" d="M1172.439,906.264l1.847,32.949-44.633,84.975H1104.38Z" fill="#965b39"/>
            <path id="Path_35437" data-name="Path 35437" d="M1787.161,906.289l1.847,32.949-44.633,84.975H1719.1Z" fill="#965b39"/>
            <path id="Path_35438" data-name="Path 35438" d="M811.327,980.246H526.964a11.5,11.5,0,0,1,0-23.006H811.327a11.5,11.5,0,0,1,0,23.006" fill="#5cb2db"/>
            <path id="Path_35439" data-name="Path 35439" d="M337.426,968.552H38.208a11.5,11.5,0,1,1,0-23.006H337.426a11.5,11.5,0,0,1,0,23.006" fill="#5cb2db"/>
            <path id="Path_35440" data-name="Path 35440" d="M324.322,957.049H31.477a11.5,11.5,0,1,1,0-23.006H324.322a11.5,11.5,0,1,1,0,23.006" fill="#986a4d"/>
            <path id="Path_35441" data-name="Path 35441" d="M1490.4,962.978H1181.973a11.5,11.5,0,1,1,0-23.006H1490.4a11.5,11.5,0,0,1,0,23.006" fill="#5cb2db"/>
            <path id="Path_35442" data-name="Path 35442" d="M1702.8,983.059H1394.368a11.5,11.5,0,1,1,0-23.006H1702.8a11.5,11.5,0,0,1,0,23.006" fill="#5cb2db"/>
            <path id="Path_35443" data-name="Path 35443" d="M1966.83,962.978H1829.345a11.5,11.5,0,0,1,0-23.006H1966.83a11.5,11.5,0,1,1,0,23.006" fill="#5cb2db"/>
            <path id="Path_35444" data-name="Path 35444" d="M202.607,804.41H49.818a11.5,11.5,0,1,1,0-23.006H202.607a11.5,11.5,0,1,1,0,23.006" fill="#5cb2db"/>
            <path id="Path_35445" data-name="Path 35445" d="M1477.3,951.475H1184.451a11.5,11.5,0,1,1,0-23.006H1477.3a11.5,11.5,0,0,1,0,23.006" fill="#986a4d"/>
            <path id="Path_35446" data-name="Path 35446" d="M1739.345,958.893h-291.2a12.327,12.327,0,0,1-12.327-12.327V944.8a12.327,12.327,0,0,1,12.327-12.327h291.2a12.327,12.327,0,0,1,12.327,12.327v1.767a12.327,12.327,0,0,1-12.327,12.327" fill="#986a4d"/>
            <path id="Path_35447" data-name="Path 35447" d="M1125.918,954.56H820.524a11.5,11.5,0,0,1,0-23.006h305.394a11.5,11.5,0,1,1,0,23.006" fill="#a76e4d"/>
            <path id="Path_35448" data-name="Path 35448" d="M1254.221,804.41H969.858a11.5,11.5,0,0,1,0-23.006h284.363a11.5,11.5,0,1,1,0,23.006" fill="#5cb2db"/>
            <path id="Path_35449" data-name="Path 35449" d="M1532.923,817.718h-376.96a11.5,11.5,0,1,1,0-23.006h376.96a11.5,11.5,0,1,1,0,23.006" fill="#5cb2db"/>
            <path id="Path_35450" data-name="Path 35450" d="M642.857,804.41H358.494a11.5,11.5,0,0,1,0-23.006H642.857a11.5,11.5,0,0,1,0,23.006" fill="#5cb2db"/>
            <path id="Path_35451" data-name="Path 35451" d="M824.116,962.219H539.753a11.5,11.5,0,0,1,0-23.006H824.116a11.5,11.5,0,0,1,0,23.006" fill="#986a4d"/>
            <path id="Path_35452" data-name="Path 35452" d="M657.643,788.541H373.28a11.5,11.5,0,0,1,0-23.006H657.643a11.5,11.5,0,0,1,0,23.006" fill="#986a4d"/>
            <path id="Path_35453" data-name="Path 35453" d="M886.766,819.756H602.4a11.5,11.5,0,0,1,0-23.006H886.766a11.5,11.5,0,0,1,0,23.006" fill="#5cb2db"/>
            <path id="Path_35454" data-name="Path 35454" d="M910.715,800.044H601.706a11.387,11.387,0,0,1-11.387-11.387v-.232a11.387,11.387,0,0,1,11.387-11.387H910.715A11.387,11.387,0,0,1,922.1,788.425v.232a11.387,11.387,0,0,1-11.387,11.387" fill="#986a4d"/>
            <path id="Path_35455" data-name="Path 35455" d="M191.96,792.907H62.586a11.5,11.5,0,1,1,0-23.006H191.96a11.5,11.5,0,0,1,0,23.006" fill="#986a4d"/>
            <path id="Path_35456" data-name="Path 35456" d="M1020.363,635.049H759.7a11.032,11.032,0,0,1-11.032-11.032v-.942A11.032,11.032,0,0,1,759.7,612.043h260.661a11.032,11.032,0,0,1,11.032,11.032v.942a11.032,11.032,0,0,1-11.032,11.032" fill="#5cb2db"/>
            <path id="Path_35457" data-name="Path 35457" d="M1035.708,626.753H760.831a11.317,11.317,0,0,1-11.317-11.317v-.372a11.317,11.317,0,0,1,11.317-11.317h274.877a11.317,11.317,0,0,1,11.317,11.317v.372a11.317,11.317,0,0,1-11.317,11.317" fill="#986a4d"/>
            <path id="Path_35458" data-name="Path 35458" d="M1263.8,650.4H979.439a11.5,11.5,0,1,1,0-23.006H1263.8a11.5,11.5,0,1,1,0,23.006" fill="#5cb2db"/>
            <path id="Path_35459" data-name="Path 35459" d="M1278.586,638.256H986.251a11.087,11.087,0,0,1-11.087-11.086v-.834a11.087,11.087,0,0,1,11.087-11.086h292.335a11.086,11.086,0,0,1,11.086,11.086v.834a11.086,11.086,0,0,1-11.086,11.086" fill="#986a4d"/>
            <path id="Path_35460" data-name="Path 35460" d="M1279.25,792.907H994.887a11.5,11.5,0,1,1,0-23.006H1279.25a11.5,11.5,0,1,1,0,23.006" fill="#986a4d"/>
            <path id="Path_35461" data-name="Path 35461" d="M1522.173,802.055H1162.009a11.5,11.5,0,1,1,0-23.006h360.164a11.5,11.5,0,1,1,0,23.006" fill="#986a4d"/>
            <path id="Path_35462" data-name="Path 35462" d="M654.646,650.4H352.8a11.217,11.217,0,0,1-11.216-11.217v-.572A11.217,11.217,0,0,1,352.8,627.389H654.646a11.217,11.217,0,0,1,11.217,11.217v.572A11.217,11.217,0,0,1,654.646,650.4" fill="#5cb2db"/>
            <path id="Path_35463" data-name="Path 35463" d="M643.5,634.733H359.133a11.5,11.5,0,0,1,0-23.006H643.5a11.5,11.5,0,1,1,0,23.006" fill="#986a4d"/>
            <path id="Path_35464" data-name="Path 35464" d="M359.364,661.9H26.8a11.5,11.5,0,1,1,0-23.006H359.364a11.5,11.5,0,0,1,0,23.006" fill="#5cb2db"/>
            <path id="Path_35465" data-name="Path 35465" d="M347.451,646.236H33.429a11.5,11.5,0,0,1,0-23.006H347.451a11.5,11.5,0,1,1,0,23.006" fill="#986a4d"/>
            <path id="Path_35466" data-name="Path 35466" d="M482.442,607.677a4.782,4.782,0,1,1-4.782-4.782,4.782,4.782,0,0,1,4.782,4.782" fill="#b2866d"/>
            <path id="Path_35467" data-name="Path 35467" d="M624.449,598.206c0,1.312-1.517,2.263-2.829,2.263a2.376,2.376,0,0,1-2.377-2.376c0-1.313,1.064-2.829,2.377-2.829a3.341,3.341,0,0,1,2.829,2.942" fill="#b2866d"/>
            <path id="Path_35468" data-name="Path 35468" d="M434.981,625.45c0,1.045-1.613,1.892-3.6,1.892s-3.6-.847-3.6-1.892,1.614-1.892,3.6-1.892,3.6.847,3.6,1.892" fill="#7f5032"/>
            <path id="Path_35469" data-name="Path 35469" d="M603.075,617.721c.472.932-.585,2.416-2.361,3.315s-3.6.871-4.069-.061.585-2.417,2.361-3.315,3.6-.871,4.069.061" fill="#965b39"/>
            <path id="Path_35470" data-name="Path 35470" d="M570.344,616.425a5.4,5.4,0,0,1-10.8,0c0-2.983,3.735-7.123,6.718-7.123s4.087,4.14,4.087,7.123" fill="#965b39"/>
            <path id="Path_35471" data-name="Path 35471" d="M285.787,625.45a4.783,4.783,0,1,1,4.782,4.782,4.782,4.782,0,0,1-4.782-4.782" fill="#b2866d"/>
            <path id="Path_35472" data-name="Path 35472" d="M74.038,622.891c0-1.312,1.517-2.263,2.829-2.263A2.377,2.377,0,0,1,79.244,623c0,1.313-1.064,2.829-2.377,2.829a3.341,3.341,0,0,1-2.829-2.942" fill="#b2866d"/>
            <path id="Path_35473" data-name="Path 35473" d="M337.98,609.411c0-1.045,1.613-1.892,3.6-1.892s3.6.847,3.6,1.892-1.614,1.892-3.6,1.892-3.6-.847-3.6-1.892" fill="#7f5032"/>
            <path id="Path_35474" data-name="Path 35474" d="M147.418,611.038c-.472-.932.585-2.416,2.361-3.315s3.6-.871,4.069.061-.585,2.417-2.361,3.315-3.6.871-4.069-.061" fill="#965b39"/>
            <path id="Path_35475" data-name="Path 35475" d="M206.744,611.182a5.4,5.4,0,0,1,10.8,0c0,2.983-3.735,7.123-6.718,7.123s-4.086-4.14-4.086-7.123" fill="#965b39"/>
            <path id="Path_35476" data-name="Path 35476" d="M710.727,602.272a6.93,6.93,0,0,1-6.93,6.93c-3.828,0-8.221-3.277-8.221-7.1s4.393-8.2,8.221-8.2,6.93,4.545,6.93,8.373" fill="#965b39"/>
            <path id="Path_35477" data-name="Path 35477" d="M1005.085,614.528a4.783,4.783,0,1,1,4.782,4.782,4.782,4.782,0,0,1-4.782-4.782" fill="#b2866d"/>
            <path id="Path_35478" data-name="Path 35478" d="M793.336,611.968c0-1.312,1.517-2.263,2.829-2.263a2.376,2.376,0,0,1,2.377,2.376c0,1.313-1.064,2.829-2.377,2.829a3.341,3.341,0,0,1-2.829-2.942" fill="#b2866d"/>
            <path id="Path_35479" data-name="Path 35479" d="M1057.277,598.489c0-1.045,1.613-1.892,3.6-1.892s3.6.847,3.6,1.892-1.614,1.892-3.6,1.892-3.6-.847-3.6-1.892" fill="#7f5032"/>
            <path id="Path_35480" data-name="Path 35480" d="M866.716,600.116c-.472-.932.585-2.416,2.361-3.315s3.6-.871,4.069.061-.585,2.417-2.361,3.315-3.6.871-4.069-.061" fill="#965b39"/>
            <path id="Path_35481" data-name="Path 35481" d="M926.042,600.26a5.4,5.4,0,1,1,10.8,0c0,2.983-3.735,7.123-6.718,7.123s-4.086-4.14-4.086-7.123" fill="#965b39"/>
            <path id="Path_35482" data-name="Path 35482" d="M1351.48,614.528a4.783,4.783,0,1,1,4.782,4.782,4.782,4.782,0,0,1-4.782-4.782" fill="#b2866d"/>
            <path id="Path_35483" data-name="Path 35483" d="M1101.051,612.308c0-1.312,1.517-2.263,2.829-2.263a2.376,2.376,0,0,1,2.377,2.376c0,1.313-1.064,2.829-2.377,2.829a3.341,3.341,0,0,1-2.829-2.942" fill="#b2866d"/>
            <path id="Path_35484" data-name="Path 35484" d="M1212.825,607.677c0-1.045,1.613-1.892,3.6-1.892s3.6.847,3.6,1.892-1.614,1.892-3.6,1.892-3.6-.847-3.6-1.892" fill="#7f5032"/>
            <path id="Path_35485" data-name="Path 35485" d="M1156.844,619.31c-.472-.931.585-2.415,2.361-3.314s3.6-.871,4.069.06-.585,2.418-2.361,3.315-3.6.871-4.069-.061" fill="#965b39"/>
            <path id="Path_35486" data-name="Path 35486" d="M1270.9,608.844a5.4,5.4,0,1,1,10.8,0c0,2.983-3.735,7.123-6.718,7.123s-4.086-4.14-4.086-7.123" fill="#965b39"/>
            <path id="Path_35487" data-name="Path 35487" d="M562.287,771.192a4.783,4.783,0,1,1-4.782-4.782,4.782,4.782,0,0,1,4.782,4.782" fill="#b2866d"/>
            <path id="Path_35488" data-name="Path 35488" d="M653.261,774.488c0,1.312-1.517,2.263-2.829,2.263a2.376,2.376,0,0,1-2.377-2.376c0-1.313,1.064-2.829,2.377-2.829a3.341,3.341,0,0,1,2.829,2.942" fill="#b2866d"/>
            <path id="Path_35489" data-name="Path 35489" d="M402.05,762.633c0,1.045-1.613,1.892-3.6,1.892s-3.6-.847-3.6-1.892,1.614-1.892,3.6-1.892,3.6.847,3.6,1.892" fill="#7f5032"/>
            <path id="Path_35490" data-name="Path 35490" d="M614.889,785.148c.472.932-.585,2.416-2.361,3.315s-3.6.871-4.069-.061.585-2.417,2.361-3.315,3.6-.871,4.069.061" fill="#965b39"/>
            <path id="Path_35491" data-name="Path 35491" d="M473.754,772.407a5.4,5.4,0,1,1-10.8,0c0-2.983,3.735-7.123,6.718-7.123s4.086,4.14,4.086,7.123" fill="#965b39"/>
            <path id="Path_35492" data-name="Path 35492" d="M259.418,762.633a4.783,4.783,0,1,1,4.782,4.782,4.782,4.782,0,0,1-4.782-4.782" fill="#b2866d"/>
            <path id="Path_35493" data-name="Path 35493" d="M69.8,773.481c0-1.312,1.517-2.263,2.829-2.263A2.376,2.376,0,0,1,75,773.594c0,1.313-1.064,2.829-2.377,2.829a3.341,3.341,0,0,1-2.829-2.942" fill="#b2866d"/>
            <path id="Path_35494" data-name="Path 35494" d="M353.111,767.415c0-1.045,1.613-1.892,3.6-1.892s3.6.847,3.6,1.892-1.614,1.892-3.6,1.892-3.6-.847-3.6-1.892" fill="#7f5032"/>
            <path id="Path_35495" data-name="Path 35495" d="M130.65,761.628c-.472-.932.585-2.416,2.361-3.315s3.6-.871,4.069.061-.585,2.417-2.361,3.315-3.6.871-4.069-.061" fill="#965b39"/>
            <path id="Path_35496" data-name="Path 35496" d="M190.44,766.555a5.4,5.4,0,0,1,10.8,0c0,2.983-3.735,7.123-6.718,7.123s-4.086-4.14-4.086-7.123" fill="#965b39"/>
            <path id="Path_35497" data-name="Path 35497" d="M1048.253,776.041a4.782,4.782,0,1,1,4.782,4.782,4.782,4.782,0,0,1-4.782-4.782" fill="#b2866d"/>
            <path id="Path_35498" data-name="Path 35498" d="M789.094,762.559c0-1.312,1.517-2.263,2.829-2.263a2.376,2.376,0,0,1,2.377,2.376c0,1.313-1.064,2.829-2.377,2.829a3.341,3.341,0,0,1-2.829-2.942" fill="#b2866d"/>
            <path id="Path_35499" data-name="Path 35499" d="M1014.65,758.267c0-1.045,1.613-1.892,3.6-1.892s3.6.847,3.6,1.892-1.614,1.892-3.6,1.892-3.6-.847-3.6-1.892" fill="#7f5032"/>
            <path id="Path_35500" data-name="Path 35500" d="M886.817,761.519c-.472-.932.585-2.416,2.361-3.315s3.6-.871,4.069.061-.585,2.417-2.361,3.315-3.6.871-4.069-.061" fill="#965b39"/>
            <path id="Path_35501" data-name="Path 35501" d="M827.707,776.177a5.4,5.4,0,0,1,10.8,0c0,2.983-3.735,7.123-6.718,7.123s-4.086-4.14-4.086-7.123" fill="#965b39"/>
            <path id="Path_35502" data-name="Path 35502" d="M713.717,764.069a5.4,5.4,0,0,1,10.8,0c0,2.983-3.735,7.123-6.718,7.123s-4.086-4.14-4.086-7.123" fill="#965b39"/>
            <path id="Path_35503" data-name="Path 35503" d="M1391.447,777.038a4.782,4.782,0,1,1,4.782,4.782,4.782,4.782,0,0,1-4.782-4.782" fill="#b2866d"/>
            <path id="Path_35504" data-name="Path 35504" d="M1098.448,775.7c0-1.312,1.517-2.263,2.829-2.263a2.377,2.377,0,0,1,2.377,2.376c0,1.313-1.064,2.829-2.377,2.829a3.341,3.341,0,0,1-2.829-2.942" fill="#b2866d"/>
            <path id="Path_35505" data-name="Path 35505" d="M1231.866,756.376c0-1.045,1.613-1.892,3.6-1.892s3.6.847,3.6,1.892-1.614,1.892-3.6,1.892-3.6-.847-3.6-1.892" fill="#7f5032"/>
            <path id="Path_35506" data-name="Path 35506" d="M1152.6,769.9c-.472-.932.585-2.416,2.361-3.315s3.6-.871,4.069.061-.585,2.417-2.361,3.315-3.6.871-4.069-.061" fill="#965b39"/>
            <path id="Path_35507" data-name="Path 35507" d="M1276.306,789.028a5.4,5.4,0,1,1,10.8,0c0,2.983-3.735,7.123-6.718,7.123s-4.086-4.14-4.086-7.123" fill="#965b39"/>
            <path id="Path_35508" data-name="Path 35508" d="M887.261,932.781a4.783,4.783,0,1,1,4.782,4.782,4.782,4.782,0,0,1-4.782-4.782" fill="#b2866d"/>
            <path id="Path_35509" data-name="Path 35509" d="M716.516,924.99c0-1.312,1.517-2.263,2.829-2.263a2.377,2.377,0,0,1,2.377,2.376c0,1.313-1.064,2.829-2.377,2.829a3.341,3.341,0,0,1-2.829-2.942" fill="#b2866d"/>
            <path id="Path_35510" data-name="Path 35510" d="M1047.5,926.164c0-1.045,1.613-1.892,3.6-1.892s3.6.847,3.6,1.892-1.614,1.892-3.6,1.892-3.6-.847-3.6-1.892" fill="#7f5032"/>
            <path id="Path_35511" data-name="Path 35511" d="M824.492,930.558c-.472-.932.585-2.416,2.361-3.315s3.6-.871,4.069.061-.585,2.417-2.361,3.315-3.6.871-4.069-.061" fill="#965b39"/>
            <path id="Path_35512" data-name="Path 35512" d="M975.795,931.566a5.4,5.4,0,0,1,10.8,0c0,2.983-3.735,7.123-6.718,7.123s-4.086-4.14-4.086-7.123" fill="#965b39"/>
            <path id="Path_35513" data-name="Path 35513" d="M1857.789,919.764c0,1.312-1.517,2.263-2.829,2.263a2.376,2.376,0,0,1-2.377-2.376c0-1.313,1.064-2.829,2.377-2.829a3.341,3.341,0,0,1,2.829,2.942" fill="#b2866d"/>
            <path id="Path_35514" data-name="Path 35514" d="M1125.918,931.554c0,1.045-1.613,1.892-3.6,1.892s-3.6-.847-3.6-1.892,1.614-1.892,3.6-1.892,3.6.847,3.6,1.892" fill="#7f5032"/>
            <path id="Path_35515" data-name="Path 35515" d="M1926.119,922.645c.472.932-.585,2.416-2.361,3.315s-3.6.871-4.069-.061.585-2.417,2.361-3.315,3.6-.871,4.069.061" fill="#965b39"/>
            <path id="Path_35516" data-name="Path 35516" d="M1240.871,926.548a5.4,5.4,0,1,1-10.8,0c0-2.983,3.735-7.123,6.718-7.123s4.086,4.14,4.086,7.123" fill="#965b39"/>
            <path id="Path_35517" data-name="Path 35517" d="M401.3,927.932a4.783,4.783,0,1,1-4.782-4.782,4.782,4.782,0,0,1,4.782,4.782" fill="#b2866d"/>
            <path id="Path_35518" data-name="Path 35518" d="M681.367,943.4c0,1.312-1.517,2.263-2.829,2.263a2.376,2.376,0,0,1-2.377-2.376c0-1.313,1.064-2.829,2.377-2.829a3.341,3.341,0,0,1,2.829,2.942" fill="#b2866d"/>
            <path id="Path_35519" data-name="Path 35519" d="M496.6,930.823c0,1.045-1.613,1.892-3.6,1.892s-3.6-.847-3.6-1.892,1.614-1.892,3.6-1.892,3.6.847,3.6,1.892" fill="#7f5032"/>
            <path id="Path_35520" data-name="Path 35520" d="M560.72,919.045c.472.932-.585,2.416-2.361,3.315s-3.6.871-4.069-.061.585-2.417,2.361-3.315,3.6-.871,4.069.061" fill="#965b39"/>
            <path id="Path_35521" data-name="Path 35521" d="M607.543,929.792a5.4,5.4,0,0,1-10.8,0c0-2.983,3.735-7.123,6.718-7.123s4.086,4.14,4.086,7.123" fill="#965b39"/>
            <path id="Path_35522" data-name="Path 35522" d="M794.5,951.576a5.4,5.4,0,1,1-10.8,0c0-2.983,3.735-7.123,6.718-7.123s4.086,4.14,4.086,7.123" fill="#965b39"/>
            <path id="Path_35523" data-name="Path 35523" d="M58.1,926.935a4.783,4.783,0,1,1-4.783-4.782,4.783,4.783,0,0,1,4.783,4.782" fill="#b2866d"/>
            <path id="Path_35524" data-name="Path 35524" d="M351.1,928.272c0,1.312-1.517,2.263-2.829,2.263a2.376,2.376,0,0,1-2.377-2.376c0-1.313,1.064-2.829,2.377-2.829a3.341,3.341,0,0,1,2.829,2.942" fill="#b2866d"/>
            <path id="Path_35525" data-name="Path 35525" d="M217.682,947.6c0,1.045-1.613,1.892-3.6,1.892s-3.6-.847-3.6-1.892,1.614-1.892,3.6-1.892,3.6.847,3.6,1.892" fill="#7f5032"/>
            <path id="Path_35526" data-name="Path 35526" d="M296.946,934.072c.472.932-.585,2.416-2.361,3.315s-3.6.871-4.069-.061.585-2.417,2.361-3.315,3.6-.871,4.069.061" fill="#965b39"/>
            <path id="Path_35527" data-name="Path 35527" d="M173.242,914.945a5.4,5.4,0,0,1-10.8,0c0-2.983,3.735-7.123,6.718-7.123s4.086,4.14,4.086,7.123" fill="#965b39"/>
            <path id="Path_35528" data-name="Path 35528" d="M1685.544,930.654a4.783,4.783,0,1,1,4.782,4.782,4.782,4.782,0,0,1-4.782-4.782" fill="#b2866d"/>
            <path id="Path_35529" data-name="Path 35529" d="M1514.8,922.863c0-1.312,1.517-2.263,2.829-2.263a2.376,2.376,0,0,1,2.377,2.376c0,1.313-1.064,2.829-2.377,2.829a3.341,3.341,0,0,1-2.829-2.942" fill="#b2866d"/>
            <path id="Path_35530" data-name="Path 35530" d="M1622.775,928.431c-.472-.932.585-2.416,2.361-3.315s3.6-.871,4.069.061-.585,2.417-2.361,3.315-3.6.871-4.069-.061" fill="#965b39"/>
            <path id="Path_35531" data-name="Path 35531" d="M1802.969,928.566a5.4,5.4,0,1,1,10.8,0c0,2.983-3.735,7.123-6.718,7.123s-4.086-4.14-4.086-7.123" fill="#965b39"/>
            <path id="Path_35532" data-name="Path 35532" d="M1946.176,930.654c0,1.045-1.613,1.892-3.6,1.892s-3.6-.847-3.6-1.892,1.614-1.892,3.6-1.892,3.6.847,3.6,1.892" fill="#7f5032"/>
            <path id="Path_35533" data-name="Path 35533" d="M1199.578,925.8a4.783,4.783,0,1,1-4.782-4.782,4.782,4.782,0,0,1,4.782,4.782" fill="#b2866d"/>
            <path id="Path_35534" data-name="Path 35534" d="M1479.65,941.269c0,1.312-1.517,2.263-2.829,2.263a2.377,2.377,0,0,1-2.377-2.376c0-1.313,1.064-2.829,2.377-2.829a3.341,3.341,0,0,1,2.829,2.942" fill="#b2866d"/>
            <path id="Path_35535" data-name="Path 35535" d="M1359,916.918c.472.932-.585,2.416-2.361,3.315s-3.6.871-4.069-.061.585-2.417,2.361-3.315,3.6-.871,4.069.061" fill="#965b39"/>
            <path id="Path_35536" data-name="Path 35536" d="M1405.826,927.665a5.4,5.4,0,1,1-10.8,0c0-2.983,3.735-7.123,6.718-7.123s4.086,4.14,4.086,7.123" fill="#965b39"/>
            <path id="Path_35537" data-name="Path 35537" d="M1592.779,949.449a5.4,5.4,0,1,1-10.8,0c0-2.983,3.735-7.123,6.718-7.123s4.086,4.14,4.086,7.123" fill="#965b39"/>
            <path id="Path_35538" data-name="Path 35538" d="M856.384,924.808a4.783,4.783,0,1,1-4.782-4.782,4.782,4.782,0,0,1,4.782,4.782" fill="#b2866d"/>
            <path id="Path_35539" data-name="Path 35539" d="M1149.383,926.145c0,1.312-1.517,2.263-2.829,2.263a2.376,2.376,0,0,1-2.377-2.376c0-1.313,1.064-2.829,2.377-2.829a3.341,3.341,0,0,1,2.829,2.942" fill="#b2866d"/>
            <path id="Path_35540" data-name="Path 35540" d="M1015.965,945.47c0,1.045-1.613,1.892-3.6,1.892s-3.6-.847-3.6-1.892,1.614-1.892,3.6-1.892,3.6.847,3.6,1.892" fill="#7f5032"/>
            <path id="Path_35541" data-name="Path 35541" d="M1095.229,931.945c.472.932-.585,2.416-2.361,3.315s-3.6.871-4.069-.061.585-2.417,2.361-3.315,3.6-.871,4.069.061" fill="#965b39"/>
            <path id="Path_35542" data-name="Path 35542" d="M948.376,928.859a5.4,5.4,0,0,1-10.8,0c0-2.983,3.735-7.123,6.718-7.123s4.086,4.14,4.086,7.123" fill="#965b39"/>
            <path id="Path_35543" data-name="Path 35543" d="M556.721,726.379h-28.93a16.853,16.853,0,0,1-1.61-2.51v-.01a8.9,8.9,0,0,1-1.03-5.88,5.968,5.968,0,0,1,1.08-2.35,4.113,4.113,0,0,1,.38-.47c.19-.21.39-.42.61-.62a17.755,17.755,0,0,1,2.54-2.02c.46-.31.939-.61,1.45-.9a27.688,27.688,0,0,1,3.19-1.55l.06-.03c.85-.34,1.739-.65,2.64-.91.23-.07.47-.13.7-.19a19.776,19.776,0,0,1,4.5-.64q.465-.015.93,0a13.454,13.454,0,0,1,2.21.23q.36.06.72.15c.62.15,1.22.32,1.8.52a19.2,19.2,0,0,1,2.37.95c.39.18.76.37,1.119.57a19.2,19.2,0,0,1,3.261,2.27,15.172,15.172,0,0,1,3.5,4.25,10.4,10.4,0,0,1,1.1,2.94,5.487,5.487,0,0,1-2.59,6.2" fill="#a36f51"/>
            <path id="Path_35544" data-name="Path 35544" d="M540.141,726.319c.01.02,0,.04,0,.06h-38.65a5.371,5.371,0,0,1,2.49-3.86,5.085,5.085,0,0,0,1.93-4.08c.04-5.06,6.67-9.18,18.55-4.52a8.66,8.66,0,0,0,1.48.44,7.9,7.9,0,0,0,1.28.18c.14.02.28.03.42.04a18.694,18.694,0,0,1,3.53.48q.765.18,1.47.42a6.633,6.633,0,0,1,.62.24,11.741,11.741,0,0,1,2.39,1.26,10.279,10.279,0,0,1,3.32,3.6,9.893,9.893,0,0,1,.95,2.42,9.619,9.619,0,0,1,.22,3.32" fill="#965b39"/>
            <path id="Path_35545" data-name="Path 35545" d="M539.081,726.379h-10.53c-.26-.31-.53-.63-.82-.94-.48-.54-1-1.06-1.55-1.57v-.01a24.707,24.707,0,0,0-13.58-6.44s5.08-1.76,12.55.56c.64.2,1.3.43,1.97.69.2.08.41.17.61.25a35,35,0,0,1,5.52,2.92h.01c.11.08.22.15.33.22.48.32.95.65,1.43.99.73.53,1.47,1.11,2.22,1.73h.01c.6.5,1.22,1.03,1.83,1.6" fill="#41ae55"/>
            <path id="Path_35546" data-name="Path 35546" d="M533.951,726.379H530.59a47.559,47.559,0,0,1-2.86-6.02c-.23-.57-.43-1.13-.61-1.69-.36-1.05-.649-2.07-.89-3.04-.11-.43-.21-.85-.29-1.27a26.594,26.594,0,0,1-.26-10.32c.021-.09.03-.18.05-.27a13.722,13.722,0,0,1,1.04-3.33,30.653,30.653,0,0,0,.37,3.92v.01c.09.5.18,1,.29,1.49q.135.63.3,1.26a29.129,29.129,0,0,0,2.03,5.4l.24.48c.37.71.76,1.4,1.17,2.06a31.528,31.528,0,0,0,1.95,2.84c-.01.52-.01,1.05,0,1.6.01.18.01.38.02.57q.03.87.12,1.77c.07.8.17,1.61.3,2.45v.04c.11.66.24,1.35.391,2.05" fill="#27a33e"/>
            <path id="Path_35547" data-name="Path 35547" d="M541.881,725.239l-1.68,1.12-.04.02h-6.22c-.15-.7-.27-1.38-.38-2.05v-.04c-.13-.85-.24-1.66-.31-2.45-.05-.61-.09-1.2-.11-1.77-.01-.19-.01-.39-.02-.57-.01-.55-.01-1.08,0-1.6,0-.1.01-.2.01-.3.02-.65.07-1.28.13-1.88a26.68,26.68,0,0,1,1.14-5.65c.01-.02.01-.05.02-.07a19.043,19.043,0,0,1,3.77-7.01,25.653,25.653,0,0,0-1.09,6.14c-.04.63-.04,1.25-.03,1.86a23.49,23.49,0,0,0,.23,2.84,25.454,25.454,0,0,0,1.82,6.44q.51,1.17,1.08,2.22a27.478,27.478,0,0,0,1.68,2.75" fill="#27a33e"/>
            <path id="Path_35548" data-name="Path 35548" d="M567.791,717.419a25.334,25.334,0,0,0-8.48,2.76,23.833,23.833,0,0,0-4.21,2.89,26.024,26.024,0,0,0-3.26,3.31h-10.53c.29-.26.57-.52.86-.76,1.06-.94,2.11-1.77,3.14-2.52.62-.45,1.22-.87,1.82-1.26h.01a34.677,34.677,0,0,1,6.14-3.17c.62-.24,1.23-.45,1.82-.64a26.812,26.812,0,0,1,3.11-.79,20.118,20.118,0,0,1,9.58.18" fill="#41ae55"/>
            <path id="Path_35549" data-name="Path 35549" d="M555.1,708.349a28.613,28.613,0,0,1-.39,4.64,35.488,35.488,0,0,1-1.43,5.68,45.867,45.867,0,0,1-3.47,7.71h-3.37c.04-.16.07-.32.1-.48.09-.42.17-.82.23-1.23.04-.24.08-.47.11-.71.08-.47.13-.92.18-1.37v-.01c.02-.12.03-.25.04-.37.01-.06.01-.12.02-.18s.01-.13.01-.19c.01-.09.02-.19.03-.29s.02-.19.03-.29c.07-1.02.1-2.01.09-2.95,0-.14,0-.27-.01-.41a31.489,31.489,0,0,0,4.18-7.18,30.75,30.75,0,0,0,1.07-3.07c.12-.41.22-.83.33-1.26a29.4,29.4,0,0,0,.77-5.95,18.317,18.317,0,0,1,1.48,7.91" fill="#27a33e"/>
            <path id="Path_35550" data-name="Path 35550" d="M547.281,718.309c.01.94-.02,1.93-.09,2.95-.01.1-.02.2-.03.29a2.639,2.639,0,0,1-.02.29c-.01.06-.01.13-.02.19s-.01.12-.02.18c-.01.12-.02.25-.04.37v.01c-.05.45-.1.9-.18,1.37-.03.24-.07.47-.11.71-.06.41-.14.81-.23,1.23-.03.16-.05.32-.09.48h-6.22l-.03-.02-.06-.04-1.62-1.08c.47-.69.94-1.44,1.4-2.24.09-.17.19-.34.28-.51.22-.41.44-.84.65-1.29a25.129,25.129,0,0,0,2.22-7.22,24.2,24.2,0,0,0,.16-5.68,26.086,26.086,0,0,0-.37-2.68q-.255-1.29-.66-2.64a11.937,11.937,0,0,1,1.03,1.32,20.933,20.933,0,0,1,2.21,4.23c.26.65.5,1.36.73,2.14a26.823,26.823,0,0,1,.96,5.02c.08.83.14,1.71.15,2.62" fill="#27a33e"/>
            <path id="Path_35551" data-name="Path 35551" d="M542.351,726.379h-8.96c.08-.65.13-1.33.17-2.05v-.04c.04-.71.05-1.46.03-2.23a26.282,26.282,0,0,0-.46-4.46c-.13-.7-.29-1.41-.49-2.12a24.489,24.489,0,0,0-1.43-3.86,24.74,24.74,0,0,0-3.48-5.41,3.272,3.272,0,0,0-.3-.35,24.843,24.843,0,0,0-1.75-1.82c-.15-.15-.3-.3-.46-.44a5.25,5.25,0,0,1,.51.17,14.929,14.929,0,0,1,1.41.59v.01c.19.08.39.19.59.29a24.192,24.192,0,0,1,6.69,5.34c.01.01.02.03.04.04a30.888,30.888,0,0,1,2.1,2.68c.25.36.5.73.74,1.11a34.083,34.083,0,0,1,2.59,4.95c.34.77.66,1.58.96,2.42a45.493,45.493,0,0,1,1.32,4.42c.06.25.12.51.18.76" fill="#41ae55"/>
            <path id="Path_35552" data-name="Path 35552" d="M546.431,697.379a28.944,28.944,0,0,0-3.2,6.92c-.13.44-.26.88-.37,1.32-.23.9-.42,1.8-.56,2.68a31.459,31.459,0,0,0-.32,7.12c-.01.02-.02.03-.02.04-.12.16-.23.33-.35.5-.1.15-.21.3-.31.46l-.42.66-.27.45c-.15.24-.3.49-.44.75-.09.16-.18.33-.28.5-.02.04-.04.08-.07.13-.11.21-.23.43-.34.65s-.23.44-.34.67a.076.076,0,0,0-.02.04c-.05.11-.1.21-.15.31-.11.24-.23.49-.34.74-.08.18-.16.36-.24.55s-.17.37-.24.56c-.04.09-.08.18-.12.28-.12.28-.23.57-.34.87-.15.39-.3.79-.44,1.2-.09.25-.18.5-.27.76s-.18.56-.27.84h-1.74c-.01-1.15.01-2.26.05-3.33a51.066,51.066,0,0,1,.63-6.07,41.757,41.757,0,0,1,.91-4.26c.16-.6.33-1.17.51-1.73.23-.72.47-1.4.73-2.05,3.39-8.71,8.63-11.56,8.63-11.56" fill="#27a33e"/>
            <path id="Path_35553" data-name="Path 35553" d="M554.49,705.849c-.7.59-1.36,1.19-1.97,1.8a25.116,25.116,0,0,0-2.19,2.5,24.364,24.364,0,0,0-3.2,5.54,26.025,26.025,0,0,0-1.82,7.41,31.3,31.3,0,0,0-.14,3.28h-8.46c.09-.28.18-.57.27-.84s.17-.51.26-.76c.07-.21.15-.41.22-.61s.15-.39.23-.59.15-.39.22-.58c.04-.1.08-.2.12-.29s.08-.19.12-.28c.07-.19.16-.38.24-.56s.16-.37.24-.55.16-.36.24-.53c.03-.07.07-.14.1-.21.05-.11.1-.21.15-.31a.076.076,0,0,1,.02-.04c.11-.23.22-.45.34-.67s.23-.44.34-.65c.03-.05.05-.09.07-.13.1-.17.19-.34.28-.5.14-.26.29-.51.44-.75l.27-.45.42-.66c.1-.16.21-.31.31-.46.12-.17.23-.34.35-.5,0-.01.01-.02.02-.04.36-.5.72-.99,1.09-1.44a27.142,27.142,0,0,1,3.1-3.31c.61-.55,1.21-1.03,1.79-1.47a22.5,22.5,0,0,1,4.89-2.81,10.83,10.83,0,0,1,1.64-.54" fill="#41ae55"/>
            <path id="Path_35554" data-name="Path 35554" d="M919.382,1067.17h51.063a29.642,29.642,0,0,0,2.841-4.43v-.018c1.784-3.53,2.543-7.131,1.819-10.378a10.545,10.545,0,0,0-1.906-4.148,7.218,7.218,0,0,0-.671-.829c-.335-.372-.689-.742-1.077-1.095a31.282,31.282,0,0,0-4.483-3.565c-.812-.548-1.659-1.077-2.559-1.589a49.021,49.021,0,0,0-5.631-2.736l-.106-.053c-1.5-.6-3.07-1.147-4.66-1.606-.406-.123-.829-.229-1.235-.335a34.9,34.9,0,0,0-7.942-1.13q-.822-.026-1.642,0a23.737,23.737,0,0,0-3.9.406q-.636.105-1.271.265c-1.094.265-2.153.565-3.177.917a34.194,34.194,0,0,0-4.183,1.677c-.689.318-1.341.654-1.976,1.007a33.94,33.94,0,0,0-5.755,4.006,26.769,26.769,0,0,0-6.177,7.5,18.334,18.334,0,0,0-1.942,5.19c-.883,4.5.5,8.595,4.571,10.943" fill="#a36f51"/>
            <path id="Path_35555" data-name="Path 35555" d="M948.647,1067.064c-.017.035,0,.071,0,.106h68.22c-.16-2.33-1.484-4.625-4.4-6.813a8.981,8.981,0,0,1-3.407-7.2c-.069-8.932-11.772-16.2-32.741-7.978a15.338,15.338,0,0,1-2.612.776,13.849,13.849,0,0,1-2.26.318c-.246.036-.494.053-.741.071a32.987,32.987,0,0,0-6.23.847q-1.352.318-2.595.741a11.449,11.449,0,0,0-1.094.424,20.656,20.656,0,0,0-4.219,2.224,18.157,18.157,0,0,0-5.86,6.354,17.445,17.445,0,0,0-1.676,4.271,16.987,16.987,0,0,0-.389,5.86" fill="#965b39"/>
            <path id="Path_35556" data-name="Path 35556" d="M950.518,1067.17H969.1c.459-.547.935-1.112,1.447-1.659.848-.953,1.765-1.871,2.736-2.771v-.018a43.621,43.621,0,0,1,23.969-11.367s-8.966-3.106-22.151.989c-1.13.353-2.294.759-3.477,1.218-.353.141-.723.3-1.077.441a61.751,61.751,0,0,0-9.743,5.154h-.017c-.2.141-.389.264-.583.388-.847.565-1.677,1.147-2.524,1.747-1.288.936-2.594,1.96-3.918,3.054h-.018c-1.059.882-2.154,1.818-3.23,2.824" fill="#41ae55"/>
            <path id="Path_35557" data-name="Path 35557" d="M959.573,1067.17h5.93a83.511,83.511,0,0,0,5.048-10.626c.406-1.005.759-1.994,1.077-2.982.636-1.853,1.147-3.654,1.571-5.366.194-.759.37-1.5.512-2.242a46.937,46.937,0,0,0,.458-18.215c-.034-.159-.052-.318-.088-.476a24.182,24.182,0,0,0-1.836-5.878,53.837,53.837,0,0,1-.653,6.919v.018c-.158.882-.317,1.765-.512,2.629q-.237,1.111-.529,2.225a51.453,51.453,0,0,1-3.583,9.531l-.424.847c-.653,1.253-1.341,2.471-2.065,3.636a55.41,55.41,0,0,1-3.442,5.012c.018.918.018,1.853,0,2.825-.017.318-.017.67-.035,1.005q-.053,1.536-.211,3.125c-.124,1.412-.3,2.841-.53,4.324v.071c-.194,1.164-.423,2.383-.688,3.618" fill="#27a33e"/>
            <path id="Path_35558" data-name="Path 35558" d="M945.576,1065.158l2.966,1.977.069.035H959.59c.265-1.235.477-2.435.671-3.618v-.07c.229-1.5.424-2.931.547-4.325.089-1.076.159-2.117.194-3.124.018-.335.018-.688.035-1.006.018-.971.018-1.906,0-2.824,0-.177-.017-.353-.017-.529-.035-1.148-.123-2.26-.229-3.318a47.184,47.184,0,0,0-2.013-9.974c-.018-.035-.018-.087-.035-.123-2.577-8.013-6.407-12.126-6.654-12.373a45.262,45.262,0,0,1,1.924,10.837c.07,1.112.07,2.207.053,3.283a41.464,41.464,0,0,1-.406,5.013,44.92,44.92,0,0,1-3.213,11.367q-.9,2.065-1.905,3.918a48.443,48.443,0,0,1-2.966,4.854" fill="#27a33e"/>
            <path id="Path_35559" data-name="Path 35559" d="M899.844,1051.356a44.7,44.7,0,0,1,14.968,4.872,42.044,42.044,0,0,1,7.43,5.1,45.894,45.894,0,0,1,5.755,5.843h18.585c-.512-.459-1-.918-1.517-1.341-1.871-1.659-3.724-3.124-5.543-4.448-1.094-.795-2.153-1.536-3.212-2.225h-.018a61.291,61.291,0,0,0-10.837-5.595c-1.094-.423-2.171-.793-3.213-1.13a47.537,47.537,0,0,0-5.489-1.394c-10.272-1.976-16.909.318-16.909.318" fill="#41ae55"/>
            <path id="Path_35560" data-name="Path 35560" d="M922.242,1035.347a50.52,50.52,0,0,0,.689,8.189,62.371,62.371,0,0,0,2.524,10.026,80.946,80.946,0,0,0,6.124,13.608h5.949c-.071-.281-.124-.564-.177-.847-.159-.741-.3-1.447-.406-2.171-.071-.423-.141-.83-.194-1.253-.141-.83-.229-1.624-.318-2.418v-.017c-.035-.212-.053-.442-.071-.654-.017-.106-.017-.212-.035-.318,0-.1-.017-.229-.017-.335-.018-.159-.036-.335-.054-.512-.017-.159-.035-.335-.052-.512-.123-1.8-.177-3.547-.159-5.206,0-.248,0-.477.017-.724a55.571,55.571,0,0,1-7.377-12.673,54,54,0,0,1-1.889-5.419c-.212-.724-.388-1.465-.583-2.223a51.963,51.963,0,0,1-1.359-10.5s-2.612,4.977-2.612,13.962" fill="#27a33e"/>
            <path id="Path_35561" data-name="Path 35561" d="M936.045,1052.927c-.018,1.659.035,3.406.159,5.206.017.177.035.354.052.512a4.8,4.8,0,0,0,.035.512c.019.106.019.23.036.335s.018.212.035.318c.018.213.035.442.071.654v.017c.089.8.177,1.588.318,2.418.052.423.123.83.194,1.253.106.724.247,1.43.406,2.171.053.283.088.566.159.848h10.978l.054-.036.1-.07,2.859-1.907c-.829-1.218-1.659-2.541-2.471-3.953-.158-.3-.335-.6-.493-.9-.389-.723-.778-1.482-1.148-2.277a44.293,44.293,0,0,1-3.918-12.743,42.635,42.635,0,0,1-.283-10.026,45.884,45.884,0,0,1,.653-4.729q.45-2.279,1.166-4.66a20.822,20.822,0,0,0-1.819,2.329,37.039,37.039,0,0,0-3.9,7.466c-.458,1.148-.882,2.4-1.288,3.778a47.361,47.361,0,0,0-1.694,8.86c-.142,1.465-.248,3.019-.265,4.625" fill="#27a33e"/>
            <path id="Path_35562" data-name="Path 35562" d="M944.746,1067.17h15.815c-.142-1.147-.23-2.348-.3-3.618v-.071c-.071-1.253-.088-2.577-.053-3.936a46.348,46.348,0,0,1,.812-7.872c.229-1.236.512-2.489.864-3.742a43.066,43.066,0,0,1,8.667-16.362,5.865,5.865,0,0,1,.529-.618,43.767,43.767,0,0,1,3.089-3.212c.266-.264.53-.53.812-.776a9.15,9.15,0,0,0-.9.3,26.574,26.574,0,0,0-2.489,1.041v.018c-.335.14-.688.335-1.041.512a42.7,42.7,0,0,0-11.808,9.425c-.018.017-.035.052-.071.07a54.362,54.362,0,0,0-3.706,4.731c-.442.635-.883,1.288-1.306,1.959a59.985,59.985,0,0,0-4.572,8.737c-.6,1.359-1.164,2.788-1.694,4.271a80.4,80.4,0,0,0-2.33,7.8c-.106.441-.212.9-.318,1.341" fill="#41ae55"/>
            <path id="Path_35563" data-name="Path 35563" d="M937.545,1015.984a51.075,51.075,0,0,1,5.648,12.214c.23.776.459,1.554.654,2.33.406,1.589.741,3.177.988,4.73a55.578,55.578,0,0,1,.565,12.567c.017.036.035.053.035.071.212.283.406.583.618.883.177.264.371.529.547.811l.742,1.166.476.793c.265.424.529.866.777,1.324.158.283.318.583.493.883.036.07.071.141.125.23.193.37.4.758.6,1.147.212.388.406.776.6,1.182a.134.134,0,0,1,.036.071c.088.194.176.371.264.547.2.424.407.865.6,1.306.141.318.282.636.423.971.141.317.3.653.424.989.071.158.141.317.212.494.211.494.406,1.005.6,1.535.264.689.529,1.4.776,2.118.159.441.318.883.477,1.342.159.476.318.988.477,1.482h3.07c.018-2.029-.017-3.988-.088-5.877a90.079,90.079,0,0,0-1.111-10.714,73.72,73.72,0,0,0-1.607-7.519c-.283-1.059-.582-2.065-.9-3.054-.406-1.27-.83-2.471-1.288-3.618-5.984-15.373-15.233-20.4-15.233-20.4" fill="#27a33e"/>
            <path id="Path_35564" data-name="Path 35564" d="M923.319,1030.934c1.235,1.041,2.4,2.1,3.477,3.177a44.459,44.459,0,0,1,3.865,4.412,42.991,42.991,0,0,1,5.648,9.779,45.942,45.942,0,0,1,3.213,13.079,55.443,55.443,0,0,1,.247,5.789H954.7c-.158-.494-.318-1.006-.477-1.482-.158-.46-.3-.9-.458-1.342-.124-.371-.265-.723-.389-1.077s-.264-.688-.406-1.041c-.123-.353-.264-.688-.388-1.024-.07-.176-.141-.353-.211-.512-.071-.176-.142-.335-.212-.493-.125-.337-.283-.672-.424-.989-.142-.335-.282-.653-.424-.971s-.282-.635-.424-.935c-.052-.124-.123-.248-.176-.371-.088-.194-.176-.371-.265-.547a.129.129,0,0,0-.035-.071c-.194-.406-.388-.794-.6-1.182-.194-.389-.406-.777-.6-1.147-.053-.089-.089-.16-.124-.231-.176-.3-.335-.6-.494-.882-.247-.459-.512-.9-.776-1.324l-.477-.794q-.371-.582-.741-1.165c-.177-.282-.371-.547-.547-.812-.212-.3-.406-.6-.618-.882,0-.018-.019-.036-.036-.071-.635-.882-1.27-1.747-1.923-2.541a48,48,0,0,0-5.472-5.843c-1.077-.97-2.136-1.817-3.16-2.6a39.713,39.713,0,0,0-8.631-4.959,19.027,19.027,0,0,0-2.894-.953" fill="#41ae55"/>
            <path id="Path_35565" data-name="Path 35565" d="M962.181,567.2c-31.674-35.451-60.542-53.13-86.022-59.722C864.82,503.42,807.759,493,782.333,493L17.868,459.2v108H962.181Z" fill="#7db775"/>
            <path id="Path_35566" data-name="Path 35566" d="M1064.436,866.94c31.674-56.9,60.542-85.275,86.022-95.855,11.339-6.517,68.4-23.248,93.826-23.248l764.465-54.24V866.94H1064.436Z" fill="#7db775"/>
            <path id="Path_35567" data-name="Path 35567" d="M79.9,425.539C72.01,427.5,66.25,433.633,66.25,440.9c0,8.853,8.537,16.03,19.066,16.03h4.377a20.761,20.761,0,0,0,13.092,9.887V514.8h13.2V466.82a20.763,20.763,0,0,0,13.092-9.887h4.376a22.123,22.123,0,0,0,7.483-1.285c.437.147.883.278,1.335.4v54.313h13.2V462.04a21.625,21.625,0,0,0,10.4,2.6h3.829c-.018.29-.052.577-.052.871,0,7.615,6.321,13.975,14.788,15.61V525.1h13.2V481.126c8.467-1.635,14.788-8,14.788-15.61,0-.294-.034-.581-.053-.871h3.777v5.193h13.2V460.2a16.838,16.838,0,0,0,3.393-3.64c5.818,7.089,16.281,10.98,26.965,9.186l.688-.115a28.441,28.441,0,0,0,10.707,4.737v47.936h13.2V470.37a28.443,28.443,0,0,0,10.706-4.737l.689.115c14.328,2.406,28.263-5.41,31.125-17.457a18.744,18.744,0,0,0,.453-5.468,31.308,31.308,0,0,0,5.626.516,31.631,31.631,0,0,0,4.02-.256v50.965h13.2V449.206h1.61a21.888,21.888,0,0,0,8.852,1.839h4.377a20.754,20.754,0,0,0,13.092,9.887v54.314h13.2V460.932a20.76,20.76,0,0,0,13.092-9.887h2.326c4.669,6.308,12.986,10.509,22.473,10.509a31.305,31.305,0,0,0,5.625-.515,18.778,18.778,0,0,0,.454,5.468c2.861,12.047,16.8,19.863,31.125,17.457l.688-.116a28.434,28.434,0,0,0,10.707,4.738v41.1h13.2v-41.1a28.423,28.423,0,0,0,10.706-4.738l.689.116c14.329,2.406,28.264-5.41,31.125-17.457a18.778,18.778,0,0,0,.454-5.468,31.125,31.125,0,0,0,11.67-.075v38.6H557.4V455.741c5.3-4.068,8.624-9.922,8.624-16.431v-.089c.317-.233.629-.472.933-.72l.615.115c12.791,2.406,25.23-5.41,27.785-17.457a20.955,20.955,0,0,0,.4-5.468,25.05,25.05,0,0,0,5.022.516,24.075,24.075,0,0,0,19-9.035c.667,7.036,6.727,12.782,14.71,14.323v75.479h13.2V423.428a24.75,24.75,0,0,0,9.775,2,25.046,25.046,0,0,0,5.022-.516,20.956,20.956,0,0,0,.4,5.468c2.555,12.047,14.994,19.863,27.785,17.458l.615-.116a24.144,24.144,0,0,0,9.557,4.737v56.33H712.64v-56.33a24.145,24.145,0,0,0,9.557-4.737l.615.116c12.791,2.4,25.23-5.411,27.785-17.458a20.956,20.956,0,0,0,.4-5.468,25.046,25.046,0,0,0,5.022.516c13.043,0,23.617-9.959,23.617-22.245v-6.092c0-9.269-6.023-17.208-14.581-20.55a21.1,21.1,0,0,0,.359-3.742V366.7c0-12.285-10.573-22.243-23.616-22.243a24.565,24.565,0,0,0-12.1,3.167c-2.47-9.8-11.8-17.094-22.955-17.094s-20.484,7.3-22.954,17.094a24.489,24.489,0,0,0-7.141-2.664c4.6-2.925,7.578-7.548,7.578-12.77,0-8.853-8.537-16.03-19.066-16.03h-4.376c-3.362-6.338-10.907-10.761-19.694-10.761s-16.332,4.423-19.694,10.761h-4.376c-10.529,0-19.066,7.177-19.066,16.03a13.861,13.861,0,0,0,1.863,6.886,24.773,24.773,0,0,0-25.361-.669c-2.47-9.8-11.8-17.094-22.954-17.094s-20.485,7.3-22.955,17.094a24.541,24.541,0,0,0-10.933-3.129,13.862,13.862,0,0,0,1.833-6.834c0-8.853-8.537-16.03-19.067-16.03h-4.376c-3.361-6.338-10.907-10.762-19.693-10.762s-16.332,4.424-19.694,10.762h-4.376a22.781,22.781,0,0,0-2.945.21c7.18-2.3,12.286-8.129,12.286-14.973,0-8.854-8.536-16.03-19.066-16.03h-4.376c-3.362-6.338-10.907-10.762-19.693-10.762s-16.332,4.424-19.694,10.762H394.38c-10.031,0-18.236,6.517-18.992,14.789a22.569,22.569,0,0,0-3.307-.257h-3.829c.019-.291.052-.577.052-.871,0-8.854-8.536-16.03-19.066-16.03h-4.646c-8.505,0-15.7,4.684-18.16,11.15a21.3,21.3,0,0,0-19.963-14.741,20.333,20.333,0,0,0-10.863,3.167c-2.218-9.8-10.591-17.093-20.608-17.093s-18.391,7.3-20.609,17.093a20.332,20.332,0,0,0-10.863-3.167c-11.71,0-21.2,9.959-21.2,22.244v1.978h-1.887a22.472,22.472,0,0,0-4.5.467v-.183c0-12.285-11.845-22.243-26.456-22.243a30.117,30.117,0,0,0-13.556,3.167C173.162,271.3,162.714,264,150.215,264s-22.948,7.3-25.715,17.094a30.116,30.116,0,0,0-13.555-3.167c-14.611,0-26.456,9.958-26.456,22.243v6.093a18.921,18.921,0,0,0,.4,3.741c-9.586,3.343-16.334,11.281-16.334,20.551v6.092c0,11.131,9.723,20.352,22.418,21.987A14.152,14.152,0,0,0,88,367.21c0,.294.034.581.052.871H84.22c-10.529,0-19.065,7.177-19.065,16.029,0,5.586,3.4,10.5,8.553,13.368-4.528,2.932-7.458,7.521-7.458,12.7,0,7.27,5.76,13.4,13.649,15.364m531.707-77.983a21.117,21.117,0,0,0-3.345,1.147,21.734,21.734,0,0,0-1.8-3.182,20.765,20.765,0,0,0,5.142,2.035M440.636,371.87c-.293.163-.578.335-.86.511.027-.344.063-.686.063-1.036l0-.022q.391.282.8.547m-14.661,14.886c.437-.1.865-.225,1.289-.354a24.806,24.806,0,0,0-2.213,1.922v-.457c.324-.36.636-.728.924-1.111" fill="#417e37"/>
            <path id="Path_35568" data-name="Path 35568" d="M32.433,434.847c-7.889,1.964-13.649,8.094-13.649,15.364,0,8.853,8.537,16.03,19.066,16.03h4.377a20.761,20.761,0,0,0,13.092,9.887V513.2h13.2V476.128a20.763,20.763,0,0,0,13.092-9.887H85.99a22.123,22.123,0,0,0,7.483-1.285c.437.147.883.278,1.335.4v38.979h13.2V471.348a21.625,21.625,0,0,0,10.4,2.605h3.829c-.018.29-.052.577-.052.871,0,7.615,6.321,13.975,14.788,15.61v39.249h13.2V490.434c8.467-1.635,14.788-8,14.788-15.61,0-.294-.034-.581-.053-.871h3.777v5.193h13.2V469.51a16.814,16.814,0,0,0,3.393-3.64c5.818,7.089,16.281,10.98,26.965,9.186l.688-.115a28.442,28.442,0,0,0,10.707,4.737v47.936h13.2V479.678a28.444,28.444,0,0,0,10.706-4.737l.689.115c14.328,2.406,28.263-5.41,31.125-17.457a18.744,18.744,0,0,0,.453-5.468,31.308,31.308,0,0,0,5.626.516,31.631,31.631,0,0,0,4.02-.256v50.966h13.2V458.514h1.61a21.889,21.889,0,0,0,8.852,1.84h4.377A20.756,20.756,0,0,0,330.6,470.24v41.5h13.2v-41.5a20.762,20.762,0,0,0,13.092-9.886h2.326c4.669,6.307,12.986,10.508,22.473,10.508a31.3,31.3,0,0,0,5.625-.515,18.778,18.778,0,0,0,.454,5.468c2.861,12.047,16.8,19.863,31.125,17.457l.688-.116a28.435,28.435,0,0,0,10.707,4.738v41.1h13.2v-41.1a28.423,28.423,0,0,0,10.706-4.738l.689.116c14.329,2.406,28.264-5.41,31.125-17.457a18.779,18.779,0,0,0,.454-5.468,31.124,31.124,0,0,0,11.67-.075v38.6h11.787V465.049c5.3-4.068,8.624-9.922,8.624-16.431v-.089c.317-.233.629-.472.933-.72l.615.115c12.791,2.406,25.23-5.41,27.785-17.457a20.958,20.958,0,0,0,.4-5.468,25.048,25.048,0,0,0,5.022.516,24.075,24.075,0,0,0,19-9.035c.667,7.036,6.727,12.782,14.71,14.323v75.479h13.2V432.736a24.75,24.75,0,0,0,9.775,2,25.122,25.122,0,0,0,5.022-.515,20.954,20.954,0,0,0,.4,5.467c2.555,12.047,14.994,19.863,27.785,17.458l.615-.116a24.145,24.145,0,0,0,9.557,4.737v56.33h11.787v-56.33a24.145,24.145,0,0,0,9.557-4.737l.615.116c12.791,2.4,25.23-5.411,27.785-17.458a20.951,20.951,0,0,0,.4-5.467,25.123,25.123,0,0,0,5.022.515c13.043,0,23.617-9.959,23.617-22.245v-6.092c0-9.269-6.023-17.208-14.581-20.55a21.1,21.1,0,0,0,.359-3.742V376.01c0-12.285-10.573-22.243-23.616-22.243a24.565,24.565,0,0,0-12.1,3.167c-2.47-9.8-11.8-17.094-22.955-17.094s-20.484,7.3-22.954,17.094a24.49,24.49,0,0,0-7.141-2.664c4.6-2.925,7.578-7.548,7.578-12.77,0-8.853-8.537-16.03-19.066-16.03h-4.376c-3.362-6.338-10.907-10.761-19.694-10.761s-16.332,4.423-19.694,10.761h-4.376c-10.529,0-19.066,7.177-19.066,16.03a13.862,13.862,0,0,0,1.863,6.886,24.773,24.773,0,0,0-25.361-.669c-2.47-9.8-11.8-17.094-22.954-17.094s-20.485,7.3-22.955,17.094a24.54,24.54,0,0,0-10.933-3.129,13.862,13.862,0,0,0,1.833-6.834c0-8.853-8.537-16.03-19.067-16.03h-4.376c-3.361-6.338-10.907-10.762-19.693-10.762s-16.332,4.424-19.694,10.762h-4.376a22.782,22.782,0,0,0-2.945.21c7.18-2.3,12.286-8.129,12.286-14.973,0-8.854-8.536-16.03-19.066-16.03h-4.376c-3.362-6.338-10.907-10.762-19.693-10.762s-16.332,4.424-19.694,10.762h-4.376c-10.031,0-18.236,6.517-18.992,14.789a22.569,22.569,0,0,0-3.307-.257h-3.829c.019-.291.052-.577.052-.871,0-8.854-8.536-16.03-19.066-16.03h-4.646c-8.505,0-15.7,4.684-18.16,11.15A21.3,21.3,0,0,0,259,284.971a20.332,20.332,0,0,0-10.863,3.167c-2.218-9.8-10.591-17.093-20.608-17.093s-18.391,7.3-20.609,17.093a20.332,20.332,0,0,0-10.863-3.167c-11.71,0-21.2,9.959-21.2,22.244v1.978H172.97a22.469,22.469,0,0,0-4.495.467v-.183c0-12.285-11.845-22.243-26.456-22.243a30.117,30.117,0,0,0-13.556,3.167c-2.767-9.8-13.215-17.094-25.714-17.094S79.8,280.6,77.034,290.4a30.116,30.116,0,0,0-13.555-3.167c-14.611,0-26.456,9.958-26.456,22.243v6.093a18.921,18.921,0,0,0,.4,3.741c-9.586,3.343-16.334,11.281-16.334,20.551v6.092c0,11.131,9.723,20.352,22.418,21.987a14.153,14.153,0,0,0-2.978,8.578c0,.293.034.58.052.87H36.754c-10.529,0-19.065,7.177-19.065,16.029,0,5.586,3.4,10.5,8.553,13.368-4.528,2.932-7.458,7.521-7.458,12.7,0,7.27,5.76,13.4,13.649,15.364M564.14,356.864a21.117,21.117,0,0,0-3.345,1.147,21.734,21.734,0,0,0-1.8-3.182,20.766,20.766,0,0,0,5.142,2.035M393.17,381.178c-.293.163-.578.335-.86.511.027-.344.063-.686.063-1.036l0-.022q.391.282.8.547m-14.661,14.886c.437-.1.865-.225,1.289-.354a24.815,24.815,0,0,0-2.213,1.922v-.457c.324-.36.636-.728.924-1.111" fill="#47823e"/>
            <path id="Path_35569" data-name="Path 35569" d="M342.841,475.2l-3.3-2.039,21.623-34.314,2.707,1.674Z" fill="#a76e4d"/>
            <path id="Path_35570" data-name="Path 35570" d="M341.255,474.223l1.586.98,21.033-34.678-1.291-.8Z" fill="#965b39"/>
            <path id="Path_35571" data-name="Path 35571" d="M333.185,469.822l3.3-2.039-21.623-34.314-2.707,1.674Z" fill="#a76e4d"/>
            <path id="Path_35572" data-name="Path 35572" d="M334.77,468.841l-1.586.98-21.033-34.678,1.291-.8Z" fill="#965b39"/>
            <path id="Path_35573" data-name="Path 35573" d="M337.98,331.04h0a22.412,22.412,0,0,0-21.792,17.23A22.385,22.385,0,0,0,282.281,367.5v6.142a22.53,22.53,0,0,0,.341,3.771,22.421,22.421,0,0,0-13.842,20.713v6.141a22.39,22.39,0,0,0,27.187,21.9,22.344,22.344,0,0,0,26.762,23.107l.583-.116a22.314,22.314,0,0,0,14.668,5.489Z" fill="#5e9b53"/>
            <path id="Path_35574" data-name="Path 35574" d="M337.98,331.04h0a22.41,22.41,0,0,1,21.791,17.23A22.386,22.386,0,0,1,393.679,367.5v6.142a22.533,22.533,0,0,1-.341,3.771,22.421,22.421,0,0,1,13.842,20.713v6.141a22.39,22.39,0,0,1-27.187,21.9,22.344,22.344,0,0,1-26.762,23.107l-.583-.116a22.314,22.314,0,0,1-14.668,5.489Z" fill="#4f8c45"/>
            <path id="Path_35575" data-name="Path 35575" d="M343.574,535.7H332.385l1-117.064h9.189Z" fill="#a76e4d"/>
            <path id="Path_35576" data-name="Path 35576" d="M338.193,535.7h5.381l-1-117.064h-4.381Z" fill="#965b39"/>
            <path id="Path_35577" data-name="Path 35577" d="M627.444,456.929l-3.3-2.039,21.623-34.314,2.707,1.674Z" fill="#a76e4d"/>
            <path id="Path_35578" data-name="Path 35578" d="M625.858,455.949l1.586.98,21.033-34.678-1.291-.8Z" fill="#965b39"/>
            <path id="Path_35579" data-name="Path 35579" d="M617.787,451.547l3.3-2.039-21.623-34.314-2.708,1.674Z" fill="#a76e4d"/>
            <path id="Path_35580" data-name="Path 35580" d="M619.373,450.567l-1.586.98-21.033-34.678,1.291-.8Z" fill="#965b39"/>
            <path id="Path_35581" data-name="Path 35581" d="M622.582,312.766h0a22.413,22.413,0,0,0-21.792,17.229,22.386,22.386,0,0,0-33.907,19.228v6.142a22.529,22.529,0,0,0,.341,3.771,22.421,22.421,0,0,0-13.842,20.713v6.141a22.389,22.389,0,0,0,27.187,21.9A22.344,22.344,0,0,0,607.331,431l.583-.116a22.314,22.314,0,0,0,14.668,5.489Z" fill="#5e9b53"/>
            <path id="Path_35582" data-name="Path 35582" d="M622.582,312.766h0a22.41,22.41,0,0,1,21.791,17.229,22.387,22.387,0,0,1,33.908,19.228v6.142a22.529,22.529,0,0,1-.341,3.771,22.421,22.421,0,0,1,13.842,20.713v6.141a22.389,22.389,0,0,1-27.187,21.9A22.344,22.344,0,0,1,637.833,431l-.583-.116a22.314,22.314,0,0,1-14.668,5.489Z" fill="#4f8c45"/>
            <path id="Path_35583" data-name="Path 35583" d="M628.177,517.427H616.988l1-117.064h9.189Z" fill="#a76e4d"/>
            <path id="Path_35584" data-name="Path 35584" d="M622.8,517.427h5.381l-1-117.064H622.8Z" fill="#965b39"/>
            <path id="Path_35585" data-name="Path 35585" d="M501.3,417.779a16.114,16.114,0,0,0-6.32-12.8,16.154,16.154,0,0,0-8.908-29.631h-3.245c.015-.293.044-.581.044-.878a16.158,16.158,0,0,0-16.158-16.157h-3.937a16.157,16.157,0,0,0-16.157,16.157c0,.3.028.585.044.878H443.42a16.153,16.153,0,0,0-8.908,29.631,16.137,16.137,0,0,0,5.246,28.283,16.154,16.154,0,0,0,4.591,31.643h3.709a18.262,18.262,0,0,0,33.378,0h3.709a16.154,16.154,0,0,0,4.591-31.643A16.158,16.158,0,0,0,501.3,417.779" fill="#5e9b53"/>
            <path id="Path_35586" data-name="Path 35586" d="M481.436,464.908h3.709a16.154,16.154,0,0,0,4.591-31.643,16.137,16.137,0,0,0,5.246-28.283,16.154,16.154,0,0,0-8.908-29.631h-3.245c.015-.292.044-.581.044-.877a16.158,16.158,0,0,0-16.158-16.158h-1.968V475.755a18.27,18.27,0,0,0,16.689-10.847" fill="#4f8c45"/>
            <path id="Path_35587" data-name="Path 35587" d="M469.247,529.617h-9l3-116.824h3Z" fill="#a76e4d"/>
            <path id="Path_35588" data-name="Path 35588" d="M464.747,529.617h4.5l-3-116.824h-1.5Z" fill="#965b39"/>
            <path id="Path_35589" data-name="Path 35589" d="M465.913,451.7l-2.342-1.485,20.052-29.91.781.495Z" fill="#a76e4d"/>
            <path id="Path_35590" data-name="Path 35590" d="M464.742,450.956l1.171.742L484.4,420.8l-.39-.247Z" fill="#965b39"/>
            <path id="Path_35591" data-name="Path 35591" d="M463.581,460.388l2.342-1.485-20.052-29.91-.781.495Z" fill="#965b39"/>
            <path id="Path_35592" data-name="Path 35592" d="M464.752,459.645l-1.171.742-18.491-30.9.39-.247Z" fill="#a76e4d"/>
            <path id="Path_35593" data-name="Path 35593" d="M86.374,462.667l-3.3-2.039L104.7,426.314l2.707,1.674Z" fill="#a76e4d"/>
            <path id="Path_35594" data-name="Path 35594" d="M84.788,461.687l1.586.98,21.033-34.678-1.291-.8Z" fill="#965b39"/>
            <path id="Path_35595" data-name="Path 35595" d="M76.717,457.286l3.3-2.039L58.391,420.933l-2.707,1.674Z" fill="#a76e4d"/>
            <path id="Path_35596" data-name="Path 35596" d="M78.3,456.305l-1.586.98L55.684,422.607l1.291-.8Z" fill="#965b39"/>
            <path id="Path_35597" data-name="Path 35597" d="M81.512,318.5h0a22.411,22.411,0,0,0-21.791,17.229,22.387,22.387,0,0,0-33.908,19.228V361.1a22.531,22.531,0,0,0,.341,3.771,22.421,22.421,0,0,0-13.842,20.713v6.141a22.39,22.39,0,0,0,27.187,21.9,22.344,22.344,0,0,0,26.762,23.107l.583-.116a22.314,22.314,0,0,0,14.668,5.489Z" fill="#5e9b53"/>
            <path id="Path_35598" data-name="Path 35598" d="M81.512,318.5h0A22.411,22.411,0,0,1,103.3,335.733a22.387,22.387,0,0,1,33.908,19.228V361.1a22.53,22.53,0,0,1-.341,3.771,22.421,22.421,0,0,1,13.842,20.713v6.141a22.39,22.39,0,0,1-27.187,21.9,22.344,22.344,0,0,1-26.762,23.107l-.583-.116a22.314,22.314,0,0,1-14.668,5.489Z" fill="#4f8c45"/>
            <path id="Path_35599" data-name="Path 35599" d="M87.107,523.166H75.918l1-117.064h9.189Z" fill="#a76e4d"/>
            <path id="Path_35600" data-name="Path 35600" d="M81.726,523.166h5.381l-1-117.064H81.726Z" fill="#965b39"/>
            <rect id="Rectangle_2127" data-name="Rectangle 2127" width="8.892" height="47.335" transform="translate(402.734 509.462)" fill="#a76e4d"/>
            <rect id="Rectangle_2128" data-name="Rectangle 2128" width="4.326" height="47.335" transform="translate(407.3 509.462)" fill="#965b39"/>
            <path id="Path_35601" data-name="Path 35601" d="M407.18,512.245h0A17.809,17.809,0,0,0,424.5,498.553a17.791,17.791,0,0,0,26.947-15.28v-4.88a17.927,17.927,0,0,0-.272-3,17.817,17.817,0,0,0,11-16.46v-4.88a17.794,17.794,0,0,0-21.606-17.4A17.753,17.753,0,0,0,419.3,418.289l-.464.092a17.729,17.729,0,0,0-11.655-4.362Z" fill="#4f8c45"/>
            <path id="Path_35602" data-name="Path 35602" d="M407.18,512.245h0a17.809,17.809,0,0,1-17.318-13.692,17.789,17.789,0,0,1-26.945-15.28v-4.88a17.825,17.825,0,0,1,.271-3,17.817,17.817,0,0,1-11-16.46v-4.88a17.794,17.794,0,0,1,21.605-17.4,17.753,17.753,0,0,1,21.266-18.362l.464.092a17.731,17.731,0,0,1,11.657-4.362Z" fill="#5e9b53"/>
            <rect id="Rectangle_2129" data-name="Rectangle 2129" width="11.189" height="59.564" transform="translate(566.727 456.671)" fill="#a76e4d"/>
            <rect id="Rectangle_2130" data-name="Rectangle 2130" width="5.443" height="59.564" transform="translate(572.473 456.671)" fill="#965b39"/>
            <path id="Path_35603" data-name="Path 35603" d="M608.473,412.142c0,35.122-16.118,45.887-36,45.887s-36-10.765-36-45.887,16.118-81.3,36-81.3,36,46.179,36,81.3" fill="#5e9b53"/>
            <path id="Path_35604" data-name="Path 35604" d="M572.473,330.84c-.044,0-.089,0-.134.005V458.027l.134,0c19.882,0,36-10.765,36-45.887s-16.118-81.3-36-81.3" fill="#4f8c45"/>
            <rect id="Rectangle_2131" data-name="Rectangle 2131" width="11.189" height="59.564" transform="translate(737.41 472.493)" fill="#a76e4d"/>
            <rect id="Rectangle_2132" data-name="Rectangle 2132" width="5.443" height="59.564" transform="translate(743.156 472.493)" fill="#965b39"/>
            <path id="Path_35605" data-name="Path 35605" d="M779.156,427.963c0,35.122-16.118,45.887-36,45.887s-36-10.765-36-45.887,16.118-81.3,36-81.3,36,46.179,36,81.3" fill="#5e9b53"/>
            <path id="Path_35606" data-name="Path 35606" d="M743.156,346.662c-.044,0-.089,0-.134.005V473.849l.134,0c19.882,0,36-10.765,36-45.887s-16.118-81.3-36-81.3" fill="#4f8c45"/>
            <path id="Path_35607" data-name="Path 35607" d="M715.952,421.1a16.114,16.114,0,0,0-6.32-12.8,16.154,16.154,0,0,0-8.908-29.631h-3.245c.015-.293.044-.581.044-.878a16.157,16.157,0,0,0-16.157-16.157h-3.938a16.157,16.157,0,0,0-16.157,16.157c0,.3.028.585.044.878H658.07a16.153,16.153,0,0,0-8.908,29.631,16.137,16.137,0,0,0,5.246,28.283A16.154,16.154,0,0,0,659,468.224h3.709a18.262,18.262,0,0,0,33.378,0h3.709a16.154,16.154,0,0,0,4.591-31.643A16.158,16.158,0,0,0,715.952,421.1" fill="#5e9b53"/>
            <path id="Path_35608" data-name="Path 35608" d="M696.086,468.224h3.709a16.154,16.154,0,0,0,4.591-31.643,16.137,16.137,0,0,0,5.246-28.283,16.154,16.154,0,0,0-8.908-29.631h-3.245c.015-.292.044-.581.044-.877a16.158,16.158,0,0,0-16.158-16.158H679.4V479.071a18.27,18.27,0,0,0,16.689-10.847" fill="#4f8c45"/>
            <path id="Path_35609" data-name="Path 35609" d="M683.9,532.933h-9l3-116.824h3Z" fill="#a76e4d"/>
            <path id="Path_35610" data-name="Path 35610" d="M679.4,532.933h4.5l-3-116.824h-1.5Z" fill="#965b39"/>
            <path id="Path_35611" data-name="Path 35611" d="M680.563,455.015l-2.342-1.485,20.052-29.91.781.495Z" fill="#a76e4d"/>
            <path id="Path_35612" data-name="Path 35612" d="M679.391,454.272l1.171.742,18.491-30.9-.39-.247Z" fill="#965b39"/>
            <path id="Path_35613" data-name="Path 35613" d="M678.231,463.7l2.342-1.485-20.052-29.91-.781.495Z" fill="#965b39"/>
            <path id="Path_35614" data-name="Path 35614" d="M679.4,462.961l-1.171.742L659.74,432.8l.39-.247Z" fill="#a76e4d"/>
            <path id="Path_35615" data-name="Path 35615" d="M552.454,435.822a16.114,16.114,0,0,0-6.32-12.8,16.154,16.154,0,0,0-8.908-29.631h-3.245c.015-.293.044-.581.044-.878a16.158,16.158,0,0,0-16.158-16.157H513.93a16.157,16.157,0,0,0-16.157,16.157c0,.3.028.585.044.878h-3.245a16.153,16.153,0,0,0-8.908,29.631,16.137,16.137,0,0,0,5.246,28.283,16.154,16.154,0,0,0,4.591,31.643h3.709a18.262,18.262,0,0,0,33.378,0H536.3a16.154,16.154,0,0,0,4.591-31.643,16.158,16.158,0,0,0,11.566-15.486" fill="#5e9b53"/>
            <path id="Path_35616" data-name="Path 35616" d="M532.588,482.951H536.3a16.154,16.154,0,0,0,4.591-31.643,16.137,16.137,0,0,0,5.246-28.283,16.154,16.154,0,0,0-8.908-29.631h-3.245c.015-.292.044-.581.044-.877a16.158,16.158,0,0,0-16.158-16.158H515.9V493.8a18.27,18.27,0,0,0,16.689-10.847" fill="#4f8c45"/>
            <path id="Path_35617" data-name="Path 35617" d="M520.4,547.66h-9l3-116.824h3Z" fill="#a76e4d"/>
            <path id="Path_35618" data-name="Path 35618" d="M515.9,547.66h4.5l-3-116.824h-1.5Z" fill="#965b39"/>
            <path id="Path_35619" data-name="Path 35619" d="M517.065,469.741l-2.342-1.485,20.052-29.91.781.495Z" fill="#a76e4d"/>
            <path id="Path_35620" data-name="Path 35620" d="M515.893,469l1.171.742,18.491-30.9-.39-.247Z" fill="#965b39"/>
            <path id="Path_35621" data-name="Path 35621" d="M514.733,478.43l2.342-1.485-20.052-29.91-.781.495Z" fill="#965b39"/>
            <path id="Path_35622" data-name="Path 35622" d="M515.9,477.688l-1.171.742-18.491-30.9.39-.247Z" fill="#a76e4d"/>
            <path id="Path_35623" data-name="Path 35623" d="M176.877,477.5l-3.3-2.039L195.2,441.145l2.707,1.674Z" fill="#a76e4d"/>
            <path id="Path_35624" data-name="Path 35624" d="M175.292,476.518l1.586.98L197.91,442.82l-1.291-.8Z" fill="#965b39"/>
            <path id="Path_35625" data-name="Path 35625" d="M167.221,472.117l3.3-2.039-21.623-34.314-2.707,1.674Z" fill="#a76e4d"/>
            <path id="Path_35626" data-name="Path 35626" d="M168.806,471.136l-1.586.98-21.033-34.678,1.291-.8Z" fill="#965b39"/>
            <path id="Path_35627" data-name="Path 35627" d="M172.016,333.335h0a22.41,22.41,0,0,0-21.791,17.23,22.386,22.386,0,0,0-33.908,19.227v6.142a22.53,22.53,0,0,0,.341,3.771,22.421,22.421,0,0,0-13.842,20.713v6.141A22.389,22.389,0,0,0,130,428.46a22.344,22.344,0,0,0,26.762,23.107l.583-.116a22.314,22.314,0,0,0,14.668,5.489Z" fill="#5e9b53"/>
            <path id="Path_35628" data-name="Path 35628" d="M172.016,333.335h0a22.41,22.41,0,0,1,21.791,17.23,22.386,22.386,0,0,1,33.908,19.227v6.142a22.53,22.53,0,0,1-.341,3.771,22.421,22.421,0,0,1,13.842,20.713v6.141a22.389,22.389,0,0,1-27.187,21.9,22.344,22.344,0,0,1-26.762,23.107l-.583-.116a22.314,22.314,0,0,1-14.668,5.489Z" fill="#4f8c45"/>
            <path id="Path_35629" data-name="Path 35629" d="M177.61,538H166.421l1-117.064h9.189Z" fill="#a76e4d"/>
            <path id="Path_35630" data-name="Path 35630" d="M172.229,538h5.381l-1-117.064h-4.381Z" fill="#965b39"/>
            <rect id="Rectangle_2133" data-name="Rectangle 2133" width="11.189" height="59.564" transform="translate(250.566 495.908)" fill="#a76e4d"/>
            <rect id="Rectangle_2134" data-name="Rectangle 2134" width="5.443" height="59.564" transform="translate(256.312 495.908)" fill="#965b39"/>
            <path id="Path_35631" data-name="Path 35631" d="M219.6,442.147a16.114,16.114,0,0,0,6.32,12.8,16.154,16.154,0,0,0,8.908,29.631h3.245c-.015.293-.044.581-.044.878a16.158,16.158,0,0,0,16.158,16.157h3.937a16.157,16.157,0,0,0,16.157-16.157c0-.3-.028-.585-.044-.878h3.245a16.153,16.153,0,0,0,8.908-29.631,16.137,16.137,0,0,0-5.246-28.283,16.154,16.154,0,0,0-4.591-31.643h-3.709a18.262,18.262,0,0,0-33.378,0h-3.709a16.154,16.154,0,0,0-4.591,31.643A16.158,16.158,0,0,0,219.6,442.147" fill="#4f8c45"/>
            <path id="Path_35632" data-name="Path 35632" d="M239.471,395.019h-3.709a16.154,16.154,0,0,0-4.591,31.643,16.137,16.137,0,0,0-5.246,28.283,16.154,16.154,0,0,0,8.909,29.631h3.244c-.015.292-.044.581-.044.877a16.158,16.158,0,0,0,16.158,16.158h1.968V384.172a18.27,18.27,0,0,0-16.689,10.847" fill="#5e9b53"/>
            <path id="Path_35633" data-name="Path 35633" d="M1985.963,693.221c0-5.983-3.387-11.289-8.622-14.678,5.957-3.317,9.889-9,9.889-15.453,0-10.235-9.868-18.531-22.041-18.531h-4.426c.021-.336.06-.667.06-1.006a16.364,16.364,0,0,0-3.442-9.917c14.675-1.89,25.915-12.549,25.915-25.417v-7.043c0-10.716-7.8-19.893-18.882-23.757a21.825,21.825,0,0,0,.465-4.325V566.05c0-14.2-13.693-25.714-30.584-25.714A34.818,34.818,0,0,0,1918.624,544c-3.2-11.327-15.278-19.762-29.727-19.762s-26.527,8.435-29.726,19.762a34.819,34.819,0,0,0-15.671-3.662c-16.891,0-30.584,11.513-30.584,25.714v.212a25.978,25.978,0,0,0-5.2-.539h-2.182v-2.288c0-14.2-10.974-25.714-24.511-25.714a23.507,23.507,0,0,0-12.559,3.661c-2.564-11.326-12.244-19.761-23.824-19.761s-21.26,8.435-23.824,19.761a23.5,23.5,0,0,0-12.558-3.661c-10.635,0-19.685,7.107-23.078,17.04-2.84-7.474-11.161-12.889-20.993-12.889h-5.371c-12.174,0-22.041,8.3-22.041,18.531,0,.34.039.671.06,1.006h-4.427a26.073,26.073,0,0,0-3.823.3c-.874-9.563-10.358-17.1-21.954-17.1h-5.06c-3.886-7.326-12.608-12.441-22.766-12.441s-18.88,5.115-22.767,12.441h-5.058c-12.173,0-22.041,8.3-22.041,18.532,0,7.911,5.9,14.652,14.2,17.309a26.268,26.268,0,0,0-3.4-.243h-5.059c-3.887-7.326-12.609-12.44-22.767-12.44s-18.88,5.114-22.767,12.44h-5.058c-12.173,0-22.041,8.3-22.041,18.532a16.016,16.016,0,0,0,2.119,7.9,28.371,28.371,0,0,0-12.64,3.617c-2.855-11.326-13.638-19.761-26.536-19.761s-23.681,8.435-26.536,19.761a28.64,28.64,0,0,0-29.318.773,16.022,16.022,0,0,0,2.153-7.96c0-10.234-9.868-18.531-22.041-18.531h-5.059c-3.886-7.327-12.609-12.441-22.766-12.441s-18.881,5.114-22.767,12.441H1293.6c-12.172,0-22.041,8.3-22.041,18.531,0,6.036,3.446,11.382,8.76,14.762a28.364,28.364,0,0,0-8.255,3.08c-2.855-11.326-13.637-19.761-26.536-19.761s-23.681,8.435-26.536,19.761A28.4,28.4,0,0,0,1205,617.251c-15.078,0-27.3,11.512-27.3,25.714v7.044a24.411,24.411,0,0,0,.416,4.325c-9.893,3.863-16.856,13.041-16.856,23.757v7.043c0,14.2,12.223,25.715,27.3,25.715a28.993,28.993,0,0,0,5.805-.6,24.21,24.21,0,0,0,.468,6.321c2.953,13.927,17.333,22.963,32.12,20.181l.71-.133a27.909,27.909,0,0,0,11.049,5.476v65.119h13.626V742.1a27.91,27.91,0,0,0,11.049-5.476l.71.133c14.787,2.782,29.167-6.254,32.121-20.181a24.251,24.251,0,0,0,.467-6.321,29.01,29.01,0,0,0,5.806.6,28.606,28.606,0,0,0,11.3-2.308v85.023h15.263V706.308c9.229-1.782,16.235-8.425,17.006-16.559a27.834,27.834,0,0,0,21.965,10.445,29,29,0,0,0,5.805-.6,24.214,24.214,0,0,0,.468,6.321c2.953,13.927,17.333,22.962,32.12,20.181l.71-.133c.352.286.713.562,1.079.832v.1c0,7.524,3.844,14.292,9.97,18.995v50.665h13.626V751.935a35.964,35.964,0,0,0,13.491.086,21.733,21.733,0,0,0,.525,6.321c3.308,13.927,19.417,22.963,35.982,20.181l.8-.133a32.883,32.883,0,0,0,12.378,5.476v47.51h15.263v-47.51a32.877,32.877,0,0,0,12.378-5.476l.8.133c16.564,2.782,32.674-6.254,35.982-20.181a21.732,21.732,0,0,0,.524-6.321,36.155,36.155,0,0,0,6.5.6c10.967,0,20.582-4.856,25.979-12.148h2.689c2.867,5.4,8.37,9.6,15.135,11.429v62.788h15.264V751.9c6.765-1.832,12.268-6.025,15.134-11.429h5.059a25.3,25.3,0,0,0,10.234-2.127h1.861v51.84h15.264V731.264a36.206,36.206,0,0,0,11.15-.3,21.69,21.69,0,0,0,.524,6.32c3.309,13.927,19.418,22.963,35.982,20.182l.8-.134a32.878,32.878,0,0,0,12.377,5.476v55.416h15.264V762.809a32.9,32.9,0,0,0,12.378-5.477l.8.134c12.352,2.073,24.446-2.425,31.173-10.62a19.486,19.486,0,0,0,3.921,4.208v11.139h15.264v-6h4.366c-.021.335-.06.667-.06,1.006,0,8.8,7.306,16.157,17.094,18.046v50.84h15.264V775.243c9.788-1.89,17.1-9.243,17.1-18.047,0-.339-.039-.671-.061-1.006h4.427a25,25,0,0,0,12.023-3.011V809.04h15.263V746.252c.522-.141,1.038-.293,1.544-.462a25.587,25.587,0,0,0,8.65,1.485h5.059c2.867,5.4,8.37,9.6,15.135,11.429v55.47h15.263V758.7c6.766-1.832,12.269-6.025,15.135-11.429h5.059c12.173,0,22.041-8.3,22.041-18.532,0-8.4-6.659-15.491-15.778-17.761,9.119-2.27,15.778-9.357,15.778-17.761m-624.506-74.742a25.278,25.278,0,0,0-2.076,3.678,24.43,24.43,0,0,0-3.867-1.325,24.009,24.009,0,0,0,5.943-2.353m192.627,29.828v.026c0,.4.041.8.072,1.2-.326-.2-.656-.4-.994-.59.315-.2.622-.416.923-.633m17.093,19.125v.528a28.622,28.622,0,0,0-2.558-2.221c.49.149.985.288,1.49.409.333.443.694.868,1.068,1.284" fill="#417e37"/>
            <path id="Path_35634" data-name="Path 35634" d="M2040.835,703.981c0-5.983-3.387-11.289-8.622-14.678,5.957-3.317,9.889-9,9.889-15.453,0-10.235-9.868-18.531-22.041-18.531h-4.426c.021-.336.06-.667.06-1.006a16.365,16.365,0,0,0-3.442-9.917c14.675-1.89,25.915-12.549,25.915-25.417v-7.043c0-10.716-7.8-19.893-18.882-23.757a21.835,21.835,0,0,0,.465-4.325V576.81c0-14.2-13.693-25.714-30.584-25.714a34.819,34.819,0,0,0-15.671,3.662c-3.2-11.327-15.278-19.762-29.727-19.762s-26.527,8.435-29.726,19.762a34.818,34.818,0,0,0-15.671-3.662c-16.891,0-30.584,11.513-30.584,25.714v.212a25.98,25.98,0,0,0-5.2-.539h-2.182V574.2c0-14.2-10.974-25.714-24.511-25.714a23.506,23.506,0,0,0-12.559,3.661c-2.564-11.326-12.244-19.761-23.824-19.761s-21.26,8.435-23.824,19.761a23.5,23.5,0,0,0-12.558-3.661c-10.635,0-19.686,7.107-23.078,17.04-2.84-7.474-11.161-12.889-20.993-12.889h-5.371c-12.174,0-22.042,8.3-22.042,18.531,0,.34.039.671.061,1.006h-4.427a26.072,26.072,0,0,0-3.823.3c-.874-9.562-10.358-17.1-21.955-17.1h-5.059c-3.886-7.326-12.608-12.441-22.766-12.441s-18.88,5.115-22.767,12.441h-5.058c-12.173,0-22.041,8.3-22.041,18.532,0,7.911,5.9,14.652,14.2,17.309a26.254,26.254,0,0,0-3.4-.243h-5.059c-3.887-7.326-12.609-12.44-22.767-12.44s-18.88,5.114-22.767,12.44h-5.058c-12.173,0-22.042,8.3-22.042,18.532a16.026,16.026,0,0,0,2.119,7.9,28.368,28.368,0,0,0-12.639,3.617c-2.855-11.326-13.638-19.761-26.536-19.761s-23.681,8.435-26.536,19.761a28.64,28.64,0,0,0-29.318.773,16.022,16.022,0,0,0,2.153-7.96c0-10.234-9.869-18.531-22.041-18.531h-5.059c-3.886-7.327-12.609-12.441-22.766-12.441s-18.881,5.114-22.767,12.441h-5.059c-12.172,0-22.041,8.3-22.041,18.531,0,6.036,3.446,11.382,8.76,14.762a28.361,28.361,0,0,0-8.255,3.08c-2.855-11.326-13.638-19.761-26.536-19.761s-23.681,8.435-26.536,19.761a28.4,28.4,0,0,0-13.989-3.661c-15.078,0-27.3,11.512-27.3,25.714v7.044a24.4,24.4,0,0,0,.416,4.325c-9.893,3.863-16.856,13.041-16.856,23.757v7.043c0,14.2,12.223,25.715,27.3,25.715a28.991,28.991,0,0,0,5.8-.6,24.21,24.21,0,0,0,.468,6.321c2.953,13.927,17.333,22.963,32.12,20.181l.71-.133a27.909,27.909,0,0,0,11.049,5.476v65.119h13.626V752.858a27.915,27.915,0,0,0,11.049-5.476l.71.133c14.787,2.782,29.167-6.254,32.12-20.181a24.221,24.221,0,0,0,.468-6.321,29,29,0,0,0,5.8.6,28.612,28.612,0,0,0,11.3-2.308v85.023h15.263V717.068c9.229-1.782,16.235-8.425,17.006-16.559a27.833,27.833,0,0,0,21.964,10.445,28.993,28.993,0,0,0,5.806-.6,24.214,24.214,0,0,0,.468,6.321c2.953,13.927,17.333,22.962,32.12,20.181l.71-.133c.352.286.713.562,1.079.832v.1c0,7.524,3.844,14.292,9.97,18.995v50.665h13.626V762.7a35.964,35.964,0,0,0,13.491.086,21.733,21.733,0,0,0,.525,6.321c3.308,13.927,19.417,22.963,35.982,20.181l.795-.133a32.867,32.867,0,0,0,12.378,5.476v47.51h15.263v-47.51a32.859,32.859,0,0,0,12.378-5.476l.8.133c16.564,2.782,32.674-6.254,35.982-20.181a21.732,21.732,0,0,0,.524-6.321,36.157,36.157,0,0,0,6.5.6c10.967,0,20.581-4.856,25.979-12.148h2.689c2.867,5.4,8.37,9.6,15.135,11.429v47.974h15.263V762.658c6.766-1.832,12.269-6.025,15.135-11.429h5.059a25.3,25.3,0,0,0,10.234-2.127h1.861v51.84h15.263V742.024a36.217,36.217,0,0,0,11.151-.3,21.7,21.7,0,0,0,.524,6.32c3.308,13.927,19.418,22.963,35.982,20.182l.8-.134a32.878,32.878,0,0,0,12.377,5.476v55.416h15.264V773.569a32.9,32.9,0,0,0,12.378-5.477l.8.134c12.352,2.073,24.446-2.425,31.173-10.62a19.486,19.486,0,0,0,3.921,4.208v11.139h15.264v-6h4.366c-.022.335-.06.667-.06,1.007,0,8.8,7.306,16.156,17.094,18.045v45.374H1904.2V786c9.788-1.89,17.094-9.243,17.094-18.046,0-.34-.038-.672-.06-1.007h4.427a25,25,0,0,0,12.023-3.011v38.133h15.263v-45.06c.522-.141,1.038-.293,1.544-.462a25.587,25.587,0,0,0,8.65,1.485h5.059c2.867,5.4,8.37,9.6,15.135,11.429v42.859H1998.6V769.464c6.765-1.832,12.268-6.025,15.135-11.429h5.059c12.173,0,22.041-8.3,22.041-18.532,0-8.4-6.659-15.491-15.778-17.761,9.119-2.27,15.778-9.357,15.778-17.761m-624.506-74.742a25.086,25.086,0,0,0-2.076,3.678,24.425,24.425,0,0,0-3.867-1.325,24.009,24.009,0,0,0,5.943-2.353m192.627,29.828v.026c0,.4.041.8.072,1.2-.326-.2-.656-.4-.994-.59.314-.2.622-.416.923-.633m17.093,19.125v.528a28.6,28.6,0,0,0-2.558-2.221c.49.149.985.288,1.49.409.333.443.694.868,1.068,1.284" fill="#47823e"/>
            <path id="Path_35635" data-name="Path 35635" d="M1666.214,768.4l3.812-2.357-25-39.668-3.13,1.935Z" fill="#a76e4d"/>
            <path id="Path_35636" data-name="Path 35636" d="M1668.047,767.263l-1.833,1.133L1641.9,728.307l1.493-.923Z" fill="#965b39"/>
            <path id="Path_35637" data-name="Path 35637" d="M1677.377,762.175l-3.812-2.357,25-39.668,3.13,1.935Z" fill="#a76e4d"/>
            <path id="Path_35638" data-name="Path 35638" d="M1675.544,761.042l1.833,1.133,24.316-40.089-1.493-.923Z" fill="#965b39"/>
            <path id="Path_35639" data-name="Path 35639" d="M1671.834,601.738h0a25.909,25.909,0,0,1,25.192,19.918,25.878,25.878,0,0,1,39.2,22.228v7.1a26.093,26.093,0,0,1-.394,4.359,25.92,25.92,0,0,1,16,23.945v7.1a25.888,25.888,0,0,1-31.429,25.319,25.827,25.827,0,0,1-30.937,26.712l-.674-.134a25.8,25.8,0,0,1-16.957,6.345Z" fill="#5e9b53"/>
            <path id="Path_35640" data-name="Path 35640" d="M1671.834,601.738h0a25.909,25.909,0,0,0-25.192,19.918,25.878,25.878,0,0,0-39.2,22.228v7.1a26.093,26.093,0,0,0,.394,4.359,25.92,25.92,0,0,0-16,23.945v7.1a25.888,25.888,0,0,0,31.429,25.319,25.827,25.827,0,0,0,30.937,26.712l.674-.134a25.8,25.8,0,0,0,16.957,6.345Z" fill="#4f8c45"/>
            <path id="Path_35641" data-name="Path 35641" d="M1665.367,838.334H1678.3L1677.146,703h-10.623Z" fill="#a76e4d"/>
            <path id="Path_35642" data-name="Path 35642" d="M1671.587,838.334h-6.221L1666.522,703h5.065Z" fill="#965b39"/>
            <path id="Path_35643" data-name="Path 35643" d="M1347.047,747.27l3.812-2.357-25-39.668-3.13,1.935Z" fill="#a76e4d"/>
            <path id="Path_35644" data-name="Path 35644" d="M1348.88,746.137l-1.833,1.133-24.316-40.089,1.493-.923Z" fill="#965b39"/>
            <path id="Path_35645" data-name="Path 35645" d="M1358.211,741.049l-3.812-2.357,25-39.668,3.13,1.935Z" fill="#a76e4d"/>
            <path id="Path_35646" data-name="Path 35646" d="M1356.378,739.916l1.833,1.133,24.316-40.089-1.493-.923Z" fill="#965b39"/>
            <path id="Path_35647" data-name="Path 35647" d="M1352.667,580.612h0a25.91,25.91,0,0,1,25.192,19.919,25.878,25.878,0,0,1,39.2,22.228v7.1a26.083,26.083,0,0,1-.394,4.359,25.922,25.922,0,0,1,16,23.946v7.1a25.888,25.888,0,0,1-31.429,25.319,25.826,25.826,0,0,1-30.937,26.711l-.674-.133a25.8,25.8,0,0,1-16.957,6.345Z" fill="#5e9b53"/>
            <path id="Path_35648" data-name="Path 35648" d="M1352.667,580.612h0a25.91,25.91,0,0,0-25.192,19.919,25.878,25.878,0,0,0-39.2,22.228v7.1a26.083,26.083,0,0,0,.394,4.359,25.922,25.922,0,0,0-16,23.946v7.1a25.888,25.888,0,0,0,31.429,25.319,25.826,25.826,0,0,0,30.937,26.711l.674-.133a25.8,25.8,0,0,0,16.957,6.345Z" fill="#4f8c45"/>
            <path id="Path_35649" data-name="Path 35649" d="M1346.2,817.208h12.935l-1.156-135.33h-10.623Z" fill="#a76e4d"/>
            <path id="Path_35650" data-name="Path 35650" d="M1352.421,817.208H1346.2l1.156-135.33h5.065Z" fill="#965b39"/>
            <path id="Path_35651" data-name="Path 35651" d="M1483.028,702.012a18.629,18.629,0,0,1,7.307-14.794,18.674,18.674,0,0,1,10.3-34.254h3.752c-.018-.338-.051-.672-.051-1.015a18.677,18.677,0,0,1,18.678-18.678h4.552a18.677,18.677,0,0,1,18.678,18.678c0,.343-.033.677-.051,1.015h3.751a18.674,18.674,0,0,1,10.3,34.254,18.654,18.654,0,0,1-6.064,32.7,18.674,18.674,0,0,1-5.308,36.58h-4.287a21.111,21.111,0,0,1-38.586,0h-4.288a18.674,18.674,0,0,1-5.307-36.58,18.679,18.679,0,0,1-13.371-17.9" fill="#5e9b53"/>
            <path id="Path_35652" data-name="Path 35652" d="M1505.994,756.494h-4.288a18.674,18.674,0,0,1-5.308-36.58,18.655,18.655,0,0,1-6.064-32.7,18.673,18.673,0,0,1,10.3-34.253h3.751c-.018-.339-.05-.672-.05-1.015a18.677,18.677,0,0,1,18.677-18.679h2.276V769.034a21.117,21.117,0,0,1-19.292-12.54" fill="#4f8c45"/>
            <path id="Path_35653" data-name="Path 35653" d="M1520.084,831.3h10.4l-3.468-135.053h-3.468Z" fill="#a76e4d"/>
            <path id="Path_35654" data-name="Path 35654" d="M1525.287,831.3h-5.2l3.468-135.053h1.734Z" fill="#965b39"/>
            <path id="Path_35655" data-name="Path 35655" d="M1523.939,741.224l2.708-1.716-23.181-34.578-.9.572Z" fill="#a76e4d"/>
            <path id="Path_35656" data-name="Path 35656" d="M1525.293,740.366l-1.354.858L1502.563,705.5l.451-.286Z" fill="#965b39"/>
            <path id="Path_35657" data-name="Path 35657" d="M1526.635,751.268l-2.708-1.716,23.181-34.578.9.572Z" fill="#965b39"/>
            <path id="Path_35658" data-name="Path 35658" d="M1525.281,750.41l1.354.858,21.376-35.721-.451-.286Z" fill="#a76e4d"/>
            <path id="Path_35659" data-name="Path 35659" d="M1962.7,753.9l3.812-2.357-25-39.668-3.13,1.935Z" fill="#a76e4d"/>
            <path id="Path_35660" data-name="Path 35660" d="M1964.532,752.771,1962.7,753.9l-24.316-40.089,1.493-.923Z" fill="#965b39"/>
            <path id="Path_35661" data-name="Path 35661" d="M1973.863,747.683l-3.812-2.357,25-39.668,3.13,1.935Z" fill="#a76e4d"/>
            <path id="Path_35662" data-name="Path 35662" d="M1972.029,746.549l1.833,1.133,24.316-40.089-1.493-.923Z" fill="#965b39"/>
            <path id="Path_35663" data-name="Path 35663" d="M1968.319,587.246h0a25.909,25.909,0,0,1,25.192,19.918,25.878,25.878,0,0,1,39.2,22.228v7.1a26.082,26.082,0,0,1-.394,4.36,25.919,25.919,0,0,1,16,23.945v7.1a25.888,25.888,0,0,1-31.429,25.319,25.827,25.827,0,0,1-30.937,26.712l-.674-.134a25.8,25.8,0,0,1-16.957,6.345Z" fill="#5e9b53"/>
            <path id="Path_35664" data-name="Path 35664" d="M1968.319,587.246h0a25.909,25.909,0,0,0-25.192,19.918,25.878,25.878,0,0,0-39.2,22.228v7.1a26.1,26.1,0,0,0,.394,4.36,25.92,25.92,0,0,0-16,23.945v7.1a25.888,25.888,0,0,0,31.429,25.319,25.827,25.827,0,0,0,30.937,26.712l.674-.134a25.8,25.8,0,0,0,16.957,6.345Z" fill="#4f8c45"/>
            <path id="Path_35665" data-name="Path 35665" d="M1961.852,823.842h12.935l-1.156-135.33h-10.623Z" fill="#a76e4d"/>
            <path id="Path_35666" data-name="Path 35666" d="M1968.072,823.842h-6.221l1.156-135.33h5.065Z" fill="#965b39"/>
            <rect id="Rectangle_2135" data-name="Rectangle 2135" width="12.935" height="68.859" transform="translate(1753.485 780.192)" fill="#a76e4d"/>
            <rect id="Rectangle_2136" data-name="Rectangle 2136" width="6.293" height="68.859" transform="translate(1753.485 780.192)" fill="#965b39"/>
            <path id="Path_35667" data-name="Path 35667" d="M1802.212,718.044a18.629,18.629,0,0,1-7.307,14.794,18.674,18.674,0,0,1-10.3,34.254h-3.751c.018.338.051.672.051,1.015a18.677,18.677,0,0,1-18.678,18.678h-4.552A18.677,18.677,0,0,1,1739,768.107c0-.343.033-.677.051-1.015H1735.3a18.674,18.674,0,0,1-10.3-34.254,18.654,18.654,0,0,1,6.065-32.7,18.674,18.674,0,0,1,5.307-36.58h4.288a21.111,21.111,0,0,1,38.586,0h4.288a18.674,18.674,0,0,1,5.307,36.58,18.679,18.679,0,0,1,13.371,17.9" fill="#4f8c45"/>
            <path id="Path_35668" data-name="Path 35668" d="M1779.246,663.561h4.287a18.674,18.674,0,0,1,5.308,36.58,18.655,18.655,0,0,1,6.064,32.7,18.674,18.674,0,0,1-10.3,34.254h-3.751c.018.338.051.672.051,1.014a18.678,18.678,0,0,1-18.679,18.679h-2.275V651.021a21.12,21.12,0,0,1,19.293,12.54" fill="#5e9b53"/>
            <rect id="Rectangle_2137" data-name="Rectangle 2137" width="10.156" height="54.062" transform="translate(1597.481 814.258)" fill="#a76e4d"/>
            <rect id="Rectangle_2138" data-name="Rectangle 2138" width="4.941" height="54.062" transform="translate(1597.481 814.258)" fill="#965b39"/>
            <path id="Path_35669" data-name="Path 35669" d="M1602.559,817.437h0a20.34,20.34,0,0,1-19.778-15.638,20.318,20.318,0,0,1-30.776-17.452v-5.574a20.418,20.418,0,0,1,.31-3.422,20.35,20.35,0,0,1-12.563-18.8v-5.574a20.325,20.325,0,0,1,24.675-19.878,20.278,20.278,0,0,1,24.289-20.972l.53.1a20.254,20.254,0,0,1,13.313-4.982Z" fill="#4f8c45"/>
            <path id="Path_35670" data-name="Path 35670" d="M1602.559,817.437h0a20.342,20.342,0,0,0,19.779-15.638,20.317,20.317,0,0,0,30.775-17.452v-5.574a20.418,20.418,0,0,0-.31-3.422,20.35,20.35,0,0,0,12.563-18.8v-5.574a20.325,20.325,0,0,0-24.675-19.878,20.278,20.278,0,0,0-24.289-20.972l-.53.1a20.254,20.254,0,0,0-13.313-4.982Z" fill="#5e9b53"/>
            <rect id="Rectangle_2139" data-name="Rectangle 2139" width="12.935" height="68.859" transform="translate(1394.459 746.972)" fill="#a76e4d"/>
            <rect id="Rectangle_2140" data-name="Rectangle 2140" width="6.293" height="68.859" transform="translate(1394.459 746.972)" fill="#965b39"/>
            <path id="Path_35671" data-name="Path 35671" d="M1359.135,695.495c0,40.6,18.633,53.047,41.617,53.047s41.617-12.445,41.617-53.047-18.632-93.987-41.617-93.987-41.617,53.385-41.617,93.987" fill="#5e9b53"/>
            <path id="Path_35672" data-name="Path 35672" d="M1400.752,601.508c.052,0,.1.005.155.006V748.54c-.052,0-.1,0-.155,0-22.984,0-41.617-12.445-41.617-53.048s18.633-93.987,41.617-93.987" fill="#4f8c45"/>
            <rect id="Rectangle_2141" data-name="Rectangle 2141" width="12.935" height="68.858" transform="translate(1197.144 765.262)" fill="#a76e4d"/>
            <rect id="Rectangle_2142" data-name="Rectangle 2142" width="6.293" height="68.858" transform="translate(1197.144 765.262)" fill="#965b39"/>
            <path id="Path_35673" data-name="Path 35673" d="M1161.819,713.785c0,40.6,18.633,53.047,41.617,53.047s41.617-12.445,41.617-53.047-18.632-93.987-41.617-93.987-41.617,53.385-41.617,93.987" fill="#5e9b53"/>
            <path id="Path_35674" data-name="Path 35674" d="M1203.437,619.8c.052,0,.1.005.155.006V766.829l-.155,0c-22.985,0-41.617-12.444-41.617-53.047s18.632-93.987,41.617-93.987" fill="#4f8c45"/>
            <path id="Path_35675" data-name="Path 35675" d="M1246.244,695.706a18.629,18.629,0,0,1,7.307-14.794,18.674,18.674,0,0,1,10.3-34.254h3.751c-.018-.338-.051-.672-.051-1.015a18.678,18.678,0,0,1,18.678-18.678h4.552a18.677,18.677,0,0,1,18.678,18.678c0,.343-.033.677-.051,1.015h3.751a18.674,18.674,0,0,1,10.3,34.254,18.654,18.654,0,0,1-6.065,32.7,18.674,18.674,0,0,1-5.308,36.58H1307.8a21.111,21.111,0,0,1-38.586,0h-4.288a18.674,18.674,0,0,1-5.307-36.58,18.678,18.678,0,0,1-13.371-17.9" fill="#5e9b53"/>
            <path id="Path_35676" data-name="Path 35676" d="M1269.21,750.189h-4.287a18.674,18.674,0,0,1-5.308-36.58,18.655,18.655,0,0,1-6.064-32.7,18.674,18.674,0,0,1,10.3-34.254h3.751c-.018-.338-.051-.672-.051-1.014a18.678,18.678,0,0,1,18.678-18.679h2.276V762.729a21.12,21.12,0,0,1-19.293-12.54" fill="#4f8c45"/>
            <path id="Path_35677" data-name="Path 35677" d="M1283.3,824.995h10.4l-3.468-135.053h-3.468Z" fill="#a76e4d"/>
            <path id="Path_35678" data-name="Path 35678" d="M1288.5,824.995h-5.2l3.468-135.053h1.734Z" fill="#965b39"/>
            <path id="Path_35679" data-name="Path 35679" d="M1287.155,734.918l2.708-1.716-23.181-34.578-.9.572Z" fill="#a76e4d"/>
            <path id="Path_35680" data-name="Path 35680" d="M1288.509,734.06l-1.354.858L1265.779,699.2l.451-.286Z" fill="#965b39"/>
            <path id="Path_35681" data-name="Path 35681" d="M1289.851,744.963l-2.708-1.716,23.181-34.578.9.572Z" fill="#965b39"/>
            <path id="Path_35682" data-name="Path 35682" d="M1288.5,744.1l1.354.858,21.376-35.721-.451-.286Z" fill="#a76e4d"/>
            <path id="Path_35683" data-name="Path 35683" d="M1423.9,722.87a18.631,18.631,0,0,1,7.306-14.794,18.674,18.674,0,0,1,10.3-34.254h3.752c-.018-.338-.051-.672-.051-1.015a18.678,18.678,0,0,1,18.678-18.678h4.552a18.678,18.678,0,0,1,18.678,18.678c0,.343-.033.677-.05,1.015h3.75a18.674,18.674,0,0,1,10.3,34.254,18.654,18.654,0,0,1-6.063,32.7,18.675,18.675,0,0,1-5.308,36.58h-4.288a21.111,21.111,0,0,1-38.586,0h-4.287a18.674,18.674,0,0,1-5.307-36.58,18.677,18.677,0,0,1-13.371-17.9" fill="#5e9b53"/>
            <path id="Path_35684" data-name="Path 35684" d="M1446.86,777.352h-4.287a18.674,18.674,0,0,1-5.308-36.58,18.654,18.654,0,0,1-6.064-32.7,18.674,18.674,0,0,1,10.3-34.254h3.751c-.018-.339-.051-.672-.051-1.015a18.678,18.678,0,0,1,18.678-18.679h2.276V789.892a21.12,21.12,0,0,1-19.293-12.54" fill="#4f8c45"/>
            <path id="Path_35685" data-name="Path 35685" d="M1460.951,852.158h10.4l-3.468-135.053h-3.468Z" fill="#a76e4d"/>
            <path id="Path_35686" data-name="Path 35686" d="M1466.154,852.159h-5.2l3.468-135.053h1.734Z" fill="#965b39"/>
            <path id="Path_35687" data-name="Path 35687" d="M1464.806,762.082l2.708-1.716-23.181-34.578-.9.572Z" fill="#a76e4d"/>
            <path id="Path_35688" data-name="Path 35688" d="M1466.16,761.224l-1.354.858-21.376-35.721.451-.286Z" fill="#965b39"/>
            <path id="Path_35689" data-name="Path 35689" d="M1467.5,772.127l-2.708-1.716,23.181-34.578.9.572Z" fill="#965b39"/>
            <path id="Path_35690" data-name="Path 35690" d="M1466.148,771.268l1.354.858,21.376-35.721-.451-.286Z" fill="#a76e4d"/>
            <path id="Path_35691" data-name="Path 35691" d="M1858.074,771.049l3.812-2.357-25-39.668-3.13,1.935Z" fill="#a76e4d"/>
            <path id="Path_35692" data-name="Path 35692" d="M1859.907,769.916l-1.833,1.133-24.316-40.089,1.493-.923Z" fill="#965b39"/>
            <path id="Path_35693" data-name="Path 35693" d="M1869.237,764.828l-3.812-2.357,25-39.668,3.13,1.935Z" fill="#a76e4d"/>
            <path id="Path_35694" data-name="Path 35694" d="M1867.4,763.694l1.833,1.133,24.316-40.089-1.493-.923Z" fill="#965b39"/>
            <path id="Path_35695" data-name="Path 35695" d="M1863.694,604.391h0a25.909,25.909,0,0,1,25.192,19.918,25.878,25.878,0,0,1,39.2,22.229v7.1a26.069,26.069,0,0,1-.394,4.359,25.922,25.922,0,0,1,16,23.945v7.1a25.884,25.884,0,0,1-31.429,25.319,25.827,25.827,0,0,1-30.937,26.712l-.674-.133a25.8,25.8,0,0,1-16.957,6.345Z" fill="#5e9b53"/>
            <path id="Path_35696" data-name="Path 35696" d="M1863.694,604.391h0a25.909,25.909,0,0,0-25.192,19.918,25.878,25.878,0,0,0-39.2,22.229v7.1A26.082,26.082,0,0,0,1799.7,658a25.922,25.922,0,0,0-16,23.945v7.1a25.883,25.883,0,0,0,31.429,25.319,25.827,25.827,0,0,0,30.937,26.712l.674-.133a25.8,25.8,0,0,0,16.957,6.345Z" fill="#4f8c45"/>
            <path id="Path_35697" data-name="Path 35697" d="M1857.226,840.987h12.935l-1.156-135.33h-10.623Z" fill="#a76e4d"/>
            <path id="Path_35698" data-name="Path 35698" d="M1863.447,840.987h-6.221l1.156-135.33h5.065Z" fill="#965b39"/>
            <path id="Path_35699" data-name="Path 35699" d="M1799.227,188.4H1646.449s60-69.945,152.778,0" fill="#63c3ef"/>
            <path id="Path_35700" data-name="Path 35700" d="M1547.992,196.1H1395.214s60-104.576,152.778,0" fill="#63c3ef"/>
            <path id="Path_35701" data-name="Path 35701" d="M1980.093,179.021v24.77h-949.51s63.43-104.02,165.4-42.31a61.62,61.62,0,0,0,41.77,7.89,170.808,170.808,0,0,1,62.35,1.68,74.308,74.308,0,0,0,30.65-.16c25.88-5.56,58.47-5.87,96.48,7.39a101.019,101.019,0,0,0,78.83-4.86c40.83-20.59,108.37-37.51,194.86,2.55a86.582,86.582,0,0,0,76.09-1.63c41.61-21.51,112.21-39.9,203.08,4.68" fill="#5bbcea"/>
          </g>
        </g>
      </g>
      <g id="Group_463" data-name="Group 463" transform="translate(-84 -17.491)">
        <g id="Group_462" data-name="Group 462" clip-path="url(#clip-path-2)">
          <path id="Path_16021" data-name="Path 16021" d="M308.657,794.214l.005-.037.258-35.429L330.061,216.27a62.686,62.686,0,0,0,13.273-25.916H16.07a62.869,62.869,0,0,0,17.465,30.365l.578,566.138a7.366,7.366,0,0,0,7.362,7.357h95.291a7.365,7.365,0,0,0,7.362-7.22L154.357,254.4h54.829l17.985,539.812Z" transform="translate(68.44 810.692)" fill="#414042"/>
          <path id="Path_16022" data-name="Path 16022" d="M47.015,254.4H77.4l7.636,532.555a7.367,7.367,0,0,0,7.368,7.257l91.914-.031a7.363,7.363,0,0,0,7.362-7.278L198.27,216.27a62.751,62.751,0,0,0,13.273-25.916H47.015Z" transform="translate(200.231 810.692)" fill="#2d2c2e"/>
          <path id="Path_16023" data-name="Path 16023" d="M103.353,94.577c-8.945,10.665-20.141,2.3-32.3,2.3-11.044,0-21.283,9.466-29.77.521v500.86h62.07Z" transform="translate(175.819 402.791)" fill="#e6e7e8"/>
          <path id="Path_16024" data-name="Path 16024" d="M82.819,135.538H50.561L42.31,95.692H91.791Z" transform="translate(180.193 407.538)" fill="#4f5257"/>
          <path id="Path_16025" data-name="Path 16025" d="M73.113,388.919,40.8,361.852,56.984,103.268H89.241L105.4,362.2Z" transform="translate(173.771 439.806)" fill="#3c3f42"/>
          <path id="Path_16026" data-name="Path 16026" d="M47.015,103.269V388.62L78.941,362.2,62.781,103.269Z" transform="translate(200.23 439.808)" fill="#292c2e"/>
          <path id="Path_16027" data-name="Path 16027" d="M42.617,96.3l-.074-.053.074.053" transform="translate(181.185 409.895)" fill="#414042"/>
          <path id="Path_16028" data-name="Path 16028" d="M50.9,96.975c.263-.174.526-.331.784-.515-.258.184-.521.342-.784.515" transform="translate(216.768 410.81)" fill="#414042"/>
          <path id="Path_16029" data-name="Path 16029" d="M159.712,121.6h0c-7.773-8.188-14.089-19.447-18.164-32.7-8.609,1.331-17.228,2.961-25.858,4.98-19.568,3.381-40.967,10.518-59.178,18.417a168.184,168.184,0,0,0-24.27,13.016L28.75,241.953,22.034,556.276a166.236,166.236,0,0,1-2.424,24.959l-6.053,34.85a5.444,5.444,0,0,0,5.364,6.374h140.79Z" transform="translate(57.39 378.588)" fill="#414042"/>
          <path id="Path_16030" data-name="Path 16030" d="M187.54,242.192l-6.884-117.977c-18.285-11.286-38.931-18.99-59.5-24.943-3.481-1.01-34.388-6.852-52.347-10.434-3.629,11.911-9.051,22.235-15.719,30.181V622.7h144.8a8.912,8.912,0,0,0,8.745-10.639l-5.853-29.523a190.269,190.269,0,0,1-3.539-31.006Z" transform="translate(226.09 378.349)" fill="#2d2c2e"/>
          <path id="Path_16031" data-name="Path 16031" d="M43.428,96.844c-.079-.047-.152-.1-.231-.153.079.053.153.105.231.153" transform="translate(183.97 411.798)" fill="#414042"/>
          <path id="Path_16032" data-name="Path 16032" d="M121.151,92.682l3.713,67.056-44.7,50.969L115.551,237.4,72.628,381.331l-19.542.883V133.57L97.7,159.738l12.621-69.354s9.913,1.9,10.828,2.3" transform="translate(226.086 384.933)" fill="#464547"/>
          <rect id="Rectangle_1134" data-name="Rectangle 1134" width="150.848" height="225.424" transform="matrix(0.971, -0.238, 0.238, 0.971, 149.092, 806.131)" fill="#316cc9"/>
          <rect id="Rectangle_1135" data-name="Rectangle 1135" width="150.847" height="225.421" transform="translate(169.252 771.5) rotate(-2.314)" fill="#6da5f5"/>
          <path id="Path_16033" data-name="Path 16033" d="M137.7,305.181H56.212l2.282,68.413a9.431,9.431,0,0,0,9.429,9.429H245.379c0-14.641-1.641-28.051-13.868-37.943-7.941-6.421-17.691-10.1-27.262-13.668-22.445-7.478-44.816-16.271-66.551-25.548l.005-.684Z" transform="translate(239.399 1299.725)" fill="#19181a"/>
          <path id="Path_16034" data-name="Path 16034" d="M48.2,383.022H181.658a9.431,9.431,0,0,0,9.429-9.429l2.75-68.413H111.794c-6.111,2.482-11.485,4.9-14.735,6.284-18.343,6.789-36.7,13.158-55.134,19.7C30.129,335.35,18.391,341.172,10.64,351A42.2,42.2,0,0,0,2.152,382.99c15.34.258,30.7.032,46.047.032" transform="translate(7.261 1299.721)" fill="#2d2c2e"/>
          <path id="Path_16035" data-name="Path 16035" d="M63.983,538.378A29.807,29.807,0,0,0,89.925,549.49c8.146-.7,15.64-4.612,22.7-8.74a186.258,186.258,0,0,0,19.353-12.406,23.807,23.807,0,0,0,5.764-5.853c1.178-1.7,3.024-7.289,4.654-8.162,5.054-2.714,9.371-4.328,14.457-7.641C281.2,425.712,269.331,298.873,227.286,174.233c-12.237-36.265-33.557-52.142-59.12-77.658-.615-.61-1.478-.042-1.988-.883a961.808,961.808,0,0,0-8.446,103.063c35.992,91.725,72.819,197.891-27.993,261.013-2.94,1.841-5.517,2.6-8.572,4.144-.21.105-.189-.063-1.062-.484C104.25,455.772,86.754,449.8,69.32,455.74a8.96,8.96,0,0,0-2.934,1.473c-2.682,2.288-2.84,8.151-1.262,11.117,1.914,3.587,6.437,5.206,10.244,4.644,5.138-.757,11.506-2.1,16.918-1.725-7.336,5.027-17.438,7.92-23.786,14.173-12.674,12.49-15.756,28.813-9,45.337a31.011,31.011,0,0,0,4.481,7.62" transform="translate(238.544 407.539)" fill="#d69c74"/>
          <path id="Path_16036" data-name="Path 16036" d="M188.529,485.425c-6.347-6.253-16.45-9.145-23.786-14.178l-2.782-16.8c-8.619,1.693-17.039,5.122-25.037,8.987-.873.421-.857.584-1.062.484-3.055-1.541-5.632-2.3-8.577-4.144C26.477,396.651,63.3,290.485,99.3,198.759A961.9,961.9,0,0,0,90.851,95.691c-.51.841-1.373.273-1.988.889C63.3,122.1,41.98,137.967,29.743,174.237-12.3,298.878-24.176,425.711,100.18,506.692c5.085,3.308,9.4,4.928,14.457,7.641,1.63.873,3.476,6.458,4.654,8.162a23.9,23.9,0,0,0,5.764,5.853,187.108,187.108,0,0,0,19.353,12.406c7.057,4.128,14.551,8.036,22.7,8.74a29.82,29.82,0,0,0,25.942-11.112,30.767,30.767,0,0,0,4.475-7.625c6.758-16.523,3.676-32.847-8.993-45.331" transform="translate(2.341 407.535)" fill="#d69c74"/>
          <path id="Path_16037" data-name="Path 16037" d="M134.957,467.587c65.993-78.841,49.165-190.439,14.467-293.292-12.237-36.27-35.066-52.426-60.635-77.942-.615-.615-3.308-.131-3.818-.973-4.838,34.293-9.171,70.4-10.313,104.983,28.025,71.431,59.72,149.709,23.37,211.512Z" transform="translate(317.963 406.211)" fill="#2d2c2e"/>
          <path id="Path_16038" data-name="Path 16038" d="M45,467.587C-21,388.746-4.167,277.147,30.531,174.295c12.232-36.27,35.066-52.426,60.635-77.942.61-.615,3.308-.131,3.818-.973,4.838,34.293,9.171,70.4,10.307,104.983-28.019,71.431-59.714,149.709-23.37,211.512Z" transform="translate(0.002 406.211)" fill="#414042"/>
          <path id="Path_16039" data-name="Path 16039" d="M119.712,126.326,44.058,170.695,30.154,94.3,77.216,87.81c9.024,18.211,21.409,28.061,42.5,38.516" transform="translate(128.422 373.971)" fill="#e6e7e8"/>
          <path id="Path_16040" data-name="Path 16040" d="M47.184,126.326l75.654,44.369,13.9-76.39L89.681,87.81c-9.024,18.211-21.409,28.061-42.5,38.516" transform="translate(200.95 373.971)" fill="#ccc"/>
          <path id="Path_16041" data-name="Path 16041" d="M44.241,267.7C62.71,343.652,118.212,402.194,187.387,416.9v30.838c-1.988.216-3.976.489-5.964.741,8.625,15.072,20.3,24.138,38.858,33.473.752,0,1.5.032,2.246.089,18.764-9.419,30.512-18.548,39.179-33.82-3.765-.673-6.106-.973-6.106-.684V416.9c69.175-14.7,124.677-73.245,143.146-149.194,20.483-6.847,37.99-32.826,37.99-53.9,0-19.447-14.925-28.792-33.331-31.821C393.45,77.648,316.3,4.161,221.5,4.161,129.05,4.161,52.566,81.4,39.581,181.984c-18.406,3.029-33.325,12.374-33.325,31.821,0,21.072,17.5,47.051,37.985,53.9" transform="translate(26.643 17.721)" fill="#d69c74"/>
          <path id="Path_16042" data-name="Path 16042" d="M93.289,185.762l-.752-18.574L54.3,162.765l14.315,34.914,22.929-8.956Z" transform="translate(231.276 693.196)" fill="#6da5f5"/>
          <path id="Path_16043" data-name="Path 16043" d="M31.147,93.784l-3.865,76.653,48.881,45.778L42.391,239.5l41.7,145.891,16.823-.678V133.646L56.29,159.815,43.653,90.366s-11.243,2.877-12.506,3.418" transform="translate(116.19 384.857)" fill="#5a595c"/>
          <path id="Path_16044" data-name="Path 16044" d="M389.442,272.379c-4.906-55.754-31.469-138.508-31.469-138.508s-63.69,34.693-143.288,4.959S97.107,109.091,70.171,128.917,18.113,272.379,18.113,272.379-10.595,141.1,41.079,80.13C100.2,10.366,197.209-33.13,297.422,32.012S399.881,204.534,399.881,204.534Z" transform="translate(43.273 -0.001)" fill="#272c2f"/>
          <path id="Path_16045" data-name="Path 16045" d="M229.818,181.984C219.863,77.648,142.711,4.161,47.9,4.161c-.295,0-.589.021-.889.021V481.95l1.983.063c18.727-9.413,30.459-18.538,39.121-33.793-3.765-.673-6.106-.973-6.106-.684V416.9c69.175-14.7,124.677-73.245,143.146-149.194,20.483-6.852,37.99-32.826,37.99-53.9,0-19.447-14.925-28.792-33.331-31.821" transform="translate(200.231 17.721)" fill="#c48f6a"/>
          <path id="Path_16046" data-name="Path 16046" d="M140.47,31.84C108.623,11.141,77.1,1.444,47.015.04V134.756c3.492,1.246,7.042,2.53,10.707,3.9,79.6,29.739,143.288-4.954,143.288-4.954s26.573,82.748,31.474,138.508l10.444-67.845S240.688,96.982,140.47,31.84" transform="translate(200.231 0.17)" fill="#0d0e0f"/>
          <path id="Path_16047" data-name="Path 16047" d="M47.015,135.538H62.781l8.972-39.846H47.015Z" transform="translate(200.23 407.538)" fill="#292c2e"/>
          <rect id="Rectangle_1136" data-name="Rectangle 1136" width="15.44" height="76.826" transform="translate(403.045 822.94) rotate(-42.931)" fill="#ccc"/>
          <rect id="Rectangle_1137" data-name="Rectangle 1137" width="83.584" height="15.443" transform="translate(37.94 876.389) rotate(-60.001)" fill="#e6e7e8"/>
        </g>
      </g>
    </g>
  </g>
</svg>
