<svg xmlns="http://www.w3.org/2000/svg" xmlns:xlink="http://www.w3.org/1999/xlink" width="1920" height="1080" viewBox="0 0 1920 1080">
  <defs>
    <clipPath id="clip-path">
      <rect id="Rectangle_1979" data-name="Rectangle 1979" width="1925.914" height="1096.595" transform="translate(367.389 2.757)" fill="none"/>
    </clipPath>
    <clipPath id="clip-Principle_2_1">
      <rect width="1920" height="1080"/>
    </clipPath>
  </defs>
  <g id="Principle_2_1" data-name="Principle 2 – 1" clip-path="url(#clip-Principle_2_1)">
    <rect width="1920" height="1080" fill="#fff"/>
    <g id="Background" transform="translate(-369.389 -10.757)">
      <rect id="Rectangle_1960" data-name="Rectangle 1960" width="1925.914" height="664.696" transform="translate(367.389 2.757)" fill="#fae3b0"/>
      <rect id="Rectangle_1961" data-name="Rectangle 1961" width="1925.914" height="470.098" transform="translate(367.389 2.757)" fill="#f6d078"/>
      <rect id="Rectangle_1962" data-name="Rectangle 1962" width="1925.914" height="274.094" transform="translate(367.389 2.757)" fill="#f5c55a"/>
      <g id="Group_592" data-name="Group 592">
        <g id="Group_591" data-name="Group 591" clip-path="url(#clip-path)">
          <path id="Path_25880" data-name="Path 25880" d="M1570.145,618.394c0-.174.013-.345.013-.519a93.891,93.891,0,0,0-156.849-69.659,147.026,147.026,0,0,0-289.382-16.464,93.907,93.907,0,0,0-131.314,86.123c0,.357.023.709.027,1.066a62.888,62.888,0,0,0,11.488,124.718h558.058a62.885,62.885,0,0,0,7.959-125.265" transform="translate(40 20)" fill="#fff"/>
          <path id="Path_25881" data-name="Path 25881" d="M1037.31,512.078c0-.109.008-.217.008-.326a58.935,58.935,0,0,0-58.109-58.924A92.308,92.308,0,0,0,798.2,478.387c0,1.439.044,2.868.109,4.29A58.94,58.94,0,0,0,688.1,511.752h-6.117a39.482,39.482,0,1,0,0,78.964h350.332a39.477,39.477,0,0,0,5-78.638" transform="translate(70 70)" fill="#fdf7e9"/>
          <path id="Path_25882" data-name="Path 25882" d="M1592.4,664.039h512.227s-201.151-329.955-512.227,0" fill="#f9dc9b"/>
          <rect id="Rectangle_1963" data-name="Rectangle 1963" width="1953" height="446.843" transform="translate(350.173 667.453)" fill="#3e89ff"/>
          <path id="Path_25883" data-name="Path 25883" d="M783.487,223.088c0-.044,0-.087,0-.131A23.618,23.618,0,0,0,760.2,199.344a36.991,36.991,0,0,0-72.537,10.243c0,.576.018,1.149.044,1.719a23.62,23.62,0,0,0-44.167,11.651h-2.452a15.823,15.823,0,0,0,0,31.645H781.485a15.82,15.82,0,0,0,2-31.514" transform="translate(-40)" fill="#fefaf0"/>
          <path id="Path_25884" data-name="Path 25884" d="M1168.027,587.522c-2.188.187-35.375,2.979-37.419,2.141l-94.5-38.7a20.251,20.251,0,0,0-13.615-.619L915.412,583.221l-73-12.5-121,16.5-75.3-16.5-36.7,14.5-115-44-144,59-.573,83.173,787.209-1.59,134.809-4.2Z" fill="#f6d078"/>
          <path id="Path_25885" data-name="Path 25885" d="M2287.413,541.222l-45,10-96,32-47-3-55,8-86.028-47-93.972,43-90.959-13.5-102.041,12.021-83.21-11.651a22.2,22.2,0,0,0-5.292-.1l-65.242,6.511a26.83,26.83,0,0,1-3.769.1l-34.607,52.3-40.968,15.319L1404.21,677.6H1513.9l789.513-1.375v-135Z" fill="#f6d078"/>
          <path id="Path_25886" data-name="Path 25886" d="M1131.418,1109.567h-430a18,18,0,0,1,0-36h430a18,18,0,0,1,0,36" fill="#2e7fff"/>
          <path id="Path_25887" data-name="Path 25887" d="M1673.212,1091.567h-430a18,18,0,0,1,0-36h430a18,18,0,0,1,0,36" fill="#2e7fff"/>
          <path id="Path_25888" data-name="Path 25888" d="M2358.993,1061.358h-430a18,18,0,0,1,0-36h430a18,18,0,0,1,0,36" fill="#2e7fff"/>
          <path id="Path_25889" data-name="Path 25889" d="M350.173,676.224H993.787s-250.04-410.137-643.614-74.8Z" fill="#f5c55a"/>
          <path id="Path_25890" data-name="Path 25890" d="M919.5,844.287h-430a18,18,0,1,1,0-36h430a18,18,0,0,1,0,36" fill="#2e7fff"/>
          <path id="Path_25891" data-name="Path 25891" d="M589.447,930.074h-430a18,18,0,0,1,0-36h430a18,18,0,0,1,0,36" fill="#2e7fff"/>
          <path id="Path_25892" data-name="Path 25892" d="M1286.8,922.061h-430a18,18,0,0,1,0-36h430a18,18,0,0,1,0,36" fill="#2e7fff"/>
          <path id="Path_25893" data-name="Path 25893" d="M1461.292,826.287h-430a18,18,0,0,1,0-36h430a18,18,0,0,1,0,36" fill="#2e7fff"/>
          <path id="Path_25894" data-name="Path 25894" d="M1892.2,904.061h-430a18,18,0,0,1,0-36h430a18,18,0,0,1,0,36" fill="#2e7fff"/>
          <path id="Path_25895" data-name="Path 25895" d="M2147.073,796.078h-430a18,18,0,0,1,0-36h430a18,18,0,0,1,0,36" fill="#2e7fff"/>
          <path id="Path_25896" data-name="Path 25896" d="M2299.027,685h-897.58a4.386,4.386,0,0,1,0-8.772h897.58a4.386,4.386,0,0,1,0,8.772" fill="#316cc9"/>
          <path id="Path_25897" data-name="Path 25897" d="M1278.771,685H352.179a4.386,4.386,0,0,1,0-8.772h926.592a4.386,4.386,0,0,1,0,8.772" fill="#316cc9"/>
          <path id="Path_25898" data-name="Path 25898" d="M1077.416,1059.234h-430a18,18,0,0,1,0-36h430a18,18,0,0,1,0,36" fill="#70a8ff"/>
          <path id="Path_25899" data-name="Path 25899" d="M1619.21,1041.234h-430a18,18,0,0,1,0-36h430a18,18,0,0,1,0,36" fill="#70a8ff"/>
          <path id="Path_25900" data-name="Path 25900" d="M2050.116,1119.008h-430a18,18,0,0,1,0-36h430a18,18,0,0,1,0,36" fill="#70a8ff"/>
          <path id="Path_25901" data-name="Path 25901" d="M2304.991,1011.025h-430a18,18,0,0,1,0-36h430a18,18,0,1,1,0,36" fill="#70a8ff"/>
          <path id="Path_25902" data-name="Path 25902" d="M778.052,803.3h-430a18,18,0,0,1,0-36h430a18,18,0,0,1,0,36" fill="#70a8ff"/>
          <path id="Path_25903" data-name="Path 25903" d="M448,889.09H18a18,18,0,0,1,0-36H448a18,18,0,0,1,0,36" fill="#70a8ff"/>
          <path id="Path_25904" data-name="Path 25904" d="M1145.348,881.076h-430a18,18,0,0,1,0-36h430a18,18,0,0,1,0,36" fill="#70a8ff"/>
          <path id="Path_25905" data-name="Path 25905" d="M1319.846,785.3h-430a18,18,0,0,1,0-36h430a18,18,0,0,1,0,36" fill="#70a8ff"/>
          <path id="Path_25906" data-name="Path 25906" d="M1750.752,863.076h-430a18,18,0,0,1,0-36h430a18,18,0,0,1,0,36" fill="#70a8ff"/>
          <path id="Path_25907" data-name="Path 25907" d="M2005.627,755.094h-430a18,18,0,0,1,0-36h430a18,18,0,0,1,0,36" fill="#70a8ff"/>
          <rect id="Rectangle_1964" data-name="Rectangle 1964" width="1956.963" height="454.453" transform="translate(322.79 961.642)" fill="#4fd3ff"/>
          <path id="Path_25908" data-name="Path 25908" d="M321.117,906.526l-7.158,32.949H2268.136l6.281-32.949Z" fill="#7db775"/>
          <path id="Path_25909" data-name="Path 25909" d="M321.117,923l-7.158,16.474H2268.136L2274.417,923Z" fill="#5e9b53"/>
          <path id="Path_25910" data-name="Path 25910" d="M308.667,1092.642l-7.247,32.949H2280.081l6.36-32.949Z" fill="#a76e4d"/>
          <path id="Path_25911" data-name="Path 25911" d="M303.265,934.8l-7.181,32.949H2256.551l6.3-32.949Z" fill="#a76e4d"/>
          <path id="Path_25912" data-name="Path 25912" d="M551.675,1212.99l81.21-140.711,16.31,9.711L567.985,1222.7Z" fill="#a76e4d"/>
          <path id="Path_25913" data-name="Path 25913" d="M1531.553,1060.569l68.961-119.522,16.31,9.711-68.961,119.522Z" fill="#a76e4d"/>
          <path id="Path_25914" data-name="Path 25914" d="M949.6,1058.459l68.961-119.522,16.31,9.711L965.906,1068.17Z" fill="#a76e4d"/>
          <path id="Path_25915" data-name="Path 25915" d="M1803.211,1223.392l81.21-140.711,16.31,9.711-81.21,140.711Z" fill="#a76e4d"/>
          <path id="Path_25916" data-name="Path 25916" d="M1162.083,1216.8l81.21-140.711,16.31,9.711-81.21,140.711Z" fill="#a76e4d"/>
          <path id="Path_25917" data-name="Path 25917" d="M318.619,1052.642l-7.239,40H2287.836l6.352-40Z" fill="#7db775"/>
          <path id="Path_25918" data-name="Path 25918" d="M318.619,1082.521l-7.239,10.121H2287.836l6.352-10.121Z" fill="#5e9b53"/>
          <path id="Path_25919" data-name="Path 25919" d="M643.166,1092.285l1.847,32.949-44.633,84.975H575.107Z" fill="#965b39"/>
          <path id="Path_25920" data-name="Path 25920" d="M1255.82,1092.285l1.847,32.949-44.633,84.975h-25.273Z" fill="#965b39"/>
          <path id="Path_25921" data-name="Path 25921" d="M1042.907,934.718l1.847,32.949-44.633,84.975H974.848Z" fill="#965b39"/>
          <path id="Path_25922" data-name="Path 25922" d="M1624.865,936.827l1.847,32.949-44.633,84.975h-25.273Z" fill="#965b39"/>
          <path id="Path_25923" data-name="Path 25923" d="M1900.736,1092.285l1.847,32.949-44.633,84.975h-25.273Z" fill="#965b39"/>
          <path id="Path_25924" data-name="Path 25924" d="M1316.447,979.235H1055.786a11.032,11.032,0,0,1-11.032-11.032v-.942a11.032,11.032,0,0,1,11.032-11.032h260.661a11.032,11.032,0,0,1,11.032,11.032v.942a11.032,11.032,0,0,1-11.032,11.032" fill="#5cb2db"/>
          <path id="Path_25925" data-name="Path 25925" d="M1331.792,970.94H1056.915a11.317,11.317,0,0,1-11.317-11.317v-.372a11.317,11.317,0,0,1,11.317-11.317h274.877a11.317,11.317,0,0,1,11.317,11.317v.372a11.317,11.317,0,0,1-11.317,11.317" fill="#986a4d"/>
          <path id="Path_25926" data-name="Path 25926" d="M1559.886,994.582H1275.523a11.5,11.5,0,0,1,0-23.006h284.363a11.5,11.5,0,1,1,0,23.006" fill="#5cb2db"/>
          <path id="Path_25927" data-name="Path 25927" d="M1574.67,982.443H1282.335a11.087,11.087,0,0,1-11.087-11.086v-.834a11.087,11.087,0,0,1,11.087-11.086H1574.67a11.086,11.086,0,0,1,11.086,11.086v.834a11.086,11.086,0,0,1-11.086,11.086" fill="#986a4d"/>
          <path id="Path_25928" data-name="Path 25928" d="M950.73,994.582H648.883a11.217,11.217,0,0,1-11.216-11.217v-.572a11.217,11.217,0,0,1,11.216-11.217H950.73a11.217,11.217,0,0,1,11.217,11.217v.572a11.217,11.217,0,0,1-11.217,11.217" fill="#5cb2db"/>
          <path id="Path_25929" data-name="Path 25929" d="M939.58,978.92H655.217a11.5,11.5,0,0,1,0-23.006H939.58a11.5,11.5,0,0,1,0,23.006" fill="#986a4d"/>
          <path id="Path_25930" data-name="Path 25930" d="M655.448,1006.085H322.883a11.5,11.5,0,0,1,0-23.006H655.448a11.5,11.5,0,0,1,0,23.006" fill="#5cb2db"/>
          <path id="Path_25931" data-name="Path 25931" d="M643.535,990.423H329.513a11.5,11.5,0,1,1,0-23.006H643.535a11.5,11.5,0,1,1,0,23.006" fill="#986a4d"/>
          <path id="Path_25932" data-name="Path 25932" d="M778.526,951.864a4.783,4.783,0,1,1-4.782-4.782,4.782,4.782,0,0,1,4.782,4.782" fill="#b2866d"/>
          <path id="Path_25933" data-name="Path 25933" d="M920.533,942.392c0,1.312-1.517,2.263-2.829,2.263a2.376,2.376,0,0,1-2.377-2.376c0-1.313,1.064-2.829,2.377-2.829a3.341,3.341,0,0,1,2.829,2.942" fill="#b2866d"/>
          <path id="Path_25934" data-name="Path 25934" d="M731.065,969.637c0,1.045-1.613,1.892-3.6,1.892s-3.6-.847-3.6-1.892,1.614-1.892,3.6-1.892,3.6.847,3.6,1.892" fill="#7f5032"/>
          <path id="Path_25935" data-name="Path 25935" d="M899.159,961.907c.472.932-.585,2.416-2.361,3.315s-3.6.871-4.069-.061.585-2.417,2.361-3.315,3.6-.871,4.069.061" fill="#965b39"/>
          <path id="Path_25936" data-name="Path 25936" d="M866.428,960.612a5.4,5.4,0,0,1-10.8,0c0-2.983,3.735-7.123,6.718-7.123s4.086,4.14,4.086,7.123" fill="#965b39"/>
          <path id="Path_25937" data-name="Path 25937" d="M581.871,969.637a4.783,4.783,0,1,1,4.782,4.782,4.782,4.782,0,0,1-4.782-4.782" fill="#b2866d"/>
          <path id="Path_25938" data-name="Path 25938" d="M370.122,967.077c0-1.312,1.517-2.263,2.829-2.263a2.376,2.376,0,0,1,2.377,2.376c0,1.313-1.064,2.829-2.377,2.829a3.341,3.341,0,0,1-2.829-2.942" fill="#b2866d"/>
          <path id="Path_25939" data-name="Path 25939" d="M634.064,953.6c0-1.045,1.613-1.892,3.6-1.892s3.6.847,3.6,1.892-1.614,1.892-3.6,1.892-3.6-.847-3.6-1.892" fill="#7f5032"/>
          <path id="Path_25940" data-name="Path 25940" d="M443.5,955.224c-.472-.932.585-2.416,2.361-3.315s3.6-.871,4.069.061-.585,2.417-2.361,3.315-3.6.871-4.069-.061" fill="#965b39"/>
          <path id="Path_25941" data-name="Path 25941" d="M502.828,955.368a5.4,5.4,0,0,1,10.8,0c0,2.984-3.735,7.124-6.718,7.124s-4.086-4.14-4.086-7.124" fill="#965b39"/>
          <path id="Path_25942" data-name="Path 25942" d="M1006.811,946.459a6.93,6.93,0,0,1-6.93,6.93c-3.828,0-8.221-3.277-8.221-7.1s4.393-8.2,8.221-8.2,6.93,4.545,6.93,8.373" fill="#965b39"/>
          <path id="Path_25943" data-name="Path 25943" d="M1301.169,958.715a4.783,4.783,0,1,1,4.782,4.782,4.782,4.782,0,0,1-4.782-4.782" fill="#b2866d"/>
          <path id="Path_25944" data-name="Path 25944" d="M1089.42,956.155c0-1.312,1.517-2.263,2.829-2.263a2.376,2.376,0,0,1,2.377,2.376c0,1.313-1.064,2.829-2.377,2.829a3.341,3.341,0,0,1-2.829-2.942" fill="#b2866d"/>
          <path id="Path_25945" data-name="Path 25945" d="M1353.361,942.675c0-1.045,1.613-1.892,3.6-1.892s3.6.847,3.6,1.892-1.614,1.892-3.6,1.892-3.6-.847-3.6-1.892" fill="#7f5032"/>
          <path id="Path_25946" data-name="Path 25946" d="M1162.8,944.3c-.472-.932.585-2.416,2.361-3.315s3.6-.871,4.069.061-.585,2.417-2.361,3.315-3.6.871-4.069-.061" fill="#965b39"/>
          <path id="Path_25947" data-name="Path 25947" d="M1222.126,944.446a5.4,5.4,0,0,1,10.8,0c0,2.983-3.735,7.123-6.718,7.123s-4.086-4.14-4.086-7.123" fill="#965b39"/>
          <path id="Path_25948" data-name="Path 25948" d="M1647.564,958.715a4.783,4.783,0,1,1,4.782,4.782,4.782,4.782,0,0,1-4.782-4.782" fill="#b2866d"/>
          <path id="Path_25949" data-name="Path 25949" d="M1397.135,956.494c0-1.312,1.517-2.262,2.829-2.262a2.376,2.376,0,0,1,2.377,2.375c0,1.313-1.064,2.829-2.377,2.829a3.341,3.341,0,0,1-2.829-2.942" fill="#b2866d"/>
          <path id="Path_25950" data-name="Path 25950" d="M1508.909,951.864c0-1.045,1.613-1.892,3.6-1.892s3.6.847,3.6,1.892-1.614,1.892-3.6,1.892-3.6-.847-3.6-1.892" fill="#7f5032"/>
          <path id="Path_25951" data-name="Path 25951" d="M1452.928,963.5c-.472-.932.585-2.416,2.361-3.315s3.6-.871,4.069.061-.585,2.417-2.361,3.315-3.6.871-4.069-.061" fill="#965b39"/>
          <path id="Path_25952" data-name="Path 25952" d="M1566.989,953.031a5.4,5.4,0,1,1,10.8,0c0,2.983-3.735,7.123-6.718,7.123s-4.085-4.14-4.085-7.123" fill="#965b39"/>
          <path id="Path_25953" data-name="Path 25953" d="M1527.95,1100.562c0-1.045,1.613-1.892,3.6-1.892s3.6.847,3.6,1.892-1.614,1.892-3.6,1.892-3.6-.847-3.6-1.892" fill="#7f5032"/>
          <path id="Path_25954" data-name="Path 25954" d="M852.8,1070.565h-28.93a16.8,16.8,0,0,1-1.61-2.509v-.01a8.9,8.9,0,0,1-1.03-5.88,5.98,5.98,0,0,1,1.08-2.351,4.2,4.2,0,0,1,.38-.469c.19-.211.39-.42.61-.62a17.75,17.75,0,0,1,2.54-2.02c.46-.31.939-.61,1.45-.9a27.832,27.832,0,0,1,3.19-1.551l.06-.029c.85-.341,1.739-.65,2.64-.911.23-.069.47-.129.7-.189a19.78,19.78,0,0,1,4.5-.64q.465-.015.93,0a13.369,13.369,0,0,1,2.21.23c.24.039.48.09.72.15.62.15,1.22.32,1.8.519a19.341,19.341,0,0,1,2.37.951c.39.18.76.37,1.119.57a19.2,19.2,0,0,1,3.261,2.27,15.157,15.157,0,0,1,3.5,4.25,10.4,10.4,0,0,1,1.1,2.94,5.485,5.485,0,0,1-2.59,6.2" fill="#a36f51"/>
          <path id="Path_25955" data-name="Path 25955" d="M836.225,1070.505c.01.02,0,.04,0,.06h-38.65a5.371,5.371,0,0,1,2.49-3.86,5.085,5.085,0,0,0,1.93-4.08c.04-5.06,6.67-9.18,18.55-4.52a8.663,8.663,0,0,0,1.48.44,7.9,7.9,0,0,0,1.28.18c.14.02.28.03.42.04a18.689,18.689,0,0,1,3.53.48q.765.18,1.47.42a6.576,6.576,0,0,1,.62.24,11.739,11.739,0,0,1,2.39,1.26,10.279,10.279,0,0,1,3.32,3.6,9.892,9.892,0,0,1,.95,2.42,9.618,9.618,0,0,1,.22,3.32" fill="#965b39"/>
          <path id="Path_25956" data-name="Path 25956" d="M835.165,1070.565h-10.53c-.26-.31-.53-.629-.82-.939-.48-.54-1-1.061-1.55-1.57v-.01a24.707,24.707,0,0,0-13.58-6.44s5.08-1.76,12.55.56c.64.2,1.3.43,1.97.69.2.08.41.17.61.25a35.013,35.013,0,0,1,5.52,2.92h.01c.11.08.22.15.33.22.48.319.95.65,1.43.99.73.53,1.47,1.11,2.22,1.73h.01c.6.5,1.22,1.03,1.83,1.6" fill="#41ae55"/>
          <path id="Path_25957" data-name="Path 25957" d="M830.035,1070.565h-3.36a47.473,47.473,0,0,1-2.86-6.019c-.23-.57-.43-1.13-.61-1.69-.36-1.05-.649-2.07-.89-3.041-.11-.43-.21-.849-.29-1.269a26.593,26.593,0,0,1-.26-10.32c.02-.091.03-.18.05-.27a13.725,13.725,0,0,1,1.04-3.33,30.676,30.676,0,0,0,.37,3.92v.01c.09.5.18,1,.29,1.49.09.42.19.839.3,1.26a29.137,29.137,0,0,0,2.03,5.4l.24.48c.37.71.76,1.4,1.17,2.06a31.806,31.806,0,0,0,1.95,2.84c-.01.52-.01,1.049,0,1.6.01.18.01.379.02.569q.03.872.12,1.771c.07.8.17,1.609.3,2.45v.04c.11.66.24,1.35.39,2.049" fill="#27a33e"/>
          <path id="Path_25958" data-name="Path 25958" d="M837.965,1069.425l-1.68,1.12-.04.02h-6.22c-.15-.7-.27-1.38-.38-2.05v-.04c-.13-.85-.24-1.66-.31-2.45-.05-.61-.09-1.2-.11-1.77-.01-.19-.01-.39-.02-.57-.01-.55-.01-1.08,0-1.6,0-.1.01-.2.01-.3.02-.65.07-1.28.13-1.88a26.682,26.682,0,0,1,1.14-5.65c.01-.02.01-.05.02-.07a19.041,19.041,0,0,1,3.77-7.01,25.649,25.649,0,0,0-1.09,6.14c-.04.63-.04,1.25-.03,1.86a23.479,23.479,0,0,0,.23,2.84,25.453,25.453,0,0,0,1.82,6.44q.51,1.17,1.08,2.22a27.474,27.474,0,0,0,1.68,2.75" fill="#27a33e"/>
          <path id="Path_25959" data-name="Path 25959" d="M863.875,1061.606a25.338,25.338,0,0,0-8.48,2.76,23.834,23.834,0,0,0-4.21,2.89,26.024,26.024,0,0,0-3.26,3.31H837.4c.29-.26.57-.52.86-.76,1.06-.94,2.11-1.77,3.14-2.52.62-.45,1.22-.87,1.82-1.26h.01a34.677,34.677,0,0,1,6.14-3.17c.62-.24,1.23-.45,1.82-.64a26.8,26.8,0,0,1,3.11-.79,20.119,20.119,0,0,1,9.58.18" fill="#41ae55"/>
          <path id="Path_25960" data-name="Path 25960" d="M851.185,1052.536a28.613,28.613,0,0,1-.39,4.64,35.486,35.486,0,0,1-1.43,5.68,45.872,45.872,0,0,1-3.47,7.71h-3.37c.04-.16.07-.32.1-.48.09-.42.17-.82.23-1.23.04-.24.08-.47.11-.71.08-.47.13-.92.18-1.37v-.01c.02-.12.03-.25.04-.37.01-.06.01-.12.02-.18s.01-.13.01-.19c.01-.09.02-.19.03-.29s.02-.19.03-.29c.07-1.02.1-2.01.09-2.95,0-.14,0-.27-.01-.41a31.492,31.492,0,0,0,4.18-7.18,30.754,30.754,0,0,0,1.07-3.07c.12-.41.22-.83.33-1.26a29.4,29.4,0,0,0,.77-5.95,18.318,18.318,0,0,1,1.48,7.91" fill="#27a33e"/>
          <path id="Path_25961" data-name="Path 25961" d="M843.365,1062.5c.01.94-.02,1.93-.09,2.95-.01.1-.02.2-.03.29a2.638,2.638,0,0,1-.02.29c-.01.06-.01.13-.02.19s-.01.12-.02.18c-.01.12-.02.25-.04.37v.01c-.05.45-.1.9-.18,1.37-.03.24-.07.47-.11.71-.06.41-.14.81-.23,1.23-.03.16-.05.32-.09.48h-6.22l-.03-.02-.06-.04-1.62-1.08c.47-.69.94-1.44,1.4-2.24.09-.17.19-.34.28-.51.22-.41.44-.84.65-1.29a25.131,25.131,0,0,0,2.22-7.22,24.2,24.2,0,0,0,.16-5.68,26.083,26.083,0,0,0-.37-2.68q-.255-1.29-.66-2.64a11.922,11.922,0,0,1,1.03,1.32,20.939,20.939,0,0,1,2.21,4.23c.26.65.5,1.36.73,2.14a26.828,26.828,0,0,1,.96,5.02c.08.83.14,1.71.15,2.62" fill="#27a33e"/>
          <path id="Path_25962" data-name="Path 25962" d="M838.435,1070.565h-8.96c.08-.649.13-1.329.17-2.049v-.04c.04-.71.05-1.46.03-2.23a26.283,26.283,0,0,0-.46-4.46c-.13-.7-.29-1.41-.49-2.12a24.445,24.445,0,0,0-1.43-3.86,24.739,24.739,0,0,0-3.48-5.41,3.272,3.272,0,0,0-.3-.35,24.625,24.625,0,0,0-1.75-1.82c-.15-.15-.3-.3-.46-.44a5.216,5.216,0,0,1,.51.17,14.919,14.919,0,0,1,1.41.59v.01c.19.079.39.19.59.29a24.194,24.194,0,0,1,6.69,5.34c.01.009.02.03.04.04a30.9,30.9,0,0,1,2.1,2.68c.25.36.5.729.74,1.11a34.079,34.079,0,0,1,2.59,4.95c.34.77.66,1.58.96,2.419a45.509,45.509,0,0,1,1.32,4.421c.06.25.12.509.18.759" fill="#41ae55"/>
          <path id="Path_25963" data-name="Path 25963" d="M842.515,1041.565a28.973,28.973,0,0,0-3.2,6.921c-.13.44-.26.88-.37,1.32-.23.9-.42,1.8-.56,2.68a31.459,31.459,0,0,0-.32,7.12c-.01.02-.02.029-.02.04-.12.16-.23.33-.35.5-.1.15-.21.3-.31.46l-.42.66-.27.45c-.15.24-.3.49-.44.75-.09.16-.18.33-.28.5-.02.039-.04.08-.07.13-.11.21-.23.43-.34.65s-.23.44-.34.67a.073.073,0,0,0-.02.04c-.05.109-.1.21-.15.31-.11.239-.23.489-.34.739-.08.181-.16.361-.24.551s-.17.37-.24.56c-.04.09-.08.18-.12.28-.12.28-.23.57-.34.87-.15.39-.3.79-.44,1.2-.09.25-.18.5-.27.76s-.18.56-.27.839h-1.74c-.01-1.149.01-2.259.05-3.329a51.079,51.079,0,0,1,.63-6.07,41.68,41.68,0,0,1,.91-4.26c.16-.6.33-1.17.51-1.73.23-.72.47-1.4.73-2.05,3.39-8.71,8.63-11.561,8.63-11.561" fill="#27a33e"/>
          <path id="Path_25964" data-name="Path 25964" d="M850.575,1050.036c-.7.59-1.36,1.19-1.97,1.8a25.1,25.1,0,0,0-2.19,2.5,24.363,24.363,0,0,0-3.2,5.54,26.024,26.024,0,0,0-1.82,7.41,31.284,31.284,0,0,0-.14,3.28h-8.46c.09-.28.18-.57.27-.84s.17-.51.26-.76c.07-.21.15-.41.22-.61s.15-.39.23-.59.15-.39.22-.58c.04-.1.08-.2.12-.29s.08-.19.12-.28c.07-.19.16-.38.24-.56s.16-.37.24-.55.16-.36.24-.53c.03-.07.07-.14.1-.21.05-.11.1-.21.15-.31a.076.076,0,0,1,.02-.04c.11-.23.22-.45.34-.67s.23-.44.34-.65c.03-.05.05-.09.07-.13.1-.17.19-.34.28-.5.14-.26.29-.51.44-.75l.27-.45.42-.66c.1-.16.21-.31.31-.46.12-.17.23-.34.35-.5,0-.01.01-.02.02-.04.36-.5.72-.99,1.09-1.44a27.138,27.138,0,0,1,3.1-3.31c.61-.55,1.21-1.03,1.79-1.47a22.494,22.494,0,0,1,4.89-2.81,10.834,10.834,0,0,1,1.64-.54" fill="#41ae55"/>
          <path id="Path_25965" data-name="Path 25965" d="M1258.265,911.388c-31.674-35.451-60.542-53.13-86.022-59.722-11.339-4.06-68.4-14.484-93.826-14.484L313.952,803.388v108h944.313Z" fill="#7db775"/>
          <path id="Path_25966" data-name="Path 25966" d="M1360.52,1211.126c31.674-56.9,60.542-85.275,86.022-95.855,11.339-6.517,68.4-23.248,93.826-23.248l764.465-54.24v173.343H1360.52Z" fill="#7db775"/>
          <path id="Path_25967" data-name="Path 25967" d="M375.983,769.726c-7.889,1.964-13.649,8.094-13.649,15.364,0,8.853,8.537,16.03,19.066,16.03h4.377a20.761,20.761,0,0,0,13.092,9.887v47.982h13.2V811.007a20.763,20.763,0,0,0,13.092-9.887h4.376a22.123,22.123,0,0,0,7.483-1.285c.437.147.883.278,1.335.4v54.313h13.2V806.227a21.625,21.625,0,0,0,10.4,2.6h3.829c-.018.29-.052.577-.052.871,0,7.615,6.321,13.975,14.788,15.61V869.29h13.2V825.313c8.467-1.635,14.788-8,14.788-15.61,0-.294-.034-.581-.053-.871h3.777v5.193h13.2v-9.636a16.813,16.813,0,0,0,3.393-3.64c5.818,7.089,16.281,10.98,26.965,9.186l.688-.115a28.442,28.442,0,0,0,10.707,4.737v47.936h13.2V814.557a28.444,28.444,0,0,0,10.706-4.737l.689.115c14.328,2.406,28.263-5.41,31.125-17.457a18.746,18.746,0,0,0,.453-5.468,31.307,31.307,0,0,0,5.626.516,31.637,31.637,0,0,0,4.02-.256v50.966h13.2V793.393h1.61a21.888,21.888,0,0,0,8.852,1.84h4.377a20.756,20.756,0,0,0,13.092,9.886v54.314h13.2V805.119a20.762,20.762,0,0,0,13.092-9.886h2.326c4.669,6.307,12.986,10.508,22.473,10.508a31.305,31.305,0,0,0,5.625-.515,18.778,18.778,0,0,0,.454,5.468c2.861,12.047,16.8,19.863,31.125,17.457l.688-.116a28.434,28.434,0,0,0,10.707,4.738v41.1h13.2v-41.1a28.422,28.422,0,0,0,10.706-4.738l.689.116c14.329,2.406,28.264-5.41,31.125-17.457a18.78,18.78,0,0,0,.454-5.468,31.123,31.123,0,0,0,11.67-.075v38.6h11.787V799.928c5.3-4.068,8.624-9.922,8.624-16.431v-.089c.317-.233.63-.472.933-.72l.615.115c12.791,2.406,25.23-5.41,27.785-17.457a20.961,20.961,0,0,0,.4-5.468,25.048,25.048,0,0,0,5.022.516,24.075,24.075,0,0,0,19-9.035c.667,7.036,6.727,12.782,14.71,14.323v75.479h13.2V767.615a24.75,24.75,0,0,0,9.775,2,25.12,25.12,0,0,0,5.022-.515,20.956,20.956,0,0,0,.4,5.467c2.555,12.048,14.994,19.863,27.785,17.458l.615-.116a24.146,24.146,0,0,0,9.557,4.737v56.33h11.787v-56.33a24.146,24.146,0,0,0,9.557-4.737l.615.116c12.791,2.405,25.23-5.41,27.785-17.458a20.948,20.948,0,0,0,.4-5.467,25.12,25.12,0,0,0,5.022.515c13.043,0,23.617-9.959,23.617-22.245v-6.092c0-9.269-6.023-17.208-14.581-20.55a21.093,21.093,0,0,0,.359-3.742v-6.093c0-12.285-10.573-22.243-23.616-22.243a24.565,24.565,0,0,0-12.1,3.167c-2.47-9.8-11.8-17.094-22.955-17.094s-20.484,7.3-22.954,17.094a24.522,24.522,0,0,0-7.14-2.664c4.6-2.925,7.577-7.548,7.577-12.77,0-8.853-8.537-16.03-19.066-16.03h-4.376c-3.362-6.338-10.907-10.761-19.694-10.761s-16.332,4.423-19.694,10.761h-4.376c-10.529,0-19.066,7.177-19.066,16.03a13.862,13.862,0,0,0,1.863,6.886,24.772,24.772,0,0,0-25.361-.669c-2.47-9.8-11.8-17.094-22.954-17.094S827.1,672.8,824.634,682.6a24.541,24.541,0,0,0-10.933-3.129,13.862,13.862,0,0,0,1.833-6.834c0-8.853-8.537-16.03-19.067-16.03h-4.376c-3.361-6.338-10.907-10.762-19.693-10.762S756.066,650.265,752.7,656.6h-4.376a22.781,22.781,0,0,0-2.945.21c7.18-2.3,12.286-8.129,12.286-14.973,0-8.854-8.536-16.03-19.066-16.03h-4.376c-3.362-6.338-10.907-10.762-19.693-10.762S698.2,619.472,694.84,625.81h-4.376c-10.031,0-18.236,6.517-18.992,14.789a22.569,22.569,0,0,0-3.307-.257h-3.829c.019-.291.052-.577.052-.871,0-8.854-8.536-16.03-19.066-16.03h-4.646c-8.505,0-15.7,4.684-18.16,11.15a21.3,21.3,0,0,0-19.963-14.741,20.332,20.332,0,0,0-10.863,3.167c-2.218-9.8-10.591-17.093-20.608-17.093s-18.391,7.3-20.609,17.093a20.332,20.332,0,0,0-10.863-3.167c-11.71,0-21.2,9.959-21.2,22.244v1.979H516.52a22.469,22.469,0,0,0-4.495.466v-.183c0-12.285-11.845-22.243-26.456-22.243a30.117,30.117,0,0,0-13.556,3.167c-2.767-9.8-13.215-17.094-25.714-17.094s-22.948,7.3-25.715,17.094a30.116,30.116,0,0,0-13.555-3.167c-14.611,0-26.456,9.958-26.456,22.243v6.093a18.939,18.939,0,0,0,.4,3.742c-9.586,3.342-16.334,11.28-16.334,20.55v6.092c0,11.131,9.723,20.352,22.418,21.987a14.153,14.153,0,0,0-2.978,8.578c0,.293.034.58.052.87H380.3c-10.529,0-19.065,7.177-19.065,16.03,0,5.585,3.4,10.5,8.553,13.367-4.528,2.932-7.458,7.521-7.458,12.7,0,7.27,5.76,13.4,13.649,15.364M907.69,691.743a21.122,21.122,0,0,0-3.345,1.147,21.821,21.821,0,0,0-1.8-3.182,20.742,20.742,0,0,0,5.141,2.035M736.72,716.058c-.293.162-.578.334-.86.51.027-.344.063-.686.063-1.036l0-.022q.391.282.8.548m-14.661,14.885c.437-.1.865-.225,1.289-.354a24.811,24.811,0,0,0-2.213,1.922v-.457c.324-.36.636-.728.924-1.111" fill="#417e37"/>
          <path id="Path_25968" data-name="Path 25968" d="M328.517,779.033c-7.889,1.964-13.649,8.094-13.649,15.364,0,8.853,8.537,16.03,19.066,16.03h4.377a20.761,20.761,0,0,0,13.092,9.887v37.074h13.2V820.314a20.763,20.763,0,0,0,13.092-9.887h4.376a22.123,22.123,0,0,0,7.483-1.285c.437.147.883.278,1.335.4v38.979h13.2V815.534a21.625,21.625,0,0,0,10.4,2.6h3.829c-.018.29-.052.577-.052.871,0,7.615,6.321,13.975,14.788,15.61v39.249h13.2V834.62c8.467-1.635,14.788-8,14.788-15.61,0-.294-.034-.581-.053-.871h3.777v5.193h13.2V813.7a16.814,16.814,0,0,0,3.393-3.64c5.818,7.089,16.281,10.98,26.965,9.186l.688-.115a28.443,28.443,0,0,0,10.707,4.737V871.8h13.2V823.864a28.445,28.445,0,0,0,10.706-4.737l.689.115c14.328,2.406,28.263-5.41,31.125-17.457a18.745,18.745,0,0,0,.453-5.468,31.307,31.307,0,0,0,5.626.516,31.637,31.637,0,0,0,4.02-.256v50.966h13.2V802.7h1.61a21.888,21.888,0,0,0,8.852,1.84H613.6a20.756,20.756,0,0,0,13.092,9.886v41.5h13.2v-41.5a20.762,20.762,0,0,0,13.092-9.886h2.326c4.669,6.307,12.986,10.508,22.473,10.508a31.305,31.305,0,0,0,5.625-.515,18.778,18.778,0,0,0,.454,5.468c2.861,12.047,16.8,19.863,31.125,17.457l.688-.116a28.435,28.435,0,0,0,10.707,4.738v41.1h13.2v-41.1a28.423,28.423,0,0,0,10.706-4.738l.689.116c14.329,2.406,28.264-5.41,31.125-17.457a18.778,18.778,0,0,0,.454-5.468,31.126,31.126,0,0,0,11.67-.075v38.6h11.787V809.235c5.3-4.068,8.624-9.922,8.624-16.431v-.089c.317-.233.63-.472.933-.72l.615.115c12.791,2.406,25.23-5.41,27.785-17.457a20.961,20.961,0,0,0,.4-5.468,25.048,25.048,0,0,0,5.022.516,24.075,24.075,0,0,0,19-9.035c.667,7.036,6.727,12.782,14.71,14.323v75.479h13.2V776.922a24.75,24.75,0,0,0,9.775,2,25.124,25.124,0,0,0,5.022-.515,20.956,20.956,0,0,0,.4,5.467c2.555,12.048,14.994,19.863,27.785,17.458l.615-.116a24.144,24.144,0,0,0,9.557,4.737v56.33h11.787v-56.33a24.144,24.144,0,0,0,9.557-4.737l.615.116c12.791,2.4,25.23-5.41,27.785-17.458a20.956,20.956,0,0,0,.4-5.467,25.124,25.124,0,0,0,5.022.515c13.043,0,23.617-9.959,23.617-22.245v-6.092c0-9.269-6.023-17.208-14.581-20.55a21.1,21.1,0,0,0,.359-3.742V720.2c0-12.285-10.573-22.243-23.616-22.243a24.566,24.566,0,0,0-12.1,3.167c-2.47-9.8-11.8-17.094-22.955-17.094s-20.484,7.3-22.954,17.094a24.522,24.522,0,0,0-7.14-2.664c4.6-2.925,7.577-7.548,7.577-12.77,0-8.853-8.537-16.03-19.066-16.03h-4.376c-3.362-6.337-10.907-10.761-19.694-10.761s-16.332,4.424-19.694,10.761h-4.376c-10.529,0-19.066,7.177-19.066,16.03a13.862,13.862,0,0,0,1.863,6.886,24.772,24.772,0,0,0-25.361-.669c-2.47-9.8-11.8-17.094-22.954-17.094s-20.485,7.3-22.955,17.094a24.541,24.541,0,0,0-10.933-3.129,13.859,13.859,0,0,0,1.833-6.834c0-8.853-8.537-16.03-19.067-16.03h-4.376c-3.361-6.338-10.907-10.762-19.693-10.762s-16.332,4.424-19.694,10.762h-4.376a22.782,22.782,0,0,0-2.945.21c7.18-2.3,12.286-8.129,12.286-14.973,0-8.853-8.536-16.03-19.066-16.03h-4.376c-3.362-6.338-10.907-10.762-19.693-10.762s-16.332,4.424-19.694,10.762H643c-10.031,0-18.236,6.517-18.992,14.789a22.569,22.569,0,0,0-3.307-.257H616.87c.019-.291.052-.577.052-.871,0-8.854-8.536-16.03-19.066-16.03H593.21c-8.505,0-15.7,4.684-18.16,11.15a21.3,21.3,0,0,0-19.963-14.741,20.324,20.324,0,0,0-10.863,3.168c-2.218-9.8-10.591-17.094-20.608-17.094s-18.391,7.3-20.609,17.094a20.324,20.324,0,0,0-10.863-3.168c-11.71,0-21.2,9.959-21.2,22.244v1.978h-1.887a22.47,22.47,0,0,0-4.495.467v-.183c0-12.285-11.845-22.243-26.456-22.243a30.117,30.117,0,0,0-13.556,3.167c-2.767-9.8-13.215-17.094-25.714-17.094s-22.948,7.3-25.715,17.094a30.116,30.116,0,0,0-13.555-3.167c-14.611,0-26.456,9.958-26.456,22.243v6.093a18.922,18.922,0,0,0,.4,3.741c-9.586,3.343-16.334,11.281-16.334,20.551v6.092c0,11.131,9.723,20.352,22.418,21.987a14.153,14.153,0,0,0-2.978,8.578c0,.293.034.58.052.87h-3.829c-10.529,0-19.065,7.177-19.065,16.03,0,5.585,3.4,10.5,8.553,13.367-4.528,2.932-7.458,7.521-7.458,12.7,0,7.27,5.76,13.4,13.649,15.364M860.224,701.05a21.115,21.115,0,0,0-3.345,1.147,21.827,21.827,0,0,0-1.8-3.182,20.742,20.742,0,0,0,5.141,2.035m-170.97,24.315c-.293.162-.578.334-.86.51.027-.344.063-.686.063-1.036l0-.022q.391.282.8.548M674.593,740.25c.437-.1.865-.225,1.289-.354a24.811,24.811,0,0,0-2.213,1.922v-.457c.324-.36.636-.728.924-1.111" fill="#47823e"/>
          <path id="Path_25969" data-name="Path 25969" d="M638.925,819.39l-3.3-2.039,21.623-34.314,2.708,1.674Z" fill="#a76e4d"/>
          <path id="Path_25970" data-name="Path 25970" d="M637.34,818.41l1.586.98,21.033-34.678-1.291-.8Z" fill="#965b39"/>
          <path id="Path_25971" data-name="Path 25971" d="M629.269,814.008l3.3-2.039-21.623-34.314-2.707,1.674Z" fill="#a76e4d"/>
          <path id="Path_25972" data-name="Path 25972" d="M630.854,813.028l-1.586.98L608.235,779.33l1.291-.8Z" fill="#965b39"/>
          <path id="Path_25973" data-name="Path 25973" d="M634.064,675.227h0a22.413,22.413,0,0,0-21.792,17.229,22.386,22.386,0,0,0-33.907,19.228v6.142a22.53,22.53,0,0,0,.341,3.771,22.421,22.421,0,0,0-13.842,20.713v6.141a22.389,22.389,0,0,0,27.187,21.9,22.344,22.344,0,0,0,26.762,23.107l.583-.116a22.314,22.314,0,0,0,14.668,5.489Z" fill="#5e9b53"/>
          <path id="Path_25974" data-name="Path 25974" d="M634.064,675.227h0a22.413,22.413,0,0,1,21.792,17.229,22.386,22.386,0,0,1,33.907,19.228v6.142a22.53,22.53,0,0,1-.341,3.771,22.421,22.421,0,0,1,13.842,20.713v6.141a22.389,22.389,0,0,1-27.187,21.9,22.344,22.344,0,0,1-26.762,23.107l-.583-.116a22.314,22.314,0,0,1-14.668,5.489Z" fill="#4f8c45"/>
          <path id="Path_25975" data-name="Path 25975" d="M639.658,879.888H628.469l1-117.064h9.189Z" fill="#a76e4d"/>
          <path id="Path_25976" data-name="Path 25976" d="M634.277,879.888h5.381l-1-117.064h-4.381Z" fill="#965b39"/>
          <path id="Path_25977" data-name="Path 25977" d="M923.528,801.115l-3.3-2.039,21.623-34.314,2.708,1.674Z" fill="#a76e4d"/>
          <path id="Path_25978" data-name="Path 25978" d="M921.942,800.135l1.586.98,21.033-34.678-1.291-.8Z" fill="#965b39"/>
          <path id="Path_25979" data-name="Path 25979" d="M913.871,795.734l3.3-2.039-21.623-34.314-2.707,1.674Z" fill="#a76e4d"/>
          <path id="Path_25980" data-name="Path 25980" d="M915.457,794.754l-1.586.98-21.033-34.678,1.291-.8Z" fill="#965b39"/>
          <path id="Path_25981" data-name="Path 25981" d="M918.666,656.952h0a22.412,22.412,0,0,0-21.792,17.229,22.386,22.386,0,0,0-33.907,19.228v6.142a22.53,22.53,0,0,0,.341,3.771,22.421,22.421,0,0,0-13.842,20.713v6.141a22.39,22.39,0,0,0,27.187,21.9,22.344,22.344,0,0,0,26.762,23.107l.583-.116a22.314,22.314,0,0,0,14.668,5.489Z" fill="#5e9b53"/>
          <path id="Path_25982" data-name="Path 25982" d="M918.666,656.952h0a22.413,22.413,0,0,1,21.792,17.229,22.386,22.386,0,0,1,33.907,19.228v6.142a22.53,22.53,0,0,1-.341,3.771,22.421,22.421,0,0,1,13.842,20.713v6.141a22.39,22.39,0,0,1-27.187,21.9,22.344,22.344,0,0,1-26.762,23.107l-.583-.116a22.314,22.314,0,0,1-14.668,5.489Z" fill="#4f8c45"/>
          <path id="Path_25983" data-name="Path 25983" d="M924.261,861.614H913.072l1-117.064h9.189Z" fill="#a76e4d"/>
          <path id="Path_25984" data-name="Path 25984" d="M918.88,861.614h5.381l-1-117.064H918.88Z" fill="#965b39"/>
          <path id="Path_25985" data-name="Path 25985" d="M797.386,761.966a16.114,16.114,0,0,0-6.32-12.8,16.154,16.154,0,0,0-8.908-29.631h-3.245c.015-.293.044-.581.044-.878A16.158,16.158,0,0,0,762.8,702.5h-3.937a16.157,16.157,0,0,0-16.157,16.157c0,.3.028.585.044.878H739.5a16.153,16.153,0,0,0-8.908,29.631,16.137,16.137,0,0,0,5.246,28.283,16.154,16.154,0,0,0,4.591,31.643h3.709a18.262,18.262,0,0,0,33.378,0h3.709a16.154,16.154,0,0,0,4.591-31.643,16.158,16.158,0,0,0,11.566-15.486" fill="#5e9b53"/>
          <path id="Path_25986" data-name="Path 25986" d="M777.52,809.095h3.709a16.154,16.154,0,0,0,4.591-31.643,16.137,16.137,0,0,0,5.246-28.283,16.154,16.154,0,0,0-8.908-29.631h-3.245c.015-.292.044-.581.044-.877A16.158,16.158,0,0,0,762.8,702.5h-1.968V819.942a18.27,18.27,0,0,0,16.689-10.847" fill="#4f8c45"/>
          <path id="Path_25987" data-name="Path 25987" d="M765.331,873.8h-9l3-116.824h3Z" fill="#a76e4d"/>
          <path id="Path_25988" data-name="Path 25988" d="M760.831,873.8h4.5l-3-116.824h-1.5Z" fill="#965b39"/>
          <path id="Path_25989" data-name="Path 25989" d="M762,795.885l-2.342-1.485,20.052-29.91.781.495Z" fill="#a76e4d"/>
          <path id="Path_25990" data-name="Path 25990" d="M760.826,795.143l1.171.742,18.491-30.9-.39-.247Z" fill="#965b39"/>
          <path id="Path_25991" data-name="Path 25991" d="M759.665,804.574l2.342-1.485-20.052-29.91-.781.495Z" fill="#965b39"/>
          <path id="Path_25992" data-name="Path 25992" d="M760.836,803.832l-1.171.742-18.491-30.9.39-.247Z" fill="#a76e4d"/>
          <path id="Path_25993" data-name="Path 25993" d="M382.458,806.854l-3.3-2.039L400.784,770.5l2.707,1.674Z" fill="#a76e4d"/>
          <path id="Path_25994" data-name="Path 25994" d="M380.872,805.873l1.586.98,21.033-34.678-1.291-.8Z" fill="#965b39"/>
          <path id="Path_25995" data-name="Path 25995" d="M372.8,801.472l3.3-2.039-21.623-34.314-2.707,1.674Z" fill="#a76e4d"/>
          <path id="Path_25996" data-name="Path 25996" d="M374.387,800.492l-1.586.98-21.033-34.678,1.291-.8Z" fill="#965b39"/>
          <path id="Path_25997" data-name="Path 25997" d="M377.6,662.691h0A22.411,22.411,0,0,0,355.8,679.92,22.387,22.387,0,0,0,321.9,699.148v6.142a22.53,22.53,0,0,0,.341,3.771A22.421,22.421,0,0,0,308.4,729.774v6.141a22.389,22.389,0,0,0,27.187,21.9,22.344,22.344,0,0,0,26.762,23.107l.583-.116A22.314,22.314,0,0,0,377.6,786.3Z" fill="#5e9b53"/>
          <path id="Path_25998" data-name="Path 25998" d="M377.6,662.691h0a22.413,22.413,0,0,1,21.792,17.229A22.386,22.386,0,0,1,433.3,699.148v6.142a22.533,22.533,0,0,1-.341,3.771A22.421,22.421,0,0,1,446.8,729.774v6.141a22.389,22.389,0,0,1-27.187,21.9,22.344,22.344,0,0,1-26.762,23.107l-.583-.116A22.314,22.314,0,0,1,377.6,786.3Z" fill="#4f8c45"/>
          <path id="Path_25999" data-name="Path 25999" d="M383.191,867.352H372l1-117.064h9.189Z" fill="#a76e4d"/>
          <path id="Path_26000" data-name="Path 26000" d="M377.81,867.352h5.381l-1-117.064H377.81Z" fill="#965b39"/>
          <rect id="Rectangle_1965" data-name="Rectangle 1965" width="8.892" height="47.335" transform="translate(698.818 853.648)" fill="#a76e4d"/>
          <rect id="Rectangle_1966" data-name="Rectangle 1966" width="4.326" height="47.335" transform="translate(703.384 853.648)" fill="#965b39"/>
          <path id="Path_26001" data-name="Path 26001" d="M703.264,856.432h0a17.809,17.809,0,0,0,17.317-13.692,17.79,17.79,0,0,0,26.946-15.28v-4.88a17.924,17.924,0,0,0-.271-3,17.818,17.818,0,0,0,11-16.46v-4.88a17.794,17.794,0,0,0-21.606-17.4,17.753,17.753,0,0,0-21.266-18.362l-.464.092a17.73,17.73,0,0,0-11.656-4.362Z" fill="#4f8c45"/>
          <path id="Path_26002" data-name="Path 26002" d="M703.264,856.432h0a17.809,17.809,0,0,1-17.317-13.692A17.79,17.79,0,0,1,659,827.46v-4.88a17.931,17.931,0,0,1,.271-3,17.818,17.818,0,0,1-11-16.46v-4.88a17.794,17.794,0,0,1,21.606-17.4,17.753,17.753,0,0,1,21.266-18.362l.464.092a17.73,17.73,0,0,1,11.656-4.362Z" fill="#5e9b53"/>
          <rect id="Rectangle_1967" data-name="Rectangle 1967" width="11.189" height="59.564" transform="translate(862.811 800.858)" fill="#a76e4d"/>
          <rect id="Rectangle_1968" data-name="Rectangle 1968" width="5.443" height="59.564" transform="translate(868.557 800.858)" fill="#965b39"/>
          <path id="Path_26003" data-name="Path 26003" d="M904.557,756.328c0,35.123-16.118,45.888-36,45.888s-36-10.765-36-45.888,16.118-81.3,36-81.3,36,46.179,36,81.3" fill="#5e9b53"/>
          <path id="Path_26004" data-name="Path 26004" d="M868.557,675.027c-.045,0-.089,0-.134.005V802.214l.134,0c19.882,0,36-10.765,36-45.887s-16.118-81.3-36-81.3" fill="#4f8c45"/>
          <rect id="Rectangle_1969" data-name="Rectangle 1969" width="11.189" height="59.564" transform="translate(1033.494 816.679)" fill="#a76e4d"/>
          <rect id="Rectangle_1970" data-name="Rectangle 1970" width="5.443" height="59.564" transform="translate(1039.24 816.679)" fill="#965b39"/>
          <path id="Path_26005" data-name="Path 26005" d="M1075.24,772.15c0,35.122-16.118,45.887-36,45.887s-36-10.765-36-45.887,16.118-81.3,36-81.3,36,46.179,36,81.3" fill="#5e9b53"/>
          <path id="Path_26006" data-name="Path 26006" d="M1039.24,690.848c-.045,0-.089,0-.134.005V818.035l.134,0c19.882,0,36-10.765,36-45.887s-16.118-81.3-36-81.3" fill="#4f8c45"/>
          <path id="Path_26007" data-name="Path 26007" d="M1012.036,765.282a16.114,16.114,0,0,0-6.32-12.8,16.154,16.154,0,0,0-8.908-29.631h-3.245c.015-.293.044-.581.044-.878a16.157,16.157,0,0,0-16.157-16.157h-3.938a16.157,16.157,0,0,0-16.157,16.157c0,.3.028.585.044.878h-3.245a16.153,16.153,0,0,0-8.908,29.631,16.137,16.137,0,0,0,5.246,28.283,16.154,16.154,0,0,0,4.591,31.643h3.709a18.262,18.262,0,0,0,33.378,0h3.709a16.154,16.154,0,0,0,4.591-31.643,16.158,16.158,0,0,0,11.566-15.486" fill="#5e9b53"/>
          <path id="Path_26008" data-name="Path 26008" d="M992.17,812.411h3.709a16.154,16.154,0,0,0,4.591-31.643,16.137,16.137,0,0,0,5.246-28.283,16.154,16.154,0,0,0-8.908-29.631h-3.245c.015-.292.044-.581.044-.877a16.158,16.158,0,0,0-16.158-16.158h-1.968V823.258a18.27,18.27,0,0,0,16.689-10.847" fill="#4f8c45"/>
          <path id="Path_26009" data-name="Path 26009" d="M979.981,877.12h-9l3-116.824h3Z" fill="#a76e4d"/>
          <path id="Path_26010" data-name="Path 26010" d="M975.481,877.12h4.5l-3-116.824h-1.5Z" fill="#965b39"/>
          <path id="Path_26011" data-name="Path 26011" d="M976.647,799.2l-2.342-1.485,20.052-29.91.781.495Z" fill="#a76e4d"/>
          <path id="Path_26012" data-name="Path 26012" d="M975.476,798.459l1.171.742,18.491-30.9-.39-.247Z" fill="#965b39"/>
          <path id="Path_26013" data-name="Path 26013" d="M974.315,807.89l2.342-1.485L956.6,776.5l-.781.495Z" fill="#965b39"/>
          <path id="Path_26014" data-name="Path 26014" d="M975.486,807.148l-1.171.742-18.491-30.9.39-.247Z" fill="#a76e4d"/>
          <path id="Path_26015" data-name="Path 26015" d="M848.538,780.009a16.114,16.114,0,0,0-6.32-12.8,16.154,16.154,0,0,0-8.908-29.631h-3.245c.015-.293.044-.581.044-.878a16.157,16.157,0,0,0-16.157-16.157h-3.938A16.157,16.157,0,0,0,793.857,736.7c0,.3.028.585.044.878h-3.245a16.153,16.153,0,0,0-8.908,29.631,16.137,16.137,0,0,0,5.246,28.283,16.154,16.154,0,0,0,4.591,31.643h3.709a18.262,18.262,0,0,0,33.378,0h3.709a16.154,16.154,0,0,0,4.591-31.643,16.158,16.158,0,0,0,11.566-15.486" fill="#5e9b53"/>
          <path id="Path_26016" data-name="Path 26016" d="M828.672,827.138h3.709a16.154,16.154,0,0,0,4.591-31.643,16.137,16.137,0,0,0,5.246-28.283,16.154,16.154,0,0,0-8.908-29.631h-3.245c.015-.292.044-.581.044-.877a16.158,16.158,0,0,0-16.158-16.158h-1.968V837.985a18.27,18.27,0,0,0,16.689-10.847" fill="#4f8c45"/>
          <path id="Path_26017" data-name="Path 26017" d="M816.483,891.847h-9l3-116.824h3Z" fill="#a76e4d"/>
          <path id="Path_26018" data-name="Path 26018" d="M811.983,891.847h4.5l-3-116.824h-1.5Z" fill="#965b39"/>
          <path id="Path_26019" data-name="Path 26019" d="M813.149,813.928l-2.342-1.485,20.052-29.91.781.495Z" fill="#a76e4d"/>
          <path id="Path_26020" data-name="Path 26020" d="M811.978,813.186l1.171.742,18.491-30.9-.39-.247Z" fill="#965b39"/>
          <path id="Path_26021" data-name="Path 26021" d="M810.817,822.617l2.342-1.485-20.052-29.91-.781.495Z" fill="#965b39"/>
          <path id="Path_26022" data-name="Path 26022" d="M811.988,821.875l-1.171.742-18.491-30.9.39-.247Z" fill="#a76e4d"/>
          <path id="Path_26023" data-name="Path 26023" d="M472.961,821.685l-3.3-2.039,21.623-34.314,2.707,1.674Z" fill="#a76e4d"/>
          <path id="Path_26024" data-name="Path 26024" d="M471.376,820.7l1.586.98,21.033-34.678-1.291-.8Z" fill="#965b39"/>
          <path id="Path_26025" data-name="Path 26025" d="M463.3,816.3l3.3-2.039L444.979,779.95l-2.707,1.674Z" fill="#a76e4d"/>
          <path id="Path_26026" data-name="Path 26026" d="M464.89,815.323l-1.586.98-21.033-34.678,1.291-.8Z" fill="#965b39"/>
          <path id="Path_26027" data-name="Path 26027" d="M468.1,677.522h0a22.412,22.412,0,0,0-21.792,17.229A22.386,22.386,0,0,0,412.4,713.979v6.142a22.53,22.53,0,0,0,.341,3.771A22.421,22.421,0,0,0,398.9,744.6v6.141a22.389,22.389,0,0,0,27.187,21.9,22.344,22.344,0,0,0,26.762,23.107l.583-.116a22.314,22.314,0,0,0,14.668,5.489Z" fill="#5e9b53"/>
          <path id="Path_26028" data-name="Path 26028" d="M468.1,677.522h0a22.413,22.413,0,0,1,21.792,17.229A22.386,22.386,0,0,1,523.8,713.979v6.142a22.53,22.53,0,0,1-.341,3.771A22.421,22.421,0,0,1,537.3,744.6v6.141a22.389,22.389,0,0,1-27.187,21.9,22.344,22.344,0,0,1-26.762,23.107l-.583-.116a22.314,22.314,0,0,1-14.668,5.489Z" fill="#4f8c45"/>
          <path id="Path_26029" data-name="Path 26029" d="M473.694,882.183H462.505l1-117.064h9.189Z" fill="#a76e4d"/>
          <path id="Path_26030" data-name="Path 26030" d="M468.313,882.183h5.381l-1-117.064h-4.381Z" fill="#965b39"/>
          <rect id="Rectangle_1971" data-name="Rectangle 1971" width="11.189" height="59.564" transform="translate(546.65 840.095)" fill="#a76e4d"/>
          <rect id="Rectangle_1972" data-name="Rectangle 1972" width="5.443" height="59.564" transform="translate(552.396 840.095)" fill="#965b39"/>
          <path id="Path_26031" data-name="Path 26031" d="M515.689,786.334a16.114,16.114,0,0,0,6.32,12.8,16.154,16.154,0,0,0,8.908,29.631h3.245c-.015.293-.044.581-.044.878A16.158,16.158,0,0,0,550.276,845.8h3.937A16.157,16.157,0,0,0,570.37,829.64c0-.3-.028-.585-.044-.878h3.245a16.153,16.153,0,0,0,8.908-29.631,16.137,16.137,0,0,0-5.246-28.283,16.154,16.154,0,0,0-4.591-31.643h-3.709a18.262,18.262,0,0,0-33.378,0h-3.709a16.154,16.154,0,0,0-4.591,31.643,16.158,16.158,0,0,0-11.566,15.486" fill="#4f8c45"/>
          <path id="Path_26032" data-name="Path 26032" d="M535.555,739.205h-3.709a16.154,16.154,0,0,0-4.591,31.643,16.137,16.137,0,0,0-5.246,28.283,16.154,16.154,0,0,0,8.909,29.631h3.244c-.015.292-.044.581-.044.877A16.158,16.158,0,0,0,550.276,845.8h1.968V728.358a18.27,18.27,0,0,0-16.689,10.847" fill="#5e9b53"/>
          <path id="Path_26033" data-name="Path 26033" d="M2282.047,1037.408c0-5.983-3.387-11.289-8.622-14.678,5.957-3.317,9.889-9,9.889-15.454,0-10.234-9.868-18.53-22.041-18.53h-4.426c.021-.336.06-.667.06-1.007a16.364,16.364,0,0,0-3.442-9.916c14.675-1.89,25.915-12.549,25.915-25.417v-7.043c0-10.716-7.8-19.893-18.882-23.757a21.834,21.834,0,0,0,.465-4.325v-7.044c0-14.2-13.693-25.714-30.584-25.714a34.818,34.818,0,0,0-15.671,3.662c-3.2-11.327-15.278-19.762-29.727-19.762s-26.527,8.435-29.726,19.762a34.817,34.817,0,0,0-15.671-3.662c-16.891,0-30.584,11.513-30.584,25.714v.212a25.981,25.981,0,0,0-5.2-.539h-2.182v-2.288c0-14.2-10.974-25.714-24.511-25.714a23.506,23.506,0,0,0-12.559,3.661c-2.564-11.326-12.244-19.761-23.824-19.761s-21.26,8.435-23.824,19.761a23.5,23.5,0,0,0-12.558-3.661c-10.635,0-19.685,7.107-23.078,17.04-2.84-7.474-11.161-12.89-20.993-12.89H1954.9c-12.174,0-22.041,8.3-22.041,18.532,0,.34.039.671.06,1.006H1928.5a26.073,26.073,0,0,0-3.823.3c-.874-9.563-10.358-17.1-21.954-17.1h-5.06c-3.886-7.326-12.608-12.441-22.766-12.441s-18.88,5.115-22.767,12.441h-5.058c-12.173,0-22.041,8.3-22.041,18.532,0,7.911,5.9,14.652,14.2,17.309a26.257,26.257,0,0,0-3.4-.243h-5.059c-3.887-7.326-12.609-12.44-22.767-12.44s-18.88,5.114-22.767,12.44h-5.058c-12.173,0-22.041,8.3-22.041,18.532a16.015,16.015,0,0,0,2.119,7.9,28.372,28.372,0,0,0-12.64,3.617c-2.855-11.326-13.638-19.761-26.536-19.761s-23.681,8.435-26.536,19.761a28.64,28.64,0,0,0-29.318.773,16.022,16.022,0,0,0,2.153-7.96c0-10.234-9.868-18.531-22.041-18.531h-5.059c-3.886-7.327-12.609-12.441-22.766-12.441s-18.881,5.114-22.767,12.441h-5.059c-12.172,0-22.041,8.3-22.041,18.531,0,6.036,3.446,11.382,8.76,14.762a28.362,28.362,0,0,0-8.255,3.08c-2.855-11.326-13.637-19.761-26.536-19.761s-23.681,8.435-26.536,19.761a28.4,28.4,0,0,0-13.989-3.661c-15.078,0-27.3,11.512-27.3,25.714V994.2a24.4,24.4,0,0,0,.416,4.325c-9.893,3.863-16.856,13.041-16.856,23.757v7.043c0,14.2,12.223,25.715,27.3,25.715a28.988,28.988,0,0,0,5.805-.6,24.214,24.214,0,0,0,.468,6.321c2.953,13.927,17.333,22.962,32.12,20.181l.71-.133a27.908,27.908,0,0,0,11.049,5.476V1151.4h13.626v-65.119a27.908,27.908,0,0,0,11.049-5.476l.71.133c14.787,2.781,29.167-6.254,32.121-20.181a24.26,24.26,0,0,0,.467-6.321,29.005,29.005,0,0,0,5.806.6,28.606,28.606,0,0,0,11.3-2.308v85.023h15.263v-87.256c9.229-1.782,16.235-8.425,17.006-16.559a27.834,27.834,0,0,0,21.965,10.445,29,29,0,0,0,5.8-.6,24.213,24.213,0,0,0,.468,6.321c2.953,13.927,17.333,22.962,32.12,20.181l.71-.133c.352.286.713.562,1.079.832v.1c0,7.524,3.844,14.292,9.97,18.995v50.665h13.626v-44.627a35.965,35.965,0,0,0,13.491.086,21.734,21.734,0,0,0,.525,6.321c3.308,13.927,19.417,22.963,35.982,20.181l.8-.133a32.884,32.884,0,0,0,12.378,5.476v47.51h15.263v-47.51a32.877,32.877,0,0,0,12.378-5.476l.8.133c16.564,2.782,32.674-6.254,35.982-20.181a21.733,21.733,0,0,0,.524-6.321,36.16,36.16,0,0,0,6.5.6c10.967,0,20.582-4.856,25.979-12.148h2.689c2.867,5.4,8.37,9.6,15.135,11.429v62.788h15.263v-62.788c6.766-1.832,12.269-6.025,15.135-11.429h5.059a25.3,25.3,0,0,0,10.234-2.127h1.861v51.84h15.264v-58.918a36.592,36.592,0,0,0,4.647.295,36.163,36.163,0,0,0,6.5-.6,21.694,21.694,0,0,0,.524,6.321c3.309,13.927,19.418,22.963,35.982,20.182l.8-.134a32.879,32.879,0,0,0,12.377,5.476v55.416h15.264V1107a32.9,32.9,0,0,0,12.378-5.477l.8.134c12.351,2.073,24.446-2.425,31.173-10.62a19.479,19.479,0,0,0,3.921,4.208v11.139h15.264v-6h4.366c-.022.335-.06.667-.06,1.006,0,8.8,7.306,16.157,17.094,18.046v50.84h15.264V1119.43c9.788-1.89,17.095-9.243,17.095-18.047,0-.339-.039-.671-.061-1.006h4.427a25,25,0,0,0,12.023-3.011v55.861h15.263v-62.788c.522-.141,1.038-.293,1.544-.462a25.588,25.588,0,0,0,8.65,1.485h5.059c2.867,5.4,8.37,9.6,15.135,11.429v55.47h15.263v-55.47c6.765-1.832,12.269-6.025,15.135-11.429h5.059c12.173,0,22.041-8.3,22.041-18.532,0-8.4-6.659-15.491-15.778-17.761,9.119-2.27,15.778-9.357,15.778-17.761m-624.506-74.742a25.184,25.184,0,0,0-2.076,3.678,24.525,24.525,0,0,0-3.867-1.326,23.969,23.969,0,0,0,5.943-2.352m192.627,29.828v.026c0,.4.041.8.072,1.2-.326-.2-.656-.4-.994-.59.315-.2.622-.416.923-.633m17.093,19.125v.528a28.622,28.622,0,0,0-2.558-2.221c.49.149.985.288,1.49.409.333.443.694.868,1.068,1.284" fill="#417e37"/>
          <path id="Path_26034" data-name="Path 26034" d="M2336.919,1048.168c0-5.983-3.387-11.289-8.622-14.678,5.956-3.317,9.889-9,9.889-15.454,0-10.234-9.868-18.53-22.041-18.53h-4.426c.021-.336.06-.667.06-1.007a16.37,16.37,0,0,0-3.442-9.916c14.675-1.89,25.915-12.549,25.915-25.417v-7.043c0-10.716-7.8-19.893-18.883-23.757a21.817,21.817,0,0,0,.466-4.325V921c0-14.2-13.693-25.714-30.584-25.714a34.817,34.817,0,0,0-15.671,3.662c-3.2-11.327-15.278-19.762-29.727-19.762s-26.527,8.435-29.726,19.762a34.817,34.817,0,0,0-15.671-3.662c-16.891,0-30.584,11.513-30.584,25.714v.212a25.983,25.983,0,0,0-5.2-.539h-2.182v-2.288c0-14.2-10.974-25.714-24.511-25.714a23.5,23.5,0,0,0-12.559,3.661c-2.564-11.326-12.244-19.761-23.824-19.761s-21.26,8.435-23.824,19.761a23.5,23.5,0,0,0-12.558-3.661c-10.635,0-19.686,7.107-23.078,17.04-2.84-7.474-11.161-12.889-20.993-12.889h-5.371c-12.174,0-22.042,8.3-22.042,18.531,0,.34.039.671.061,1.006h-4.427a26.064,26.064,0,0,0-3.823.3c-.874-9.563-10.358-17.1-21.955-17.1h-5.059c-3.886-7.326-12.608-12.441-22.766-12.441s-18.88,5.115-22.767,12.441h-5.058c-12.173,0-22.041,8.3-22.041,18.532,0,7.911,5.9,14.652,14.2,17.309a26.258,26.258,0,0,0-3.4-.243h-5.059c-3.887-7.326-12.609-12.44-22.767-12.44s-18.88,5.114-22.767,12.44h-5.058c-12.173,0-22.042,8.3-22.042,18.532a16.026,16.026,0,0,0,2.119,7.9,28.369,28.369,0,0,0-12.639,3.617c-2.855-11.326-13.638-19.761-26.536-19.761s-23.681,8.435-26.536,19.761a28.64,28.64,0,0,0-29.318.773,16.022,16.022,0,0,0,2.153-7.96c0-10.234-9.869-18.531-22.041-18.531h-5.059c-3.886-7.327-12.609-12.441-22.766-12.441s-18.881,5.114-22.767,12.441h-5.059c-12.172,0-22.041,8.3-22.041,18.531,0,6.036,3.446,11.382,8.76,14.762a28.361,28.361,0,0,0-8.255,3.08c-2.855-11.326-13.638-19.761-26.536-19.761s-23.681,8.435-26.536,19.761a28.4,28.4,0,0,0-13.989-3.661c-15.078,0-27.3,11.512-27.3,25.714v7.044a24.4,24.4,0,0,0,.416,4.325c-9.893,3.863-16.856,13.041-16.856,23.757v7.043c0,14.2,12.223,25.715,27.3,25.715a28.987,28.987,0,0,0,5.8-.6,24.214,24.214,0,0,0,.468,6.321c2.953,13.927,17.333,22.962,32.12,20.181l.71-.133a27.908,27.908,0,0,0,11.049,5.476v65.119H1603.3v-65.119a27.913,27.913,0,0,0,11.049-5.476l.71.133c14.787,2.781,29.167-6.254,32.12-20.181a24.214,24.214,0,0,0,.468-6.321,28.986,28.986,0,0,0,5.8.6,28.612,28.612,0,0,0,11.3-2.308v85.023h15.263v-87.256c9.229-1.782,16.235-8.425,17.005-16.559a27.837,27.837,0,0,0,21.965,10.445,29,29,0,0,0,5.806-.6,24.224,24.224,0,0,0,.468,6.321c2.953,13.927,17.333,22.962,32.12,20.181l.71-.133c.352.286.713.562,1.079.832v.1c0,7.524,3.844,14.292,9.97,18.995v50.665h13.626v-44.627a35.966,35.966,0,0,0,13.491.086,21.729,21.729,0,0,0,.525,6.321c3.308,13.927,19.417,22.963,35.982,20.181l.8-.133a32.883,32.883,0,0,0,12.378,5.476v47.51H1861.2v-47.51a32.876,32.876,0,0,0,12.378-5.476l.8.133c16.564,2.782,32.674-6.254,35.982-20.181a21.727,21.727,0,0,0,.524-6.321,36.163,36.163,0,0,0,6.5.6c10.967,0,20.581-4.856,25.979-12.148h2.689c2.867,5.4,8.37,9.6,15.135,11.429v47.974h15.263v-47.974c6.766-1.832,12.269-6.025,15.135-11.429h5.059a25.3,25.3,0,0,0,10.234-2.127h1.861v51.84H2024v-58.918a36.619,36.619,0,0,0,4.648.295,36.16,36.16,0,0,0,6.5-.6,21.7,21.7,0,0,0,.524,6.321c3.308,13.927,19.417,22.963,35.982,20.182l.8-.134a32.88,32.88,0,0,0,12.377,5.476v55.416h15.264v-55.415a32.9,32.9,0,0,0,12.378-5.477l.795.134c12.352,2.073,24.446-2.425,31.173-10.62a19.487,19.487,0,0,0,3.921,4.208v11.139h15.263v-6h4.367c-.022.335-.06.667-.06,1.006,0,8.8,7.306,16.157,17.094,18.046v45.374h15.264V1130.19c9.788-1.89,17.094-9.243,17.094-18.047,0-.339-.038-.671-.06-1.006h4.427a25,25,0,0,0,12.023-3.011v38.133h15.263V1101.2c.522-.141,1.038-.293,1.544-.462a25.589,25.589,0,0,0,8.65,1.485h5.059c2.867,5.4,8.37,9.6,15.135,11.429v42.859h15.263v-42.859c6.766-1.832,12.268-6.025,15.135-11.429h5.059c12.173,0,22.041-8.3,22.041-18.532,0-8.4-6.659-15.491-15.778-17.761,9.119-2.27,15.778-9.357,15.778-17.761m-624.506-74.742a25.082,25.082,0,0,0-2.076,3.678,24.526,24.526,0,0,0-3.867-1.326,23.967,23.967,0,0,0,5.943-2.352m192.627,29.828v.026c0,.4.041.8.072,1.2-.326-.2-.656-.4-.994-.59.314-.2.622-.416.923-.633m17.093,19.125v.528a28.624,28.624,0,0,0-2.558-2.221c.49.149.985.288,1.49.409.333.443.694.868,1.068,1.284" fill="#47823e"/>
          <path id="Path_26035" data-name="Path 26035" d="M1962.3,1112.583l3.812-2.357-25-39.668-3.13,1.935Z" fill="#a76e4d"/>
          <path id="Path_26036" data-name="Path 26036" d="M1964.131,1111.449l-1.833,1.133-24.316-40.089,1.493-.923Z" fill="#965b39"/>
          <path id="Path_26037" data-name="Path 26037" d="M1973.462,1106.361,1969.65,1104l25-39.668,3.13,1.935Z" fill="#a76e4d"/>
          <path id="Path_26038" data-name="Path 26038" d="M1971.628,1105.228l1.833,1.133,24.316-40.089-1.493-.923Z" fill="#965b39"/>
          <path id="Path_26039" data-name="Path 26039" d="M1967.918,945.925h0a25.909,25.909,0,0,1,25.192,19.918,25.878,25.878,0,0,1,39.2,22.228v7.1a26.083,26.083,0,0,1-.394,4.36,25.919,25.919,0,0,1,16,23.945v7.1a25.887,25.887,0,0,1-31.429,25.319,25.826,25.826,0,0,1-30.937,26.712l-.674-.134a25.8,25.8,0,0,1-16.957,6.345Z" fill="#5e9b53"/>
          <path id="Path_26040" data-name="Path 26040" d="M1967.918,945.925h0a25.909,25.909,0,0,0-25.192,19.918,25.878,25.878,0,0,0-39.2,22.228v7.1a26.1,26.1,0,0,0,.394,4.36,25.92,25.92,0,0,0-16,23.945v7.1a25.887,25.887,0,0,0,31.429,25.319,25.826,25.826,0,0,0,30.937,26.712l.674-.134a25.8,25.8,0,0,0,16.957,6.345Z" fill="#4f8c45"/>
          <path id="Path_26041" data-name="Path 26041" d="M1961.451,1182.521h12.935l-1.156-135.33h-10.623Z" fill="#a76e4d"/>
          <path id="Path_26042" data-name="Path 26042" d="M1967.671,1182.521h-6.221l1.156-135.33h5.065Z" fill="#965b39"/>
          <path id="Path_26043" data-name="Path 26043" d="M1643.131,1091.457l3.812-2.357-25-39.668-3.13,1.935Z" fill="#a76e4d"/>
          <path id="Path_26044" data-name="Path 26044" d="M1644.964,1090.323l-1.833,1.133-24.316-40.089,1.493-.923Z" fill="#965b39"/>
          <path id="Path_26045" data-name="Path 26045" d="M1654.295,1085.235l-3.812-2.357,25-39.668,3.13,1.935Z" fill="#a76e4d"/>
          <path id="Path_26046" data-name="Path 26046" d="M1652.462,1084.1l1.833,1.133,24.316-40.089-1.493-.923Z" fill="#965b39"/>
          <path id="Path_26047" data-name="Path 26047" d="M1648.751,924.8h0a25.909,25.909,0,0,1,25.192,19.918,25.878,25.878,0,0,1,39.2,22.228v7.1a26.081,26.081,0,0,1-.394,4.36,25.92,25.92,0,0,1,16,23.945v7.1a25.888,25.888,0,0,1-31.429,25.319,25.827,25.827,0,0,1-30.937,26.712l-.674-.134a25.8,25.8,0,0,1-16.957,6.345Z" fill="#5e9b53"/>
          <path id="Path_26048" data-name="Path 26048" d="M1648.751,924.8h0a25.909,25.909,0,0,0-25.192,19.918,25.878,25.878,0,0,0-39.2,22.228v7.1a26.094,26.094,0,0,0,.394,4.36,25.92,25.92,0,0,0-16,23.945v7.1a25.888,25.888,0,0,0,31.429,25.319,25.827,25.827,0,0,0,30.937,26.712l.674-.134a25.8,25.8,0,0,0,16.957,6.345Z" fill="#4f8c45"/>
          <path id="Path_26049" data-name="Path 26049" d="M1642.284,1161.4h12.935l-1.156-135.33H1643.44Z" fill="#a76e4d"/>
          <path id="Path_26050" data-name="Path 26050" d="M1648.5,1161.4h-6.221l1.156-135.33h5.065Z" fill="#965b39"/>
          <path id="Path_26051" data-name="Path 26051" d="M1779.112,1046.2a18.629,18.629,0,0,1,7.307-14.794,18.674,18.674,0,0,1,10.3-34.254h3.752c-.018-.338-.051-.672-.051-1.015a18.677,18.677,0,0,1,18.678-18.678h4.552a18.677,18.677,0,0,1,18.678,18.678c0,.343-.033.677-.051,1.015h3.751a18.674,18.674,0,0,1,10.3,34.254,18.654,18.654,0,0,1-6.064,32.7,18.675,18.675,0,0,1-5.308,36.58h-4.287a21.111,21.111,0,0,1-38.586,0h-4.288a18.675,18.675,0,0,1-5.307-36.58,18.678,18.678,0,0,1-13.371-17.9" fill="#5e9b53"/>
          <path id="Path_26052" data-name="Path 26052" d="M1802.078,1100.681h-4.288a18.675,18.675,0,0,1-5.308-36.581,18.654,18.654,0,0,1-6.064-32.7,18.674,18.674,0,0,1,10.3-34.254h3.751c-.018-.338-.05-.672-.05-1.014a18.678,18.678,0,0,1,18.678-18.679h2.275v135.764a21.117,21.117,0,0,1-19.292-12.54" fill="#4f8c45"/>
          <path id="Path_26053" data-name="Path 26053" d="M1816.169,1175.487h10.4l-3.468-135.053h-3.468Z" fill="#a76e4d"/>
          <path id="Path_26054" data-name="Path 26054" d="M1821.371,1175.487h-5.2l3.468-135.053h1.734Z" fill="#965b39"/>
          <path id="Path_26055" data-name="Path 26055" d="M1820.023,1085.41l2.708-1.716-23.181-34.578-.9.572Z" fill="#a76e4d"/>
          <path id="Path_26056" data-name="Path 26056" d="M1821.377,1084.552l-1.354.858-21.376-35.721.451-.286Z" fill="#965b39"/>
          <path id="Path_26057" data-name="Path 26057" d="M1822.719,1095.455l-2.708-1.716,23.181-34.578.9.572Z" fill="#965b39"/>
          <path id="Path_26058" data-name="Path 26058" d="M1821.365,1094.6l1.354.858,21.376-35.721-.451-.286Z" fill="#a76e4d"/>
          <path id="Path_26059" data-name="Path 26059" d="M2258.783,1098.09l3.812-2.357-25-39.668-3.13,1.935Z" fill="#a76e4d"/>
          <path id="Path_26060" data-name="Path 26060" d="M2260.616,1096.957l-1.833,1.133L2234.468,1058l1.492-.923Z" fill="#965b39"/>
          <path id="Path_26061" data-name="Path 26061" d="M2269.947,1091.869l-3.812-2.357,25-39.668,3.13,1.935Z" fill="#a76e4d"/>
          <path id="Path_26062" data-name="Path 26062" d="M2268.114,1090.736l1.833,1.133,24.316-40.089-1.493-.923Z" fill="#965b39"/>
          <path id="Path_26063" data-name="Path 26063" d="M2264.4,931.433h0a25.909,25.909,0,0,1,25.192,19.918,25.878,25.878,0,0,1,39.2,22.228v7.1a26.1,26.1,0,0,1-.394,4.36,25.919,25.919,0,0,1,16,23.945v7.1a25.888,25.888,0,0,1-31.429,25.319,25.826,25.826,0,0,1-30.937,26.712l-.674-.134a25.8,25.8,0,0,1-16.957,6.345Z" fill="#5e9b53"/>
          <path id="Path_26064" data-name="Path 26064" d="M2264.4,931.433h0a25.909,25.909,0,0,0-25.192,19.918,25.878,25.878,0,0,0-39.2,22.228v7.1a26.1,26.1,0,0,0,.394,4.36,25.92,25.92,0,0,0-16,23.945v7.1a25.888,25.888,0,0,0,31.429,25.319,25.827,25.827,0,0,0,30.937,26.712l.674-.134a25.8,25.8,0,0,0,16.957,6.345Z" fill="#4f8c45"/>
          <path id="Path_26065" data-name="Path 26065" d="M2257.936,1168.029h12.935l-1.156-135.33h-10.623Z" fill="#a76e4d"/>
          <path id="Path_26066" data-name="Path 26066" d="M2264.156,1168.029h-6.221l1.156-135.33h5.065Z" fill="#965b39"/>
          <path id="Path_26067" data-name="Path 26067" d="M2098.3,1062.23a18.631,18.631,0,0,1-7.306,14.794,18.674,18.674,0,0,1-10.3,34.254h-3.752c.018.338.051.672.051,1.015a18.677,18.677,0,0,1-18.678,18.678h-4.552a18.677,18.677,0,0,1-18.678-18.678c0-.343.033-.677.051-1.015h-3.751a18.674,18.674,0,0,1-10.3-34.254,18.654,18.654,0,0,1,6.064-32.7,18.674,18.674,0,0,1,5.308-36.58h4.287a21.111,21.111,0,0,1,38.586,0h4.288a18.674,18.674,0,0,1,5.307,36.58,18.678,18.678,0,0,1,13.371,17.9" fill="#4f8c45"/>
          <path id="Path_26068" data-name="Path 26068" d="M2075.331,1007.748h4.286a18.674,18.674,0,0,1,5.308,36.58,18.655,18.655,0,0,1,6.065,32.7,18.675,18.675,0,0,1-10.3,34.255h-3.751c.018.338.051.671.051,1.014a18.678,18.678,0,0,1-18.678,18.679h-2.276V995.208a21.121,21.121,0,0,1,19.294,12.54" fill="#5e9b53"/>
          <path id="Path_26069" data-name="Path 26069" d="M1898.643,1161.623h0a20.34,20.34,0,0,1-19.778-15.638,20.32,20.32,0,0,1-30.776-17.452v-5.574a20.406,20.406,0,0,1,.31-3.422,20.35,20.35,0,0,1-12.563-18.8v-5.574a20.324,20.324,0,0,1,24.675-19.878,20.278,20.278,0,0,1,24.289-20.972l.53.1a20.254,20.254,0,0,1,13.313-4.982Z" fill="#4f8c45"/>
          <path id="Path_26070" data-name="Path 26070" d="M1898.643,1161.623h0a20.34,20.34,0,0,0,19.778-15.638,20.32,20.32,0,0,0,30.776-17.452v-5.574a20.406,20.406,0,0,0-.31-3.422,20.35,20.35,0,0,0,12.563-18.8v-5.574a20.324,20.324,0,0,0-24.675-19.878,20.278,20.278,0,0,0-24.289-20.972l-.53.1a20.254,20.254,0,0,0-13.313-4.982Z" fill="#5e9b53"/>
          <rect id="Rectangle_1973" data-name="Rectangle 1973" width="12.935" height="68.859" transform="translate(1690.543 1091.158)" fill="#a76e4d"/>
          <rect id="Rectangle_1974" data-name="Rectangle 1974" width="6.293" height="68.859" transform="translate(1690.543 1091.158)" fill="#965b39"/>
          <path id="Path_26071" data-name="Path 26071" d="M1655.219,1039.681c0,40.6,18.633,53.047,41.617,53.047s41.617-12.445,41.617-53.047-18.632-93.987-41.617-93.987-41.617,53.385-41.617,93.987" fill="#5e9b53"/>
          <path id="Path_26072" data-name="Path 26072" d="M1696.836,945.694c.052,0,.1.005.155.006v147.026l-.155,0c-22.985,0-41.617-12.444-41.617-53.047s18.632-93.987,41.617-93.987" fill="#4f8c45"/>
          <path id="Path_26073" data-name="Path 26073" d="M1457.9,1057.971c0,40.6,18.632,53.047,41.617,53.047s41.616-12.445,41.616-53.047-18.632-93.987-41.616-93.987-41.617,53.385-41.617,93.987" fill="#5e9b53"/>
          <path id="Path_26074" data-name="Path 26074" d="M1499.521,963.984c.052,0,.1.005.155.006v147.026l-.155,0c-22.985,0-41.617-12.444-41.617-53.047s18.632-93.987,41.617-93.987" fill="#4f8c45"/>
          <path id="Path_26075" data-name="Path 26075" d="M1542.328,1039.893a18.629,18.629,0,0,1,7.307-14.794,18.674,18.674,0,0,1,10.3-34.254h3.751c-.018-.338-.051-.672-.051-1.015a18.677,18.677,0,0,1,18.678-18.678h4.552a18.677,18.677,0,0,1,18.678,18.678c0,.343-.033.677-.051,1.015h3.751a18.674,18.674,0,0,1,10.3,34.254,18.654,18.654,0,0,1-6.064,32.7,18.674,18.674,0,0,1-5.308,36.58h-4.287a21.111,21.111,0,0,1-38.586,0h-4.288a18.674,18.674,0,0,1-5.307-36.58,18.679,18.679,0,0,1-13.371-17.9" fill="#5e9b53"/>
          <path id="Path_26076" data-name="Path 26076" d="M1565.294,1094.375h-4.287a18.674,18.674,0,0,1-5.308-36.58,18.655,18.655,0,0,1-6.064-32.7,18.674,18.674,0,0,1,10.3-34.254h3.751c-.018-.338-.051-.672-.051-1.014a18.678,18.678,0,0,1,18.678-18.679h2.276v135.764a21.12,21.12,0,0,1-19.293-12.54" fill="#4f8c45"/>
          <path id="Path_26077" data-name="Path 26077" d="M1579.385,1169.181h10.4l-3.468-135.053h-3.468Z" fill="#a76e4d"/>
          <path id="Path_26078" data-name="Path 26078" d="M1584.587,1169.181h-5.2l3.468-135.053h1.734Z" fill="#965b39"/>
          <path id="Path_26079" data-name="Path 26079" d="M1583.24,1079.1l2.708-1.716-23.181-34.578-.9.573Z" fill="#a76e4d"/>
          <path id="Path_26080" data-name="Path 26080" d="M1584.594,1078.246l-1.354.858-21.376-35.721.451-.286Z" fill="#965b39"/>
          <path id="Path_26081" data-name="Path 26081" d="M1585.936,1089.149l-2.708-1.716,23.181-34.578.9.573Z" fill="#965b39"/>
          <path id="Path_26082" data-name="Path 26082" d="M1584.582,1088.291l1.354.858,21.376-35.721-.451-.286Z" fill="#a76e4d"/>
          <path id="Path_26083" data-name="Path 26083" d="M1719.979,1067.057a18.629,18.629,0,0,1,7.307-14.794,18.674,18.674,0,0,1,10.3-34.254h3.752c-.018-.338-.051-.672-.051-1.015a18.677,18.677,0,0,1,18.678-18.678h4.552a18.677,18.677,0,0,1,18.678,18.678c0,.343-.033.677-.051,1.015h3.751a18.674,18.674,0,0,1,10.3,34.254,18.654,18.654,0,0,1-6.064,32.7,18.674,18.674,0,0,1-5.308,36.58h-4.287a21.111,21.111,0,0,1-38.586,0h-4.288a18.674,18.674,0,0,1-5.307-36.58,18.678,18.678,0,0,1-13.371-17.9" fill="#5e9b53"/>
          <path id="Path_26084" data-name="Path 26084" d="M1742.944,1121.539h-4.287a18.674,18.674,0,0,1-5.308-36.58,18.655,18.655,0,0,1-6.064-32.7,18.674,18.674,0,0,1,10.3-34.254h3.751c-.018-.338-.051-.672-.051-1.014a18.679,18.679,0,0,1,18.679-18.679h2.275v135.764a21.12,21.12,0,0,1-19.293-12.54" fill="#4f8c45"/>
          <path id="Path_26085" data-name="Path 26085" d="M1757.035,1196.345h10.4l-3.468-135.053H1760.5Z" fill="#a76e4d"/>
          <path id="Path_26086" data-name="Path 26086" d="M1762.238,1196.345h-5.2l3.468-135.053h1.734Z" fill="#965b39"/>
          <path id="Path_26087" data-name="Path 26087" d="M1760.89,1106.268l2.708-1.716-23.181-34.578-.9.572Z" fill="#a76e4d"/>
          <path id="Path_26088" data-name="Path 26088" d="M1762.244,1105.41l-1.354.858-21.376-35.721.451-.286Z" fill="#965b39"/>
          <path id="Path_26089" data-name="Path 26089" d="M1763.586,1116.313l-2.708-1.716,23.181-34.578.9.572Z" fill="#965b39"/>
          <path id="Path_26090" data-name="Path 26090" d="M1762.232,1115.455l1.354.858,21.376-35.721-.451-.286Z" fill="#a76e4d"/>
          <path id="Path_26091" data-name="Path 26091" d="M2154.158,1115.236l3.812-2.357-25-39.668-3.13,1.935Z" fill="#a76e4d"/>
          <path id="Path_26092" data-name="Path 26092" d="M2155.991,1114.1l-1.833,1.133-24.316-40.089,1.493-.923Z" fill="#965b39"/>
          <path id="Path_26093" data-name="Path 26093" d="M2165.322,1109.014l-3.812-2.357,25-39.668,3.13,1.935Z" fill="#a76e4d"/>
          <path id="Path_26094" data-name="Path 26094" d="M2163.488,1107.881l1.833,1.133,24.316-40.089-1.493-.923Z" fill="#965b39"/>
          <path id="Path_26095" data-name="Path 26095" d="M2159.778,948.578h0A25.909,25.909,0,0,1,2184.97,968.5a25.878,25.878,0,0,1,39.2,22.228v7.1a26.094,26.094,0,0,1-.394,4.36,25.92,25.92,0,0,1,16,23.945v7.1a25.889,25.889,0,0,1-31.43,25.319,25.826,25.826,0,0,1-30.937,26.712l-.674-.134a25.8,25.8,0,0,1-16.957,6.345Z" fill="#5e9b53"/>
          <path id="Path_26096" data-name="Path 26096" d="M2159.778,948.578h0a25.909,25.909,0,0,0-25.192,19.918,25.878,25.878,0,0,0-39.2,22.228v7.1a25.992,25.992,0,0,0,.4,4.36,25.919,25.919,0,0,0-16,23.945v7.1a25.888,25.888,0,0,0,31.429,25.319,25.827,25.827,0,0,0,30.937,26.712l.674-.134a25.8,25.8,0,0,0,16.957,6.345Z" fill="#4f8c45"/>
          <path id="Path_26097" data-name="Path 26097" d="M2153.311,1185.174h12.935l-1.156-135.33h-10.623Z" fill="#a76e4d"/>
          <path id="Path_26098" data-name="Path 26098" d="M2159.531,1185.174h-6.221l1.156-135.33h5.065Z" fill="#965b39"/>
          <path id="Path_26099" data-name="Path 26099" d="M789.762,322.367c.84-2.118,1.785-3.7,3.852-4.544a.327.327,0,0,0,.188-.422.319.319,0,0,0-.05-.088l-1.312-1.6a.308.308,0,0,1,.049-.433.3.3,0,0,1,.189-.067h.935a1.615,1.615,0,0,0,1.03-.371l2.762-2.281.05-1.129a.738.738,0,0,1,.179-.448c1.813-2.1,3.338-3.662,5.041-5.614a1.27,1.27,0,0,1,.874-.337l.569.206a.821.821,0,0,1,.547.869,4.685,4.685,0,0,1-.12.584c.124.091.2.187.189.281-.011.121-.153.219-.372.293-.007.021-.015.042-.023.063.177.109.279.224.269.338-.014.141-.2.255-.488.332.235.122.371.257.358.39s-.2.257-.5.334c.276.131.442.278.429.422s-.2.252-.482.329c.3.136.484.292.47.443s-.225.271-.551.347c.282.132.452.282.438.427-.016.169-.271.3-.667.375.214.149.328.3.3.428s-.237.229-.542.267v.022a.343.343,0,0,1,.135.286c-.019.087-.1.145-.226.192q-.063.338-.131.692l-.138.2a.264.264,0,0,1,.117.17c.012.158-.2.315-.534.449l-.081.12c.1.06.169.125.175.2.013.178-.24.356-.649.5.213.078.345.179.354.3.017.219-.37.44-.956.593-.031.046-.06.089-.092.135a.187.187,0,0,0,.052.259l.006,0a3.833,3.833,0,0,0,1.422.76c1.232.124,2.486.024,3.73.056.2.005.4.219.5.28v2.361a.391.391,0,0,1-.394.39.256.256,0,0,1-.048,0l-5.017-.638a4.571,4.571,0,0,0-1.631.1c.006.229-.039.392-.148.444s-.309-.032-.517-.226c.036.318,0,.547-.137.611s-.348-.053-.583-.293l-.02.01c.034.309-.005.533-.136.6s-.328-.047-.548-.262l-.112.054c.028.295-.01.508-.137.569s-.317-.04-.528-.242l-.106.052c0,.215-.039.374-.143.423s-.253-.015-.42-.148l-.125.06c.038.323.005.56-.13.624s-.343-.05-.574-.282H795.6c.053.36.017.617-.127.688s-.356-.057-.595-.3c.063.384.027.659-.123.732s-.37-.062-.619-.327c.053.36.017.617-.128.688s-.362-.059-.607-.317c-.008.182-.053.315-.147.36-.12.058-.294-.022-.492-.2,0,.216-.045.37-.15.421s-.289-.028-.482-.2a9.694,9.694,0,0,1-2.147-.033.24.24,0,0,1-.232-.249.271.271,0,0,1,.016-.078" transform="translate(68.338 146.635)" fill="#fcedca"/>
          <path id="Path_26100" data-name="Path 26100" d="M570.674,272.325l.684-.994a1.92,1.92,0,0,1,1.582-.832h3.086a1.1,1.1,0,0,0,.969-.569,14.454,14.454,0,0,0,1.226-2.474c.37-1.174.261-2.528.751-3.631,1.546-3.489,3.232-6.918,4.963-10.322a5.814,5.814,0,0,1,1.814-1.961c.173-.123.495-.038.9.086a.807.807,0,0,1,.54,1,.764.764,0,0,1-.035.1l-.8,1.757a1.234,1.234,0,0,0,.232,1.363l1.575,1.652a1.567,1.567,0,0,1,.408,1.33c.413.257.648.518.6.737-.044.2-.319.332-.732.4.3.217.453.433.41.618-.047.209-.344.342-.787.4.326.228.5.455.457.649s-.31.327-.713.392l-.015.065c.337.231.52.463.477.66s-.321.332-.736.4l-.008.031c.4.252.627.509.578.725s-.374.354-.857.41v.021c.379.246.593.494.546.7s-.324.334-.742.4c.334.231.516.461.471.658s-.328.335-.752.4c.407.256.641.516.592.734s-.4.369-.927.418v.007c.417.258.655.521.6.742s-.387.361-.887.413c-.011.043-.021.086-.032.128.412.257.647.518.6.738s-.385.359-.882.413l-.019.08c.319.226.49.45.446.643s-.3.325-.7.391c-.016.066-.031.133-.049.2.236.192.363.381.326.545s-.241.286-.547.359l-.06.242a1.132,1.132,0,0,0,.831,1.368l.035.008,6.04,1.28a.8.8,0,0,1,.62.946.775.775,0,0,1-.085.228l-1.213,2.226c-1.235,0-1.96.228-2.334-.038-2.377-1.692-4.543-3.727-7.507-1.6a2.484,2.484,0,0,1-1.757.384c-2.8-1.014-5.573-2.073-8.613-3.223a1.2,1.2,0,0,1-.568-1.8" fill="#6bc2ea"/>
          <path id="Path_26101" data-name="Path 26101" d="M1027.2,324.84h3a1.326,1.326,0,0,0,.938-.389l1.505-1.5a12.98,12.98,0,0,1,5.794,3.5,3.44,3.44,0,0,0,1.242.757l4.333,1.509a.458.458,0,0,1,.066.838l-1.872.987a.95.95,0,0,1-.744.055l-4.622-1.581a.994.994,0,0,0-.8.068.375.375,0,0,1,.058.348c-.07.139-.292.188-.611.16a.371.371,0,0,1,.053.335c-.061.121-.243.169-.5.163a.379.379,0,0,1,.065.358c-.069.137-.284.187-.6.162.122.174.174.325.12.433s-.236.166-.481.162a.384.384,0,0,1,.065.359.377.377,0,0,1-.314.161.132.132,0,0,1-.008.026c.141.189.2.354.146.469a.344.344,0,0,1-.259.147c.132.182.191.341.135.453a.373.373,0,0,1-.306.159l-.015.066c.186.222.267.414.2.545-.048.1-.169.146-.342.162.184.22.265.411.2.54a.3.3,0,0,1-.195.129.357.357,0,0,1,.046.317.375.375,0,0,1-.314.162c.122.173.175.326.121.434a.356.356,0,0,1-.284.152l-.007.034c.111.165.157.31.1.414a.326.326,0,0,1-.233.139l-.015.063a1.72,1.72,0,0,1-.855,1.123l-2.662,1.444a.377.377,0,0,1-.51-.155.363.363,0,0,1-.041-.128c-.533-3.7-2.068-7.052-.465-10.594a.3.3,0,0,0-.029-.311c-.608-.738-1.96-1.13-1.118-2.671" transform="translate(86 279.444)" fill="#fbeac3"/>
          <path id="Path_26102" data-name="Path 26102" d="M736.868,447.492c-1.38-3.484-2.935-6.083-6.333-7.473a.535.535,0,0,1-.311-.691.524.524,0,0,1,.084-.147l2.156-2.626a.506.506,0,0,0-.39-.827h-1.537a2.655,2.655,0,0,1-1.693-.609l-4.542-3.75-.081-1.856a1.213,1.213,0,0,0-.3-.737c-2.981-3.459-5.488-6.021-8.288-9.231a2.087,2.087,0,0,0-1.437-.552l-.936.338a1.351,1.351,0,0,0-.9,1.428,7.309,7.309,0,0,0,.2.96c-.2.151-.326.307-.311.462.018.2.251.36.61.483l.039.1c-.291.178-.459.368-.441.555.022.233.326.418.8.545-.386.2-.609.424-.588.641.022.236.335.423.821.55-.454.215-.726.457-.7.694s.323.416.792.542c-.5.224-.8.478-.773.726s.37.445.906.572c-.464.217-.743.462-.721.7.027.28.446.495,1.1.617-.351.247-.54.493-.493.7.052.232.391.376.892.44l.006.036c-.162.165-.254.326-.221.469s.171.238.371.317q.1.555.215,1.137l.228.337a.429.429,0,0,0-.192.279c-.021.26.329.518.878.739l.132.2c-.16.1-.277.206-.287.332-.023.293.4.587,1.066.823-.351.129-.568.3-.583.494-.028.36.609.722,1.572.973.051.077.1.148.151.225a.308.308,0,0,1-.086.426l-.008.005a6.394,6.394,0,0,1-2.339,1.248c-2.026.2-4.087.039-6.132.091-.334.008-.659.361-.826.459v3.884a.644.644,0,0,0,.646.642.733.733,0,0,0,.08,0l8.248-1.051a7.562,7.562,0,0,1,2.681.16c-.009.377.064.645.244.732.2.1.509-.053.851-.373-.06.522,0,.9.224,1.005s.573-.089.959-.483l.032.016c-.054.51.008.878.225.982s.538-.077.9-.431l.184.09c-.045.483.017.834.226.935s.52-.066.869-.4l.173.085c0,.356.064.615.236.7s.415-.024.689-.246c.068.034.139.069.207.1-.064.531-.009.92.212,1.027s.565-.083.945-.466l.01.005c-.087.592-.028,1.016.21,1.131s.585-.092.979-.5c-.1.631-.046,1.082.2,1.2s.607-.1,1.017-.537c-.088.591-.027,1.016.209,1.131s.6-.1,1-.519c.013.3.087.516.242.592.2.1.483-.038.808-.331,0,.354.073.606.246.69.193.093.475-.045.793-.327a15.845,15.845,0,0,0,3.53-.056.394.394,0,0,0,.382-.406.414.414,0,0,0-.027-.13" fill="#d9a530"/>
          <path id="Path_26103" data-name="Path 26103" d="M1191.725,558.583l-1.066-1.548a2.991,2.991,0,0,0-2.463-1.294h-4.8a1.722,1.722,0,0,1-1.51-.886A22.466,22.466,0,0,1,1179.98,551c-.577-1.827-.407-3.933-1.168-5.65-2.406-5.431-5.032-10.768-7.724-16.065a9.047,9.047,0,0,0-2.826-3.052c-.268-.193-.769-.06-1.406.134a1.254,1.254,0,0,0-.843,1.559,1.237,1.237,0,0,0,.059.157l1.24,2.734a1.925,1.925,0,0,1-.359,2.122l-2.453,2.572a2.437,2.437,0,0,0-.635,2.069c-.641.4-1.007.806-.931,1.147.071.312.5.516,1.14.616-.463.338-.7.674-.638.963.073.325.534.531,1.225.625-.506.354-.778.707-.71,1.009s.481.51,1.107.611c.009.034.018.067.025.1-.523.361-.809.721-.741,1.029s.5.516,1.145.615l.012.048c-.623.394-.976.793-.9,1.129s.583.552,1.334.638l.009.033c-.59.383-.923.77-.849,1.1s.5.519,1.156.617c-.52.36-.805.719-.735,1.025s.511.521,1.173.619c-.637.4-1,.8-.923,1.142.079.359.627.575,1.441.652v.01c-.649.4-1.019.811-.942,1.154s.6.562,1.384.644l.048.2c-.641.4-1.007.807-.931,1.148s.6.56,1.37.643c.012.042.021.083.031.125-.5.351-.762.7-.7,1s.474.507,1.09.609c.025.1.051.207.077.31-.364.3-.564.593-.506.848s.375.445.85.558l.094.378a1.763,1.763,0,0,1-1.3,2.13l-.051.012-9.4,1.991a1.248,1.248,0,0,0-.96,1.481,1.21,1.21,0,0,0,.13.347l1.886,3.463c1.923,0,3.05.356,3.632-.058,3.7-2.633,7.074-5.8,11.687-2.487a3.851,3.851,0,0,0,2.734.6c4.349-1.578,8.672-3.226,13.405-5.016a1.872,1.872,0,0,0,1.091-2.411,1.9,1.9,0,0,0-.206-.4" transform="translate(50)" fill="#fae3b0"/>
          <path id="Path_26104" data-name="Path 26104" d="M870.14,411.978h-4.288a1.9,1.9,0,0,1-1.341-.556l-2.153-2.153a18.568,18.568,0,0,0-8.288,5.008,4.915,4.915,0,0,1-1.776,1.082l-6.2,2.158a.656.656,0,0,0-.095,1.2l2.679,1.412a1.35,1.35,0,0,0,1.062.078l6.611-2.262a1.417,1.417,0,0,1,1.141.1.535.535,0,0,0-.083.5c.1.2.417.268.874.229a.523.523,0,0,0-.075.479c.086.172.347.24.709.232a.546.546,0,0,0-.092.512c.1.2.406.268.852.232-.174.248-.249.465-.171.619.083.169.337.238.687.233a.552.552,0,0,0-.092.512.534.534,0,0,0,.448.23.186.186,0,0,0,.012.038c-.2.27-.292.506-.209.671a.494.494,0,0,0,.371.209c-.189.261-.273.489-.193.649a.53.53,0,0,0,.437.227c.008.032.015.063.023.1-.267.317-.383.592-.29.779.069.136.242.209.488.231-.262.315-.378.588-.284.774a.432.432,0,0,0,.278.184.517.517,0,0,0-.067.454.54.54,0,0,0,.451.23c-.175.249-.251.467-.173.621a.509.509,0,0,0,.4.218l.011.049c-.159.236-.225.443-.151.591a.468.468,0,0,0,.334.2l.021.09a2.458,2.458,0,0,0,1.223,1.606l3.806,2.065a.538.538,0,0,0,.789-.4c.763-5.29,2.958-10.087.666-15.153a.428.428,0,0,1,.04-.445c.871-1.055,2.8-1.616,1.6-3.82" fill="#f6d078"/>
          <path id="Path_26105" data-name="Path 26105" d="M969.864,514.314c-1.878-1.155-2.879-2.073-3.99-2.233a10.947,10.947,0,0,0-3.805.659.528.528,0,0,1-.61-.331l-2.3-6.156a.7.7,0,0,0-.459-.425c-5.677-1.646-11.118-3.062-16.79-2.35a1.143,1.143,0,0,0-.987,1.064l-.015.271a1.6,1.6,0,0,1,.238.873.393.393,0,0,0,.18.084.421.421,0,0,0,.06.361c.143.155.451.115.806-.048-.051.266-.03.485.1.584.165.122.449.045.76-.168a.476.476,0,0,0,.118.423c.138.1.361.063.612-.075a.441.441,0,0,0,.124.362c.144.107.376.063.639-.089a.427.427,0,0,0,.125.348c.133.1.346.064.586-.063l.069.036c-.029.226-.009.417.111.505.143.106.375.064.636-.087a.489.489,0,0,0,.117.437c.142.105.373.063.633-.087l.022.011a.436.436,0,0,0,.124.363.514.514,0,0,0,.513-.025.538.538,0,0,0,.112.489c.148.109.39.062.663-.1l.056.028c-.029.224-.008.415.111.5.148.111.392.062.666-.1l.114.058c.242,2.086,2.648,4.192.786,6.365a4.159,4.159,0,0,1-3.18,1.391h-5.951a.283.283,0,0,0-.282.285.273.273,0,0,0,.042.147l1.777,2.857a.268.268,0,0,0,.227.127c1.681.035,3.638.6,4.7-.131,2.293-1.573,4.648-1.2,6.94-1.038,5.538.392,10.091-1.946,15.577-4.624a.284.284,0,0,0,.127-.38.279.279,0,0,0-.106-.115" fill="#f5c55a"/>
          <path id="Path_26106" data-name="Path 26106" d="M756.425,631.967c1.38-3.484,2.935-6.083,6.333-7.473a.535.535,0,0,0,.311-.691.523.523,0,0,0-.084-.147l-2.156-2.626a.506.506,0,0,1,.39-.827h1.537a2.655,2.655,0,0,0,1.693-.609l4.542-3.75.081-1.856a1.216,1.216,0,0,1,.295-.737c2.981-3.459,5.488-6.021,8.288-9.231a2.082,2.082,0,0,1,1.437-.552l.936.338a1.352,1.352,0,0,1,.9,1.428,7.47,7.47,0,0,1-.2.96c.2.151.326.307.311.462-.018.2-.251.36-.61.483l-.039.1c.291.178.459.368.441.555-.022.233-.326.418-.8.545.386.2.609.424.588.641-.022.236-.335.423-.821.55.454.215.726.457.7.694s-.323.416-.792.542c.5.224.8.478.773.726s-.37.445-.906.572c.464.217.743.462.721.7-.027.28-.446.495-1.1.617.352.247.54.493.493.7-.052.232-.391.376-.892.44l-.006.036c.162.165.254.326.221.469s-.171.238-.37.317q-.107.555-.216,1.137l-.228.337a.434.434,0,0,1,.193.279c.02.26-.33.518-.879.739l-.132.2c.16.1.277.206.287.332.023.293-.4.587-1.066.823.351.129.568.3.583.494.028.36-.609.722-1.572.973l-.151.225a.307.307,0,0,0,.086.426l.008.005a6.394,6.394,0,0,0,2.339,1.248c2.026.2,4.087.039,6.132.091.334.008.659.361.826.459v3.884a.644.644,0,0,1-.646.642.717.717,0,0,1-.08-.005l-8.248-1.051a7.561,7.561,0,0,0-2.681.16c.009.377-.064.645-.244.732-.2.1-.509-.053-.851-.373.06.522,0,.9-.224,1.005s-.573-.089-.959-.483l-.032.016c.054.51-.008.878-.225.982s-.538-.077-.9-.431l-.184.09c.045.483-.017.834-.226.935s-.52-.066-.869-.4l-.173.085c0,.356-.064.615-.236.7s-.415-.024-.689-.246c-.068.034-.139.069-.207.1.064.531.009.92-.212,1.027s-.564-.083-.944-.466l-.011.005c.087.592.028,1.016-.21,1.131s-.585-.092-.979-.5c.1.631.046,1.082-.2,1.2s-.607-.1-1.017-.537c.087.591.027,1.016-.21,1.131s-.6-.1-1-.519c-.013.3-.086.516-.242.592-.2.1-.483-.038-.808-.331,0,.354-.073.606-.246.69-.193.093-.475-.045-.793-.327a15.845,15.845,0,0,1-3.53-.056.4.4,0,0,1-.382-.406.407.407,0,0,1,.027-.13" fill="#d9a530"/>
          <path id="Path_26107" data-name="Path 26107" d="M763.823,1108.013c.074-5.273.125-10.555.125-15.859,0-112.775-15.69-225.477-44.812-319.9l-49.453,55.1c25.418,78.925,41.689,166.78,45.05,259.786.127,3.528.213,7.04.3,10.554-.191.144-.4.259-.576.422-1.466,1.317-14.441,13.1-18.975,20.652-4.512,7.521-7.717,19.6-8.067,20.95a8.535,8.535,0,0,0,16.522,4.29c.781-3.008,3.4-11.775,6.141-16.381v28.706c0,14.727,11.562,27.276,25.98,29.414,17.752,2.632,35.023-11.213,35.023-29.414V1127.4a29.472,29.472,0,0,0-7.26-19.384" fill="#b98e6e"/>
          <path id="Path_26108" data-name="Path 26108" d="M624.121,645.646c-16.463-7.141-35.638-14.459-53.326-17.515-4.946-1.157-9.534-2.081-14.473-2.988-13.57,20.18-32.823,33.492-53.557,33.784v444.5l136.717-2.439a56.756,56.756,0,0,0,.954-10.056v-35.474l8.391-284.547c8.629,20.911,41.3,175.232,48.526,197.683l63.606-37.532c-4.311-13.924-45.828-188.871-50.718-201.935-14.4-38.462-48.5-67.164-86.12-83.481" fill="#316cc9"/>
          <path id="Path_26109" data-name="Path 26109" d="M624.121,645.646c-16.463-7.141-35.638-14.459-53.326-17.515-4.946-1.157-9.534-2.081-14.473-2.988-13.57,20.18-32.823,33.492-53.557,33.784v444.5l136.717-2.439a56.756,56.756,0,0,0,.954-10.056v-35.474l8.391-284.547c8.629,20.911,41.3,175.232,48.526,197.683l63.606-37.532c-4.311-13.924-45.828-188.871-50.718-201.935-14.4-38.462-48.5-67.164-86.12-83.481" fill="#316cc9"/>
          <path id="Path_26110" data-name="Path 26110" d="M342.52,459.908c16.7,68.661,66.873,121.584,129.41,134.877v27.7c0-.587-10.477,1.467-22.618,4.067,13.643,19.622,32.238,32.429,52.767,32.429,20.7,0,39.938-13.088,53.625-33-7.374-1.351-14.744-2.515-22.1-3.314V594.785c62.537-13.292,112.713-66.216,129.41-134.877,18.517-6.192,34.342-29.678,34.342-48.725,0-17.583-13.491-26.03-30.13-28.769-11.737-90.931-80.883-160.762-164.457-160.762-85.707,0-156.242,73.439-165.244,167.763q.34-3.519.786-7c-16.638,2.739-30.131,11.186-30.131,28.769,0,19.047,15.826,42.533,34.343,48.725" fill="#cd9d7a"/>
          <path id="Path_26111" data-name="Path 26111" d="M381.409,645.646c16.463-7.141,35.638-14.459,53.326-17.515,4.946-1.157,9.534-2.081,14.473-2.988,13.57,20.18,32.823,33.492,53.557,33.784v444.5l-136.717-2.439a56.753,56.753,0,0,1-.954-10.056v-35.474L356.7,770.911c-8.629,20.911-41.3,175.232-48.526,197.683l-63.606-37.532c4.311-13.924,45.828-188.871,50.719-201.935,14.4-38.462,48.5-67.164,86.119-83.481" fill="#3e89ff"/>
          <path id="Path_26112" data-name="Path 26112" d="M381.409,645.646c16.463-7.141,35.638-14.459,53.326-17.515,4.946-1.157,9.534-2.081,14.473-2.988,13.57,20.18,32.823,33.492,53.557,33.784v444.5l-136.717-2.439a56.753,56.753,0,0,1-.954-10.056v-35.474L356.7,770.911c-8.629,20.911-41.3,175.232-48.526,197.683l-63.606-37.532c4.311-13.924,45.828-188.871,50.719-201.935,14.4-38.462,48.5-67.164,86.119-83.481" fill="#3e89ff"/>
          <path id="Path_26113" data-name="Path 26113" d="M651.424,1103.42c.288-1.6.534-3.218.684-4.865q-.247,2.461-.684,4.865" fill="#cd9d7a"/>
          <path id="Path_26114" data-name="Path 26114" d="M667.222,382.414c-11.737-90.931-80.883-160.761-164.457-160.761V658.928c20.433-.288,39.4-13.255,52.938-32.947-7.374-1.352-14.744-2.516-22.1-3.315V594.785c62.538-13.292,112.713-66.215,129.41-134.877,18.517-6.192,34.343-29.678,34.343-48.725,0-17.582-13.492-26.03-30.131-28.769" fill="#b98e6e"/>
          <path id="Path_26115" data-name="Path 26115" d="M339.274,403.345s23.582,8.8,65.73-82.972c0,0,114.18,85.348,260.691,76.618,0,0,28.743-207.778-160.855-207.706-227.306.086-165.566,214.06-165.566,214.06" fill="#414042"/>
          <path id="Path_26116" data-name="Path 26116" d="M704.443,978.326,770.977,954.2a7.308,7.308,0,0,0,4.379-9.36l-6.62-18.256a7.308,7.308,0,0,0-9.361-4.378l-66.534,24.127a7.307,7.307,0,0,0-4.378,9.36l6.62,18.256a7.307,7.307,0,0,0,9.36,4.378" fill="#2c4f96"/>
          <path id="Path_26117" data-name="Path 26117" d="M409.566,894.787,383.344,642.829a18.021,18.021,0,0,1,14.209-21.157l3.441-.676a18.021,18.021,0,0,1,21.157,14.21l26.222,251.957a7.307,7.307,0,0,1-5.761,8.579l-24.467,4.806a7.307,7.307,0,0,1-8.579-5.761" fill="#db504a"/>
          <path id="Path_26118" data-name="Path 26118" d="M581.067,901.549l50.454-254.23a18.02,18.02,0,0,0-14.209-21.157l-3.442-.676A18.02,18.02,0,0,0,592.714,639.7L542.26,893.925a7.306,7.306,0,0,0,5.761,8.579l24.466,4.806a7.308,7.308,0,0,0,8.58-5.761" fill="#d42e28"/>
          <path id="Path_26119" data-name="Path 26119" d="M504.84,189.285c-.9,0-1.765.034-2.661.041V370.7c44.389,16.6,100.986,30.022,163.515,26.3,0,0,28.744-207.778-160.854-207.706" fill="#282729"/>
          <path id="Path_26120" data-name="Path 26120" d="M505.887,319c61.886,0,119.66,10.535,168.7,28.749V282.775c0-72.253-64.742-130.826-144.6-130.826H474.371c-79.863,0-144.6,58.573-144.6,130.826l1.171,66.529c50.6-19.96,109.909-30.3,174.949-30.3" fill="#3e89ff"/>
          <path id="Path_26121" data-name="Path 26121" d="M531.159,151.949h-28.98v167.11c1.628-.015,3.246-.055,4.879-.055,61.886,0,119.66,10.535,168.7,28.749V282.776c0-72.254-64.742-130.827-144.6-130.827" fill="#316cc9"/>
          <path id="Path_26122" data-name="Path 26122" d="M324.5,340.772l-.012,16.767c0,20.5,20.633,35.755,42.912,32a812.112,812.112,0,0,1,271.908,0c22.279,3.756,42.912-11.5,42.912-32V343.878C631.336,324.983,571.4,314.053,507.2,314.053c-67.475,0-130.213,6.012-182.7,26.719" fill="#d42e28"/>
          <path id="Path_26123" data-name="Path 26123" d="M334.847,326.734a15.6,15.6,0,0,0-10.362,14.623h0c0,20.5,20.633,35.754,42.912,32a812.165,812.165,0,0,1,271.908,0c22.279,3.756,42.912-11.5,42.912-32v-.98a17.972,17.972,0,0,0-12.266-17.023c-48.142-16.218-103.639-25.483-162.753-25.483-63.09,0-122.049,10.562-172.351,28.862" fill="#db504a"/>
          <path id="Path_26124" data-name="Path 26124" d="M529.213,151.949v-1.132c0-7.527-6.744-13.628-15.063-13.628h-21.6c-8.319,0-15.063,6.1-15.063,13.628v1.132Z" fill="#db504a"/>
          <path id="Path_26125" data-name="Path 26125" d="M502.135,314.11v63.981A816.145,816.145,0,0,1,639.3,389.539c22.278,3.755,42.912-11.5,42.912-32V343.879C631.336,324.984,571.4,314.054,507.2,314.054c-1.695,0-3.373.042-5.062.056" fill="#ab1009"/>
          <path id="Path_26126" data-name="Path 26126" d="M502.135,297.928v63.98A816.253,816.253,0,0,1,639.3,373.356c22.278,3.755,42.912-11.5,42.912-32v-1.933a16.678,16.678,0,0,0-11.384-15.771c-49.706-16.864-107.307-26.3-168.664-25.759l-.034.034" fill="#d42e28"/>
          <path id="Path_26127" data-name="Path 26127" d="M514.15,137.189H502.179v14.76h27.034v-1.132c0-7.527-6.744-13.628-15.063-13.628" fill="#d42e28"/>
          <path id="Path_26128" data-name="Path 26128" d="M503.7,846.774H474.356a125.462,125.462,0,0,0-114.417,73.953,64.038,64.038,0,0,0-5.493,26.329v146.121a56.635,56.635,0,0,0,17.472,40.943l4.822,379.031a2.9,2.9,0,0,1,1.861-.712h91.788l10.758-347.87h22.911Z" fill="#fbc640"/>
          <path id="Path_26129" data-name="Path 26129" d="M639.363,908.9a125.363,125.363,0,0,0-108.3-62.126H502.8l.363,317.795h22.911l10.759,347.9c.057,0,.106-.032.165-.032h93.492l4.813-378.32a56.628,56.628,0,0,0,17.472-40.943V960.724c0-18.133-4.245-36.177-13.409-51.823" fill="#fbb040"/>
          <path id="Path_26130" data-name="Path 26130" d="M1295.113,853.018h-58.374a8.723,8.723,0,0,1,0-17.444h58.374a8.723,8.723,0,0,1,0,17.444" fill="#70a8ff"/>
          <path id="Path_26131" data-name="Path 26131" d="M1279.122,774.41l-10.863-.719-10.755-.709-17.224,52.884,24.43,1.618,24.548,1.618Zm-14.263,50.8L1246.7,824l-3.235-.212.437-1.358,3.932-12.2.272-.839.259-.8.06-.2.106-.342.236-.708.319-.99,4.663-14.476.237-.72.484-1.523,4.593-14.264,9.044.6,9.151.6,2.68,14.736.283,1.57.047.248.1.495,2.715,14.971.189,1.028.237,1.287.024.117.4,2.255h.012l2.02,11.135.4,2.208-1.24-.083Z" fill="#cf712e"/>
          <path id="Path_26132" data-name="Path 26132" d="M1279.122,774.41l-10.863-.719-10.755-.709-17.224,52.884,24.43,1.618,24.548,1.618Zm-14.263,50.8L1246.7,824l-3.235-.212.437-1.358,3.932-12.2.272-.839.259-.8.06-.2.106-.342.236-.708.319-.99,4.663-14.476.237-.72.484-1.523,4.593-14.264,9.044.6,9.151.6,2.68,14.736.283,1.57.047.248.1.495,2.715,14.971.189,1.028.237,1.287.024.117.4,2.255h.012l2.02,11.135.4,2.208-1.24-.083Z" fill="#d04c42"/>
          <path id="Path_26133" data-name="Path 26133" d="M1283.5,810.907l-.422-2.318-34-2.244-.722,2.242Z" fill="#aa2f24"/>
          <path id="Path_26134" data-name="Path 26134" d="M1280.364,793.625l-.422-2.318-25.469-1.683-.723,2.242Z" fill="#d87069"/>
          <rect id="Rectangle_1975" data-name="Rectangle 1975" width="4.046" height="23.534" transform="translate(1256.514 772.915) rotate(-86.23)" fill="#aa2f24"/>
          <path id="Path_26135" data-name="Path 26135" d="M1285.961,824.412l-16.15-7.061,14.127-4.067-.412-2.26-17,4.893-16.52-7.226-1.649-.109.173-.536-.705,2.186,15.262,6.672-19.192,5.524-.437,1.357,3.241.215,19.668-5.663,18.752,8.2,1.24.081Z" fill="#aa2f24"/>
          <path id="Path_26136" data-name="Path 26136" d="M1253.774,843.587l29.84-2.565a16.032,16.032,0,0,0,5.588-11.151l.05-.767-48.977-3.233-.05.766a16.092,16.092,0,0,0,13.554,16.95" fill="#aa2f24"/>
          <path id="Path_26137" data-name="Path 26137" d="M1285.961,824.412l-16.15-7.061-3.281-1.434-16.52-7.226-1.649-.109-.532,1.65,15.262,6.672,3.28,1.433,18.753,8.2,1.239.081Z" fill="#d04c42"/>
          <path id="Path_26138" data-name="Path 26138" d="M1253.748,791.868l26.614,1.757-.136-.745-26.245-1.733Z" fill="#aa2f24"/>
          <path id="Path_26139" data-name="Path 26139" d="M1283.27,809.617l-.187-1.029-34-2.243-.32.994Z" fill="#d87069"/>
          <rect id="Rectangle_1976" data-name="Rectangle 1976" width="4.046" height="11.767" transform="translate(1268.254 773.69) rotate(-86.23)" fill="#9c2519"/>
          <path id="Path_26140" data-name="Path 26140" d="M1279.122,774.41l-10.868-.718-.15,2.277,9.157.6,9.1,50.048-21.509-1.419-.15,2.276,24.548,1.621Z" fill="#d87069"/>
          <rect id="Rectangle_1977" data-name="Rectangle 1977" width="13.527" height="1.322" transform="translate(1267.92 769.613) rotate(-86.223)" fill="#bebebe"/>
          <rect id="Rectangle_1978" data-name="Rectangle 1978" width="13.528" height="0.719" transform="translate(1268.521 769.652) rotate(-86.215)" fill="#acacac"/>
          <path id="Path_26141" data-name="Path 26141" d="M1268.628,758.87l-.339,5.123a9.546,9.546,0,0,0-6.817-3.023c-4.058.122-5.031-2.32-5.031-2.32s4.988,2.981,5.234-1.34,7.135-1.2,7.135-1.2Z" fill="#e48741"/>
          <path id="Path_26142" data-name="Path 26142" d="M1283.614,841.022a16.038,16.038,0,0,0,5.589-11.152l.05-.766-24.548-1.62-1.007,15.249Z" fill="#9c2519"/>
        </g>
      </g>
    </g>
  </g>
</svg>
