<svg xmlns="http://www.w3.org/2000/svg" xmlns:xlink="http://www.w3.org/1999/xlink" width="1920" height="1080" viewBox="0 0 1920 1080">
  <defs>
    <clipPath id="clip-path">
      <rect id="Rectangle_738" data-name="Rectangle 738" width="1982.368" height="1551.905" transform="translate(0 0.005)" fill="none"/>
    </clipPath>
    <clipPath id="clip-Principle_6_1">
      <rect width="1920" height="1080"/>
    </clipPath>
  </defs>
  <g id="Principle_6_1" data-name="Principle 6 – 1" clip-path="url(#clip-Principle_6_1)">
    <rect width="1920" height="1080" fill="#fff"/>
    <g id="Background" transform="translate(-57 -148.005)">
      <rect id="Rectangle_648" data-name="Rectangle 648" width="1925.623" height="632.647" transform="translate(47.04 114.377)" fill="#0052a3"/>
      <rect id="Rectangle_649" data-name="Rectangle 649" width="1945.467" height="580.095" transform="translate(36.901 742.062)" fill="#495760"/>
      <path id="Path_12055" data-name="Path 12055" d="M1293.261,488.709H85.467V276.554l1214.96,0V488.709Z" fill="#0051d3"/>
      <path id="Path_12056" data-name="Path 12056" d="M1248.2,489.943V455.516h52.227v-2.332H1187.875V418.758h112.552v-2.332H1248.2V382h52.355v-2.332h-112.68V345.242h112.552V342.91H1248.2V308.484h52.227v-2.332H1187.875V270.56h-2.329v35.592H1064.473V270.56h-2.329v35.592H941.07V270.56h-2.329v35.592H817.668v-29.6h-2.329v29.6H694.265v-29.6h-2.328v29.6H570.863V270.56h-2.329v35.592H447.46V270.56h-2.329v35.592H324.058V270.56h-2.329v35.592H200.656V270.56h-2.329v35.592H85.467v2.332h49.782V342.91H85.467v2.332h112.86v34.426H85.467V382h49.782v34.426H85.467v2.332h112.86v34.426H85.467v2.332h49.782v34.427H88.785v2.332H1302.213v-2.332Zm-2.329,0H1124.8V455.516h121.074Zm-863.816,0H260.981V455.516H382.055Zm0-73.517H260.981V382H382.055ZM1001.4,308.484h121.074V342.91H1001.4Zm0,73.516h121.074v34.426H1001.4ZM941.07,418.758h121.074v34.427H941.07Zm-123.4,0H938.742v34.427H817.668Zm-123.4,0H815.339v34.427H694.265Zm-123.4,0H691.937v34.427H570.863Zm-123.4,0H568.534v34.427H447.46Zm58-2.332H384.383V382H505.457Zm63.077-36.758H447.46V345.241H568.534Zm123.4,0H570.863V345.241H691.937Zm123.4,0H694.265V345.241H815.339Zm123.4,0H817.667V345.241H938.741ZM877.993,382H999.067v34.426H877.993Zm-123.4,0H875.665v34.426H754.591Zm-123.4,0H752.262v34.426H631.188Zm-123.4,0H628.86v34.426H507.786ZM941.07,345.242h121.074v34.427H941.07Zm58-2.332H877.993V308.484H999.067Zm-123.4,0H754.59V308.484H875.664Zm-123.4,0H631.188V308.484H752.262Zm-123.4,0H507.785V308.484H628.859Zm-123.4,0H384.383V308.484H505.457Zm-123.4,0H260.981V308.484H382.055Zm63.076,36.758H324.057V345.241H445.131Zm0,73.516H324.057V418.757H445.131Zm-60.748,2.332H505.457v34.427H384.383Zm123.4,0H628.86v34.427H507.786Zm123.4,0H752.262v34.427H631.188Zm123.4,0H875.665v34.427H754.591Zm123.4,0H999.067v34.427H877.993Zm123.4,0h121.074v34.427H1001.4Zm184.151-2.332H1064.472V418.757h121.074Zm60.325-36.758H1124.8V382h121.074Zm-60.325-36.758H1064.472V345.241h121.074Zm60.325-36.758H1124.8V308.484h121.074ZM137.578,308.484H258.652V342.91H137.578Zm63.078,36.758H321.73v34.427H200.656ZM137.578,382H258.652v34.426H137.578Zm63.078,36.758H321.73v34.427H200.656Zm-63.078,36.758H258.652v34.427H137.578Z" fill="#004aa3"/>
      <rect id="Rectangle_650" data-name="Rectangle 650" width="1776.448" height="244.23" transform="translate(82.884 497.832)" fill="#0051d3"/>
      <rect id="Rectangle_651" data-name="Rectangle 651" width="241.509" height="213.45" transform="translate(370.77 518.184)" fill="#004aa3"/>
      <rect id="Rectangle_652" data-name="Rectangle 652" width="241.51" height="213.45" transform="translate(635.468 518.184)" fill="#004aa3"/>
      <rect id="Rectangle_653" data-name="Rectangle 653" width="241.51" height="213.45" transform="translate(898.999 518.184)" fill="#004aa3"/>
      <rect id="Rectangle_654" data-name="Rectangle 654" width="676.404" height="213.45" transform="translate(1162.53 518.184)" fill="#004aa3"/>
      <rect id="Rectangle_655" data-name="Rectangle 655" width="241.51" height="213.45" transform="translate(106.072 518.184)" fill="#004aa3"/>
      <rect id="Rectangle_656" data-name="Rectangle 656" width="195.251" height="632.806" transform="translate(1787.116 114.218)" fill="#5087ed"/>
      <rect id="Rectangle_657" data-name="Rectangle 657" width="169.862" height="143.283" transform="translate(1812.506 114.217)" fill="#5e717f"/>
      <rect id="Rectangle_658" data-name="Rectangle 658" width="169.862" height="143.283" transform="translate(1812.506 314.187)" fill="#5e717f"/>
      <rect id="Rectangle_659" data-name="Rectangle 659" width="169.862" height="143.283" transform="translate(1812.506 530.685)" fill="#5e717f"/>
      <g id="Group_436" data-name="Group 436">
        <g id="Group_435" data-name="Group 435" clip-path="url(#clip-path)">
          <path id="Path_12057" data-name="Path 12057" d="M1832.817,596.373a.294.294,0,0,0-.129.558c1.5.726,4.4,2.139,8.429,4.115a114.664,114.664,0,0,0,25.6,8.971h49.743a114.671,114.671,0,0,0,25.6-8.971c4.028-1.976,6.933-3.389,8.429-4.115a.294.294,0,0,0-.129-.558Z" fill="#85abf3"/>
          <path id="Path_12058" data-name="Path 12058" d="M1832.817,600.487a.294.294,0,0,0-.129.558c1.5.726,4.4,2.139,8.429,4.115a114.658,114.658,0,0,0,25.6,8.971h49.743a114.665,114.665,0,0,0,25.6-8.971c4.028-1.976,6.933-3.389,8.429-4.115a.294.294,0,0,0-.129-.558Z" fill="#f4cbc9"/>
          <path id="Path_12059" data-name="Path 12059" d="M1832.817,604.464a.294.294,0,0,0-.129.558c1.5.726,4.4,2.139,8.429,4.115a114.661,114.661,0,0,0,25.6,8.971h49.743a114.668,114.668,0,0,0,25.6-8.971c4.028-1.976,6.933-3.389,8.429-4.115a.294.294,0,0,0-.129-.558Z" fill="#85abf3"/>
          <path id="Path_12060" data-name="Path 12060" d="M1832.817,608.578a.294.294,0,0,0-.129.558c1.5.726,4.4,2.139,8.429,4.115a114.658,114.658,0,0,0,25.6,8.971h49.743a114.665,114.665,0,0,0,25.6-8.971c4.028-1.976,6.933-3.389,8.429-4.115a.294.294,0,0,0-.129-.558Z" fill="#f4cbc9"/>
          <path id="Path_12061" data-name="Path 12061" d="M1832.817,612.536a.294.294,0,0,0-.129.558c1.5.726,4.4,2.139,8.429,4.115a114.658,114.658,0,0,0,25.6,8.971h49.743a114.665,114.665,0,0,0,25.6-8.971c4.028-1.976,6.933-3.389,8.429-4.115a.294.294,0,0,0-.129-.558Z" fill="#85abf3"/>
          <path id="Path_12062" data-name="Path 12062" d="M1832.817,616.65a.294.294,0,0,0-.129.558c1.5.726,4.4,2.139,8.429,4.115a114.661,114.661,0,0,0,25.6,8.971h49.743a114.668,114.668,0,0,0,25.6-8.971c4.028-1.976,6.933-3.389,8.429-4.115a.294.294,0,0,0-.129-.558Z" fill="#f4cbc9"/>
          <path id="Path_12063" data-name="Path 12063" d="M1832.817,620.626a.294.294,0,0,0-.129.558c1.5.726,4.4,2.139,8.429,4.115a114.661,114.661,0,0,0,25.6,8.971h49.743a114.668,114.668,0,0,0,25.6-8.971c4.028-1.976,6.933-3.389,8.429-4.115a.294.294,0,0,0-.129-.558Z" fill="#85abf3"/>
          <path id="Path_12064" data-name="Path 12064" d="M1832.817,624.74a.294.294,0,0,0-.129.558c1.5.726,4.4,2.139,8.429,4.115a114.661,114.661,0,0,0,25.6,8.971h49.743a114.668,114.668,0,0,0,25.6-8.971c4.028-1.976,6.933-3.389,8.429-4.115a.294.294,0,0,0-.129-.558Z" fill="#f4cbc9"/>
          <path id="Path_12065" data-name="Path 12065" d="M1831.169,628.878a.294.294,0,0,0-.129.558c1.5.726,4.4,2.139,8.429,4.115a114.657,114.657,0,0,0,25.6,8.971h49.743a114.666,114.666,0,0,0,25.6-8.971c4.028-1.976,6.933-3.389,8.429-4.115a.294.294,0,0,0-.129-.558Z" fill="#85abf3"/>
          <path id="Path_12066" data-name="Path 12066" d="M1831.169,632.991a.294.294,0,0,0-.129.558c1.5.727,4.4,2.139,8.429,4.115a114.608,114.608,0,0,0,25.6,8.971h49.743a114.618,114.618,0,0,0,25.6-8.971c4.028-1.976,6.933-3.388,8.429-4.115a.294.294,0,0,0-.129-.558Z" fill="#f4cbc9"/>
          <path id="Path_12067" data-name="Path 12067" d="M1831.169,636.968a.294.294,0,0,0-.129.558c1.5.726,4.4,2.139,8.429,4.115a114.654,114.654,0,0,0,25.6,8.971h49.743a114.663,114.663,0,0,0,25.6-8.971c4.028-1.976,6.933-3.389,8.429-4.115a.294.294,0,0,0-.129-.558Z" fill="#85abf3"/>
          <path id="Path_12068" data-name="Path 12068" d="M1831.169,641.082a.294.294,0,0,0-.129.558c1.5.726,4.4,2.139,8.429,4.115a114.657,114.657,0,0,0,25.6,8.971h49.743a114.667,114.667,0,0,0,25.6-8.971c4.028-1.976,6.933-3.389,8.429-4.115a.294.294,0,0,0-.129-.558Z" fill="#f4cbc9"/>
          <path id="Path_12069" data-name="Path 12069" d="M1831.169,645.04a.294.294,0,0,0-.129.558c1.5.726,4.4,2.139,8.429,4.115a114.66,114.66,0,0,0,25.6,8.971h49.743a114.67,114.67,0,0,0,25.6-8.971c4.028-1.976,6.933-3.389,8.429-4.115a.294.294,0,0,0-.129-.558Z" fill="#85abf3"/>
          <path id="Path_12070" data-name="Path 12070" d="M1831.169,649.154a.294.294,0,0,0-.129.558c1.5.726,4.4,2.139,8.429,4.115a114.657,114.657,0,0,0,25.6,8.971h49.743a114.666,114.666,0,0,0,25.6-8.971c4.028-1.976,6.933-3.389,8.429-4.115a.294.294,0,0,0-.129-.558Z" fill="#f4cbc9"/>
          <path id="Path_12071" data-name="Path 12071" d="M1831.169,653.131a.294.294,0,0,0-.129.558c1.5.726,4.4,2.139,8.429,4.115a114.66,114.66,0,0,0,25.6,8.971h49.743a114.67,114.67,0,0,0,25.6-8.971c4.028-1.976,6.933-3.389,8.429-4.115a.294.294,0,0,0-.129-.558Z" fill="#85abf3"/>
          <path id="Path_12072" data-name="Path 12072" d="M1831.169,657.245a.294.294,0,0,0-.129.558c1.5.726,4.4,2.139,8.429,4.115a114.657,114.657,0,0,0,25.6,8.971h49.743a114.666,114.666,0,0,0,25.6-8.971c4.028-1.976,6.933-3.389,8.429-4.115a.294.294,0,0,0-.129-.558Z" fill="#f4cbc9"/>
          <path id="Path_12073" data-name="Path 12073" d="M1795.479,483.324H76.4a1.778,1.778,0,0,0-1.778,1.778v10.953a1.778,1.778,0,0,0,1.778,1.778H1795.479a1.778,1.778,0,0,0,1.778-1.778V485.1a1.778,1.778,0,0,0-1.778-1.778" fill="#004aa3"/>
          <path id="Path_12074" data-name="Path 12074" d="M1827.344,396.984a38.761,38.761,0,0,0,12.969,29.815l49.286,1.318a38.758,38.758,0,0,0,14.543-29.079Z" fill="#85abf3"/>
          <path id="Path_12075" data-name="Path 12075" d="M1824.985,399.633a40.838,40.838,0,0,0,13.055,31.674l51.9,2.392a40.835,40.835,0,0,0,15.914-30.338Z" fill="#f4cbc9"/>
          <path id="Path_12076" data-name="Path 12076" d="M1821.574,405.395A43.681,43.681,0,0,0,1836.19,439l55.546,1.485a43.679,43.679,0,0,0,16.39-32.772Z" fill="#85abf3"/>
          <path id="Path_12077" data-name="Path 12077" d="M1818.915,408.381a46.027,46.027,0,0,0,14.713,35.7l58.487,2.7a46.03,46.03,0,0,0,17.935-34.192Z" fill="#f4cbc9"/>
          <path id="Path_12078" data-name="Path 12078" d="M1818.2,418a47.132,47.132,0,0,0,17.747,35.33l59.929-1.707a47.131,47.131,0,0,0,15.707-36.283Z" fill="#85abf3"/>
          <path id="Path_12079" data-name="Path 12079" d="M1818,421.121a47.823,47.823,0,0,0,16.981,36.349h60.838a47.822,47.822,0,0,0,16.981-36.349Z" fill="#f4cbc9"/>
          <rect id="Rectangle_660" data-name="Rectangle 660" width="87.677" height="72.808" transform="translate(1829.334 184.692)" fill="#dbdcdf"/>
          <path id="Path_12080" data-name="Path 12080" d="M1951.664,207.8l-34.652-.6v-7.093l34.652-.939a4.315,4.315,0,1,1,0,8.63" fill="#262626"/>
          <rect id="Rectangle_661" data-name="Rectangle 661" width="33.871" height="72.808" transform="translate(1948.497 384.662)" fill="#f4cbc9"/>
          <path id="Path_12081" data-name="Path 12081" d="M1913.844,407.767l34.652-.6v-7.093l-34.652-.939a4.314,4.314,0,1,0,0,8.629" fill="#262626"/>
          <path id="Path_12082" data-name="Path 12082" d="M1061.255,386.734a57.551,57.551,0,1,1-57.551-57.551,57.55,57.55,0,0,1,57.551,57.551" fill="#dbdcdf"/>
          <path id="Path_12083" data-name="Path 12083" d="M1045.86,386.734a42.156,42.156,0,1,1-42.156-42.156,42.156,42.156,0,0,1,42.156,42.156" fill="#b7bac3"/>
          <rect id="Rectangle_662" data-name="Rectangle 662" width="14.563" height="123.391" transform="translate(996.423 211.365)" fill="#dbdcdf"/>
          <path id="Path_12084" data-name="Path 12084" d="M1061.255,386.734a57.551,57.551,0,0,0-57.551-57.551v115.1a57.551,57.551,0,0,0,57.551-57.551" fill="#b7bac3"/>
          <path id="Path_12085" data-name="Path 12085" d="M1045.86,386.734a42.156,42.156,0,0,0-42.156-42.156V428.89a42.156,42.156,0,0,0,42.156-42.156" fill="#9196a4"/>
          <path id="Path_12086" data-name="Path 12086" d="M1129.858,339.975a28.776,28.776,0,1,1-28.776-28.776,28.776,28.776,0,0,1,28.776,28.776" fill="#dbdcdf"/>
          <path id="Path_12087" data-name="Path 12087" d="M1122.161,339.975a21.078,21.078,0,1,1-21.078-21.078,21.078,21.078,0,0,1,21.078,21.078" fill="#b7bac3"/>
          <rect id="Rectangle_663" data-name="Rectangle 663" width="7.282" height="61.695" transform="translate(1097.442 252.29)" fill="#dbdcdf"/>
          <path id="Path_12088" data-name="Path 12088" d="M1129.858,339.975a28.776,28.776,0,0,0-28.776-28.776v57.552a28.776,28.776,0,0,0,28.776-28.776" fill="#b7bac3"/>
          <path id="Path_12089" data-name="Path 12089" d="M1122.161,339.975a21.078,21.078,0,0,0-21.078-21.078v42.156a21.078,21.078,0,0,0,21.078-21.078" fill="#9196a4"/>
          <rect id="Rectangle_664" data-name="Rectangle 664" width="105.339" height="3.929" transform="translate(828.101 248.206)" fill="#8b8e95"/>
          <rect id="Rectangle_665" data-name="Rectangle 665" width="3.73" height="20.68" transform="translate(842.195 288.275)" fill="#dbdcdf"/>
          <path id="Path_12090" data-name="Path 12090" d="M855.71,323.916c0,9.223-5.258,16.7-11.745,16.7s-11.745-7.477-11.745-16.7,5.259-16.7,11.745-16.7,11.745,7.477,11.745,16.7" fill="#dbdcdf"/>
          <rect id="Rectangle_666" data-name="Rectangle 666" width="5.327" height="38.288" transform="translate(841.519 249.987)" fill="#b7bac3"/>
          <path id="Path_12091" data-name="Path 12091" d="M855.71,323.916c0-9.223-5.258-16.7-11.745-16.7v33.4c6.487,0,11.745-7.477,11.745-16.7" fill="#b7bac3"/>
          <rect id="Rectangle_667" data-name="Rectangle 667" width="3.73" height="20.68" transform="translate(913.133 287.798)" fill="#dbdcdf"/>
          <path id="Path_12092" data-name="Path 12092" d="M915,306.7a14.69,14.69,0,1,0,14.691,14.69A14.69,14.69,0,0,0,915,306.7m-7.632,19.727a1.6,1.6,0,1,1,1.6-1.6,1.6,1.6,0,0,1-1.6,1.6m2.834-9.257a1.6,1.6,0,1,1,1.6-1.6,1.6,1.6,0,0,1-1.6,1.6m3.2,4.22a1.6,1.6,0,1,1,1.6,1.6,1.6,1.6,0,0,1-1.6-1.6m2.809,10.176a1.6,1.6,0,1,1,1.6-1.6,1.6,1.6,0,0,1-1.6,1.6m4.571-14.4a1.6,1.6,0,1,1,1.6-1.6,1.6,1.6,0,0,1-1.6,1.6m2.834,8a1.6,1.6,0,1,1,1.6-1.6,1.6,1.6,0,0,1-1.6,1.6" fill="#dbdcdf"/>
          <rect id="Rectangle_668" data-name="Rectangle 668" width="5.327" height="38.288" transform="translate(912.457 249.51)" fill="#b7bac3"/>
          <path id="Path_12093" data-name="Path 12093" d="M916.6,321.393a1.6,1.6,0,0,1-1.6,1.6v5.942a1.6,1.6,0,1,1,0,2.072v5.077a14.69,14.69,0,0,0,0-29.38v13.091a1.6,1.6,0,0,1,1.6,1.6m7.016.58a1.6,1.6,0,1,1-1.6,1.6,1.6,1.6,0,0,1,1.6-1.6m-2.834-8a1.6,1.6,0,1,1-1.6,1.6,1.6,1.6,0,0,1,1.6-1.6" fill="#b7bac3"/>
          <path id="Path_12094" data-name="Path 12094" d="M864.431,318.307h30.1a15.05,15.05,0,0,1-30.1,0" fill="#dbdcdf"/>
          <rect id="Rectangle_669" data-name="Rectangle 669" width="3.73" height="29.924" transform="translate(877.494 288.382)" fill="#dbdcdf"/>
          <rect id="Rectangle_670" data-name="Rectangle 670" width="5.327" height="38.288" transform="translate(876.818 250.095)" fill="#b7bac3"/>
          <path id="Path_12095" data-name="Path 12095" d="M879.359,333.354c.041,0,.081,0,.123,0a15.05,15.05,0,0,0,15.05-15.05H879.359Z" fill="#b7bac3"/>
          <path id="Path_12096" data-name="Path 12096" d="M359.85,386.734A57.551,57.551,0,1,1,302.3,329.183a57.551,57.551,0,0,1,57.551,57.551" fill="#004cbc"/>
          <path id="Path_12097" data-name="Path 12097" d="M344.455,386.734A42.156,42.156,0,1,1,302.3,344.578a42.156,42.156,0,0,1,42.156,42.156" fill="#004cbc"/>
          <rect id="Rectangle_671" data-name="Rectangle 671" width="14.564" height="123.391" transform="translate(295.017 211.365)" fill="#004cbc"/>
          <path id="Path_12098" data-name="Path 12098" d="M359.85,386.734A57.551,57.551,0,0,0,302.3,329.183v115.1a57.551,57.551,0,0,0,57.551-57.551" fill="#004cbc"/>
          <path id="Path_12099" data-name="Path 12099" d="M344.455,386.734A42.156,42.156,0,0,0,302.3,344.578V428.89a42.156,42.156,0,0,0,42.156-42.156" fill="#004cbc"/>
          <path id="Path_12100" data-name="Path 12100" d="M434.928,339.975A28.775,28.775,0,1,1,406.152,311.2a28.776,28.776,0,0,1,28.776,28.776" fill="#004cbc"/>
          <path id="Path_12101" data-name="Path 12101" d="M427.231,339.975A21.078,21.078,0,1,1,406.153,318.9a21.078,21.078,0,0,1,21.078,21.078" fill="#004cbc"/>
          <rect id="Rectangle_672" data-name="Rectangle 672" width="7.282" height="61.695" transform="translate(402.511 252.29)" fill="#004cbc"/>
          <path id="Path_12102" data-name="Path 12102" d="M434.928,339.975A28.776,28.776,0,0,0,406.152,311.2v57.552a28.776,28.776,0,0,0,28.776-28.776" fill="#004cbc"/>
          <path id="Path_12103" data-name="Path 12103" d="M427.231,339.975A21.078,21.078,0,0,0,406.153,318.9v42.156a21.078,21.078,0,0,0,21.078-21.078" fill="#004cbc"/>
          <rect id="Rectangle_673" data-name="Rectangle 673" width="99.835" height="83.988" transform="translate(287.695 98.969)" fill="#85abf3"/>
          <path id="Path_12104" data-name="Path 12104" d="M573.73,255.39H101.5l186.2-72.433H387.53Z" fill="#85abf3"/>
          <rect id="Rectangle_674" data-name="Rectangle 674" width="472.234" height="21.59" transform="translate(101.496 255.39)" fill="#004aa3"/>
          <rect id="Rectangle_675" data-name="Rectangle 675" width="236.117" height="21.59" transform="translate(337.613 255.39)" fill="#0049a0"/>
          <path id="Path_12105" data-name="Path 12105" d="M337.613,255.39H573.73l-186.2-72.433H337.613Z" fill="#5087ed"/>
          <rect id="Rectangle_676" data-name="Rectangle 676" width="49.917" height="83.988" transform="translate(337.613 98.969)" fill="#5087ed"/>
          <rect id="Rectangle_677" data-name="Rectangle 677" width="99.835" height="83.988" transform="translate(1000.918 99.028)" fill="#85abf3"/>
          <path id="Path_12106" data-name="Path 12106" d="M1286.953,255.449H814.719l186.2-72.433h99.835Z" fill="#85abf3"/>
          <rect id="Rectangle_678" data-name="Rectangle 678" width="472.234" height="21.59" transform="translate(814.719 255.449)" fill="#495760"/>
          <rect id="Rectangle_679" data-name="Rectangle 679" width="236.117" height="21.59" transform="translate(1050.836 255.449)" fill="#232a2f"/>
          <path id="Path_12107" data-name="Path 12107" d="M1050.836,255.449h236.117l-186.2-72.433h-49.917Z" fill="#5087ed"/>
          <rect id="Rectangle_680" data-name="Rectangle 680" width="49.917" height="83.988" transform="translate(1050.836 99.028)" fill="#5087ed"/>
          <rect id="Rectangle_681" data-name="Rectangle 681" width="416.64" height="10.677" transform="translate(139.756 472.647)" fill="#004cbc"/>
          <rect id="Rectangle_682" data-name="Rectangle 682" width="32.242" height="8.214" transform="translate(164.761 464.432)" fill="#004cbc"/>
          <rect id="Rectangle_683" data-name="Rectangle 683" width="32.242" height="8.214" transform="translate(228.64 464.432)" fill="#004cbc"/>
          <rect id="Rectangle_684" data-name="Rectangle 684" width="32.242" height="8.214" transform="translate(316.987 464.432)" fill="#004cbc"/>
          <rect id="Rectangle_685" data-name="Rectangle 685" width="32.242" height="8.214" transform="translate(380.866 464.432)" fill="#004cbc"/>
          <rect id="Rectangle_686" data-name="Rectangle 686" width="32.242" height="8.214" transform="translate(452.87 464.432)" fill="#004cbc"/>
          <rect id="Rectangle_687" data-name="Rectangle 687" width="32.242" height="8.214" transform="translate(516.748 464.432)" fill="#004cbc"/>
          <rect id="Rectangle_688" data-name="Rectangle 688" width="416.64" height="10.677" transform="translate(841.363 472.647)" fill="#f4cbc9"/>
          <rect id="Rectangle_689" data-name="Rectangle 689" width="32.242" height="8.214" transform="translate(866.368 464.432)" fill="#232a2f"/>
          <rect id="Rectangle_690" data-name="Rectangle 690" width="32.242" height="8.214" transform="translate(930.247 464.432)" fill="#232a2f"/>
          <rect id="Rectangle_691" data-name="Rectangle 691" width="32.242" height="8.214" transform="translate(1018.594 464.432)" fill="#232a2f"/>
          <rect id="Rectangle_692" data-name="Rectangle 692" width="32.242" height="8.214" transform="translate(1082.473 464.432)" fill="#232a2f"/>
          <rect id="Rectangle_693" data-name="Rectangle 693" width="32.242" height="8.214" transform="translate(1154.477 464.432)" fill="#232a2f"/>
          <rect id="Rectangle_694" data-name="Rectangle 694" width="32.242" height="8.214" transform="translate(1218.355 464.432)" fill="#232a2f"/>
          <rect id="Rectangle_695" data-name="Rectangle 695" width="105.339" height="3.929" transform="translate(452.224 300.547)" fill="#004cbc"/>
          <rect id="Rectangle_696" data-name="Rectangle 696" width="3.73" height="20.68" transform="translate(537.379 336.169)" fill="#004cbc"/>
          <rect id="Rectangle_697" data-name="Rectangle 697" width="5.327" height="38.288" transform="translate(536.58 297.881)" fill="#004cbc"/>
          <rect id="Rectangle_698" data-name="Rectangle 698" width="23.284" height="34.308" transform="translate(535.88 356.849)" fill="#004cbc"/>
          <rect id="Rectangle_699" data-name="Rectangle 699" width="11.642" height="34.308" transform="translate(547.522 356.849)" fill="#004cbc"/>
          <rect id="Rectangle_700" data-name="Rectangle 700" width="3.73" height="20.68" transform="translate(466.223 336.686)" fill="#004cbc"/>
          <path id="Path_12108" data-name="Path 12108" d="M467.993,355.627c-6.486,0-11.744,7.477-11.744,16.7s5.258,16.7,11.744,16.7,11.745-7.477,11.745-16.7-5.258-16.7-11.745-16.7m-4.666,26.6h-2.368V365.3h2.368Zm5.945,0H466.9V365.3h2.368Zm3.577-16.926h2.368v16.927h-2.368Z" fill="#004cbc"/>
          <rect id="Rectangle_701" data-name="Rectangle 701" width="5.327" height="38.288" transform="translate(465.44 298.398)" fill="#004cbc"/>
          <path id="Path_12109" data-name="Path 12109" d="M467.993,355.627h0V365.3h1.279v16.926h-1.279v6.8c6.487,0,11.745-7.477,11.745-16.7s-5.258-16.7-11.745-16.7m7.224,26.6h-2.368V365.3h2.368Z" fill="#004cbc"/>
          <path id="Path_12110" data-name="Path 12110" d="M498.3,377.14c0-8.086,2.322-13.892,5.186-13.892s5.186,5.806,5.186,13.892a71.933,71.933,0,0,1-1.451,13.473.45.45,0,0,0,.838.3c2.79-5.386,4.673-14.631,4.673-20.779,0-9.124-4.139-13.225-9.246-13.225s-9.246,4.1-9.246,13.225c0,6.148,1.883,15.393,4.673,20.779a.45.45,0,0,0,.838-.3A72.015,72.015,0,0,1,498.3,377.14" fill="#004cbc"/>
          <rect id="Rectangle_702" data-name="Rectangle 702" width="3.73" height="20.68" transform="translate(501.618 336.87)" fill="#004cbc"/>
          <rect id="Rectangle_703" data-name="Rectangle 703" width="5.327" height="38.288" transform="translate(500.819 298.582)" fill="#004cbc"/>
          <path id="Path_12111" data-name="Path 12111" d="M508.669,377.14a72.034,72.034,0,0,1-1.451,13.474.45.45,0,0,0,.838.3c2.79-5.385,4.673-14.631,4.673-20.779,0-9.124-4.14-13.225-9.246-13.225v6.336c2.864,0,5.186,5.806,5.186,13.892" fill="#004cbc"/>
          <rect id="Rectangle_704" data-name="Rectangle 704" width="105.339" height="3.929" transform="translate(121.882 300.291)" fill="#004cbc"/>
          <rect id="Rectangle_705" data-name="Rectangle 705" width="3.73" height="20.68" transform="translate(135.976 340.36)" fill="#004cbc"/>
          <path id="Path_12112" data-name="Path 12112" d="M149.492,376c0,9.223-5.258,16.7-11.745,16.7S126,385.224,126,376s5.258-16.7,11.744-16.7,11.745,7.477,11.745,16.7" fill="#004cbc"/>
          <rect id="Rectangle_706" data-name="Rectangle 706" width="5.327" height="38.288" transform="translate(135.301 302.072)" fill="#004cbc"/>
          <path id="Path_12113" data-name="Path 12113" d="M149.492,376c0-9.223-5.258-16.7-11.745-16.7v33.4c6.487,0,11.745-7.477,11.745-16.7" fill="#004cbc"/>
          <rect id="Rectangle_707" data-name="Rectangle 707" width="3.73" height="20.68" transform="translate(206.914 339.884)" fill="#004cbc"/>
          <path id="Path_12114" data-name="Path 12114" d="M208.779,358.789a14.69,14.69,0,1,0,14.691,14.69,14.689,14.689,0,0,0-14.691-14.69m-7.632,19.727a1.6,1.6,0,1,1,1.6-1.6,1.6,1.6,0,0,1-1.6,1.6m2.834-9.257a1.6,1.6,0,1,1,1.6-1.6,1.6,1.6,0,0,1-1.6,1.6m3.2,4.22a1.6,1.6,0,1,1,1.6,1.6,1.6,1.6,0,0,1-1.6-1.6m2.809,10.176a1.6,1.6,0,1,1,1.6-1.6,1.6,1.6,0,0,1-1.6,1.6m4.571-14.4a1.6,1.6,0,1,1,1.6-1.6,1.6,1.6,0,0,1-1.6,1.6m2.834,8a1.6,1.6,0,1,1,1.6-1.6,1.6,1.6,0,0,1-1.6,1.6" fill="#004cbc"/>
          <rect id="Rectangle_708" data-name="Rectangle 708" width="5.327" height="38.288" transform="translate(206.238 301.596)" fill="#004cbc"/>
          <path id="Path_12115" data-name="Path 12115" d="M210.378,373.479a1.6,1.6,0,0,1-1.6,1.6v5.942a1.6,1.6,0,1,1,0,2.071v5.077a14.69,14.69,0,0,0,0-29.38v13.091a1.6,1.6,0,0,1,1.6,1.6m7.016.579a1.6,1.6,0,1,1-1.6,1.6,1.6,1.6,0,0,1,1.6-1.6m-2.834-8a1.6,1.6,0,1,1-1.6,1.6,1.6,1.6,0,0,1,1.6-1.6" fill="#004cbc"/>
          <path id="Path_12116" data-name="Path 12116" d="M158.213,370.392h30.1a15.05,15.05,0,0,1-30.1,0" fill="#004cbc"/>
          <rect id="Rectangle_709" data-name="Rectangle 709" width="3.73" height="29.924" transform="translate(171.275 340.468)" fill="#004cbc"/>
          <rect id="Rectangle_710" data-name="Rectangle 710" width="5.327" height="38.288" transform="translate(170.6 302.18)" fill="#004cbc"/>
          <path id="Path_12117" data-name="Path 12117" d="M173.14,385.439c.041,0,.081,0,.123,0a15.05,15.05,0,0,0,15.05-15.05H173.14Z" fill="#004cbc"/>
          <rect id="Rectangle_711" data-name="Rectangle 711" width="105.339" height="3.929" transform="translate(828.101 354.367)" fill="#232a2f"/>
          <rect id="Rectangle_712" data-name="Rectangle 712" width="3.73" height="20.68" transform="translate(913.255 389.989)" fill="#dbdcdf"/>
          <rect id="Rectangle_713" data-name="Rectangle 713" width="5.327" height="38.288" transform="translate(912.457 351.701)" fill="#b7bac3"/>
          <path id="Path_12118" data-name="Path 12118" d="M918.474,409.579h-6.708a8.007,8.007,0,0,0-8.007,8.007v23.256a.742.742,0,0,0,.742.741H925.74a.741.741,0,0,0,.741-.741V417.586a8.007,8.007,0,0,0-8.007-8.007m-7.819,29.092H907.7v-18.35h2.96Zm5.945,0h-2.96v-18.35h2.96Zm5.945,0h-2.96v-18.35h2.96Z" fill="#dbdcdf"/>
          <path id="Path_12119" data-name="Path 12119" d="M918.474,409.579H915.12v10.742h1.48v18.35h-1.48v2.912h10.62a.741.741,0,0,0,.741-.741V417.586a8.007,8.007,0,0,0-8.007-8.007m4.071,29.092h-2.96v-18.35h2.96Z" fill="#b7bac3"/>
          <rect id="Rectangle_714" data-name="Rectangle 714" width="3.73" height="20.68" transform="translate(842.099 390.506)" fill="#dbdcdf"/>
          <path id="Path_12120" data-name="Path 12120" d="M843.87,409.447c-6.487,0-11.745,7.477-11.745,16.7s5.258,16.7,11.745,16.7,11.745-7.477,11.745-16.7-5.259-16.7-11.745-16.7m-4.667,26.6h-2.368V419.119H839.2Zm5.945,0H842.78V419.119h2.368Zm3.578-16.927h2.368v16.927h-2.368Z" fill="#dbdcdf"/>
          <rect id="Rectangle_715" data-name="Rectangle 715" width="5.327" height="38.288" transform="translate(841.317 352.218)" fill="#b7bac3"/>
          <path id="Path_12121" data-name="Path 12121" d="M843.87,409.447h0v9.672h1.278v16.927H843.87v6.8c6.486,0,11.745-7.477,11.745-16.7s-5.259-16.7-11.745-16.7m7.223,26.6h-2.368V419.119h2.368Z" fill="#b7bac3"/>
          <path id="Path_12122" data-name="Path 12122" d="M874.173,430.96c0-8.086,2.322-13.892,5.186-13.892s5.186,5.806,5.186,13.892a71.93,71.93,0,0,1-1.451,13.473.45.45,0,0,0,.838.3c2.79-5.386,4.673-14.631,4.673-20.779,0-9.124-4.139-13.225-9.246-13.225s-9.246,4.1-9.246,13.225c0,6.148,1.883,15.393,4.673,20.779a.45.45,0,0,0,.838-.3,72.012,72.012,0,0,1-1.451-13.473" fill="#dbdcdf"/>
          <rect id="Rectangle_716" data-name="Rectangle 716" width="3.73" height="20.68" transform="translate(877.494 390.69)" fill="#dbdcdf"/>
          <rect id="Rectangle_717" data-name="Rectangle 717" width="5.327" height="38.288" transform="translate(876.696 352.402)" fill="#b7bac3"/>
          <path id="Path_12123" data-name="Path 12123" d="M884.545,430.96a72.012,72.012,0,0,1-1.451,13.473.45.45,0,0,0,.838.3c2.79-5.386,4.673-14.631,4.673-20.779,0-9.124-4.14-13.225-9.246-13.225v6.336c2.864,0,5.186,5.806,5.186,13.892" fill="#b7bac3"/>
          <rect id="Rectangle_718" data-name="Rectangle 718" width="174.434" height="14.509" transform="translate(609.183 298.715)" fill="#004cbc"/>
          <rect id="Rectangle_719" data-name="Rectangle 719" width="174.434" height="14.509" transform="translate(609.183 402.572)" fill="#004cbc"/>
          <path id="Path_12124" data-name="Path 12124" d="M634.849,402.573H617.014a1.042,1.042,0,0,1-1.042-1.041V356.378a9.959,9.959,0,0,1,19.918,0v45.154a1.041,1.041,0,0,1-1.041,1.041" fill="#004cbc"/>
          <rect id="Rectangle_720" data-name="Rectangle 720" width="16.537" height="38.364" transform="translate(617.663 362.264)" fill="#004cbc"/>
          <rect id="Rectangle_721" data-name="Rectangle 721" width="6.119" height="18.683" transform="translate(622.872 331.541)" fill="#004cbc"/>
          <rect id="Rectangle_722" data-name="Rectangle 722" width="5.542" height="2.358" transform="translate(623.161 329.182)" fill="#004cbc"/>
          <path id="Path_12125" data-name="Path 12125" d="M666.73,402.573H648.9a1.042,1.042,0,0,1-1.042-1.041V356.378a9.959,9.959,0,0,1,19.918,0v45.154a1.041,1.041,0,0,1-1.041,1.041" fill="#004cbc"/>
          <rect id="Rectangle_723" data-name="Rectangle 723" width="16.537" height="38.364" transform="translate(649.544 362.264)" fill="#004cbc"/>
          <rect id="Rectangle_724" data-name="Rectangle 724" width="6.119" height="18.683" transform="translate(654.753 331.541)" fill="#004cbc"/>
          <rect id="Rectangle_725" data-name="Rectangle 725" width="5.542" height="2.358" transform="translate(655.042 329.182)" fill="#004cbc"/>
          <path id="Path_12126" data-name="Path 12126" d="M646.289,298.715H622.227a.216.216,0,0,1-.228-.188L620.662,270.3h27.192l-1.337,28.227a.216.216,0,0,1-.228.188" fill="#004cbc"/>
          <path id="Path_12127" data-name="Path 12127" d="M644.459,297.149h-20.4c-.1,0-.189-.038-.193-.087l-1.134-13.089h23.056l-1.134,13.089c0,.049-.089.087-.193.087" fill="#004cbc"/>
          <rect id="Rectangle_726" data-name="Rectangle 726" width="29.005" height="3.323" transform="translate(619.755 266.977)" fill="#004cbc"/>
          <path id="Path_12128" data-name="Path 12128" d="M684.255,298.715H657.427a.181.181,0,0,1-.182-.182V265.6h27.192v32.929a.182.182,0,0,1-.182.182" fill="#004cbc"/>
          <path id="Path_12129" data-name="Path 12129" d="M683.093,297.281H658.588c-.092,0-.166-.045-.166-.1V278.809h24.837V297.18c0,.056-.074.1-.166.1" fill="#004cbc"/>
          <rect id="Rectangle_727" data-name="Rectangle 727" width="29.597" height="6.24" transform="translate(656.042 259.363)" fill="#004cbc"/>
          <path id="Path_12130" data-name="Path 12130" d="M716.822,298.754H705.236a.078.078,0,0,1-.078-.078V272.023H716.9v26.653a.079.079,0,0,1-.079.078" fill="#004cbc"/>
          <rect id="Rectangle_728" data-name="Rectangle 728" width="13.023" height="2.695" transform="translate(704.517 269.328)" fill="#004cbc"/>
          <path id="Path_12131" data-name="Path 12131" d="M742.515,298.715H730.928a.077.077,0,0,1-.077-.078V281.505h11.741v17.132a.078.078,0,0,1-.077.078" fill="#004cbc"/>
          <rect id="Rectangle_729" data-name="Rectangle 729" width="13.023" height="2.695" transform="translate(730.21 278.809)" fill="#004cbc"/>
          <path id="Path_12132" data-name="Path 12132" d="M773.831,298.754H762.245a.078.078,0,0,1-.078-.078V272.023h11.742v26.653a.078.078,0,0,1-.078.078" fill="#004cbc"/>
          <rect id="Rectangle_730" data-name="Rectangle 730" width="13.023" height="2.695" transform="translate(761.527 269.328)" fill="#004cbc"/>
          <path id="Path_12133" data-name="Path 12133" d="M709.294,360.542V343.379h-9.552v17.163a56.753,56.753,0,0,0-8.854,30.443v10.872a.715.715,0,0,0,.716.716h25.828a.716.716,0,0,0,.716-.716V390.985a56.771,56.771,0,0,0-8.854-30.443" fill="#004cbc"/>
          <rect id="Rectangle_731" data-name="Rectangle 731" width="9.558" height="4.367" transform="translate(699.735 339.012)" fill="#004cbc"/>
          <path id="Path_12134" data-name="Path 12134" d="M750,347.408v-.965H740.94v.965a69.112,69.112,0,0,1-4.8,24.828,53.836,53.836,0,0,0-3.6,19.348v10.31a.679.679,0,0,0,.679.679h24.493a.679.679,0,0,0,.679-.679v-10.31a53.836,53.836,0,0,0-3.6-19.348,69.111,69.111,0,0,1-4.8-24.828" fill="#004cbc"/>
          <rect id="Rectangle_732" data-name="Rectangle 732" width="9.067" height="3.064" transform="translate(740.939 343.379)" fill="#004cbc"/>
          <path id="Path_12135" data-name="Path 12135" d="M658.784,449.16a25.709,25.709,0,0,1-4.013-13.792v-8.4h-9.146v8.4a25.716,25.716,0,0,1-4.012,13.792,28.64,28.64,0,0,0-4.467,15.361V483.1h26.1V464.521a28.649,28.649,0,0,0-4.467-15.361" fill="#004cbc"/>
          <rect id="Rectangle_733" data-name="Rectangle 733" width="9.15" height="2.853" transform="translate(645.625 424.114)" fill="#004cbc"/>
          <path id="Path_12136" data-name="Path 12136" d="M1256.706,374.9H1148.891v89.531h107.815Z" fill="#dbdcdf"/>
          <path id="Path_12137" data-name="Path 12137" d="M1258.728,375.064H1146.87v-1.42q59.249-15.176,111.858,0Z" fill="#5087ed"/>
          <path id="Path_12138" data-name="Path 12138" d="M1273.845,401.687l-17.139-.736V392.23l17.139-1.155c1.179,0,2.134,2.375,2.134,5.306s-.955,5.306-2.134,5.306" fill="#262626"/>
          <path id="Path_12139" data-name="Path 12139" d="M1131.752,401.687l17.139-.736V392.23l-17.139-1.155c-1.179,0-2.134,2.375-2.134,5.306s.955,5.306,2.134,5.306" fill="#262626"/>
          <path id="Path_12140" data-name="Path 12140" d="M1209.116,366.4h-9.273l-4.613-8.952a.22.22,0,0,1,.2-.321h18.109a.219.219,0,0,1,.195.321Z" fill="#262626"/>
          <path id="Path_12141" data-name="Path 12141" d="M93.7,754.2l2.059,136.879a1.987,1.987,0,0,0,1.988,1.947l25.192,0a1.988,1.988,0,0,0,1.988-1.942L126.869,754.2Z" fill="#b9bbbe"/>
          <path id="Path_12142" data-name="Path 12142" d="M43.507,754.2,44.572,891.34a1.706,1.706,0,0,0,1.705,1.684H74.753a1.705,1.705,0,0,0,1.705-1.653L77.116,754.2Z" fill="#d7d9de"/>
          <path id="Path_12143" data-name="Path 12143" d="M122.187,893.024H98.93l.651,19.526a2.691,2.691,0,0,0,2.691,2.691h50.65c0-4.178-.47-8.006-3.959-10.828a27.156,27.156,0,0,0-7.781-3.9c-6.406-2.135-12.791-4.645-19-7.291v-.2Z" fill="#18171a"/>
          <path id="Path_12144" data-name="Path 12144" d="M30.385,915.241H68.477a2.691,2.691,0,0,0,2.692-2.691l.784-19.526H48.536c-1.743.708-3.278,1.4-4.2,1.794-5.235,1.937-10.476,3.755-15.737,5.622-3.366,1.194-6.717,2.857-8.929,5.66a12.041,12.041,0,0,0-2.423,9.132c4.379.074,8.763.009,13.143.009" fill="#282729"/>
          <path id="Path_12145" data-name="Path 12145" d="M65.978,570.212c.765-.146,1.935-.363,3.159-.563-1.067.151-2.123.333-3.159.563" fill="#f5d4b5"/>
          <path id="Path_12146" data-name="Path 12146" d="M35.352,517.267c9.216,20.63,20.943,32.629,41.159,42.608-.046,2.97-.107,5.96-.2,8.917-1,.135-2.014.249-3.036.361,2.02,9.133,7.288,15.647,13.469,15.647,5.9,0,10.958-5.927,13.166-14.4a13.532,13.532,0,0,0-3.4-.391c-.836-3.2-.181-6.137-.319-9.266,21.1-9.685,32.132-22.65,40.7-44.091,5.533-3.663,9.971-8.61,10-15.4.03-6.266-4.374-7.342-9.147-9.427-.082.644.19,1.5.137,1.931-6.6-27.874-21.817-51.027-52.777-50.475-30.191.538-43.864,23.941-51.423,49.536-4.375,2.674-8.967,3.495-8.755,9.737.229,6.762,4.82,11.279,10.422,14.712" fill="#f5d4b5"/>
          <path id="Path_12147" data-name="Path 12147" d="M137.748,491.826c-.082.644.19,1.5.137,1.931-6.49-27.421-21.335-50.256-51.291-50.466v141.5c.051,0,.1.01.151.01,5.9,0,10.959-5.928,13.167-14.4a13.543,13.543,0,0,0-3.4-.391c-.836-3.2-.18-6.137-.319-9.266,21.1-9.686,32.133-22.65,40.7-44.091,5.533-3.664,9.971-8.61,10-15.4.03-6.266-4.374-7.342-9.147-9.427" fill="#e8a967"/>
          <path id="Path_12148" data-name="Path 12148" d="M25.26,725.613c-1.425-2.376-5.505-6.079-5.966-6.493-.057-.052-.121-.088-.181-.133q.036-1.4.08-2.8l-15.438-.969c0,.675-.021,1.352-.021,2.027,0,1.668.017,3.33.04,4.987a9.261,9.261,0,0,0-2.283,6.1v9.1a9.593,9.593,0,0,0,19.18,0V728.4a25.117,25.117,0,0,1,1.931,5.151,2.685,2.685,0,0,0,2.6,2.008,2.719,2.719,0,0,0,.676-.086A2.682,2.682,0,0,0,27.8,732.2a30,30,0,0,0-2.537-6.588" fill="#f5d4b5"/>
          <path id="Path_12149" data-name="Path 12149" d="M76.471,562.258l-3.194,6.9a56.741,56.741,0,0,0-8.519,1.353c-8.637,2.329-16.254,4.408-23.692,9.622A56.314,56.314,0,0,0,21.626,603.3C.271,652.246,2.632,685.541,0,714.187a.8.8,0,0,0,.539.826l20.287,1.274a.789.789,0,0,0,1.034-.651c3.322-26.427,10.052-77.693,18.962-100.388-3.845,23.788-7.549,137.2-7.6,138.947H86.654V570.211l-5.47-4.272Z" fill="#e9e9ed"/>
          <path id="Path_12150" data-name="Path 12150" d="M166.435,678.324a238.74,238.74,0,0,0-7.968-44.052,241.984,241.984,0,0,0-9.18-26.236c-3.088-7.462-6.6-14.418-12.361-20.223a48.435,48.435,0,0,0-5.764-4.968,47.208,47.208,0,0,0-5.471-3.461c-4.181-2.256-9.023-3.595-13.474-5.286a106.761,106.761,0,0,0-12.306-3.7h0l-3.706-8.142-9.552,7.954V754.2h50.281c-.013-1.559-4.087-85.832-5.4-128.431,7.192,25.457,12.626,66.982,15.5,89.87a.79.79,0,0,0,1.034.652l20.287-1.274a.8.8,0,0,0,.539-.827c-1.1-11.934-1.387-23.926-2.463-35.863" fill="#d7d9de"/>
          <path id="Path_12151" data-name="Path 12151" d="M165.167,717.244c0-.676-.017-1.352-.02-2.028l-15.439.97q.045,1.4.08,2.8c-.06.045-.124.081-.181.133-.461.414-4.54,4.117-5.966,6.493A29.963,29.963,0,0,0,141.1,732.2a2.683,2.683,0,0,0,5.194,1.349,25.155,25.155,0,0,1,1.931-5.151v9.026a9.593,9.593,0,0,0,19.18,0v-9.1a9.263,9.263,0,0,0-2.282-6.094c.023-1.659.039-3.319.039-4.987" fill="#e8a967"/>
          <path id="Path_12152" data-name="Path 12152" d="M82.967,607.216A2.972,2.972,0,1,1,80,604.244a2.972,2.972,0,0,1,2.972,2.972" fill="#403f42"/>
          <path id="Path_12153" data-name="Path 12153" d="M10.852,708.619a2.972,2.972,0,1,1-2.972-2.972,2.972,2.972,0,0,1,2.972,2.972" fill="#403f42"/>
          <path id="Path_12154" data-name="Path 12154" d="M96.284,607.216a2.972,2.972,0,1,1-2.972-2.972,2.972,2.972,0,0,1,2.972,2.972" fill="#403f42"/>
          <path id="Path_12155" data-name="Path 12155" d="M82.937,652.383a2.972,2.972,0,1,1-2.972-2.972,2.972,2.972,0,0,1,2.972,2.972" fill="#403f42"/>
          <path id="Path_12156" data-name="Path 12156" d="M96.255,652.383a2.972,2.972,0,1,1-2.972-2.972,2.972,2.972,0,0,1,2.972,2.972" fill="#403f42"/>
          <path id="Path_12157" data-name="Path 12157" d="M82.937,697.55a2.972,2.972,0,1,1-2.972-2.972,2.972,2.972,0,0,1,2.972,2.972" fill="#403f42"/>
          <path id="Path_12158" data-name="Path 12158" d="M96.255,697.55a2.972,2.972,0,1,1-2.972-2.972,2.972,2.972,0,0,1,2.972,2.972" fill="#403f42"/>
          <path id="Path_12159" data-name="Path 12159" d="M164.833,708.619a2.972,2.972,0,1,1-2.972-2.972,2.972,2.972,0,0,1,2.972,2.972" fill="#403f42"/>
          <path id="Path_12160" data-name="Path 12160" d="M102.021,592.513h-13.8V580.469H85.448v14.817h13.8a2.774,2.774,0,0,1,2.773,2.773V754.2h2.773V595.286a2.773,2.773,0,0,0-2.773-2.773" fill="#d42e28"/>
          <path id="Path_12161" data-name="Path 12161" d="M86.654,570.212V582.8l4.981-7.256,8.277-5.146-3.706-8.142Z" fill="#b9bbbe"/>
          <path id="Path_12162" data-name="Path 12162" d="M139.286,479a6.662,6.662,0,0,0-6.249-4.383c-.09,0-.174.023-.264.027a7.054,7.054,0,0,0-5.27-2.191,6.739,6.739,0,0,0-5.828,2.959,4.75,4.75,0,0,0-4.5-.131,7.226,7.226,0,0,0-6.055-2.873,7.552,7.552,0,0,0-5.637,2.292,8.688,8.688,0,0,0-5.5-1.852,8.493,8.493,0,0,0-5.88,2.207,5.009,5.009,0,0,0-9.147-.119,6.534,6.534,0,0,0-9.976.474,5.756,5.756,0,0,0-7.541-3.866,8.78,8.78,0,0,0-16.005,1.507,10.781,10.781,0,0,0-6.172-1.863c-5.193,0-9.4,3.381-9.408,7.555-4.22.59-7.379,2.977-7.379,5.836a4.4,4.4,0,0,0,1.21,2.927c-2.36.753-4.025,2.552-4.025,4.657,0,2.782,2.9,5.036,6.48,5.036s6.48-2.254,6.48-5.036a4.014,4.014,0,0,0-.371-1.616c4.154-.1,7.612-1.911,8.688-4.358a9.445,9.445,0,0,0,6.73-4.053A8.766,8.766,0,0,0,66.1,481.9a5.845,5.845,0,0,0,8.066-1.492,6.411,6.411,0,0,0,11.914.309,4.966,4.966,0,0,0,6.8.023c1.063,2.252,3.827,3.869,7.1,3.869a8.08,8.08,0,0,0,6.612-3.051,8.014,8.014,0,0,0,4.527,1.346,8.28,8.28,0,0,0,3.858-.922,4.877,4.877,0,0,0,8.7-.1,7.378,7.378,0,0,0,2.869.94,6.663,6.663,0,0,0,4.825,4.917,7.272,7.272,0,0,0,6.975,6.506c3.913,0,7.084-3.436,7.084-7.675A7.468,7.468,0,0,0,139.286,479" fill="#232a2f"/>
          <path id="Path_12163" data-name="Path 12163" d="M86.654,582.8l-3.874-7.5-9.5-6.148,3.194-6.894,10.183,7.953Z" fill="#d7d9de"/>
          <path id="Path_12164" data-name="Path 12164" d="M157.453,398.458A25.482,25.482,0,0,0,112.842,385.2a4.214,4.214,0,0,1-6.424-.021,25.461,25.461,0,0,0-38.632,0,4.214,4.214,0,0,1-6.424.021,25.489,25.489,0,1,0-28.451,40.4,2.362,2.362,0,0,1,1.479,2.219v51.119H139.813V429.687a5.117,5.117,0,0,1,2.921-4.681,25.5,25.5,0,0,0,14.719-26.548" fill="#e9e9ed"/>
          <path id="Path_12165" data-name="Path 12165" d="M135.345,376.5a25.441,25.441,0,0,0-22.505,8.7,4.2,4.2,0,0,1-6.408-.006,25.411,25.411,0,0,0-20.059-8.88l-.016.016V478.948h53.456V429.686a5.114,5.114,0,0,1,2.92-4.68,25.494,25.494,0,0,0-7.388-48.5" fill="#d7d9de"/>
          <rect id="Rectangle_734" data-name="Rectangle 734" width="105.422" height="13.918" transform="translate(34.39 465.03)" fill="#d7d9de"/>
          <rect id="Rectangle_735" data-name="Rectangle 735" width="53.456" height="13.918" transform="translate(86.356 465.03)" fill="#b9bbbe"/>
          <path id="Path_12166" data-name="Path 12166" d="M1066.231,1002.9l5.377,357.441a5.192,5.192,0,0,0,5.192,5.087l65.786-.006a5.193,5.193,0,0,0,5.191-5.071l5.081-357.449Z" fill="#b9bbbe"/>
          <path id="Path_12167" data-name="Path 12167" d="M935.169,1002.9l2.78,358.134a4.455,4.455,0,0,0,4.454,4.4h74.362a4.454,4.454,0,0,0,4.452-4.316l1.718-358.214Z" fill="#d7d9de"/>
          <path id="Path_12168" data-name="Path 12168" d="M1140.632,1365.432H1079.9l1.7,50.99a7.028,7.028,0,0,0,7.027,7.028h132.266c0-10.911-1.224-20.907-10.336-28.278-5.919-4.787-13.187-7.526-20.32-10.188-16.727-5.576-33.4-12.13-49.6-19.041l0-.511Z" fill="#18171a"/>
          <path id="Path_12169" data-name="Path 12169" d="M900.9,1423.45h99.473a7.027,7.027,0,0,0,7.028-7.028l2.049-50.99H948.3c-4.554,1.848-8.56,3.65-10.982,4.683-13.671,5.061-27.357,9.809-41.1,14.684-8.79,3.119-17.538,7.458-23.316,14.78a31.447,31.447,0,0,0-6.327,23.847c11.435.194,22.884.024,34.321.024" fill="#282729"/>
          <path id="Path_12170" data-name="Path 12170" d="M993.85,522.448c2-.382,5.053-.948,8.249-1.471-2.785.394-5.543.87-8.249,1.471" fill="#f5d4b5"/>
          <path id="Path_12171" data-name="Path 12171" d="M913.874,384.189c24.066,53.874,54.691,85.205,107.483,111.266-.12,7.755-.28,15.563-.52,23.284-2.609.354-5.261.652-7.928.944,5.275,23.85,19.03,40.86,35.172,40.86,15.395,0,28.616-15.479,34.382-37.6a35.386,35.386,0,0,0-8.875-1.021c-2.182-8.362-.471-16.026-.833-24.2,55.09-25.292,83.91-59.147,106.278-115.139,14.45-9.566,26.039-22.483,26.122-40.21.077-16.365-11.422-19.174-23.887-24.618-.213,1.682.5,3.914.358,5.041-17.229-72.79-56.971-133.25-137.821-131.809-78.838,1.405-114.544,62.52-134.285,129.357-11.424,6.984-23.415,9.128-22.862,25.428.6,17.658,12.588,29.454,27.216,38.418" fill="#b36327"/>
          <path id="Path_12172" data-name="Path 12172" d="M1219.185,409.129a57.556,57.556,0,1,1-57.556-57.556,57.556,57.556,0,0,1,57.556,57.556" fill="#232a2f"/>
          <path id="Path_12173" data-name="Path 12173" d="M1181.268,317.754c-.213,1.682.5,3.915.358,5.041-16.948-71.606-55.714-131.236-133.94-131.785V560.517c.133,0,.262.026.4.026,15.395,0,28.616-15.478,34.382-37.6a35.432,35.432,0,0,0-8.874-1.021c-2.183-8.361-.472-16.026-.834-24.2,55.09-25.292,83.91-59.146,106.278-115.138,14.45-9.566,26.039-22.484,26.122-40.211.077-16.364-11.422-19.174-23.887-24.618" fill="#9a4605"/>
          <path id="Path_12174" data-name="Path 12174" d="M887.519,928.26c-3.722-6.205-14.376-15.875-15.579-16.956-.148-.135-.316-.228-.473-.346q.093-3.656.21-7.319l-40.316-2.531c-.01,1.765-.053,3.53-.053,5.3,0,4.355.042,8.692.1,13.022a24.193,24.193,0,0,0-5.96,15.915V959.1c0,14.976,13.9,26.245,28.543,24.208,12.056-1.676,21.542-11.932,21.542-24.208V935.533c2.248,3.782,4.4,10.98,5.043,13.451a7.008,7.008,0,0,0,13.565-3.524c-.288-1.108-2.919-11.025-6.624-17.2" fill="#b36327"/>
          <path id="Path_12175" data-name="Path 12175" d="M1021.251,501.678l-8.342,18c-7.495.823-15.113,1.612-22.245,3.535-22.555,6.081-42.447,11.511-61.87,25.126-21.76,15.257-40.1,36.068-50.764,60.519-55.766,127.806-49.6,214.754-56.465,289.559a2.083,2.083,0,0,0,1.407,2.159l52.977,3.326a2.062,2.062,0,0,0,2.7-1.7C887.325,833.2,904.9,699.32,928.166,640.057c-10.04,62.117-19.713,358.29-19.833,362.84l139.509,0V522.448l-14.284-11.156Z" fill="#e9e9ed"/>
          <path id="Path_12176" data-name="Path 12176" d="M1256.182,804.769c-3.506-38.907-10.095-77.441-20.807-115.036a632.4,632.4,0,0,0-23.972-68.512c-8.065-19.485-17.248-37.651-32.28-52.811a126.672,126.672,0,0,0-15.052-12.973,123.179,123.179,0,0,0-14.287-9.037c-10.918-5.891-23.562-9.388-35.185-13.805-3.39-1.288-20.4-7.219-32.136-9.655h0l-9.678-21.262-24.943,20.77V1002.9l131.3,0c-.036-4.071-10.674-224.14-14.1-335.382,18.78,66.477,32.97,174.915,40.486,234.686a2.061,2.061,0,0,0,2.7,1.7l52.976-3.327a2.082,2.082,0,0,0,1.408-2.159c-2.862-31.164-3.623-62.48-6.432-93.652" fill="#d7d9de"/>
          <path id="Path_12177" data-name="Path 12177" d="M1252.871,906.4c0-1.765-.044-3.53-.053-5.3l-40.318,2.532q.122,3.664.211,7.318c-.157.119-.324.212-.473.347-1.2,1.081-11.858,10.751-15.579,16.956-3.7,6.175-6.336,16.092-6.623,17.2a7.007,7.007,0,0,0,13.563,3.523c.643-2.471,2.8-9.668,5.044-13.45V959.1c0,12.276,9.486,22.532,21.542,24.208,14.646,2.037,28.543-9.232,28.543-24.208V935.339a24.192,24.192,0,0,0-5.96-15.914c.06-4.33.1-8.667.1-13.022" fill="#9a4605"/>
          <path id="Path_12178" data-name="Path 12178" d="M1038.214,619.081a7.761,7.761,0,1,1-7.761-7.761,7.761,7.761,0,0,1,7.761,7.761" fill="#403f42"/>
          <path id="Path_12179" data-name="Path 12179" d="M849.9,883.882a7.761,7.761,0,1,1-7.761-7.761,7.761,7.761,0,0,1,7.761,7.761" fill="#403f42"/>
          <path id="Path_12180" data-name="Path 12180" d="M1072.991,619.081a7.761,7.761,0,1,1-7.761-7.761,7.761,7.761,0,0,1,7.761,7.761" fill="#403f42"/>
          <path id="Path_12181" data-name="Path 12181" d="M1038.137,737.029a7.761,7.761,0,1,1-7.761-7.761,7.761,7.761,0,0,1,7.761,7.761" fill="#403f42"/>
          <path id="Path_12182" data-name="Path 12182" d="M1072.913,737.029a7.761,7.761,0,1,1-7.761-7.761,7.761,7.761,0,0,1,7.761,7.761" fill="#403f42"/>
          <path id="Path_12183" data-name="Path 12183" d="M1038.137,854.977a7.761,7.761,0,1,1-7.761-7.761,7.761,7.761,0,0,1,7.761,7.761" fill="#403f42"/>
          <path id="Path_12184" data-name="Path 12184" d="M1072.913,854.977a7.761,7.761,0,1,1-7.761-7.761,7.761,7.761,0,0,1,7.761,7.761" fill="#403f42"/>
          <path id="Path_12185" data-name="Path 12185" d="M1252,883.882a7.761,7.761,0,1,1-7.761-7.761,7.761,7.761,0,0,1,7.761,7.761" fill="#403f42"/>
          <path id="Path_12186" data-name="Path 12186" d="M1087.972,580.684h-36.036V549.233h-7.242v38.693h36.036a7.242,7.242,0,0,1,7.242,7.242V1002.9h7.242V587.926a7.242,7.242,0,0,0-7.242-7.242" fill="#d42e28"/>
          <path id="Path_12187" data-name="Path 12187" d="M1047.842,522.448v32.88l13.008-18.949,21.613-13.439-9.678-21.261Z" fill="#b9bbbe"/>
          <path id="Path_12188" data-name="Path 12188" d="M925.019,318.72c30.491-3.586,97.5-13.516,122.822-33.68l.161-12.5-142.929-2.41s-14.145,44.628-11.725,59.65l1.859-1.084a76.934,76.934,0,0,1,29.812-9.976" fill="#232a2f"/>
          <path id="Path_12189" data-name="Path 12189" d="M1047.842,285.039s63.431,3.719,91.051,22.989,42.375,9.726,42.375,9.726,7.921-17.164,7.921-35.927l-5.975-7.843L1048,272.539Z" fill="#232a2f"/>
          <path id="Path_12190" data-name="Path 12190" d="M1047.842,555.327l-10.117-19.591-24.815-16.053,8.341-18.005,26.591,20.769Z" fill="#d7d9de"/>
          <path id="Path_12191" data-name="Path 12191" d="M1241.076,61.449A70.7,70.7,0,0,0,1117.308,24.68a11.689,11.689,0,0,1-17.822-.058,70.637,70.637,0,0,0-107.177,0,11.689,11.689,0,0,1-17.822.058,70.715,70.715,0,1,0-78.933,112.1,6.555,6.555,0,0,1,4.106,6.158V284.756h292.475V148.088a14.193,14.193,0,0,1,8.1-12.986,70.756,70.756,0,0,0,40.836-73.653" fill="#e9e9ed"/>
          <path id="Path_12192" data-name="Path 12192" d="M1179.739.536a70.584,70.584,0,0,0-62.43,24.144,11.688,11.688,0,0,1-17.822-.058A70.48,70.48,0,0,0,1048,.064V284.755h144.133V148.089a14.2,14.2,0,0,1,8.1-12.987A70.73,70.73,0,0,0,1179.739.536" fill="#d7d9de"/>
          <rect id="Rectangle_736" data-name="Rectangle 736" width="292.476" height="38.613" transform="translate(899.659 246.143)" fill="#d7d9de"/>
          <rect id="Rectangle_737" data-name="Rectangle 737" width="144.133" height="38.613" transform="translate(1048.002 246.143)" fill="#b9bbbe"/>
          <path id="Path_12193" data-name="Path 12193" d="M634.09,1551.91l-44.824-25.879V1051.518L634.09,1077.4Z" fill="#f3bd43"/>
          <path id="Path_12194" data-name="Path 12194" d="M678.915,1526.031l-44.824,25.879V1077.4l44.824-25.879Z" fill="#f68821"/>
          <path id="Path_12195" data-name="Path 12195" d="M900.256,1397.746l-44.824-25.879V996.249l44.824,25.88Z" fill="#f3bd43"/>
          <path id="Path_12196" data-name="Path 12196" d="M945.08,1371.867l-44.824,25.879V1022.129L945.08,996.25Z" fill="#f68821"/>
          <path id="Path_12197" data-name="Path 12197" d="M220.1,1310.96l-44.824-25.879V838.327L220.1,864.206Z" fill="#f3bd43"/>
          <path id="Path_12198" data-name="Path 12198" d="M264.929,1285.08,220.1,1310.959V864.206l44.824-25.88Z" fill="#f68821"/>
          <path id="Path_12199" data-name="Path 12199" d="M678.412,1238.841,73.282,889.469,431.875,682.435l605.13,349.372Z" fill="#f8d88f"/>
          <path id="Path_12200" data-name="Path 12200" d="M678.412,1238.841,110.1,910.727l-36.82-21.258v42.516l605.13,349.372,358.593-207.034v-42.516Z" fill="#f3bd43"/>
          <path id="Path_12201" data-name="Path 12201" d="M1037.005,1031.807v42.516L678.412,1281.357v-42.516Z" fill="#f68821"/>
          <path id="Path_12202" data-name="Path 12202" d="M469.428,945.623c-59.421,34.307-155.762,34.307-215.183,0s-59.422-89.93,0-124.236,155.762-34.307,215.183,0,59.422,89.929,0,124.236" fill="#4d77c9"/>
          <path id="Path_12203" data-name="Path 12203" d="M469.428,939.464c-59.421,34.307-155.762,34.307-215.183,0s-59.422-89.93,0-124.237,155.762-34.306,215.183,0,59.422,89.929,0,124.236" fill="#edf0f9"/>
          <path id="Path_12204" data-name="Path 12204" d="M451.036,928.845c-49.263,28.442-129.135,28.442-178.4,0s-49.264-74.557,0-103,129.135-28.442,178.4,0,49.264,74.557,0,103" fill="#fff"/>
          <path id="Path_12205" data-name="Path 12205" d="M272.637,928.844c-49.264-28.442-49.264-74.556,0-103s129.136-28.442,178.4,0c24.148,13.942,36.428,32.13,36.9,50.4.493-19.573-12.009-39.237-37.569-54.172-50.153-29.306-131.466-29.306-181.618,0s-50.152,76.818,0,106.123c25.364,14.821,58.7,22.133,91.941,21.963-31.9-.166-63.714-7.263-88.055-21.316" fill="#4d77c9"/>
          <path id="Path_12206" data-name="Path 12206" d="M288.523,873.287,271.975,864l16.313-9.69,16.549,9.283Z" fill="#fbcb51"/>
          <path id="Path_12207" data-name="Path 12207" d="M304.954,873.084l-16.314,9.69-.117-9.487,16.314-9.689Z" fill="#fbc640"/>
          <path id="Path_12208" data-name="Path 12208" d="M271.975,864l16.548,9.283.118,9.487-16.549-9.284Z" fill="#fbc640"/>
          <path id="Path_12209" data-name="Path 12209" d="M303.719,839.882,287.171,830.6l16.313-9.69,16.549,9.283Z" fill="#fbcb51"/>
          <path id="Path_12210" data-name="Path 12210" d="M320.15,839.679l-16.314,9.69-.117-9.487,16.314-9.689Z" fill="#fbc640"/>
          <path id="Path_12211" data-name="Path 12211" d="M287.171,830.6l16.548,9.283.118,9.487-16.549-9.284Z" fill="#fbc640"/>
          <path id="Path_12212" data-name="Path 12212" d="M409.3,875.034l-2.582-1.472c-3.37-1.922-2.967-5.313.9-7.574l9.806-6.379c3.868-2.261,9.736-2.536,13.106-.614l2.582,1.472c3.371,1.922,2.968,5.313-.9,7.574l-9.807,6.379c-3.867,2.261-9.735,2.536-13.106.614" fill="#2ba542"/>
          <path id="Path_12213" data-name="Path 12213" d="M435.4,863.593l0,0c.082,1.53-1,3.168-3.182,4.445l-9.806,6.379c-3.868,2.261-9.736,2.536-13.107.614l-2.581-1.472a4.084,4.084,0,0,1-2.255-2.862l-.029-.017.036,6.708.01,0a3.988,3.988,0,0,0,2.275,3.057l2.582,1.472c3.37,1.922,9.238,1.647,13.106-.614,2.322-.98,5.29-3.869,9.806-6.379,2.265-1.324,3.34-3.036,3.167-4.613Z" fill="#27a33e"/>
          <path id="Path_12214" data-name="Path 12214" d="M416.04,876.268a12.27,12.27,0,0,1-6.738-1.234l-2.582-1.472a4.083,4.083,0,0,1-2.254-2.862l-.03-.017.036,6.708.011,0a3.984,3.984,0,0,0,2.274,3.057l2.582,1.472a12.271,12.271,0,0,0,6.738,1.234Z" fill="#27a33e"/>
          <path id="Path_12215" data-name="Path 12215" d="M313.6,841.711l-2.582-1.472c-3.37-1.922-2.967-5.313.9-7.574l9.806-6.379c3.868-2.261,9.736-2.536,13.106-.614l2.582,1.472c3.371,1.922,2.968,5.313-.9,7.574l-9.807,6.379c-3.867,2.261-9.735,2.536-13.106.614" fill="#f6dea2"/>
          <path id="Path_12216" data-name="Path 12216" d="M339.7,830.27l0,0c.082,1.53-1,3.168-3.182,4.445l-9.806,6.379c-3.868,2.261-9.736,2.536-13.107.614l-2.581-1.472a4.084,4.084,0,0,1-2.255-2.862l-.029-.017.036,6.708.01,0a3.987,3.987,0,0,0,2.275,3.057l2.582,1.472c3.37,1.922,9.238,1.647,13.106-.614,2.322-.98,5.29-3.869,9.806-6.379,2.265-1.324,3.34-3.036,3.167-4.613Z" fill="#f1c559"/>
          <path id="Path_12217" data-name="Path 12217" d="M320.339,842.946a12.271,12.271,0,0,1-6.738-1.234l-2.582-1.472a4.083,4.083,0,0,1-2.254-2.862l-.03-.017.036,6.708.011,0a3.985,3.985,0,0,0,2.274,3.057l2.582,1.472a12.272,12.272,0,0,0,6.738,1.234Z" fill="#ebaa16"/>
          <path id="Path_12218" data-name="Path 12218" d="M382.97,891.384v8.968l31.558-8.215v-8.742Z" fill="#d85041"/>
          <path id="Path_12219" data-name="Path 12219" d="M382.97,891.384l15.779-19.7c7.656,3.428,13,7.315,15.779,11.709Z" fill="#d85041"/>
          <path id="Path_12220" data-name="Path 12220" d="M277.24,888.588l.461,8.956,31.094-9.825-.449-8.731Z" fill="#fbb040"/>
          <path id="Path_12221" data-name="Path 12221" d="M277.24,888.588,291.986,868.1c7.822,3.031,13.357,6.638,16.36,10.883Z" fill="#fbb040"/>
          <path id="Path_12222" data-name="Path 12222" d="M345.833,854.5l5.637,6.975,19.38-26.226-5.5-6.8Z" fill="#f1c559"/>
          <path id="Path_12223" data-name="Path 12223" d="M345.833,854.5l-.11-25.239c8.109-2.145,14.708-2.481,19.632-.811Z" fill="#f6dea2"/>
          <path id="Path_12224" data-name="Path 12224" d="M391.08,921.545l-16.548-9.283,16.313-9.69,16.549,9.284Z" fill="#fbcb51"/>
          <path id="Path_12225" data-name="Path 12225" d="M407.511,921.342l-16.314,9.69-.117-9.487,16.314-9.689Z" fill="#fbc640"/>
          <path id="Path_12226" data-name="Path 12226" d="M374.531,912.261l16.548,9.283.118,9.487-16.549-9.284Z" fill="#fbc640"/>
          <path id="Path_12227" data-name="Path 12227" d="M303.543,859.058,287,849.775l16.313-9.69,16.549,9.284Z" fill="#d85041"/>
          <path id="Path_12228" data-name="Path 12228" d="M319.974,858.855l-16.314,9.69-.117-9.487,16.314-9.689Z" fill="#d85041"/>
          <path id="Path_12229" data-name="Path 12229" d="M286.995,849.774l16.548,9.283.118,9.487-16.549-9.284Z" fill="#d42e28"/>
          <path id="Path_12230" data-name="Path 12230" d="M360.075,832.932l-16.548-9.283,16.313-9.69,16.549,9.283Z" fill="#fbb040"/>
          <path id="Path_12231" data-name="Path 12231" d="M376.506,832.729l-16.314,9.69-.117-9.487,16.314-9.689Z" fill="#fbb040"/>
          <path id="Path_12232" data-name="Path 12232" d="M343.527,823.648l16.548,9.283.118,9.487-16.549-9.284Z" fill="#fbb040"/>
          <path id="Path_12233" data-name="Path 12233" d="M416.116,897.287l-11.235-6.3,11.076-6.578,11.235,6.3Z" fill="#fbb040"/>
          <path id="Path_12234" data-name="Path 12234" d="M427.272,897.149,416.2,903.727l-.079-6.44,11.075-6.579Z" fill="#fbb040"/>
          <path id="Path_12235" data-name="Path 12235" d="M404.882,890.984l11.235,6.3.08,6.44-11.235-6.3Z" fill="#fbb040"/>
          <path id="Path_12236" data-name="Path 12236" d="M370.312,906.035l-16.548-9.283,16.313-9.69,16.549,9.284Z" fill="#fbb040"/>
          <path id="Path_12237" data-name="Path 12237" d="M386.743,905.832l-16.314,9.69-.117-9.487,16.314-9.689Z" fill="#fbb040"/>
          <path id="Path_12238" data-name="Path 12238" d="M353.764,896.752l16.548,9.283.118,9.487-16.549-9.284Z" fill="#fbb040"/>
          <path id="Path_12239" data-name="Path 12239" d="M406.965,837.675l-16.548-9.283,16.313-9.69,16.549,9.283Z" fill="#d85041"/>
          <path id="Path_12240" data-name="Path 12240" d="M423.4,837.472l-16.314,9.69-.117-9.487,16.314-9.689Z" fill="#d85041"/>
          <path id="Path_12241" data-name="Path 12241" d="M390.417,828.392l16.548,9.283.118,9.487-16.549-9.284Z" fill="#d42e28"/>
          <path id="Path_12242" data-name="Path 12242" d="M308.083,911.9l-17.1-8.227,15.674-10.694,17.1,8.227Z" fill="#f6dea2"/>
          <path id="Path_12243" data-name="Path 12243" d="M324.469,910.665,308.8,921.359l-.712-9.461,15.674-10.693Z" fill="#f1c559"/>
          <path id="Path_12244" data-name="Path 12244" d="M290.985,903.671l17.1,8.227.712,9.461-17.1-8.228Z" fill="#ebaa16"/>
          <path id="Path_12245" data-name="Path 12245" d="M335.055,919l-16.548-9.283,16.313-9.69,16.549,9.283Z" fill="#d85041"/>
          <path id="Path_12246" data-name="Path 12246" d="M351.486,918.8l-16.314,9.69L335.055,919l16.314-9.689Z" fill="#d85041"/>
          <path id="Path_12247" data-name="Path 12247" d="M318.507,909.719,335.055,919l.118,9.487-16.549-9.284Z" fill="#d42e28"/>
          <path id="Path_12248" data-name="Path 12248" d="M341.6,904.38l-2.582-1.472c-3.37-1.922-2.967-5.313.9-7.574l9.806-6.379c3.868-2.261,9.736-2.536,13.106-.614l2.582,1.472c3.371,1.922,2.968,5.313-.9,7.574l-9.807,6.379c-3.867,2.261-9.735,2.536-13.106.614" fill="#f6dea2"/>
          <path id="Path_12249" data-name="Path 12249" d="M367.694,892.939l0,0c.082,1.53-1,3.167-3.182,4.445l-9.806,6.379c-3.868,2.261-9.736,2.536-13.107.614l-2.581-1.472a4.086,4.086,0,0,1-2.255-2.862l-.029-.017.036,6.708.01,0a3.987,3.987,0,0,0,2.275,3.057l2.582,1.472c3.37,1.922,9.238,1.647,13.106-.614,2.322-.98,5.29-3.869,9.806-6.379,2.265-1.324,3.34-3.036,3.167-4.613Z" fill="#f1c559"/>
          <path id="Path_12250" data-name="Path 12250" d="M348.334,905.615a12.269,12.269,0,0,1-6.738-1.234l-2.582-1.472a4.083,4.083,0,0,1-2.254-2.862l-.03-.017.036,6.708.011,0a3.984,3.984,0,0,0,2.274,3.057l2.582,1.472a12.272,12.272,0,0,0,6.738,1.234Z" fill="#ebaa16"/>
          <path id="Path_12251" data-name="Path 12251" d="M404.193,911.7l-11.77-14.883,18.774-2.751,11.77,14.883Z" fill="#2ba542"/>
          <path id="Path_12252" data-name="Path 12252" d="M419.465,917.767l-17.736.138,2.464-6.2,18.774-2.751Z" fill="#27a33e"/>
          <path id="Path_12253" data-name="Path 12253" d="M392.424,896.818l11.77,14.883-2.465,6.2-12.807-12.27Z" fill="#27a33e"/>
          <path id="Path_12254" data-name="Path 12254" d="M288.73,853.005l-14.673-3.44,10.315-10.987,14.673,3.44Z" fill="#2ba542"/>
          <path id="Path_12255" data-name="Path 12255" d="M301.224,849.232l-10.961,8.849-1.533-5.075,10.315-10.987Z" fill="#27a33e"/>
          <path id="Path_12256" data-name="Path 12256" d="M274.057,849.566l14.673,3.44,1.533,5.075-14.027-1.3Z" fill="#27a33e"/>
          <path id="Path_12257" data-name="Path 12257" d="M342.542,827.918l-14.673-3.44,10.315-10.987,14.673,3.44Z" fill="#2ba542"/>
          <path id="Path_12258" data-name="Path 12258" d="M355.037,824.144l-10.961,8.849-1.533-5.075,10.315-10.987Z" fill="#27a33e"/>
          <path id="Path_12259" data-name="Path 12259" d="M327.87,824.478l14.673,3.44,1.533,5.075-14.027-1.3Z" fill="#27a33e"/>
          <path id="Path_12260" data-name="Path 12260" d="M344.45,926.07l.377,7.32,25.413-8.031-.367-7.135Z" fill="#fbb040"/>
          <path id="Path_12261" data-name="Path 12261" d="M344.45,926.07,356.5,909.329c6.393,2.477,10.917,5.425,13.371,8.9Z" fill="#fbb040"/>
          <path id="Path_12262" data-name="Path 12262" d="M333.074,940.315a3.949,3.949,0,0,1-2.586-3.326s3.856-.965,6.313-.064a3.947,3.947,0,0,1,2.586,3.326s-3.856.965-6.313.064" fill="#429f34"/>
          <path id="Path_12263" data-name="Path 12263" d="M297.113,905.366a3.949,3.949,0,0,1-2.586-3.326s3.856-.965,6.313-.064a3.947,3.947,0,0,1,2.586,3.326s-3.856.965-6.313.064" fill="#429f34"/>
          <path id="Path_12264" data-name="Path 12264" d="M430.9,909.056a3.949,3.949,0,0,1-2.586-3.326s3.856-.965,6.313-.064a3.947,3.947,0,0,1,2.586,3.326s-3.856.965-6.313.064" fill="#429f34"/>
          <path id="Path_12265" data-name="Path 12265" d="M392.6,913.333a2.966,2.966,0,0,0,1.944-2.5s-2.9-.726-4.746-.049a2.967,2.967,0,0,0-1.944,2.5s2.9.725,4.746.048" fill="#429f34"/>
          <path id="Path_12266" data-name="Path 12266" d="M376.722,934.664a2.966,2.966,0,0,0,1.944-2.5s-2.9-.726-4.746-.049a2.967,2.967,0,0,0-1.944,2.5s2.9.725,4.746.048" fill="#429f34"/>
          <path id="Path_12267" data-name="Path 12267" d="M334.407,913.823a2.966,2.966,0,0,0,1.944-2.5s-2.9-.726-4.746-.049a2.967,2.967,0,0,0-1.944,2.5s2.9.725,4.746.048" fill="#429f34"/>
          <path id="Path_12268" data-name="Path 12268" d="M434.161,887.977a2.966,2.966,0,0,0,1.944-2.5s-2.9-.726-4.746-.049a2.967,2.967,0,0,0-1.944,2.5s2.9.725,4.746.048" fill="#429f34"/>
          <path id="Path_12269" data-name="Path 12269" d="M400.89,831.505c-5.249-3.03-7.405-7.5-6.818-12.878.211-1.927-3.262-3.3-6.257-2.438a72.548,72.548,0,0,1-8.418,1.871c-16.342,2.651-33.615,7.217-47.162,15.038-36.354,20.989-50.727,46.722-32.1,57.475s63.2,2.456,99.551-18.533c14.406-8.318,22.434-19.068,26.878-29.018a20.716,20.716,0,0,1,2.473-4.118c1.337-1.748-1.053-3.708-4.349-3.532-9.975.533-18.271-.677-23.8-3.867" fill="#74777b"/>
          <path id="Path_12270" data-name="Path 12270" d="M397.946,833.453c-4.888-2.822-6.9-6.987-6.349-11.992.2-1.795-3.038-3.072-5.827-2.271a67.7,67.7,0,0,1-7.839,1.743c-15.218,2.468-31.3,6.72-43.918,14-33.855,19.546-47.239,43.51-29.894,53.523s58.85,2.287,92.705-17.259c13.416-7.745,20.892-17.756,25.029-27.022a19.308,19.308,0,0,1,2.3-3.834c1.244-1.629-.981-3.454-4.051-3.29-9.289.5-17.014-.63-22.16-3.6" fill="#ecb9b2"/>
          <path id="Path_12271" data-name="Path 12271" d="M429.284,837.276a1.552,1.552,0,0,1-.247,1.629,20.664,20.664,0,0,0-2.474,4.118c-4.443,9.949-12.471,20.7-26.878,29.017-36.355,20.989-80.925,29.287-99.551,18.534-5.581-3.223-8.2-7.792-8.148-13.174l0-.005v13.561l.024.013c-.3,5.7,2.3,10.527,8.128,13.892,18.626,10.753,63.2,2.456,99.551-18.534,14.407-8.318,22.435-19.068,26.878-29.017a20.721,20.721,0,0,1,2.474-4.118,1.657,1.657,0,0,0,.372-1.04h.005V837.137Z" fill="#4a4f54"/>
          <path id="Path_12272" data-name="Path 12272" d="M405.7,858.1l-50.54-29.179c-.914-.528-.8-1.45.256-2.06a3.969,3.969,0,0,1,3.567-.148l50.54,29.18c.914.528.8,1.45-.256,2.059a3.963,3.963,0,0,1-3.567.148" fill="#f2d8d4"/>
          <path id="Path_12273" data-name="Path 12273" d="M387.458,871.285,346.6,847.822c-1.027-.592-.9-1.628.287-2.312a4.451,4.451,0,0,1,4.006-.166l40.862,23.462c1.027.593.9,1.628-.287,2.313a4.454,4.454,0,0,1-4.006.166" fill="#f2d8d4"/>
          <path id="Path_12274" data-name="Path 12274" d="M358.875,879.432l-40.862-23.463c-1.027-.592-.9-1.628.287-2.312a4.45,4.45,0,0,1,4.006-.166l40.862,23.462c1.027.593.9,1.628-.287,2.313a4.454,4.454,0,0,1-4.006.166" fill="#f2d8d4"/>
          <path id="Path_12275" data-name="Path 12275" d="M335.357,886.662l-29.726-17.074c-1.027-.593-.9-1.628.287-2.313a4.454,4.454,0,0,1,4.006-.166l29.726,17.074c1.027.593.9,1.628-.287,2.313a4.454,4.454,0,0,1-4.006.166" fill="#f2d8d4"/>
          <path id="Path_12276" data-name="Path 12276" d="M402.54,859.865l-49.7-28.7c-.9-.519-.786-1.425.252-2.025A3.9,3.9,0,0,1,356.6,829l49.7,28.7c.9.519.786,1.426-.252,2.026a3.9,3.9,0,0,1-3.508.145" fill="#e76b00"/>
          <path id="Path_12277" data-name="Path 12277" d="M386.005,873.548l-40.862-23.463c-1.027-.592-.9-1.628.287-2.312a4.451,4.451,0,0,1,4.006-.166L390.3,871.069c1.027.593.9,1.628-.287,2.313a4.454,4.454,0,0,1-4.006.166" fill="#e76b00"/>
          <path id="Path_12278" data-name="Path 12278" d="M356.383,880.656l-40.862-23.463c-1.027-.592-.9-1.628.287-2.312a4.45,4.45,0,0,1,4.006-.166l40.862,23.462c1.027.593.9,1.628-.287,2.313a4.454,4.454,0,0,1-4.006.166" fill="#e76b00"/>
          <path id="Path_12279" data-name="Path 12279" d="M333.9,888.925l-29.726-17.074c-1.027-.593-.9-1.628.287-2.313a4.454,4.454,0,0,1,4.006-.166L338.2,886.446c1.027.593.9,1.628-.287,2.313a4.454,4.454,0,0,1-4.006.166" fill="#e76b00"/>
          <path id="Path_12280" data-name="Path 12280" d="M327.306,895.159c-11.214.568-20.741-.872-27.172-4.586-5.582-3.222-8.2-7.791-8.147-13.173l-.005-.005v13.561l.023.013c-.3,5.694,2.3,10.527,8.129,13.892,6.431,3.713,15.958,5.154,27.172,4.585Z" fill="#74777b"/>
          <path id="Path_12281" data-name="Path 12281" d="M344.039,883.607a3.949,3.949,0,0,1-2.586-3.326s3.856-.965,6.313-.064a3.947,3.947,0,0,1,2.586,3.326s-3.856.965-6.313.064" fill="#429f34"/>
          <path id="Path_12282" data-name="Path 12282" d="M328.624,881.528a3.949,3.949,0,0,1-2.586-3.326s3.856-.965,6.313-.064a3.947,3.947,0,0,1,2.586,3.326s-3.856.965-6.313.064" fill="#429f34"/>
          <path id="Path_12283" data-name="Path 12283" d="M401.544,866.362a3.949,3.949,0,0,1-2.586-3.326s3.856-.965,6.313-.064a3.947,3.947,0,0,1,2.586,3.326s-3.856.965-6.313.064" fill="#429f34"/>
          <path id="Path_12284" data-name="Path 12284" d="M317.468,867.318a3.949,3.949,0,0,1-2.586-3.326s3.856-.965,6.313-.064a3.947,3.947,0,0,1,2.586,3.326s-3.856.965-6.313.064" fill="#429f34"/>
          <path id="Path_12285" data-name="Path 12285" d="M336.235,854.786a3.949,3.949,0,0,1-2.586-3.326s3.856-.965,6.313-.064a3.947,3.947,0,0,1,2.586,3.326s-3.856.965-6.313.064" fill="#429f34"/>
          <path id="Path_12286" data-name="Path 12286" d="M386.5,871.994a3.949,3.949,0,0,1-2.586-3.326s3.856-.965,6.313-.064a3.947,3.947,0,0,1,2.586,3.326s-3.856.965-6.313.064" fill="#429f34"/>
          <path id="Path_12287" data-name="Path 12287" d="M370.871,840.562a2.966,2.966,0,0,0,1.944-2.5s-2.9-.726-4.746-.049a2.967,2.967,0,0,0-1.944,2.5s2.9.725,4.746.048" fill="#429f34"/>
          <path id="Path_12288" data-name="Path 12288" d="M389.768,843.68a2.966,2.966,0,0,0,1.944-2.5s-2.9-.726-4.746-.049a2.967,2.967,0,0,0-1.944,2.5s2.9.725,4.746.048" fill="#429f34"/>
          <path id="Path_12289" data-name="Path 12289" d="M376.722,854.365a2.966,2.966,0,0,0,1.944-2.5s-2.9-.726-4.746-.049a2.967,2.967,0,0,0-1.944,2.5s2.9.725,4.746.048" fill="#429f34"/>
          <path id="Path_12290" data-name="Path 12290" d="M340.292,869.819a2.966,2.966,0,0,0,1.944-2.5s-2.9-.726-4.746-.049a2.967,2.967,0,0,0-1.944,2.5s2.9.725,4.746.048" fill="#429f34"/>
          <path id="Path_12291" data-name="Path 12291" d="M365.426,870.246a2.966,2.966,0,0,0,1.944-2.5s-2.9-.726-4.746-.049a2.967,2.967,0,0,0-1.944,2.5s2.9.725,4.746.048" fill="#429f34"/>
          <path id="Path_12292" data-name="Path 12292" d="M305.1,845.879c-2.6-.312-3.354-1.231-3.354-1.231a30.871,30.871,0,0,1,6.045-.1c2.6.313,3.356,1.231,3.356,1.231a30.9,30.9,0,0,1-6.047.1" fill="#429f34"/>
          <path id="Path_12293" data-name="Path 12293" d="M417.131,890.592c-2.6-.312-3.354-1.231-3.354-1.231a30.877,30.877,0,0,1,6.046-.1c2.6.313,3.355,1.231,3.355,1.231a30.892,30.892,0,0,1-6.047.1" fill="#429f34"/>
          <path id="Path_12294" data-name="Path 12294" d="M318.536,836.6c1.739,1.262,2.8,1.016,2.8,1.016a21.108,21.108,0,0,0-3.5-3.552c-1.739-1.261-2.8-1.016-2.8-1.016a21.105,21.105,0,0,0,3.5,3.552" fill="#429f34"/>
          <path id="Path_12295" data-name="Path 12295" d="M401.862,906.251c-2.613.093-3.5-.7-3.5-.7a30.821,30.821,0,0,1,5.958-1.035c2.613-.094,3.5.7,3.5.7a30.821,30.821,0,0,1-5.958,1.035" fill="#429f34"/>
          <path id="Path_12296" data-name="Path 12296" d="M358.528,918.565c-2.613.093-3.505-.7-3.505-.7a30.841,30.841,0,0,1,5.959-1.035c2.613-.094,3.5.7,3.5.7a30.826,30.826,0,0,1-5.958,1.035" fill="#429f34"/>
          <path id="Path_12297" data-name="Path 12297" d="M993.795,738.432a98.446,98.446,0,1,1-98.446-98.446,98.446,98.446,0,0,1,98.446,98.446" fill="#faeae8"/>
          <path id="Path_12298" data-name="Path 12298" d="M895.349,634.265A104.166,104.166,0,1,0,999.515,738.431,104.284,104.284,0,0,0,895.349,634.265m0,202.612a98.446,98.446,0,1,1,98.446-98.446,98.446,98.446,0,0,1-98.446,98.446" fill="#ba1e18"/>
          <path id="Path_12299" data-name="Path 12299" d="M831.534,748.557h38.881l4.276-21.147a1.431,1.431,0,0,1,1.291-1.143l1.253-.1c.037,0,.122-.005.16-.005a3,3,0,0,1,2.869,2.332l5.282,25.3,7.235-42.105a3.033,3.033,0,0,1,6.007.2l8.347,55.962,8.359-35.52a1.432,1.432,0,0,1,1.295-1.1l1.2-.083a2.95,2.95,0,0,1,2.974,2.205l4.061,15.459h36.306c4.025-9.038,5.667-16.814,5.922-22.015.611-12.428-4-42.619-31.1-46.8s-39.662,17.408-39.662,17.408S883.924,675.822,856.824,680s-31.708,34.37-31.1,46.8c.253,5.152,1.865,12.83,5.808,21.759" fill="#ba1e18"/>
          <path id="Path_12300" data-name="Path 12300" d="M924.039,754.533a4.453,4.453,0,0,1-4.3-3.316l-1.482-5.641-8.757,37.2a3.029,3.029,0,0,1-2.957,2.34c-.028,0-.125,0-.153,0a3.03,3.03,0,0,1-2.849-2.594l-7.957-53.359-7.062,41.107a1.43,1.43,0,0,1-1.3,1.183s-1.342.107-1.38.107l-.09,0a3.009,3.009,0,0,1-2.829-2.331l-5.515-26.4-1.506,7.453a5.01,5.01,0,0,1-4.894,4H834.3c5.972,11.314,15.632,24.065,30.709,36.042,30.205,24,31.477,24.5,31.477,24.5s1.271-.509,31.476-24.5c14.965-11.888,24.589-24.536,30.571-35.786Z" fill="#ba1e18"/>
          <path id="Path_12301" data-name="Path 12301" d="M705.927,917.324,514.335,1027.94c-3.642,2.1-4.037,5.283-.884,7.1l101.435,58.564c3.154,1.82,8.662,1.592,12.3-.51L818.782,982.481c3.641-2.1,4.037-5.283.883-7.1L718.23,916.814c-3.153-1.821-8.662-1.592-12.3.51M769.2,961.467c4.451,2.57,3.893,7.059-1.247,10.027s-12.916,3.29-17.367.72L723.71,956.7c-4.451-2.57-3.893-7.059,1.247-10.027s12.916-3.29,17.367-.72Z" fill="#3e89ff"/>
          <path id="Path_12302" data-name="Path 12302" d="M769.2,961.467l-26.872-15.514c-4.451-2.571-12.227-2.249-17.367.72-4.66,2.69-5.54,6.626-2.349,9.254a11.517,11.517,0,0,1,2.349-1.756c5.14-2.968,12.916-3.29,17.367-.72L769.2,968.965a7.962,7.962,0,0,1,1.1.773c2.824-2.787,2.537-6.17-1.1-8.271" fill="#467bce"/>
          <path id="Path_12303" data-name="Path 12303" d="M821.794,978.358l-.041.024c.042,1.42-.939,2.926-2.971,4.1L627.189,1093.1c-3.641,2.1-9.15,2.332-12.3.511l-101.435-58.564a3.832,3.832,0,0,1-2.072-2.635l-.057.086v6.948l.037,0a3.608,3.608,0,0,0,2.092,3.095L614.886,1101.1c3.153,1.821,8.662,1.592,12.3-.51L818.782,989.979c2.153-1.243,3.139-2.86,2.96-4.353l.052,0Z" fill="#467bce"/>
          <path id="Path_12304" data-name="Path 12304" d="M821.743,985.626l.052,0v-7.264l-.041.024c.042,1.42-.94,2.926-2.972,4.1L627.19,1093.1a14.143,14.143,0,0,1-6.5,1.725v7.5a14.154,14.154,0,0,0,6.5-1.724L818.782,989.979c2.154-1.243,3.14-2.86,2.961-4.353" fill="#316cc9"/>
          <path id="Path_12305" data-name="Path 12305" d="M630.046,1054.61c32.873-15.5,69.439-37.5,107.618-62.335,1.969-1.282,1.512-2.953-.3-4.874-17.566-18.575-43.482-34.942-77.086-44.319-2.851-.795-6.32-1.473-8.624-.328-39.525,19.641-75.8,40.234-107.675,62.112-1.949,1.338-1.557,3.284.637,4.966,23.742,18.2,49.263,33.849,76.886,44.385,2.721,1.037,6.22,1.491,8.548.393" fill="#eb9c9a"/>
          <path id="Path_12306" data-name="Path 12306" d="M542.723,1006.99a4.1,4.1,0,0,0,1.889,2.842c23.742,18.2,49.263,33.849,76.886,44.385,2.721,1.038,6.22,1.491,8.548.394,32.873-15.5,69.439-37.5,107.617-62.336a2.821,2.821,0,0,0,1.363-1.849l.035-.023v14.142h-.01a2.761,2.761,0,0,1-1.386,2.4c-.547.409-1.095.822-1.643,1.225-.386.3-.778.58-1.165.869q-4.4,3.262-8.768,6.4c-.413.3-.832.591-1.246.886v.006q-3.608,2.568-7.189,5.047c-.419.284-.832.569-1.251.859q-4.133,2.835-8.226,5.546-.645.435-1.289.854-4.219,2.78-8.392,5.418c-.44.279-.87.558-1.31.827h0q-4.149,2.609-8.248,5.074c-.44.268-.886.531-1.326.794q-3.987,2.392-7.93,4.639l-1.3.741h-.005q-5.147,2.923-10.223,5.622c-.419.22-.838.44-1.251.666q-4.341,2.279-8.613,4.4c-.408.2-.816.408-1.224.606q-4.075,2.006-8.091,3.856c-.4.182-.8.37-1.2.547q-5.766,2.634-11.4,4.945c-.424.172-.848.344-1.272.521q-2.546,1.023-5.053,1.987a8.575,8.575,0,0,1-2.9.51c-.37.011-.751,0-1.138-.027a19.2,19.2,0,0,1-4.51-.875c-8.263-2.593-16.435-4.918-24.42-7.684q-1.723-.6-3.436-1.224c-16.06-5.89-31.309-14.014-44.963-30.315q-.966-1.143-1.906-2.341-1.088-1.369-2.158-2.819c-.886-1.192-1.89-1.793-1.933-2.738h-.006v-14.809Z" fill="#ee3d23"/>
          <path id="Path_12307" data-name="Path 12307" d="M622.78,1053.35c1.837.732,4.193,1.014,5.784.263q1.773-.837,3.566-1.7c.381-.182.767-.368,1.147-.556q4.8-2.322,9.753-4.856c.375-.186.75-.378,1.125-.569l0,0q4.623-2.38,9.408-4.942c.365-.192.725-.381,1.089-.579l0,0q4.5-2.412,9.152-5c.349-.2.708-.391,1.063-.589,2.922-1.631,5.887-3.312,8.92-5.057l0,0c.35-.195.694-.394,1.043-.595l.809-.467q3.906-2.256,7.931-4.635c.339-.2.678-.4,1.017-.6q4.227-2.5,8.581-5.134c.334-.2.673-.4,1.007-.606q4.156-2.52,8.457-5.168l.982-.6q4.1-2.536,8.344-5.2c.324-.2.647-.4.97-.61q4.064-2.55,8.267-5.225l.951-.6q4.023-2.574,8.193-5.257c.308-.2.622-.409.936-.609q2.331-1.5,4.7-3.048c1.337-.871,1.143-2.12-.206-3.3-17.254-15.052-42.062-30.542-76.771-44.131-1.861-.728-4.295-.992-5.839-.225l-1.445.723c-.357.175-.714.35-1.066.529q-4.864,2.427-9.632,4.866c-.356.181-.708.359-1.054.54q-4.8,2.455-9.486,4.913l-1.039.544q-4.722,2.484-9.34,4.965l-1.027.556q-4.653,2.51-9.185,5.011c-.336.188-.671.375-1.012.56q-4.574,2.538-9.009,5.065c-.336.187-.666.378-1,.568q-1.991,1.131-3.945,2.26-2.469,1.425-4.9,2.855c-.326.188-.656.379-.976.57q-4.389,2.58-8.667,5.171c-.324.194-.645.385-.959.579q-4.311,2.609-8.5,5.224c-.309.2-.624.391-.929.586q-4.216,2.639-8.318,5.286c-.3.194-.61.389-.909.587q-4.146,2.672-8.147,5.348c-.3.2-.588.4-.888.593q-3.07,2.052-6.053,4.1c-1.309.9-1.184,2.439.432,3.358,26.3,14.961,49.067,33.261,76.663,44.256" fill="#f16754"/>
          <path id="Path_12308" data-name="Path 12308" d="M575.542,1027.344q-15.123-8.945-29.424-18.25c-1.557-1.017-1.742-2.46-.433-3.358q2.989-2.052,6.053-4.1c.3-.2.589-.4.888-.593q4-2.674,8.147-5.348c.3-.2.6-.393.909-.587q4.1-2.645,8.318-5.286c.3-.195.62-.389.929-.586q4.191-2.614,8.5-5.224c.315-.194.635-.385.959-.579q4.277-2.589,8.667-5.171c.32-.191.65-.382.976-.57q2.432-1.431,4.9-2.855,1.959-1.133,3.945-2.26c.33-.19.66-.381,1-.568q4.433-2.532,9.009-5.065c.341-.185.676-.372,1.012-.56q4.526-2.5,9.185-5.011l1.027-.556q4.618-2.481,9.34-4.965l1.039-.544q4.689-2.455,9.486-4.913c.347-.181.7-.359,1.055-.54q4.766-2.434,9.631-4.866c.352-.179.709-.354,1.066-.529l1.445-.723a7.184,7.184,0,0,1,5.839.225q17.526,8.8,32.006,16.735c-44.667,23.37-82.476,45.192-115.474,66.65" fill="#f16754"/>
          <path id="Path_12309" data-name="Path 12309" d="M730.351,995.045c.309-.2.622-.409.936-.609-18.891-4.866-29.583-14.583-40.844-24.821-10.355-9.41-21.01-19.1-38.718-25.157-.357.175-.714.35-1.066.529,16.523,6.777,27.793,15.973,38.613,24.993,11.743,9.789,22.06,20.05,41.079,25.065" fill="#eb9c9a"/>
          <path id="Path_12310" data-name="Path 12310" d="M721.208,1000.907l.951-.6c-19.336-4.8-30.154-14.639-41.56-25-10.518-9.563-21.348-19.412-39.57-25.445-.357.181-.709.359-1.055.54,17.117,6.763,28.578,16.054,39.459,25.268,11.809,10,22.32,20.29,41.775,25.246" fill="#eb9c9a"/>
          <path id="Path_12311" data-name="Path 12311" d="M711.971,1006.742c.323-.2.646-.405.97-.61-19.727-4.743-30.657-14.677-42.181-25.153-10.648-9.681-21.627-19.661-40.273-25.673l-1.038.544c17.275,6.519,28.918,16.131,40.14,25.494,12,10.015,22.549,20.493,42.382,25.4" fill="#eb9c9a"/>
          <path id="Path_12312" data-name="Path 12312" d="M702.645,1012.547l.982-.6c-20.056-4.7-31.085-14.714-42.706-25.284-10.755-9.775-21.841-19.853-40.812-25.845l-1.027.556c18.157,6.287,29.4,16.23,40.668,25.654,12.093,10.116,22.73,20.667,42.9,25.523" fill="#eb9c9a"/>
          <path id="Path_12313" data-name="Path 12313" d="M693.181,1018.321c.334-.2.673-.4,1.006-.606-20.314-4.652-31.406-14.733-43.11-25.373-10.823-9.84-21.982-19.983-41.181-25.961-.335.188-.671.375-1.012.56,17.732,6.38,29.6,16.209,41.027,25.764,12.168,10.175,22.865,20.794,43.27,25.616" fill="#eb9c9a"/>
          <path id="Path_12314" data-name="Path 12314" d="M683.583,1024.055c.339-.2.678-.4,1.017-.6-20.476-4.626-31.613-14.75-43.362-25.432-10.861-9.868-22.055-20.046-41.362-26.017-.335.187-.665.378-1,.569,17.739,6.893,29.772,16.406,41.187,25.814,12.289,10.128,22.959,20.869,43.516,25.666" fill="#eb9c9a"/>
          <path id="Path_12315" data-name="Path 12315" d="M673.8,1029.755l.005,0c.349-.195.693-.394,1.042-.595-20.534-4.618-31.683-14.754-43.449-25.451-10.856-9.87-22.05-20.049-41.362-26.017-.325.188-.655.379-.976.57,17.914,6.823,29.747,16.446,41.172,25.81,12.327,10.105,22.977,20.89,43.568,25.686" fill="#eb9c9a"/>
          <path id="Path_12316" data-name="Path 12316" d="M663.812,1035.4c.349-.2.709-.391,1.063-.589-20.452-4.634-31.577-14.746-43.321-25.425-10.822-9.835-21.981-19.977-41.165-25.957-.325.194-.645.385-.96.579,18.174,6.545,29.757,16.283,40.954,25.744,12.147,10.263,22.931,20.842,43.429,25.648" fill="#eb9c9a"/>
          <path id="Path_12317" data-name="Path 12317" d="M653.568,1040.988c.365-.192.725-.381,1.089-.579-20.212-4.674-31.276-14.728-42.942-25.341-10.749-9.771-21.829-19.841-40.786-25.834-.309.2-.624.391-.929.585,17.872,6.341,29.338,16.146,40.545,25.615,12.069,10.2,22.774,20.709,43.023,25.554" fill="#eb9c9a"/>
          <path id="Path_12318" data-name="Path 12318" d="M643.03,1046.5c.376-.186.75-.378,1.125-.569-19.8-4.734-30.742-14.683-42.284-25.181-10.637-9.669-21.594-19.63-40.189-25.646-.3.194-.609.389-.909.587,17.2,6.327,28.48,16.112,39.932,25.422,12.119,9.853,22.522,20.477,42.325,25.387" fill="#eb9c9a"/>
          <path id="Path_12319" data-name="Path 12319" d="M632.13,1051.914c.381-.183.767-.368,1.147-.557-19.146-4.83-29.906-14.614-41.246-24.924-10.49-9.531-21.285-19.35-39.405-25.393-.3.2-.589.4-.888.594,16.86,6.766,28.05,16.183,39.123,25.164,11.912,9.663,22.133,20.119,41.269,25.116" fill="#eb9c9a"/>
          <path id="Path_12320" data-name="Path 12320" d="M694.362,959.8l-1.033-.642a672.991,672.991,0,0,0-119.175,69.09l1.122.592c33.609-22.316,71.533-46.04,119.086-69.04" fill="#eb9c9a"/>
          <path id="Path_12321" data-name="Path 12321" d="M635.1,1067.291c.423-.177.847-.349,1.272-.521,1.739-6.685-1.16-14.186-1.289-14.524l-1,.392c.032.086,3.136,8.129,1.016,14.653" fill="#eb9c9a"/>
          <path id="Path_12322" data-name="Path 12322" d="M626.01,1069.761c.387.027.768.038,1.138.027,2.336-6.8.827-14.653.763-15.018l-1.053.274c.016.091,1.557,8.15-.848,14.717" fill="#eb9c9a"/>
          <path id="Path_12323" data-name="Path 12323" d="M626.01,1069.761c.387.027.768.038,1.138.027,2.336-6.8.827-14.653.763-15.018l-1.053.274c.016.091,1.557,8.15-.848,14.717" fill="#eb9c9a"/>
          <path id="Path_12324" data-name="Path 12324" d="M542.723,1006.99a4.1,4.1,0,0,0,1.889,2.842c23.742,18.2,49.263,33.849,76.886,44.385a15.237,15.237,0,0,0,5.394,1.025c.212,1.254,1.294,8.465-.811,14.523l-.071,0a19.2,19.2,0,0,1-4.51-.875c-8.263-2.593-16.435-4.918-24.42-7.684q-1.723-.6-3.436-1.224c-16.06-5.89-31.309-14.014-44.963-30.315q-.966-1.143-1.906-2.341-1.088-1.369-2.158-2.819c-.886-1.192-1.89-1.793-1.933-2.738h-.006v-14.809Z" fill="#ed2204"/>
          <path id="Path_12325" data-name="Path 12325" d="M647.77,1061.825c.4-.177.795-.365,1.2-.548,1.23-7.34-2.657-14.314-2.835-14.631l-.934.531c.043.07,4.129,7.421,2.572,14.648" fill="#eb9c9a"/>
          <path id="Path_12326" data-name="Path 12326" d="M657.059,1057.422c.408-.2.816-.4,1.224-.607,1.353-7.463-2.271-15.13-2.438-15.474l-.971.462c.043.08,3.9,8.263,2.185,15.619" fill="#eb9c9a"/>
          <path id="Path_12327" data-name="Path 12327" d="M666.9,1052.413c.413-.225.832-.446,1.251-.666,1.5-7.554-2.217-15.4-2.384-15.753l-.972.461c.043.092,4.022,8.516,2.1,15.958" fill="#eb9c9a"/>
          <path id="Path_12328" data-name="Path 12328" d="M678.375,1046.125c.435-.247.864-.494,1.3-.741,1.89-8.349-2.99-15.888-3.227-16.237l-.9.6c.053.081,5.229,8.092,2.824,16.382" fill="#eb9c9a"/>
          <path id="Path_12329" data-name="Path 12329" d="M687.6,1040.745c.44-.263.886-.526,1.326-.8,2.024-8.43-2.937-16.092-3.168-16.446l-.9.591c.059.086,5.342,8.268,2.738,16.65" fill="#eb9c9a"/>
          <path id="Path_12330" data-name="Path 12330" d="M697.184,1034.876c.44-.268.87-.548,1.31-.827,1.761-8.263-3.044-15.678-3.27-16.022l-.9.591c.054.08,5.182,8.011,2.857,16.258" fill="#eb9c9a"/>
          <path id="Path_12331" data-name="Path 12331" d="M706.886,1028.632q.645-.418,1.289-.854c1.471-8.059-3.147-15.184-3.367-15.528l-.9.591c.054.086,4.988,7.716,2.975,15.791" fill="#eb9c9a"/>
          <path id="Path_12332" data-name="Path 12332" d="M716.4,1022.232c.419-.29.832-.575,1.251-.859,1.144-7.813-3.254-14.6-3.469-14.927l-.9.591c.053.08,4.746,7.34,3.114,15.2" fill="#eb9c9a"/>
          <path id="Path_12333" data-name="Path 12333" d="M724.841,1016.32c.413-.295.832-.591,1.246-.886,1.1-7.764-3.265-14.492-3.48-14.825l-.9.591c.053.081,4.719,7.3,3.13,15.12" fill="#eb9c9a"/>
          <path id="Path_12334" data-name="Path 12334" d="M734.855,1009.039c.387-.29.779-.575,1.165-.87a24.135,24.135,0,0,0-3.619-13.423l-.9.6c.048.07,4.166,6.443,3.35,13.7" fill="#eb9c9a"/>
          <path id="Path_12335" data-name="Path 12335" d="M542.678,1014.72v1.224c6.6,3.651,24.828,14.4,54.021,36.4,10.534,7.936,29.821,8.618,30.637,8.639l.032-1.074c-.193-.005-19.764-.692-30.02-8.424-30.03-22.627-48.5-33.381-54.67-36.764" fill="#e57f7b"/>
          <path id="Path_12336" data-name="Path 12336" d="M546.775,1027.322c7.42,4.21,24.366,14.476,50.3,33.88q-1.723-.6-3.436-1.224c-21.875-16.21-36.973-25.649-44.963-30.315Z" fill="#e57f7b"/>
        </g>
      </g>
    </g>
  </g>
</svg>
