<svg xmlns="http://www.w3.org/2000/svg" xmlns:xlink="http://www.w3.org/1999/xlink" width="1920" height="1080" viewBox="0 0 1920 1080">
  <defs>
    <clipPath id="clip-Principle_3_1">
      <rect width="1920" height="1080"/>
    </clipPath>
  </defs>
  <g id="Principle_3_1" data-name="Principle 3 – 1" clip-path="url(#clip-Principle_3_1)">
    <rect width="1920" height="1080" fill="#fff"/>
    <g id="Background" transform="translate(-1059 -86.311)">
      <rect id="Rectangle_2176" data-name="Rectangle 2176" width="2040" height="388.54" transform="translate(995.085 45.52)" fill="#4fd3ff"/>
      <g id="Group_646" data-name="Group 646">
        <g id="Group_647" data-name="Group 647">
          <path id="Path_35725" data-name="Path 35725" d="M2375.538,142.9c0-.043,0-.085,0-.128a23.143,23.143,0,0,0-22.82-23.139,36.249,36.249,0,0,0-71.081,10.037c0,.565.017,1.126.044,1.684a23.146,23.146,0,0,0-43.281,11.418H2236a15.5,15.5,0,0,0,0,31.009h137.575a15.5,15.5,0,0,0,1.963-30.881" fill="#8fdafa"/>
          <path id="Path_35726" data-name="Path 35726" d="M2544.847,162.452c0-.019,0-.038,0-.056a10.389,10.389,0,0,1,10.243-10.388A16.271,16.271,0,0,1,2587,156.513c0,.254-.007.506-.019.758A10.389,10.389,0,0,1,2606.4,162.4h1.078a6.959,6.959,0,1,1,0,13.918h-61.754a6.959,6.959,0,0,1-.881-13.862" fill="#8fdafa"/>
          <path id="Path_35727" data-name="Path 35727" d="M1398.158,222.1H1245.38s60-69.945,152.778,0" fill="#63c3ef"/>
          <path id="Path_35728" data-name="Path 35728" d="M1605.716,265.359q1.5,1.83,3.01,3.73h-183.8s1.49-2.9,4.38-7.45h-54.33q2.1,1.861,4.22,3.79h-96.51q6.645,3.765,13.35,7.81H995.076v-15.93h.01v-46.94c50.25-10.83,113.42-12.27,187.05,10.71a51.119,51.119,0,0,0,34.62-1.49c21.62-8.84,48.6-12.91,80.07-3.91a78.879,78.879,0,0,0,48.56-1.72c27.72-10.04,63.57-11.84,105.86,10.34a12.381,12.381,0,0,0,13.07-.97c18.12-13.19,41.99-21.85,70.59-12.73a48.374,48.374,0,0,0,42.31-6.36c57.24-39.94,152.33-65.27,272.96,53.07q3.99,3.915,8.03,8.05Z" fill="#5bbcea"/>
          <rect id="Rectangle_2177" data-name="Rectangle 2177" width="2015.583" height="495.743" transform="translate(995.075 249.614)" fill="#3e89ff"/>
          <path id="Path_35729" data-name="Path 35729" d="M1333.09,151.47c0-.03,0-.06,0-.091a16.722,16.722,0,0,0-16.488-16.72,26.192,26.192,0,0,0-51.361,7.252c0,.409.013.813.031,1.218a16.724,16.724,0,0,0-31.273,8.25h-1.736a11.2,11.2,0,0,0,0,22.406h99.407a11.2,11.2,0,0,0,1.418-22.315" fill="#8fdafa"/>
          <rect id="Rectangle_2178" data-name="Rectangle 2178" width="2077.074" height="460.01" transform="translate(925.499 722.023)" fill="#4fd3ff"/>
          <path id="Path_35735" data-name="Path 35735" d="M918.175,628.625l-7.638,55.834H2995.87l6.7-55.834Z" fill="#7db775"/>
          <path id="Path_35736" data-name="Path 35736" d="M918.048,656.542l-7.511,32.285h2050.6l6.591-32.285Z" fill="#5e9b53"/>
          <path id="Path_35737" data-name="Path 35737" d="M897.027,944.01l-7.74,55.834H3002.432l6.792-55.834Z" fill="#a76e4d"/>
          <path id="Path_35738" data-name="Path 35738" d="M887.944,676.531l-7.7,55.834H2982l6.755-55.834Z" fill="#a76e4d"/>
          <path id="Path_35742" data-name="Path 35742" d="M1313.362,1147.949,1450.978,909.5l27.638,16.456L1341,1164.406Z" fill="#a76e4d"/>
          <path id="Path_35747" data-name="Path 35747" d="M1987.666,886.086l116.859-202.538L2132.162,700,2015.3,902.543Z" fill="#a76e4d"/>
          <path id="Path_35749" data-name="Path 35749" d="M2347.74,1154.4l137.616-238.444,27.638,16.456-137.616,238.445Z" fill="#a76e4d"/>
          <path id="Path_35750" data-name="Path 35750" d="M918.16,1143.235l-7.667,67.783H3003.929l6.729-67.783Z" fill="#7db775"/>
          <path id="Path_35752" data-name="Path 35752" d="M913.871,876.227l-7.705,67.783h2103.7l6.762-67.783Z" fill="#7db775"/>
          <path id="Path_35753" data-name="Path 35753" d="M913.82,926.86l-7.654,16.546h2089.69l6.717-16.546Z" fill="#5e9b53"/>
          <path id="Path_35756" data-name="Path 35756" d="M1468.4,943.406l3.13,55.834-75.635,144H1353.07Z" fill="#965b39"/>
          <path id="Path_35757" data-name="Path 35757" d="M2506.583,943.406l3.129,55.834-75.634,144h-42.825Z" fill="#965b39"/>
          <path id="Path_35758" data-name="Path 35758" d="M2145.788,676.4l3.129,55.834-75.634,144h-42.825Z" fill="#965b39"/>
          <path id="Path_35769" data-name="Path 35769" d="M1231.567,1038.829H956.674a11.5,11.5,0,0,1-11.5-11.5v-15.979a11.5,11.5,0,0,1,11.5-11.5h274.893a11.5,11.5,0,0,1,11.5,11.5v15.979a11.5,11.5,0,0,1-11.5,11.5" fill="#5cb2db"/>
          <path id="Path_35774" data-name="Path 35774" d="M3030.242,1061.38h-207c-2.008,0-3.636-5.15-3.636-11.5V1033.9c0-6.353,1.628-11.5,3.636-11.5h207c2.009,0,3.636,5.15,3.636,11.5v15.979c0,6.353-1.628,11.5-3.636,11.5" fill="#5cb2db"/>
          <path id="Path_35775" data-name="Path 35775" d="M1977.6,1038.829H1479.747a11.5,11.5,0,0,1-11.5-11.5v-15.979a11.5,11.5,0,0,1,11.5-11.5H1977.6a11.5,11.5,0,0,1,11.5,11.5v15.979a11.5,11.5,0,0,1-11.5,11.5" fill="#5cb2db"/>
          <path id="Path_35777" data-name="Path 35777" d="M2002.655,1011.938H1504.8a11.5,11.5,0,0,1-11.5-11.5V984.456a11.5,11.5,0,0,1,11.5-11.5h497.852a11.5,11.5,0,0,1,11.5,11.5v15.979a11.5,11.5,0,0,1-11.5,11.5" fill="#986a4d"/>
          <path id="Path_35778" data-name="Path 35778" d="M2390.921,1064.835H1893.069a11.5,11.5,0,0,1-11.5-11.5v-15.979a11.5,11.5,0,0,1,11.5-11.5h497.852a11.5,11.5,0,0,1,11.5,11.5v15.979a11.5,11.5,0,0,1-11.5,11.5" fill="#5cb2db"/>
          <path id="Path_35779" data-name="Path 35779" d="M2431.422,1031.431H1891.967a11.387,11.387,0,0,1-11.386-11.387v-16.212a11.386,11.386,0,0,1,11.386-11.386h539.455a11.387,11.387,0,0,1,11.387,11.386v16.212a11.387,11.387,0,0,1-11.387,11.387" fill="#986a4d"/>
          <path id="Path_35780" data-name="Path 35780" d="M1213.525,1019.336H978.313a11.5,11.5,0,0,1-11.5-11.5V991.854a11.5,11.5,0,0,1,11.5-11.5h235.212a11.5,11.5,0,0,1,11.5,11.5v15.979a11.5,11.5,0,0,1-11.5,11.5" fill="#986a4d"/>
          <path id="Path_35781" data-name="Path 35781" d="M2616.982,751.835H2159.95a11.033,11.033,0,0,1-11.033-11.032V723.882a11.033,11.033,0,0,1,11.033-11.032h457.032a11.032,11.032,0,0,1,11.032,11.032V740.8a11.032,11.032,0,0,1-11.032,11.032" fill="#5cb2db"/>
          <path id="Path_35782" data-name="Path 35782" d="M2643.183,737.778H2161.665a11.317,11.317,0,0,1-11.317-11.317V710.11a11.317,11.317,0,0,1,11.317-11.317h481.518A11.317,11.317,0,0,1,2654.5,710.11v16.351a11.317,11.317,0,0,1-11.317,11.317" fill="#986a4d"/>
          <path id="Path_35783" data-name="Path 35783" d="M3029.832,777.841H2531.98a11.5,11.5,0,0,1-11.5-11.5V750.359a11.5,11.5,0,0,1,11.5-11.5h497.852a11.5,11.5,0,0,1,11.5,11.5v15.979a11.5,11.5,0,0,1-11.5,11.5" fill="#5cb2db"/>
          <path id="Path_35784" data-name="Path 35784" d="M3054.6,757.271H2543.814a11.087,11.087,0,0,1-11.087-11.086V729.372a11.086,11.086,0,0,1,11.087-11.086H3054.6a11.085,11.085,0,0,1,11.086,11.086v16.813a11.086,11.086,0,0,1-11.086,11.086" fill="#986a4d"/>
          <path id="Path_35785" data-name="Path 35785" d="M3056.011,1019.336H2558.159a11.5,11.5,0,0,1-11.5-11.5V991.854a11.5,11.5,0,0,1,11.5-11.5h497.852a11.5,11.5,0,0,1,11.5,11.5v15.979a11.5,11.5,0,0,1-11.5,11.5" fill="#986a4d"/>
          <path id="Path_35786" data-name="Path 35786" d="M2999.513,1034.839h-166.6c-1.69,0-3.06-5.15-3.06-11.5v-15.979c0-6.353,1.37-11.5,3.06-11.5h166.6c1.69,0,3.06,5.15,3.06,11.5v15.979c0,6.353-1.37,11.5-3.06,11.5" fill="#986a4d"/>
          <path id="Path_35787" data-name="Path 35787" d="M1997.379,777.841H1470.3a11.217,11.217,0,0,1-11.216-11.217V750.072a11.216,11.216,0,0,1,11.216-11.216h527.082a11.216,11.216,0,0,1,11.216,11.216v16.552a11.217,11.217,0,0,1-11.216,11.217" fill="#5cb2db"/>
          <path id="Path_35788" data-name="Path 35788" d="M1978.682,751.3H1480.83a11.5,11.5,0,0,1-11.5-11.5V723.818a11.5,11.5,0,0,1,11.5-11.5h497.852a11.5,11.5,0,0,1,11.5,11.5V739.8a11.5,11.5,0,0,1-11.5,11.5" fill="#986a4d"/>
          <path id="Path_35789" data-name="Path 35789" d="M1497.2,797.334H917.669a11.5,11.5,0,0,1-11.5-11.5V769.852a11.5,11.5,0,0,1,11.5-11.5H1497.2a11.5,11.5,0,0,1,11.5,11.5v15.979a11.5,11.5,0,0,1-11.5,11.5" fill="#5cb2db"/>
          <path id="Path_35790" data-name="Path 35790" d="M1477.015,770.793H928.9a11.5,11.5,0,0,1-11.5-11.5V743.311a11.5,11.5,0,0,1,11.5-11.5h548.111a11.5,11.5,0,0,1,11.5,11.5V759.29a11.5,11.5,0,0,1-11.5,11.5" fill="#986a4d"/>
          <path id="Path_35791" data-name="Path 35791" d="M1697.776,705.452a8.1,8.1,0,1,1-8.1-8.1,8.1,8.1,0,0,1,8.1,8.1" fill="#b2866d"/>
          <path id="Path_35792" data-name="Path 35792" d="M1938.417,689.4c0,2.224-2.57,3.835-4.794,3.835a4.027,4.027,0,0,1-4.027-4.027c0-2.224,1.8-4.794,4.027-4.794s4.794,2.762,4.794,4.986" fill="#b2866d"/>
          <path id="Path_35793" data-name="Path 35793" d="M1617.351,735.57c0,1.77-2.734,3.206-6.106,3.206s-6.106-1.436-6.106-3.206,2.734-3.206,6.106-3.206,6.106,1.436,6.106,3.206" fill="#7f5032"/>
          <path id="Path_35794" data-name="Path 35794" d="M1902.2,722.472c.8,1.58-.992,4.1-4,5.617s-6.1,1.476-6.9-.1.991-4.1,4-5.617,6.1-1.477,6.9.1" fill="#965b39"/>
          <path id="Path_35795" data-name="Path 35795" d="M1846.731,720.276a9.154,9.154,0,1,1-18.308,0c0-5.056,6.329-12.071,11.385-12.071s6.923,7.015,6.923,12.071" fill="#965b39"/>
          <path id="Path_35796" data-name="Path 35796" d="M1364.531,735.57a8.1,8.1,0,1,1,8.1,8.1,8.1,8.1,0,0,1-8.1-8.1" fill="#b2866d"/>
          <path id="Path_35797" data-name="Path 35797" d="M1005.709,731.232c0-2.224,2.57-3.834,4.794-3.834a4.027,4.027,0,0,1,4.027,4.026c0,2.224-1.8,4.795-4.027,4.795s-4.794-2.762-4.794-4.987" fill="#b2866d"/>
          <path id="Path_35798" data-name="Path 35798" d="M1452.975,708.39c0-1.77,2.734-3.206,6.106-3.206s6.106,1.436,6.106,3.206-2.734,3.206-6.106,3.206-6.106-1.436-6.106-3.206" fill="#7f5032"/>
          <path id="Path_35799" data-name="Path 35799" d="M1130.055,711.147c-.8-1.58.992-4.095,4-5.617s6.1-1.476,6.9.1-.991,4.1-4,5.618-6.1,1.476-6.9-.1" fill="#965b39"/>
          <path id="Path_35800" data-name="Path 35800" d="M1230.587,711.391a9.154,9.154,0,1,1,18.308,0c0,5.056-6.329,12.071-11.385,12.071s-6.923-7.015-6.923-12.071" fill="#965b39"/>
          <path id="Path_35801" data-name="Path 35801" d="M2084.621,696.293a11.744,11.744,0,0,1-11.745,11.744c-6.486,0-13.93-5.553-13.93-12.039s7.444-13.893,13.93-13.893,11.745,7.7,11.745,14.188" fill="#965b39"/>
          <path id="Path_35802" data-name="Path 35802" d="M2583.43,717.062a8.1,8.1,0,1,1,8.1,8.1,8.1,8.1,0,0,1-8.1-8.1" fill="#b2866d"/>
          <path id="Path_35803" data-name="Path 35803" d="M2224.607,712.724c0-2.224,2.57-3.835,4.794-3.835a4.027,4.027,0,0,1,4.027,4.027c0,2.224-1.8,4.794-4.027,4.794s-4.794-2.762-4.794-4.986" fill="#b2866d"/>
          <path id="Path_35804" data-name="Path 35804" d="M2671.874,689.882c0-1.77,2.733-3.206,6.1-3.206s6.106,1.436,6.106,3.206-2.734,3.206-6.106,3.206-6.1-1.436-6.1-3.206" fill="#7f5032"/>
          <path id="Path_35805" data-name="Path 35805" d="M2348.954,692.639c-.8-1.58.992-4.095,4-5.617s6.1-1.476,6.9.1-.991,4.095-4,5.618-6.1,1.476-6.9-.1" fill="#965b39"/>
          <path id="Path_35806" data-name="Path 35806" d="M2449.486,692.883a9.154,9.154,0,1,1,18.308,0c0,5.055-6.329,12.071-11.384,12.071s-6.924-7.016-6.924-12.071" fill="#965b39"/>
          <path id="Path_35808" data-name="Path 35808" d="M2746.051,713.3c0-2.224,2.57-3.835,4.794-3.835a4.027,4.027,0,0,1,4.027,4.027c0,2.224-1.8,4.794-4.027,4.794s-4.794-2.762-4.794-4.986" fill="#b2866d"/>
          <path id="Path_35809" data-name="Path 35809" d="M2935.459,705.452c0-1.77,2.734-3.206,6.106-3.206s6.106,1.436,6.106,3.206-2.734,3.206-6.106,3.206-6.106-1.436-6.106-3.206" fill="#7f5032"/>
          <path id="Path_35810" data-name="Path 35810" d="M2840.6,725.166c-.8-1.58.992-4.1,4-5.617s6.1-1.476,6.9.1-.992,4.1-4,5.618-6.1,1.476-6.9-.1" fill="#965b39"/>
          <path id="Path_35812" data-name="Path 35812" d="M1833.079,982.539a8.1,8.1,0,1,1-8.1-8.1,8.1,8.1,0,0,1,8.1,8.1" fill="#b2866d"/>
          <path id="Path_35813" data-name="Path 35813" d="M1987.241,988.125c0,2.224-2.57,3.835-4.794,3.835a4.027,4.027,0,0,1-4.027-4.027c0-2.224,1.8-4.794,4.027-4.794s4.794,2.762,4.794,4.986" fill="#b2866d"/>
          <path id="Path_35815" data-name="Path 35815" d="M1922.217,1006.189c.8,1.58-.992,4.095-4,5.617s-6.1,1.476-6.895-.1.991-4.1,4-5.617,6.1-1.477,6.9.1" fill="#965b39"/>
          <path id="Path_35816" data-name="Path 35816" d="M1683.053,984.6a9.154,9.154,0,0,1-18.308,0c0-5.055,6.329-12.071,11.385-12.071s6.923,7.016,6.923,12.071" fill="#965b39"/>
          <path id="Path_35817" data-name="Path 35817" d="M1319.847,968.035a8.1,8.1,0,1,1,8.1,8.1,8.1,8.1,0,0,1-8.1-8.1" fill="#b2866d"/>
          <path id="Path_35818" data-name="Path 35818" d="M998.521,986.418c0-2.224,2.57-3.835,4.794-3.835a4.027,4.027,0,0,1,4.027,4.027c0,2.224-1.8,4.794-4.027,4.794s-4.794-2.762-4.794-4.986" fill="#b2866d"/>
          <path id="Path_35819" data-name="Path 35819" d="M1478.615,976.139c0-1.77,2.734-3.206,6.106-3.206s6.106,1.436,6.106,3.206-2.734,3.206-6.106,3.206-6.106-1.436-6.106-3.206" fill="#7f5032"/>
          <path id="Path_35820" data-name="Path 35820" d="M1101.641,966.333c-.8-1.58.992-4.1,4-5.617s6.1-1.476,6.9.1-.991,4.1-4,5.618-6.1,1.476-6.9-.1" fill="#965b39"/>
          <path id="Path_35821" data-name="Path 35821" d="M1202.959,974.681a9.154,9.154,0,1,1,18.308,0c0,5.055-6.329,12.071-11.385,12.071s-6.923-7.016-6.923-12.071" fill="#965b39"/>
          <path id="Path_35822" data-name="Path 35822" d="M2656.582,990.755a8.1,8.1,0,1,1,8.1,8.1,8.1,8.1,0,0,1-8.1-8.1" fill="#b2866d"/>
          <path id="Path_35823" data-name="Path 35823" d="M2217.419,967.91c0-2.224,2.57-3.835,4.794-3.835a4.027,4.027,0,0,1,4.027,4.027c0,2.224-1.8,4.794-4.027,4.794s-4.794-2.762-4.794-4.986" fill="#b2866d"/>
          <path id="Path_35824" data-name="Path 35824" d="M2599.638,960.638c0-1.77,2.734-3.206,6.106-3.206s6.106,1.436,6.106,3.206-2.734,3.206-6.106,3.206-6.106-1.436-6.106-3.206" fill="#7f5032"/>
          <path id="Path_35825" data-name="Path 35825" d="M2383.018,966.147c-.8-1.58.992-4.095,4-5.617s6.1-1.476,6.9.1-.992,4.1-4,5.618-6.1,1.476-6.9-.1" fill="#965b39"/>
          <path id="Path_35826" data-name="Path 35826" d="M2282.851,990.987a9.154,9.154,0,1,1,18.308,0c0,5.056-6.329,12.071-11.384,12.071s-6.924-7.015-6.924-12.071" fill="#965b39"/>
          <path id="Path_35827" data-name="Path 35827" d="M2089.688,970.468a9.154,9.154,0,1,1,18.307,0c0,5.056-6.329,12.071-11.384,12.071s-6.923-7.015-6.923-12.071" fill="#965b39"/>
          <path id="Path_35829" data-name="Path 35829" d="M2741.641,990.18c0-2.224,2.569-3.835,4.794-3.835a4.027,4.027,0,0,1,4.026,4.027c0,2.224-1.8,4.794-4.026,4.794s-4.794-2.762-4.794-4.986" fill="#b2866d"/>
          <path id="Path_35830" data-name="Path 35830" d="M2967.726,957.432c0-1.77,2.733-3.206,6.106-3.206s6.106,1.436,6.106,3.206-2.735,3.206-6.106,3.206-6.106-1.436-6.106-3.206" fill="#7f5032"/>
          <path id="Path_35831" data-name="Path 35831" d="M2833.408,980.351c-.8-1.58.992-4.1,4-5.617s6.1-1.476,6.9.1-.991,4.1-4,5.617-6.1,1.477-6.9-.1" fill="#965b39"/>
          <path id="Path_35832" data-name="Path 35832" d="M3043.033,1012.764a9.154,9.154,0,0,1,18.308,0c0,5.056-6.33,12.071-11.384,12.071s-6.924-7.015-6.924-12.071" fill="#965b39"/>
          <path id="Path_35868" data-name="Path 35868" d="M1823.647,906.6h-49.024a28.42,28.42,0,0,1-2.728-4.253v-.017c-1.712-3.389-2.441-6.847-1.746-9.964a10.125,10.125,0,0,1,1.83-3.983,7.035,7.035,0,0,1,.644-.8c.322-.356.661-.712,1.034-1.05a30.04,30.04,0,0,1,4.3-3.424c.78-.525,1.592-1.033,2.457-1.524a46.744,46.744,0,0,1,5.406-2.627l.1-.051c1.441-.577,2.949-1.1,4.474-1.542.39-.119.8-.22,1.186-.322a33.525,33.525,0,0,1,7.626-1.085q.787-.024,1.576,0a22.846,22.846,0,0,1,3.745.39q.61.1,1.22.255c1.05.254,2.067.542,3.05.88a32.517,32.517,0,0,1,4.016,1.61c.662.3,1.288.627,1.9.967a32.532,32.532,0,0,1,5.524,3.846,25.693,25.693,0,0,1,5.931,7.2,17.6,17.6,0,0,1,1.865,4.983c.847,4.321-.475,8.252-4.389,10.506" fill="#a36f51"/>
          <path id="Path_35869" data-name="Path 35869" d="M1795.551,906.5c.016.034,0,.068,0,.1h-65.5c.153-2.237,1.424-4.44,4.22-6.541a8.619,8.619,0,0,0,3.271-6.914c.067-8.575,11.3-15.556,31.434-7.659a14.776,14.776,0,0,0,2.508.745,13.421,13.421,0,0,0,2.169.3c.237.034.474.051.712.068a31.662,31.662,0,0,1,5.981.814q1.3.3,2.492.711c.355.119.711.254,1.05.407a19.859,19.859,0,0,1,4.05,2.135,17.421,17.421,0,0,1,5.626,6.1,16.743,16.743,0,0,1,1.61,4.1,16.321,16.321,0,0,1,.373,5.626" fill="#965b39"/>
          <path id="Path_35870" data-name="Path 35870" d="M1793.755,906.6H1775.91c-.44-.525-.9-1.067-1.389-1.593-.814-.915-1.695-1.8-2.627-2.66v-.017a41.863,41.863,0,0,0-23.012-10.913s8.608-2.982,21.266.949c1.085.339,2.2.729,3.339,1.169.338.136.694.288,1.034.424a59.371,59.371,0,0,1,9.354,4.948h.016c.187.135.373.254.559.373.814.542,1.611,1.1,2.425,1.677,1.236.9,2.49,1.882,3.76,2.932h.018c1.017.847,2.068,1.745,3.1,2.711" fill="#41ae55"/>
          <path id="Path_35871" data-name="Path 35871" d="M1785.061,906.6h-5.694a80.5,80.5,0,0,1-4.846-10.2c-.389-.966-.729-1.915-1.033-2.864-.611-1.779-1.1-3.508-1.509-5.152-.186-.729-.355-1.44-.491-2.152a45.029,45.029,0,0,1-.44-17.487c.033-.153.05-.306.084-.458a23.3,23.3,0,0,1,1.762-5.643,51.812,51.812,0,0,0,.628,6.643v.017c.152.847.3,1.7.491,2.524q.228,1.068.508,2.136a49.365,49.365,0,0,0,3.44,9.15l.407.814c.627,1.2,1.287,2.372,1.982,3.491a53.58,53.58,0,0,0,3.305,4.812c-.017.881-.017,1.779,0,2.712.017.3.017.643.034.965q.051,1.474.2,3c.119,1.356.289,2.728.509,4.152v.067c.186,1.118.406,2.288.66,3.474" fill="#27a33e"/>
          <path id="Path_35872" data-name="Path 35872" d="M1798.5,904.669l-2.847,1.9-.067.034h-10.541c-.254-1.186-.457-2.338-.644-3.474v-.067c-.22-1.441-.407-2.814-.525-4.152-.085-1.034-.152-2.033-.186-3-.018-.322-.018-.66-.034-.965-.017-.933-.017-1.831,0-2.712,0-.169.016-.339.016-.508.034-1.1.119-2.169.221-3.185a45.166,45.166,0,0,1,1.932-9.575c.017-.034.017-.085.034-.119,2.474-7.693,6.151-11.642,6.388-11.879a43.463,43.463,0,0,0-1.847,10.4c-.068,1.067-.068,2.118-.051,3.151a39.87,39.87,0,0,0,.39,4.814,43.1,43.1,0,0,0,3.084,10.912q.864,1.983,1.83,3.762a46.507,46.507,0,0,0,2.847,4.66" fill="#27a33e"/>
          <path id="Path_35873" data-name="Path 35873" d="M1842.406,891.417a42.913,42.913,0,0,0-14.371,4.677,40.38,40.38,0,0,0-7.134,4.9,44.091,44.091,0,0,0-5.525,5.609h-17.843c.491-.44.967-.881,1.457-1.287,1.8-1.593,3.575-3,5.321-4.271,1.051-.762,2.067-1.474,3.085-2.135h.016a58.811,58.811,0,0,1,10.4-5.372c1.051-.406,2.085-.762,3.085-1.085a45.587,45.587,0,0,1,5.271-1.338c9.861-1.9,16.234.3,16.234.3" fill="#41ae55"/>
          <path id="Path_35874" data-name="Path 35874" d="M1820.9,876.048a48.534,48.534,0,0,1-.661,7.862,60.028,60.028,0,0,1-2.424,9.626,77.718,77.718,0,0,1-5.879,13.065h-5.711c.068-.271.118-.542.169-.814.153-.711.288-1.389.39-2.084.068-.406.136-.8.186-1.2.136-.8.22-1.559.306-2.322v-.016c.034-.2.05-.424.067-.627.017-.1.017-.2.034-.306,0-.1.017-.22.017-.322.017-.152.034-.322.051-.491.017-.152.034-.322.051-.492.118-1.728.169-3.405.152-5,0-.238,0-.458-.017-.7a53.313,53.313,0,0,0,7.083-12.167,51.712,51.712,0,0,0,1.814-5.2c.2-.7.372-1.406.559-2.134a49.829,49.829,0,0,0,1.3-10.083s2.508,4.778,2.508,13.4" fill="#27a33e"/>
          <path id="Path_35875" data-name="Path 35875" d="M1807.65,892.926c.017,1.593-.035,3.27-.153,5-.017.17-.033.34-.05.492a4.436,4.436,0,0,1-.035.491c-.016.1-.016.221-.034.322s-.017.2-.034.306c-.016.2-.034.423-.067.627v.016c-.085.763-.17,1.525-.306,2.322-.049.406-.117.8-.185,1.2-.1.7-.238,1.373-.39,2.085-.052.271-.086.542-.154.813H1795.7l-.052-.034-.1-.068-2.745-1.83c.8-1.169,1.593-2.44,2.372-3.8.152-.288.323-.575.474-.864.374-.694.747-1.423,1.1-2.186a42.569,42.569,0,0,0,3.763-12.235,40.924,40.924,0,0,0,.27-9.625,43.8,43.8,0,0,0-.627-4.541q-.432-2.187-1.118-4.474a20.186,20.186,0,0,1,1.745,2.237,35.444,35.444,0,0,1,3.745,7.168c.44,1.1.847,2.3,1.237,3.626a45.5,45.5,0,0,1,1.628,8.507c.135,1.407.236,2.9.254,4.44" fill="#27a33e"/>
          <path id="Path_35876" data-name="Path 35876" d="M1799.3,906.6h-15.183c.136-1.1.22-2.254.288-3.474v-.067c.068-1.2.084-2.474.05-3.779a44.389,44.389,0,0,0-.779-7.558c-.22-1.187-.492-2.39-.83-3.593a41.35,41.35,0,0,0-8.321-15.708,5.524,5.524,0,0,0-.508-.594,42.094,42.094,0,0,0-2.965-3.083c-.255-.254-.509-.509-.78-.746a9.043,9.043,0,0,1,.864.288,25.518,25.518,0,0,1,2.39,1v.017c.322.135.66.322,1,.491a41.008,41.008,0,0,1,11.337,9.049c.017.017.034.051.068.068a52.2,52.2,0,0,1,3.558,4.542c.424.61.848,1.236,1.254,1.88a57.583,57.583,0,0,1,4.389,8.388c.576,1.3,1.118,2.678,1.627,4.1a77.233,77.233,0,0,1,2.237,7.491c.1.423.2.863.305,1.287" fill="#41ae55"/>
          <path id="Path_35877" data-name="Path 35877" d="M1806.21,857.458a49.071,49.071,0,0,0-5.423,11.726c-.22.746-.44,1.492-.627,2.238-.39,1.525-.712,3.049-.949,4.541a53.309,53.309,0,0,0-.542,12.065c-.017.034-.034.05-.034.068-.2.271-.39.559-.593.847-.17.254-.356.508-.526.78-.236.373-.474.745-.711,1.118-.152.254-.306.508-.458.762-.254.407-.508.831-.745,1.271-.153.272-.306.56-.475.848-.033.067-.067.135-.119.22-.186.356-.389.729-.576,1.1-.2.372-.389.745-.575,1.135a.119.119,0,0,0-.034.068c-.086.186-.17.356-.254.525-.187.407-.391.83-.577,1.254-.136.3-.271.61-.406.932-.136.3-.288.627-.407.949-.068.153-.136.3-.2.475-.2.474-.39.965-.576,1.474-.254.661-.508,1.339-.745,2.033-.153.424-.306.847-.458,1.288-.152.458-.305.949-.458,1.423h-2.948c-.017-1.948.017-3.829.085-5.643a86.466,86.466,0,0,1,1.067-10.285,70.791,70.791,0,0,1,1.542-7.219c.272-1.017.56-1.983.864-2.932.39-1.22.8-2.372,1.237-3.474,5.745-14.759,14.625-19.589,14.625-19.589" fill="#27a33e"/>
          <path id="Path_35878" data-name="Path 35878" d="M1819.867,871.811c-1.186,1-2.3,2.016-3.338,3.05a42.647,42.647,0,0,0-3.711,4.236,41.348,41.348,0,0,0-5.423,9.388,44.122,44.122,0,0,0-3.084,12.557,52.868,52.868,0,0,0-.237,5.558h-14.336c.152-.474.3-.966.458-1.423.152-.441.288-.865.44-1.288.119-.356.255-.7.373-1.034s.254-.661.39-1c.118-.34.254-.661.373-.983.067-.17.135-.34.2-.492.067-.169.135-.322.2-.474.119-.323.272-.645.407-.949.136-.322.271-.627.406-.933s.272-.609.407-.9c.051-.119.119-.238.17-.356.085-.186.169-.356.254-.525a.122.122,0,0,1,.034-.068c.186-.39.372-.763.576-1.136.186-.373.39-.745.576-1.1.051-.085.085-.153.119-.221.169-.288.322-.576.474-.847.238-.44.492-.864.746-1.271l.457-.762q.357-.559.712-1.119c.169-.271.356-.525.525-.779.2-.288.39-.576.593-.847,0-.018.018-.034.034-.068.61-.848,1.22-1.678,1.847-2.44a46,46,0,0,1,5.254-5.61c1.033-.931,2.05-1.745,3.033-2.491a38.1,38.1,0,0,1,8.287-4.761,18.354,18.354,0,0,1,2.778-.915" fill="#41ae55"/>
          <path id="Path_35890" data-name="Path 35890" d="M686.69,610.538c-22.635-62.154-43.266-93.148-61.475-104.705-8.1-7.118-48.881-25.394-67.051-25.394L11.85,421.19V610.538H686.69Z" transform="translate(859.927 41.014)" fill="#7db775"/>
          <path id="Path_35901" data-name="Path 35901" d="M1312.061,416.343l-7.033-4.348,46.121-73.192,5.776,3.571Z" fill="#a76e4d"/>
          <path id="Path_35902" data-name="Path 35902" d="M1308.679,414.251l3.382,2.091,44.864-73.968-2.754-1.7Z" fill="#965b39"/>
          <path id="Path_35903" data-name="Path 35903" d="M1291.464,404.864l7.033-4.348-46.121-73.191-5.776,3.57Z" fill="#a76e4d"/>
          <path id="Path_35904" data-name="Path 35904" d="M1294.846,402.773l-3.382,2.091L1246.6,330.9l2.754-1.7Z" fill="#965b39"/>
          <path id="Path_35905" data-name="Path 35905" d="M1301.692,108.846h0a47.8,47.8,0,0,0-46.481,36.75,47.75,47.75,0,0,0-72.324,41.013v13.1a48.03,48.03,0,0,0,.728,8.044,47.825,47.825,0,0,0-29.525,44.181v13.1a47.758,47.758,0,0,0,57.99,46.714,47.656,47.656,0,0,0,57.081,49.287l1.244-.248a47.6,47.6,0,0,0,31.287,11.708Z" fill="#5e9b53"/>
          <path id="Path_35906" data-name="Path 35906" d="M1301.692,108.846h0a47.8,47.8,0,0,1,46.481,36.75,47.75,47.75,0,0,1,72.324,41.013v13.1a48.03,48.03,0,0,1-.728,8.044,47.825,47.825,0,0,1,29.525,44.181v13.1a47.758,47.758,0,0,1-57.99,46.714,47.656,47.656,0,0,1-57.081,49.287l-1.245-.248a47.592,47.592,0,0,1-31.286,11.708Z" fill="#4f8c45"/>
          <path id="Path_35907" data-name="Path 35907" d="M1313.625,545.384h-23.866l2.133-249.694h19.6Z" fill="#a76e4d"/>
          <path id="Path_35908" data-name="Path 35908" d="M1302.147,545.384h11.478l-2.133-249.694h-9.345Z" fill="#965b39"/>
          <rect id="Rectangle_2181" data-name="Rectangle 2181" width="23.866" height="127.05" transform="translate(1182.554 415.792)" fill="#a76e4d"/>
          <rect id="Rectangle_2182" data-name="Rectangle 2182" width="11.61" height="127.05" transform="translate(1194.81 415.792)" fill="#965b39"/>
          <path id="Path_35927" data-name="Path 35927" d="M1271.6,320.813c0,74.915-34.379,97.877-76.787,97.877s-76.787-22.962-76.787-97.877S1152.4,147.4,1194.81,147.4s76.787,98.5,76.787,173.414" fill="#5e9b53"/>
          <path id="Path_35928" data-name="Path 35928" d="M1194.81,147.4c-.1,0-.19.009-.286.011V418.685c.1,0,.19.005.286.005,42.408,0,76.787-22.962,76.787-97.877S1237.218,147.4,1194.81,147.4" fill="#4f8c45"/>
          <path id="Path_35939" data-name="Path 35939" d="M1152.11,371.322a34.372,34.372,0,0,0-13.481-27.3,34.455,34.455,0,0,0-19-63.2h-6.921c.033-.624.094-1.24.094-1.872a34.461,34.461,0,0,0-34.463-34.462h-8.4a34.462,34.462,0,0,0-34.464,34.462c0,.632.061,1.248.1,1.872h-6.922a34.455,34.455,0,0,0-19,63.2,34.418,34.418,0,0,0,11.189,60.327,34.456,34.456,0,0,0,9.793,67.494h7.91a38.953,38.953,0,0,0,71.195,0h7.911a34.456,34.456,0,0,0,9.792-67.494,34.464,34.464,0,0,0,24.671-33.031" fill="#5e9b53"/>
          <path id="Path_35940" data-name="Path 35940" d="M1109.736,471.847h7.91a34.456,34.456,0,0,0,9.793-67.494,34.418,34.418,0,0,0,11.189-60.327,34.455,34.455,0,0,0-19-63.2h-6.922c.034-.624.095-1.239.095-1.871a34.464,34.464,0,0,0-34.464-34.464h-4.2v250.5a38.971,38.971,0,0,0,35.6-23.137" fill="#4f8c45"/>
          <path id="Path_35941" data-name="Path 35941" d="M1083.737,609.87h-19.2l6.4-249.183h6.4Z" fill="#a76e4d"/>
          <path id="Path_35942" data-name="Path 35942" d="M1074.138,609.87h9.6l-6.4-249.183h-3.2Z" fill="#965b39"/>
          <path id="Path_35943" data-name="Path 35943" d="M1076.625,443.671l-5-3.167,42.771-63.8,1.665,1.056Z" fill="#a76e4d"/>
          <path id="Path_35944" data-name="Path 35944" d="M1074.127,442.088l2.5,1.583,39.441-65.909-.833-.528Z" fill="#965b39"/>
          <path id="Path_35945" data-name="Path 35945" d="M1071.651,462.2l5-3.167-42.771-63.8-1.665,1.056Z" fill="#965b39"/>
          <path id="Path_35946" data-name="Path 35946" d="M1074.149,460.621l-2.5,1.583L1032.21,396.3l.833-.528Z" fill="#a76e4d"/>
          <path id="Path_35957" data-name="Path 35957" d="M2767.22,241.918H2614.442s60-69.944,152.778,0" fill="#63c3ef"/>
          <path id="Path_35958" data-name="Path 35958" d="M2515.985,249.614H2363.207s59.995-104.576,152.778,0" fill="#63c3ef"/>
          <path id="Path_35959" data-name="Path 35959" d="M3066,237.148v27.846H1998.575s71.307-116.938,185.941-47.564a69.272,69.272,0,0,0,46.958,8.87,192.019,192.019,0,0,1,70.093,1.889,83.537,83.537,0,0,0,34.457-.18c29.094-6.25,65.731-6.6,108.462,8.308a113.565,113.565,0,0,0,88.62-5.464c45.9-23.147,121.828-42.168,219.06,2.867a97.334,97.334,0,0,0,85.539-1.832c46.778-24.181,126.146-44.855,228.3,5.261" transform="translate(0.437 -15.38)" fill="#5bbcea"/>
          <path id="Path_35960" data-name="Path 35960" d="M1680.175,623.435c39.314-52.478,75.146-78.647,106.771-88.4,14.075-6.01,84.9-21.441,116.458-21.441l948.866-50.024v159.87h-1172.1Z" transform="translate(210.936 294.783)" fill="#7db775"/>
          <path id="Path_35971" data-name="Path 35971" d="M2421.423,604.342l10-6.181-65.562-104.044-8.211,5.076Z" fill="#a76e4d"/>
          <path id="Path_35972" data-name="Path 35972" d="M2426.231,601.37l-4.808,2.973-63.776-105.149,3.915-2.421Z" fill="#965b39"/>
          <path id="Path_35973" data-name="Path 35973" d="M2450.7,588.025l-10-6.181L2506.268,477.8l8.211,5.076Z" fill="#a76e4d"/>
          <path id="Path_35974" data-name="Path 35974" d="M2445.895,585.052l4.808,2.973,63.776-105.149-3.915-2.421Z" fill="#965b39"/>
          <path id="Path_35975" data-name="Path 35975" d="M2436.164,167.223h0a67.954,67.954,0,0,1,66.074,52.242,67.876,67.876,0,0,1,102.81,58.3v18.621a68.157,68.157,0,0,1-1.034,11.434,67.984,67.984,0,0,1,41.971,62.8v18.62a67.891,67.891,0,0,1-82.434,66.406,67.746,67.746,0,0,1-81.144,70.063l-1.769-.353a67.652,67.652,0,0,1-44.474,16.644Z" fill="#5e9b53"/>
          <path id="Path_35976" data-name="Path 35976" d="M2436.164,167.223h0a67.953,67.953,0,0,0-66.075,52.242,67.876,67.876,0,0,0-102.81,58.3v18.621a68.157,68.157,0,0,0,1.034,11.434,67.982,67.982,0,0,0-41.971,62.8v18.62a67.892,67.892,0,0,0,82.435,66.406,67.741,67.741,0,0,0,81.142,70.063l1.769-.353a67.657,67.657,0,0,0,44.476,16.644Z" fill="#4f8c45"/>
          <path id="Path_35977" data-name="Path 35977" d="M2419.2,787.78h33.926l-3.032-354.95h-27.862Z" fill="#a76e4d"/>
          <path id="Path_35978" data-name="Path 35978" d="M2435.516,787.78H2419.2l3.032-354.95h13.285Z" fill="#965b39"/>
          <path id="Path_35979" data-name="Path 35979" d="M2778.08,485.637a48.86,48.86,0,0,1,19.164-38.8,48.978,48.978,0,0,1,27.01-89.843h9.839c-.047-.887-.134-1.762-.134-2.661a48.99,48.99,0,0,1,48.991-48.991h11.938a48.99,48.99,0,0,1,48.991,48.991c0,.9-.086,1.774-.134,2.661h9.839a48.978,48.978,0,0,1,27.01,89.843,48.927,48.927,0,0,1-15.906,85.757,48.982,48.982,0,0,1-13.921,95.946h-11.244a55.374,55.374,0,0,1-101.207,0h-11.245a48.982,48.982,0,0,1-13.921-95.946,48.991,48.991,0,0,1-35.07-46.954" fill="#5e9b53"/>
          <path id="Path_35980" data-name="Path 35980" d="M2838.316,628.536h-11.245a48.981,48.981,0,0,1-13.92-95.945,48.927,48.927,0,0,1-15.907-85.757,48.979,48.979,0,0,1,27.01-89.844h9.839c-.047-.887-.134-1.762-.134-2.661a48.99,48.99,0,0,1,48.99-48.991h5.97V661.426a55.4,55.4,0,0,1-50.6-32.89" fill="#4f8c45"/>
          <path id="Path_35981" data-name="Path 35981" d="M2875.274,824.741h27.289l-9.1-354.224h-9.1Z" fill="#a76e4d"/>
          <path id="Path_35982" data-name="Path 35982" d="M2888.919,824.742h-13.645l9.1-354.224h4.548Z" fill="#965b39"/>
          <path id="Path_35983" data-name="Path 35983" d="M2885.384,588.484l7.1-4.5-60.8-90.691-2.368,1.5Z" fill="#a76e4d"/>
          <path id="Path_35984" data-name="Path 35984" d="M2888.936,586.233l-3.551,2.251-56.066-93.693,1.183-.75Z" fill="#965b39"/>
          <path id="Path_35985" data-name="Path 35985" d="M2892.456,614.829l-7.1-4.5,60.8-90.691,2.367,1.5Z" fill="#965b39"/>
          <path id="Path_35986" data-name="Path 35986" d="M2888.9,612.578l3.551,2.251,56.066-93.693-1.184-.75Z" fill="#a76e4d"/>
          <rect id="Rectangle_2191" data-name="Rectangle 2191" width="33.927" height="180.606" transform="translate(2545.778 603.56)" fill="#a76e4d"/>
          <rect id="Rectangle_2192" data-name="Rectangle 2192" width="16.505" height="180.606" transform="translate(2545.778 603.56)" fill="#965b39"/>
          <path id="Path_35999" data-name="Path 35999" d="M2453.127,468.543c0,106.494,48.871,139.135,109.155,139.135s109.156-32.641,109.156-139.135-48.87-246.514-109.156-246.514-109.155,140.02-109.155,246.514" fill="#5e9b53"/>
          <path id="Path_36000" data-name="Path 36000" d="M2562.282,222.028c.135,0,.27.013.406.016V607.671c-.136,0-.27.007-.406.007-60.285,0-109.156-32.641-109.156-139.135S2502,222.028,2562.282,222.028" fill="#4f8c45"/>
          <path id="Path_36003" data-name="Path 36003" d="M2157.031,469.1a48.861,48.861,0,0,1,19.164-38.8,48.979,48.979,0,0,1,27.01-89.844h9.839c-.047-.886-.134-1.761-.134-2.66A48.99,48.99,0,0,1,2261.9,288.8h11.938a48.99,48.99,0,0,1,48.991,48.991c0,.9-.086,1.774-.134,2.66h9.839a48.979,48.979,0,0,1,27.01,89.844,48.927,48.927,0,0,1-15.906,85.757A48.981,48.981,0,0,1,2329.718,612h-11.244a55.373,55.373,0,0,1-101.207,0h-11.245a48.981,48.981,0,0,1-13.921-95.945,48.991,48.991,0,0,1-35.07-46.954" fill="#5e9b53"/>
          <path id="Path_36004" data-name="Path 36004" d="M2217.267,612h-11.246a48.981,48.981,0,0,1-13.919-95.945A48.927,48.927,0,0,1,2176.2,430.3a48.979,48.979,0,0,1,27.011-89.844h9.838c-.047-.887-.134-1.762-.134-2.661A48.991,48.991,0,0,1,2261.9,288.8h5.969V644.887a55.4,55.4,0,0,1-50.6-32.89" fill="#4f8c45"/>
          <path id="Path_36005" data-name="Path 36005" d="M2254.225,808.2h27.289l-9.1-354.224h-9.1Z" fill="#a76e4d"/>
          <path id="Path_36006" data-name="Path 36006" d="M2267.871,808.2h-13.645l9.1-354.224h4.548Z" fill="#965b39"/>
          <path id="Path_36007" data-name="Path 36007" d="M2264.335,571.945l7.1-4.5-60.8-90.691-2.367,1.5Z" fill="#a76e4d"/>
          <path id="Path_36008" data-name="Path 36008" d="M2267.886,569.693l-3.551,2.251-56.066-93.692,1.183-.751Z" fill="#965b39"/>
          <path id="Path_36009" data-name="Path 36009" d="M2271.406,598.29l-7.1-4.5,60.8-90.691,2.367,1.5Z" fill="#965b39"/>
          <path id="Path_36010" data-name="Path 36010" d="M2267.855,596.039l3.551,2.251,56.066-93.692-1.183-.751Z" fill="#a76e4d"/>
          <path id="Path_36011" data-name="Path 36011" d="M2622.982,540.344a48.861,48.861,0,0,1,19.164-38.8,48.978,48.978,0,0,1,27.01-89.843H2679c-.047-.887-.134-1.762-.134-2.661a48.99,48.99,0,0,1,48.991-48.991h11.938a48.99,48.99,0,0,1,48.991,48.991c0,.9-.086,1.774-.134,2.661h9.839a48.978,48.978,0,0,1,27.01,89.843A48.927,48.927,0,0,1,2809.59,587.3a48.982,48.982,0,0,1-13.921,95.946h-11.244a55.374,55.374,0,0,1-101.207,0h-11.245a48.982,48.982,0,0,1-13.921-95.946,48.991,48.991,0,0,1-35.07-46.954" fill="#5e9b53"/>
          <path id="Path_36012" data-name="Path 36012" d="M2683.218,683.244h-11.246a48.981,48.981,0,0,1-13.92-95.945,48.926,48.926,0,0,1-15.906-85.757,48.979,48.979,0,0,1,27.01-89.844H2679c-.047-.887-.134-1.762-.134-2.661a48.99,48.99,0,0,1,48.991-48.991h5.969V716.134a55.4,55.4,0,0,1-50.6-32.89" fill="#4f8c45"/>
          <path id="Path_36013" data-name="Path 36013" d="M2720.176,879.449h27.289l-9.1-354.224h-9.1Z" fill="#a76e4d"/>
          <path id="Path_36014" data-name="Path 36014" d="M2733.822,879.449h-13.645l9.1-354.224h4.548Z" fill="#965b39"/>
          <path id="Path_36015" data-name="Path 36015" d="M2730.286,643.191l7.1-4.5L2676.587,548l-2.367,1.5Z" fill="#a76e4d"/>
          <path id="Path_36016" data-name="Path 36016" d="M2733.837,640.94l-3.551,2.251L2674.22,549.5l1.184-.75Z" fill="#965b39"/>
          <path id="Path_36017" data-name="Path 36017" d="M2737.357,669.537l-7.1-4.5,60.8-90.691,2.367,1.5Z" fill="#965b39"/>
          <path id="Path_36018" data-name="Path 36018" d="M2733.806,667.286l3.551,2.251,56.066-93.693-1.183-.75Z" fill="#a76e4d"/>
          <path id="Path_36027" data-name="Path 36027" d="M1049.878,464.276c-48.219,53.186,15.691,111.68,35.047,111.68s35.047-50,35.047-111.68S1104.281,352.6,1084.925,352.6s6.38,65.984-35.047,111.679" fill="#414042"/>
          <path id="Path_36028" data-name="Path 36028" d="M1228.826,394.206c-9.872,40.6-39.538,71.886-76.513,79.745V490.33c0-.347,6.194.867,13.373,2.4-8.067,11.6-19.061,19.173-31.2,19.173-12.237,0-23.612-7.737-31.705-19.511,4.36-.8,8.717-1.488,13.068-1.96V473.951c-36.975-7.859-66.641-39.149-76.513-79.745-10.948-3.661-20.305-17.547-20.305-28.808,0-10.4,7.977-15.391,17.815-17.01,6.939-53.763,47.822-95.05,97.234-95.05,50.674,0,92.378,43.421,97.7,99.189q-.2-2.08-.464-4.139c9.837,1.619,17.814,6.614,17.814,17.01,0,11.261-9.357,25.147-20.3,28.808" fill="#b98e6e"/>
          <path id="Path_36029" data-name="Path 36029" d="M1288.431,777.4c.044-3.118.074-6.241.074-9.377,0-66.677-9.277-133.312-26.495-189.138l-29.239,32.58a569.724,569.724,0,0,1,26.635,153.6c.076,2.085.127,4.162.179,6.24-.112.085-.234.153-.341.249-.866.778-8.537,7.742-11.218,12.211-2.668,4.446-4.563,11.588-4.77,12.386a5.047,5.047,0,0,0,9.769,2.537,47.217,47.217,0,0,1,3.631-9.686v16.973c0,8.707,6.836,16.126,15.36,17.391,10.5,1.556,20.707-6.63,20.707-17.391V788.856a17.423,17.423,0,0,0-4.292-11.46" fill="#b98e6e"/>
          <path id="Path_36030" data-name="Path 36030" d="M1046.188,774.68c-.17-.948-.316-1.9-.4-2.876.1.97.234,1.929.4,2.876" fill="#cd9d7a"/>
          <path id="Path_36031" data-name="Path 36031" d="M1222.008,774.663q.256-1.436.394-2.911c-.088.983-.223,1.954-.394,2.911" fill="#cd9d7a"/>
          <path id="Path_36032" data-name="Path 36032" d="M1036.847,348.388c6.939-53.762,47.822-95.049,97.234-95.049h0V511.876c-12.082-.17-23.3-7.838-31.3-19.48,4.36-.8,8.717-1.488,13.068-1.96V473.951c-36.975-7.858-66.641-39.149-76.513-79.745-10.948-3.661-20.305-17.547-20.305-28.808,0-10.4,7.977-15.391,17.815-17.01" fill="#cd9d7a"/>
          <path id="Path_36033" data-name="Path 36033" d="M1234.548,354.492s-12.012,5.358-36.932-48.9c-25.131-38.725-141.381,39-163.228,54.11a2.479,2.479,0,0,1-3.891-1.9c-1.284-22-1.351-119.359,98.084-119.321,134.394.051,105.967,116.016,105.967,116.016" fill="#282729"/>
          <path id="Path_36034" data-name="Path 36034" d="M1230.231,619.467l43.805-15.885a1.945,1.945,0,0,0,1.165-2.491l-5.534-15.26a1.945,1.945,0,0,0-2.491-1.165l-43.8,15.885a1.945,1.945,0,0,0-1.166,2.491l5.534,15.26a1.945,1.945,0,0,0,2.491,1.165" fill="#ab1009"/>
          <path id="Path_36035" data-name="Path 36035" d="M979.733,777.4c-.044-3.118-.074-6.241-.074-9.377,0-66.677,9.277-133.312,26.495-189.138l29.239,32.58a569.769,569.769,0,0,0-26.636,153.6c-.075,2.085-.126,4.162-.178,6.24.112.085.234.153.34.249.867.778,8.538,7.742,11.219,12.211,2.668,4.446,4.563,11.588,4.77,12.386a5.047,5.047,0,0,1-9.769,2.537,47.217,47.217,0,0,0-3.631-9.686v16.973c0,8.707-6.836,16.126-15.36,17.391-10.5,1.556-20.707-6.63-20.707-17.391V788.856a17.423,17.423,0,0,1,4.292-11.46" fill="#cd9d7a"/>
          <path id="Path_36036" data-name="Path 36036" d="M1037.933,619.467l-43.8-15.885a1.945,1.945,0,0,1-1.165-2.491l5.534-15.26a1.945,1.945,0,0,1,2.491-1.165l43.8,15.885a1.945,1.945,0,0,1,1.165,2.491l-5.534,15.26a1.945,1.945,0,0,1-2.491,1.165" fill="#ab1009"/>
          <path id="Path_36037" data-name="Path 36037" d="M1165.748,491.88c2.92.536,5.633,1.082,8.557,1.767,10.458,1.807,21.795,6.133,31.529,10.355,22.24,9.647,42.405,26.617,50.917,49.358.954,2.548,4.268,15.53,8.367,32.051-.058.018-.117.023-.175.044l-38.53,13.972c-2.567-10.374-4.707-18.3-5.972-21.362L1215.48,746.3v20.974a33.566,33.566,0,0,1-.564,5.945l-80.834,1.442V511.854c12.259-.172,23.643-8.043,31.666-19.974" fill="#d42e28"/>
          <path id="Path_36038" data-name="Path 36038" d="M1134.082,511.854V774.663l-80.834-1.442a33.557,33.557,0,0,1-.564-5.946V746.3l-4.961-168.238c-1.265,3.066-3.405,10.989-5.972,21.363l-38.53-13.972c-.058-.021-.117-.026-.175-.044,4.1-16.521,7.413-29.5,8.367-32.051,8.512-22.741,28.677-39.711,50.918-49.358,9.733-4.222,21.07-8.549,31.528-10.356,2.925-.684,5.638-1.23,8.557-1.766,8.024,11.931,19.407,19.8,31.666,19.974" fill="#db504a"/>
          <path id="Path_36039" data-name="Path 36039" d="M1116.456,1030.2h-57.51a.786.786,0,0,1-.786-.786v-12a.786.786,0,0,1,.786-.786h57.51a.786.786,0,0,1,.786.786v12a.786.786,0,0,1-.786.786" fill="#6ca5ff"/>
          <path id="Path_36040" data-name="Path 36040" d="M1133.867,623.054h-17.346a74.179,74.179,0,0,0-67.649,43.725,37.859,37.859,0,0,0-3.248,15.566v86.393a33.483,33.483,0,0,0,10.331,24.208l2.85,224.1a1.719,1.719,0,0,1,1.1-.421h54.269l6.361-205.676h13.546Z" fill="#fbc640"/>
          <path id="Path_36041" data-name="Path 36041" d="M1210.106,1030.2H1152.6a.785.785,0,0,1-.786-.786v-12a.785.785,0,0,1,.786-.786h57.51a.785.785,0,0,1,.785.786v12a.785.785,0,0,1-.785.786" fill="#6ca5ff"/>
          <path id="Path_36042" data-name="Path 36042" d="M1214.08,659.787a74.12,74.12,0,0,0-64.031-36.732h-16.713l.214,187.9H1147.1l6.362,205.7c.034,0,.063-.02.1-.02h55.277l2.846-223.679a33.486,33.486,0,0,0,10.33-24.208V690.426a60.527,60.527,0,0,0-7.928-30.639" fill="#fbb040"/>
          <path id="Path_36043" data-name="Path 36043" d="M1170.291,649.1l23.476-149.2a10.656,10.656,0,0,0-8.4-12.509l-2.035-.4a10.655,10.655,0,0,0-12.509,8.4l-23.476,149.2a4.321,4.321,0,0,0,3.407,5.073l14.466,2.841a4.32,4.32,0,0,0,5.072-3.406" fill="#316cc9"/>
          <path id="Path_36044" data-name="Path 36044" d="M1093.557,651.924l-15.769-151.467a10.654,10.654,0,0,1,8.4-12.509l2.034-.4a10.655,10.655,0,0,1,12.509,8.4l15.77,151.467a4.321,4.321,0,0,1-3.407,5.073l-14.466,2.841a4.32,4.32,0,0,1-5.072-3.406" fill="#3e89ff"/>
          <path id="Path_36045" data-name="Path 36045" d="M1128.581,238.476c1.723,0,3.4.032,5.072.071V304.3c-40.539,15.718-86.363,46.474-99.265,55.4a2.479,2.479,0,0,1-3.891-1.9c-1.284-22-1.352-119.359,98.084-119.321" fill="#414042"/>
          <path id="Path_36046" data-name="Path 36046" d="M1062.29,1030.2l1.583,56.71.112,20.533c-3.255,1.436-6.119,2.836-7.849,3.638-9.772,3.932-19.554,7.619-29.373,11.407-6.283,2.423-12.536,5.793-16.665,11.482a26.009,26.009,0,0,0-4.522,18.527c8.172.15,16.356.017,24.53.017h71.1a5.255,5.255,0,0,0,5.023-5.46l4.253-116.855Z" fill="#7aaeff"/>
          <path id="Path_36047" data-name="Path 36047" d="M1252.686,1130.255c-4.23-3.778-9.426-5.939-14.523-8.038-11.956-4.4-23.874-9.572-35.454-15.025l.141-21.26,1.967-55.735h-47.828l3.527,116.824a5.3,5.3,0,0,0,5.023,5.545h94.534c0-8.608-.875-16.5-7.387-22.312" fill="#7aaeff"/>
        </g>
      </g>
    </g>
  </g>
</svg>
