<svg xmlns="http://www.w3.org/2000/svg" xmlns:xlink="http://www.w3.org/1999/xlink" width="1920" height="1080" viewBox="0 0 1920 1080">
  <defs>
    <clipPath id="clip-path">
      <rect id="Rectangle_1603" data-name="Rectangle 1603" width="2081.572" height="1769.868" transform="translate(0 0.002)" fill="none"/>
    </clipPath>
    <clipPath id="clip-Principle_10">
      <rect width="1920" height="1080"/>
    </clipPath>
  </defs>
  <g id="Principle_10" data-name="Principle 10" clip-path="url(#clip-Principle_10)">
    <rect width="1920" height="1080" fill="#fff"/>
    <g id="Background" transform="translate(-129 -104.002)">
      <rect id="Rectangle_1598" data-name="Rectangle 1598" width="1973.283" height="975.596" transform="translate(108.288 320.502)" fill="#495760"/>
      <rect id="Rectangle_1599" data-name="Rectangle 1599" width="1965.994" height="682.418" transform="translate(115.577 0.002)" fill="#6a7a7f"/>
      <g id="Group_564" data-name="Group 564">
        <g id="Group_563" data-name="Group 563" clip-path="url(#clip-path)">
          <path id="Path_21334" data-name="Path 21334" d="M1140.69,542.329c.691-10.534,2.719-20.8,4.709-31.126.161.044.351.355.515.482a38.241,38.241,0,0,1,5.273,5.107,62.444,62.444,0,0,1,14.838,34.592l1.052,9.948-20.78,17.84Z" fill="#316cc9"/>
          <path id="Path_21335" data-name="Path 21335" d="M1058.866,454.918c4.761,19.577,19.067,34.666,36.9,38.456v7.95c-1.129.122-2.259.276-3.389.444,0,0,3.292,11.48,12.18,11.643,5.551.1,9.929-6.554,12.434-11.566a17.285,17.285,0,0,0-3.642-.573v-7.9c17.831-3.79,32.137-18.879,36.9-38.456,5.279-1.766,9.791-8.462,9.791-13.893,0-5.013-3.847-7.421-8.59-8.2q.127.992.223,2c-2.566-26.894-22.677-47.833-47.114-47.833-23.828,0-43.543,19.911-46.89,45.837-4.744.781-8.591,3.189-8.591,8.2,0,5.431,4.512,12.127,9.792,13.893" fill="#f5d4b5"/>
          <path id="Path_21336" data-name="Path 21336" d="M1145.4,540.551V511.2a61.191,61.191,0,0,0-15.242-6.41c-.89-.258-8.784-2.07-13.431-3-2.513,6.969-7.023,11.618-12.171,11.618s-9.67-4.66-12.181-11.644c-2.386.355-4.774.8-7.166,1.362a70.218,70.218,0,0,0-15.254,4.746,43.453,43.453,0,0,0-6.256,3.356v29.925l-1.8,84.261v10.114c0,.338.032.668.053,1h85.217c.02-.332.046-.663.046-1V625.417Z" fill="#b8bcbf"/>
          <path id="Path_21337" data-name="Path 21337" d="M1105.176,636.531h41.991c.02-.332.045-.663.045-1V625.416l-1.813-84.865V511.2a61.167,61.167,0,0,0-15.243-6.41c-.89-.258-8.783-2.07-13.43-3-2.41,6.683-6.665,11.186-11.55,11.548Z" fill="#999da0"/>
          <path id="Path_21338" data-name="Path 21338" d="M1203.555,592.47l-61.907,22.384,8.588-53.522,61.241-20.081Z" fill="#59575c"/>
          <path id="Path_21339" data-name="Path 21339" d="M1146.3,583.59l-40.4,13.381,33.911,14.235Z" fill="#56585b"/>
          <path id="Path_21340" data-name="Path 21340" d="M1139.338,614.086l10.219-52.754h.679l-8.588,53.522Z" fill="#403f42"/>
          <path id="Path_21341" data-name="Path 21341" d="M1141.648,611.472l61.924-21.46-.017,2.458-61.907,22.384Z" fill="#403f42"/>
          <path id="Path_21342" data-name="Path 21342" d="M1139.338,611.009,1105.9,596.971v3.576l33.441,13.539,2.31-2.614Z" fill="#403f42"/>
          <path id="Path_21343" data-name="Path 21343" d="M1140.712,605.649l-20.314-8.678,23.109-8.492Z" fill="#999da0"/>
          <path id="Path_21344" data-name="Path 21344" d="M1186.4,574.215c1.183,2.926-1.18,6.642-5.278,8.3s-8.381.629-9.564-2.3,1.18-6.642,5.279-8.3,8.38-.629,9.563,2.3" fill="#999da0"/>
          <path id="Path_21345" data-name="Path 21345" d="M1166.075,606.014c-.885-1.721-1.211-12.222,4.249-15.1,3.9-2.058,10.481-2.012,12.4,2.631.572,1.383.435,4.5.374,7.062a8.752,8.752,0,0,1-6.947,8.383,41.992,41.992,0,0,1-17.073-.444Z" fill="#e8a967"/>
          <path id="Path_21346" data-name="Path 21346" d="M1104.55,512.774c-5.154,0-9.665-4.023-12.176-11.006V636.532h24.352V501.793c-3.363,6.581-7.028,10.981-12.176,10.981" fill="#3e89ff"/>
          <path id="Path_21347" data-name="Path 21347" d="M1061.95,636.531a16.147,16.147,0,0,0,4.93,10.674l.789,147.807H1095l3.02-139.126h14.133l2.167,139.126H1140l3.311-148.954a16.129,16.129,0,0,0,3.853-9.527Z" fill="#413f42"/>
          <path id="Path_21348" data-name="Path 21348" d="M1116.792,795.012l.588,17.653a2.43,2.43,0,0,0,2.431,2.43h45.741c0-3.773-.423-7.23-3.574-9.779a24.512,24.512,0,0,0-7.027-3.523c-5.785-1.929-11.552-4.2-17.155-6.585l0-.2Z" fill="#18171a"/>
          <path id="Path_21349" data-name="Path 21349" d="M1151.445,432.823q.128.993.224,2c-2.519-26.4-21.946-47.045-45.772-47.8V513.289c4.913-.874,8.792-6.843,11.091-11.443a17.124,17.124,0,0,0-3.642-.573v-7.9c17.831-3.79,32.137-18.879,36.9-38.456,5.279-1.765,9.792-8.462,9.792-13.892,0-5.013-3.847-7.422-8.591-8.2" fill="#e8a967"/>
          <path id="Path_21350" data-name="Path 21350" d="M1054.891,815.095h34.4a2.431,2.431,0,0,0,2.43-2.43l.709-17.653h-21.149v.019c-1.575.639-2.961,1.262-3.8,1.619-4.728,1.75-9.462,3.392-14.213,5.078-3.04,1.079-6.065,2.579-8.063,5.112a10.873,10.873,0,0,0-2.188,8.247c3.954.067,7.914.008,11.87.008" fill="#282729"/>
          <path id="Path_21351" data-name="Path 21351" d="M1105.9,512.657V636.531h10.829V501.793c-3.061,5.99-6.376,10.162-10.829,10.864" fill="#316cc9"/>
          <path id="Path_21352" data-name="Path 21352" d="M1111.061,591.318a60.69,60.69,0,0,0-5.5,5.989c-.174.234-.19.347-.26.353-1.036.08-2.037.684-3.033.521-29.312-4.822-43.45-20.147-37.642-50.28,1.972-12.745,1.841-25.059,1.523-38.141-10.968,6.411-14.508,11.391-17.251,22.17-11.126,43.737,2.351,78.965,52.211,80.327a47.544,47.544,0,0,0,5.231,0c1.994,1.1,3.469,1.988,5.921,2.035s5.571.7,8.092.354c4.288-.589,8.141-2.712,8.762-7.256.749-5.476-2.637-8.786-7.494-10.579-2.413-.892-5.238-.488-7.709-1.147a25.426,25.426,0,0,1,3.254-1.031,4.459,4.459,0,0,0,2.834-1.638,1.884,1.884,0,0,0,.271-1.5c-.137-.488-.129-.973-.608-1.284-1.3-.845-1.108-1.217-3.15-.906-1.461.224-3.852.462-5.449,2.016" fill="#f5d4b5"/>
          <path id="Path_21353" data-name="Path 21353" d="M1152.491,425.845a29.323,29.323,0,0,0-1.378-15.383c-21.574-59.271-75.59-20.526-75.59-20.526l0,0c-20.759,1.889-22.765,12.428-22.765,31.494,0,5.363,1.5,7.464,4.19,7.618.448.959.779,1.58.862,1.7,0,.038.012.082.016.119l.017-.069.006.009,0-.025c.162-.661.3-1.249.434-1.8,8.507-1.166,18.447-31.736,30.2-16.321,12.994,17.04,55.446,18.778,62.132,16.131.147.762.294,1.545.443,2.368a32.854,32.854,0,0,0,.756-3.2,5.476,5.476,0,0,0,.672-2.117" fill="#413f42"/>
          <path id="Path_21354" data-name="Path 21354" d="M1154.378,428.922l-.988-1.312a1.126,1.126,0,0,0-1.576-.222L1138.2,437.65a15.7,15.7,0,0,0-29.577,6.269h-8.778a15.693,15.693,0,0,0-29.658-6.1l-11.617-7.448a1.559,1.559,0,0,0-2.152.471l-.419.655a1.556,1.556,0,0,0,.47,2.151l12.365,7.928a15.106,15.106,0,0,0,.292,7.761,15.93,15.93,0,0,0,14.626,11.314,15.733,15.733,0,0,0,15.868-12.834h9.227a15.733,15.733,0,0,0,15.6,12.838,15.984,15.984,0,0,0,14.821-11.158,14.838,14.838,0,0,0,.332-8.027l14.556-10.968a1.126,1.126,0,0,0,.221-1.576m-70.2,27.837A11.824,11.824,0,1,1,1096,444.935a11.837,11.837,0,0,1-11.823,11.824m40.108,0a11.824,11.824,0,1,1,11.823-11.824,11.837,11.837,0,0,1-11.823,11.824" fill="#413f42"/>
          <rect id="Rectangle_1600" data-name="Rectangle 1600" width="17.876" height="5.136" transform="translate(1123.772 543.488)" fill="#6e6f73"/>
          <rect id="Rectangle_1601" data-name="Rectangle 1601" width="17.876" height="5.136" transform="translate(1070.476 543.488)" fill="#999da0"/>
          <path id="Path_21355" data-name="Path 21355" d="M1066.927,548.571c.7-14.4-.464-25.729-.782-38.811-10.968,6.411-14.508,11.391-17.25,22.17-4.285,16.844-4.9,32.414-1.216,45.286h19.248c-1.25-9.325-.026-15.734,0-28.645" fill="#3e89ff"/>
          <path id="Path_21356" data-name="Path 21356" d="M1105.9,655.887h6.259l2.166,139.125H1140l3.311-148.953a16.132,16.132,0,0,0,3.853-9.527H1105.9Z" fill="#282729"/>
          <path id="Path_21357" data-name="Path 21357" d="M1105.9,377.889v46.093c17.428,6.358,40,6.686,44.723,4.815.147.763.294,1.545.444,2.368,0,0,.382-1.242.756-3.2a5.493,5.493,0,0,0,.671-2.118,29.333,29.333,0,0,0-1.377-15.383c-10.64-29.229-29.167-34.616-45.217-32.573" fill="#282729"/>
          <path id="Path_21358" data-name="Path 21358" d="M1153.39,427.61a1.126,1.126,0,0,0-1.576-.222L1138.2,437.65a15.7,15.7,0,0,0-29.577,6.269H1105.9v3.894h2.946a15.733,15.733,0,0,0,15.6,12.838,15.984,15.984,0,0,0,14.821-11.158,14.838,14.838,0,0,0,.332-8.027l14.556-10.968a1.127,1.127,0,0,0,.222-1.576Zm-29.106,29.149a11.824,11.824,0,1,1,11.823-11.824,11.837,11.837,0,0,1-11.823,11.824" fill="#282729"/>
          <path id="Path_21359" data-name="Path 21359" d="M138.334,1236.6,36.808,1302.518a1.285,1.285,0,0,1-1.777-.378L.207,1248.5a1.285,1.285,0,0,1,.378-1.777l101.527-65.913a1.284,1.284,0,0,1,1.776.378l34.824,53.639a1.285,1.285,0,0,1-.378,1.777" fill="#238715"/>
          <path id="Path_21360" data-name="Path 21360" d="M36.137,1297.492l-31.291-48.2a.655.655,0,0,1,.193-.907l97.12-63.053a.657.657,0,0,1,.908.193l31.291,48.2a.657.657,0,0,1-.193.909l-97.12,63.052a.657.657,0,0,1-.908-.193" fill="#32a022"/>
          <path id="Path_21361" data-name="Path 21361" d="M88.133,1230.99c7.643,13.238,4.424,29.4-7.189,36.109s-27.224,1.409-34.867-11.828-4.424-29.405,7.19-36.109,27.223-1.41,34.866,11.828" fill="#3ec829"/>
          <path id="Path_21362" data-name="Path 21362" d="M142.249,1235.255,46.834,1309.74a1.285,1.285,0,0,1-1.8-.222L5.678,1259.107a1.285,1.285,0,0,1,.222-1.8l95.416-74.484a1.284,1.284,0,0,1,1.8.222l39.352,50.41a1.284,1.284,0,0,1-.222,1.8" fill="#238715"/>
          <path id="Path_21363" data-name="Path 21363" d="M45.729,1304.792l-35.361-45.3a.657.657,0,0,1,.114-.922l91.274-71.252a.657.657,0,0,1,.921.113l35.361,45.3a.657.657,0,0,1-.114.922L46.65,1304.905a.656.656,0,0,1-.921-.113" fill="#32a022"/>
          <path id="Path_21364" data-name="Path 21364" d="M91.75,1234.023c8.764,12.524,6.962,28.909-4.025,36.6s-27,3.77-35.762-8.754-6.962-28.909,4.025-36.6,27-3.769,35.762,8.754" fill="#3ec829"/>
          <path id="Path_21365" data-name="Path 21365" d="M148.616,1233.621l-85.588,85.6a1.285,1.285,0,0,1-1.816,0L15.988,1274a1.285,1.285,0,0,1,0-1.816l85.588-85.6a1.286,1.286,0,0,1,1.817,0l45.223,45.219a1.284,1.284,0,0,1,0,1.816" fill="#238715"/>
          <path id="Path_21366" data-name="Path 21366" d="M61.326,1314.441,20.69,1273.81a.657.657,0,0,1,0-.928L102.564,1191a.656.656,0,0,1,.928,0l40.636,40.631a.658.658,0,0,1,0,.929l-81.874,81.881a.655.655,0,0,1-.928,0" fill="#32a022"/>
          <path id="Path_21367" data-name="Path 21367" d="M98.346,1238.575c10.23,11.357,10.446,27.84.482,36.815s-26.334,7.043-36.564-4.314-10.446-27.84-.482-36.815,26.334-7.043,36.564,4.314" fill="#3ec829"/>
          <path id="Path_21368" data-name="Path 21368" d="M139.014,1128.127v34.107a54.453,54.453,0,0,0,16.8,39.365L161.3,1634.29a14.864,14.864,0,0,1,8.9-2.985H239.55a14.945,14.945,0,0,1,13.5,8.591l7.781-409.021h47.658l7.689,404.2a14.859,14.859,0,0,1,9.849-3.773h69.355a14.944,14.944,0,0,1,12.59,6.91l5.585-440.481a54.392,54.392,0,0,0,13.149-35.5v-34.107Z" fill="#393d42"/>
          <path id="Path_21369" data-name="Path 21369" d="M241.915,1727.915h-53.8l-3.025-8.311c-3.958-10.874-15.311-16.217-25.359-11.933l-56.549,20.936c-15.121,3.91-26.01,18.07-26.01,34.413v6.85H247.256v-36.615a5.34,5.34,0,0,0-5.341-5.34" fill="#393d42"/>
          <path id="Path_21370" data-name="Path 21370" d="M185.088,1719.6l3.025,8.311h50.795v-47.806H170.837v26.534a20,20,0,0,1,14.251,12.961" fill="#b36327"/>
          <path id="Path_21371" data-name="Path 21371" d="M462.541,1728.607h0l-56.549-20.936c-10.048-4.284-21.4,1.059-25.359,11.933l-3.025,8.311H323.8a5.34,5.34,0,0,0-5.34,5.34v36.615H488.551v-6.85c0-16.343-10.888-30.5-26.01-34.413" fill="#393d42"/>
          <path id="Path_21372" data-name="Path 21372" d="M462.541,1728.607h0l-56.549-20.936c-10.048-4.284-21.4,1.059-25.359,11.933l-3.025,8.311H323.8a5.34,5.34,0,0,0-5.34,5.34v36.615H488.551v-6.85c0-16.343-10.888-30.5-26.01-34.413" fill="#1d2124"/>
          <path id="Path_21373" data-name="Path 21373" d="M86.4,1150.839l-26.181,3.382a18.262,18.262,0,0,0-29.952,3.868l-2.29.3a2.569,2.569,0,0,0-2.219,2.877l2.011,15.568a2.568,2.568,0,0,0,2.876,2.219l2.5-.323a18.232,18.232,0,0,0,29.528-3.813l23.834-3.078a2.571,2.571,0,0,0,2.238-2.46l.548-15.9a2.569,2.569,0,0,0-2.9-2.636" fill="#393d42"/>
          <path id="Path_21374" data-name="Path 21374" d="M44.225,1148.229a18.24,18.24,0,0,1,16,5.992l18.941-2.447c.125-2.6.244-5.206.372-7.807H31.8c-.057,3.942-.086,7.884-.118,11.827a18.19,18.19,0,0,1,12.539-7.565" fill="#b36327"/>
          <path id="Path_21375" data-name="Path 21375" d="M105.216,1206.8c-.337-1.3-3.418-12.911-7.757-20.142-2.657-4.428-8.32-10.355-12.664-14.6l-22.113,2.856a18.233,18.233,0,0,1-29.529,3.814l-2.5.323a2.55,2.55,0,0,1-.925-.066,28.228,28.228,0,0,0-4.952,15.965v27.828a28.469,28.469,0,0,0,28.47,28.47h1.712a28.469,28.469,0,0,0,28.47-28.47v-27.6c2.631,4.428,5.154,12.858,5.9,15.751a8.206,8.206,0,0,0,15.885-4.125" fill="#b36327"/>
          <path id="Path_21376" data-name="Path 21376" d="M405.634,1680.11H315.779a4.733,4.733,0,0,1-4.734-4.734v-39.337a4.733,4.733,0,0,1,4.734-4.734h89.855a4.734,4.734,0,0,1,4.734,4.734v39.337a4.734,4.734,0,0,1-4.734,4.734" fill="#393d42"/>
          <path id="Path_21377" data-name="Path 21377" d="M282.194,732.672v-.009c-12.131-6.557-20.613-13.314-27.1-23.132l0,0c6.494,9.823,14.969,16.583,27.109,23.139" fill="#dbdcdf"/>
          <path id="Path_21378" data-name="Path 21378" d="M232.563,760.07v368.056h49.631V737.7a172.223,172.223,0,0,0-49.631,22.369" fill="#f6f6f7"/>
          <path id="Path_21379" data-name="Path 21379" d="M408.787,1680.11H312.625a1.58,1.58,0,0,1-1.58-1.581v-45.644a1.58,1.58,0,0,1,1.58-1.58h96.162a1.581,1.581,0,0,1,1.581,1.58v45.644a1.581,1.581,0,0,1-1.581,1.581" fill="#1d2124"/>
          <path id="Path_21380" data-name="Path 21380" d="M464.776,508.047c0,17.652-14.667,39.418-31.828,45.157-15.474,63.634-61.976,112.683-119.935,125v25.84c6.821.74,13.651,1.82,20.485,3.072-12.685,18.456-30.517,30.585-49.7,30.585-19.026,0-36.26-11.869-48.9-30.054,11.252-2.41,20.962-4.313,20.962-3.769V678.205c-57.958-12.319-104.46-61.367-119.935-125C118.762,547.465,104.1,525.7,104.1,508.047c0-16.295,12.5-24.124,27.924-26.663q-.415,3.225-.727,6.489C139.634,400.455,205,332.394,284.436,332.394c77.455,0,141.538,64.717,152.416,148.99,15.42,2.539,27.924,10.368,27.924,26.663" fill="#b36327"/>
          <path id="Path_21381" data-name="Path 21381" d="M436.851,481.384c-10.877-84.273-74.961-148.99-152.416-148.99V737.652c18.938-.267,36.519-12.285,49.063-30.535-6.835-1.252-13.665-2.332-20.485-3.072v-25.84c57.958-12.318,104.46-61.367,119.935-125,17.161-5.739,31.827-27.505,31.827-45.157,0-16.295-12.5-24.125-27.924-26.663" fill="#9a4605"/>
          <path id="Path_21382" data-name="Path 21382" d="M255.477,1680.11H159.315a1.581,1.581,0,0,1-1.58-1.581v-45.644a1.581,1.581,0,0,1,1.58-1.58h96.162a1.581,1.581,0,0,1,1.581,1.58v45.644a1.581,1.581,0,0,1-1.581,1.581" fill="#1d2124"/>
          <path id="Path_21383" data-name="Path 21383" d="M377.608,1727.915l3.025-8.311a20.022,20.022,0,0,1,14.108-12.934v-26.56h-68.07v47.805Z" fill="#b36327"/>
          <path id="Path_21384" data-name="Path 21384" d="M377.608,1727.915l3.025-8.311a20.022,20.022,0,0,1,14.108-12.934v-26.56h-68.07v47.805Z" fill="#9a4605"/>
          <path id="Path_21385" data-name="Path 21385" d="M282.194,1128.127v102.748h26.3l7.689,404.2a14.864,14.864,0,0,1,9.85-3.773h69.354a14.944,14.944,0,0,1,12.59,6.909l5.586-440.48a54.4,54.4,0,0,0,13.148-35.5v-34.107Z" fill="#1d2124"/>
          <path id="Path_21386" data-name="Path 21386" d="M347.257,768.814c-19.644-14.519-40.8-25.842-64.385-32.043a1.279,1.279,0,0,1-.655-1.269h-.023v392.625h55.981Z" fill="#dbdcdf"/>
          <path id="Path_21387" data-name="Path 21387" d="M544.543,1214.23H482.129c-4.892,0-8.859,6.137-8.859,13.707v31.033h9.213v-23.9c0-5.829,3.055-10.555,6.822-10.555h48.062c3.768,0,6.822,4.726,6.822,10.555v23.9H553.4v-31.033c0-7.57-3.967-13.707-8.859-13.707" fill="#393d42"/>
          <path id="Path_21388" data-name="Path 21388" d="M535.287,1177.595c.071-5.07.12-10.149.12-15.248,0-.981-.027-1.961-.029-2.942a3.41,3.41,0,0,1-1.3.263H488.15q.127,4.009.229,8.011c-.183.139-.38.249-.554.406-1.409,1.266-13.884,12.59-18.243,19.857-4.339,7.231-7.42,18.844-7.757,20.142a8.206,8.206,0,0,0,15.885,4.125c.752-2.893,3.274-11.322,5.9-15.751v27.6a28.47,28.47,0,0,0,28.47,28.469H513.8a28.469,28.469,0,0,0,28.47-28.469v-27.828a28.328,28.328,0,0,0-6.98-18.636" fill="#b36327"/>
          <path id="Path_21389" data-name="Path 21389" d="M299.532,769.477H270.6l-7.4-35.733h44.369Z" fill="#3e89ff"/>
          <path id="Path_21390" data-name="Path 21390" d="M285.068,1025.622l-28.974-24.271L270.6,769.477h28.928l14.491,232.187Z" fill="#3e89ff"/>
          <path id="Path_21391" data-name="Path 21391" d="M285.393,769.477v255.877l28.63-23.69L299.532,769.477Z" fill="#316cc9"/>
          <path id="Path_21392" data-name="Path 21392" d="M285.393,769.477h14.139l8.046-35.733H285.393Z" fill="#316cc9"/>
          <path id="Path_21393" data-name="Path 21393" d="M535.287,1177.595c.071-5.07.12-10.149.12-15.248,0-.981-.027-1.961-.029-2.942a3.41,3.41,0,0,1-1.3.263H488.15q.127,4.009.229,8.011c-.183.139-.38.249-.554.406-1.409,1.266-13.884,12.59-18.243,19.857-4.339,7.231-7.42,18.844-7.757,20.142a8.206,8.206,0,0,0,15.885,4.125c.752-2.893,3.274-11.322,5.9-15.751v27.6a28.47,28.47,0,0,0,28.47,28.469H513.8a28.469,28.469,0,0,0,28.47-28.469v-27.828a28.328,28.328,0,0,0-6.98-18.636" fill="#9a4605"/>
          <path id="Path_21394" data-name="Path 21394" d="M147.326,740.795v-.022a149.3,149.3,0,0,0-59.1,72.941c-36.642,97.9-60.679,189.656-60.679,314.412,0,3.276-.246,8.74-.491,12.319a3.3,3.3,0,0,0,3.3,3.522H83.113a3.4,3.4,0,0,0,3.433-3.513c-1.2-28.982,22.593-202.2,56.789-291.969-2.605,95.38-11.227,239.388-13.262,272.627a6.615,6.615,0,0,0,6.626,7.015l145.475,2.117,2.261-245.109-51.873-172.5q-42.451,7.7-85.236,28.161" fill="#282729"/>
          <path id="Path_21395" data-name="Path 21395" d="M285.488,736.77c-28.346,7.035-54.608,21.291-78.639,43.262a1.335,1.335,0,0,1-1.976-1.263l4.9-69.965a1.335,1.335,0,0,1,1.149-1.229l38.9-5.369a1.331,1.331,0,0,1,1.359.722c7.474,14.635,17.6,22.969,34.236,31.482a1.336,1.336,0,0,1,.065,2.36" fill="#dbdcdf"/>
          <path id="Path_21396" data-name="Path 21396" d="M542.206,1149.789c0-124.757-22.031-236.894-58.673-334.79a149.307,149.307,0,0,0-60.349-73.71c-.013-.159-.025-.319-.038-.478q-41.731-20.47-83.8-28.141L284.231,885.136l-2.046,244.072,146.2.04a9.141,9.141,0,0,0,9.227-9.381c-.979-36.616-4.657-171.767-8.079-266.415,33.629,95.717,55.12,278.864,54.077,303.517a2.574,2.574,0,0,0,2.583,2.7h52.6a3.451,3.451,0,0,0,3.441-3.445c0-1.951-.03-2.974-.03-6.434" fill="#282729"/>
          <path id="Path_21397" data-name="Path 21397" d="M282.872,736.77c29.383,7.727,55.044,23.314,78.639,43.262a1.335,1.335,0,0,0,1.976-1.263l-4.9-69.965a1.335,1.335,0,0,0-1.149-1.229l-38.9-5.369a1.331,1.331,0,0,0-1.359.722c-7.474,14.635-17.6,22.969-34.236,31.482a1.336,1.336,0,0,0-.065,2.36" fill="#85abf3"/>
          <path id="Path_21398" data-name="Path 21398" d="M642.974,1455.125H383.7a4.006,4.006,0,0,1-4.007-4.007V1262.977a4.007,4.007,0,0,1,4.007-4.008H642.974a4.007,4.007,0,0,1,4.007,4.008v188.141a4.006,4.006,0,0,1-4.007,4.007" fill="#4b5057"/>
          <path id="Path_21399" data-name="Path 21399" d="M628.758,1446.621H397.915a18.222,18.222,0,0,1-18.223-18.223v8.505a18.223,18.223,0,0,0,18.223,18.223H628.758a18.223,18.223,0,0,0,18.223-18.223V1428.4a18.223,18.223,0,0,1-18.223,18.223" fill="#1d2124"/>
          <path id="Path_21400" data-name="Path 21400" d="M598.767,1258.97H576.98v-7.5a.718.718,0,0,1,.719-.718h20.349a.718.718,0,0,1,.719.718Z" fill="#697079"/>
          <path id="Path_21401" data-name="Path 21401" d="M449.692,1258.97H427.9v-7.5a.718.718,0,0,1,.719-.718h20.349a.718.718,0,0,1,.719.718Z" fill="#697079"/>
          <path id="Path_21402" data-name="Path 21402" d="M628.758,1258.97H513.336v187.651H628.758a18.223,18.223,0,0,0,18.223-18.223v-151.2a18.223,18.223,0,0,0-18.223-18.223" fill="#393d42"/>
          <path id="Path_21403" data-name="Path 21403" d="M300.07,314.554H269.713A137.627,137.627,0,0,0,132.086,452.181v29.113c14.372,3.5,25.1,5.838,28.141,31.317,6.756-33.078,7-48.106,5.64-78.551,63.883,46.641,143.172-50.337,244.825-14.247-2.421,38.476-2.438,61.917,1.672,98.157,4.137-27.387,10.781-39.016,25.333-36.676V452.181A137.627,137.627,0,0,0,300.07,314.554" fill="#282729"/>
          <rect id="Rectangle_1602" data-name="Rectangle 1602" width="81.884" height="14.47" transform="translate(163.634 849.272)" fill="#282729"/>
          <path id="Path_21404" data-name="Path 21404" d="M300.07,314.554H284.435V427.388c37.844-12.715,79.7-24.105,126.257-7.576-2.422,38.477-2.438,61.918,1.672,98.158,4.137-27.387,10.781-39.016,25.333-36.676V452.181A137.627,137.627,0,0,0,300.07,314.554" fill="#282729"/>
          <path id="Path_21405" data-name="Path 21405" d="M932.921,969.08c23.7-3.981,24.058-204.244-.992-216.359a59.607,59.607,0,0,0,8.058-6.75c14.486-14.486,19.1-33.355,10.314-42.145s-27.659-4.171-42.145,10.315a60.536,60.536,0,0,0-4.058,4.521,72.625,72.625,0,0,0-39.963-11.947H790.089a72.57,72.57,0,0,0-36.756,10c-.775-.87-1.577-1.731-2.42-2.573-14.486-14.486-33.355-19.1-42.144-10.315s-4.172,27.659,10.314,42.145c1.425,1.425,2.9,2.725,4.4,3.955-28.577,9.111-28.548,212.571-1.654,220.579-16.837,6.233-27.651,18.828-24.7,29.732,3.252,12,21.918,17.378,41.69,12.018a58.389,58.389,0,0,0,13.123-5.3,72.554,72.554,0,0,0,38.146,10.844h74.046a72.659,72.659,0,0,0,40.553-12.306,57.089,57.089,0,0,0,15.561,6.763c19.773,5.36,38.438-.02,41.691-12.018,3.2-11.812-9.746-25.618-29.019-31.157" fill="#e7ca9c"/>
          <path id="Path_21406" data-name="Path 21406" d="M932.921,969.08c23.7-3.981,24.058-204.244-.992-216.359a59.607,59.607,0,0,0,8.058-6.75c14.486-14.486,19.1-33.355,10.314-42.144s-27.659-4.172-42.145,10.314a60.536,60.536,0,0,0-4.058,4.521c-1.747-1.145-3.56-2.192-5.405-3.188C877.5,811.154,805.084,881.65,718.966,881.65a156.551,156.551,0,0,1-16.857-.959c1.355,45.567,7.975,86.318,19.716,89.814-16.837,6.233-27.651,18.828-24.7,29.732,3.252,12,21.918,17.379,41.69,12.018a58.389,58.389,0,0,0,13.123-5.3,72.554,72.554,0,0,0,38.146,10.844h74.046a72.659,72.659,0,0,0,40.553-12.306,57.089,57.089,0,0,0,15.561,6.763c19.773,5.361,38.438-.02,41.691-12.018,3.2-11.812-9.746-25.618-29.019-31.157" fill="#deb57c"/>
          <path id="Path_21407" data-name="Path 21407" d="M961.935,1000.234c-3.246,12-21.911,17.381-41.685,12.019a57.229,57.229,0,0,1-15.564-6.757,72.651,72.651,0,0,1-40.554,12.307H790.089a72.552,72.552,0,0,1-38.15-10.845,58.327,58.327,0,0,1-13.116,5.295c-19.774,5.362-38.439-.022-41.7-12.019-2.958-10.9,7.865-23.495,24.7-29.732-11.742-3.489-18.367-44.243-19.718-89.806a154.621,154.621,0,0,0,64.371-6.436h.011c1.019-.321,2.028-.653,3.036-.985a166.392,166.392,0,0,0,17.624-7.156c1.274-.61,2.548-1.241,3.811-1.884q6.48-3.273,12.694-7.111,2.61-1.613,5.174-3.324a190.261,190.261,0,0,0,32.28-27.239l.011-.011q4.9-5.152,9.482-10.69c22.709-27.406,39.558-61.857,48.087-100.385,1.839,1,3.656,2.038,5.406,3.19,1.263-1.539,2.592-3.057,4.055-4.519,14.489-14.489,33.354-19.109,42.15-10.324s4.165,27.66-10.314,42.15a60.2,60.2,0,0,1-8.064,6.746c25.057,12.119,24.692,212.378,1,216.366,19.275,5.539,32.224,19.341,29.012,31.15" fill="#deb57c"/>
          <path id="Path_21408" data-name="Path 21408" d="M919.475,858.585a89.94,89.94,0,1,1-89.94-89.94,89.941,89.941,0,0,1,89.94,89.94" fill="#fff"/>
          <path id="Path_21409" data-name="Path 21409" d="M829.535,948.525a89.932,89.932,0,0,0,44.872-167.874c-29.235,53.482-76.968,90.983-132.245,99.267a89.96,89.96,0,0,0,87.373,68.607" fill="#f2f2f2"/>
          <path id="Path_21410" data-name="Path 21410" d="M875.546,869.725a44.273,44.273,0,1,1-44.272-44.272,44.272,44.272,0,0,1,44.272,44.272" fill="#bc9178"/>
          <path id="Path_21411" data-name="Path 21411" d="M764.757,873.265l24.916,14.385,3.495-14.375-3.495-14.395Z" fill="#fcc36e"/>
          <path id="Path_21412" data-name="Path 21412" d="M816.829,860.861a7.119,7.119,0,1,1-7.119-7.119,7.119,7.119,0,0,1,7.119,7.119" fill="#4a494b"/>
          <path id="Path_21413" data-name="Path 21413" d="M797.909,840.686a44.146,44.146,0,0,1,66.471-.285,13.653,13.653,0,1,0-13.869-23.247c.019-.35.1-.682.1-1.039a19.341,19.341,0,0,0-38.682,0,19.144,19.144,0,0,0,.2,2,13.653,13.653,0,1,0-14.225,22.575" fill="#de605c"/>
          <path id="Path_21414" data-name="Path 21414" d="M789.673,887.651l3.495-14.375H764.774Z" fill="#f09c20"/>
          <path id="Path_21415" data-name="Path 21415" d="M806.012,896.321c0,11.034-5.75,16.906-12.844,16.906s-12.844-5.872-12.844-16.906,12.844-23.054,12.844-23.054,12.844,12.02,12.844,23.054" fill="#d42e28"/>
          <path id="Path_21416" data-name="Path 21416" d="M875.542,869.729a44.266,44.266,0,0,1-88.4,3.545c-.1-1.163-.144-2.349-.144-3.545,0-1.219.045-2.415.155-3.611,1.274-.61,2.548-1.241,3.811-1.883q6.48-3.273,12.695-7.112,2.609-1.613,5.173-3.323a190.182,190.182,0,0,0,32.28-27.24l.011-.011c.3.066.6.144.9.222.554.144,1.1.287,1.64.443,1.008.3,2.005.62,2.991,1,.5.188.986.376,1.462.576a44.234,44.234,0,0,1,27.428,40.942" fill="#a76e4d"/>
          <path id="Path_21417" data-name="Path 21417" d="M793.169,873.263v.011l-3.091,12.706-.409,1.673L784.2,884.5l-17.7-10.236h-.011l-1.706-.986h4.753a166.159,166.159,0,0,0,17.624-7.156c1.274-.609,2.548-1.24,3.811-1.883Z" fill="#fbb040"/>
          <path id="Path_21418" data-name="Path 21418" d="M816.831,860.856a7.123,7.123,0,0,1-14.246,0,6.934,6.934,0,0,1,1.075-3.733q2.609-1.613,5.173-3.324a7.62,7.62,0,0,1,.875-.055,7.122,7.122,0,0,1,7.123,7.112" fill="#282729"/>
          <path id="Path_21419" data-name="Path 21419" d="M872.573,827.889a13.665,13.665,0,0,1-8.153,12.484c-.011.011-.033.011-.044.023a44.687,44.687,0,0,0-16.262-11.61c-.476-.2-.964-.387-1.462-.576q-1.462-.548-2.991-1c-.543-.155-1.086-.3-1.64-.443-.3-.066-.6-.144-.908-.21l.011-.011q4.9-5.151,9.482-10.69a1.981,1.981,0,0,1,.011.255c0,.354-.088.687-.11,1.041a13.609,13.609,0,0,1,22.066,10.734" fill="#d42e28"/>
          <path id="Path_21420" data-name="Path 21420" d="M793.169,873.274l-3.091,12.706-.409,1.673-5.473-3.158-17.7-10.235h-.011l-1.706-.986h28.381c.011-.011.011,0,.011,0" fill="#f09c20"/>
          <path id="Path_21421" data-name="Path 21421" d="M806.012,896.321c0,11.034-5.75,16.906-12.844,16.906s-12.844-5.872-12.844-16.906,12.844-23.054,12.844-23.054,12.844,12.02,12.844,23.054" fill="#d42e28"/>
          <path id="Path_21422" data-name="Path 21422" d="M791.416,1074.654c23.7-3.98,24.058-204.243-.992-216.358a59.683,59.683,0,0,0,8.058-6.75c14.486-14.486,19.1-33.356,10.314-42.145s-27.659-4.172-42.145,10.315a60.536,60.536,0,0,0-4.058,4.521,72.618,72.618,0,0,0-39.963-11.948H648.584a72.562,72.562,0,0,0-36.756,10c-.775-.87-1.577-1.73-2.42-2.573-14.486-14.487-33.355-19.1-42.144-10.315s-4.172,27.659,10.314,42.145c1.425,1.425,2.9,2.725,4.4,3.954-28.577,9.112-28.548,212.572-1.654,220.58-16.837,6.233-27.651,18.828-24.7,29.732,3.252,12,21.918,17.378,41.69,12.018a58.44,58.44,0,0,0,13.123-5.3,72.562,72.562,0,0,0,38.146,10.843H722.63a72.666,72.666,0,0,0,40.553-12.3,57.121,57.121,0,0,0,15.561,6.763c19.773,5.36,38.438-.02,41.691-12.018,3.2-11.812-9.746-25.619-29.019-31.158" fill="#e7ca9c"/>
          <path id="Path_21423" data-name="Path 21423" d="M791.416,1074.654c23.7-3.98,24.058-204.243-.992-216.358a59.683,59.683,0,0,0,8.058-6.75c14.486-14.486,19.1-33.356,10.314-42.145s-27.659-4.172-42.145,10.315c-1.464,1.464-2.8,2.981-4.058,4.519-1.747-1.144-3.56-2.191-5.405-3.188C736,916.729,663.579,987.224,577.461,987.224a156.552,156.552,0,0,1-16.857-.958c1.355,45.567,7.975,86.317,19.716,89.814-16.837,6.233-27.651,18.828-24.7,29.732,3.252,12,21.918,17.378,41.69,12.018a58.44,58.44,0,0,0,13.123-5.3,72.562,72.562,0,0,0,38.146,10.843H722.63a72.666,72.666,0,0,0,40.553-12.3,57.121,57.121,0,0,0,15.561,6.763c19.773,5.36,38.438-.02,41.691-12.018,3.2-11.813-9.746-25.619-29.019-31.158" fill="#deb57c"/>
          <path id="Path_21424" data-name="Path 21424" d="M820.43,1105.808c-3.246,12-21.911,17.381-41.685,12.019a57.226,57.226,0,0,1-15.564-6.757,72.651,72.651,0,0,1-40.554,12.307H648.584a72.552,72.552,0,0,1-38.15-10.845,58.327,58.327,0,0,1-13.116,5.3c-19.774,5.362-38.439-.022-41.7-12.019-2.958-10.9,7.865-23.495,24.7-29.732-11.742-3.489-18.367-44.243-19.718-89.806a154.621,154.621,0,0,0,64.371-6.436h.011c1.019-.321,2.028-.653,3.036-.985a166.366,166.366,0,0,0,17.624-7.156c1.274-.61,2.548-1.241,3.811-1.884q6.48-3.273,12.694-7.111,2.61-1.613,5.174-3.324a190.217,190.217,0,0,0,32.28-27.239l.011-.011q4.9-5.152,9.482-10.69c22.709-27.406,39.558-61.857,48.087-100.385,1.839,1,3.656,2.038,5.406,3.19,1.263-1.539,2.592-3.057,4.055-4.519C781.138,805.231,800,800.611,808.8,809.4s4.165,27.661-10.314,42.15a60.194,60.194,0,0,1-8.064,6.746c25.057,12.119,24.692,212.378,1,216.366,19.275,5.539,32.224,19.341,29.012,31.15" fill="#deb57c"/>
          <path id="Path_21425" data-name="Path 21425" d="M777.97,964.159a89.94,89.94,0,1,1-89.94-89.94,89.941,89.941,0,0,1,89.94,89.94" fill="#fff"/>
          <path id="Path_21426" data-name="Path 21426" d="M688.03,1054.1A89.932,89.932,0,0,0,732.9,886.225c-29.235,53.482-76.968,90.983-132.245,99.267A89.96,89.96,0,0,0,688.03,1054.1" fill="#f2f2f2"/>
          <path id="Path_21427" data-name="Path 21427" d="M734.041,975.3a44.273,44.273,0,1,1-44.272-44.272A44.272,44.272,0,0,1,734.041,975.3" fill="#bc9178"/>
          <path id="Path_21428" data-name="Path 21428" d="M623.252,978.839l24.916,14.385,3.495-14.375-3.495-14.395Z" fill="#fcc36e"/>
          <path id="Path_21429" data-name="Path 21429" d="M675.324,966.436a7.119,7.119,0,1,1-7.119-7.119,7.119,7.119,0,0,1,7.119,7.119" fill="#4a494b"/>
          <path id="Path_21430" data-name="Path 21430" d="M656.4,946.261a44.146,44.146,0,0,1,66.471-.285,13.653,13.653,0,1,0-13.869-23.247c.019-.35.1-.682.1-1.039a19.341,19.341,0,0,0-38.682,0,19.125,19.125,0,0,0,.2,2A13.653,13.653,0,1,0,656.4,946.261" fill="#de605c"/>
          <path id="Path_21431" data-name="Path 21431" d="M648.168,993.225l3.495-14.375H623.269Z" fill="#f09c20"/>
          <path id="Path_21432" data-name="Path 21432" d="M664.507,1001.9c0,11.035-5.75,16.906-12.844,16.906s-12.844-5.871-12.844-16.906,12.844-23.054,12.844-23.054,12.844,12.02,12.844,23.054" fill="#d42e28"/>
          <path id="Path_21433" data-name="Path 21433" d="M734.037,975.3a44.266,44.266,0,0,1-88.4,3.545c-.1-1.163-.144-2.349-.144-3.545,0-1.219.045-2.415.155-3.611,1.274-.61,2.548-1.241,3.811-1.883q6.48-3.273,12.7-7.112,2.608-1.613,5.173-3.323a190.182,190.182,0,0,0,32.28-27.24l.011-.011c.3.066.6.144.9.222.554.143,1.1.287,1.64.443,1.008.3,2.005.62,2.991,1,.5.189.986.377,1.462.576A44.237,44.237,0,0,1,734.037,975.3" fill="#a76e4d"/>
          <path id="Path_21434" data-name="Path 21434" d="M651.664,978.837v.011l-3.091,12.706-.409,1.673-5.473-3.157-17.7-10.236h-.011l-1.706-.986h4.753a166.172,166.172,0,0,0,17.624-7.156c1.274-.609,2.548-1.24,3.811-1.883Z" fill="#fbb040"/>
          <path id="Path_21435" data-name="Path 21435" d="M675.326,966.431a7.123,7.123,0,0,1-14.246,0,6.933,6.933,0,0,1,1.075-3.733q2.608-1.613,5.173-3.324a7.621,7.621,0,0,1,.875-.055,7.123,7.123,0,0,1,7.123,7.112" fill="#282729"/>
          <path id="Path_21436" data-name="Path 21436" d="M731.068,933.464a13.665,13.665,0,0,1-8.153,12.484c-.011.011-.033.011-.044.023a44.7,44.7,0,0,0-16.262-11.61c-.476-.2-.964-.387-1.462-.576q-1.462-.547-2.991-1c-.543-.155-1.086-.3-1.64-.443-.3-.066-.6-.144-.908-.21l.011-.011q4.9-5.151,9.482-10.69a1.98,1.98,0,0,1,.011.255c0,.354-.088.687-.11,1.041a13.609,13.609,0,0,1,22.066,10.734" fill="#d42e28"/>
          <path id="Path_21437" data-name="Path 21437" d="M651.664,978.849l-3.091,12.706-.409,1.673-5.473-3.158-17.7-10.235h-.011l-1.706-.986h28.381c.011-.011.011,0,.011,0" fill="#f09c20"/>
          <path id="Path_21438" data-name="Path 21438" d="M664.507,1001.9c0,11.035-5.75,16.906-12.844,16.906s-12.844-5.871-12.844-16.906,12.844-23.054,12.844-23.054,12.844,12.02,12.844,23.054" fill="#d42e28"/>
        </g>
      </g>
      <g id="Group_566" data-name="Group 566">
        <g id="Group_565" data-name="Group 565" clip-path="url(#clip-path)">
          <path id="Path_21439" data-name="Path 21439" d="M1026.219,914.413l5.911-17.137a7.234,7.234,0,0,0-4.48-9.2l-3.994-1.378a7.234,7.234,0,0,0-9.2,4.48l-5.911,17.137a7.235,7.235,0,0,0,4.48,9.2l3.994,1.377a7.234,7.234,0,0,0,9.2-4.48" fill="#ab7c61"/>
          <path id="Path_21440" data-name="Path 21440" d="M1034.366,912.9l18.1.958a7.235,7.235,0,0,0,7.607-6.842l.224-4.219a7.235,7.235,0,0,0-6.843-7.607l-18.1-.958a7.235,7.235,0,0,0-7.607,6.842l-.223,4.219a7.235,7.235,0,0,0,6.842,7.607" fill="#a36f51"/>
          <path id="Path_21441" data-name="Path 21441" d="M984.343,927.338l10.062-15.079a7.234,7.234,0,0,0-2-10.033l-3.515-2.345a7.234,7.234,0,0,0-10.033,2l-10.062,15.079a7.234,7.234,0,0,0,2,10.033l3.514,2.345a7.235,7.235,0,0,0,10.034-2" fill="#965b39"/>
          <path id="Path_21442" data-name="Path 21442" d="M1086.818,917.438l17.094-6.034a7.235,7.235,0,0,0,4.413-9.231l-1.406-3.984a7.235,7.235,0,0,0-9.231-4.414l-17.093,6.035a7.234,7.234,0,0,0-4.414,9.23l1.406,3.984a7.236,7.236,0,0,0,9.231,4.414" fill="#965b39"/>
          <path id="Path_21443" data-name="Path 21443" d="M1055.272,910.151l17.942-2.59a7.234,7.234,0,0,0,6.127-8.194l-.6-4.181a7.234,7.234,0,0,0-8.194-6.127l-17.942,2.589a7.236,7.236,0,0,0-6.127,8.194l.6,4.182a7.234,7.234,0,0,0,8.194,6.127" fill="#965b39"/>
          <path id="Path_21444" data-name="Path 21444" d="M1116.729,924.234l5.911-17.137a7.234,7.234,0,0,0-4.48-9.2l-3.994-1.378a7.234,7.234,0,0,0-9.2,4.48l-5.911,17.137a7.236,7.236,0,0,0,4.48,9.2l3.994,1.377a7.234,7.234,0,0,0,9.2-4.48" fill="#ab7c61"/>
          <path id="Path_21445" data-name="Path 21445" d="M1071.035,924.234l5.911-17.137a7.234,7.234,0,0,0-4.48-9.2l-3.994-1.378a7.234,7.234,0,0,0-9.2,4.48l-5.911,17.137a7.236,7.236,0,0,0,4.48,9.2l3.994,1.377a7.234,7.234,0,0,0,9.2-4.48" fill="#ab7c61"/>
          <path id="Path_21446" data-name="Path 21446" d="M952.595,927.3l5.911-17.137a7.234,7.234,0,0,0-4.48-9.2l-3.994-1.378a7.234,7.234,0,0,0-9.2,4.48l-5.911,17.137a7.235,7.235,0,0,0,4.48,9.2l3.994,1.377a7.234,7.234,0,0,0,9.2-4.48" fill="#ab7c61"/>
          <path id="Path_21447" data-name="Path 21447" d="M1018.23,904.114l-17.615-4.28a7.235,7.235,0,0,0-8.738,5.323l-1,4.105A7.235,7.235,0,0,0,996.2,918l17.616,4.28a7.235,7.235,0,0,0,8.738-5.322l1-4.106a7.234,7.234,0,0,0-5.322-8.738" fill="#ab7c61"/>
          <path id="Path_21448" data-name="Path 21448" d="M1078.04,923.124l14.226-11.233a7.236,7.236,0,0,0,1.2-10.162l-2.618-3.316a7.235,7.235,0,0,0-10.162-1.2l-14.228,11.234a7.233,7.233,0,0,0-1.194,10.161l2.619,3.316a7.234,7.234,0,0,0,10.161,1.2" fill="#a36f51"/>
          <path id="Path_21449" data-name="Path 21449" d="M1040.68,932.992l14.227-11.233a7.235,7.235,0,0,0,1.2-10.162l-2.618-3.316a7.234,7.234,0,0,0-10.161-1.2l-14.228,11.234a7.235,7.235,0,0,0-1.195,10.161l2.619,3.316a7.234,7.234,0,0,0,10.161,1.2" fill="#a36f51"/>
          <path id="Path_21450" data-name="Path 21450" d="M993.458,926.83l18.1.958a7.235,7.235,0,0,0,7.607-6.842l.224-4.219a7.235,7.235,0,0,0-6.843-7.607l-18.1-.958A7.235,7.235,0,0,0,986.839,915l-.223,4.219a7.235,7.235,0,0,0,6.842,7.607" fill="#a36f51"/>
          <path id="Path_21451" data-name="Path 21451" d="M1121.28,912.852,1135.573,924a7.234,7.234,0,0,0,10.154-1.254l2.6-3.331a7.235,7.235,0,0,0-1.254-10.155l-14.293-11.15a7.236,7.236,0,0,0-10.155,1.255l-2.6,3.331a7.234,7.234,0,0,0,1.254,10.154" fill="#965b39"/>
          <path id="Path_21452" data-name="Path 21452" d="M955.532,925.156l17.942-2.589a7.236,7.236,0,0,0,6.127-8.2l-.6-4.181a7.234,7.234,0,0,0-8.194-6.127l-17.941,2.589a7.236,7.236,0,0,0-6.128,8.194l.6,4.182a7.234,7.234,0,0,0,8.194,6.127" fill="#965b39"/>
          <path id="Path_21453" data-name="Path 21453" d="M1023.082,925.345l10.062-15.079a7.234,7.234,0,0,0-2-10.033l-3.515-2.345a7.233,7.233,0,0,0-10.033,2l-10.062,15.079a7.234,7.234,0,0,0,2,10.033l3.514,2.345a7.235,7.235,0,0,0,10.034-2" fill="#965b39"/>
          <path id="Path_21454" data-name="Path 21454" d="M1071.81,927.29l-9.934-15.163a7.235,7.235,0,0,0-10.017-2.087l-3.533,2.315a7.234,7.234,0,0,0-2.087,10.017l9.934,15.163a7.235,7.235,0,0,0,10.016,2.087l3.534-2.316a7.234,7.234,0,0,0,2.087-10.016" fill="#965b39"/>
          <path id="Path_21455" data-name="Path 21455" d="M1151.466,1210.983H931.081L923.212,983.9h236.124Z" fill="#d9d9d9"/>
          <rect id="Rectangle_1604" data-name="Rectangle 1604" width="243.995" height="13.23" transform="translate(919.276 970.672)" fill="#ededed"/>
          <rect id="Rectangle_1605" data-name="Rectangle 1605" width="243.995" height="13.23" transform="translate(919.276 936.844)" fill="#ededed"/>
          <rect id="Rectangle_1606" data-name="Rectangle 1606" width="236.124" height="20.598" transform="translate(923.212 950.074)" fill="#c7c7c7"/>
          <rect id="Rectangle_1607" data-name="Rectangle 1607" width="236.124" height="27.129" transform="translate(923.212 909.715)" fill="#c7c7c7"/>
          <path id="Path_21456" data-name="Path 21456" d="M1131.652,1097.442a90.378,90.378,0,1,1-90.378-90.378,90.378,90.378,0,0,1,90.378,90.378" fill="#fff"/>
          <path id="Path_21457" data-name="Path 21457" d="M977.356,1033.548a90.377,90.377,0,0,0,127.813,127.812Z" fill="#38aa4e"/>
          <path id="Path_21458" data-name="Path 21458" d="M1043.216,1174.621l.087-9.167a68.539,68.539,0,0,0,35.322-9.437l4.637,7.9a77.672,77.672,0,0,1-40.046,10.7m-27.314-5.177a77.866,77.866,0,0,1-33.338-24.633l7.214-5.661a68.671,68.671,0,0,0,29.406,21.734Zm-46.353-49.215a77.23,77.23,0,0,1-2.818-34.7q.493-3.411,1.269-6.706l8.924,2.091q-.68,2.912-1.12,5.927a68.1,68.1,0,0,0,2.486,30.617Z" fill="#c5e6cb"/>
          <path id="Path_21459" data-name="Path 21459" d="M959.649,1078.54l18.109-21.653,9.7,26.508Z" fill="#c5e6cb"/>
          <path id="Path_21460" data-name="Path 21460" d="M1089.3,1054.638s9.739,23.211-9.775,26.894c-10.248,1.934-14.376,8.777-14.376,8.777s-5.5-20.781,5.864-25.491c15.751-6.53,18.287-10.18,18.287-10.18" fill="#38aa4e"/>
          <path id="Path_21461" data-name="Path 21461" d="M1058.861,1088.265s-29.134,7.809-30.35-15.956c-.639-12.48-8.1-18.488-8.1-18.488s25.563-3.167,29.317,11.085c5.206,19.758,9.129,23.359,9.129,23.359" fill="#38aa4e"/>
          <path id="Path_21462" data-name="Path 21462" d="M1080.233,1069.138a15.964,15.964,0,0,0-8.261,5.793,27.53,27.53,0,0,0-4.585,9.227c-.971,3.328-1.7,6.8-2.355,10.219-.59,3.357-1.226,7.079-.917,10.131l.026.26a.793.793,0,1,1-1.578.159l0-.014c-.326-3.974.5-7.263,1.16-10.8.754-3.466,1.574-6.873,2.634-10.28a28.54,28.54,0,0,1,4.926-9.465,16.676,16.676,0,0,1,8.841-5.917.345.345,0,0,1,.162.671Z" fill="#61bc72"/>
          <path id="Path_21463" data-name="Path 21463" d="M1043.317,1072.876a13.479,13.479,0,0,0,3.834,7.177,30.392,30.392,0,0,0,6.574,5.21c2.307,1.5,5.2,2.434,7.266,4.748a13.57,13.57,0,0,1,3.371,8.188.8.8,0,0,1-1.6.144l0-.035a12.125,12.125,0,0,0-2.73-7.442c-1.693-2.114-4.42-3.125-6.853-4.725a31.4,31.4,0,0,1-6.667-5.508,14.094,14.094,0,0,1-3.886-7.753.344.344,0,0,1,.684-.077Z" fill="#61bc72"/>
          <path id="Path_21464" data-name="Path 21464" d="M991.62,1122.852s9.57-4.923,18.2-5.8a53.529,53.529,0,0,1,21.774,2.306c4.912,1.723,7.418,2.777,11.951,1.645s6.673-3.216,10.345-4.686,3.382.071,2.8,1.308-4.011,6.026-3.414,7.243,2.687,6.079,3.118,7.451-.7,1.23-2.75.359-10.193-5.381-14.685-3.644-9.02,4.39-13.106,5.267a65.911,65.911,0,0,1-21.655.132c-7.471-1.459-14.149-4.885-14.4-6.458s2.755-1.1,3.132-1.256-.378-1.239-.684-1.671-2.979-1.791-.628-2.2" fill="#fff"/>
          <path id="Path_21465" data-name="Path 21465" d="M1021.592,1117.172c.586-.39,1.067-.75.891-.778-.4-.061-.6-1.309-.6-1.309-1.159.133-1.141-1.26-1.141-1.26a1.326,1.326,0,0,1-.938-1.2,1.138,1.138,0,0,1-1.27-.788c-.979.038-1.029-1.148-1.029-1.148-.838,1.317-1.872.611-1.872.611l-.093-.061-1.029,1.7-1.294,2.019-.87,1.908a55.865,55.865,0,0,1,9.242.31" fill="#fff"/>
          <path id="Path_21466" data-name="Path 21466" d="M1052.665,1125.914l-49.505-3.1-.46,11.3c.495.115.995.223,1.5.321a65.885,65.885,0,0,0,21.655-.131c4.086-.877,8.615-3.531,13.107-5.268,3.846-1.486,10.371,1.606,13.452,3.073Z" fill="#fff"/>
          <path id="Path_21467" data-name="Path 21467" d="M1016.032,1135.937a4.205,4.205,0,0,0-.934-.669c-1.634.018-3.319-.015-4.984-.117.482,1.086,1.974,4.154,4,5.55,2.483,1.713,2.591,1.154,2.64,1s0-2.849-.046-3.772a3.53,3.53,0,0,0-.675-1.989" fill="#fff"/>
          <path id="Path_21468" data-name="Path 21468" d="M1038.961,1129.036c-3.2,1.235-6.409,2.934-9.468,4.128a14.644,14.644,0,0,1,3.866,2.235c1.839,1.531,4.543,3.3,4.858.7s-.977-3.082.689-6.21a1.425,1.425,0,0,0,.224-.919c-.057.02-.114.039-.169.061" fill="#fff"/>
          <path id="Path_21469" data-name="Path 21469" d="M1031.595,1119.36c1.17.411,2.2.783,3.16,1.1a8.661,8.661,0,0,0,1.816-.477c.353-.261.035-.872-1.512-3.044s-1.475-4.411-2.273-4.886-3.9,1.88-6.045,3.7a9.568,9.568,0,0,1-2.758,1.75,45.021,45.021,0,0,1,7.612,1.857" fill="#fff"/>
          <path id="Path_21470" data-name="Path 21470" d="M1056.4,1132.322c-.432-1.372-2.522-6.234-3.119-7.451s2.83-6.005,3.413-7.243.874-2.777-2.8-1.308c-3.494,1.4-5.6,3.351-9.7,4.513a5.636,5.636,0,0,1,2.339,4.407,5.1,5.1,0,0,1-2.238,3.772c3.9.884,7.986,3.087,9.352,3.669,2.047.871,3.182,1.013,2.752-.359" fill="#fff"/>
          <path id="Path_21471" data-name="Path 21471" d="M1008.2,1129.588a10.594,10.594,0,0,0,5.109,2.019c1.824.043,1.113-1.417,2.63-2.95s2.111-2.806.262-2.922-6.474,2.073-7.272,2.766-.93.921-.729,1.087" fill="#fff"/>
          <path id="Path_21472" data-name="Path 21472" d="M1011.176,1123.314l1.236.706.026-.627.025-.628Z" fill="#fff"/>
          <path id="Path_21473" data-name="Path 21473" d="M1006.128,1123l1.236.706.026-.627.025-.628Z" fill="#fff"/>
          <path id="Path_21474" data-name="Path 21474" d="M1009.914,1123.235l1.236.706.026-.627.025-.628Z" fill="#fff"/>
          <path id="Path_21475" data-name="Path 21475" d="M1007.39,1123.083l1.236.706.026-.627.025-.628Z" fill="#fff"/>
          <path id="Path_21476" data-name="Path 21476" d="M1008.652,1123.161l1.236.706.026-.632.025-.623Z" fill="#fff"/>
          <path id="Path_21477" data-name="Path 21477" d="M1012.438,1123.393l1.236.706.026-.627.025-.627Z" fill="#fff"/>
          <path id="Path_21478" data-name="Path 21478" d="M1017.485,1123.714l1.236.706.026-.627.025-.628Z" fill="#fff"/>
          <path id="Path_21479" data-name="Path 21479" d="M1016.223,1123.635l1.236.706.026-.627.025-.628Z" fill="#fff"/>
          <path id="Path_21480" data-name="Path 21480" d="M1014.961,1123.556l1.236.706.026-.627.025-.628Z" fill="#fff"/>
          <path id="Path_21481" data-name="Path 21481" d="M1018.747,1123.793l1.236.706.026-.632.025-.623Z" fill="#fff"/>
          <path id="Path_21482" data-name="Path 21482" d="M1013.7,1123.472l1.236.706.026-.622.025-.632Z" fill="#fff"/>
          <path id="Path_21483" data-name="Path 21483" d="M1032.6,1125.284l.051-1.255-1.287.549Z" fill="#fff"/>
          <path id="Path_21484" data-name="Path 21484" d="M1053.938,1126.314l-.009-.021.009.021" fill="#fff"/>
          <path id="Path_21485" data-name="Path 21485" d="M1053.824,1126.058l-.009-.019.009.019" fill="#fff"/>
          <path id="Path_21486" data-name="Path 21486" d="M1054.05,1126.568l.005.013-.005-.013" fill="#fff"/>
          <path id="Path_21487" data-name="Path 21487" d="M1053.713,1125.809v0" fill="#fff"/>
          <path id="Path_21488" data-name="Path 21488" d="M1004.866,1122.925l1.236.706.026-.627.025-.628Z" fill="#fff"/>
          <path id="Path_21489" data-name="Path 21489" d="M1002.343,1122.762l1.236.706.026-.627.025-.627Z" fill="#fff"/>
          <path id="Path_21490" data-name="Path 21490" d="M1003.6,1122.841l1.236.706.026-.622.025-.632Z" fill="#fff"/>
          <path id="Path_21491" data-name="Path 21491" d="M1001.081,1122.683l1.236.706.026-.627.025-.627Z" fill="#fff"/>
          <path id="Path_21492" data-name="Path 21492" d="M999.819,1122.6l1.236.706.026-.627.025-.628Z" fill="#fff"/>
          <path id="Path_21493" data-name="Path 21493" d="M1025.056,1124.188l1.236.706.026-.627.025-.628Z" fill="#fff"/>
          <path id="Path_21494" data-name="Path 21494" d="M1035.151,1124.82l1.236.706.026-.627.025-.628Z" fill="#fff"/>
          <path id="Path_21495" data-name="Path 21495" d="M1038.936,1125.057l1.236.706.026-.632.025-.623Z" fill="#fff"/>
          <path id="Path_21496" data-name="Path 21496" d="M1036.413,1124.9l1.236.706.026-.627.025-.628Z" fill="#fff"/>
          <path id="Path_21497" data-name="Path 21497" d="M1037.675,1124.978l1.236.706.026-.627.025-.628Z" fill="#fff"/>
          <path id="Path_21498" data-name="Path 21498" d="M1041.46,1125.21l1.236.706.026-.627.025-.628Z" fill="#fff"/>
          <path id="Path_21499" data-name="Path 21499" d="M1040.2,1125.131l1.236.706.026-.627.025-.628Z" fill="#fff"/>
          <path id="Path_21500" data-name="Path 21500" d="M1045.246,1125.452l.026-.632-1.288.548,1.237.706Z" fill="#fff"/>
          <path id="Path_21501" data-name="Path 21501" d="M1020.009,1123.867l1.236.706.026-.627.025-.628Z" fill="#fff"/>
          <path id="Path_21502" data-name="Path 21502" d="M1046.507,1125.534v0l.024-.594c0-.011,0-.021,0-.032l-1.284.547,1.152.658a4,4,0,0,0,.11-.576" fill="#fff"/>
          <line id="Line_128" data-name="Line 128" transform="translate(1046.508 1125.531)" fill="#fff"/>
          <path id="Path_21503" data-name="Path 21503" d="M1042.722,1125.289l1.236.706.026-.627.025-.628Z" fill="#fff"/>
          <path id="Path_21504" data-name="Path 21504" d="M1026.318,1124.267l1.236.706.026-.627.025-.628Z" fill="#fff"/>
          <path id="Path_21505" data-name="Path 21505" d="M1022.532,1124.025l1.236.706.026-.627.025-.628Z" fill="#fff"/>
          <path id="Path_21506" data-name="Path 21506" d="M1023.794,1124.1l1.236.706.026-.622.025-.632Z" fill="#fff"/>
          <path id="Path_21507" data-name="Path 21507" d="M1021.271,1123.946l1.236.706.026-.627.025-.628Z" fill="#fff"/>
          <path id="Path_21508" data-name="Path 21508" d="M1032.627,1124.657l1.236.706.026-.627.025-.628Z" fill="#fff"/>
          <path id="Path_21509" data-name="Path 21509" d="M1030.1,1124.5l1.236.706.026-.627.025-.628Z" fill="#fff"/>
          <path id="Path_21510" data-name="Path 21510" d="M1027.58,1124.346l1.236.706.026-.627.025-.628Z" fill="#fff"/>
          <path id="Path_21511" data-name="Path 21511" d="M1033.889,1124.736l1.236.706.026-.622.025-.633Z" fill="#fff"/>
          <path id="Path_21512" data-name="Path 21512" d="M1028.842,1124.425l1.236.706.026-.632.025-.623Z" fill="#fff"/>
          <path id="Path_21513" data-name="Path 21513" d="M1012.549,1120.663l1.236.706.026-.627.025-.628Z" fill="#fff"/>
          <path id="Path_21514" data-name="Path 21514" d="M1011.287,1120.584l1.236.706.026-.627.025-.628Z" fill="#fff"/>
          <path id="Path_21515" data-name="Path 21515" d="M1013.81,1120.742l1.236.706.026-.622.025-.633Z" fill="#fff"/>
          <path id="Path_21516" data-name="Path 21516" d="M1010.025,1120.505l1.236.706.026-.627.025-.628Z" fill="#fff"/>
          <path id="Path_21517" data-name="Path 21517" d="M1015.072,1120.826l1.236.706.026-.627.025-.627Z" fill="#fff"/>
          <path id="Path_21518" data-name="Path 21518" d="M1008.763,1120.431l1.236.706.026-.632.025-.623Z" fill="#fff"/>
          <path id="Path_21519" data-name="Path 21519" d="M1017.6,1120.984l1.236.706.026-.627.025-.628Z" fill="#fff"/>
          <path id="Path_21520" data-name="Path 21520" d="M1018.858,1121.063l1.236.706.026-.632.025-.623Z" fill="#fff"/>
          <path id="Path_21521" data-name="Path 21521" d="M1016.334,1120.905l1.236.706.026-.627.025-.628Z" fill="#fff"/>
          <path id="Path_21522" data-name="Path 21522" d="M1002.454,1120.031l1.236.706.026-.627.025-.628Z" fill="#fff"/>
          <path id="Path_21523" data-name="Path 21523" d="M1001.192,1119.952l1.236.706.026-.627.025-.628Z" fill="#fff"/>
          <path id="Path_21524" data-name="Path 21524" d="M1053.707,1122.859c-.1.219-.188.429-.261.627.073-.2.161-.408.261-.627" fill="#fff"/>
          <path id="Path_21525" data-name="Path 21525" d="M999.93,1119.873l1.236.706.026-.627.025-.628Z" fill="#fff"/>
          <path id="Path_21526" data-name="Path 21526" d="M1007.5,1120.352l1.236.706.026-.627.025-.628Z" fill="#fff"/>
          <path id="Path_21527" data-name="Path 21527" d="M1032.713,1122.554l.051-1.255-1.287.549Z" fill="#fff"/>
          <path id="Path_21528" data-name="Path 21528" d="M1003.716,1120.11l1.236.706.026-.622.025-.633Z" fill="#fff"/>
          <path id="Path_21529" data-name="Path 21529" d="M1004.977,1120.194l1.236.706.026-.627.025-.628Z" fill="#fff"/>
          <path id="Path_21530" data-name="Path 21530" d="M1006.239,1120.273l1.236.706.026-.627.025-.628Z" fill="#fff"/>
          <path id="Path_21531" data-name="Path 21531" d="M1020.12,1121.137l1.236.706.026-.627.025-.628Z" fill="#fff"/>
          <path id="Path_21532" data-name="Path 21532" d="M1037.786,1122.248l1.236.706.026-.627.025-.627Z" fill="#fff"/>
          <path id="Path_21533" data-name="Path 21533" d="M1040.309,1122.4l1.236.706.026-.627.025-.627Z" fill="#fff"/>
          <path id="Path_21534" data-name="Path 21534" d="M1039.047,1122.326l1.236.706.026-.632.025-.623Z" fill="#fff"/>
          <path id="Path_21535" data-name="Path 21535" d="M1036.524,1122.169l1.236.706.026-.627.025-.627Z" fill="#fff"/>
          <path id="Path_21536" data-name="Path 21536" d="M1035.262,1122.09l1.236.706.026-.627.025-.627Z" fill="#fff"/>
          <path id="Path_21537" data-name="Path 21537" d="M1045.738,1122.559l-.382.163.7.4a5.569,5.569,0,0,0-.318-.563" fill="#fff"/>
          <path id="Path_21538" data-name="Path 21538" d="M1034,1122.006l1.236.706.026-.622.025-.633Z" fill="#fff"/>
          <path id="Path_21539" data-name="Path 21539" d="M1041.571,1122.479l1.236.706.026-.627.025-.628Z" fill="#fff"/>
          <path id="Path_21540" data-name="Path 21540" d="M1045.357,1122.721l.026-.633-1.288.549,1.237.706Z" fill="#fff"/>
          <path id="Path_21541" data-name="Path 21541" d="M1042.833,1122.558l1.236.706.026-.627.025-.628Z" fill="#fff"/>
          <path id="Path_21542" data-name="Path 21542" d="M1028.953,1121.695l1.236.706.026-.632.025-.623Z" fill="#fff"/>
          <path id="Path_21543" data-name="Path 21543" d="M1025.167,1121.458l1.236.706.026-.627.025-.627Z" fill="#fff"/>
          <path id="Path_21544" data-name="Path 21544" d="M1023.905,1121.374l1.236.706.026-.622.025-.633Z" fill="#fff"/>
          <path id="Path_21545" data-name="Path 21545" d="M1022.643,1121.295l1.236.706.026-.627.025-.628Z" fill="#fff"/>
          <path id="Path_21546" data-name="Path 21546" d="M1026.429,1121.537l1.236.706.026-.627.025-.627Z" fill="#fff"/>
          <path id="Path_21547" data-name="Path 21547" d="M1021.381,1121.216l1.236.706.026-.627.025-.628Z" fill="#fff"/>
          <path id="Path_21548" data-name="Path 21548" d="M1030.215,1121.769l1.236.706.026-.627.025-.628Z" fill="#fff"/>
          <path id="Path_21549" data-name="Path 21549" d="M1027.691,1121.616l1.236.706.026-.627.025-.628Z" fill="#fff"/>
          <path id="Path_21550" data-name="Path 21550" d="M1032.738,1121.927l1.236.706.026-.627.025-.628Z" fill="#fff"/>
          <path id="Path_21551" data-name="Path 21551" d="M1020.231,1118.407l1.236.706.026-.627.025-.628Z" fill="#fff"/>
          <path id="Path_21552" data-name="Path 21552" d="M1018.969,1118.333l1.236.706.026-.632.025-.622Z" fill="#fff"/>
          <path id="Path_21553" data-name="Path 21553" d="M1015.183,1118.1l1.236.706.026-.627.025-.628Z" fill="#fff"/>
          <path id="Path_21554" data-name="Path 21554" d="M1017.707,1118.254l1.236.706.026-.627.025-.627Z" fill="#fff"/>
          <path id="Path_21555" data-name="Path 21555" d="M1021.492,1118.486l1.236.706.026-.627.025-.627Z" fill="#fff"/>
          <path id="Path_21556" data-name="Path 21556" d="M1024.016,1118.644l1.236.706.026-.622.025-.633Z" fill="#fff"/>
          <path id="Path_21557" data-name="Path 21557" d="M1031.578,1119.354c-.357-.125-.734-.248-1.125-.37l-.127.055,1.236.706Z" fill="#fff"/>
          <path id="Path_21558" data-name="Path 21558" d="M1022.754,1118.565l1.236.706.026-.627.025-.628Z" fill="#fff"/>
          <path id="Path_21559" data-name="Path 21559" d="M1008.592,1117.2l-.98.418,1.236.706.026-.627.022-.538-.3.041" fill="#fff"/>
          <path id="Path_21560" data-name="Path 21560" d="M1008.874,1117.7l1.236.706.026-.632.025-.623Z" fill="#fff"/>
          <path id="Path_21561" data-name="Path 21561" d="M1006.421,1117.583l1.166.666.025-.627.011-.265q-.6.1-1.2.226" fill="#fff"/>
          <path id="Path_21562" data-name="Path 21562" d="M1010.136,1117.775l1.236.706.026-.627.025-.627Z" fill="#fff"/>
          <path id="Path_21563" data-name="Path 21563" d="M1013.921,1118.012l1.236.706.026-.622.025-.633Z" fill="#fff"/>
          <path id="Path_21564" data-name="Path 21564" d="M1012.659,1117.933l1.236.706.026-.627.025-.628Z" fill="#fff"/>
          <path id="Path_21565" data-name="Path 21565" d="M1011.4,1117.854l1.236.706.026-.627.025-.628Z" fill="#fff"/>
          <path id="Path_21566" data-name="Path 21566" d="M1016.445,1118.175l1.236.706.026-.627.025-.627Z" fill="#fff"/>
          <path id="Path_21567" data-name="Path 21567" d="M1030.326,1119.039l0-.092c-.235-.072-.474-.144-.72-.214l-.546.232,1.237.706Z" fill="#fff"/>
          <path id="Path_21568" data-name="Path 21568" d="M1027.8,1118.885l.025-.62-.012,0-1.275.543,1.236.707Z" fill="#fff"/>
          <path id="Path_21569" data-name="Path 21569" d="M1029.063,1118.964l.015-.378c-.116-.032-.234-.063-.353-.094l-.924.393,1.236.708Z" fill="#fff"/>
          <path id="Path_21570" data-name="Path 21570" d="M1026.54,1118.807l.026-.628-1.288.549,1.236.706Z" fill="#fff"/>
          <path id="Path_21571" data-name="Path 21571" d="M1032.684,1119.744l.14.08v-.03l-.141-.05" fill="#fff"/>
          <path id="Path_21572" data-name="Path 21572" d="M1006.348,1117.6c-.248.051-.5.1-.744.16l.721.412Z" fill="#fff"/>
          <path id="Path_21573" data-name="Path 21573" d="M1005.071,1117.882l-.257.062.249.142Z" fill="#fff"/>
          <path id="Path_21574" data-name="Path 21574" d="M1008.2,1127.312a11.324,11.324,0,0,0-4.142-9.177,68.8,68.8,0,0,0-12.439,4.718c-2.351.407.323,1.766.628,2.2s1.061,1.518.684,1.671-3.382-.318-3.132,1.255,6.928,5,14.4,6.458c.263.052.53.1.8.146a10.773,10.773,0,0,0,3.2-7.269" fill="#fff"/>
          <path id="Path_21575" data-name="Path 21575" d="M998.437,1123.562a1.425,1.425,0,0,1-1.345,1.509,1.5,1.5,0,0,1-1.216-1.669,1.424,1.424,0,0,1,1.345-1.509,1.5,1.5,0,0,1,1.216,1.669" fill="#fff"/>
          <path id="Path_21576" data-name="Path 21576" d="M997.917,1123.417a.9.9,0,0,1-.708,1.009.838.838,0,0,1-.812-.879.9.9,0,0,1,.707-1.008.838.838,0,0,1,.813.878" fill="#fff"/>
          <path id="Path_21577" data-name="Path 21577" d="M997.231,1123.248a.319.319,0,0,1-.25.357.3.3,0,0,1-.288-.311.319.319,0,0,1,.25-.357.3.3,0,0,1,.288.311" fill="#fff"/>
          <path id="Path_21578" data-name="Path 21578" d="M1117.153,1116.3l-8.918-2.126a68.7,68.7,0,0,0-1.32-36.54l6.833-2.4,1.85-.534a77.992,77.992,0,0,1,1.555,41.6" fill="#91d09d"/>
          <path id="Path_21579" data-name="Path 21579" d="M1127.717,1112.791l-17.834,21.88-10.036-26.383Z" fill="#91d09d"/>
          <path id="Path_21580" data-name="Path 21580" d="M1095.334,1055.681a68.919,68.919,0,0,0-29.472-21.65l3.274-8.562a78.033,78.033,0,0,1,33.394,24.536Z" fill="#91d09d"/>
          <path id="Path_21581" data-name="Path 21581" d="M1041.744,1029.487a69.528,69.528,0,0,0-35.32,9.516l-4.646-7.9a78.775,78.775,0,0,1,40.019-10.779Z" fill="#91d09d"/>
          <path id="Path_21582" data-name="Path 21582" d="M1052.784,949.228H1044.8a4.465,4.465,0,0,1-4.465-4.465v-2.607a4.465,4.465,0,0,1,4.465-4.465h7.984a4.465,4.465,0,0,1,4.465,4.465v2.607a4.465,4.465,0,0,1-4.465,4.465" fill="#282729"/>
          <path id="Path_21583" data-name="Path 21583" d="M1165.525,1033.408c-53.127-.449-101.314-38.565-114.144-89.948h-7.965c13,55.792,64.538,97.443,121.841,98.026,2-2.586,1.949-5.286.268-8.078" fill="#282729"/>
          <path id="Path_21584" data-name="Path 21584" d="M655.194,744.709a11.028,11.028,0,0,0,.383-1.421,11.6,11.6,0,0,0-3.884-10.8c2.222-.324,3.741-1.062,3.866-2.094.215-1.769-3.673-3.695-8.683-4.3-.837-.1-1.639-.144-2.417-.164.856-7.7-1.65-14.568-7.211-17.442a12.853,12.853,0,0,0-8.24-1.024,14.67,14.67,0,0,0-7.191-10.476c1.809-.372,3.005-1.058,3.115-1.971.2-1.67-3.272-3.466-7.88-4.175a11.6,11.6,0,0,0-5.714-11.965c2.065-1.179,3.365-2.481,3.078-3.52-.435-1.569-4.125-1.888-8.465-.915-.8-5.537-4.035-10.118-8.95-11.593-6.365-1.91-13.323,1.988-16.754,8.921a11.634,11.634,0,0,0-4.7-2.762c-4.614-1.384-9.531.3-13.2,3.958a7.349,7.349,0,0,0-3.741-2.763c-3.909-1.173-8.259,1.326-11,5.811-2.48-3.3-5.93-5.1-9.239-4.333-3.629.838-5.941,4.573-6.452,9.205-1.73-2.615-3.613-4.157-4.789-3.633-1.322.589-1.28,3.584-.138,7.149a11.5,11.5,0,0,0-6.1,5.593,11.577,11.577,0,0,0-9.946,5.582c-3.487-2.56-6.876-3.726-7.9-2.5-.712.858-.1,2.638,1.4,4.641a11.614,11.614,0,0,0-11.7,9.58c-.027.15-.013.3-.033.446-.048-.037-.1-.061-.147-.1-.417.816-1.6,3.165-2.991,6.2-.018-.005-.031-.019-.049-.024a5.467,5.467,0,0,0-6.665,3.919,5.4,5.4,0,0,0,1.528,5.219,5.39,5.39,0,0,0-3.873,3.817,5.314,5.314,0,0,0-.091,1.663,1.632,1.632,0,0,0-.982-.252c-1.717.475-2.019,4.8-.674,9.667.122.443.276.832.421,1.237-1.223-.429-2.263-.537-2.775-.007-.963.994.024,3.56,2.2,6.3-4.008-1-7.347-.757-7.836.711-.563,1.69,2.863,4.352,7.651,5.946.467.155.924.281,1.38.4a8.9,8.9,0,0,0,14.128,7.333,5.439,5.439,0,0,0,3.932,6.41,5.357,5.357,0,0,0,5.63-2.046c.106.108.217.218.325.334a20.761,20.761,0,0,0,.716,4.6c1.345,4.864,3.827,8.422,5.543,7.947,1.092-.3,1.539-2.243,1.427-4.809a11.872,11.872,0,0,0,9.4,1.731s2.316-.362,5.364-.731a5.343,5.343,0,0,0,10.218,2.082c1.4,3.789,3.385,6.414,4.854,6.007s1.824-3.638,1.1-7.576c2.363.36,6.281-.22,9.762-.827a5.4,5.4,0,0,0,3.835,3.926,5.468,5.468,0,0,0,6.666-3.919A5.467,5.467,0,0,0,569.37,769a5.384,5.384,0,0,0,.065-2.318c.169.047.326.1.5.148,4.885,1.267,9.207.9,9.655-.827a1.465,1.465,0,0,0-.187-1.042q.929.084,1.926.1c2.545,1.04,5.318,2.24,8.35,3.53-3.952,3-6.308,6.524-5.256,7.933,1.065,1.427,5.207.137,9.251-2.882.158-.117.269-.244.421-.364a23.651,23.651,0,0,0,.494,2.451c1.344,4.864,3.826,8.422,5.543,7.947s2.018-4.8.673-9.666c-.134-.485-.316-.886-.471-1.338,6.074,1.938,11.778,2.829,15.521.8a71.221,71.221,0,0,0,9.407-6.54,24.44,24.44,0,0,0,2.8.3c5.041.238,9.2-1.01,9.28-2.788.035-.728-.677-1.417-1.812-2.009,1.644-.609,2.655-1.431,2.641-2.322a1.557,1.557,0,0,0-.545-1.031,15.7,15.7,0,0,0,7.53-2.517,21.57,21.57,0,0,0,4.055-3.038c2.439,1.3,4.537,1.748,5.295.834.581-.7.277-2.013-.667-3.558,3.679.8,6.664.513,7.123-.866.485-1.458-2-3.634-5.768-5.229" fill="#eff0f1"/>
          <path id="Path_21585" data-name="Path 21585" d="M478.315,744.946l-.016-.009.011.016.005-.007" fill="#e2e3e5"/>
          <path id="Path_21586" data-name="Path 21586" d="M496.084,764.22c-.264.122-.531.192-.8.3a5.213,5.213,0,0,0,.99.908c-.058-.406-.175-.795-.194-1.21" fill="#e2e3e5"/>
          <path id="Path_21587" data-name="Path 21587" d="M655.194,744.709a10.969,10.969,0,0,0,.383-1.42,11.6,11.6,0,0,0-3.884-10.8c2.222-.325,3.741-1.063,3.866-2.1.214-1.769-3.673-3.694-8.683-4.3-.838-.1-1.639-.144-2.418-.164.857-7.7-1.649-14.569-7.21-17.442a12.86,12.86,0,0,0-8.24-1.025,14.672,14.672,0,0,0-7.191-10.476c1.809-.371,3.005-1.058,3.115-1.971.2-1.669-3.272-3.466-7.88-4.174a11.6,11.6,0,0,0-5.715-11.966c2.066-1.179,3.366-2.48,3.078-3.52-.433-1.568-4.125-1.887-8.464-.915-.8-5.537-4.035-10.117-8.95-11.592-6.365-1.91-13.323,1.987-16.754,8.92a11.633,11.633,0,0,0-4.7-2.761,12.375,12.375,0,0,0-9.885,1.438c2.645.682,4.338,1.805,4.188,3.038-.227,1.881-4.628,3.282-9.864,3.18,1.38,3.092,2.627,5.937,3.816,8.5q.758.673,1.408,1.359a1.768,1.768,0,0,1,.622-1c1.612-1.152,5.2,1.4,8.02,5.7.1.152.178.3.273.455a6.611,6.611,0,0,1,1.754-1.9,5.561,5.561,0,0,1,8,1.126,5.56,5.56,0,0,1,8,1.124,5.746,5.746,0,0,1,.059,5.839c3.119,1.8,6.553,3.9,8.1,5.773,2.334-3.791,4.99-6.266,6.407-5.637s1.025,4.153-.687,8.261a5.375,5.375,0,0,1,6.964,1.606,5.893,5.893,0,0,1-.65,6.912c2.612,1.71,4.656,2.94,4.656,2.94a11.113,11.113,0,0,1,5.943,7.682c1.8-2.23,3.57-3.564,4.629-3.094,1.667.739.958,5.371-1.584,10.346a25.233,25.233,0,0,1-2.833,4.342c0,.168,0,.334,0,.495a5.22,5.22,0,0,1,5.826,2.012,6.083,6.083,0,0,1-1.691,7.988,8.408,8.408,0,0,1,6.758,3.739c2.345,3.578,1.678,8.431-1.3,11.78.258.406.517.814.761,1.255a23.352,23.352,0,0,1,1.137,2.377c1.781-.5,2.926-1.276,2.97-2.2.035-.728-.677-1.417-1.812-2.008,1.644-.609,2.655-1.432,2.64-2.323a1.555,1.555,0,0,0-.544-1.031,15.7,15.7,0,0,0,7.53-2.516,21.575,21.575,0,0,0,4.055-3.039c2.439,1.3,4.537,1.748,5.295.835.581-.7.277-2.014-.667-3.559,3.679.8,6.664.513,7.122-.865.486-1.458-2-3.635-5.767-5.23" fill="#dbdcdf"/>
          <path id="Path_21588" data-name="Path 21588" d="M620.044,730.436a4.594,4.594,0,0,0-4.594-4.594,4.489,4.489,0,0,0-2.726.993,7.667,7.667,0,0,0-13.5-.19c-2.04-1.772-3.922-2.588-4.857-1.884-.828.623-.646,2.329.174,4.4-3.767-.681-6.8-.279-7.205,1.133-.494,1.711,3.038,4.231,7.887,5.63.383.11.756.193,1.131.282a4.486,4.486,0,0,0,2.983,3.138,5.366,5.366,0,0,0,8.8,3.492,7.651,7.651,0,0,0,10.6-9.208,4.569,4.569,0,0,0,1.309-3.194" fill="#fcfcfd"/>
          <path id="Path_21589" data-name="Path 21589" d="M597.139,715.418c.181-.12.353-.227.533-.346a10.7,10.7,0,0,0-1.111.147,10.916,10.916,0,0,0-4.957-7.942c1.273-.3,2.119-.836,2.205-1.534.156-1.279-2.268-2.622-5.5-3.122a8.929,8.929,0,0,0-3.907-9.095c1.46-.919,2.384-1.925,2.191-2.717-.29-1.2-2.879-1.406-5.935-.625-.512-4.225-2.745-7.7-6.183-8.781-4.452-1.4-9.372,1.636-11.842,6.965a7.792,7.792,0,0,0-3.276-2.069c-3.228-1.018-6.694.309-9.3,3.14a5.039,5.039,0,0,0-2.6-2.079c-2.734-.862-5.81,1.086-7.773,4.538-1.713-2.5-4.119-3.846-6.449-3.23-2.556.671-4.212,3.546-4.612,7.091-1.191-1.983-2.5-3.146-3.33-2.734-.934.461-.931,2.749-.16,5.464a8.671,8.671,0,0,0-4.331,4.328,8.25,8.25,0,0,0-7.032,4.353c-2.427-1.926-4.8-2.787-5.523-1.839-.507.662-.1,2.018.943,3.535a7.511,7.511,0,0,0-1.539.149c.017.232.014.446.042.688.454,3.8,1.825,6.714,3.064,6.511.787-.128,1.289-1.557,1.465-3.506a7.766,7.766,0,0,0,6.354,2.163s1.643-.064,3.8-.066a4.065,4.065,0,0,0,2.281,4.2,3.692,3.692,0,0,0,4.607-1.694c.6,2.992,1.717,5.155,2.777,4.982s1.625-2.585,1.507-5.628c1.6.488,4.382.4,6.858.261a3.977,3.977,0,0,0,2.275,3.317,73866.439,73866.439,0,0,0,10.027-4.714,4.466,4.466,0,0,0,.274-1.748c.113.051.216.108.331.158,3.266,1.4,6.3,1.515,6.784.252a1.8,1.8,0,0,0-.474-1.633c2.028,1.136,4.536,2.8,7.222,4.5-3.038,1.9-5.022,4.358-4.431,5.518.6,1.176,3.6.577,6.706-1.339.121-.074.211-.16.328-.237.015.619.021,1.233.1,1.9.453,3.8,1.825,6.713,3.063,6.511s1.875-3.447,1.422-7.245c-.045-.379-.132-.7-.2-1.055,4.025,2.016,7.9,3.208,10.7,2.012a49.919,49.919,0,0,0,7.175-4.089,16.141,16.141,0,0,0,1.916.485c3.476.638,6.483.072,6.717-1.265.168-.961-1.155-2.054-3.2-2.833" fill="#fcfcfd"/>
          <path id="Path_21590" data-name="Path 21590" d="M551.378,706.231c.222.169,1.045.966.119,3.442s-5.186,11-8.633,14.412c-1.74,1.724-6.292,3.614-9.465.677a8.212,8.212,0,0,1-1.879-9.5c1.178-2.457,6.3-6.33,9.572-7.009s8.138-3.661,10.286-2.019" fill="#a57255"/>
          <path id="Path_21591" data-name="Path 21591" d="M551.5,709.673c.926-2.476.1-3.273-.119-3.442-2.147-1.642-7.018,1.339-10.285,2.019a10.156,10.156,0,0,0-2.888,1.178c-3.7,4.783-5.153,9.373-3.245,11.542,1.852,2.1,6.369,1.362,11.4-1.485a66.956,66.956,0,0,0,5.135-9.812" fill="#d9a683"/>
          <path id="Path_21592" data-name="Path 21592" d="M551.378,706.231c-1.722-1.317-5.2.34-8.19,1.4-3.532,3.715-5.166,7.652-3.681,9.339s5.579.574,9.7-2.441a50.761,50.761,0,0,0,2.286-4.854c.926-2.476.1-3.273-.119-3.442" fill="#ebd1be"/>
          <path id="Path_21593" data-name="Path 21593" d="M550.747,707.08c.549.624-.229,2.2-1.737,3.532s-3.175,1.9-3.724,1.273.229-2.205,1.737-3.532,3.175-1.9,3.724-1.273" fill="#f1dfd2"/>
          <path id="Path_21594" data-name="Path 21594" d="M551.5,709.673c.716-1.913.387-2.823.1-3.216l-19.867,16.168a8.268,8.268,0,0,0,1.671,2.137c3.173,2.937,7.726,1.047,9.465-.677,3.448-3.417,7.707-11.936,8.633-14.412" fill="#965b39"/>
          <path id="Path_21595" data-name="Path 21595" d="M551.595,706.457l-17.061,13.885a3.047,3.047,0,0,0,.426.628c1.852,2.1,6.369,1.363,11.4-1.485a66.991,66.991,0,0,0,5.136-9.812c.715-1.913.387-2.823.1-3.216" fill="#d49b72"/>
          <path id="Path_21596" data-name="Path 21596" d="M551.595,706.457l-12.38,10.075a2.043,2.043,0,0,0,.292.437c1.482,1.683,5.579.573,9.7-2.441a50.643,50.643,0,0,0,2.286-4.855c.715-1.913.387-2.823.1-3.216" fill="#e6c5ae"/>
          <path id="Path_21597" data-name="Path 21597" d="M550.779,707.121l-5.612,4.567a.668.668,0,0,0,.119.2c.548.623,2.216.053,3.724-1.274,1.476-1.3,2.251-2.84,1.769-3.49" fill="#eed8c8"/>
          <path id="Path_21598" data-name="Path 21598" d="M596.429,753.329a3.854,3.854,0,0,1,.285-.943c0-.116,0-.224.006-.327a1.958,1.958,0,0,1,1.085-1.934c.049-.034.114-.074.192-.12l.084-.047c.816-.455,2.76-1.335,3.978-1.889.079-.036.155-.075.229-.115l.065-.037c.053-.031.1-.062.156-.094l.062-.04c.059-.039.116-.078.172-.119l.027-.019c.067-.049.133-.1.2-.151l.033-.026.168-.137.031-.026c.07-.057.139-.116.208-.174l.006,0a4.1,4.1,0,0,1,2.629-1.177,3.484,3.484,0,0,1,2.309.624,11.433,11.433,0,0,1,1.112.985c.025.022.05.041.074.061s.032.027.047.038c.23.173.8.446,1.469.837l.129.077q.23.137.467.293c.241.158.484.332.719.52a6.575,6.575,0,0,1,.851.809,4.369,4.369,0,0,1,.565.814c.035.067.069.135.1.2a3.3,3.3,0,0,1,.191.526,1.539,1.539,0,0,1,.07.561c.01,2.333-1.812,10.481-14.329,5.78a5.784,5.784,0,0,1-2.772-1.915,3.513,3.513,0,0,1-.54-1.109c-.029-.1-.055-.2-.074-.3a3.934,3.934,0,0,1,0-1.426" fill="#424143"/>
          <path id="Path_21599" data-name="Path 21599" d="M596.714,752.386c-.016-1.66.569-1.9,1.091-2.261s2.862-1.423,4.254-2.056a3.438,3.438,0,0,0,.347-.185,3.663,3.663,0,0,0,.553.26c3.8,1.426,5.377.188,6-1.07.244.231.446.445.63.584.633.474,3.859,1.708,4.491,4.08.367.7-.205,11.62-14.259,6.341-4.988-1.874-3.1-5.693-3.1-5.693" fill="#717072"/>
          <path id="Path_21600" data-name="Path 21600" d="M596.714,752.386c-.016-1.66.569-1.9,1.091-2.261s2.862-1.423,4.254-2.056a3.438,3.438,0,0,0,.347-.185,3.663,3.663,0,0,0,.553.26c3.8,1.426,5.377.188,6-1.07.244.231.446.445.63.584.633.474,3.859,1.708,4.491,4.08.367.7-.205,11.62-14.259,6.341-4.988-1.874-3.1-5.693-3.1-5.693" fill="#717072"/>
          <path id="Path_21601" data-name="Path 21601" d="M596.714,752.386c0-.116,0-.224.006-.327a1.957,1.957,0,0,1,1.085-1.934c.049-.034.114-.075.192-.12l.084-.047c.816-.455,2.76-1.335,3.978-1.889.079-.036.155-.075.229-.116l.065-.036c.053-.031.1-.062.156-.095l.062-.039c.059-.039.116-.078.172-.119l.027-.019c.067-.049.133-.1.2-.151l.033-.026.168-.137.031-.026.208-.174.006-.005a4.422,4.422,0,0,1,1.9-1.07v13.4a21.675,21.675,0,0,1-5.5-1.374,5.784,5.784,0,0,1-2.772-1.915,3.524,3.524,0,0,1-.54-1.109c-.029-.1-.055-.2-.074-.3a3.934,3.934,0,0,1,0-1.426,3.854,3.854,0,0,1,.285-.943" fill="#605f61"/>
          <path id="Path_21602" data-name="Path 21602" d="M596.714,752.386c-.016-1.66.569-1.9,1.091-2.261.025-.018.056-.038.09-.058l.038-.024.074-.043.054-.03c.026-.016.055-.031.085-.047l.057-.032,0,0h0c.278-.149.648-.333,1.064-.532a5.539,5.539,0,0,0,1.423.758c6.388,2.4,9.148.44,10.278-1.67a12.374,12.374,0,0,1,1.046.673l.073.053.114.086.093.071.108.086.109.091.126.108c.047.042.095.084.141.127l.08.077c.039.037.077.075.115.113l.075.077c.047.05.094.1.139.153.014.016.029.031.042.047.055.063.107.128.158.194l.053.07c.037.049.073.1.108.151l.049.072c.045.069.089.139.13.21l.009.015c.043.077.082.155.12.234l.032.071c.027.06.053.121.076.182.01.025.019.05.028.075.03.084.058.169.081.256.367.7-.205,11.62-14.259,6.341-4.988-1.874-3.1-5.693-3.1-5.693" fill="#424143"/>
          <path id="Path_21603" data-name="Path 21603" d="M596.714,752.386c-.014-1.422.414-1.8.865-2.108a4.39,4.39,0,0,0,2.864,2.47c8.479,3.185,11.412-.294,12.317-3.026a4.307,4.307,0,0,1,1.316,2.016c.367.7-.205,11.62-14.259,6.341-4.988-1.874-3.1-5.693-3.1-5.693" fill="#717072"/>
          <path id="Path_21604" data-name="Path 21604" d="M597.393,756.581c-.017-.018-.036-.037-.052-.055-.044-.048-.087-.1-.127-.145-.019-.022-.036-.044-.053-.066s-.047-.059-.069-.089l-.056-.075-.055-.08-.053-.079c-.017-.026-.032-.052-.048-.078q-.047-.077-.087-.153c-.011-.02-.023-.041-.033-.061s-.032-.064-.048-.1-.017-.037-.026-.056-.03-.066-.044-.1c-.006-.014-.011-.028-.017-.041a3.6,3.6,0,0,1-.124-.362l-.005-.018c-.011-.041-.022-.081-.031-.122l0-.014a3.97,3.97,0,0,1,.024-1.83,5.093,5.093,0,0,0,3.173,2.622c10.779,4.049,13.627-1.431,14.2-4.521a3.455,3.455,0,0,1,.214.576c.366.7-.206,11.62-14.259,6.341-.1-.04-.206-.08-.3-.121l-.09-.038-.2-.09-.092-.043c-.069-.033-.137-.066-.2-.1l-.063-.032c-.084-.044-.166-.089-.245-.134l-.061-.036c-.058-.034-.115-.069-.171-.1l-.077-.049-.146-.1-.069-.048c-.063-.045-.124-.091-.182-.136l-.034-.027c-.054-.043-.105-.086-.155-.129-.022-.018-.043-.037-.064-.056-.036-.032-.07-.064-.1-.1l-.064-.061c-.033-.033-.065-.067-.1-.1" fill="#424143"/>
          <path id="Path_21605" data-name="Path 21605" d="M597.8,750.125c.522-.364,2.862-1.423,4.254-2.056a3.779,3.779,0,0,0,.347-.184,3.671,3.671,0,0,0,.553.259,9.77,9.77,0,0,0,2.36.6v10.708a21.641,21.641,0,0,1-5.5-1.374c-4.988-1.874-3.1-5.693-3.1-5.693-.016-1.66.569-1.9,1.091-2.261" fill="#8f8f90"/>
          <path id="Path_21606" data-name="Path 21606" d="M597.8,750.125c.025-.018.056-.037.09-.058l.038-.023.074-.044.053-.03.086-.047c.019-.011.036-.021.057-.031l0,0c.278-.149.648-.333,1.064-.532a5.538,5.538,0,0,0,1.423.759,15.908,15.908,0,0,0,4.626,1.086v8.25a21.641,21.641,0,0,1-5.5-1.374c-4.988-1.874-3.1-5.693-3.1-5.693-.016-1.66.569-1.9,1.091-2.261" fill="#605f61"/>
          <path id="Path_21607" data-name="Path 21607" d="M597.579,750.278a4.387,4.387,0,0,0,2.864,2.469,19.132,19.132,0,0,0,4.876,1.217v5.488a21.628,21.628,0,0,1-5.5-1.374c-4.989-1.873-3.1-5.692-3.1-5.692-.013-1.423.414-1.8.865-2.108" fill="#8f8f90"/>
          <path id="Path_21608" data-name="Path 21608" d="M599.659,755.683a21.386,21.386,0,0,0,5.66,1.39v2.38a21.685,21.685,0,0,1-5.5-1.374c-.105-.04-.205-.08-.3-.121l-.09-.039c-.069-.029-.137-.059-.2-.089l-.091-.043c-.07-.033-.138-.066-.2-.1l-.063-.032c-.085-.044-.166-.089-.246-.134l-.06-.036c-.059-.034-.116-.069-.171-.1-.027-.016-.052-.033-.078-.05-.05-.032-.1-.065-.146-.1l-.069-.048c-.062-.044-.123-.09-.182-.135l-.034-.028c-.053-.042-.1-.085-.155-.128l-.064-.057c-.035-.031-.07-.063-.1-.095s-.043-.041-.064-.062-.066-.066-.1-.1l-.053-.055c-.044-.048-.086-.1-.127-.145l-.053-.066c-.023-.03-.047-.059-.069-.089l-.055-.075-.056-.08-.052-.079c-.017-.026-.033-.052-.048-.079-.031-.05-.06-.1-.088-.152l-.033-.061c-.016-.032-.032-.064-.047-.1s-.018-.037-.026-.056-.03-.066-.044-.1c-.006-.014-.012-.028-.017-.042a3.506,3.506,0,0,1-.124-.361l-.005-.018c-.012-.041-.022-.082-.032-.122l0-.014a3.972,3.972,0,0,1,.025-1.831,5.091,5.091,0,0,0,3.173,2.623" fill="#605f61"/>
          <path id="Path_21609" data-name="Path 21609" d="M638.9,762.012a3.846,3.846,0,0,1-.359-.917c-.073-.091-.138-.177-.2-.261a1.957,1.957,0,0,1-.344-2.191c.017-.057.044-.128.077-.213.012-.028.024-.057.036-.088.361-.863,1.343-2.757,1.958-3.945.04-.078.075-.155.108-.233.01-.023.019-.046.028-.069.023-.057.045-.114.065-.171.008-.023.017-.046.024-.069.022-.067.043-.133.062-.2l.009-.031c.023-.081.043-.161.062-.241,0-.014.007-.028.01-.041.016-.071.032-.141.047-.212l.009-.039c.019-.089.037-.177.056-.266v-.007a4.112,4.112,0,0,1,1.339-2.551,3.479,3.479,0,0,1,2.2-.938h0a11.481,11.481,0,0,1,1.483.086c.033,0,.064,0,.1,0h.06c.288-.007.907-.147,1.672-.251l.149-.02c.177-.022.359-.042.548-.058.287-.024.585-.039.887-.036a6.486,6.486,0,0,1,1.169.109,4.406,4.406,0,0,1,.946.29c.07.031.139.063.206.1a3.446,3.446,0,0,1,.475.295,1.559,1.559,0,0,1,.4.4c1.45,1.827,5.059,9.356-7.684,13.405a5.791,5.791,0,0,1-3.362.211,3.547,3.547,0,0,1-1.111-.537c-.085-.062-.167-.125-.243-.191a3.916,3.916,0,0,1-.884-1.119" fill="#424143"/>
          <path id="Path_21610" data-name="Path 21610" d="M638.542,761.095c-1.039-1.295-.727-1.843-.542-2.452s1.369-2.888,2.071-4.246a3.518,3.518,0,0,0,.159-.36,3.622,3.622,0,0,0,.6-.139c3.867-1.228,4.341-3.178,4.049-4.548.334.03.626.073.857.068.79-.019,4.087-1.045,6.052.427.72.323,7.026,9.257-7.281,13.8-5.079,1.614-5.96-2.553-5.96-2.553" fill="#717072"/>
          <path id="Path_21611" data-name="Path 21611" d="M638.542,761.095c-1.039-1.295-.727-1.843-.542-2.452s1.369-2.888,2.071-4.246a3.518,3.518,0,0,0,.159-.36,3.622,3.622,0,0,0,.6-.139c3.867-1.228,4.341-3.178,4.049-4.548.334.03.626.073.857.068.79-.019,4.087-1.045,6.052.427.72.323,7.026,9.257-7.281,13.8-5.079,1.614-5.96-2.553-5.96-2.553" fill="#717072"/>
          <path id="Path_21612" data-name="Path 21612" d="M638.542,761.095c-.073-.091-.138-.177-.2-.261a1.957,1.957,0,0,1-.344-2.191q.027-.086.078-.213c.011-.028.023-.057.036-.088.36-.863,1.343-2.757,1.957-3.945.04-.078.076-.155.109-.233.01-.023.018-.046.028-.069.023-.057.044-.114.064-.171.009-.023.017-.046.025-.069.022-.067.042-.133.061-.2l.01-.031c.022-.08.043-.161.062-.241l.009-.041c.017-.071.033-.141.048-.212l.008-.039c.019-.089.038-.177.056-.266l0-.007a4.43,4.43,0,0,1,.834-2.02l8.288,10.527a21.68,21.68,0,0,1-5.173,2.323,5.794,5.794,0,0,1-3.363.211,3.531,3.531,0,0,1-1.11-.537c-.085-.062-.168-.125-.244-.191a3.952,3.952,0,0,1-.884-1.119,3.846,3.846,0,0,1-.359-.917" fill="#605f61"/>
          <path id="Path_21613" data-name="Path 21613" d="M638.542,761.095c-1.039-1.295-.727-1.843-.542-2.452.009-.029.021-.064.035-.1.005-.013.01-.028.016-.042s.02-.051.031-.079.015-.038.023-.058l.038-.089.025-.06,0,0c.126-.288.3-.662.507-1.075a5.6,5.6,0,0,0,1.587-.284c6.5-2.067,7.46-5.314,7.043-7.671.381-.054.8-.1,1.238-.118l.09,0,.143,0h.255l.142,0,.165.007.19.013.111.011c.053.005.107.011.16.018l.106.014c.068.01.136.021.2.034a.61.61,0,0,1,.062.011c.082.015.163.034.244.054l.085.022.179.052.083.027c.078.026.155.054.231.085l.017.006c.081.033.16.07.239.109l.07.036c.058.031.115.063.172.1l.068.041c.075.048.15.1.222.151.72.323,7.026,9.257-7.281,13.8-5.079,1.614-5.96-2.553-5.96-2.553" fill="#424143"/>
          <path id="Path_21614" data-name="Path 21614" d="M638.542,761.095c-.89-1.109-.788-1.67-.624-2.191a4.387,4.387,0,0,0,3.778.168c8.632-2.742,8.784-7.289,7.8-10a4.325,4.325,0,0,1,2.282.769c.72.323,7.026,9.257-7.281,13.8-5.079,1.614-5.96-2.553-5.96-2.553" fill="#717072"/>
          <path id="Path_21615" data-name="Path 21615" d="M641.67,763.971l-.075-.011c-.065-.01-.128-.022-.189-.035l-.083-.019-.109-.027-.09-.025-.094-.029-.089-.029c-.03-.01-.058-.021-.087-.032-.055-.021-.11-.043-.163-.066l-.064-.027-.1-.047-.055-.027-.1-.051-.039-.023a3.509,3.509,0,0,1-.32-.207L640,763.3c-.034-.025-.067-.051-.1-.077l-.011-.008a3.982,3.982,0,0,1-1.113-1.454,5.1,5.1,0,0,0,4.115.1c10.974-3.487,9.822-9.554,8.364-12.339a3.453,3.453,0,0,1,.524.32c.72.323,7.026,9.257-7.281,13.8-.107.034-.211.064-.314.093l-.095.026c-.072.019-.144.038-.215.055l-.1.023c-.075.017-.149.033-.222.047l-.069.014c-.094.018-.186.033-.276.047l-.069.009-.2.024-.092.009c-.059.005-.118.01-.175.013l-.084.005c-.077,0-.153.006-.227.006h-.044c-.068,0-.135,0-.2-.005l-.085-.005L641.9,764l-.088-.009q-.07-.008-.138-.018" fill="#424143"/>
          <path id="Path_21616" data-name="Path 21616" d="M638,758.643c.185-.608,1.368-2.889,2.07-4.246a3.26,3.26,0,0,0,.159-.361,3.588,3.588,0,0,0,.595-.138,9.781,9.781,0,0,0,2.226-.987l6.624,8.413a21.657,21.657,0,0,1-5.173,2.324c-5.078,1.613-5.959-2.553-5.959-2.553-1.04-1.295-.727-1.843-.542-2.452" fill="#8f8f90"/>
          <path id="Path_21617" data-name="Path 21617" d="M638,758.643c.009-.029.021-.064.034-.1l.016-.042.031-.08q.012-.027.024-.057c.011-.029.024-.059.037-.09s.017-.038.026-.059l0,0c.126-.289.3-.662.506-1.076a5.531,5.531,0,0,0,1.588-.284,15.881,15.881,0,0,0,4.306-2.008l5.1,6.482a21.657,21.657,0,0,1-5.173,2.324c-5.078,1.613-5.959-2.553-5.959-2.553-1.04-1.295-.727-1.843-.542-2.452" fill="#605f61"/>
          <path id="Path_21618" data-name="Path 21618" d="M637.917,758.9a4.387,4.387,0,0,0,3.778.168,19.139,19.139,0,0,0,4.584-2.06l3.4,4.312a21.657,21.657,0,0,1-5.173,2.324c-5.078,1.613-5.96-2.553-5.96-2.553-.89-1.109-.788-1.67-.624-2.191" fill="#8f8f90"/>
          <path id="Path_21619" data-name="Path 21619" d="M642.9,761.864a21.409,21.409,0,0,0,5.307-2.409l1.472,1.87a21.621,21.621,0,0,1-5.173,2.323c-.106.034-.211.065-.314.094l-.094.025c-.073.02-.144.038-.215.055l-.1.023c-.075.018-.149.033-.222.048l-.07.014c-.093.017-.185.033-.275.046l-.07.009c-.067.01-.134.018-.2.025l-.091.009-.176.013-.084.005c-.077,0-.152.005-.227.006h-.043c-.068,0-.135,0-.2-.005l-.086-.005c-.047,0-.094-.006-.14-.011l-.088-.008-.138-.019-.076-.01q-.1-.016-.189-.036l-.082-.019c-.037-.008-.074-.017-.11-.027l-.09-.025-.093-.028c-.03-.01-.06-.019-.09-.03l-.086-.032c-.056-.02-.11-.042-.163-.065l-.064-.028-.1-.046-.055-.028q-.048-.024-.1-.051l-.039-.022a3.411,3.411,0,0,1-.321-.208L640,763.3c-.035-.025-.068-.05-.1-.076l-.011-.009a3.963,3.963,0,0,1-1.113-1.454,5.086,5.086,0,0,0,4.115.1" fill="#605f61"/>
          <path id="Path_21620" data-name="Path 21620" d="M553.787,739.146c-.17-.045-.884-.148-1.759,1.269s-3.475,6.823-3.846,9.857c-.188,1.531.627,4.527,3.314,4.974a5.173,5.173,0,0,0,5.456-2.731c.769-1.534.72-5.58-.2-7.469s-1.316-5.464-2.962-5.9" fill="#413f42"/>
          <path id="Path_21621" data-name="Path 21621" d="M552.028,740.414c.875-1.416,1.59-1.314,1.759-1.269,1.646.436,2.041,4.011,2.963,5.9a6.413,6.413,0,0,1,.527,1.892c-.952,3.69-2.679,6.182-4.495,6.068-1.762-.11-3.135-2.645-3.658-6.249a42.129,42.129,0,0,1,2.9-6.342" fill="#504f51"/>
          <path id="Path_21622" data-name="Path 21622" d="M553.787,739.146c1.32.35,1.835,2.718,2.463,4.617-.487,3.192-1.817,5.524-3.23,5.435s-2.438-2.556-2.528-5.773a31.9,31.9,0,0,1,1.536-3.01c.875-1.417,1.589-1.314,1.759-1.269" fill="#575659"/>
          <path id="Path_21623" data-name="Path 21623" d="M553.609,739.787c-.523-.033-1.01.964-1.088,2.227s.279,2.313.8,2.346,1.01-.965,1.088-2.228-.281-2.312-.8-2.345" fill="#706f71"/>
          <path id="Path_21624" data-name="Path 21624" d="M578.045,698.688c-.153-.154-.706-.854.267-2.668s5.145-7.943,8.161-10.22c1.521-1.149,5.23-2.133,7.373.463a6.393,6.393,0,0,1,.459,7.528c-1.164,1.772-5.523,4.227-8.114,4.411s-6.66,1.976-8.146.486" fill="#717072"/>
          <path id="Path_21625" data-name="Path 21625" d="M578.312,696.02c-.973,1.814-.42,2.514-.267,2.668,1.486,1.49,5.554-.3,8.146-.487a7.892,7.892,0,0,0,2.35-.608c3.356-3.3,4.952-6.7,3.706-8.567-1.21-1.816-4.772-1.714-8.951-.041a52.032,52.032,0,0,0-4.984,7.035" fill="#8d8d8e"/>
          <path id="Path_21626" data-name="Path 21626" d="M578.045,698.688c1.192,1.2,4.044.279,6.464-.226,3.112-2.5,4.782-5.366,3.812-6.822s-4.244-1.024-7.74.873a39.217,39.217,0,0,0-2.269,3.507c-.973,1.814-.42,2.514-.267,2.668" fill="#c7c7c7"/>
          <path id="Path_21627" data-name="Path 21627" d="M578.62,698.1c-.358-.538.406-1.677,1.708-2.544s2.647-1.133,3.006-.595-.407,1.678-1.708,2.544-2.648,1.133-3.006.595" fill="#dddcdd"/>
          <path id="Path_21628" data-name="Path 21628" d="M601.538,705.513c2.122-.965,6.609-.9,8.286,0a5.712,5.712,0,0,1,1.912,1.717,1.842,1.842,0,0,1-.2,2.38,5.9,5.9,0,0,1-3.406,1.589c-3.381.247-9.822-1.421-11.55-2.069a4.152,4.152,0,0,1-1.207-.655.393.393,0,0,1-.014-.58c1.229-1.2,4.37-1.564,6.174-2.384" fill="#48474a"/>
          <path id="Path_21629" data-name="Path 21629" d="M601.538,705.513a13.389,13.389,0,0,1,6.986-.435,1.767,1.767,0,0,1-.475.814,5.909,5.909,0,0,1-3.407,1.589,27.469,27.469,0,0,1-6.829-.791,37.074,37.074,0,0,0,3.725-1.177" fill="#656366"/>
          <path id="Path_21630" data-name="Path 21630" d="M605.939,709.471a7.069,7.069,0,0,0,4.08-1.9,2.149,2.149,0,0,0,.644-1.483,5.956,5.956,0,0,1,1.079,1.156,1.84,1.84,0,0,1-.194,2.379,5.9,5.9,0,0,1-3.407,1.589c-3.381.247-9.821-1.42-11.55-2.069a4.153,4.153,0,0,1-1.207-.655.39.39,0,0,1-.051-.535c3.229.829,7.8,1.726,10.606,1.521" fill="#413f42"/>
          <path id="Path_21631" data-name="Path 21631" d="M516.386,746.691a4.408,4.408,0,0,0-.246-.608c-.018-.04-.036-.079-.055-.116-.009-.017-.017-.038-.026-.054v.012a2.567,2.567,0,0,0-.254-.4,1.171,1.171,0,0,0-.4-.286l0-.008c-.013-.006-.03-.007-.043-.013a1.838,1.838,0,0,0-.459-.135c-.025,0-.05,0-.076-.007a2.151,2.151,0,0,0-.468-.006c-.027,0-.053,0-.08.006a2.03,2.03,0,0,0-.484.127c-.033.014-.063.029-.095.044a1.457,1.457,0,0,0-.414.277,3.068,3.068,0,0,1-.526.4c-.167.108-.339.214-.508.326-.031.021-.064.04-.1.062l.01,0a2.051,2.051,0,0,0-.753.808c-.005.01,0,.026-.007.037h0c-.005.015,0,.035-.007.052a.494.494,0,0,0-.017.128.423.423,0,0,0,.029.138c.005.011,0,.027.008.037h0v0a1.5,1.5,0,0,0,.366.441c.524.437,2.478,1.56,3.5,1.393.294-.047.723-.4,1.033-1.07a2.469,2.469,0,0,0,.059-1.6" fill="#965b39"/>
          <path id="Path_21632" data-name="Path 21632" d="M579.292,752.82a3.913,3.913,0,0,0-.22-.544c-.016-.035-.032-.07-.049-.1-.008-.015-.016-.034-.024-.049v.011a2.261,2.261,0,0,0-.226-.354,1.053,1.053,0,0,0-.355-.255l0-.008c-.011-.005-.026-.006-.038-.011a1.633,1.633,0,0,0-.411-.121c-.022,0-.044,0-.067-.006a1.883,1.883,0,0,0-.418-.005c-.025,0-.048,0-.072.005a1.715,1.715,0,0,0-.433.114c-.029.012-.056.025-.085.039a1.287,1.287,0,0,0-.37.247,2.733,2.733,0,0,1-.47.363c-.15.1-.3.191-.454.291-.028.019-.058.035-.086.055l.01,0a1.823,1.823,0,0,0-.673.722c-.005.009,0,.023-.007.033h0c0,.014,0,.031-.006.046a.442.442,0,0,0-.015.115.4.4,0,0,0,.026.124c0,.01,0,.024.007.032v0a1.367,1.367,0,0,0,.327.4c.469.39,2.215,1.394,3.132,1.245a1.565,1.565,0,0,0,.923-.956,2.213,2.213,0,0,0,.053-1.433" fill="#8f8f90"/>
          <path id="Path_21633" data-name="Path 21633" d="M537.466,769.979c2.814,1.013,6.876,5.094,7.612,7.422a7.33,7.33,0,0,1,.219,3.29,2.363,2.363,0,0,1-2.31,2.012,7.58,7.58,0,0,1-4.553-1.59c-3.328-2.8-7.752-10.1-8.76-12.245a5.32,5.32,0,0,1-.522-1.682.5.5,0,0,1,.506-.545c2.206,0,5.416,2.477,7.808,3.338" fill="#5f5e60"/>
          <path id="Path_21634" data-name="Path 21634" d="M537.466,769.979c2.252.811,5.3,3.587,6.808,5.856a2.26,2.26,0,0,1-1.165.323,7.578,7.578,0,0,1-4.553-1.591,35.19,35.19,0,0,1-5.567-6.842,47.333,47.333,0,0,0,4.477,2.254" fill="#9a999b"/>
          <path id="Path_21635" data-name="Path 21635" d="M537.965,777.556a9.071,9.071,0,0,0,5.453,1.9,2.748,2.748,0,0,0,1.919-.786,7.619,7.619,0,0,1-.042,2.028,2.365,2.365,0,0,1-2.31,2.013,7.574,7.574,0,0,1-4.553-1.591c-3.328-2.8-7.752-10.1-8.76-12.244a5.317,5.317,0,0,1-.522-1.682.5.5,0,0,1,.432-.537c2.224,3.652,5.619,8.568,8.383,10.894" fill="#525053"/>
          <path id="Path_21636" data-name="Path 21636" d="M504.859,731.337c-1.506-2.984-6.584-6.937-9.266-7.439a8.209,8.209,0,0,0-3.68.2,2.641,2.641,0,0,0-1.919,2.835,8.471,8.471,0,0,0,2.382,4.836c3.559,3.312,12.257,7.231,14.772,8.058a5.976,5.976,0,0,0,1.937.351.563.563,0,0,0,.536-.636c-.3-2.448-3.482-5.672-4.762-8.209" fill="#48474a"/>
          <path id="Path_21637" data-name="Path 21637" d="M504.859,731.337c-1.205-2.388-4.7-5.4-7.42-6.759a2.541,2.541,0,0,0-.2,1.337,8.465,8.465,0,0,0,2.382,4.835A39.342,39.342,0,0,0,507.967,736a53.119,53.119,0,0,1-3.108-4.661" fill="#656366"/>
          <path id="Path_21638" data-name="Path 21638" d="M496.384,731.81a10.139,10.139,0,0,1-2.853-5.791,3.073,3.073,0,0,1,.612-2.236,8.517,8.517,0,0,0-2.244.322,2.64,2.64,0,0,0-1.92,2.835,8.468,8.468,0,0,0,2.382,4.836c3.559,3.312,12.257,7.231,14.772,8.058a5.975,5.975,0,0,0,1.937.351.557.557,0,0,0,.537-.552c-4.353-1.973-10.267-5.072-13.223-7.823" fill="#413f42"/>
          <path id="Path_21639" data-name="Path 21639" d="M632.165,732.554c1.5-2.131,5.877-4.6,8.005-4.681a6.4,6.4,0,0,1,2.817.578,2.061,2.061,0,0,1,1.157,2.409,6.6,6.6,0,0,1-2.392,3.46c-3.127,2.149-10.29,4.178-12.327,4.529a4.651,4.651,0,0,1-1.535.049.438.438,0,0,1-.341-.552c.508-1.856,3.337-3.98,4.616-5.792" fill="#d49b72"/>
          <path id="Path_21640" data-name="Path 21640" d="M632.165,732.554a14.97,14.97,0,0,1,6.5-4.368,1.978,1.978,0,0,1,0,1.055,6.6,6.6,0,0,1-2.392,3.46,30.738,30.738,0,0,1-7.044,3.1,41.085,41.085,0,0,0,2.933-3.242" fill="#e6c5ae"/>
          <path id="Path_21641" data-name="Path 21641" d="M638.653,733.89a7.915,7.915,0,0,0,2.865-4.144,2.4,2.4,0,0,0-.216-1.8,6.616,6.616,0,0,1,1.7.506,2.06,2.06,0,0,1,1.157,2.408,6.6,6.6,0,0,1-2.392,3.46c-3.127,2.15-10.29,4.179-12.327,4.529a4.629,4.629,0,0,1-1.535.05.436.436,0,0,1-.352-.488c3.587-1.025,8.507-2.74,11.1-4.525" fill="#965b39"/>
        </g>
      </g>
    </g>
  </g>
</svg>
