<svg xmlns="http://www.w3.org/2000/svg" xmlns:xlink="http://www.w3.org/1999/xlink" width="1920" height="1080" viewBox="0 0 1920 1080">
  <defs>
    <clipPath id="clip-path">
      <rect id="Rectangle_1180" data-name="Rectangle 1180" width="1920" height="1080" fill="none"/>
    </clipPath>
    <clipPath id="clip-Question_Four">
      <rect width="1920" height="1080"/>
    </clipPath>
  </defs>
  <g id="Question_Four" data-name="Question Four" clip-path="url(#clip-Question_Four)">
    <rect width="1920" height="1080" fill="#fff"/>
    <g id="DEI-Toolkit-Illustrations_4" clip-path="url(#clip-path)">
      <rect id="Rectangle_1114" data-name="Rectangle 1114" width="1926.24" height="1094.24" transform="translate(0.6 -11.7)" fill="#fae0ba"/>
      <rect id="Rectangle_1115" data-name="Rectangle 1115" width="1926.24" height="656.78" transform="translate(0.6 -11.7)" fill="#fef6e2"/>
      <g id="Group_2548" data-name="Group 2548">
        <g id="Group_2547" data-name="Group 2547">
          <rect id="Rectangle_1116" data-name="Rectangle 1116" width="443.69" height="656.78" transform="translate(803.66 -11.7)" fill="#fef1cf"/>
          <path id="Path_22539" data-name="Path 22539" d="M1103.74,115.73,803.66,636.82v8.26H908.44L1136.8,248.53Z" fill="#fff"/>
          <path id="Path_22540" data-name="Path 22540" d="M1181.24,295.17l-13.46-54.07L947.1,639.17h44.94l189.2-344Z" fill="#fff"/>
          <g id="Group_2546" data-name="Group 2546">
            <rect id="Rectangle_1117" data-name="Rectangle 1117" width="423.21" height="13.3" transform="translate(803.66 95.29)" fill="#f6c67e"/>
            <rect id="Rectangle_1118" data-name="Rectangle 1118" width="676.55" height="13.56" transform="translate(922.09 -31.47) rotate(90)" fill="#f6c67e"/>
            <rect id="Rectangle_1119" data-name="Rectangle 1119" width="676.55" height="13.56" transform="translate(1078.79 -31.48) rotate(90)" fill="#f6c67e"/>
            <rect id="Rectangle_1120" data-name="Rectangle 1120" width="676.55" height="13.56" transform="translate(1233.65 -31.48) rotate(90)" fill="#30538e"/>
            <rect id="Rectangle_1121" data-name="Rectangle 1121" width="423.21" height="13.3" transform="translate(803.66 486.94)" fill="#f6c67e"/>
          </g>
          <rect id="Rectangle_1122" data-name="Rectangle 1122" width="451.66" height="13.3" transform="translate(803.97 631.77)" fill="#f6c67e"/>
          <path id="Path_22541" data-name="Path 22541" d="M1259.55,645.08h-148.2l68.85-222.27L1072.01-11.7h187.54Z" fill="#fcd46e"/>
          <path id="Path_22542" data-name="Path 22542" d="M727.17,645.08H875.36L806.51,422.81,914.7-11.7H727.17Z" fill="#fcd46e"/>
        </g>
        <rect id="Rectangle_1123" data-name="Rectangle 1123" width="91.16" height="21.18" rx="7.24" transform="translate(722.65 408.48)" fill="#f4b456"/>
        <rect id="Rectangle_1124" data-name="Rectangle 1124" width="91.16" height="21.18" rx="7.24" transform="translate(1174.51 408.48)" fill="#f4b456"/>
      </g>
      <g id="Group_2551" data-name="Group 2551">
        <g id="Group_2550" data-name="Group 2550">
          <rect id="Rectangle_1125" data-name="Rectangle 1125" width="443.69" height="656.78" transform="translate(1470.96 -11.7)" fill="#fef1cf"/>
          <path id="Path_22543" data-name="Path 22543" d="M1771.03,115.73,1470.96,636.82v8.26h104.78L1804.1,248.53Z" fill="#fef8ef"/>
          <path id="Path_22544" data-name="Path 22544" d="M1847.49,422.81l-13.46-54.07L1674.9,645.08h44.95l127.24-220.96Z" fill="#fef8ef"/>
          <g id="Group_2549" data-name="Group 2549">
            <rect id="Rectangle_1126" data-name="Rectangle 1126" width="423.21" height="13.3" transform="translate(1470.96 95.29)" fill="#f6c67e"/>
            <rect id="Rectangle_1127" data-name="Rectangle 1127" width="676.55" height="13.56" transform="translate(1589.39 -31.48) rotate(90)" fill="#f6c67e"/>
            <rect id="Rectangle_1128" data-name="Rectangle 1128" width="676.55" height="13.56" transform="translate(1746.09 -31.47) rotate(90)" fill="#f6c67e"/>
            <rect id="Rectangle_1129" data-name="Rectangle 1129" width="676.55" height="13.56" transform="translate(1900.95 -31.48) rotate(90)" fill="#30538e"/>
            <rect id="Rectangle_1130" data-name="Rectangle 1130" width="423.21" height="13.3" transform="translate(1470.96 486.94)" fill="#f6c67e"/>
          </g>
          <rect id="Rectangle_1131" data-name="Rectangle 1131" width="451.66" height="13.3" transform="translate(1471.27 631.77)" fill="#f6c67e"/>
          <path id="Path_22545" data-name="Path 22545" d="M1926.84,645.08H1778.65l68.84-222.27L1739.31-11.7h187.53Z" fill="#fcd46e"/>
          <path id="Path_22546" data-name="Path 22546" d="M1394.46,645.08h148.2l-68.85-222.27L1582-11.7H1394.46Z" fill="#fcd46e"/>
        </g>
        <rect id="Rectangle_1132" data-name="Rectangle 1132" width="91.16" height="21.18" rx="7.24" transform="translate(1390.53 413.41)" fill="#f4b456"/>
        <rect id="Rectangle_1133" data-name="Rectangle 1133" width="91.16" height="21.18" rx="7.24" transform="translate(1839.67 413.41)" fill="#f4b456"/>
      </g>
      <g id="Group_2555" data-name="Group 2555">
        <g id="Group_2552" data-name="Group 2552">
          <rect id="Rectangle_1134" data-name="Rectangle 1134" width="168.27" height="17.43" transform="translate(120.67 695.57)" fill="#f2aa3f"/>
          <rect id="Rectangle_1135" data-name="Rectangle 1135" width="96.16" height="11.79" transform="translate(156.73 828.81)" fill="#f09c20"/>
          <rect id="Rectangle_1136" data-name="Rectangle 1136" width="96.16" height="11.79" transform="translate(156.73 713.01)" fill="#f09c20"/>
          <rect id="Rectangle_1137" data-name="Rectangle 1137" width="103.99" height="12.02" transform="translate(210.82 724.82) rotate(90)" fill="#f2aa3f"/>
        </g>
        <g id="Group_2553" data-name="Group 2553">
          <rect id="Rectangle_1138" data-name="Rectangle 1138" width="93.67" height="11.79" transform="translate(26.67 767.73)" fill="#f2aa3f"/>
          <path id="Path_22547" data-name="Path 22547" d="M20.34,840.6l7.64-46.49a204.961,204.961,0,0,0,1.97-50.52L23.9,672.72l11.98-.98L44.3,770.4l-.25.02L32.52,840.6H20.35Z" fill="#f2aa3f"/>
          <rect id="Rectangle_1139" data-name="Rectangle 1139" width="12.02" height="72.14" transform="translate(105.79 768.45)" fill="#f2aa3f"/>
          <path id="Path_22548" data-name="Path 22548" d="M43.52,756.66h62.35a7.592,7.592,0,0,1,7.59,7.59v4.2H43.52V756.66h0Z" fill="#fefaf1"/>
          <path id="Path_22549" data-name="Path 22549" d="M49,683.62l6.56,79.11-11.98.96-7.24-87.36,3.57-.28A8.377,8.377,0,0,1,49,683.63Z" fill="#fefaf1"/>
        </g>
        <g id="Group_2554" data-name="Group 2554">
          <rect id="Rectangle_1140" data-name="Rectangle 1140" width="93.44" height="11.79" transform="translate(382.13 779.52) rotate(180)" fill="#f2aa3f"/>
          <path id="Path_22550" data-name="Path 22550" d="M389.27,840.6l-7.64-46.49a204.962,204.962,0,0,1-1.97-50.52l6.05-70.87-11.98-.98-8.42,98.66.25.02,11.53,70.18h12.17Z" fill="#f2aa3f"/>
          <rect id="Rectangle_1141" data-name="Rectangle 1141" width="12.02" height="72.14" transform="translate(291.79 768.45)" fill="#f2aa3f"/>
          <path id="Path_22551" data-name="Path 22551" d="M296.15,756.66h69.94v4.2a7.592,7.592,0,0,1-7.59,7.59H296.15V756.66h0Z" transform="translate(662.24 1525.12) rotate(180)" fill="#fefaf1"/>
          <path id="Path_22552" data-name="Path 22552" d="M360.61,683.62l-6.56,79.11,11.98.96,7.24-87.36-3.57-.28a8.377,8.377,0,0,0-9.09,7.58Z" fill="#fefaf1"/>
        </g>
      </g>
      <g id="Group_2559" data-name="Group 2559">
        <g id="Group_2556" data-name="Group 2556">
          <rect id="Rectangle_1142" data-name="Rectangle 1142" width="94.92" height="11.79" transform="translate(594.55 633.99)" fill="#f2aa3f"/>
          <path id="Path_22553" data-name="Path 22553" d="M588.05,706.86l7.64-46.49a204.959,204.959,0,0,0,1.97-50.52l-6.05-70.87,11.98-.98,8.42,98.66-.25.02-11.53,70.18H588.06Z" fill="#f2aa3f"/>
          <rect id="Rectangle_1143" data-name="Rectangle 1143" width="12.02" height="72.14" transform="translate(673.5 634.72)" fill="#f2aa3f"/>
          <path id="Path_22554" data-name="Path 22554" d="M611.23,622.93h62.35a7.592,7.592,0,0,1,7.59,7.59v4.2H611.23V622.93h0Z" fill="#fefaf1"/>
          <path id="Path_22555" data-name="Path 22555" d="M616.7,549.88l6.56,79.11-11.98.96-7.24-87.36,3.57-.28a8.377,8.377,0,0,1,9.09,7.58Z" fill="#fefaf1"/>
        </g>
        <g id="Group_2557" data-name="Group 2557">
          <rect id="Rectangle_1144" data-name="Rectangle 1144" width="93.53" height="11.79" transform="translate(950.4 645.79) rotate(180)" fill="#f2aa3f"/>
          <path id="Path_22556" data-name="Path 22556" d="M956.98,706.86l-7.64-46.49a204.959,204.959,0,0,1-1.97-50.52l6.05-70.87L941.44,538l-8.42,98.66.25.02,11.53,70.18h12.17Z" fill="#f2aa3f"/>
          <rect id="Rectangle_1145" data-name="Rectangle 1145" width="12.02" height="72.14" transform="translate(859.5 634.72)" fill="#f2aa3f"/>
          <path id="Path_22557" data-name="Path 22557" d="M863.86,622.93H933.8v4.2a7.592,7.592,0,0,1-7.59,7.59H863.86V622.93h0Z" transform="translate(1797.66 1257.65) rotate(180)" fill="#fdf2e2"/>
          <path id="Path_22558" data-name="Path 22558" d="M928.32,549.88l-6.56,79.11,11.98.96,7.24-87.36-3.57-.28a8.377,8.377,0,0,0-9.09,7.58Z" fill="#fefaf1"/>
        </g>
        <g id="Group_2558" data-name="Group 2558">
          <rect id="Rectangle_1146" data-name="Rectangle 1146" width="168.27" height="17.43" transform="translate(687.02 563.33)" fill="#f2aa3f"/>
          <rect id="Rectangle_1147" data-name="Rectangle 1147" width="96.16" height="11.79" transform="translate(723.08 696.56)" fill="#f09c20"/>
          <rect id="Rectangle_1148" data-name="Rectangle 1148" width="96.16" height="11.79" transform="translate(723.08 580.76)" fill="#f09c20"/>
          <rect id="Rectangle_1149" data-name="Rectangle 1149" width="103.99" height="12.02" transform="translate(777.17 592.57) rotate(90)" fill="#f2aa3f"/>
        </g>
      </g>
      <g id="Group_2563" data-name="Group 2563">
        <g id="Group_2560" data-name="Group 2560">
          <rect id="Rectangle_1150" data-name="Rectangle 1150" width="80.98" height="10" transform="translate(1023.96 614.5)" fill="#f2aa3f"/>
          <path id="Path_22559" data-name="Path 22559" d="M1019.14,676.32l6.48-39.44a173.3,173.3,0,0,0,1.67-42.86l-5.13-60.13,10.16-.83,7.14,83.71-.21.02-9.78,59.55h-10.33Z" fill="#f2aa3f"/>
          <rect id="Rectangle_1151" data-name="Rectangle 1151" width="10.2" height="61.21" transform="translate(1091.64 615.11)" fill="#f2aa3f"/>
          <path id="Path_22560" data-name="Path 22560" d="M1038.8,605.11h52.9a6.442,6.442,0,0,1,6.44,6.44v3.56H1038.8v-10Z" fill="#fefaf1"/>
          <path id="Path_22561" data-name="Path 22561" d="M1043.45,543.13l5.56,67.12-10.16.81-6.14-74.12,3.03-.24a7.122,7.122,0,0,1,7.72,6.43Z" fill="#fefaf1"/>
        </g>
        <g id="Group_2561" data-name="Group 2561">
          <rect id="Rectangle_1152" data-name="Rectangle 1152" width="81.49" height="10" transform="translate(1327.93 624.49) rotate(180)" fill="#f2aa3f"/>
          <path id="Path_22562" data-name="Path 22562" d="M1332.15,676.32l-6.48-39.44a173.3,173.3,0,0,1-1.67-42.86l5.13-60.13-10.16-.83-7.14,83.71.21.02,9.78,59.55h10.33Z" fill="#f2aa3f"/>
          <rect id="Rectangle_1153" data-name="Rectangle 1153" width="10.2" height="61.21" transform="translate(1249.45 615.11)" fill="#f2aa3f"/>
          <path id="Path_22563" data-name="Path 22563" d="M1253.14,605.11h59.34v3.56a6.442,6.442,0,0,1-6.44,6.44h-52.9v-10Z" transform="translate(2565.63 1220.22) rotate(180)" fill="#fdf2e2"/>
          <path id="Path_22564" data-name="Path 22564" d="M1307.84,543.13l-5.56,67.12,10.16.81,6.14-74.12-3.03-.24a7.122,7.122,0,0,0-7.72,6.43Z" fill="#fdf2e2"/>
        </g>
        <g id="Group_2562" data-name="Group 2562">
          <rect id="Rectangle_1154" data-name="Rectangle 1154" width="132.21" height="13.7" transform="translate(1099.24 562.52)" fill="#f2aa3f"/>
          <rect id="Rectangle_1155" data-name="Rectangle 1155" width="75.55" height="9.26" transform="translate(1127.57 667.21)" fill="#f09c20"/>
          <rect id="Rectangle_1156" data-name="Rectangle 1156" width="75.55" height="9.26" transform="translate(1127.57 576.22)" fill="#f09c20"/>
          <rect id="Rectangle_1157" data-name="Rectangle 1157" width="81.71" height="9.44" transform="translate(1170.07 585.5) rotate(90)" fill="#f2aa3f"/>
        </g>
      </g>
      <g id="Group_2567" data-name="Group 2567">
        <g id="Group_2564" data-name="Group 2564">
          <rect id="Rectangle_1158" data-name="Rectangle 1158" width="142.77" height="14.79" transform="translate(1672.33 631.77)" fill="#f2aa3f"/>
          <rect id="Rectangle_1159" data-name="Rectangle 1159" width="81.58" height="10" transform="translate(1702.93 767)" fill="#f2aa3f"/>
          <rect id="Rectangle_1160" data-name="Rectangle 1160" width="81.58" height="10" transform="translate(1702.93 646.56)" fill="#f2aa3f"/>
          <rect id="Rectangle_1161" data-name="Rectangle 1161" width="120.44" height="10.2" transform="translate(1748.82 646.56) rotate(90)" fill="#f2aa3f"/>
        </g>
        <g id="Group_2565" data-name="Group 2565">
          <rect id="Rectangle_1162" data-name="Rectangle 1162" width="80.98" height="10" transform="translate(1592.03 715.18)" fill="#f2aa3f"/>
          <path id="Path_22565" data-name="Path 22565" d="M1587.21,777l6.48-39.44a173.3,173.3,0,0,0,1.67-42.86l-5.13-60.13,10.16-.83,7.14,83.71-.21.02-9.78,59.55h-10.33Z" fill="#f2aa3f"/>
          <rect id="Rectangle_1163" data-name="Rectangle 1163" width="10.2" height="61.21" transform="translate(1659.71 715.79)" fill="#f2aa3f"/>
          <path id="Path_22566" data-name="Path 22566" d="M1606.88,705.79h52.9a6.442,6.442,0,0,1,6.44,6.44v3.56h-59.34v-10Z" fill="#fefaf1"/>
          <path id="Path_22567" data-name="Path 22567" d="M1611.53,643.81l5.56,67.12-10.16.81-6.14-74.12,3.03-.24a7.122,7.122,0,0,1,7.72,6.43Z" fill="#fefaf1"/>
        </g>
        <g id="Group_2566" data-name="Group 2566">
          <rect id="Rectangle_1164" data-name="Rectangle 1164" width="81.49" height="10" transform="translate(1896.01 725.18) rotate(180)" fill="#f2aa3f"/>
          <path id="Path_22568" data-name="Path 22568" d="M1900.23,777l-6.48-39.44a173.3,173.3,0,0,1-1.67-42.86l5.13-60.13-10.16-.83-7.14,83.71.21.02,9.78,59.55h10.33Z" fill="#f2aa3f"/>
          <rect id="Rectangle_1165" data-name="Rectangle 1165" width="10.2" height="61.21" transform="translate(1817.52 715.79)" fill="#f2aa3f"/>
          <path id="Path_22569" data-name="Path 22569" d="M1821.22,705.79h59.34v3.56a6.442,6.442,0,0,1-6.44,6.44h-52.9v-10Z" transform="translate(3701.78 1421.59) rotate(180)" fill="#fdf2e2"/>
          <path id="Path_22570" data-name="Path 22570" d="M1875.91,643.81l-5.56,67.12,10.16.81,6.14-74.12-3.03-.24a7.122,7.122,0,0,0-7.72,6.43Z" fill="#fdf2e2"/>
        </g>
      </g>
      <g id="Group_2571" data-name="Group 2571">
        <g id="Group_2568" data-name="Group 2568">
          <rect id="Rectangle_1166" data-name="Rectangle 1166" width="108.27" height="13.31" transform="translate(940.02 839.03)" fill="#f2aa3f"/>
          <path id="Path_22571" data-name="Path 22571" d="M935.02,921.3l8.62-52.49a230.836,230.836,0,0,0,2.22-57.04l-6.83-80.02,13.52-1.11,9.5,111.39-.28.02-13.02,79.24H935Z" fill="#f2aa3f"/>
          <rect id="Rectangle_1167" data-name="Rectangle 1167" width="13.57" height="81.46" transform="translate(1031.5 839.85)" fill="#f2aa3f"/>
          <path id="Path_22572" data-name="Path 22572" d="M961.19,826.54h70.4a8.574,8.574,0,0,1,8.57,8.57v4.74H961.19V826.54h0Z" fill="#fefaf1"/>
          <path id="Path_22573" data-name="Path 22573" d="M967.37,744.06l7.4,89.32-13.53,1.08-8.18-98.63,4.03-.32a9.477,9.477,0,0,1,10.27,8.56Z" fill="#fefaf1"/>
        </g>
        <g id="Group_2569" data-name="Group 2569">
          <rect id="Rectangle_1168" data-name="Rectangle 1168" width="108.04" height="13.31" transform="translate(1346.33 852.34) rotate(180)" fill="#f2aa3f"/>
          <path id="Path_22574" data-name="Path 22574" d="M1351.57,921.3l-8.62-52.49a230.839,230.839,0,0,1-2.22-57.04l6.83-80.02-13.52-1.11-9.5,111.39.28.02,13.02,79.24h13.75Z" fill="#f2aa3f"/>
          <rect id="Rectangle_1169" data-name="Rectangle 1169" width="13.57" height="81.46" transform="translate(1241.51 839.85)" fill="#f2aa3f"/>
          <path id="Path_22575" data-name="Path 22575" d="M1246.43,826.54h78.97v4.74a8.574,8.574,0,0,1-8.57,8.57h-70.4V826.54Z" transform="translate(2571.83 1666.38) rotate(180)" fill="#fdf2e2"/>
          <path id="Path_22576" data-name="Path 22576" d="M1319.21,744.06l-7.4,89.32,13.53,1.08,8.18-98.63-4.03-.32a9.477,9.477,0,0,0-10.27,8.56Z" fill="#fdf2e2"/>
        </g>
        <g id="Group_2570" data-name="Group 2570">
          <rect id="Rectangle_1170" data-name="Rectangle 1170" width="168.27" height="17.43" transform="translate(1059.16 775.52)" fill="#f2aa3f"/>
          <rect id="Rectangle_1171" data-name="Rectangle 1171" width="96.16" height="11.79" transform="translate(1095.22 908.75)" fill="#f09c20"/>
          <rect id="Rectangle_1172" data-name="Rectangle 1172" width="96.16" height="11.79" transform="translate(1095.22 792.95)" fill="#f09c20"/>
          <rect id="Rectangle_1173" data-name="Rectangle 1173" width="103.99" height="12.02" transform="translate(1149.3 804.76) rotate(90)" fill="#f2aa3f"/>
        </g>
      </g>
      <g id="Group_2572" data-name="Group 2572">
        <rect id="Rectangle_1174" data-name="Rectangle 1174" width="7.1" height="449.27" transform="translate(195.08 -21.15)" fill="#fce9ce"/>
        <rect id="Rectangle_1175" data-name="Rectangle 1175" width="7.1" height="449.27" transform="translate(270.25 -47.75)" fill="#fce9ce"/>
        <rect id="Rectangle_1176" data-name="Rectangle 1176" width="7.1" height="449.27" transform="translate(120.23 -47.75)" fill="#fce9ce"/>
        <path id="Path_22577" data-name="Path 22577" d="M198.63,423.48h0a18,18,0,0,1,17.99,17.99v84.87H180.64V441.47a18,18,0,0,1,17.99-17.99Z" fill="#fcd46e"/>
        <path id="Path_22578" data-name="Path 22578" d="M273.8,396.87h0a18,18,0,0,1,17.99,17.99v84.87H255.81V414.86A18,18,0,0,1,273.8,396.87Z" fill="#fcd46e"/>
        <path id="Path_22579" data-name="Path 22579" d="M123.78,396.87h0a18,18,0,0,1,17.99,17.99v84.87H105.79V414.86a18,18,0,0,1,17.99-17.99Z" fill="#fcd46e"/>
        <path id="Path_22580" data-name="Path 22580" d="M141.77,499.74V414.52a17.818,17.818,0,0,0-17.99-17.65V499.73h17.99Z" fill="#f4b456"/>
        <path id="Path_22581" data-name="Path 22581" d="M216.63,526.34V441.12a17.818,17.818,0,0,0-17.99-17.65V526.33h17.99Z" fill="#f4b456"/>
        <path id="Path_22582" data-name="Path 22582" d="M291.79,499.74V414.52a17.818,17.818,0,0,0-17.99-17.65V499.73h17.99Z" fill="#f4b456"/>
        <rect id="Rectangle_1177" data-name="Rectangle 1177" width="35.98" height="8.96" transform="translate(105.79 490.78)" fill="#fff"/>
        <rect id="Rectangle_1178" data-name="Rectangle 1178" width="35.98" height="8.96" transform="translate(180.64 517.39)" fill="#fff"/>
        <rect id="Rectangle_1179" data-name="Rectangle 1179" width="35.98" height="8.96" transform="translate(255.81 490.78)" fill="#fff"/>
      </g>
    </g>
    <g id="DEI-Toolkit-Illustrations_4-2" data-name="DEI-Toolkit-Illustrations_4" transform="translate(16.816 -31.624)">
      <g id="Group_1252" data-name="Group 1252" transform="translate(237.062 318.081)">
        <path id="Path_19233" data-name="Path 19233" d="M548.371,943.752c.051-3.525.082-7.05.082-10.6,0-75.351-8.517-139.912-28.353-203l-35.852,26.081a633.116,633.116,0,0,1,30.686,173.573c.092,2.353.143,4.707.2,7.05a4.857,4.857,0,0,0-.4.285c-1,.876-9.831,8.752-12.929,13.795-3.077,5.023-5.257,13.092-5.491,14a5.694,5.694,0,0,0,4.167,6.948,6.029,6.029,0,0,0,1.467.183,5.8,5.8,0,0,0,5.624-4.269c.53-2.007,2.323-7.865,4.187-10.942v19.184c0,9.842,7.875,18.226,17.7,19.653,12.093,1.762,23.86-7.488,23.86-19.653V956.711a19.49,19.49,0,0,0-4.941-12.949Z" transform="translate(-209.534 -238.24)" fill="#cc895a"/>
        <ellipse id="Ellipse_495" data-name="Ellipse 495" cx="26.489" cy="22.821" rx="26.489" ry="22.821" transform="translate(34.989 292.459)" fill="#232a2f"/>
        <ellipse id="Ellipse_496" data-name="Ellipse 496" cx="26.489" cy="22.821" rx="26.489" ry="22.821" transform="translate(66.98 350.347)" fill="#232a2f"/>
        <ellipse id="Ellipse_497" data-name="Ellipse 497" cx="26.489" cy="22.821" rx="26.489" ry="22.821" transform="translate(43.486 327.516)" fill="#232a2f"/>
        <ellipse id="Ellipse_498" data-name="Ellipse 498" cx="26.489" cy="22.821" rx="26.489" ry="22.821" transform="translate(61.478 315.28)" fill="#232a2f"/>
        <path id="Path_19234" data-name="Path 19234" d="M287.254,567.789c10.86,43.809,43.493,77.572,84.173,86.058v17.788c-5.919.632-13.835,1.956-11.859,1.62,5.807,14.925,17.574,25.154,31.175,25.154s25.378-10.249,31.185-25.195c-5.9-1.2-10.382-2.007-10.382-1.7V653.838c40.681-8.476,73.313-42.25,84.173-86.058,12.042-3.953,22.342-18.94,22.342-31.084,0-11.217-8.772-16.606-19.6-18.359-5.858-60.181-51.225-102.573-106.974-102.573s-99.333,44.552-106.974,102.573c-10.82,1.752-19.6,7.142-19.6,18.359,0,12.154,10.29,27.141,22.342,31.084Z" transform="translate(-231.43 -269.625)" fill="#cd9d7a"/>
        <path id="Path_19235" data-name="Path 19235" d="M486.973,518.346C481.114,458.166,435.747,415.773,380,415.773V698.379c13.3-.367,24.747-10.494,30.442-25.164-5.9-1.2-10.382-2.007-10.382-1.7V653.837c40.681-8.476,73.313-42.25,84.173-86.058,12.042-3.953,22.342-18.939,22.342-31.084,0-11.217-8.772-16.606-19.6-18.359Z" transform="translate(-219.941 -269.624)" fill="#cc895a"/>
        <path id="Path_19236" data-name="Path 19236" d="M538.142,754.277l-2.394,2.618-32.826,35.872-2.333,2.557a3.28,3.28,0,0,1-5.563-1.314c-4.075-14.722-6.337-31.379-11.879-44.542l.3,13.265c3.454,30.33,6.785,88.585,9.444,145.159,3.016,63.9,5.2,125.639,5.746,142.571H379.627V991.587h-.7V676.064h.061c.214,0,.428-.02.642-.031V652.407l.458-.346h.01l11.726-9,8.324-6.367,2.119-1.62.071-.061,7.121,15.078c6.4.683,12.908,1.345,19,2.965,1.009.265,2.007.53,3.016.8a184.667,184.667,0,0,1,36.8,11.441c27.222,11.594,51.908,31.97,62.33,59.264,3.331,8.741,5.369,17.432,8.2,26.672a3.173,3.173,0,0,1-.672,3.036Z" transform="translate(-220.048 -247.738)" fill="#dadbde"/>
        <path id="Path_19237" data-name="Path 19237" d="M395.171,674.445V989.968h-.7v60.649H275.391c.458-13.754,2.639-76.818,5.726-142.571.3-6.123.591-12.287.886-18.43h0c.795-16.077,1.64-32.062,2.527-47.252,1.905-33.091,3.994-62.514,6.133-81.26l.3-13.265c-5.532,13.153-7.8,29.831-11.879,44.542a3.28,3.28,0,0,1-4.615,2.027h-.01a3.1,3.1,0,0,1-.937-.713L240.527,757.64c-.071-.082-.143-.153-.214-.224l-4.35-4.768a3.168,3.168,0,0,1-.672-3.046c2.832-9.23,4.87-17.931,8.2-26.662,10.422-27.3,35.108-47.69,62.33-59.264a184.278,184.278,0,0,1,36.8-11.451c1.009-.265,2.007-.52,3.016-.795,6.092-1.62,12.6-2.282,19-2.965l7.121-15.088L374.4,635.4l20.06,15.374h.01v23.636c.234.01.458.031.683.031h.01Z" transform="translate(-234.401 -247.901)" fill="#ebebed"/>
        <ellipse id="Ellipse_499" data-name="Ellipse 499" cx="6.632" cy="6.5" rx="6.632" ry="6.5" transform="translate(138.581 477.351)" fill="#414042"/>
        <ellipse id="Ellipse_500" data-name="Ellipse 500" cx="6.632" cy="6.5" rx="6.632" ry="6.5" transform="translate(168.289 477.351)" fill="#414042"/>
        <ellipse id="Ellipse_501" data-name="Ellipse 501" cx="6.632" cy="6.5" rx="6.632" ry="6.5" transform="translate(138.52 576.175)" fill="#414042"/>
        <ellipse id="Ellipse_502" data-name="Ellipse 502" cx="6.632" cy="6.5" rx="6.632" ry="6.5" transform="translate(168.228 576.175)" fill="#414042"/>
        <ellipse id="Ellipse_503" data-name="Ellipse 503" cx="6.632" cy="6.5" rx="6.632" ry="6.5" transform="translate(138.52 674.998)" fill="#414042"/>
        <ellipse id="Ellipse_504" data-name="Ellipse 504" cx="6.632" cy="6.5" rx="6.632" ry="6.5" transform="translate(168.228 674.998)" fill="#414042"/>
        <path id="Path_19238" data-name="Path 19238" d="M420.719,702.033V1047.01h-6.184v-338.9a6.132,6.132,0,0,0-6.184-6.072H377.562V669.615h6.184v26.346h30.788a6.192,6.192,0,0,1,4.371,1.783A6.02,6.02,0,0,1,420.719,702.033Z" transform="translate(-220.184 -244.284)" fill="#d42e28"/>
        <path id="Path_19239" data-name="Path 19239" d="M380.008,650.787v27.548l11.115-15.883,18.461-11.258-8.263-17.809Z" transform="translate(-219.94 -247.901)" fill="#bbbcbe"/>
        <path id="Path_19240" data-name="Path 19240" d="M509.764,489.571a14.852,14.852,0,0,0-13.937-9.587c-.2,0-.387.051-.591.061a15.876,15.876,0,0,0-11.757-4.8c-5.736,0-10.657,2.659-13,6.469a10.787,10.787,0,0,0-10.035-.285c-2.516-3.719-7.59-6.286-13.509-6.286-5.226,0-9.831,1.987-12.572,5.013a19.624,19.624,0,0,0-12.277-4.055,19.162,19.162,0,0,0-13.122,4.829,11.2,11.2,0,0,0-10.27-6.622,11.063,11.063,0,0,0-10.127,6.357,14.762,14.762,0,0,0-22.251,1.039,12.985,12.985,0,0,0-12.48-9.241,13.311,13.311,0,0,0-4.34.774,19.745,19.745,0,0,0-35.709,3.3,24.344,24.344,0,0,0-13.764-4.075c-11.584,0-20.977,7.4-20.987,16.535-9.414,1.294-16.464,6.51-16.464,12.766a9.545,9.545,0,0,0,2.7,6.408c-5.267,1.651-8.976,5.583-8.976,10.188,0,6.082,6.469,11.023,14.457,11.023s14.457-4.931,14.457-11.023a8.605,8.605,0,0,0-.825-3.535c9.271-.224,16.983-4.177,19.378-9.536,6.592-.937,12.1-4.289,15.017-8.864a19.815,19.815,0,0,0,27.742-.52,13.2,13.2,0,0,0,17.992-3.26,13.89,13.89,0,0,0,13.407,9.19,13.731,13.731,0,0,0,13.173-8.517,11.244,11.244,0,0,0,15.16.051c2.374,4.931,8.538,8.466,15.842,8.466,6.378,0,11.869-2.71,14.752-6.673a18.1,18.1,0,0,0,10.1,2.944,18.856,18.856,0,0,0,8.609-2.017,10.972,10.972,0,0,0,19.408-.214,16.606,16.606,0,0,0,6.4,2.058,14.7,14.7,0,0,0,10.769,10.758c1.161,8.049,7.661,14.233,15.557,14.233,8.731,0,15.8-7.519,15.8-16.79,0-8.517-5.98-15.476-13.713-16.566Z" transform="translate(-232.29 -264.872)" fill="#232a2f"/>
        <path id="Path_19241" data-name="Path 19241" d="M382.716,678.336l-8.639-16.413-21.2-13.458,7.132-15.078,22.709,17.4Z" transform="translate(-222.649 -247.901)" fill="#dadbde"/>
        <g id="Group_1251" data-name="Group 1251" transform="translate(3.664)">
          <path id="Path_19242" data-name="Path 19242" d="M552.128,331.355c-3.24-24.961-23.84-45.021-49.32-48.036a57.32,57.32,0,0,0-50.2,19.041,9.514,9.514,0,0,1-14.324-.041,57.508,57.508,0,0,0-86.17,0,9.507,9.507,0,0,1-14.324.041,57.347,57.347,0,0,0-50.2-19.041c-25.47,3.016-46.08,23.076-49.32,48.036-3.484,26.856,12.531,50.573,36.045,59.417a5.18,5.18,0,0,1,3.3,4.86V507.475h235.16V399.686a11.172,11.172,0,0,1,6.52-10.239c21.741-9.719,36.157-32.479,32.836-58.092Z" transform="translate(-237.8 -282.889)" fill="#ebebed"/>
          <path id="Path_19243" data-name="Path 19243" d="M488.681,283.309a57.309,57.309,0,0,0-50.2,19.041,9.5,9.5,0,0,1-14.294-.01,57.177,57.177,0,0,0-44.746-19.429l-.031.031V507.456H498.655V399.667a11.18,11.18,0,0,1,6.51-10.239c21.741-9.719,36.157-32.469,32.836-58.082-3.24-24.961-23.84-45.021-49.31-48.036Z" transform="translate(-223.663 -282.89)" fill="#dadbde"/>
          <rect id="Rectangle_939" data-name="Rectangle 939" width="235.16" height="30.452" transform="translate(39.832 194.124)" fill="#dadbde"/>
          <rect id="Rectangle_940" data-name="Rectangle 940" width="119.241" height="30.452" transform="translate(155.741 194.124)" fill="#bbbcbe"/>
        </g>
        <ellipse id="Ellipse_505" data-name="Ellipse 505" cx="11.299" cy="9.495" rx="11.299" ry="9.495" transform="translate(44.383 246.776)" fill="#232a2f"/>
        <ellipse id="Ellipse_506" data-name="Ellipse 506" cx="11.299" cy="9.495" rx="11.299" ry="9.495" transform="translate(40.552 257.463)" fill="#232a2f"/>
        <ellipse id="Ellipse_507" data-name="Ellipse 507" cx="11.299" cy="9.495" rx="11.299" ry="9.495" transform="translate(44.383 269.536)" fill="#232a2f"/>
        <ellipse id="Ellipse_508" data-name="Ellipse 508" cx="11.299" cy="9.495" rx="11.299" ry="9.495" transform="translate(50.027 257.463)" fill="#232a2f"/>
        <ellipse id="Ellipse_509" data-name="Ellipse 509" cx="11.299" cy="9.495" rx="11.299" ry="9.495" transform="translate(234.053 225.004)" fill="#232a2f"/>
        <ellipse id="Ellipse_510" data-name="Ellipse 510" cx="11.299" cy="9.505" rx="11.299" ry="9.505" transform="translate(246.347 234.564) rotate(-5.11)" fill="#232a2f"/>
        <ellipse id="Ellipse_511" data-name="Ellipse 511" cx="11.299" cy="9.505" rx="11.299" ry="9.505" transform="translate(254.62 244.09) rotate(-5.11)" fill="#232a2f"/>
        <ellipse id="Ellipse_512" data-name="Ellipse 512" cx="11.299" cy="9.505" rx="11.299" ry="9.505" transform="translate(263.807 252.825) rotate(-5.11)" fill="#232a2f"/>
        <path id="Path_19244" data-name="Path 19244" d="M434.642,893.338,343.949,908.63,320.648,775.7,411.342,760.4Z" transform="translate(-225.866 -235.221)" fill="#b6b6b6"/>
        <path id="Path_19245" data-name="Path 19245" d="M432.243,886.635l-88.208,25.694L304.882,783.023,393.1,757.329Z" transform="translate(-227.44 -235.528)" fill="#c6c6c6"/>
        <ellipse id="Ellipse_513" data-name="Ellipse 513" cx="11.299" cy="9.495" rx="11.299" ry="9.495" transform="translate(65.37 233.511)" fill="#232a2f"/>
        <ellipse id="Ellipse_514" data-name="Ellipse 514" cx="11.299" cy="9.495" rx="11.299" ry="9.495" transform="translate(54.071 242.028)" fill="#232a2f"/>
        <ellipse id="Ellipse_515" data-name="Ellipse 515" cx="11.299" cy="9.495" rx="11.299" ry="9.495" transform="translate(76.668 225.595)" fill="#232a2f"/>
        <path id="Path_19246" data-name="Path 19246" d="M368.475,874.63c-1.151-8.232-4.2-14.62-12.8-20.193-4.259-2.761-10.993-1.019-15.812-2.506,2.934-1.192,6.683-1.966,9.6-3.067,2.119-.8,4.87-2.812,5.114-5.227a4.481,4.481,0,0,0-.632-2.669c-1.65-2.863-5.023-3.189-8.018-2.649-2,.367-8.2,1.61-11.258,4.758s-9.6,8.813-12.878,12.511a3.58,3.58,0,0,1-.917.846c-3.138.835-4.87,1.172-6.846.01-10.3-6.062-18.349-12.429-24.523-19.052A63.659,63.659,0,0,1,278.3,820.909L273.727,804.9a70.169,70.169,0,0,1,.8-21.374h0c-26.407-29.4-32.846-35.363-37.787-40.966-3.892,25.562-2.7,64.123,2.873,82.472l6.48,15.781a95.258,95.258,0,0,0,20.172,25.857A132.692,132.692,0,0,0,299.258,888.2c3.545,1.671,10.219,2.282,14.11,3.515a70.845,70.845,0,0,0,15.893,3.005c5.787.52,13.723,1.365,19.133,1.019,6.092-.387,9.923-1.977,13.479-4.656a17.517,17.517,0,0,0,6.622-16.433Z" transform="translate(-234.469 -237.002)" fill="#cd9d7a"/>
      </g>
      <path id="Path_19247" data-name="Path 19247" d="M1233.77,1025.7H208.489l41.863-123.5c3.749-11.074,20.885-19.072,40.854-19.072h859.869c19.958,0,37.1,8,40.854,19.072l41.852,123.5Z" transform="translate(0 95.112)" fill="#ffc471"/>
      <g id="Group_1253" data-name="Group 1253" transform="translate(635.285 939.654)">
        <rect id="Rectangle_941" data-name="Rectangle 941" width="169.09" height="12.857" transform="translate(0 25.725)" fill="#b6b6b6"/>
        <rect id="Rectangle_942" data-name="Rectangle 942" width="169.09" height="12.857" transform="translate(0 6.429)" fill="#b6b6b6"/>
        <rect id="Rectangle_943" data-name="Rectangle 943" width="169.09" height="6.429" transform="translate(0 19.296)" fill="#ebebeb"/>
        <rect id="Rectangle_944" data-name="Rectangle 944" width="169.09" height="6.429" fill="#ebebeb"/>
      </g>
      <path id="Path_19248" data-name="Path 19248" d="M1105.938,883.124H660.528V1025.7h528.116l-41.852-123.5c-3.749-11.074-20.885-19.072-40.854-19.072Z" transform="translate(45.126 95.112)" fill="#fea710"/>
      <g id="Group_1256" data-name="Group 1256" transform="translate(610.911 -69.632)">
        <path id="Path_19249" data-name="Path 19249" d="M903.087,638.107V503.227h-.01c-23.494,0-46.315-15.873-61.668-38.266-5.522,1-11.054,2.089-16.586,3.362-19.8,3.352-41.445,10.432-59.865,18.267C722.871,504.5,684.707,536,668.6,578.211c-5.155,13.509-8.3,26.937-12.684,41.221a4.877,4.877,0,0,0,1.049,4.707l58.051,63.451a5.061,5.061,0,0,0,8.589-2.027c6.317-22.75,9.811-48.526,18.359-68.861l-7.07,324.346v38.928a60.558,60.558,0,0,0,1.07,11.034H903.076V638.1Z" transform="translate(-566.266 122.999)" fill="#e23f39"/>
        <path id="Path_19250" data-name="Path 19250" d="M880.633,638.107V503.227h.01c23.494,0,46.315-15.873,61.668-38.266,5.522,1,11.054,2.089,16.586,3.362,19.8,3.352,41.445,10.432,59.865,18.267,42.087,17.911,80.251,49.412,96.358,91.621,5.155,13.509,8.3,26.937,12.684,41.221a4.877,4.877,0,0,1-1.049,4.707L1068.7,687.59a5.061,5.061,0,0,1-8.589-2.027c-6.316-22.75-9.811-48.526-18.359-68.861l7.07,324.346s-.408,46.386-1.07,49.972H880.642V638.107Z" transform="translate(-543.812 122.999)" fill="#ba1e18"/>
        <path id="Path_19251" data-name="Path 19251" d="M575.732,157.587s99.242,158.261,336.1,86.007a6.588,6.588,0,0,1,3.331-.02c269.3,61.128,336.561-85.987,336.561-85.987Z" transform="translate(-574.25 92.315)" fill="#b78d54"/>
        <path id="Path_19252" data-name="Path 19252" d="M670.3,257.451c0-20.508,16.036-30.35,35.821-33.549,13.958-106.037,96.154-187.47,195.518-187.47s185.748,85.64,196.445,195.63q-.4-4.111-.937-8.161c19.775,3.2,35.821,13.041,35.821,33.549,0,22.21-18.817,49.6-40.823,56.819-19.846,80.068-79.5,141.787-153.849,157.283v32.306c0-.744,27.579,4.972,27.579,4.972-16.27,23.3-38.755,37.584-63.42,37.584s-47.7-15.863-63.97-38.511c8.843-1.6,17.676-2.9,26.5-3.841v-32.51c-74.352-15.5-134-77.215-153.849-157.283-22.016-7.223-40.823-34.609-40.823-56.819Z" transform="translate(-564.809 80.22)" fill="#a76e4d"/>
        <ellipse id="Ellipse_516" data-name="Ellipse 516" cx="20.06" cy="19.673" rx="20.06" ry="19.673" transform="translate(196.267 248.048)" fill="#282729"/>
        <ellipse id="Ellipse_517" data-name="Ellipse 517" cx="18.685" cy="18.328" rx="18.685" ry="18.328" transform="translate(502.895 259.132)" fill="#282729"/>
        <path id="Path_19253" data-name="Path 19253" d="M881.392,546c24.665,0,47.14-14.284,63.41-37.584,0,0-27.579-5.715-27.579-4.972V471.134c74.352-15.5,133.993-77.215,153.849-157.283,22.016-7.223,40.823-34.609,40.823-56.819,0-20.508-16.036-30.35-35.821-33.549.357,2.71.662,5.43.937,8.161-9.241-94.942-73-171.688-155.8-190.923H881.392V546Z" transform="translate(-543.736 80.648)" fill="#965b39"/>
        <path id="Path_19254" data-name="Path 19254" d="M1098.495,189.634a18.912,18.912,0,0,0-6.062,1.009c-7-36.779-28.088-97.774-91.621-140.544C912.411-9.409,744.96,74.785,710.79,189.594a19.506,19.506,0,0,0-2.333-.153,18.3,18.3,0,0,0-2.914,36.412l14.121,71.2s-.642-30.3,4.473-59.335A20.372,20.372,0,0,0,732,239.3a20.159,20.159,0,0,0,15.333-7,20.208,20.208,0,0,0,26.652-9.128,20.22,20.22,0,0,0,12.47,4.279,19.875,19.875,0,0,0,20.06-19.673,19.348,19.348,0,0,0-4.065-11.838,15.518,15.518,0,0,0,11.37-4.962,15.208,15.208,0,0,0,2.792-4.32,14.515,14.515,0,0,0,1.192,1.182,15.668,15.668,0,0,0,21.833-1.049,14.711,14.711,0,0,0,2.007-2.751A15.683,15.683,0,0,0,852.7,181.3a19.865,19.865,0,0,0,20.05,19.632,20.132,20.132,0,0,0,16.729-8.833,20.1,20.1,0,0,0,38.979-6.48c0-.377-.041-.744-.061-1.11a15.607,15.607,0,0,0,22.077-5.909,16.343,16.343,0,0,0,.988,1.671,15.64,15.64,0,0,0,21.273,4.116,15.213,15.213,0,0,0,7.519,8.925,14.986,14.986,0,0,0,2.578,6.806,15.645,15.645,0,0,0,19.979,4.87,14.86,14.86,0,0,0,2.649,7.672,15.654,15.654,0,0,0,21.486,3.984c.428-.285.825-.591,1.212-.907a15.724,15.724,0,0,0,16.392,2.139,17.357,17.357,0,0,0,13.3,9.393,9.993,9.993,0,0,0-1.172,4.7,10.322,10.322,0,0,0,10.422,10.219,10.523,10.523,0,0,0,6.144-1.976c1.029,14.844,3.423,27.885,3.423,27.885-.4-14.019,11.94-34.537,17.055-42.433a18.983,18.983,0,0,0,4.788.632,18.332,18.332,0,1,0,0-36.656Z" transform="translate(-562.865 79.625)" fill="#353436"/>
        <ellipse id="Ellipse_518" data-name="Ellipse 518" cx="15.455" cy="15.16" rx="15.455" ry="15.16" transform="translate(430.734 250.075)" fill="#282729"/>
        <path id="Path_19255" data-name="Path 19255" d="M981.7,50.095c-27.844-18.746-63.532-23.168-100.433-16.932V165.729c25.541-10.249,56.116-28.027,96.715,4.7,37.431,30.177,54.088,45.3,72.182,39.7a3.33,3.33,0,0,1,4.411,3.535c-3.209,20.743,2.965,54.435,2.965,54.435-.5-17.666,19.245-45.7,19.245-45.7S1078.339,115.155,981.7,50.1Z" transform="translate(-543.749 79.629)" fill="#282729"/>
        <path id="Path_19256" data-name="Path 19256" d="M1079.441,189.633a18.91,18.91,0,0,0-6.062,1.009c-7-36.779-28.088-97.774-91.621-140.544C953.742,31.24,917.778,26.829,880.633,33.237V203.326a20.183,20.183,0,0,0,8.7,1.966,19.875,19.875,0,0,0,20.06-19.673c0-.377-.041-.744-.061-1.11A15.607,15.607,0,0,0,931.41,178.6a16.331,16.331,0,0,0,.988,1.671,15.64,15.64,0,0,0,21.273,4.116,15.214,15.214,0,0,0,7.519,8.925,14.987,14.987,0,0,0,2.578,6.806,15.645,15.645,0,0,0,19.979,4.87,14.861,14.861,0,0,0,2.649,7.672,15.655,15.655,0,0,0,21.487,3.984c.428-.285.825-.591,1.212-.907a15.724,15.724,0,0,0,16.392,2.139,17.357,17.357,0,0,0,13.3,9.393,9.993,9.993,0,0,0-1.172,4.7,10.322,10.322,0,0,0,10.422,10.219,10.522,10.522,0,0,0,6.143-1.976c1.029,14.844,3.423,27.885,3.423,27.885-.4-14.019,11.94-34.537,17.055-42.433a18.983,18.983,0,0,0,4.788.632,18.332,18.332,0,1,0,0-36.656Z" transform="translate(-543.812 79.626)" fill="#1d1d1d"/>
        <g id="Group_1254" data-name="Group 1254" transform="translate(0)">
          <path id="Path_19257" data-name="Path 19257" d="M1252.208,158.409l-137.436-40.08c-130.529,21.385-264.756,19.571-401.815,0L575.52,158.409a1.582,1.582,0,0,0,.357,3.1,5129.205,5129.205,0,0,0,675.985,0,1.582,1.582,0,0,0,.357-3.1Z" transform="translate(-574.384 88.396)" fill="#e7ca9c"/>
          <path id="Path_19258" data-name="Path 19258" d="M1102.194,137.093V108.169c0-98.2-142.642-174.6-181.265-177.8H881.643c-22.638.591-181.265,79.609-181.265,177.8v28.924h0C837.448,156.664,971.675,158.478,1102.194,137.093Z" transform="translate(-561.806 69.632)" fill="#d7b786"/>
          <path id="Path_19259" data-name="Path 19259" d="M902.855-69.632H881.429V152.4c68.453.448,136.051-4.391,202.691-15.3V108.169c0-98.2-142.642-174.6-181.265-177.8Z" transform="translate(-543.732 69.632)" fill="#c79f69"/>
          <path id="Path_19260" data-name="Path 19260" d="M1221.556,158.409l-137.436-40.08c-66.63,10.911-134.237,15.751-202.691,15.3v39.01q169.89.061,339.77-11.135a1.582,1.582,0,0,0,.357-3.1Z" transform="translate(-543.732 88.396)" fill="#d7ba8b"/>
        </g>
        <path id="Path_19261" data-name="Path 19261" d="M897.622,646.16v425.564H719.475a24.847,24.847,0,0,1-.56-5.247V979.9l45.775-139.382V656.287a10.228,10.228,0,0,1,10.32-10.127h4.432l-46.07-152.015a10.932,10.932,0,0,1,7.529-13.621l24.635-7.193a11.219,11.219,0,0,1,13.886,7.386l46.121,152.26a18.763,18.763,0,0,0,18.023,13.183H897.6Z" transform="translate(-559.956 123.789)" fill="#316cc9"/>
        <path id="Path_19262" data-name="Path 19262" d="M1060.089,979.9v86.578a24.779,24.779,0,0,1-.56,5.247H881.4V646.16h54.037a18.732,18.732,0,0,0,18-13.183l46.141-152.26a11.21,11.21,0,0,1,13.886-7.386l24.635,7.193a10.9,10.9,0,0,1,7.509,13.621L999.562,646.16h4.411a10.233,10.233,0,0,1,10.341,10.127v184.23L1060.069,979.9Z" transform="translate(-543.735 123.789)" fill="#30538e"/>
        <path id="Path_19263" data-name="Path 19263" d="M953.447,675.794H823.673v89.879l64.775,39.621,64.837-39.55Z" transform="translate(-549.498 144.046)" fill="#4e86e9"/>
        <path id="Path_19264" data-name="Path 19264" d="M880.9,804.173l1.834,1.121,64.837-39.55.163-89.95H880.9Z" transform="translate(-543.785 144.046)" fill="#30538e"/>
        <path id="Path_19265" data-name="Path 19265" d="M972.067,834.93,824.718,859.778,786.87,643.8l147.339-24.849Z" transform="translate(-553.172 138.372)" fill="#b6b6b6"/>
        <path id="Path_19266" data-name="Path 19266" d="M961.873,844.419l-149.387,5.919-9.016-218.961,149.377-5.929Z" transform="translate(-551.515 139.02)" fill="#ebebeb"/>
        <g id="Group_1255" data-name="Group 1255" transform="translate(378.262 754.26)">
          <path id="Path_19267" data-name="Path 19267" d="M1038.895,627.116l-.4.183c.092.214.173.428.265.632l.133-.825Z" transform="translate(-906.314 -615.074)" fill="#965b39"/>
          <path id="Path_19268" data-name="Path 19268" d="M1116.483,616.166l-51.531,56.33-.7-.357c2.241,12.8,2.547,25.266.183,37.349l-8,22.77a105.864,105.864,0,0,1-20.712,26.978,177,177,0,0,1-32.693,24.146c-3.046,1.793-5.705,1.192-10.575-.02a5.552,5.552,0,0,1-1.416-1.314c-5.063-5.715-15.17-14.477-19.9-19.337s-14.324-6.785-17.411-7.346c-6.418-1.172-9.393.346-13.143,5.552a2.891,2.891,0,0,0-.642,1.314,2.779,2.779,0,0,0,.285,1.324c3.984,9.363,14.518,9.465,22.862,12.857-7.458,2.3-17.86-.4-24.451,3.882-14.63,9.5-18.868,20.5-20.233,35.179a22.286,22.286,0,0,0,7.366,18.695c6.541,5.807,12.827,9.22,24.166,9.954,8.354.54,20.631-.764,29.576-1.579a112.954,112.954,0,0,0,24.828-5.074c6.011-1.895,16.067-2.415,21.548-5.013,18.98-8.965,34.68-19.194,47.67-30.411a157.232,157.232,0,0,0,32.9-39.041l10.565-22.4h0c11.533-31.45,7.723-83.8-.53-124.436Z" transform="translate(-918.312 -616.166)" fill="#965b39"/>
        </g>
        <path id="Path_19269" data-name="Path 19269" d="M861.822,815c-1.783-12.725-6.49-22.6-19.785-31.216-6.592-4.269-16.983-1.579-24.451-3.882,4.534-1.844,10.331-3.036,14.834-4.748,3.27-1.243,7.519-4.35,7.9-8.079a6.939,6.939,0,0,0-.978-4.126c-2.557-4.432-7.763-4.931-12.4-4.085-3.087.56-12.674,2.486-17.411,7.346s-14.834,13.621-19.9,19.337a5.764,5.764,0,0,1-1.416,1.314c-4.839,1.294-7.529,1.813-10.575.02-15.934-9.383-28.374-19.215-37.92-29.454a98.351,98.351,0,0,1-17.33-25.49l-7.06-24.747a108.826,108.826,0,0,1,1.243-33.05h-.01c-40.823-45.459-50.777-54.669-58.428-63.329-6.021,39.519-4.177,99.14,4.442,127.493l10.015,24.4a147.256,147.256,0,0,0,31.186,39.978c13.581,12.358,30.4,23.545,50.991,33.274,5.481,2.588,15.791,3.525,21.813,5.43a110.148,110.148,0,0,0,24.563,4.656c8.945.815,21.211,2.109,29.576,1.579,9.414-.6,15.343-3.067,20.834-7.2A27.153,27.153,0,0,0,861.8,815.01Z" transform="translate(-566.375 137.559)" fill="#a76e4d"/>
      </g>
    </g>
  </g>
</svg>
