<svg xmlns="http://www.w3.org/2000/svg" xmlns:xlink="http://www.w3.org/1999/xlink" width="1920" height="1080" viewBox="0 0 1920 1080">
  <defs>
    <clipPath id="clip-path">
      <rect id="Rectangle_1437" data-name="Rectangle 1437" width="1920" height="1080" transform="translate(1920 1080) rotate(180)" fill="none"/>
    </clipPath>
    <clipPath id="clip-Question_Seven">
      <rect width="1920" height="1080"/>
    </clipPath>
  </defs>
  <g id="Question_Seven" data-name="Question Seven" clip-path="url(#clip-Question_Seven)">
    <rect width="1920" height="1080" fill="#fff"/>
    <g id="DEI-Toolkit-Illustrations_7">
      <g id="Group_3473" data-name="Group 3473" clip-path="url(#clip-path)">
        <rect id="Rectangle_1420" data-name="Rectangle 1420" width="2665.45" height="1138.14" transform="translate(2056.47 1102.06) rotate(180)" fill="#9bbbf5"/>
        <g id="Group_3458" data-name="Group 3458">
          <path id="Path_25294" data-name="Path 25294" d="M553.36,549.59V600.1H545.4V549.59a1.118,1.118,0,0,1,1.12-1.12h5.72a1.118,1.118,0,0,1,1.12,1.12Z" fill="#83aaf2"/>
          <path id="Path_25295" data-name="Path 25295" d="M38.57,509.3a11.637,11.637,0,0,1,14.6,3.5l6.31,8.98a30.782,30.782,0,0,0-1.68-6.48,3.272,3.272,0,0,1,1.18-3.81,3.2,3.2,0,0,1,.73-.39,3.26,3.26,0,0,1,4.2,1.91,36.16,36.16,0,0,1,2.08,8.33c.24,3.36-1.23,9.9-1.4,10.63a2.671,2.671,0,0,1-.09.26c.8,1.08,1.6,2.16,2.41,3.24a372.011,372.011,0,0,0,54.06,57.58l.74-3.43c3.84,1.66,27.6,8.46,31.25,7.61,1.7-.4,8.57-3.64,10.27-3.93,0,0,5.55-.92,6.21-.89.04,0,.07,0,.07.02v-7.01a38.092,38.092,0,0,1-8.54-2.91,41.286,41.286,0,0,1-9.99-6.76,44.883,44.883,0,0,1-4.26-4.45c-.33-.4-.66-.8-.98-1.21a48.707,48.707,0,0,1-6.41-10.97,51.654,51.654,0,0,1-2.58-7.83,11.293,11.293,0,0,1-4.09-2.58,15.964,15.964,0,0,1-3.53-5.07,13.75,13.75,0,0,1-.67-1.89,11.486,11.486,0,0,1-.35-1.88c-.03-.31-.05-.61-.05-.92a6.394,6.394,0,0,1,1.44-4.23c-20.58-6.59-29.76-21.49-29.76-21.49a.374.374,0,0,1-.08-.73l30.71-9.13a5.69,5.69,0,0,1,.86-1.29v-5.74c0-23,36.44-41.51,41.64-41.64h9.03a25.791,25.791,0,0,1,7.14,2.15c1.49.63,3.09,1.4,4.76,2.28.56.3,1.12.6,1.69.93a79.049,79.049,0,0,1,8.8,5.76,70.333,70.333,0,0,1,6.82,5.83,55.023,55.023,0,0,1,4.55,5c4.67,5.82,7.87,12.51,7.87,19.7v3.04l24.03-7.14a5.69,5.69,0,0,1,.86-1.29v-5.74c0-23,36.44-41.51,41.64-41.64h9.03a13.165,13.165,0,0,1,1.93.34,36.041,36.041,0,0,1,5.21,1.81,70.569,70.569,0,0,1,8.18,4.21,79.387,79.387,0,0,1,8.83,6.12c1.16.93,2.31,1.9,3.42,2.92.56.51,1.11,1.02,1.65,1.55a53.177,53.177,0,0,1,5.91,6.77c3.92,5.39,6.52,11.46,6.52,17.93V492l31.58,9.39a.352.352,0,0,1,.21.16.4.4,0,0,1,.05.24.364.364,0,0,1-.34.33s-6.93,15.44-30.06,21.35a6.369,6.369,0,0,1,1.56,4.38c0,4.82-4,10.76-8.69,12.33-4.23,17.38-16.92,30.77-32.75,34.13v7.06c1.88.2,3.76.49,5.64.83,1.7.29,8.57,3.53,10.27,3.93,3.65.85,27.41-5.94,31.25-7.61l.78,3.66a369.324,369.324,0,0,0,42.04-42.44V525.63h11.31c.32-.42.65-.84.97-1.26.81-1.08,1.61-2.16,2.41-3.24a2.669,2.669,0,0,1-.09-.26c-.17-.73-1.64-7.27-1.4-10.63a30.689,30.689,0,0,1,1.44-6.48c-9.97-6.7-14.56-14.16-14.56-14.16a.374.374,0,0,1-.08-.73l30.71-9.13a5.691,5.691,0,0,1,.86-1.29v-5.74c0-23,36.44-41.51,41.64-41.64h9.03c8.87.75,41.64,18.65,41.64,41.64v6.77l31.57,9.39a.38.38,0,0,1,.16.62.385.385,0,0,1-.24.11s-6.93,15.44-30.06,21.35a6.369,6.369,0,0,1,1.56,4.38c0,4.82-4,10.76-8.69,12.33-4.23,17.38-16.92,30.77-32.75,34.13v7.06c1.88.2,3.76.49,5.64.83a.883.883,0,0,0-.06.1,35.174,35.174,0,0,1,4.04.5c.93.13,1.85.3,2.76.49.75.14,1.24.24,1.24.24l-.03.04c.12.03.25.05.37.08,5.23,1.41,11.16,2.55,15.7,5.41,6.89,4.35,11.58,7.83,15.85,12.95,0-.13-.02-.26-.02-.4V550.81a2.332,2.332,0,0,1,2.33-2.33h2.62a2.332,2.332,0,0,1,2.33,2.33v34.81a14.493,14.493,0,0,0,14.49,14.49h20.39V549.6a1.118,1.118,0,0,1,1.12-1.12h5.72a1.118,1.118,0,0,1,1.12,1.12v50.46a14.484,14.484,0,0,0,13.55-14.44V550.81a2.347,2.347,0,0,1,.33-1.18c-3.82-2.3-6.8-7.28-6.8-11.44h0a6.394,6.394,0,0,1,1.44-4.23c-20.58-6.59-29.76-21.49-29.76-21.49a.374.374,0,0,1-.08-.73l30.71-9.13a5.69,5.69,0,0,1,.86-1.29v-5.74c0-23,36.44-41.51,41.64-41.64h9.03c7.36.62,31.15,13.05,39.05,30.39v-5.25c0-23,36.44-41.51,41.64-41.64h9.03c8.87.75,41.64,18.65,41.64,41.64v6.77l3.9,1.16,27.26-8.1a5.69,5.69,0,0,1,.86-1.29v-5.74c0-23,36.44-41.51,41.64-41.64h9.03a13.165,13.165,0,0,1,1.93.34,35.634,35.634,0,0,1,5.21,1.81,69.03,69.03,0,0,1,8.18,4.21,79.4,79.4,0,0,1,8.83,6.12c1.16.93,2.31,1.9,3.42,2.92.56.51,1.11,1.02,1.65,1.55a53.18,53.18,0,0,1,5.91,6.77c3.92,5.39,6.52,11.46,6.52,17.93v6.77l31.57,9.39a.374.374,0,0,1-.08.73h0s-6.93,15.44-30.06,21.35a6.369,6.369,0,0,1,1.56,4.38c0,4.82-4,10.76-8.69,12.33-4.23,17.38-16.92,30.77-32.75,34.13v7.06c1.88.2,3.76.49,5.64.83a.883.883,0,0,0-.06.1,35.173,35.173,0,0,1,4.04.5c.93.13,1.85.3,2.76.49.75.14,1.24.24,1.24.24l-.03.04c.12.03.25.05.37.08,5.23,1.41,11.16,2.55,15.7,5.41,9.54,6.02,14.88,10.38,20.7,19.73l.37-.56c.77,1.62,1.53,3.27,2.28,4.93.58.91,1.18,1.8,1.83,2.68h0a2.149,2.149,0,0,1,2.25.08l1.73,1.16a2.158,2.158,0,0,1,.6,2.99l-2.14,3.21a314.006,314.006,0,0,1,18.14,68.73c.21,1.42.41,2.83.6,4.25a7.951,7.951,0,0,1,2.71,4.9l1.15,7.74a8.253,8.253,0,0,1-16.32,2.43l-1.14-7.68a21.57,21.57,0,0,0-.99,4.62,2.308,2.308,0,0,1-4.59-.49,25.649,25.649,0,0,1,1.33-5.92,35.042,35.042,0,0,1,4.25-6.28,1.846,1.846,0,0,1,.14-.14c-.16-.94-.33-1.87-.5-2.81a263.083,263.083,0,0,0-16.01-53.73,2.115,2.115,0,0,1-1.57-.33l-1.73-1.16a2.158,2.158,0,0,1-.6-2.99l.06-.08c-1.47-2-2.93-4.14-4.4-6.45.89,5.08.11,53.95.11,53.95.76,18.18.64,26.55.43,30.29a3.005,3.005,0,0,1-3,2.84h-3.81a15.358,15.358,0,0,1-2.45,4.01l-3.43,135.35a2.164,2.164,0,0,1,1.63,2.08v2.09a2.158,2.158,0,0,1-1.79,2.12v.04H875.2c2.91,1.22,5.87,2.4,8.84,3.5q1.89.66,3.76,1.35c.54.19,1.08.38,1.62.56a22.231,22.231,0,0,1,6.4,3.21,8.093,8.093,0,0,1,2.82,4.46h.42a.971.971,0,0,1,.97.97v2.54a.971.971,0,0,1-.97.97H854.84a.971.971,0,0,1-.97-.97v-2.54a.971.971,0,0,1,.97-.97h.26l-.44-13.13a1.634,1.634,0,0,0,.22.02,1.152,1.152,0,0,1-.26-.03h-.89v-.44a2.114,2.114,0,0,1-.81-1.67v-2.09a2.144,2.144,0,0,1,.69-1.57l-2.64-126.52H837.55l-3.52,126.71a2.15,2.15,0,0,1,.52,1.39v2.09a2.128,2.128,0,0,1-.66,1.55v.49h-.83a2.091,2.091,0,0,1-.67.11h0l-.53,13.09a.959.959,0,0,1,.92.96v2.54a.971.971,0,0,1-.97.97H787.59a.971.971,0,0,1-.97-.97v-2.54a.971.971,0,0,1,.97-.97h.17a9.6,9.6,0,0,1,1.61-3.07c1.82-2.31,4.58-3.68,7.35-4.66.66-.23,1.32-.47,1.98-.7.97-.38,1.57-.57,2.17-.76V827.11a14.493,14.493,0,0,0-14.49-14.49h-.39v50.51a1.118,1.118,0,0,1-1.12,1.12h-5.72a1.118,1.118,0,0,1-1.12-1.12V812.62H765.99v47.65a19.685,19.685,0,0,1,5.47,2.86,8.093,8.093,0,0,1,2.82,4.46h.42a.971.971,0,0,1,.97.97v2.54a.971.971,0,0,1-.97.97H730.48a.971.971,0,0,1-.97-.97v-2.54a.971.971,0,0,1,.97-.97h.26l-.44-13.13h.09a.3.3,0,0,1-.13-.02h-.89V854a2.114,2.114,0,0,1-.81-1.67v-2.09a2.144,2.144,0,0,1,.69-1.57l-2.64-126.52h-9.49a8.371,8.371,0,0,1-4.08,5.29l-3.37,121.41a2.15,2.15,0,0,1,.52,1.39v2.09a2.128,2.128,0,0,1-.66,1.55v.49h-.83a2.091,2.091,0,0,1-.67.11h0l-.53,13.09a.959.959,0,0,1,.92.96v2.54a.971.971,0,0,1-.97.97H663.68c2.07.84,4.15,1.67,6.25,2.44q1.89.66,3.76,1.35c.54.19,1.08.38,1.62.56a22.231,22.231,0,0,1,6.4,3.21,8.093,8.093,0,0,1,2.82,4.46h.42a.971.971,0,0,1,.97.97v2.54a.971.971,0,0,1-.97.97H640.73a.971.971,0,0,1-.97-.97v-2.54a.971.971,0,0,1,.97-.97h.26l-.42-12.66a.353.353,0,0,1-.06.01h-5.72a1.118,1.118,0,0,1-1.12-1.12V819.83a14.474,14.474,0,0,0-12.75,9.72l-.8,28.95v7.09a2.112,2.112,0,0,1,.33,1.14v2.09a2.128,2.128,0,0,1-.66,1.55v.49h-.5a2.344,2.344,0,0,1-1.01.5l-.51,12.7a.959.959,0,0,1,.92.96v2.54a.971.971,0,0,1-.97.97H573.5a.971.971,0,0,1-.97-.97v-2.54a.971.971,0,0,1,.97-.97h.17a9.6,9.6,0,0,1,1.61-3.07c1.82-2.31,4.58-3.68,7.35-4.66.66-.23,1.32-.47,1.98-.7,1.73-.68,2.29-.74,3.74-1.32,2.41-.85,4.82-1.71,7.23-2.61.42-.18,1.01-.44,1.68-.73h-.5a2.164,2.164,0,0,1-2.16-2.16v-2.09a2.155,2.155,0,0,1,1.68-2.1l-2.43-134.24a15.348,15.348,0,0,1-4.31-7.55l-.09.05-.03-.21c-2.1-.28-4.2-.57-6.3-.89a1.809,1.809,0,0,1-1.53-1.92l6.3-53.55-.96-32.68c-1.89,4.57-2.41,8.15-3.57,12.55l.57.23a2.155,2.155,0,0,1,1.19,2.81l-.78,1.93a2.158,2.158,0,0,1-2.81,1.19l-2.64-1.07a262.347,262.347,0,0,0-13.63,44.13v12.9a21.388,21.388,0,0,1,2.37,3.85,25.764,25.764,0,0,1,1.33,5.92,2.318,2.318,0,0,1-2.64,2.53,2.252,2.252,0,0,1-1.06-.46V887.88H553.22V728.39a8.272,8.272,0,0,1-7.3-9.21l1.15-7.74a7.977,7.977,0,0,1,2.71-4.9c.04-.33.1-.67.14-1-.21.02-.41.03-.62.03a8.235,8.235,0,0,1-8.12-6.83l-1.14-7.68a21.52,21.52,0,0,0-.99,4.63,2.308,2.308,0,0,1-4.59-.49,25.649,25.649,0,0,1,1.33-5.92,35.042,35.042,0,0,1,4.25-6.28,1.846,1.846,0,0,1,.14-.14c-.16-.94-.33-1.87-.5-2.81a263.083,263.083,0,0,0-16.01-53.73,2.115,2.115,0,0,1-1.57-.33l-1.73-1.16a2.158,2.158,0,0,1-.6-2.99l1.19-1.78h0l-1.13,1.69c-1.47-2-2.93-4.15-4.4-6.45.89,5.08.11,53.95.11,53.95.76,18.18.64,26.55.43,30.29a3.005,3.005,0,0,1-3,2.84h-3.81a15.358,15.358,0,0,1-2.45,4.01l-3.43,135.35a2.164,2.164,0,0,1,1.63,2.08v2.09a2.158,2.158,0,0,1-1.79,2.12v.04h-1.79c2.91,1.22,5.87,2.4,8.84,3.5q1.89.66,3.76,1.35c.54.19,1.08.38,1.62.56a22.231,22.231,0,0,1,6.4,3.21,8.093,8.093,0,0,1,2.82,4.46h.42a.971.971,0,0,1,.97.97v2.54a.971.971,0,0,1-.97.97H480.97a.971.971,0,0,1-.97-.97v-2.54a.971.971,0,0,1,.97-.97h.26l-.44-13.13h.09a.3.3,0,0,1-.13-.02h-.89v-.44a2.114,2.114,0,0,1-.81-1.67V843.8a2.144,2.144,0,0,1,.69-1.57L477.1,715.71H463.68l-3.52,126.71a2.15,2.15,0,0,1,.52,1.39v2.09a2.128,2.128,0,0,1-.66,1.55v.49h-.83a2.091,2.091,0,0,1-.67.11h0l-.53,13.09a.959.959,0,0,1,.92.96v2.54a.971.971,0,0,1-.97.97H413.72a.971.971,0,0,1-.97-.97V862.1a.971.971,0,0,1,.97-.97h.17a9.6,9.6,0,0,1,1.61-3.07c1.82-2.31,4.58-3.68,7.35-4.66.66-.23,1.32-.47,1.98-.7.97-.38,1.57-.57,2.17-.76V827.85a14.493,14.493,0,0,0-14.49-14.49h-.39v50.51a1.118,1.118,0,0,1-1.12,1.12h-5.72a1.118,1.118,0,0,1-1.12-1.12V813.36H392.12v50.51a1.118,1.118,0,0,1-1.12,1.12h-5.72a1.118,1.118,0,0,1-1.12-1.12V813.41a14.484,14.484,0,0,0-13.55,14.44v34.81a2.332,2.332,0,0,1-2.33,2.33h-2.62a2.332,2.332,0,0,1-2.33-2.33V824.38a18.708,18.708,0,0,1,18.71-18.71h33.52a18.708,18.708,0,0,1,18.71,18.71v24.94c.51-.19,1.02-.36,1.53-.55.42-.18,1.01-.44,1.68-.73h-.5a2.164,2.164,0,0,1-2.16-2.16v-2.09a2.155,2.155,0,0,1,1.68-2.1l-2.43-134.24a15.348,15.348,0,0,1-4.31-7.55l-.09.05-.03-.21c-2.1-.28-4.2-.57-6.3-.89a1.809,1.809,0,0,1-1.53-1.92l6.3-53.55-.96-32.68c-1.89,4.57-2.41,8.15-3.57,12.55l.57.23a2.158,2.158,0,0,1,1.19,2.81l-.78,1.93a2.158,2.158,0,0,1-2.81,1.19l-2.64-1.07A262.874,262.874,0,0,0,404.16,679v4.63a30.461,30.461,0,0,1,3.7,5.59,25.758,25.758,0,0,1,1.33,5.92,2.308,2.308,0,1,1-4.59.49c-.05-.5-.2-1.59-.43-2.67V805.59H392.13V705.19a8.221,8.221,0,0,1-5.97-8.93l1.15-7.74a7.978,7.978,0,0,1,2.71-4.9c.19-1.41.39-2.83.6-4.25.46-3.08.97-6.14,1.51-9.2V570.41a418.435,418.435,0,0,1-36.52,37.41l.86,4.03-21.06,18.13-.05,25.9,6.3,53.55a1.815,1.815,0,0,1-1.53,1.92c-2.03.31-4.05.59-6.07.86h.5a15.4,15.4,0,0,1-3.32,6.66l-3.43,135.35a2.164,2.164,0,0,1,1.63,2.08v2.09a2.158,2.158,0,0,1-1.79,2.12v.04h-1.79c2.91,1.22,5.87,2.4,8.84,3.5q1.89.66,3.76,1.35c.54.19,1.08.38,1.62.56a22.23,22.23,0,0,1,6.4,3.21,8.093,8.093,0,0,1,2.82,4.46h.42a.971.971,0,0,1,.97.97v2.54a.971.971,0,0,1-.97.97H305.5a.971.971,0,0,1-.97-.97V874.6a.971.971,0,0,1,.97-.97h.26l-.44-13.13h.09a.3.3,0,0,1-.13-.02h-.89v-.44a2.114,2.114,0,0,1-.81-1.67v-2.09a2.144,2.144,0,0,1,.69-1.57l-2.64-126.52H288.21L284.69,854.9a2.15,2.15,0,0,1,.52,1.39v2.09a2.128,2.128,0,0,1-.66,1.55v.49h-.83a2.091,2.091,0,0,1-.67.11h0l-.53,13.09a.959.959,0,0,1,.92.96v2.54a.971.971,0,0,1-.97.97H238.25a.971.971,0,0,1-.97-.97v-2.54a.971.971,0,0,1,.97-.97h.17a9.6,9.6,0,0,1,1.61-3.07c1.82-2.31,4.58-3.68,7.35-4.66.66-.23,1.32-.47,1.98-.7,1.73-.68,2.29-.74,3.74-1.32,2.41-.85,4.82-1.71,7.23-2.61.42-.18,1.01-.44,1.68-.73h-.5a2.164,2.164,0,0,1-2.16-2.16v-2.09a2.155,2.155,0,0,1,1.68-2.1L258.6,719.93a15.348,15.348,0,0,1-4.31-7.55l-.09.05-.03-.21c-2.1-.28-4.2-.57-6.3-.89a1.809,1.809,0,0,1-1.53-1.92l6.3-53.55-.05-25.9-13.53-11.65-.69.63.86,4.03L218.17,641.1l-.05,25.9,6.3,53.55a1.815,1.815,0,0,1-1.53,1.92c-2.03.31-4.05.59-6.07.86h.5a15.458,15.458,0,0,1-3.32,6.66l-3.43,135.35a2.164,2.164,0,0,1,1.63,2.08v2.09a2.158,2.158,0,0,1-1.79,2.12v.04h-1.79c2.91,1.22,5.87,2.4,8.84,3.5q1.89.66,3.76,1.35c.54.19,1.08.38,1.62.56a22.23,22.23,0,0,1,6.4,3.21,8.093,8.093,0,0,1,2.82,4.46h.42a.971.971,0,0,1,.97.97v2.54a.971.971,0,0,1-.97.97H188.26a.971.971,0,0,1-.97-.97v-2.54a.971.971,0,0,1,.97-.97h.26l-.44-13.13a1.634,1.634,0,0,0,.22.02,1.152,1.152,0,0,1-.26-.03h-.89v-.44a2.114,2.114,0,0,1-.81-1.67v-2.09a2.144,2.144,0,0,1,.69-1.57l-2.64-126.52H170.97l-3.52,126.71a2.15,2.15,0,0,1,.52,1.39v2.09a2.128,2.128,0,0,1-.66,1.55v.49h-.83a2.091,2.091,0,0,1-.67.11h0l-.53,13.09a.959.959,0,0,1,.92.96v2.54a.971.971,0,0,1-.97.97H121.01a.971.971,0,0,1-.97-.97v-2.54a.971.971,0,0,1,.97-.97h.17a9.6,9.6,0,0,1,1.61-3.07c1.82-2.31,4.58-3.68,7.35-4.66.66-.23,1.32-.47,1.98-.7,1.73-.68,2.29-.74,3.74-1.32,2.41-.85,4.82-1.71,7.23-2.61.42-.18,1.01-.44,1.68-.73h-.5a2.164,2.164,0,0,1-2.16-2.16V867.4a2.155,2.155,0,0,1,1.68-2.1l-2.43-134.24a15.348,15.348,0,0,1-4.31-7.55l-.09.05-.03-.21c-2.1-.28-4.2-.57-6.3-.89a1.809,1.809,0,0,1-1.53-1.92l6.3-53.55-.05-25.9-21.06-18.13.92-4.27a445.417,445.417,0,0,1-65.04-74.08c-1.17-1.66-2.31-3.32-3.45-4.99a11.306,11.306,0,0,1-6.53-4.47l-6.36-9.06c-4-5.7-1.64-13.83,4.5-16.9Zm867.4,93.45s.02-.02.03-.02S905.98,602.75,905.97,602.75ZM753.75,813.6l-.88,34.54a2.164,2.164,0,0,1,1.63,2.08v2.09a2.158,2.158,0,0,1-1.79,2.12v.04h-1.79c2.38,1,4.78,1.95,7.2,2.87V812.63a14.47,14.47,0,0,0-4.38.97Zm14.4-288.84h9.98v77.7c.71,1.49,1.4,2.99,2.09,4.51.38.59.78,1.18,1.18,1.75,1.11-3.86,2.33-8.03,3.11-10.1,2.87-7.67,8.64-13.9,15.54-18.41,7.61-5.29,16.41-8.3,25.4-10.4,1.54-.36,3.07-.67,4.6-.94h0s1.16-.22,2.45-.45c.14-.03.29-.05.44-.08h.05a19.41,19.41,0,0,1,2.94-.42v-7.01a38.075,38.075,0,0,1-5.78-1.72c-.47-.18-.93-.37-1.39-.57a40.282,40.282,0,0,1-9.03-5.41c-.4-.31-.79-.64-1.18-.96-.78-.66-1.53-1.34-2.26-2.06-.37-.36-.73-.72-1.08-1.09-.71-.74-1.4-1.51-2.06-2.31a47.682,47.682,0,0,1-5.29-7.82,50.638,50.638,0,0,1-4.67-12.19,9.74,9.74,0,0,1-2.54-1.31,13.322,13.322,0,0,1-1.55-1.28,14.521,14.521,0,0,1-1.39-1.53,16.829,16.829,0,0,1-1.19-1.71,15.149,15.149,0,0,1-.95-1.83,11.9,11.9,0,0,1-1.07-4.68,7.094,7.094,0,0,1,.04-.81,6.628,6.628,0,0,1,.3-1.46,5.918,5.918,0,0,1,.96-1.81,2,2,0,0,1,.14-.16,61.058,61.058,0,0,1-8.03-3.21,52.347,52.347,0,0,1-20.82,10.27,6.369,6.369,0,0,1,1.56,4.38,10.724,10.724,0,0,1-.5,3.1Zm-103.7,73.19a42.683,42.683,0,0,1,11.27-10.52c7.61-5.3,16.41-8.3,25.4-10.4,1.54-.36,3.07-.67,4.6-.94h0s1.41-.27,2.85-.52a21.139,21.139,0,0,1,3.03-.43v-7.01a37.232,37.232,0,0,1-4.88-1.39c-1.24-.45-2.47-.95-3.66-1.52-.61-.29-1.21-.61-1.81-.93-.56-.3-1.11-.62-1.66-.95-.59-.36-1.18-.73-1.75-1.11-.42-.28-.83-.57-1.24-.87a43.269,43.269,0,0,1-4.65-3.94c-.73-.71-1.44-1.46-2.13-2.23s-1.35-1.57-1.99-2.39a47.227,47.227,0,0,1-4.31-6.61A50.638,50.638,0,0,1,678.85,534a7.671,7.671,0,0,1-.9-.36c-.2.05-.39.1-.59.16a6.369,6.369,0,0,1,1.56,4.38c0,4.82-4,10.76-8.69,12.33a48.032,48.032,0,0,1-16.44,26.35v17.73a62.593,62.593,0,0,1,10.65,3.38Zm-22.7-5.66v-8.83a36.375,36.375,0,0,1-4.27,1.17v7.06c1.42.15,2.84.37,4.27.6Zm77.03-6.46h0Zm124.53-7.2h0ZM629.2,602.34h0Zm170.03,64.5,2.85-24.22-.96-32.68c-1.89,4.57-2.41,8.15-3.57,12.55l.57.23a2.155,2.155,0,0,1,1.19,2.81l-.78,1.93a2.158,2.158,0,0,1-2.81,1.19l-2.64-1.07q-1.3,3.18-2.53,6.43a316.637,316.637,0,0,1,8.67,32.82Zm-33.14-43.48c-.36-.54-.71-1.09-1.07-1.65.84,4.75.21,47.69.12,53.33q.45-2.82.95-5.62Zm0-34.04V529.01a12.864,12.864,0,0,1-6.13,4.99c-4.23,17.38-16.92,30.77-32.75,34.13v7.06c1.88.2,3.76.49,5.64.83a.883.883,0,0,0-.06.1,35.173,35.173,0,0,1,4.04.5c.93.13,1.85.3,2.76.49.75.14,1.24.24,1.24.24l-.03.04c.12.03.25.05.37.08,5.23,1.41,11.16,2.55,15.7,5.41a97.427,97.427,0,0,1,9.22,6.44ZM677.5,641.56c-.73-1.08-1.47-2.19-2.21-3.35.45,2.56.48,16.18.39,29.1l2.06-17.49ZM789.53,804.9a18.708,18.708,0,0,1,18.71,18.71v24.94c.51-.19,1.02-.36,1.53-.55.42-.18,1.01-.44,1.68-.73h-.5a2.164,2.164,0,0,1-2.16-2.16v-2.09a2.155,2.155,0,0,1,1.68-2.1l-2.43-134.24a14.557,14.557,0,0,1-1.07-1.15,8.4,8.4,0,0,1-8.08,6.44,8.235,8.235,0,0,1-8.12-6.83l-1.14-7.68a21.52,21.52,0,0,0-.99,4.63,2.308,2.308,0,0,1-4.59-.49,25.649,25.649,0,0,1,1.33-5.92,35.042,35.042,0,0,1,4.25-6.28,1.846,1.846,0,0,1,.14-.14c-.16-.94-.33-1.87-.5-2.81a268.032,268.032,0,0,0-6.68-27.67c-1.7,6.34-3.2,12.84-4.45,19.47v4.63a30.462,30.462,0,0,1,3.7,5.59,25.764,25.764,0,0,1,1.33,5.92,2.308,2.308,0,1,1-4.59.49c-.05-.5-.2-1.59-.43-2.67V804.84H766.11V704.44a3.876,3.876,0,0,1-.45-.14c-.02.62-.05,1.17-.07,1.64a3.005,3.005,0,0,1-3,2.84h-3.81a15.358,15.358,0,0,1-2.45,4.01l-2.34,92.22a19.6,19.6,0,0,1,2.04-.12h33.52ZM687.11,854.46h-.5a2.164,2.164,0,0,1-2.16-2.16v-2.09a2.155,2.155,0,0,1,1.68-2.1L683.7,713.87a15.348,15.348,0,0,1-4.31-7.55l-.09.05-.03-.21c-1.13-.15-2.27-.32-3.41-.48.22,9.13.12,14.11-.03,16.75a3.005,3.005,0,0,1-3,2.84h-3.81a15.358,15.358,0,0,1-2.45,4.01l-2.1,82.81h.71a18.708,18.708,0,0,1,18.71,18.71v24.94c.51-.19,1.02-.36,1.53-.55.42-.18,1.01-.44,1.68-.73Zm-14.63,5.36c.66-.23,1.32-.47,1.98-.7.97-.38,1.57-.57,2.17-.76V834.27a14.476,14.476,0,0,0-12.34-14.31l-1.13,44.68a2.121,2.121,0,0,1,1.27.89,8.168,8.168,0,0,1,.71-1.06c1.82-2.31,4.58-3.68,7.35-4.66Zm-10.1,11.24v-.09h-.88s-.04.07-.06.1c.35.15.71.29,1.06.43a.916.916,0,0,1-.11-.43Zm-30.7-58.96h6.85L637,738.63H623.58l-2.12,76.53a18.573,18.573,0,0,1,10.23-3.06ZM611.4,593.53c1.54-.36,3.07-.67,4.6-.94h0s1.47-.28,2.94-.54a20.158,20.158,0,0,1,2.94-.41v-7.01a38.092,38.092,0,0,1-8.54-2.91,41.286,41.286,0,0,1-9.99-6.76,44.883,44.883,0,0,1-4.26-4.45c-.33-.4-.66-.8-.98-1.21a47.527,47.527,0,0,1-3.94-5.95v25.72a18.632,18.632,0,0,1-5.23,12.95c6.89-4.14,14.6-6.66,22.45-8.5Zm-58.21,85.94c.06.42.12.83.17,1.24V607.84H565.4V638.9l.06.02c1.22-4,3.71-13.17,4.99-16.59a37.087,37.087,0,0,1,12.17-15.98,18.688,18.688,0,0,1-7.15,1.42H541.95a18.884,18.884,0,0,1-4.6-.59,2.212,2.212,0,0,1-.18.34l-2.14,3.21a314.006,314.006,0,0,1,18.14,68.73ZM412.04,510.65l1.99-2.84c-.43-.21-.86-.43-1.28-.64A18.876,18.876,0,0,0,412.04,510.65Zm57.44,68.83h0ZM404.6,622.5l-.24-.1v.8C404.44,622.97,404.52,622.73,404.6,622.5Zm-.24-6.99h.02l1.37.56c1.22-4,3.71-13.17,4.99-16.59,2.87-7.67,8.64-13.9,15.54-18.41,7.61-5.3,16.41-8.3,25.4-10.4,1.54-.36,3.07-.67,4.6-.94h0s1.47-.28,2.94-.54a20.157,20.157,0,0,1,2.94-.41v-7.01a38.093,38.093,0,0,1-8.54-2.91,41.285,41.285,0,0,1-9.99-6.76,44.883,44.883,0,0,1-4.26-4.45c-.33-.4-.66-.8-.98-1.21a49.867,49.867,0,0,1-8.99-18.8,9.261,9.261,0,0,1-1.34-.59,11.4,11.4,0,0,1-3.52,1.55c-1.14,1.67-2.28,3.33-3.45,4.99q-8.055,11.46-16.75,22.37V615.5ZM176.85,603.13h0Zm61.35-21.2.74-3.43c1.15.5,4.09,1.46,7.73,2.53q9.585-9.105,18.78-19.16a46.55,46.55,0,0,1-6.01-8.14c-.41-.7-.79-1.41-1.17-2.13a50.818,50.818,0,0,1-3.23-7.72c-.11-.33-.21-.66-.31-.99-.27-.9-.53-1.81-.75-2.74-4.69-1.57-8.69-7.51-8.69-12.33h0a6.772,6.772,0,0,1,.06-.92,6.683,6.683,0,0,1,.24-1.15,5.665,5.665,0,0,1,.63-1.44c.12-.19.24-.38.38-.56a2,2,0,0,1,.14-.16h-.04a52.148,52.148,0,0,1-21.68,11,6.369,6.369,0,0,1,1.56,4.38c0,4.82-4,10.76-8.69,12.33a50.772,50.772,0,0,1-2.99,8.76q11.385,11.655,23.32,21.88Zm55.9,10.06h0Zm-7.44-10.71s.05,0,.05.01h.01v-7.01a38.677,38.677,0,0,1-4.4-1.22q-5.265,6.405-10.71,12.55c2.66-1.03,7.45-3.21,8.83-3.44,0,0,5.55-.92,6.21-.89Zm-68.45,12.67q-8.145-8.13-16.04-16.92a39.581,39.581,0,0,1-17.05,8.39v7.06c1.88.2,3.76.49,5.64.83,1.7.29,8.57,3.53,10.27,3.93,1.97.46,9.79-1.31,17.18-3.29Z" fill="#83aaf2"/>
        </g>
        <g id="Group_3460" data-name="Group 3460">
          <path id="Path_25296" data-name="Path 25296" d="M265.45,603.31s22.8,37.07,77.22,20.14a1.4,1.4,0,0,1,.76,0c61.87,14.32,77.32-20.14,77.32-20.14Z" fill="#6a99f0"/>
          <path id="Path_25297" data-name="Path 25297" d="M343.1,813.51H302.95a15.311,15.311,0,0,0,4.36,7.74l2.54,140.42,23.38.05L336.9,829.5h6.2V813.51Z" fill="#6394ef"/>
          <path id="Path_25298" data-name="Path 25298" d="M343.1,813.51V829.5h7.22l2.76,132.28,23.24.05,3.59-141.67a15.4,15.4,0,0,0,3.32-6.66H343.09Z" fill="#6a99f0"/>
          <rect id="Rectangle_1421" data-name="Rectangle 1421" width="25.84" height="6.4" rx="2.16" transform="translate(308.06 955.44)" fill="#6a99f0"/>
          <rect id="Rectangle_1422" data-name="Rectangle 1422" width="25.84" height="6.4" rx="2.16" transform="translate(352.27 955.44)" fill="#6a99f0"/>
          <path id="Path_25299" data-name="Path 25299" d="M212.66,629.82c1.14,1.67,2.28,3.33,3.45,4.99,24.78,35.3,54.46,67.12,84.33,90.27l3.37-28.11a368.663,368.663,0,0,1-71.19-71.41c-.82-1.08-1.61-2.16-2.41-3.24a2.669,2.669,0,0,0,.09-.26c.17-.73,1.64-7.27,1.4-10.63a36.161,36.161,0,0,0-2.08-8.33,3.26,3.26,0,0,0-4.2-1.91,3,3,0,0,0-.73.39,3.258,3.258,0,0,0-1.18,3.81,30.454,30.454,0,0,1,1.68,6.48l-6.31-8.98a11.635,11.635,0,0,0-14.6-3.5c-6.13,3.08-8.5,11.21-4.5,16.9l6.36,9.06a11.26,11.26,0,0,0,6.53,4.47Z" fill="#75a0f1"/>
          <path id="Path_25300" data-name="Path 25300" d="M331.22,974.93l.53-13.09H310.72c-.67.29-1.26.55-1.68.73-2.41.89-4.82,1.75-7.23,2.61-1.45.59-2.01.64-3.74,1.32-.66.23-1.32.46-1.98.7-2.77.98-5.53,2.35-7.35,4.66a9.6,9.6,0,0,0-1.61,3.07h-.17a.971.971,0,0,0-.97.97v2.54a.971.971,0,0,0,.97.97h44.22a.971.971,0,0,0,.97-.97V975.9a.959.959,0,0,0-.92-.96Z" fill="#558bee"/>
          <path id="Path_25301" data-name="Path 25301" d="M398.4,974.92h-.42a8.093,8.093,0,0,0-2.82-4.46,22.488,22.488,0,0,0-6.4-3.21c-.54-.18-1.08-.38-1.62-.56q-1.87-.69-3.76-1.35c-2.97-1.11-5.93-2.28-8.84-3.5h-20.1a2.728,2.728,0,0,1-.42-.04l.44,13.13h-.26a.971.971,0,0,0-.97.97v2.54a.971.971,0,0,0,.97.97h44.22a.971.971,0,0,0,.97-.97V975.9a.971.971,0,0,0-.97-.97Z" fill="#6a99f0"/>
          <path id="Path_25302" data-name="Path 25302" d="M328.93,683.39c-1.7.29-8.57,3.53-10.27,3.93-3.65.85-27.41-5.94-31.25-7.61l-7.18,33.45,21.06,18.13.05,25.9-6.3,53.55a1.815,1.815,0,0,0,1.53,1.92c2.1.32,4.2.61,6.3.89l.03.21.3-.17a310.548,310.548,0,0,0,39.47,2.7V732.92h0l-.14-39.7c-5.62-.05-9.68-3.68-13.62-9.82Z" fill="#558bee"/>
          <path id="Path_25303" data-name="Path 25303" d="M473.04,629.82c-1.14,1.67-2.28,3.33-3.45,4.99-24.78,35.3-54.46,67.12-84.33,90.27l-3.37-28.11a368.662,368.662,0,0,0,71.19-71.41c.82-1.08,1.61-2.16,2.41-3.24a2.669,2.669,0,0,1-.09-.26c-.17-.73-1.64-7.27-1.4-10.63a36.162,36.162,0,0,1,2.08-8.33,3.26,3.26,0,0,1,4.2-1.91,3,3,0,0,1,.73.39,3.258,3.258,0,0,1,1.18,3.81,30.454,30.454,0,0,0-1.68,6.48l6.31-8.98a11.635,11.635,0,0,1,14.6-3.5c6.13,3.08,8.5,11.21,4.5,16.9l-6.36,9.06a11.26,11.26,0,0,1-6.53,4.47Z" fill="#b0c9f7"/>
          <path id="Path_25304" data-name="Path 25304" d="M356.45,683.39c1.7.29,8.57,3.53,10.27,3.93,3.65.85,27.41-5.94,31.25-7.61l7.18,33.45-21.06,18.13-.05,25.9,6.3,53.55a1.815,1.815,0,0,1-1.53,1.92c-2.1.32-4.2.61-6.3.89l-.03.21-.3-.17a310.548,310.548,0,0,1-39.47,2.7V732.92h0l.14-39.7c5.62-.05,9.68-3.68,13.62-9.82Z" fill="#558bee"/>
          <path id="Path_25305" data-name="Path 25305" d="M342.52,693.21a13.66,13.66,0,0,1-8.84-3.39V816.14h20.11V687.31c-2.9,3.62-6.86,5.89-11.26,5.89Z" fill="#83aaf2"/>
          <path id="Path_25306" data-name="Path 25306" d="M392.25,629.04c0-4.45-3.41-6.59-7.62-7.28-2.97-23.01-20.47-40.68-41.62-40.68s-39.54,18.58-41.82,42.45c.06-.59.12-1.18.2-1.77-4.21.69-7.62,2.83-7.62,7.28,0,4.82,4,10.76,8.69,12.33,4.23,17.38,16.92,30.77,32.75,34.13v7.01c0-.16-5.88.94-5.88.94,3.46,5.06,8.26,9.76,13.51,9.76s9.39-2.5,13.62-9.82q-2.82-.525-5.64-.83V675.5c15.83-3.36,28.52-16.76,32.75-34.13,4.69-1.57,8.69-7.51,8.69-12.33Z" fill="#b0c9f7"/>
          <path id="Path_25307" data-name="Path 25307" d="M342.83,693.21c-5.25,0-9.66-1.12-13.9-9.82,0,0,6.28-1.04,6.28-.88V675.5c-15.83-3.36-28.52-16.76-32.75-34.13-4.69-1.57-8.69-7.51-8.69-12.33,0-4.45,3.41-6.59,7.62-7.28-.08.59-.14,1.18-.2,1.77,1.97-20.6,15.54-37.26,33.16-41.43h8.48V693.21Z" fill="#75a0f1"/>
          <path id="Path_25308" data-name="Path 25308" d="M300.28,590.01a7.768,7.768,0,0,1,2.15-.34c.29-.66.6-1.31.94-1.94a8.462,8.462,0,0,1,10.68-12.11,34.552,34.552,0,0,1,4.01-2.4c.31-5.58,5.71-10.03,12.34-10.03,5.1,0,9.48,2.63,11.37,6.38h2.55c2.28-3.54,7.44-4.83,12.18-2.83a11.451,11.451,0,0,1,5.17,4.23,33.9,33.9,0,0,1,5.42,2.13,9.668,9.668,0,0,1,3.06-.5,8.914,8.914,0,0,1,9.18,8.62,7.887,7.887,0,0,1-.23,1.89c.45.6.87,1.22,1.28,1.85,4.75.5,8.38,3.2,8.38,6.47,0,1.96-1.31,3.71-3.38,4.92a5.749,5.749,0,0,1,5.72,5.74,5.649,5.649,0,0,1-5.3,5.72c-.01.57-.03,1.13-.06,1.69a4.064,4.064,0,0,1,1.48-.29,4.13,4.13,0,0,1,0,8.26,3.9,3.9,0,0,1-1.19-.19h0a45.184,45.184,0,0,1,.69,7.7,44.655,44.655,0,0,1-1.97,11.2l-1.08-12.61A15.107,15.107,0,0,0,378.29,612a8.882,8.882,0,0,1-2.98,3.86c-3.38,2.55-7.76,2.43-9.79-.26a4.96,4.96,0,0,1-.93-2.19,22.955,22.955,0,0,1-9.39,1.82c-5.29,0-9.88-1.46-12.15-3.6-2.32,1.74-6.88,2.46-11.91,1.62a21.166,21.166,0,0,1-8.4-3.16,5.152,5.152,0,0,1,.17,1.3c0,3.83-4.1,6.93-9.17,6.93-3.73,0-6.93-1.68-8.36-4.1a15.067,15.067,0,0,0-3.24,9.34l-.91,13.25a78.575,78.575,0,0,1-1.65-12.73c-.07-1.71-.05-3.39,0-5.03a2.882,2.882,0,0,1-1.04-3.2,3.071,3.071,0,0,1,1.57-1.99c-.16-.98-.3-1.97-.39-2.97a4.673,4.673,0,0,1-1.31-2.05,5.146,5.146,0,0,1,1.11-4.82v-.69c0-.96.05-1.9.13-2.84a5.208,5.208,0,0,1-3.93-3.42c-.89-2.86,1.15-6.03,4.54-7.08Z" fill="#558bee"/>
          <g id="Group_3459" data-name="Group 3459">
            <path id="Path_25309" data-name="Path 25309" d="M420.83,602.58l-31.57-9.39c-29.99,5.01-60.83,4.58-92.31,0l-31.58,9.39a.374.374,0,0,0,.08.73,1156.393,1156.393,0,0,0,155.3,0A.374.374,0,0,0,420.83,602.58Z" fill="#6a99f0"/>
            <path id="Path_25310" data-name="Path 25310" d="M389.26,593.2v-6.77c0-23-32.77-40.89-41.64-41.64h-9.03c-5.2.14-41.64,18.64-41.64,41.64v6.77h0C328.44,597.78,359.28,598.21,389.26,593.2Z" fill="#6a99f0"/>
            <path id="Path_25311" data-name="Path 25311" d="M347.61,544.78h-4.92v52a271.4,271.4,0,0,0,46.57-3.58v-6.77c0-23-32.77-40.89-41.64-41.64Z" fill="#b0c9f7"/>
            <path id="Path_25312" data-name="Path 25312" d="M420.83,602.58l-31.58-9.39a270.4,270.4,0,0,1-46.57,3.58v9.14q39.03,0,78.06-2.61a.374.374,0,0,0,.08-.73Z" fill="#b0c9f7"/>
          </g>
        </g>
        <path id="Path_25313" data-name="Path 25313" d="M558.75,981.41,1920,90.58V993.71l-556.68,2.66Z" fill="#d85041"/>
        <g id="Group_3466" data-name="Group 3466">
          <path id="Path_25314" data-name="Path 25314" d="M101.29,635.41s20.47,33.28,69.32,18.08a1.245,1.245,0,0,1,.69,0c55.54,12.85,69.42-18.08,69.42-18.08Z" fill="#83aaf2"/>
          <g id="Group_3461" data-name="Group 3461">
            <path id="Path_25315" data-name="Path 25315" d="M213.26,648.81c-2.93,4-5.43,7.79-5.43,7.79s.77-6.58-6.19-13.54-6.07-12.72-6.07-12.72a12.758,12.758,0,0,1-6.9,3.62c-11.23,8.9-16.81,5.43-27.07,5.43s-17.61,6.67-19.74,16.6.6,9.83-3,15.06c-3.15,4.56-2.12,7.88-1.81,8.65,5.9,10.35,15.37,17.84,26.45,20.19v6.78c-1.74.19-3.92.54-4.43.62,2.17,5.69,6.57,9.59,11.65,9.59s9.49-3.91,11.66-9.6a21.319,21.319,0,0,0-3.88-.65v-6.74c15.21-3.23,27.4-16.1,31.46-32.79,4.5-1.51,8.35-7.22,8.35-11.85,0-3.44-2.12-5.43-5.05-6.43Z" fill="#83aaf2"/>
            <path id="Path_25316" data-name="Path 25316" d="M159.07,707.29h0C158.91,707.32,158.93,707.31,159.07,707.29Z" fill="#6a99f0"/>
          </g>
          <path id="Path_25317" data-name="Path 25317" d="M171,824.11H134.96a13.818,13.818,0,0,0,3.91,6.95l2.28,126.06,20.99.05,3.29-118.7H171Z" fill="#6a99f0"/>
          <path id="Path_25318" data-name="Path 25318" d="M171,824.11v14.36h6.48l2.48,118.76,20.86.05,3.23-127.19a13.732,13.732,0,0,0,2.98-5.98H171Z" fill="#6a99f0"/>
          <path id="Path_25319" data-name="Path 25319" d="M213.26,648.81c-2.93,4-5.43,7.79-5.43,7.79s.77-6.58-6.19-13.54-6.07-12.72-6.07-12.72a12.758,12.758,0,0,1-6.9,3.62c-7.34,5.82-12.27,6.35-17.67,6.02v76.88c4.97-.14,9.25-4,11.38-9.59a21.319,21.319,0,0,0-3.88-.65v-6.74c15.21-3.23,27.4-16.1,31.46-32.79,4.5-1.51,8.35-7.22,8.35-11.85,0-3.44-2.12-5.43-5.05-6.43Z" fill="#b0c9f7"/>
          <rect id="Rectangle_1423" data-name="Rectangle 1423" width="23.2" height="5.74" rx="1.94" transform="translate(139.54 951.53)" fill="#6a99f0"/>
          <rect id="Rectangle_1424" data-name="Rectangle 1424" width="23.2" height="5.74" rx="1.94" transform="translate(179.23 951.53)" fill="#6a99f0"/>
          <path id="Path_25320" data-name="Path 25320" d="M160.33,969.03l.47-11.75H141.92c-.6.26-1.13.49-1.51.65-2.16.8-4.33,1.57-6.49,2.34-1.3.53-1.81.57-3.36,1.19-.59.21-1.18.42-1.78.63a14.206,14.206,0,0,0-6.6,4.18,8.691,8.691,0,0,0-1.45,2.76h-.16a.871.871,0,0,0-.87.87v2.28a.871.871,0,0,0,.87.87h39.7a.871.871,0,0,0,.87-.87V969.9a.861.861,0,0,0-.83-.86Z" fill="#6a99f0"/>
          <path id="Path_25321" data-name="Path 25321" d="M220.65,969.02h-.38a7.181,7.181,0,0,0-2.53-4,20.017,20.017,0,0,0-5.75-2.88c-.49-.16-.97-.34-1.46-.5q-1.68-.62-3.38-1.21c-2.67-.99-5.33-2.05-7.94-3.15H181.16a1.583,1.583,0,0,1-.38-.04l.39,11.79h-.24a.871.871,0,0,0-.87.87v2.28a.871.871,0,0,0,.87.87h39.7a.871.871,0,0,0,.87-.87V969.9a.871.871,0,0,0-.87-.87Z" fill="#6a99f0"/>
          <path id="Path_25322" data-name="Path 25322" d="M99.31,809.69q.255-1.905.54-3.81c4.02-27.08,11.81-53.58,22.17-75.21l9.91,14.99a233.676,233.676,0,0,0-20.08,60.77c-.16.84-.3,1.68-.45,2.52a1.358,1.358,0,0,1,.12.12,31.792,31.792,0,0,1,3.82,5.64,23.088,23.088,0,0,1,1.19,5.32,2.069,2.069,0,0,1-1.84,2.28,1.874,1.874,0,0,1-.53-.01,2.071,2.071,0,0,1-1.75-1.83,19.48,19.48,0,0,0-.89-4.15l-1.02,6.89a7.407,7.407,0,0,1-14.65-2.17l1.03-6.95a7.191,7.191,0,0,1,2.43-4.4Z"/>
          <path id="Path_25323" data-name="Path 25323" d="M246.17,809.69q-.255-1.905-.54-3.81c-4.02-27.08-11.81-53.58-22.17-75.21l-9.91,14.99a233.676,233.676,0,0,1,20.08,60.77c.16.84.3,1.68.45,2.52a1.358,1.358,0,0,0-.12.12,31.793,31.793,0,0,0-3.82,5.64,23.088,23.088,0,0,0-1.19,5.32,2.069,2.069,0,0,0,1.84,2.28,1.874,1.874,0,0,0,.53-.01,2.071,2.071,0,0,0,1.75-1.83,19.48,19.48,0,0,1,.89-4.15l1.02,6.89a7.407,7.407,0,0,0,14.65-2.17l-1.03-6.95A7.191,7.191,0,0,0,246.17,809.69Z" fill="#b0c9f7"/>
          <g id="Group_3462" data-name="Group 3462">
            <path id="Path_25324" data-name="Path 25324" d="M159.07,707.28c-1.52.26-3.04.57-4.57.92-8.07,1.89-15.97,4.58-22.8,9.34-6.2,4.05-11.38,9.64-13.95,16.53-1.19,3.17-3.55,11.87-4.59,15.25l15.44,9.11c1.75-5.45,1.96-9.14,4.06-14.21l.87,29.34-5.66,48.07a1.629,1.629,0,0,0,1.37,1.72c1.89.29,3.77.55,5.66.8.01.06.02.13.03.19l.27-.16a280.021,280.021,0,0,0,35.44,2.42V751.75h0V716.86c-5.05-.05-9.41-3.93-11.56-9.58Z" fill="#6a99f0"/>
            <path id="Path_25325" data-name="Path 25325" d="M170.63,716.87Z" fill="#6a99f0"/>
          </g>
          <path id="Path_25326" data-name="Path 25326" d="M170.48,716.12a12.308,12.308,0,0,1-7.94-3.04V826.49h18.05V710.84a13.033,13.033,0,0,1-10.11,5.29Z" fill="#83aaf2"/>
          <rect id="Rectangle_1425" data-name="Rectangle 1425" width="23.2" height="5.74" rx="1.94" transform="translate(110.238 747.741) rotate(21.95)" fill="#6a99f0"/>
          <path id="Path_25327" data-name="Path 25327" d="M217.21,635.89a4.912,4.912,0,0,0,.92-4.8,4.765,4.765,0,0,0-4.08-3.56,5.318,5.318,0,0,0,.07-3.4,4.774,4.774,0,0,0-4.1-3.56c-.73-2.33-2.8-3.8-4.78-3.48a5.885,5.885,0,0,0-.18-.81c-.77-2.53-3.12-4.06-5.23-3.41a3.675,3.675,0,0,0-2.27,2.11c.28-2.11-1.45-4.16-3.98-4.65a5.429,5.429,0,0,0-2.61.12,4.231,4.231,0,0,0-4.77-2.32,2.718,2.718,0,0,0-.47.19,4.65,4.65,0,0,0-4.01-4.06,5.358,5.358,0,0,0-3.3.39,5.349,5.349,0,0,0-2.92-1.58,4.986,4.986,0,0,0-4.52,1.26v36.58a5.281,5.281,0,0,0,3.82,1.57,5.031,5.031,0,0,0,4.63-2.75,5.518,5.518,0,0,0,1.09.11,5.114,5.114,0,0,0,4.37-2.27,3.118,3.118,0,0,0,2.37.87c1.4-.15,2.52-1.45,3.11-3.33a5.673,5.673,0,0,0,1.91.33,5.6,5.6,0,0,0,2.4-.54,4.9,4.9,0,0,0-.04.54,4.518,4.518,0,0,0,3.66,4.23,2.762,2.762,0,0,0-.64,2.91c.6,1.26,2.39,1.68,4.19,1.07a3.68,3.68,0,0,0-.05.58,4.578,4.578,0,0,0,3.95,4.3l.02.04c-.9,1.64-.8,3.46.32,4.27a2.216,2.216,0,0,0,1.43.39,11.164,11.164,0,0,1,.29,3.38s2.44-3.71,5.33-7.66c.12.01.24.03.37.03a3.262,3.262,0,0,0,3.1-4.24c1.35-.58,2.33-2.42,2.33-4.6a5.386,5.386,0,0,0-1.75-4.25Z" fill="#6a99f0"/>
          <g id="Group_3463" data-name="Group 3463">
            <path id="Path_25328" data-name="Path 25328" d="M207.61,653.6Z" fill="#6a99f0"/>
            <path id="Path_25329" data-name="Path 25329" d="M208.25,655.97l.02-.03Z" fill="#6a99f0"/>
            <path id="Path_25330" data-name="Path 25330" d="M213.17,648.94h0Z" fill="#6a99f0"/>
            <path id="Path_25331" data-name="Path 25331" d="M207.94,656.44Z" fill="#6a99f0"/>
            <path id="Path_25332" data-name="Path 25332" d="M209.78,653.73l.03-.05Z" fill="#6a99f0"/>
            <path id="Path_25333" data-name="Path 25333" d="M209.05,654.79l.04-.06Z" fill="#6a99f0"/>
            <path id="Path_25334" data-name="Path 25334" d="M212.59,649.73l.07-.1Z" fill="#6a99f0"/>
            <path id="Path_25335" data-name="Path 25335" d="M208.74,655.24l.02-.03Z" fill="#6a99f0"/>
            <path id="Path_25336" data-name="Path 25336" d="M212.08,650.45l.04-.06Z" fill="#6a99f0"/>
            <path id="Path_25337" data-name="Path 25337" d="M207.85,656.37Z" fill="#6a99f0"/>
            <path id="Path_25338" data-name="Path 25338" d="M207.84,656.47Z" fill="#6a99f0"/>
            <path id="Path_25339" data-name="Path 25339" d="M171,605.55l-.25-.03a4.976,4.976,0,0,0-3.77-2.95,4.61,4.61,0,0,0-5.3,2.47,5.254,5.254,0,0,0-.43-.76c-1.47-2.2-4.16-2.99-6-1.75a3.653,3.653,0,0,0-1.53,2.42,4.746,4.746,0,0,0-5.44-.22,4.808,4.808,0,0,0-2.57,4.55c-.15-.02-.3-.04-.46-.05-2.64-.16-4.88,1.5-5.02,3.7a5.71,5.71,0,0,0-1.18-.2c-2.64-.16-4.89,1.5-5.03,3.71a3.567,3.567,0,0,0,.79,2.42,4.023,4.023,0,0,0-2.96,3.45,3.524,3.524,0,0,0,.64,2.22h0a5.415,5.415,0,0,0-.58-.06c-2.64-.16-4.89,1.5-5.03,3.71a3.845,3.845,0,0,0,1.86,3.4c-.08.17-.15.34-.22.5a3.808,3.808,0,0,0-2.06,3.05,3.445,3.445,0,0,0,.29,1.56c-.02.07-.05.14-.07.21a4.244,4.244,0,0,0-3.99,3.68,3.813,3.813,0,0,0,1.63,3.25,3.374,3.374,0,0,0-.62,1.77,3.925,3.925,0,0,0,2.14,3.58,3.847,3.847,0,0,0-2.14,3.1v.47a4.089,4.089,0,0,0-3.29,3.55,4.269,4.269,0,0,0,3.63,4.16,3.636,3.636,0,0,0-1.4,2.61c-.13,2.21,1.9,4.13,4.54,4.29h.23a3.536,3.536,0,0,0-.96,2.19c-.12,2.01,1.56,3.78,3.85,4.2a11.256,11.256,0,0,0,1.42,2.02,4.3,4.3,0,0,0,4.24,3.59,1.693,1.693,0,0,0,.22-.01,10.067,10.067,0,0,0,.94.49,3.477,3.477,0,0,1-.22-.59,84.427,84.427,0,0,1,3.37-9.98,4.046,4.046,0,0,0-.05-.6,6.847,6.847,0,0,0,.6-2.11c2.11-.47,3.75-3.59,3.75-7.36a11.554,11.554,0,0,0-.79-4.29c1.72-.7,3.44-2.74,4.4-5.46a11.666,11.666,0,0,0,.69-3.67,2.967,2.967,0,0,0,2.01.59c1.93-.21,3.32-2.58,3.54-5.66a5.614,5.614,0,0,0,1.98.36,5.35,5.35,0,0,0,3.36-1.15,5.514,5.514,0,0,0,6.45.21,5.583,5.583,0,0,0,4.79.04V605.52Z" fill="#6a99f0"/>
            <path id="Path_25340" data-name="Path 25340" d="M211.59,651.13l.04-.06Z" fill="#6a99f0"/>
            <path id="Path_25341" data-name="Path 25341" d="M210.19,653.13l.05-.08Z" fill="#6a99f0"/>
            <path id="Path_25342" data-name="Path 25342" d="M211.09,651.84l.05-.07Z" fill="#6a99f0"/>
          </g>
          <g id="Group_3464" data-name="Group 3464">
            <path id="Path_25343" data-name="Path 25343" d="M240.78,634.76l-28.35-8.43c-26.92,4.5-54.61,4.11-82.88,0l-28.35,8.43a.333.333,0,0,0,.07.65,1039.523,1039.523,0,0,0,139.42,0,.333.333,0,0,0,.07-.65Z" fill="#83aaf2"/>
            <path id="Path_25344" data-name="Path 25344" d="M212.44,626.33v-6.08c0-20.65-29.42-36.71-37.39-37.39h-8.1c-4.67.12-37.39,16.74-37.39,37.39v6.08h0C157.83,630.44,185.51,630.83,212.44,626.33Z" fill="#83aaf2"/>
            <path id="Path_25345" data-name="Path 25345" d="M175.05,582.86h-4.42v46.69a243.333,243.333,0,0,0,41.8-3.22v-6.08c0-20.65-29.42-36.71-37.39-37.39Z" fill="#b0c9f7"/>
            <path id="Path_25346" data-name="Path 25346" d="M240.78,634.76l-28.35-8.43a243.41,243.41,0,0,1-41.8,3.22v8.2q35.04,0,70.08-2.34a.333.333,0,0,0,.07-.65Z" fill="#b0c9f7"/>
          </g>
          <rect id="Rectangle_1426" data-name="Rectangle 1426" width="23.2" height="5.74" rx="1.94" transform="matrix(0.555, -0.832, 0.832, 0.555, 214.711, 755.728)" fill="#6a99f0"/>
          <path id="Path_25347" data-name="Path 25347" d="M182.07,707.27c.23.05.48.1.73.15v-.03a30.4,30.4,0,0,1,3.76.45c.83.12,1.66.27,2.47.44.67.13,1.11.22,1.11.22l-.03.03c.11.03.22.05.33.08,4.7,1.27,10.02,2.29,14.09,4.86,9.3,5.87,14.16,9.97,19.94,19.98a42.244,42.244,0,0,0,2.66,4.06,1.8,1.8,0,0,0-.66.6l-10.68,16c-1.32-1.8-2.63-3.72-3.95-5.79.8,4.56.1,48.43.1,48.43.68,16.32.57,23.83.39,27.19a2.7,2.7,0,0,1-2.69,2.55H178.61l-.44-113.23a9.311,9.311,0,0,0,3.88-5.99Z" fill="#6a99f0"/>
          <g id="Group_3465" data-name="Group 3465">
            <rect id="Rectangle_1427" data-name="Rectangle 1427" width="10.81" height="251.44" transform="translate(101.21 667.75)" fill="#6a99f0"/>
            <path id="Path_25348" data-name="Path 25348" d="M132.52,970.4V939.15a13.01,13.01,0,0,0-13.01-13.01H94.91A13.01,13.01,0,0,0,81.9,939.15V970.4a2.089,2.089,0,0,1-2.09,2.09H77.46a2.089,2.089,0,0,1-2.09-2.09V936.04a16.794,16.794,0,0,1,16.79-16.79h30.09a16.794,16.794,0,0,1,16.79,16.79V970.4a2.089,2.089,0,0,1-2.09,2.09H134.6a2.089,2.089,0,0,1-2.09-2.09Z" fill="#6a99f0"/>
            <path id="Path_25349" data-name="Path 25349" d="M94.06,926.14h7.14v45.34a1,1,0,0,1-1,1H95.07a1,1,0,0,1-1-1V926.14h0Z" fill="#6a99f0"/>
            <path id="Path_25350" data-name="Path 25350" d="M112.02,926.14h7.14v45.34a1,1,0,0,1-1,1h-5.13a1,1,0,0,1-1-1V926.14h0Z" fill="#6a99f0"/>
          </g>
        </g>
        <g id="Group_3468" data-name="Group 3468">
          <path id="Path_25351" data-name="Path 25351" d="M-119.99,672.06s22.8,37.07,77.22,20.14a1.4,1.4,0,0,1,.76,0c61.87,14.32,77.32-20.14,77.32-20.14Z" fill="#6a99f0"/>
          <path id="Path_25352" data-name="Path 25352" d="M12.96,1043.67h-.42a8.093,8.093,0,0,0-2.82-4.46,22.486,22.486,0,0,0-6.4-3.21c-.54-.18-1.08-.38-1.62-.56q-1.87-.69-3.76-1.35c-2.97-1.11-5.93-2.28-8.84-3.5H-31.01a2.72,2.72,0,0,1-.42-.04l.44,13.13h-.26a.971.971,0,0,0-.97.97v2.54a.971.971,0,0,0,.97.97H12.96a.971.971,0,0,0,.97-.97v-2.54a.971.971,0,0,0-.97-.97Z" fill="#6a99f0"/>
          <path id="Path_25353" data-name="Path 25353" d="M41.39,866.19c-.19-1.41-.39-2.83-.6-4.25-4.48-30.16-13.15-59.68-24.69-83.78L5.06,794.86a260.6,260.6,0,0,1,22.37,67.69c.17.94.34,1.87.5,2.81a.926.926,0,0,0-.14.14,35.043,35.043,0,0,0-4.25,6.28,25.76,25.76,0,0,0-1.33,5.92,2.308,2.308,0,1,0,4.59.49,21.645,21.645,0,0,1,.99-4.63l1.14,7.68a8.253,8.253,0,0,0,16.32-2.43l-1.15-7.74a7.978,7.978,0,0,0-2.71-4.9Z" fill="#a2bff5"/>
          <rect id="Rectangle_1428" data-name="Rectangle 1428" width="25.84" height="6.4" rx="2.16" transform="matrix(0.555, -0.832, 0.832, 0.555, 6.358, 806.096)" fill="#6a99f0"/>
          <path id="Path_25354" data-name="Path 25354" d="M-30,752.1c.26.05.53.11.81.16v-.04a33.126,33.126,0,0,1,4.19.5c.93.13,1.85.3,2.76.49.74.14,1.24.24,1.24.24l-.03.04c.12.03.25.05.37.08,5.23,1.41,11.16,2.55,15.7,5.41,10.36,6.54,15.77,11.11,22.21,22.25a50.355,50.355,0,0,0,2.97,4.53,2.148,2.148,0,0,0-.74.67L7.59,804.25c-1.47-2-2.93-4.14-4.4-6.45.89,5.08.11,53.95.11,53.95.76,18.18.64,26.55.43,30.29a3.005,3.005,0,0,1-3,2.84H-33.83l-.49-126.12c2.42-1.97,3.35-3.06,4.32-6.67Z" fill="#6a99f0"/>
          <path id="Path_25355" data-name="Path 25355" d="M6.81,697.79c0-4.45-3.41-6.59-7.62-7.28-2.97-23.01-20.47-40.68-41.62-40.68s-39.54,18.58-41.82,42.45c.06-.59.12-1.18.2-1.77-4.21.69-7.62,2.83-7.62,7.28,0,4.82,4,10.76,8.69,12.33,4.23,17.38,16.92,30.77,32.75,34.13v7.01c0-.16-5.88.94-5.88.94,3.46,5.06,8.26,9.76,13.51,9.76s9.39-2.5,13.62-9.82q-2.82-.525-5.64-.83v-7.06c15.83-3.36,28.52-16.76,32.75-34.13,4.69-1.57,8.69-7.51,8.69-12.33Z" fill="#a2bff5"/>
          <path id="Path_25356" data-name="Path 25356" d="M-85.15,658.76a7.768,7.768,0,0,1,2.15-.34c.29-.66.6-1.31.94-1.94a8.443,8.443,0,0,1-1.22-4.37,8.467,8.467,0,0,1,8.47-8.47,8.371,8.371,0,0,1,3.43.73,34.553,34.553,0,0,1,4.01-2.4c.31-5.58,5.71-10.03,12.34-10.03,5.1,0,9.48,2.63,11.37,6.38h2.55c2.28-3.54,7.44-4.83,12.18-2.83a11.451,11.451,0,0,1,5.17,4.23,33.9,33.9,0,0,1,5.42,2.13,9.668,9.668,0,0,1,3.06-.5,8.914,8.914,0,0,1,9.18,8.62,7.888,7.888,0,0,1-.23,1.89c.45.6.87,1.22,1.28,1.85,4.75.5,8.38,3.2,8.38,6.47,0,1.96-1.31,3.71-3.38,4.92a5.749,5.749,0,0,1,5.72,5.74,5.649,5.649,0,0,1-5.3,5.72c-.01.57-.03,1.13-.06,1.69a4.064,4.064,0,0,1,1.48-.29,4.13,4.13,0,0,1,0,8.26,3.9,3.9,0,0,1-1.19-.19h0a45.183,45.183,0,0,1,.69,7.7,44.655,44.655,0,0,1-1.97,11.2l-1.08-12.61a15.107,15.107,0,0,0-5.38-11.57,8.882,8.882,0,0,1-2.98,3.86c-3.38,2.55-7.76,2.43-9.79-.26a4.96,4.96,0,0,1-.93-2.19,22.955,22.955,0,0,1-9.39,1.82c-5.29,0-9.88-1.46-12.15-3.6-2.32,1.74-6.88,2.46-11.91,1.62a21.166,21.166,0,0,1-8.4-3.16,5.152,5.152,0,0,1,.17,1.3c0,3.83-4.1,6.93-9.17,6.93-3.73,0-6.93-1.68-8.36-4.1a15.067,15.067,0,0,0-3.24,9.34l-.91,13.25a78.577,78.577,0,0,1-1.65-12.73c-.07-1.71-.05-3.39,0-5.03a2.882,2.882,0,0,1-1.04-3.2,3.071,3.071,0,0,1,1.57-1.99c-.16-.98-.3-1.97-.39-2.97a4.673,4.673,0,0,1-1.31-2.05,5.146,5.146,0,0,1,1.11-4.82v-.69c0-.96.05-1.9.13-2.84a5.208,5.208,0,0,1-3.93-3.42c-.89-2.86,1.15-6.03,4.54-7.08Z" fill="#558bee"/>
          <g id="Group_3467" data-name="Group 3467">
            <path id="Path_25357" data-name="Path 25357" d="M35.4,671.34,3.83,661.95c-29.99,5.01-60.83,4.58-92.31,0l-31.58,9.39a.374.374,0,0,0,.08.73,1156.392,1156.392,0,0,0,155.3,0,.374.374,0,0,0,.08-.73Z" fill="#6a99f0"/>
            <path id="Path_25358" data-name="Path 25358" d="M3.82,661.95v-6.77c0-23-32.77-40.89-41.64-41.64h-9.03c-5.2.14-41.64,18.64-41.64,41.64v6.77h0c31.49,4.58,62.33,5.01,92.31,0Z" fill="#6a99f0"/>
            <path id="Path_25359" data-name="Path 25359" d="M-37.82,613.53h-4.92v52a271.4,271.4,0,0,0,46.57-3.58v-6.77c0-23-32.77-40.89-41.64-41.64Z" fill="#a2bff5"/>
            <path id="Path_25360" data-name="Path 25360" d="M35.4,671.34,3.82,661.95a270.4,270.4,0,0,1-46.57,3.58v9.14q39.03,0,78.06-2.61a.374.374,0,0,0,.08-.73Z" fill="#a2bff5"/>
          </g>
        </g>
        <g id="Group_3472" data-name="Group 3472">
          <path id="Path_25361" data-name="Path 25361" d="M4.35,664.86S27.15,701.93,81.57,685a1.4,1.4,0,0,1,.76,0c61.87,14.32,77.32-20.14,77.32-20.14Z" fill="#6a99f0"/>
          <path id="Path_25362" data-name="Path 25362" d="M82,875.05H41.85a15.311,15.311,0,0,0,4.36,7.74l2.54,140.42,23.38.05L75.8,891.04H82V875.05Z" fill="#6394ef"/>
          <path id="Path_25363" data-name="Path 25363" d="M82,875.05v15.99h7.22l2.76,132.28,23.24.05,3.59-141.67a15.4,15.4,0,0,0,3.32-6.66H81.99Z" fill="#6a99f0"/>
          <rect id="Rectangle_1429" data-name="Rectangle 1429" width="25.84" height="6.4" rx="2.16" transform="translate(46.96 1016.99)" fill="#6a99f0"/>
          <rect id="Rectangle_1430" data-name="Rectangle 1430" width="25.84" height="6.4" rx="2.16" transform="translate(91.17 1016.99)" fill="#6a99f0"/>
          <path id="Path_25364" data-name="Path 25364" d="M70.12,1036.48l.53-13.09H49.62c-.67.29-1.26.55-1.68.73-2.41.89-4.82,1.75-7.23,2.61-1.45.59-2.01.64-3.74,1.32-.66.23-1.32.46-1.98.7-2.77.98-5.53,2.35-7.35,4.66a9.6,9.6,0,0,0-1.61,3.07h-.17a.971.971,0,0,0-.97.97v2.54a.971.971,0,0,0,.97.97H70.08a.971.971,0,0,0,.97-.97v-2.54a.959.959,0,0,0-.92-.96Z" fill="#558bee"/>
          <path id="Path_25365" data-name="Path 25365" d="M137.3,1036.47h-.42a8.093,8.093,0,0,0-2.82-4.46,22.486,22.486,0,0,0-6.4-3.21c-.54-.18-1.08-.38-1.62-.56q-1.87-.69-3.76-1.35c-2.97-1.11-5.93-2.28-8.84-3.5H93.34a2.727,2.727,0,0,1-.42-.04l.44,13.13H93.1a.971.971,0,0,0-.97.97v2.54a.971.971,0,0,0,.97.97h44.22a.971.971,0,0,0,.97-.97v-2.54a.971.971,0,0,0-.97-.97Z" fill="#6a99f0"/>
          <path id="Path_25366" data-name="Path 25366" d="M2.15,858.99c.19-1.41.39-2.83.6-4.25,4.48-30.16,13.15-59.68,24.69-83.78l11.04,16.7a260.6,260.6,0,0,0-22.37,67.69c-.17.94-.34,1.87-.5,2.81a.926.926,0,0,1,.14.14A35.043,35.043,0,0,1,20,864.58a25.76,25.76,0,0,1,1.33,5.92,2.308,2.308,0,1,1-4.59.49,21.645,21.645,0,0,0-.99-4.63l-1.14,7.68a8.253,8.253,0,0,1-16.32-2.43l1.15-7.74a7.978,7.978,0,0,1,2.71-4.9Z" fill="#83aaf2"/>
          <path id="Path_25367" data-name="Path 25367" d="M165.73,858.99c-.19-1.41-.39-2.83-.6-4.25-4.48-30.16-13.15-59.68-24.69-83.78l-11.04,16.7a260.6,260.6,0,0,1,22.37,67.69c.17.94.34,1.87.5,2.81a.926.926,0,0,0-.14.14,35.043,35.043,0,0,0-4.25,6.28,25.76,25.76,0,0,0-1.33,5.92,2.308,2.308,0,1,0,4.59.49,21.644,21.644,0,0,1,.99-4.63l1.14,7.68a8.253,8.253,0,0,0,16.32-2.43l-1.15-7.74a7.978,7.978,0,0,0-2.71-4.9Z" fill="#a2bff5"/>
          <g id="Group_3469" data-name="Group 3469">
            <path id="Path_25368" data-name="Path 25368" d="M68.71,744.92q-2.535.435-5.09,1.03c-8.99,2.1-17.79,5.11-25.4,10.4-6.91,4.51-12.67,10.74-15.54,18.41-1.32,3.53-3.95,13.22-5.11,16.98l17.2,10.15c1.95-6.07,2.19-10.18,4.52-15.83l.96,32.68-6.3,53.55a1.815,1.815,0,0,0,1.53,1.92c2.1.32,4.2.61,6.3.89l.03.21.3-.17a310.548,310.548,0,0,0,39.47,2.7V794.47h0V755.61c-5.62-.05-10.48-4.38-12.88-10.67Z" fill="#558bee"/>
            <path id="Path_25369" data-name="Path 25369" d="M81.59,755.59Z" fill="#6a99f0"/>
          </g>
          <path id="Path_25370" data-name="Path 25370" d="M81.42,754.76a13.66,13.66,0,0,1-8.84-3.39V877.69H92.69V748.86c-2.9,3.62-6.86,5.89-11.26,5.89Z" fill="#83aaf2"/>
          <rect id="Rectangle_1431" data-name="Rectangle 1431" width="25.84" height="6.4" rx="2.16" transform="translate(14.313 789.984) rotate(21.95)" fill="#6a99f0"/>
          <rect id="Rectangle_1432" data-name="Rectangle 1432" width="25.84" height="6.4" rx="2.16" transform="matrix(0.555, -0.832, 0.832, 0.555, 130.691, 798.895)" fill="#6a99f0"/>
          <path id="Path_25371" data-name="Path 25371" d="M94.33,744.9c.26.05.53.11.81.16v-.04a33.126,33.126,0,0,1,4.19.5c.93.13,1.85.3,2.76.49.74.14,1.24.24,1.24.24l-.03.04c.12.03.25.05.37.08,5.23,1.41,11.16,2.55,15.7,5.41,10.36,6.54,15.77,11.11,22.21,22.25a50.353,50.353,0,0,0,2.97,4.53,2.148,2.148,0,0,0-.74.67l-11.89,17.82c-1.47-2-2.93-4.14-4.4-6.45.89,5.08.11,53.95.11,53.95.76,18.18.64,26.55.43,30.29a3.005,3.005,0,0,1-3,2.84H90.5l-.49-126.12c2.42-1.97,3.35-3.06,4.32-6.67Z" fill="#6a99f0"/>
          <g id="Group_3470" data-name="Group 3470">
            <rect id="Rectangle_1433" data-name="Rectangle 1433" width="12.04" height="280.08" transform="translate(4.25 700.89)" fill="#6a99f0"/>
            <path id="Path_25372" data-name="Path 25372" d="M39.13,1038v-34.81A14.493,14.493,0,0,0,24.64,988.7H-2.76a14.493,14.493,0,0,0-14.49,14.49V1038a2.332,2.332,0,0,1-2.33,2.33H-22.2a2.332,2.332,0,0,1-2.33-2.33V999.72A18.708,18.708,0,0,1-5.82,981.01H27.7a18.708,18.708,0,0,1,18.71,18.71V1038a2.332,2.332,0,0,1-2.33,2.33H41.46a2.332,2.332,0,0,1-2.33-2.33Z" fill="#6a99f0"/>
            <path id="Path_25373" data-name="Path 25373" d="M-3.7,988.7H4.25v50.51a1.118,1.118,0,0,1-1.12,1.12H-2.58a1.118,1.118,0,0,1-1.12-1.12V988.7h0Z" fill="#6a99f0"/>
            <path id="Path_25374" data-name="Path 25374" d="M16.3,988.7h7.96v50.51a1.118,1.118,0,0,1-1.12,1.12H17.42a1.118,1.118,0,0,1-1.12-1.12V988.7h0Z" fill="#6a99f0"/>
          </g>
          <path id="Path_25375" data-name="Path 25375" d="M131.15,690.59c0-4.45-3.41-6.59-7.62-7.28-2.97-23.01-20.47-40.68-41.62-40.68s-39.54,18.58-41.82,42.45c.06-.59.12-1.18.2-1.77-4.21.69-7.62,2.83-7.62,7.28,0,4.82,4,10.76,8.69,12.33,4.23,17.38,16.92,30.77,32.75,34.13v7.01c0-.16-5.88.94-5.88.94,3.46,5.06,8.26,9.76,13.51,9.76s9.39-2.5,13.62-9.82q-2.82-.525-5.64-.83v-7.06c15.83-3.36,28.52-16.76,32.75-34.13,4.69-1.57,8.69-7.51,8.69-12.33Z" fill="#a2bff5"/>
          <path id="Path_25376" data-name="Path 25376" d="M81.73,754.76c-5.25,0-9.15-1.08-13.39-9.78,0,0,5.76-1.08,5.76-.92v-7.01c-15.83-3.36-28.52-16.76-32.75-34.13-4.69-1.57-8.69-7.51-8.69-12.33,0-4.45,3.41-6.59,7.62-7.28-.08.59-.14,1.18-.2,1.77,1.97-20.6,15.54-37.26,33.16-41.43h8.48V754.76Z" fill="#75a0f1"/>
          <path id="Path_25377" data-name="Path 25377" d="M39.18,651.55a7.768,7.768,0,0,1,2.15-.34c.29-.66.6-1.31.94-1.94a8.462,8.462,0,0,1,10.68-12.11,34.553,34.553,0,0,1,4.01-2.4c.31-5.58,5.71-10.03,12.34-10.03,5.1,0,9.48,2.63,11.37,6.38h2.55c2.28-3.54,7.44-4.83,12.18-2.83a11.451,11.451,0,0,1,5.17,4.23,33.9,33.9,0,0,1,5.42,2.13,9.668,9.668,0,0,1,3.06-.5,8.914,8.914,0,0,1,9.18,8.62,7.888,7.888,0,0,1-.23,1.89c.45.6.87,1.22,1.28,1.85,4.75.5,8.38,3.2,8.38,6.47,0,1.96-1.31,3.71-3.38,4.92a5.749,5.749,0,0,1,5.72,5.74,5.649,5.649,0,0,1-5.3,5.72c-.01.57-.03,1.13-.06,1.69a4.064,4.064,0,0,1,1.48-.29,4.13,4.13,0,0,1,0,8.26,3.9,3.9,0,0,1-1.19-.19h0a45.183,45.183,0,0,1,.69,7.7,44.655,44.655,0,0,1-1.97,11.2l-1.08-12.61a15.107,15.107,0,0,0-5.38-11.57,8.882,8.882,0,0,1-2.98,3.86c-3.38,2.55-7.76,2.43-9.79-.26a4.96,4.96,0,0,1-.93-2.19,22.955,22.955,0,0,1-9.39,1.82c-5.29,0-9.88-1.46-12.15-3.6-2.32,1.74-6.88,2.46-11.91,1.62a21.166,21.166,0,0,1-8.4-3.16,5.152,5.152,0,0,1,.17,1.3c0,3.83-4.1,6.93-9.17,6.93-3.73,0-6.93-1.68-8.36-4.1a15.067,15.067,0,0,0-3.24,9.34l-.91,13.25a78.578,78.578,0,0,1-1.65-12.73c-.07-1.71-.05-3.39,0-5.03a2.882,2.882,0,0,1-1.04-3.2,3.071,3.071,0,0,1,1.57-1.99c-.16-.98-.3-1.97-.39-2.97a4.673,4.673,0,0,1-1.31-2.05,5.146,5.146,0,0,1,1.11-4.82v-.69c0-.96.05-1.9.13-2.84a5.208,5.208,0,0,1-3.93-3.42c-.89-2.86,1.15-6.03,4.54-7.08Z" fill="#558bee"/>
          <g id="Group_3471" data-name="Group 3471">
            <path id="Path_25378" data-name="Path 25378" d="M159.73,664.13l-31.57-9.39c-29.99,5.01-60.83,4.58-92.31,0L4.27,664.13a.374.374,0,0,0,.08.73,1156.392,1156.392,0,0,0,155.3,0,.374.374,0,0,0,.08-.73Z" fill="#6a99f0"/>
            <path id="Path_25379" data-name="Path 25379" d="M128.16,654.75v-6.77c0-23-32.77-40.89-41.64-41.64H77.49c-5.2.14-41.64,18.64-41.64,41.64v6.77h0C67.34,659.33,98.18,659.76,128.16,654.75Z" fill="#6a99f0"/>
            <path id="Path_25380" data-name="Path 25380" d="M86.51,606.33H81.59v52a271.4,271.4,0,0,0,46.57-3.58v-6.77c0-23-32.77-40.89-41.64-41.64Z" fill="#a2bff5"/>
            <path id="Path_25381" data-name="Path 25381" d="M159.73,664.13l-31.58-9.39a270.4,270.4,0,0,1-46.57,3.58v9.14q39.03,0,78.06-2.61a.374.374,0,0,0,.08-.73Z" fill="#a2bff5"/>
          </g>
        </g>
        <rect id="Rectangle_1434" data-name="Rectangle 1434" width="1266.02" height="131.16" transform="translate(1920 1112.58) rotate(180)" fill="#ab1009"/>
        <rect id="Rectangle_1435" data-name="Rectangle 1435" width="102.69" height="65.58" transform="translate(661.44 1047) rotate(180)" fill="#ab1009"/>
        <rect id="Rectangle_1436" data-name="Rectangle 1436" width="179.64" height="65.58" transform="translate(661.45 1112.58) rotate(180)" fill="#ab1009"/>
      </g>
      <g id="Group_3478" data-name="Group 3478">
        <path id="Path_25382" data-name="Path 25382" d="M1034.59,631.93l-11.13-16.06c-7.23,7.54-7.71,10.9-19.09,14.58-3.59,1.16-17.04.83-21.43.32a160.82,160.82,0,0,1-16.29-3.64c-.94-.24-1.87-.49-2.8-.74-.03-.08-.05-.15-.08-.23-.29-.61-2.9-5.99-4.94-8.2a32.175,32.175,0,0,0-6.09-4.65,2.9,2.9,0,0,0-3.99,1.01,3.135,3.135,0,0,0-.3.68,2.93,2.93,0,0,0,1.3,3.32,27.075,27.075,0,0,1,4.78,3.58l-9.4-2.75a10.417,10.417,0,0,0-5.85,19.99l9.48,2.78a10.077,10.077,0,0,0,7.05-.52q2.58.8,5.18,1.56c.77.23,1.54.44,2.31.66,9.53,3.87,35.05,7.46,35.08,7.46,18.57,3.71,22.57-2.81,36.06-18.95.15.12.42.19.17-.2Z" fill="#e8a967"/>
        <g id="Group_3475" data-name="Group 3475">
          <path id="Path_25383" data-name="Path 25383" d="M1157.71,493s2.92-59.39-56.67-59.39S1037,478.49,1043.65,493s0,19.42-5.28,31.2c-5.11,11.43,18.08,33.92,11.92,47.84s5.36,21.69,5.36,21.69h98.53a31.581,31.581,0,0,0-1.87-27.83c-8.3-14.47,20.86-28.94,5.4-72.89Z" fill="#8f5d32"/>
          <path id="Path_25384" data-name="Path 25384" d="M1038.37,524.2c5.27-11.78,11.92-16.69,5.28-31.2-6.63-14.48-2.2-59.2,57.03-59.39V593.72h-45.03s-11.51-7.76-5.36-21.69-17.04-36.41-11.92-47.84Z" fill="#6d2c04"/>
          <path id="Path_25385" data-name="Path 25385" d="M1175,747.09a9.617,9.617,0,0,1-8.35-9.38v-9.13a25.518,25.518,0,0,0-1.95,5.21,2.72,2.72,0,0,1-2.63,2.03,2.592,2.592,0,0,1-.68-.09,2.726,2.726,0,0,1-1.95-3.31,29.987,29.987,0,0,1,2.57-6.66c1.44-2.4,5.57-6.15,6.04-6.57a2.027,2.027,0,0,1,.18-.13c-.03-1.12-.06-2.23-.1-3.36-1.37-37.98-9.49-73.28-21.88-103.31V579a47.552,47.552,0,0,1,18.81,23.37c12.12,32.39,18.72,73.64,18.72,114.92,0,1.69-.02,3.37-.04,5.04a9.4,9.4,0,0,1,2.31,6.17v9.21a9.689,9.689,0,0,1-11.06,9.38Z" fill="#f5d4b5"/>
          <path id="Path_25386" data-name="Path 25386" d="M1091.75,577.14c2.57,3.07,5.79.66,9.29.66,3.18,0,6.12,2.72,8.56.15V711.54h-17.85V577.14Z" fill="#ebebed"/>
          <path id="Path_25387" data-name="Path 25387" d="M1100.68,577.81V711.53h-8.93V577.13C1094.23,580.09,1097.32,577.96,1100.68,577.81Z" fill="#dadbde"/>
          <path id="Path_25388" data-name="Path 25388" d="M1107.68,579.68l.02-.02Z" fill="#414042"/>
          <path id="Path_25389" data-name="Path 25389" d="M1095.06,580.13c-.08-.05-.15-.1-.23-.15C1094.9,580.03,1094.98,580.08,1095.06,580.13Z" fill="#414042"/>
          <path id="Path_25390" data-name="Path 25390" d="M1109.6,577.95h0a23.681,23.681,0,0,0,5.22-9.4c2.48.38,4.95.85,7.44,1.43a78.276,78.276,0,0,1,17.02,5.29,48.091,48.091,0,0,1,6.98,3.74l1,33.54s8.17,143,6.96,143H1109.6V577.94Z" fill="#ebebed"/>
          <path id="Path_25391" data-name="Path 25391" d="M1106.64,580.38a.321.321,0,0,1,.07-.04A.434.434,0,0,1,1106.64,580.38Z" fill="#414042"/>
          <path id="Path_25392" data-name="Path 25392" d="M1146.26,579.01c8.57,5.53,15.79,13.28,19.43,23.01,8.67,23.16,16.72,50.35,19.38,79.33a.812.812,0,0,1-.55.84L1164.27,689a.806.806,0,0,1-1.05-.66c-3.42-27.17-8.16-52.97-17.39-75.34l.43-33.99Z" fill="#ebebed"/>
          <path id="Path_25393" data-name="Path 25393" d="M1151.65,516.19c-5.31,21.84-21.27,38.67-41.16,42.9v8.87c.57.06,1.14.14,1.72.21-2.48,4.33-5.84,6.94-11.18,9.63a4.711,4.711,0,0,0-.65.03c-5.4-2.71-8.77-5.33-11.27-9.73a5.629,5.629,0,0,1,1.76-.2v-8.81c-19.89-4.23-35.85-21.06-41.16-42.9-5.89-1.97-10.92-9.44-10.92-15.5,0-5.59,4.29-8.28,9.58-9.15,2.86-30,25.05-51.14,52.31-51.14s48.58,22.21,52.31,51.14c5.29.87,9.58,3.56,9.58,9.15,0,6.06-5.03,13.53-10.92,15.5Z" fill="#f5d4b5"/>
          <path id="Path_25394" data-name="Path 25394" d="M1152.99,491.54l-3.18,18.74s1.43-11.41-11.07-20.17-58.37,8.38-62.39-23.03c0,0-3.41,23.57-27.99,24.46,0,0-1.1-54.45,52.67-54.45s51.96,54.45,51.96,54.45Z" fill="#8f5d32"/>
          <rect id="Rectangle_1438" data-name="Rectangle 1438" width="5.04" height="26.03" rx="0.6" transform="matrix(-0.192, -0.981, 0.981, -0.192, 1161.686, 690.215)" fill="#d42e28"/>
          <path id="Path_25395" data-name="Path 25395" d="M1048.37,491.54c2.86-30,25.05-51.14,52.31-51.14h0V577.81c-.1,0-.2,0-.3.01-5.4-2.71-8.77-5.33-11.27-9.73a5.629,5.629,0,0,1,1.76-.2v-8.81c-19.89-4.23-35.85-21.06-41.16-42.9-5.89-1.97-10.92-9.44-10.92-15.5,0-5.59,4.29-8.28,9.58-9.15Z" fill="#e8a967"/>
          <path id="Path_25396" data-name="Path 25396" d="M1100.68,437.1v49.72c-12.05-1.21-22.51-5.46-24.33-19.73,0,0-3.41,23.57-27.99,24.46,0,0-1.09-54.2,52.31-54.44Z" fill="#6d2c04"/>
          <path id="Path_25397" data-name="Path 25397" d="M1100.1,579.99c.1,0,.21-.01.31-.01V569l5.56-4.34,4.79-3.74,3.25,7.01a57.47,57.47,0,0,1,8.66,1.38c.46.12.91.25,1.37.37,5.59,1.06,11.22,4.1,16.38,6.34,1.88.81,4.03,2.01,5.84,3.01l1.34,35.08.13,6.16c3.64,32.51,7.18,134.95,7.22,136.61h-54.31l-.22-30.27h-.32V580h0Z" fill="#ebebed"/>
          <path id="Path_25398" data-name="Path 25398" d="M960.65,623.87a43.269,43.269,0,0,1,4.78,1.17,112.478,112.478,0,0,0,16.9,5.47,23.931,23.931,0,0,0,11.41.1,58.54,58.54,0,0,0,37.66-27.72c7.61-13.17,14-18.56,26.24-26.29,5.36-3.38,12.36-4.73,18.54-6.4.14-.04.29-.06.43-.1l-.03-.05s.58-.12,1.46-.28c1.07-.23,2.16-.42,3.26-.58a40.035,40.035,0,0,1,4.94-.59v.04c.34-.07.66-.13.97-.19a24.618,24.618,0,0,0,4.52,8.68V755.55h-44.04c-.61,0,.64-33.66,2.08-68.31-1.46-17.78-2.83-58.76-1.77-64.77-17.06,26.79-33.64,36.08-57.08,31.4a.635.635,0,0,1-.15-.03v-.04c-1.79-.55-16.22-4.46-27.63-9.99a24.9,24.9,0,0,0-3.35-1.03l.84-18.92Zm115.37-53.22c2-.4,4.5-.88,6.87-1.34C1080.51,569.77,1078.01,570.26,1076.02,570.65Zm10.06-1.97.16-.03Zm-2.78.55.21-.04Zm.55-.11.23-.04Zm.61-.12.17-.03Zm.53-.1.17-.03Zm-9,1.76c-.16.03-.31.06-.46.09C1075.68,570.72,1075.83,570.69,1075.99,570.66Zm-.48.1c-.14.03-.29.06-.42.08C1075.23,570.81,1075.37,570.78,1075.51,570.76Zm-.47.09c-.13.03-.26.05-.38.08C1074.78,570.9,1074.91,570.88,1075.04,570.85Zm-.45.09c-.11.02-.21.04-.31.06C1074.38,570.98,1074.48,570.96,1074.59,570.94Zm-.43.09a2.556,2.556,0,0,1-.27.05A2.556,2.556,0,0,1,1074.16,571.03Zm-.36.07a2.379,2.379,0,0,1-.26.05C1073.62,571.13,1073.71,571.12,1073.8,571.1Zm-.35.07c-.07.02-.15.03-.21.05A1.606,1.606,0,0,0,1073.45,571.17Zm-.31.06c-.07.01-.13.03-.19.04C1073.01,571.26,1073.07,571.24,1073.14,571.23Zm-.27.06c-.06.01-.11.02-.16.03Zm-.24.05-.13.03A.789.789,0,0,0,1072.63,571.34Zm-.19.04-.12.03A.527.527,0,0,0,1072.44,571.38Z" fill="#dadbde"/>
          <path id="Path_25399" data-name="Path 25399" d="M969.64,624.79l4.36.89-4.4,21.56-4.36-.89.29-1.43,3.79-18.57Z" fill="#d42e28"/>
          <path id="Path_25400" data-name="Path 25400" d="M1093.25,756.04l-2.09,139.16a2.019,2.019,0,0,1-2.02,1.98h-25.61a2.019,2.019,0,0,1-2.02-1.98l-1.98-139.16h33.73Z" fill="#bbbcbe"/>
          <path id="Path_25401" data-name="Path 25401" d="M1053.45,614.92l3.43-37.54c1.1-.56,2.22-1.08,3.35-1.57a82.465,82.465,0,0,1,16.77-5.32c.46-.12.91-.25,1.37-.37a57.47,57.47,0,0,1,8.66-1.38l3.25-7.01,4.79,3.74,5.56,4.34v10.98c.1,0,.21.01.31.01h0V727.41h-.32v29.45h-54.31c.04-1.66,3.36-103.27,7-135.79l.13-6.16Z" fill="#dadbde"/>
          <path id="Path_25402" data-name="Path 25402" d="M1144.28,756.04l-1.08,139.43a1.726,1.726,0,0,1-1.73,1.71h-28.95a1.727,1.727,0,0,1-1.73-1.68l-.67-139.46h34.17Z" fill="#dadbde"/>
          <path id="Path_25403" data-name="Path 25403" d="M1064.29,897.18h23.64l-.66,19.85a2.738,2.738,0,0,1-2.74,2.74h-51.49c0-4.25.48-8.14,4.02-11.01a27.714,27.714,0,0,1,7.91-3.97c6.51-2.17,13-4.72,19.31-7.41v-.2h0Z" fill="#19181a"/>
          <path id="Path_25404" data-name="Path 25404" d="M1157.62,919.77h-38.73a2.738,2.738,0,0,1-2.74-2.74l-.8-19.85h23.81c1.77.72,3.33,1.42,4.28,1.82,5.32,1.97,10.65,3.82,16,5.72,3.42,1.21,6.83,2.9,9.08,5.75a12.23,12.23,0,0,1,2.46,9.28c-4.45.08-8.91,0-13.36,0Z" fill="#282729"/>
          <circle id="Ellipse_1562" data-name="Ellipse 1562" cx="3.02" cy="3.02" r="3.02" transform="translate(1104.16 603.6)" fill="#414042"/>
          <circle id="Ellipse_1563" data-name="Ellipse 1563" cx="3.02" cy="3.02" r="3.02" transform="translate(1090.62 603.6)" fill="#414042"/>
          <circle id="Ellipse_1564" data-name="Ellipse 1564" cx="3.02" cy="3.02" r="3.02" transform="translate(1104.19 649.51)" fill="#414042"/>
          <circle id="Ellipse_1565" data-name="Ellipse 1565" cx="3.02" cy="3.02" r="3.02" transform="translate(1090.65 649.51)" fill="#414042"/>
          <circle id="Ellipse_1566" data-name="Ellipse 1566" cx="3.02" cy="3.02" r="3.02" transform="translate(1104.19 695.43)" fill="#414042"/>
          <circle id="Ellipse_1567" data-name="Ellipse 1567" cx="3.02" cy="3.02" r="3.02" transform="translate(1090.65 695.43)" fill="#414042"/>
          <path id="Path_25405" data-name="Path 25405" d="M1084.79,591.67h14.03V579.43h2.82v15.06h-14.03a2.817,2.817,0,0,0-2.82,2.82V756.05h-2.82V594.49h0a2.817,2.817,0,0,1,2.82-2.82Z" fill="#d42e28"/>
          <path id="Path_25406" data-name="Path 25406" d="M1100.41,568.99V581.8l-5.06-7.38-8.41-5.23,3.76-8.28Z" fill="#bbbcbe"/>
          <path id="Path_25407" data-name="Path 25407" d="M1100.41,581.8l3.94-7.63,9.66-6.25-3.24-7.01-10.36,8.08Z" fill="#dadbde"/>
          <g id="Group_3474" data-name="Group 3474">
            <path id="Path_25408" data-name="Path 25408" d="M1028.44,397.24a25.91,25.91,0,0,1,45.36-13.47,4.283,4.283,0,0,0,6.53-.02,25.892,25.892,0,0,1,39.28,0,4.283,4.283,0,0,0,6.53.02,25.916,25.916,0,1,1,28.93,41.08,2.4,2.4,0,0,0-1.5,2.26v51.97H1046.39V429a5.211,5.211,0,0,0-2.97-4.76,25.919,25.919,0,0,1-14.96-26.99Z" fill="#ebebed"/>
            <path id="Path_25409" data-name="Path 25409" d="M1050.91,374.92a25.878,25.878,0,0,1,22.88,8.85,4.275,4.275,0,0,0,6.51,0,25.842,25.842,0,0,1,20.39-9.03l.02.02V479.08h-54.35V429a5.211,5.211,0,0,0-2.97-4.76,25.919,25.919,0,0,1,7.52-49.31Z" fill="#dadbde"/>
            <rect id="Rectangle_1439" data-name="Rectangle 1439" width="107.18" height="14.15" transform="translate(1153.55 479.07) rotate(180)" fill="#dadbde"/>
            <rect id="Rectangle_1440" data-name="Rectangle 1440" width="54.35" height="14.15" transform="translate(1100.72 479.07) rotate(180)" fill="#bbbcbe"/>
          </g>
        </g>
        <g id="Group_3476" data-name="Group 3476">
          <path id="Path_25410" data-name="Path 25410" d="M958.01,573.42V628.6a13.7,13.7,0,0,1-2.93-.32,15.4,15.4,0,0,1-3.23-1.1c-4.49-2.06-8.6-6.26-12.07-11.71l-.36-.57c-.11-.19-.23-.38-.34-.57h0c-5.24-8.68-8.92-20.2-10.12-31.27-.17-1.6-.29-3.19-.36-4.76-.04-.93-.06-1.85-.06-2.77,0-1.84.08-3.66.24-5.44v3.33h29.26Z" fill="#fbc640"/>
          <path id="Path_25411" data-name="Path 25411" d="M939.06,614.32c.12.19.23.38.34.57-.12-.19-.24-.39-.35-.58h0Z" fill="#fbc640"/>
          <rect id="Rectangle_1441" data-name="Rectangle 1441" width="29.26" height="3.33" transform="translate(928.76 570.09)" fill="#fbc640"/>
          <path id="Path_25412" data-name="Path 25412" d="M939.77,615.47a8.813,8.813,0,0,1-4.74,1.48c-9.27,0-16.79-22.12-16.79-35.56,0-1.05.05-2.08.14-3.1h10.2c.07,1.57.19,3.16.36,4.76h-5.31a20.022,20.022,0,0,0-.15,2.45c0,9.54,6.74,25.9,15.58,28.81h0c.12.19.23.38.34.57s.24.39.36.57Z" fill="#fbc640"/>
          <path id="Path_25413" data-name="Path 25413" d="M958.01,628.6v4.24a6.162,6.162,0,0,1-2.93-.75,5.733,5.733,0,0,1-3.26-4.54,1.5,1.5,0,0,1,.03-.37,15.6,15.6,0,0,0,3.23,1.1A13.7,13.7,0,0,0,958.01,628.6Z" fill="#fcd572"/>
          <path id="Path_25414" data-name="Path 25414" d="M958.01,632.84v17.92h-2.93V632.1a6.31,6.31,0,0,0,2.93.75Z" fill="#fbc640"/>
          <rect id="Rectangle_1442" data-name="Rectangle 1442" width="8.8" height="3.96" transform="translate(949.21 650.76)"/>
          <rect id="Rectangle_1443" data-name="Rectangle 1443" width="14.67" height="15.62" transform="translate(943.34 654.72)" fill="#fbc640"/>
          <rect id="Rectangle_1444" data-name="Rectangle 1444" width="16.3" height="2.58" transform="translate(941.71 670.34)"/>
          <rect id="Rectangle_1445" data-name="Rectangle 1445" width="16.3" height="2.58" transform="translate(958.01 670.34)" fill="#965b39"/>
          <rect id="Rectangle_1446" data-name="Rectangle 1446" width="29.26" height="3.33" transform="translate(928.76 570.09)" fill="#fcd572"/>
          <path id="Path_25415" data-name="Path 25415" d="M987.39,570.09v1.68q-.045-.84-.12-1.68Z" fill="#fcd572"/>
          <path id="Path_25416" data-name="Path 25416" d="M987.39,571.77v1.65H958.01v-3.33h29.26Q987.345,570.93,987.39,571.77Z" fill="#fcc572"/>
          <path id="Path_25417" data-name="Path 25417" d="M996.68,581.39c0,13.44-7.52,35.56-16.79,35.56a8.591,8.591,0,0,1-3.94-1.02c.09-.14.18-.27.26-.41.15-.23.29-.46.44-.69.21-.34.41-.68.61-1.02.02-.03.04-.07.07-.11,8.11-4.11,14.12-19.19,14.12-28.2a19.769,19.769,0,0,0-.15-2.45h-4.22v-.13c.05-.29.07-.59.1-.88.01-.16.03-.31.04-.47.02-.27.05-.54.07-.81a1.793,1.793,0,0,1,.02-.22c.03-.36.05-.71.07-1.07.02-.39.05-.79.06-1.18h9.1C996.63,579.31,996.68,580.33,996.68,581.39Z" fill="#fbb040"/>
          <rect id="Rectangle_1447" data-name="Rectangle 1447" width="14.67" height="15.62" transform="translate(958.01 654.72)" fill="#fbb040"/>
          <rect id="Rectangle_1448" data-name="Rectangle 1448" width="8.8" height="3.96" transform="translate(958.01 650.76)" fill="#965b39"/>
          <path id="Path_25418" data-name="Path 25418" d="M960.95,632.09v18.66h-2.93V632.83a6.162,6.162,0,0,0,2.93-.75Z" fill="#fbb040"/>
          <path id="Path_25419" data-name="Path 25419" d="M964.21,627.55a5.733,5.733,0,0,1-3.26,4.54,6.278,6.278,0,0,1-2.93.75V628.6a13.7,13.7,0,0,0,2.93-.32,15.682,15.682,0,0,0,3.24-1.1A2.293,2.293,0,0,1,964.21,627.55Z" fill="#fcc572"/>
          <path id="Path_25420" data-name="Path 25420" d="M987.5,575.53c0,.91-.02,1.84-.06,2.77-.01.39-.04.79-.06,1.18-.02.36-.04.71-.07,1.07a.819.819,0,0,1-.02.22c-.02.27-.04.54-.07.81-.01.16-.03.31-.04.47-.03.29-.06.59-.09.88v.13a80.034,80.034,0,0,1-9.76,30.65.672.672,0,0,1-.07.11c-.2.34-.41.68-.61,1.02-.14.23-.29.47-.44.69-.08.14-.17.27-.26.41-3.41,5.22-7.42,9.25-11.77,11.25a15.682,15.682,0,0,1-3.24,1.1,13.7,13.7,0,0,1-2.93.32V573.43h29.38v-1.65c.08,1.24.12,2.49.12,3.76Z" fill="#fbb040"/>
          <rect id="Rectangle_1449" data-name="Rectangle 1449" width="17.61" height="8.85" transform="translate(949.21 658.11)" fill="#fcd572"/>
        </g>
        <g id="Group_3477" data-name="Group 3477">
          <path id="Path_25421" data-name="Path 25421" d="M980.37,608.06l-15.12-27.09-29.77,8.7,27.09-15.12-8.71-29.77,15.12,27.09,29.78-8.71-27.09,15.12Z" fill="#fef1cf"/>
          <path id="Path_25422" data-name="Path 25422" d="M966.1,578.89l-16.17,4.73,14.72-8.21-4.74-16.18,8.22,14.72,16.18-4.73-14.72,8.21,4.73,16.18Z" fill="#fff"/>
        </g>
      </g>
      <g id="Group_3484" data-name="Group 3484">
        <path id="Path_25423" data-name="Path 25423" d="M850.26,564.47c.9-1.87-.52-4.06-3.19-5.07a3.555,3.555,0,0,0-1.63-4.56,5.823,5.823,0,0,0-3.13-.82,3.53,3.53,0,0,0,1.07-2.45c0-2.22-2.25-4.03-5.03-4.03s-4.97,1.77-5.02,3.96a10.117,10.117,0,0,0-5.16,1.69,23.025,23.025,0,0,0-13.81-4.64c-13.38,0-24.23,11.63-24.23,25.98a27.412,27.412,0,0,0,1.85,9.95,27.41,27.41,0,0,0-2.87,12.28c0,14.35,10.85,25.98,24.23,25.98a23.342,23.342,0,0,0,16.94-7.41,3.85,3.85,0,0,0,.97.14,5.137,5.137,0,0,1,5.47.45,2.753,2.753,0,0,0,2.15-3.14,2.868,2.868,0,0,0,1.83-1.24c.76-1.31-.21-2.97-2.18-3.7a6.028,6.028,0,0,0-.99-.26,2.414,2.414,0,0,0,.68-.71,2.06,2.06,0,0,0-.28-2.36,4.73,4.73,0,0,0,2.94-1.11,2.633,2.633,0,0,0,.77-3.56,3.89,3.89,0,0,0,1.81-1.31,3.132,3.132,0,0,0-.33-3.91,4.942,4.942,0,0,0,2.53-.58c1.97-1.1,2.37-3.41,1.07-5.39a4.024,4.024,0,0,0,2.51-1.95c.9-1.87-.52-4.06-3.19-5.07a3.555,3.555,0,0,0-1.63-4.56c-.15-.09-.3-.16-.46-.24a3.787,3.787,0,0,0,.52-.54,3.132,3.132,0,0,0-.33-3.91,4.942,4.942,0,0,0,2.53-.58c1.97-1.1,2.37-3.41,1.07-5.39a4.024,4.024,0,0,0,2.51-1.95Z" fill="#1d1d1d"/>
        <path id="Path_25424" data-name="Path 25424" d="M783.49,563.69a25.222,25.222,0,0,0-4.59-7.09,32.9,32.9,0,0,0,2.92-4.74c6.66-13.14,2.86-27.28-8.48-31.58a21.4,21.4,0,0,0-13.86-.19,7.689,7.689,0,0,0-3.59-3.2,3.837,3.837,0,0,0-2.42-5.24,4.958,4.958,0,0,0-6.13,2.07,3.461,3.461,0,0,0-.23,2.59,5.283,5.283,0,0,0-3.04-.25,4.2,4.2,0,0,0-3.49,3.65c-2.73.07-4.95,1.61-5.05,3.62a3.264,3.264,0,0,0,1.23,2.59c-2.02,1.39-2.75,3.63-1.59,5.28a3.789,3.789,0,0,0,1.87,1.34,3.634,3.634,0,0,0-2.09,3.48,3.15,3.15,0,0,0,.93,1.79,2.822,2.822,0,0,0-1,3.51,3.641,3.641,0,0,0,1.98,1.97,2.431,2.431,0,0,0-1.34,2.07,1.892,1.892,0,0,0,.24.87,4.977,4.977,0,0,0-.96-.08c-2,.04-3.6,1.24-3.56,2.69a2.273,2.273,0,0,0,.98,1.72,2.517,2.517,0,0,0,.36,3.57,3.448,3.448,0,0,0,3.42.18,2.507,2.507,0,0,0,.35.44,5.482,5.482,0,0,0-.73.36,3.717,3.717,0,0,0-1.72,4.5c-2.51.92-3.94,3.06-3.19,4.96a3.724,3.724,0,0,0,2.23,2.03c-1.3,1.93-1.04,4.25.73,5.42a4.266,4.266,0,0,0,2.31.66,3.346,3.346,0,0,0-.49,3.9,3.674,3.674,0,0,0,1.61,1.37,2.776,2.776,0,0,0,.54,3.59,4.113,4.113,0,0,0,2.66,1.21,2.212,2.212,0,0,0-.38,2.35,2.433,2.433,0,0,0,.59.73,5.224,5.224,0,0,0-.93.22c-1.85.67-2.83,2.29-2.19,3.63a2.667,2.667,0,0,0,1.63,1.3,2.716,2.716,0,0,0,1.83,3.21,3.333,3.333,0,0,0,3.26-.9,3.172,3.172,0,0,0,1.82.63,3.646,3.646,0,0,0,.57-.04c.03.09.04.19.08.28a2.433,2.433,0,0,0,.59.73,5.224,5.224,0,0,0-.93.22c-1.85.67-2.83,2.29-2.19,3.63a2.667,2.667,0,0,0,1.63,1.3,2.716,2.716,0,0,0,1.83,3.21,3.316,3.316,0,0,0,3.26-.91,3.172,3.172,0,0,0,1.82.63,3.437,3.437,0,0,0,.91-.11,20.59,20.59,0,0,0,15.3,7.98c12.37.45,22.97-10.81,23.66-25.14.44-9.03-3.16-17.13-8.97-22Z" fill="#2f3538"/>
        <path id="Path_25425" data-name="Path 25425" d="M885.19,497.4s-25.82,41.97-87.43,22.81a1.606,1.606,0,0,0-.87,0c-70.05,16.21-87.55-22.8-87.55-22.8H885.19Z" fill="#b78d54"/>
        <g id="Group_3479" data-name="Group 3479">
          <path id="Path_25426" data-name="Path 25426" d="M743.97,514.31c3.7,5.04,6.84,9.82,6.84,9.82s-.98-8.3,7.81-17.08,7.65-16.04,7.65-16.04a16.023,16.023,0,0,0,8.7,4.56c14.16,11.23,21.2,6.85,34.14,6.85s22.22,8.42,24.9,20.93-.76,12.4,3.79,18.99c3.97,5.76,2.68,9.94,2.28,10.91-7.44,13.05-19.39,22.5-33.37,25.47v8.55c2.19.24,4.95.68,5.59.78-2.74,7.17-8.28,12.09-14.7,12.09s-11.97-4.93-14.7-12.11a26.7,26.7,0,0,1,4.9-.82v-8.49c-19.18-4.08-34.56-20.31-39.68-41.36-5.68-1.9-10.53-9.1-10.53-14.94,0-4.33,2.67-6.85,6.37-8.11Z" fill="#9a6a45"/>
          <path id="Path_25427" data-name="Path 25427" d="M812.32,588.06h0C812.52,588.09,812.49,588.09,812.32,588.06Z" fill="#b38563"/>
        </g>
        <path id="Path_25428" data-name="Path 25428" d="M797.27,735.41h45.46a17.525,17.525,0,0,1-4.93,8.77l-2.87,158.99-26.47.06-4.15-149.71h-7.03V735.41Z" fill="#30538e"/>
        <path id="Path_25429" data-name="Path 25429" d="M797.27,735.41v18.11H789.1L785.97,903.3l-26.31.06-4.07-160.41a17.438,17.438,0,0,1-3.76-7.54h45.45Z" fill="#3e89ff"/>
        <path id="Path_25430" data-name="Path 25430" d="M743.97,514.31c3.7,5.04,6.84,9.82,6.84,9.82s-.98-8.3,7.81-17.08,7.65-16.04,7.65-16.04a16.023,16.023,0,0,0,8.7,4.56c9.26,7.34,15.48,8.01,22.29,7.6v96.96c-6.27-.18-11.67-5.04-14.35-12.09a26.7,26.7,0,0,1,4.9-.82v-8.49c-19.18-4.08-34.56-20.31-39.68-41.36-5.68-1.9-10.53-9.1-10.53-14.94,0-4.33,2.67-6.85,6.37-8.11Z" fill="#b38563"/>
        <rect id="Rectangle_1450" data-name="Rectangle 1450" width="29.26" height="7.24" rx="2.16" transform="translate(836.94 903.36) rotate(180)" fill="#30538e"/>
        <rect id="Rectangle_1451" data-name="Rectangle 1451" width="29.26" height="7.24" rx="2.16" transform="translate(786.89 903.36) rotate(180)" fill="#4e86e9"/>
        <path id="Path_25431" data-name="Path 25431" d="M810.72,918.18l-.6-14.82h23.81c.76.33,1.42.62,1.9.82,2.73,1.01,5.46,1.98,8.19,2.95,1.65.67,2.28.72,4.24,1.5.75.26,1.49.53,2.24.79,3.14,1.11,6.26,2.66,8.32,5.28a10.828,10.828,0,0,1,1.82,3.48h.2a1.093,1.093,0,0,1,1.09,1.09v2.88a1.093,1.093,0,0,1-1.09,1.09H810.77a1.093,1.093,0,0,1-1.09-1.09v-2.88A1.09,1.09,0,0,1,810.72,918.18Z" fill="#282729"/>
        <path id="Path_25432" data-name="Path 25432" d="M734.65,918.17h.47a9.138,9.138,0,0,1,3.19-5.05,25.317,25.317,0,0,1,7.25-3.64c.61-.2,1.22-.42,1.84-.64q2.12-.78,4.26-1.53c3.37-1.25,6.72-2.58,10.01-3.97h22.76a2.61,2.61,0,0,0,.48-.05l-.5,14.87h.3a1.093,1.093,0,0,1,1.09,1.09v2.88a1.093,1.093,0,0,1-1.09,1.09H734.64a1.093,1.093,0,0,1-1.09-1.09v-2.88a1.093,1.093,0,0,1,1.09-1.09Z"/>
        <path id="Path_25433" data-name="Path 25433" d="M887.69,717.22c-.21-1.6-.44-3.2-.68-4.81-5.07-34.15-14.89-67.58-27.96-94.86l-12.5,18.91a293.472,293.472,0,0,1,25.33,76.64c.2,1.06.38,2.12.57,3.18-.05.05-.11.1-.16.15-.38.46-3.78,4.62-4.82,7.11a28.7,28.7,0,0,0-1.5,6.71,2.608,2.608,0,0,0,2.32,2.87,2.893,2.893,0,0,0,.66-.01,2.613,2.613,0,0,0,2.21-2.31,24.439,24.439,0,0,1,1.12-5.24l1.29,8.69a9.339,9.339,0,0,0,18.47-2.74l-1.3-8.76a8.983,8.983,0,0,0-3.07-5.54Z" fill="#9a6a45"/>
        <path id="Path_25434" data-name="Path 25434" d="M702.46,715.37c.21-1.6.44-3.2.68-4.81,5.07-34.15,14.89-67.58,27.96-94.86l12.5,18.91a294.951,294.951,0,0,0-25.33,76.64c-.2,1.06-.38,2.12-.57,3.18.05.05.11.1.16.15.38.46,3.78,4.62,4.82,7.11a28.7,28.7,0,0,1,1.5,6.71,2.608,2.608,0,0,1-2.32,2.87,2.893,2.893,0,0,1-.66-.01,2.613,2.613,0,0,1-2.21-2.31,24.439,24.439,0,0,0-1.12-5.24l-1.29,8.69a9.339,9.339,0,0,1-18.47-2.74l1.3-8.76a8.983,8.983,0,0,1,3.07-5.54Z" fill="#b38563"/>
        <g id="Group_3480" data-name="Group 3480">
          <path id="Path_25435" data-name="Path 25435" d="M812.32,588.05c1.92.33,3.84.71,5.76,1.16,10.18,2.38,20.14,5.78,28.76,11.78,7.82,5.11,14.35,12.16,17.6,20.84,1.5,4,4.47,14.97,5.79,19.23l-19.47,11.49c-2.21-6.87-2.48-11.53-5.12-17.93l-1.09,37,7.14,60.63a2.048,2.048,0,0,1-1.73,2.17c-2.38.36-4.76.69-7.13,1.01a2.012,2.012,0,0,1-.04.24l-.34-.2a352.663,352.663,0,0,1-44.69,3.06v-94.4h0v-44c6.36-.06,11.86-4.96,14.58-12.09Z" fill="#d42e28"/>
          <path id="Path_25436" data-name="Path 25436" d="M797.73,600.14Z" fill="#61a058"/>
        </g>
        <path id="Path_25437" data-name="Path 25437" d="M797.92,599.2a15.541,15.541,0,0,0,10.01-3.83V738.4H785.16V592.53c3.28,4.1,7.77,6.67,12.75,6.67Z" fill="#fff"/>
        <rect id="Rectangle_1452" data-name="Rectangle 1452" width="29.26" height="7.24" rx="2.16" transform="translate(876.608 645.806) rotate(158.05)" fill="#d85041"/>
        <path id="Path_25438" data-name="Path 25438" d="M738.98,498.01a6.228,6.228,0,0,1-1.17-6.05,5.994,5.994,0,0,1,5.14-4.48,6.667,6.667,0,0,1-.08-4.29,5.979,5.979,0,0,1,5.17-4.48c.92-2.94,3.53-4.8,6.03-4.39a6.237,6.237,0,0,1,.23-1.02c.97-3.19,3.93-5.12,6.6-4.31a4.687,4.687,0,0,1,2.87,2.66c-.35-2.66,1.83-5.25,5.02-5.86a6.827,6.827,0,0,1,3.29.16c1.3-2.34,3.75-3.61,6.01-2.92a3.8,3.8,0,0,1,.59.23c.1-2.39,2.17-4.57,5.05-5.13a6.918,6.918,0,0,0,7.84-1.51,6.307,6.307,0,0,1,5.71,1.59v46.14a6.668,6.668,0,0,1-4.82,1.98,6.335,6.335,0,0,1-5.84-3.46,6.845,6.845,0,0,1-1.37.14,6.456,6.456,0,0,1-5.51-2.86,3.963,3.963,0,0,1-2.99,1.1c-1.77-.19-3.18-1.83-3.92-4.2a7.054,7.054,0,0,1-2.41.42,6.976,6.976,0,0,1-3.02-.68,5.056,5.056,0,0,1,.05.68,5.693,5.693,0,0,1-4.62,5.33,3.444,3.444,0,0,1,.8,3.67c-.75,1.59-3.02,2.12-5.29,1.35a4.405,4.405,0,0,1,.06.73,5.77,5.77,0,0,1-4.99,5.42l-.03.05c1.14,2.07,1.01,4.37-.4,5.39a2.823,2.823,0,0,1-1.8.49,14.49,14.49,0,0,0-.37,4.26s-3.08-4.68-6.73-9.66a3.57,3.57,0,0,1-.47.04,4.089,4.089,0,0,1-4.09-4.09,4.35,4.35,0,0,1,.19-1.25c-1.7-.73-2.94-3.05-2.94-5.8a6.806,6.806,0,0,1,2.21-5.36Z" fill="#180e06"/>
        <g id="Group_3481" data-name="Group 3481">
          <path id="Path_25439" data-name="Path 25439" d="M751.09,520.34Z" fill="#302113"/>
          <path id="Path_25440" data-name="Path 25440" d="M750.29,523.34l-.02-.03Z" fill="#302113"/>
          <path id="Path_25441" data-name="Path 25441" d="M744.09,514.47Z" fill="#302113"/>
          <path id="Path_25442" data-name="Path 25442" d="M750.68,523.93Z" fill="#302113"/>
          <path id="Path_25443" data-name="Path 25443" d="M748.37,520.51l-.04-.06Z" fill="#302113"/>
          <path id="Path_25444" data-name="Path 25444" d="M749.28,521.85l-.05-.07Z" fill="#302113"/>
          <path id="Path_25445" data-name="Path 25445" d="M744.81,515.46l-.09-.13Z" fill="#302113"/>
          <path id="Path_25446" data-name="Path 25446" d="M749.67,522.42l-.03-.04Z" fill="#302113"/>
          <path id="Path_25447" data-name="Path 25447" d="M745.46,516.37l-.05-.07Z" fill="#302113"/>
          <path id="Path_25448" data-name="Path 25448" d="M750.79,523.83Z" fill="#302113"/>
          <path id="Path_25449" data-name="Path 25449" d="M750.8,523.97Z" fill="#302113"/>
          <path id="Path_25450" data-name="Path 25450" d="M797.27,459.74c.1-.01.21-.03.31-.04a6.273,6.273,0,0,1,4.76-3.72c2.98-.57,5.8.8,6.68,3.11a6.529,6.529,0,0,1,.54-.96c1.86-2.77,5.24-3.77,7.56-2.21a4.582,4.582,0,0,1,1.93,3.06,5.983,5.983,0,0,1,6.86-.27,6.073,6.073,0,0,1,3.25,5.74,5.423,5.423,0,0,1,.58-.06c3.33-.2,6.16,1.89,6.34,4.67a7.135,7.135,0,0,1,1.49-.25c3.33-.2,6.17,1.9,6.34,4.68a4.5,4.5,0,0,1-.99,3.05,5.084,5.084,0,0,1,3.73,4.35,4.5,4.5,0,0,1-.8,2.8h0c.24-.03.48-.07.74-.08,3.33-.2,6.17,1.9,6.34,4.68a4.865,4.865,0,0,1-2.35,4.29c.1.21.19.42.28.64a4.81,4.81,0,0,1,2.6,3.85,4.4,4.4,0,0,1-.36,1.97c.03.09.06.18.09.26,2.74.33,4.89,2.22,5.03,4.64a4.8,4.8,0,0,1-2.06,4.1,4.414,4.414,0,0,1,.79,2.23,4.966,4.966,0,0,1-2.7,4.52,4.838,4.838,0,0,1,2.7,3.91c.01.2,0,.39,0,.59a5.166,5.166,0,0,1,4.15,4.47c.15,2.46-1.83,4.63-4.58,5.25a4.626,4.626,0,0,1,1.77,3.29c.17,2.79-2.4,5.21-5.73,5.41h-.3a4.545,4.545,0,0,1,1.21,2.76c.15,2.54-1.96,4.77-4.86,5.3a14.113,14.113,0,0,1-1.79,2.54,5.429,5.429,0,0,1-5.35,4.53,2.435,2.435,0,0,1-.27-.01c-.72.41-1.18.62-1.18.62a5.468,5.468,0,0,0,.28-.74,5.43,5.43,0,0,1-2.84-8.95,5.374,5.374,0,0,1-1.41-3.65,4.65,4.65,0,0,1,.06-.75,8.97,8.97,0,0,1-.76-2.67c-2.67-.6-4.73-4.52-4.73-9.29a14.336,14.336,0,0,1,1-5.41c-2.17-.89-4.34-3.46-5.55-6.88a14.752,14.752,0,0,1-.86-4.63,3.665,3.665,0,0,1-2.53.74c-2.43-.26-4.19-3.25-4.46-7.13a7.072,7.072,0,0,1-2.5.46,6.747,6.747,0,0,1-4.24-1.45,6.768,6.768,0,0,1-4.24,1.45,6.838,6.838,0,0,1-3.89-1.19,6.955,6.955,0,0,1-3.09.71,6.775,6.775,0,0,1-2.95-.66v-43.7Z" fill="#302113"/>
          <path id="Path_25451" data-name="Path 25451" d="M746.08,517.23l-.05-.07Z" fill="#302113"/>
          <path id="Path_25452" data-name="Path 25452" d="M747.85,519.76l-.07-.1Z" fill="#302113"/>
          <path id="Path_25453" data-name="Path 25453" d="M746.71,518.13l-.06-.09Z" fill="#302113"/>
        </g>
        <g id="Group_3482" data-name="Group 3482">
          <path id="Path_25454" data-name="Path 25454" d="M709.26,496.58l35.75-10.63c33.95,5.67,68.87,5.19,104.53,0l35.75,10.63a.42.42,0,0,1-.09.82,1309.566,1309.566,0,0,1-175.85,0,.419.419,0,0,1-.09-.82Z" fill="#d7ba8b"/>
          <path id="Path_25455" data-name="Path 25455" d="M745.01,485.95v-7.67c0-26.04,37.11-46.3,47.15-47.15h10.22c5.89.16,47.15,21.11,47.15,47.15v7.67h0c-35.66,5.19-70.57,5.67-104.53,0Z" fill="#c79f69"/>
          <path id="Path_25456" data-name="Path 25456" d="M792.16,431.13h5.57v58.88A306.529,306.529,0,0,1,745,485.95v-7.67c0-26.04,37.11-46.3,47.15-47.15Z" fill="#d7b786"/>
          <path id="Path_25457" data-name="Path 25457" d="M709.26,496.58l35.75-10.63a307.452,307.452,0,0,0,52.73,4.06v10.35q-44.19.015-88.39-2.95a.419.419,0,0,1-.09-.82Z" fill="#e7ca9c"/>
        </g>
        <rect id="Rectangle_1453" data-name="Rectangle 1453" width="29.26" height="7.24" rx="2.16" transform="matrix(-0.555, -0.832, 0.832, -0.555, 736.223, 653.263)" fill="#df6e61"/>
        <path id="Path_25458" data-name="Path 25458" d="M783.31,588.04c-.3.06-.6.12-.92.18v-.04a40.33,40.33,0,0,0-4.75.57c-1.05.15-2.09.34-3.12.55-.84.16-1.4.27-1.4.27l.03.04c-.14.04-.28.06-.42.1-5.93,1.6-12.64,2.89-17.77,6.13-11.73,7.41-17.86,12.58-25.15,25.2a55.771,55.771,0,0,1-3.36,5.13,2.431,2.431,0,0,1,.84.76l13.47,20.18c1.66-2.27,3.32-4.69,4.98-7.3-1.01,5.75-.13,61.08-.13,61.08-.86,20.58-.72,30.06-.49,34.29a3.41,3.41,0,0,0,3.4,3.22h39.13l.56-142.81c-2.74-2.23-3.79-3.46-4.89-7.55Z" fill="#d85041"/>
        <g id="Group_3483" data-name="Group 3483">
          <rect id="Rectangle_1454" data-name="Rectangle 1454" width="13.64" height="317.13" transform="translate(885.3 855.32) rotate(180)" fill="#767577"/>
          <path id="Path_25459" data-name="Path 25459" d="M845.81,919.91V880.5a16.414,16.414,0,0,1,16.41-16.41h31.03a16.414,16.414,0,0,1,16.41,16.41v39.41a2.633,2.633,0,0,0,2.63,2.63h2.97a2.633,2.633,0,0,0,2.63-2.63V876.57a21.177,21.177,0,0,0-21.18-21.18H858.76a21.177,21.177,0,0,0-21.18,21.18v43.34a2.633,2.633,0,0,0,2.63,2.63h2.97a2.633,2.633,0,0,0,2.63-2.63Z" fill="#69676a"/>
          <path id="Path_25460" data-name="Path 25460" d="M886.42,864.09h6.77a1.118,1.118,0,0,1,1.12,1.12v57.34H885.3V865.21A1.118,1.118,0,0,1,886.42,864.09Z" transform="translate(1779.61 1786.63) rotate(180)" fill="#69676a"/>
          <path id="Path_25461" data-name="Path 25461" d="M863.77,864.09h6.77a1.118,1.118,0,0,1,1.12,1.12v57.34h-9.01V865.21A1.118,1.118,0,0,1,863.77,864.09Z" transform="translate(1734.31 1786.63) rotate(180)" fill="#69676a"/>
        </g>
      </g>
    </g>
  </g>
</svg>
