<svg xmlns="http://www.w3.org/2000/svg" xmlns:xlink="http://www.w3.org/1999/xlink" width="1920" height="1080" viewBox="0 0 1920 1080">
  <defs>
    <clipPath id="clip-Question_Five">
      <rect width="1920" height="1080"/>
    </clipPath>
  </defs>
  <g id="Question_Five" data-name="Question Five" clip-path="url(#clip-Question_Five)">
    <rect width="1920" height="1080" fill="#fff"/>
    <g id="DEI-Toolkit-Illustrations_5" transform="translate(2.34 5.24)">
      <rect id="Rectangle_1181" data-name="Rectangle 1181" width="1933.69" height="1094.24" transform="translate(-13.69 -5.23)" fill="#5a8eee"/>
      <rect id="Rectangle_1182" data-name="Rectangle 1182" width="1922.02" height="670.12" transform="translate(-9.46 -5.23)" fill="#c2d5f9"/>
      <g id="Group_2574" data-name="Group 2574">
        <rect id="Rectangle_1183" data-name="Rectangle 1183" width="423.21" height="656.78" transform="translate(-49.83 8.07)" fill="#d7e3fb"/>
        <rect id="Rectangle_1184" data-name="Rectangle 1184" width="85.42" height="437.86" transform="translate(-56.61 213.69)" fill="#c9daf9"/>
        <rect id="Rectangle_1185" data-name="Rectangle 1185" width="125.17" height="344.26" transform="translate(28.81 307.29)" fill="#c2d5f9"/>
        <rect id="Rectangle_1186" data-name="Rectangle 1186" width="125.17" height="431.95" transform="translate(149.15 219.6)" fill="#c9daf9"/>
        <rect id="Rectangle_1187" data-name="Rectangle 1187" width="92.28" height="489.09" transform="translate(274.32 162.45)" fill="#c2d5f9"/>
        <g id="Group_2573" data-name="Group 2573">
          <rect id="Rectangle_1188" data-name="Rectangle 1188" width="423.21" height="13.3" transform="translate(-49.83 115.06)" fill="#b4cbf7"/>
          <rect id="Rectangle_1189" data-name="Rectangle 1189" width="423.21" height="13.3" transform="translate(-49.83 -5.23)" fill="#b4cbf7"/>
          <rect id="Rectangle_1190" data-name="Rectangle 1190" width="656.78" height="13.56" transform="translate(68.6 8.07) rotate(90)" fill="#b4cbf7"/>
          <rect id="Rectangle_1191" data-name="Rectangle 1191" width="656.78" height="13.56" transform="translate(225.3 8.07) rotate(90)" fill="#b4cbf7"/>
          <rect id="Rectangle_1192" data-name="Rectangle 1192" width="670.08" height="13.56" transform="translate(380.16 -5.23) rotate(90)" fill="#b4cbf7"/>
          <rect id="Rectangle_1193" data-name="Rectangle 1193" width="423.21" height="13.3" transform="translate(-49.83 506.71)" fill="#b4cbf7"/>
        </g>
        <rect id="Rectangle_1194" data-name="Rectangle 1194" width="430.13" height="13.3" transform="translate(-49.97 651.55)" fill="#81a9f2"/>
      </g>
      <g id="Group_2576" data-name="Group 2576">
        <rect id="Rectangle_1195" data-name="Rectangle 1195" width="423.21" height="656.78" transform="translate(380.16 8.07)" fill="#d7e3fb"/>
        <rect id="Rectangle_1196" data-name="Rectangle 1196" width="85.42" height="437.86" transform="translate(373.38 213.69)" fill="#c9daf9"/>
        <rect id="Rectangle_1197" data-name="Rectangle 1197" width="125.17" height="344.26" transform="translate(458.8 307.29)" fill="#c9daf9"/>
        <rect id="Rectangle_1198" data-name="Rectangle 1198" width="125.17" height="431.95" transform="translate(579.14 219.6)" fill="#c2d5f9"/>
        <rect id="Rectangle_1199" data-name="Rectangle 1199" width="92.28" height="489.09" transform="translate(704.32 162.45)" fill="#c9daf9"/>
        <g id="Group_2575" data-name="Group 2575">
          <rect id="Rectangle_1200" data-name="Rectangle 1200" width="423.21" height="13.3" transform="translate(380.16 115.06)" fill="#b4cbf7"/>
          <rect id="Rectangle_1201" data-name="Rectangle 1201" width="423.21" height="13.3" transform="translate(380.16 -5.23)" fill="#b4cbf7"/>
          <rect id="Rectangle_1202" data-name="Rectangle 1202" width="656.78" height="13.56" transform="translate(498.59 8.07) rotate(90)" fill="#b4cbf7"/>
          <rect id="Rectangle_1203" data-name="Rectangle 1203" width="656.78" height="13.56" transform="translate(655.29 8.07) rotate(90)" fill="#b4cbf7"/>
          <rect id="Rectangle_1204" data-name="Rectangle 1204" width="670.08" height="13.56" transform="translate(810.15 -5.23) rotate(90)" fill="#b4cbf7"/>
          <rect id="Rectangle_1205" data-name="Rectangle 1205" width="670.08" height="13.56" transform="translate(380.16 -5.23) rotate(90)" fill="#b4cbf7"/>
          <rect id="Rectangle_1206" data-name="Rectangle 1206" width="423.21" height="13.3" transform="translate(380.16 506.71)" fill="#b4cbf7"/>
        </g>
        <rect id="Rectangle_1207" data-name="Rectangle 1207" width="430.13" height="13.3" transform="translate(380.03 651.55)" fill="#81a9f2"/>
      </g>
      <g id="Group_2578" data-name="Group 2578">
        <rect id="Rectangle_1208" data-name="Rectangle 1208" width="423.21" height="656.78" transform="translate(810.15 8.07)" fill="#d7e3fb"/>
        <rect id="Rectangle_1209" data-name="Rectangle 1209" width="85.42" height="437.86" transform="translate(803.37 213.69)" fill="#bed3f8"/>
        <rect id="Rectangle_1210" data-name="Rectangle 1210" width="125.17" height="344.26" transform="translate(888.79 307.29)" fill="#b0c9f7"/>
        <rect id="Rectangle_1211" data-name="Rectangle 1211" width="125.17" height="431.95" transform="translate(1009.14 219.6)" fill="#bed3f8"/>
        <rect id="Rectangle_1212" data-name="Rectangle 1212" width="92.28" height="489.09" transform="translate(1134.31 162.45)" fill="#b0c9f7"/>
        <g id="Group_2577" data-name="Group 2577">
          <rect id="Rectangle_1213" data-name="Rectangle 1213" width="423.21" height="13.3" transform="translate(810.15 115.06)" fill="#83aaf2"/>
          <rect id="Rectangle_1214" data-name="Rectangle 1214" width="423.21" height="13.3" transform="translate(810.15 -5.23)" fill="#83aaf2"/>
          <rect id="Rectangle_1215" data-name="Rectangle 1215" width="656.78" height="13.56" transform="translate(928.58 8.07) rotate(90)" fill="#83aaf2"/>
          <rect id="Rectangle_1216" data-name="Rectangle 1216" width="656.78" height="13.56" transform="translate(1085.28 8.07) rotate(90)" fill="#83aaf2"/>
          <rect id="Rectangle_1217" data-name="Rectangle 1217" width="670.08" height="13.56" transform="translate(1240.14 -5.23) rotate(90)" fill="#83aaf2"/>
          <rect id="Rectangle_1218" data-name="Rectangle 1218" width="670.08" height="13.56" transform="translate(810.15 -5.23) rotate(90)" fill="#83aaf2"/>
          <rect id="Rectangle_1219" data-name="Rectangle 1219" width="423.21" height="13.3" transform="translate(810.15 506.71)" fill="#83aaf2"/>
        </g>
        <rect id="Rectangle_1220" data-name="Rectangle 1220" width="430.13" height="13.3" transform="translate(810.02 651.55)" fill="#81a9f2"/>
      </g>
      <g id="Group_2585" data-name="Group 2585">
        <g id="Group_2579" data-name="Group 2579">
          <rect id="Rectangle_1221" data-name="Rectangle 1221" width="79.67" height="10" transform="translate(1083.25 622.01) rotate(180)" fill="#88adf3"/>
          <path id="Path_22583" data-name="Path 22583" d="M1080.14,612.01h-11.46l6.95-81.43,10.16.83-5.13,60.12a172.769,172.769,0,0,0-.52,20.47Z" fill="#88adf3"/>
          <rect id="Rectangle_1222" data-name="Rectangle 1222" width="7.67" height="46.05" transform="translate(1035.64 612.62)" fill="#88adf3"/>
          <path id="Path_22584" data-name="Path 22584" d="M1009.81,602.62h59.33v3.56a6.442,6.442,0,0,1-6.44,6.44h-52.89v-10h0Z" transform="translate(2078.95 1215.24) rotate(180)" fill="#88adf3"/>
          <path id="Path_22585" data-name="Path 22585" d="M1064.49,540.66l-5.56,67.11,10.16.81,6.14-74.1-3.03-.24a7.113,7.113,0,0,0-7.71,6.43Z" fill="#88adf3"/>
          <rect id="Rectangle_1223" data-name="Rectangle 1223" width="3.84" height="23.03" transform="translate(1062.02 593.98)" fill="#88adf3"/>
          <rect id="Rectangle_1224" data-name="Rectangle 1224" width="51.55" height="3.76" transform="translate(1014.31 592.47)" fill="#88adf3"/>
          <rect id="Rectangle_1225" data-name="Rectangle 1225" width="3.84" height="23.03" transform="translate(1014.31 593.98)" fill="#88adf3"/>
          <path id="Path_22586" data-name="Path 22586" d="M1014.31,654.49v-1.51h51.55v11.39h-3.84v-7.63h-43.88v7.63h-3.83v-9.88Z" fill="#88adf3"/>
          <ellipse id="Ellipse_1094" data-name="Ellipse 1094" cx="3.55" cy="3.48" rx="3.55" ry="3.48" transform="translate(1060.39 658.19)" fill="#88adf3"/>
          <ellipse id="Ellipse_1095" data-name="Ellipse 1095" cx="3.55" cy="3.48" rx="3.55" ry="3.48" transform="translate(1012.67 658.19)" fill="#88adf3"/>
        </g>
        <g id="Group_2580" data-name="Group 2580">
          <rect id="Rectangle_1226" data-name="Rectangle 1226" width="79.67" height="10" transform="translate(694.34 612.01)" fill="#88adf3"/>
          <path id="Path_22587" data-name="Path 22587" d="M697.45,612.01h11.46l-6.95-81.43-10.16.83,5.13,60.12a172.756,172.756,0,0,1,.52,20.47Z" fill="#88adf3"/>
          <rect id="Rectangle_1227" data-name="Rectangle 1227" width="7.67" height="46.05" transform="translate(734.27 612.62)" fill="#88adf3"/>
          <path id="Path_22588" data-name="Path 22588" d="M708.45,602.62h52.89a6.442,6.442,0,0,1,6.44,6.44v3.56H708.45v-10Z" fill="#88adf3"/>
          <path id="Path_22589" data-name="Path 22589" d="M713.09,540.66l5.56,67.11-10.16.81-6.14-74.1,3.03-.24a7.113,7.113,0,0,1,7.71,6.43Z" fill="#88adf3"/>
          <rect id="Rectangle_1228" data-name="Rectangle 1228" width="3.84" height="23.03" transform="translate(711.73 593.98)" fill="#88adf3"/>
          <rect id="Rectangle_1229" data-name="Rectangle 1229" width="51.55" height="3.76" transform="translate(711.73 592.47)" fill="#88adf3"/>
          <rect id="Rectangle_1230" data-name="Rectangle 1230" width="3.84" height="23.03" transform="translate(759.44 593.98)" fill="#88adf3"/>
          <path id="Path_22590" data-name="Path 22590" d="M763.28,654.49v-1.51H711.73v11.39h3.84v-7.63h43.87v7.63h3.84v-9.88Z" fill="#88adf3"/>
          <ellipse id="Ellipse_1096" data-name="Ellipse 1096" cx="3.55" cy="3.48" rx="3.55" ry="3.48" transform="translate(710.1 658.19)" fill="#88adf3"/>
          <path id="Path_22591" data-name="Path 22591" d="M764.91,661.67a3.551,3.551,0,1,1-3.55-3.48A3.517,3.517,0,0,1,764.91,661.67Z" fill="#88adf3"/>
        </g>
        <g id="Group_2583" data-name="Group 2583">
          <g id="Group_2581" data-name="Group 2581">
            <rect id="Rectangle_1231" data-name="Rectangle 1231" width="3.84" height="23.03" transform="translate(877.85 589.53)" fill="#88adf3"/>
            <rect id="Rectangle_1232" data-name="Rectangle 1232" width="51.55" height="3.76" transform="translate(877.85 588.02)" fill="#88adf3"/>
            <rect id="Rectangle_1233" data-name="Rectangle 1233" width="3.84" height="23.03" transform="translate(925.56 589.53)" fill="#88adf3"/>
          </g>
          <rect id="Rectangle_1234" data-name="Rectangle 1234" width="79.67" height="10" transform="translate(859.85 612.01)" fill="#88adf3"/>
          <path id="Path_22592" data-name="Path 22592" d="M864.36,612.01h37.11l-22.5-81.3-32.91.84Z" fill="#88adf3"/>
          <rect id="Rectangle_1235" data-name="Rectangle 1235" width="7.67" height="46.05" transform="translate(899.79 612.62)" fill="#88adf3"/>
          <path id="Path_22593" data-name="Path 22593" d="M875.61,612.01h37.11l-20.75-75.09a8.488,8.488,0,0,0-8.44-6.16l-26.22.66,18.29,80.59Z" fill="#88adf3"/>
          <path id="Path_22594" data-name="Path 22594" d="M873.96,602.62h52.89a6.442,6.442,0,0,1,6.44,6.44v3.56H873.96v-10Z" fill="#88adf3"/>
          <g id="Group_2582" data-name="Group 2582">
            <rect id="Rectangle_1236" data-name="Rectangle 1236" width="38.49" height="3.76" transform="translate(861.25 593.23)" fill="#88adf3"/>
            <rect id="Rectangle_1237" data-name="Rectangle 1237" width="3.84" height="23.03" transform="translate(895.9 594.74)" fill="#88adf3"/>
          </g>
          <path id="Path_22595" data-name="Path 22595" d="M928.79,654.49v-1.51H877.24v11.39h3.84v-7.63h43.88v7.63h3.83v-9.88Z" fill="#88adf3"/>
          <ellipse id="Ellipse_1097" data-name="Ellipse 1097" cx="3.55" cy="3.48" rx="3.55" ry="3.48" transform="translate(875.61 658.19)" fill="#88adf3"/>
          <ellipse id="Ellipse_1098" data-name="Ellipse 1098" cx="3.55" cy="3.48" rx="3.55" ry="3.48" transform="translate(923.32 658.19)" fill="#88adf3"/>
        </g>
        <g id="Group_2584" data-name="Group 2584">
          <rect id="Rectangle_1238" data-name="Rectangle 1238" width="203.69" height="10" transform="translate(990.72 587.05) rotate(180)" fill="#88adf3"/>
          <rect id="Rectangle_1239" data-name="Rectangle 1239" width="7.67" height="79.2" transform="translate(977.25 585.95)" fill="#88adf3"/>
          <rect id="Rectangle_1240" data-name="Rectangle 1240" width="7.67" height="79.2" transform="translate(792.57 585.95)" fill="#88adf3"/>
        </g>
      </g>
      <g id="Group_2587" data-name="Group 2587">
        <rect id="Rectangle_1241" data-name="Rectangle 1241" width="423.21" height="656.78" transform="translate(1661.94 8.07)" fill="#d7e3fb"/>
        <rect id="Rectangle_1242" data-name="Rectangle 1242" width="85.42" height="437.86" transform="translate(1655.16 213.69)" fill="#bed3f8"/>
        <rect id="Rectangle_1243" data-name="Rectangle 1243" width="125.17" height="344.26" transform="translate(1740.58 307.29)" fill="#bed3f8"/>
        <rect id="Rectangle_1244" data-name="Rectangle 1244" width="125.17" height="431.95" transform="translate(1860.92 219.6)" fill="#b4cbf7"/>
        <g id="Group_2586" data-name="Group 2586">
          <rect id="Rectangle_1245" data-name="Rectangle 1245" width="423.21" height="13.3" transform="translate(1661.94 115.06)" fill="#83aaf2"/>
          <rect id="Rectangle_1246" data-name="Rectangle 1246" width="423.21" height="13.3" transform="translate(1661.94 -5.23)" fill="#83aaf2"/>
          <rect id="Rectangle_1247" data-name="Rectangle 1247" width="656.78" height="13.56" transform="translate(1780.37 8.07) rotate(90)" fill="#83aaf2"/>
          <rect id="Rectangle_1248" data-name="Rectangle 1248" width="670.08" height="13.56" transform="translate(1661.94 -5.23) rotate(90)" fill="#83aaf2"/>
          <rect id="Rectangle_1249" data-name="Rectangle 1249" width="423.21" height="13.3" transform="translate(1661.94 506.71)" fill="#83aaf2"/>
        </g>
        <rect id="Rectangle_1250" data-name="Rectangle 1250" width="430.13" height="13.3" transform="translate(1661.8 651.55)" fill="#81a9f2"/>
      </g>
      <g id="Group_2589" data-name="Group 2589">
        <rect id="Rectangle_1251" data-name="Rectangle 1251" width="423.21" height="656.78" transform="translate(1240.13 8.07)" fill="#d7e3fb"/>
        <rect id="Rectangle_1252" data-name="Rectangle 1252" width="85.42" height="437.86" transform="translate(1233.35 213.69)" fill="#bed3f8"/>
        <rect id="Rectangle_1253" data-name="Rectangle 1253" width="125.17" height="344.26" transform="translate(1318.77 307.29)" fill="#bed3f8"/>
        <rect id="Rectangle_1254" data-name="Rectangle 1254" width="125.17" height="431.95" transform="translate(1439.12 219.6)" fill="#bed3f8"/>
        <rect id="Rectangle_1255" data-name="Rectangle 1255" width="92.28" height="489.09" transform="translate(1564.29 162.45)" fill="#a6c2f6"/>
        <g id="Group_2588" data-name="Group 2588">
          <rect id="Rectangle_1256" data-name="Rectangle 1256" width="423.21" height="13.3" transform="translate(1240.13 115.06)" fill="#83aaf2"/>
          <rect id="Rectangle_1257" data-name="Rectangle 1257" width="423.21" height="13.3" transform="translate(1240.13 -5.23)" fill="#83aaf2"/>
          <rect id="Rectangle_1258" data-name="Rectangle 1258" width="656.78" height="13.56" transform="translate(1358.56 8.07) rotate(90)" fill="#83aaf2"/>
          <rect id="Rectangle_1259" data-name="Rectangle 1259" width="656.78" height="13.56" transform="translate(1515.26 8.07) rotate(90)" fill="#83aaf2"/>
          <rect id="Rectangle_1260" data-name="Rectangle 1260" width="670.08" height="13.56" transform="translate(1670.12 -5.24) rotate(90)" fill="#83aaf2"/>
          <rect id="Rectangle_1261" data-name="Rectangle 1261" width="670.08" height="13.56" transform="translate(1240.13 -5.23) rotate(90)" fill="#83aaf2"/>
          <rect id="Rectangle_1262" data-name="Rectangle 1262" width="423.21" height="13.3" transform="translate(1240.13 506.71)" fill="#83aaf2"/>
        </g>
        <rect id="Rectangle_1263" data-name="Rectangle 1263" width="430.13" height="13.3" transform="translate(1240 651.55)" fill="#81a9f2"/>
      </g>
      <g id="Group_2597" data-name="Group 2597">
        <rect id="Rectangle_1284" data-name="Rectangle 1284" width="128.94" height="16.19" transform="translate(1901.38 739.43) rotate(180)" fill="#f2aa3f"/>
        <path id="Path_22608" data-name="Path 22608" d="M1896.35,723.24h-18.54l11.24-131.79,16.44,1.35-8.3,97.3a279.876,279.876,0,0,0-.84,33.14Z" fill="#f2aa3f"/>
        <rect id="Rectangle_1285" data-name="Rectangle 1285" width="12.42" height="59.34" transform="translate(1824.33 739.43)" fill="#f4b456"/>
        <path id="Path_22609" data-name="Path 22609" d="M1871.03,607.76l-9,108.61,16.45,1.31,9.94-119.93-4.9-.39a11.522,11.522,0,0,0-12.49,10.41Z" fill="#fdefdb"/>
        <path id="Path_22610" data-name="Path 22610" d="M1782.53,708.05h96.02v5.77a10.426,10.426,0,0,1-10.42,10.42h-85.6V708.05Z" transform="translate(3661.08 1432.29) rotate(180)" fill="#fae1bc"/>
        <rect id="Rectangle_1286" data-name="Rectangle 1286" width="6.21" height="37.27" transform="translate(1867.03 694.07)" fill="#f4b456"/>
        <rect id="Rectangle_1287" data-name="Rectangle 1287" width="83.43" height="6.09" transform="translate(1789.8 691.62)" fill="#f4b456"/>
        <rect id="Rectangle_1288" data-name="Rectangle 1288" width="6.21" height="37.27" transform="translate(1789.8 694.07)" fill="#f4b456"/>
        <path id="Path_22611" data-name="Path 22611" d="M1789.8,792v-2.45h83.44v18.44h-6.21V795.64h-71.02v12.35h-6.21V792Z" fill="#f2aa3f"/>
        <ellipse id="Ellipse_1105" data-name="Ellipse 1105" cx="5.75" cy="5.64" rx="5.75" ry="5.64" transform="translate(1864.38 797.98)" fill="#f4ba63"/>
        <ellipse id="Ellipse_1106" data-name="Ellipse 1106" cx="5.75" cy="5.64" rx="5.75" ry="5.64" transform="translate(1787.16 797.98)" fill="#f4ba63"/>
      </g>
      <g id="Group_2609" data-name="Group 2609">
        <g id="Group_2600" data-name="Group 2600">
          <path id="Path_22612" data-name="Path 22612" d="M694.44,756.99h0l.04-5.68,3.45-86.81a9.974,9.974,0,0,0,2.17-4.15H646.71a10.013,10.013,0,0,0,2.85,4.86l.09,90.6a1.193,1.193,0,0,0,1.2,1.18H666.4a1.189,1.189,0,0,0,1.2-1.16l1.67-85.23h8.95l2.93,86.39h13.29Z" fill="#414042"/>
          <path id="Path_22613" data-name="Path 22613" d="M673.25,670.61h4.96l1.25,85.22a1.183,1.183,0,0,0,1.2,1.16h15a1.191,1.191,0,0,0,1.2-1.17l1.08-91.32a9.974,9.974,0,0,0,2.17-4.15H673.27V670.6Z" fill="#2d2c2e"/>
          <path id="Path_22614" data-name="Path 22614" d="M678.46,579.75c-1.46,1.71-3.29.37-5.27.37-1.8,0-3.47,1.51-4.86.08v80.15h10.13v-80.6Z" fill="#e5e6e7"/>
          <path id="Path_22615" data-name="Path 22615" d="M675.82,587.07h-5.26l-1.35-6.38h8.08Z" fill="#505257"/>
          <path id="Path_22616" data-name="Path 22616" d="M673.19,632.78l-5.27-4.33,2.64-41.38h5.26l2.64,41.44Z" fill="#3d3f42"/>
          <path id="Path_22617" data-name="Path 22617" d="M673.25,587.07v45.66l5.21-4.22-2.64-41.44Z" fill="#2a2c2e"/>
          <g id="Group_2598" data-name="Group 2598">
            <path id="Path_22618" data-name="Path 22618" d="M669.43,581.17Z" fill="#414042"/>
            <path id="Path_22619" data-name="Path 22619" d="M676.58,581.42s.09-.05.13-.08C676.67,581.37,676.62,581.39,676.58,581.42Z" fill="#414042"/>
            <path id="Path_22620" data-name="Path 22620" d="M668.33,580.21h0a13.089,13.089,0,0,1-2.96-5.23c-1.4.21-2.81.47-4.22.8a44.659,44.659,0,0,0-9.65,2.95,27.584,27.584,0,0,0-3.96,2.08l-.57,18.67-1.1,50.3a26.69,26.69,0,0,1-.39,3.99l-.99,5.58a.877.877,0,0,0,.87,1.02h22.97V580.22Z" fill="#414042"/>
            <path id="Path_22621" data-name="Path 22621" d="M700.4,599.47l-1.12-18.88a39.26,39.26,0,0,0-9.71-3.99c-.57-.16-5.61-1.1-8.54-1.67a13.705,13.705,0,0,1-2.56,4.83v80.6H702.1a1.437,1.437,0,0,0,1.43-1.7l-.95-4.73a30.78,30.78,0,0,1-.58-4.96l-1.58-49.5Z" fill="#2d2c2e"/>
            <path id="Path_22622" data-name="Path 22622" d="M670.01,581.56l-.04-.02Z" fill="#414042"/>
          </g>
          <path id="Path_22623" data-name="Path 22623" d="M689.56,576.59l.61,10.73-7.29,8.16,5.77,4.27-7,23.03-3.19.14V583.13l7.28,4.19,2.06-11.1s1.62.3,1.77.37Z" fill="#464547"/>
          <path id="Path_22624" data-name="Path 22624" d="M689.89,658.46l-23.9,5.74-8.75-35.03,23.9-5.75Z" fill="#3f6cc3"/>
          <path id="Path_22625" data-name="Path 22625" d="M686.6,658.69l-24.59.98-1.48-36.05,24.59-.97Z" fill="#79a4ee"/>
          <g id="Group_2599" data-name="Group 2599">
            <path id="Path_22626" data-name="Path 22626" d="M694.44,756.99H681.15l.37,10.95a1.528,1.528,0,0,0,1.54,1.51h28.95c0-2.34-.27-4.49-2.26-6.07a15.641,15.641,0,0,0-4.45-2.19c-3.66-1.2-7.31-2.6-10.86-4.09v-.11Z"/>
            <path id="Path_22627" data-name="Path 22627" d="M641.96,769.45h21.77a1.528,1.528,0,0,0,1.54-1.51l.45-10.95H652.33c-1,.4-1.87.78-2.4,1.01-2.99,1.09-5.99,2.11-9,3.15a11.008,11.008,0,0,0-5.1,3.17,6.623,6.623,0,0,0-1.38,5.12c2.5.04,5.01,0,7.51,0Z" fill="#2d2c2e"/>
          </g>
          <path id="Path_22628" data-name="Path 22628" d="M682.27,651.54a4.922,4.922,0,0,0,4.23,1.78,9.131,9.131,0,0,0,3.7-1.4,28.882,28.882,0,0,0,3.16-1.99,3.815,3.815,0,0,0,.94-.94c.19-.27.49-1.17.76-1.31.82-.43,1.53-.69,2.36-1.22,20.29-12.96,18.35-33.26,11.49-53.2-2-5.8-5.47-8.34-9.65-12.43-.1-.1-.24,0-.32-.14a151.929,151.929,0,0,0-1.38,16.49c5.87,14.68,11.88,31.67-4.57,41.77a14.866,14.866,0,0,1-1.4.66c-.03.02-.03,0-.17-.08-2.59-1.23-5.44-2.18-8.29-1.23a1.443,1.443,0,0,0-.48.24,1.524,1.524,0,0,0,1.46,2.52,14.044,14.044,0,0,1,2.76-.28c-1.2.8-2.85,1.27-3.88,2.27a6.247,6.247,0,0,0-1.47,7.25,4.817,4.817,0,0,0,.73,1.22Z" fill="#cd9d7a"/>
          <path id="Path_22629" data-name="Path 22629" d="M664.05,643.06c-1.04-1-2.68-1.46-3.88-2.27l-.45-2.69a17.089,17.089,0,0,0-4.08,1.44c-.14.07-.14.09-.17.08-.5-.25-.92-.37-1.4-.66-16.45-10.1-10.44-27.09-4.57-41.77a151.717,151.717,0,0,0-1.38-16.49c-.08.13-.22.04-.32.14-4.17,4.08-7.65,6.62-9.65,12.43-6.86,19.95-8.8,40.24,11.49,53.2a26.5,26.5,0,0,0,2.36,1.22c.27.14.57,1.03.76,1.31a3.993,3.993,0,0,0,.94.94,31.126,31.126,0,0,0,3.16,1.99,9.133,9.133,0,0,0,3.7,1.4,4.91,4.91,0,0,0,4.23-1.78,4.819,4.819,0,0,0,.73-1.22,6.244,6.244,0,0,0-1.47-7.25Z" fill="#cd9d7a"/>
          <path id="Path_22630" data-name="Path 22630" d="M706.81,639.99c10.77-12.62,8.02-30.48,2.36-46.94-2-5.8-5.72-8.39-9.89-12.47-.1-.1-.54-.02-.62-.16a155.647,155.647,0,0,0-1.68,16.8c4.57,11.43,9.74,23.96,3.81,33.85Z" fill="#2d2c2e"/>
          <path id="Path_22631" data-name="Path 22631" d="M640.25,639.99c-10.77-12.62-8.02-30.48-2.36-46.94,2-5.8,5.72-8.39,9.89-12.47.1-.1.54-.02.62-.16a155.647,155.647,0,0,1,1.68,16.8c-4.57,11.43-9.74,23.96-3.81,33.85Z" fill="#414042"/>
          <path id="Path_22632" data-name="Path 22632" d="M673.4,580.22l-12.34,7.1-2.27-12.22,7.68-1.04c1.47,2.91,3.49,4.49,6.93,6.16Z" fill="#e5e6e7"/>
          <path id="Path_22633" data-name="Path 22633" d="M673.4,580.22l12.34,7.1,2.27-12.22-7.68-1.04c-1.47,2.91-3.49,4.49-6.93,6.16Z" fill="#ccc"/>
          <path id="Path_22634" data-name="Path 22634" d="M644.48,545.84c3.01,12.15,12.07,21.52,23.35,23.88v4.94c-.32.03-.65.08-.97.12,1.41,2.41,3.31,3.86,6.34,5.36.12,0,.24,0,.37.01,3.06-1.51,4.98-2.97,6.39-5.41a2.891,2.891,0,0,0-1-.11v-4.9c11.29-2.35,20.34-11.72,23.35-23.88a10.068,10.068,0,0,0,6.2-8.63c0-3.11-2.43-4.61-5.44-5.09-1.62-16.7-14.21-28.46-29.68-28.46s-27.56,12.36-29.68,28.46c-3,.48-5.44,1.98-5.44,5.09,0,3.37,2.86,7.53,6.2,8.63Z" fill="#cd9d7a"/>
          <path id="Path_22635" data-name="Path 22635" d="M685.86,640.82l-.12-2.97-6.24-.71,2.34,5.59,3.74-1.44Z" fill="#79a4ee"/>
          <path id="Path_22636" data-name="Path 22636" d="M656.95,576.76l-.63,12.27,7.98,7.33-5.51,3.73,6.8,23.35,2.74-.11V583.15l-7.28,4.19-2.06-11.11s-1.83.46-2.04.55Z" fill="#5a595c"/>
          <path id="Path_22637" data-name="Path 22637" d="M703.51,543.75c-.8-8.92-5.13-22.17-5.13-22.17a30.53,30.53,0,0,1-23.38.79c-12.99-4.76-19.18-4.76-23.58-1.59s-8.49,22.96-8.49,22.96-4.68-21.01,3.75-30.77c9.65-11.16,25.47-18.12,41.82-7.7a36.047,36.047,0,0,1,16.72,27.61l-1.7,10.86Z" fill="#282c2f"/>
          <path id="Path_22638" data-name="Path 22638" d="M703.07,532.12c-1.62-16.7-14.21-28.46-29.68-28.46h-.15v76.46h.32c3.06-1.5,4.97-2.96,6.38-5.4a2.891,2.891,0,0,0-1-.11v-4.9c11.29-2.35,20.34-11.72,23.35-23.88a10.068,10.068,0,0,0,6.2-8.63c0-3.11-2.43-4.61-5.44-5.09Z" fill="#bb9070"/>
          <path id="Path_22639" data-name="Path 22639" d="M688.5,505.28a30.878,30.878,0,0,0-15.25-5.09v21.56c.57.2,1.15.4,1.75.62a30.53,30.53,0,0,0,23.38-.79s4.34,13.24,5.13,22.17l1.7-10.86a36.06,36.06,0,0,0-16.72-27.61Z" fill="#0d0e0f"/>
          <path id="Path_22640" data-name="Path 22640" d="M673.25,587.07h2.57l1.47-6.38h-4.04Z" fill="#2a2c2e"/>
          <path id="Path_22641" data-name="Path 22641" d="M707.21,640.86l-8.54-9,1.84-1.69,8.54,9Z" fill="#ccc"/>
          <path id="Path_22642" data-name="Path 22642" d="M639.1,640.41l6.82-11.58,2.18,1.23-6.81,11.59Z" fill="#e5e6e7"/>
        </g>
        <g id="Group_2602" data-name="Group 2602">
          <path id="Path_22643" data-name="Path 22643" d="M561.88,600.39a151.043,151.043,0,0,1,2.92-18.93c.1.03.22.22.32.29a23.292,23.292,0,0,1,3.27,3.11,37.6,37.6,0,0,1,9.2,21.04l.65,6.05L565.36,622.8l-3.48-22.4Z" fill="#316cc9"/>
          <path id="Path_22644" data-name="Path 22644" d="M511.15,547.24c2.95,11.9,11.82,21.08,22.87,23.39v4.83c-.7.07-1.4.17-2.1.27,0,0,2.04,6.98,7.55,7.08,3.44.06,6.16-3.99,7.71-7.03a11.307,11.307,0,0,0-2.26-.35v-4.8c11.05-2.3,19.92-11.48,22.87-23.39,3.27-1.07,6.07-5.15,6.07-8.45,0-3.05-2.38-4.51-5.33-4.99.05.4.1.81.14,1.21-1.59-16.35-14.06-29.09-29.21-29.09s-26.99,12.11-29.07,27.87c-2.94.47-5.33,1.94-5.33,4.99a9.873,9.873,0,0,0,6.07,8.45Z" fill="#f5d4b5"/>
          <path id="Path_22645" data-name="Path 22645" d="M564.8,599.31V581.46a38.52,38.52,0,0,0-9.45-3.9c-.55-.16-5.45-1.26-8.33-1.82-1.56,4.24-4.35,7.06-7.55,7.06s-5.99-2.83-7.55-7.08c-1.48.22-2.96.49-4.44.83a44.021,44.021,0,0,0-9.46,2.89,28.06,28.06,0,0,0-3.88,2.04v18.2l-1.12,51.24v6.15c0,.21.02.41.03.61h52.83c.01-.2.03-.4.03-.61v-6.15l-1.12-51.61Z"/>
          <path id="Path_22646" data-name="Path 22646" d="M539.86,657.68h26.03c.01-.2.03-.4.03-.61v-6.15l-1.12-51.61V581.46a38.52,38.52,0,0,0-9.45-3.9c-.55-.16-5.45-1.26-8.33-1.82-1.49,4.06-4.13,6.8-7.16,7.02v74.91Z" fill="#999da0"/>
          <g id="Group_2601" data-name="Group 2601">
            <path id="Path_22647" data-name="Path 22647" d="M600.85,630.88,562.47,644.5l5.33-32.55,37.97-12.21Z" fill="#59575c"/>
            <path id="Path_22648" data-name="Path 22648" d="M565.36,625.48l-25.05,8.14,21.02,8.66Z" fill="#56585b"/>
            <path id="Path_22649" data-name="Path 22649" d="M561.04,644.03l6.34-32.08h.42l-5.33,32.55Z" fill="#403f42"/>
            <path id="Path_22650" data-name="Path 22650" d="M562.47,642.44l38.39-13.05-.01,1.49L562.47,644.5Z" fill="#403f42"/>
            <path id="Path_22651" data-name="Path 22651" d="M561.04,642.16l-20.73-8.54v2.18l20.73,8.23,1.43-1.59Z" fill="#403f42"/>
            <path id="Path_22652" data-name="Path 22652" d="M561.89,638.9l-12.59-5.28,14.33-5.16Z" fill="#999da0"/>
            <ellipse id="Ellipse_1107" data-name="Ellipse 1107" cx="4.95" cy="3.48" rx="4.95" ry="3.48" transform="translate(579.745 620.151) rotate(-20.88)" fill="#999da0"/>
          </g>
          <path id="Path_22653" data-name="Path 22653" d="M577.62,639.12c-.55-1.05-.75-7.43,2.63-9.18,2.42-1.25,6.5-1.22,7.69,1.6a14.267,14.267,0,0,1,.23,4.29,5.359,5.359,0,0,1-4.31,5.1,26.347,26.347,0,0,1-10.58-.27l4.34-1.54Z" fill="#e8a967"/>
          <path id="Path_22654" data-name="Path 22654" d="M539.48,582.42c-3.2,0-5.99-2.45-7.55-6.69v81.95h15.1V575.74C544.95,579.74,542.67,582.42,539.48,582.42Z" fill="#3e89ff"/>
          <path id="Path_22655" data-name="Path 22655" d="M513.07,657.68a9.735,9.735,0,0,0,3.06,6.49l.49,89.88h16.95l1.87-84.6h8.76l1.34,84.6h15.92l2.05-90.58a9.717,9.717,0,0,0,2.39-5.79Z" fill="#413f42"/>
          <path id="Path_22656" data-name="Path 22656" d="M547.07,754.05l.36,10.73a1.49,1.49,0,0,0,1.51,1.48H577.3c0-2.29-.26-4.4-2.22-5.95a15.261,15.261,0,0,0-4.36-2.14c-3.59-1.17-7.16-2.55-10.64-4v-.12H547.06Z" fill="#18171a"/>
          <path id="Path_22657" data-name="Path 22657" d="M568.55,533.8c.05.4.1.81.14,1.21-1.56-16.05-13.61-28.61-28.38-29.07v76.78c3.05-.53,5.45-4.16,6.88-6.96a11.307,11.307,0,0,0-2.26-.35v-4.8c11.05-2.3,19.92-11.48,22.87-23.39,3.27-1.07,6.07-5.15,6.07-8.45,0-3.05-2.38-4.51-5.33-4.99Z" fill="#e8a967"/>
          <path id="Path_22658" data-name="Path 22658" d="M508.69,766.26h21.33a1.5,1.5,0,0,0,1.51-1.48l.44-10.73H518.86c-.98.4-1.84.78-2.35,1-2.93,1.06-5.87,2.06-8.81,3.09a10.852,10.852,0,0,0-5,3.11,6.549,6.549,0,0,0-1.36,5.02c2.45.04,4.91,0,7.36,0Z" fill="#282729"/>
          <path id="Path_22659" data-name="Path 22659" d="M540.31,582.35v75.33h6.71V575.74C545.12,579.38,543.07,581.92,540.31,582.35Z" fill="#316cc9"/>
          <path id="Path_22660" data-name="Path 22660" d="M543.51,630.18a37.007,37.007,0,0,0-3.41,3.64c-.11.14-.12.21-.16.21-.64.05-1.26.42-1.88.32-18.17-2.93-26.94-12.25-23.34-30.58,1.22-7.75,1.14-15.24.94-23.19-6.8,3.9-8.99,6.93-10.69,13.48-6.9,26.6,1.46,48.02,32.37,48.85a31.812,31.812,0,0,0,3.24,0,7.317,7.317,0,0,0,3.67,1.24,34.821,34.821,0,0,0,5.02.22c2.66-.36,5.05-1.65,5.43-4.41.46-3.33-1.64-5.34-4.65-6.43-1.5-.54-3.25-.3-4.78-.7a16.368,16.368,0,0,1,2.02-.63,2.744,2.744,0,0,0,1.76-1,1.143,1.143,0,0,0,.17-.91c-.08-.3-.08-.59-.38-.78-.81-.51-.69-.74-1.95-.55a5.985,5.985,0,0,0-3.38,1.23Z" fill="#f5d4b5"/>
          <path id="Path_22661" data-name="Path 22661" d="M569.2,529.56a17.545,17.545,0,0,0-.85-9.35c-13.38-36.04-46.86-12.48-46.86-12.48h0c-12.87,1.15-14.11,7.56-14.11,19.15,0,3.26.93,4.54,2.6,4.63.28.58.48.96.53,1.03a.17.17,0,0,0,.01.07v-.04h.01c.1-.41.19-.77.27-1.1,5.27-.71,11.44-19.3,18.72-9.93,8.06,10.36,34.37,11.42,38.52,9.81q.135.69.27,1.44a19.319,19.319,0,0,0,.47-1.95,3.25,3.25,0,0,0,.42-1.29Z" fill="#413f42"/>
          <path id="Path_22662" data-name="Path 22662" d="M570.37,531.43l-.61-.8a.708.708,0,0,0-.98-.13l-8.44,6.24a9.779,9.779,0,0,0-8.63-5.13,9.673,9.673,0,0,0-9.71,8.94h-5.44a9.766,9.766,0,0,0-18.38-3.71l-7.2-4.53a.974.974,0,0,0-1.33.29l-.26.4a.935.935,0,0,0,.29,1.31l7.67,4.82a8.978,8.978,0,0,0,.18,4.72,9.836,9.836,0,0,0,9.07,6.88,9.717,9.717,0,0,0,9.84-7.8h5.72a9.71,9.71,0,0,0,9.67,7.81,9.879,9.879,0,0,0,9.19-6.79,8.9,8.9,0,0,0,.21-4.88l9.02-6.67a.678.678,0,0,0,.14-.96Zm-43.52,16.93a7.191,7.191,0,1,1,7.33-7.19A7.273,7.273,0,0,1,526.85,548.36Zm24.86,0a7.191,7.191,0,1,1,7.33-7.19A7.273,7.273,0,0,1,551.71,548.36Z" fill="#413f42"/>
          <rect id="Rectangle_1289" data-name="Rectangle 1289" width="11.08" height="3.12" transform="translate(551.39 601.1)" fill="#6e6f73"/>
          <rect id="Rectangle_1290" data-name="Rectangle 1290" width="11.08" height="3.12" transform="translate(518.35 601.1)" fill="#999da0"/>
          <path id="Path_22663" data-name="Path 22663" d="M516.15,604.19c.44-8.76-.29-15.65-.48-23.6-6.8,3.9-8.99,6.93-10.69,13.48-2.66,10.24-3.04,19.71-.75,27.54h11.93c-.78-5.67-.02-9.57,0-17.42Z" fill="#3e89ff"/>
          <path id="Path_22664" data-name="Path 22664" d="M540.31,669.45h3.88l1.34,84.6h15.92l2.05-90.58a9.717,9.717,0,0,0,2.39-5.79H540.3v11.77Z" fill="#282729"/>
          <path id="Path_22665" data-name="Path 22665" d="M540.31,500.4v28.03c10.8,3.87,24.8,4.07,27.73,2.93q.135.69.27,1.44a19.319,19.319,0,0,0,.47-1.95,3.25,3.25,0,0,0,.42-1.29,17.545,17.545,0,0,0-.85-9.35c-6.6-17.77-18.08-21.05-28.03-19.81Z" fill="#282729"/>
          <path id="Path_22666" data-name="Path 22666" d="M569.75,530.63a.708.708,0,0,0-.98-.13l-8.44,6.24a9.779,9.779,0,0,0-8.63-5.13,9.673,9.673,0,0,0-9.71,8.94H540.3v2.37h1.83a9.71,9.71,0,0,0,9.67,7.81,9.879,9.879,0,0,0,9.19-6.79,8.9,8.9,0,0,0,.21-4.88l9.02-6.67a.678.678,0,0,0,.14-.96l-.61-.8Zm-18.04,17.73a7.191,7.191,0,1,1,7.33-7.19A7.273,7.273,0,0,1,551.71,548.36Z" fill="#282729"/>
        </g>
        <g id="Group_2608" data-name="Group 2608">
          <g id="Group_2603" data-name="Group 2603">
            <rect id="Rectangle_1291" data-name="Rectangle 1291" width="128.94" height="16.19" transform="translate(804.7 747.62) rotate(180)" fill="#f2aa3f"/>
            <path id="Path_22667" data-name="Path 22667" d="M799.66,731.44H781.12l11.24-131.79L808.8,601l-8.3,97.3A279.863,279.863,0,0,0,799.66,731.44Z" fill="#f2aa3f"/>
            <rect id="Rectangle_1292" data-name="Rectangle 1292" width="12.42" height="74.53" transform="translate(727.65 732.43)" fill="#f2aa3f"/>
            <path id="Path_22668" data-name="Path 22668" d="M685.85,716.25h96.02v5.77a10.426,10.426,0,0,1-10.42,10.42h-85.6V716.25h0Z" transform="translate(1467.72 1448.68) rotate(180)" fill="#fae1bc"/>
            <path id="Path_22669" data-name="Path 22669" d="M774.35,615.96l-9,108.61,16.45,1.31,9.94-119.93-4.9-.39a11.522,11.522,0,0,0-12.49,10.41Z" fill="#fae1bc"/>
            <rect id="Rectangle_1293" data-name="Rectangle 1293" width="6.21" height="37.27" transform="translate(770.34 702.26)" fill="#f2aa3f"/>
            <rect id="Rectangle_1294" data-name="Rectangle 1294" width="83.43" height="6.09" transform="translate(693.12 699.82)" fill="#f2aa3f"/>
            <rect id="Rectangle_1295" data-name="Rectangle 1295" width="6.21" height="37.27" transform="translate(693.12 702.26)" fill="#f2aa3f"/>
            <path id="Path_22670" data-name="Path 22670" d="M693.12,800.19v-2.44h83.43v18.43h-6.21V803.84H699.33v12.34h-6.21V800.19Z" fill="#f2aa3f"/>
            <ellipse id="Ellipse_1108" data-name="Ellipse 1108" cx="5.75" cy="5.64" rx="5.75" ry="5.64" transform="translate(767.7 806.17)" fill="#f2aa3f"/>
            <ellipse id="Ellipse_1109" data-name="Ellipse 1109" cx="5.75" cy="5.64" rx="5.75" ry="5.64" transform="translate(690.48 806.17)" fill="#f2aa3f"/>
          </g>
          <g id="Group_2606" data-name="Group 2606">
            <g id="Group_2604" data-name="Group 2604">
              <rect id="Rectangle_1296" data-name="Rectangle 1296" width="6.21" height="37.27" transform="translate(501.5 695.06)" fill="#f2aa3f"/>
              <rect id="Rectangle_1297" data-name="Rectangle 1297" width="83.43" height="6.09" transform="translate(424.27 692.61)" fill="#f4b456"/>
              <rect id="Rectangle_1298" data-name="Rectangle 1298" width="6.21" height="37.27" transform="translate(424.27 695.06)" fill="#f4b456"/>
            </g>
            <rect id="Rectangle_1299" data-name="Rectangle 1299" width="128.94" height="16.19" transform="translate(536.83 747.62) rotate(180)" fill="#f2aa3f"/>
            <path id="Path_22671" data-name="Path 22671" d="M529.54,731.44H469.48l36.41-131.57,53.25,1.34Z" fill="#f2aa3f"/>
            <rect id="Rectangle_1300" data-name="Rectangle 1300" width="12.42" height="59.34" transform="translate(459.78 747.62)" fill="#f4b456"/>
            <path id="Path_22672" data-name="Path 22672" d="M511.33,731.44H451.27l33.58-121.53a13.744,13.744,0,0,1,13.66-9.98l42.43,1.08L511.33,731.45Z" fill="#fdefdb"/>
            <path id="Path_22673" data-name="Path 22673" d="M417.98,716.25H514v5.77a10.426,10.426,0,0,1-10.42,10.42h-85.6V716.25h0Z" transform="translate(931.98 1448.68) rotate(180)" fill="#fae1bc"/>
            <g id="Group_2605" data-name="Group 2605">
              <rect id="Rectangle_1301" data-name="Rectangle 1301" width="62.29" height="6.09" transform="translate(472.28 701.04)" fill="#f4b456"/>
              <rect id="Rectangle_1302" data-name="Rectangle 1302" width="6.21" height="28.94" transform="translate(472.28 703.49)" fill="#f4b456"/>
            </g>
            <path id="Path_22674" data-name="Path 22674" d="M425.25,800.19v-2.44h83.43v18.43h-6.21V803.84H431.46v12.34h-6.21V800.19Z" fill="#f2aa3f"/>
            <ellipse id="Ellipse_1110" data-name="Ellipse 1110" cx="5.75" cy="5.64" rx="5.75" ry="5.64" transform="translate(499.83 806.17)" fill="#f4ba63"/>
            <ellipse id="Ellipse_1111" data-name="Ellipse 1111" cx="5.75" cy="5.64" rx="5.75" ry="5.64" transform="translate(422.6 806.17)" fill="#f4ba63"/>
          </g>
          <g id="Group_2607" data-name="Group 2607">
            <rect id="Rectangle_1303" data-name="Rectangle 1303" width="329.66" height="16.19" transform="translate(325.04 674.85)" fill="#f4b456"/>
            <rect id="Rectangle_1304" data-name="Rectangle 1304" width="12.42" height="128.18" transform="translate(334.4 689.27)" fill="#f4b456"/>
            <rect id="Rectangle_1305" data-name="Rectangle 1305" width="12.42" height="128.18" transform="translate(633.3 689.27)" fill="#f4b456"/>
          </g>
        </g>
      </g>
      <g id="Group_2624" data-name="Group 2624">
        <g id="Group_2621" data-name="Group 2621">
          <rect id="Rectangle_1306" data-name="Rectangle 1306" width="380.29" height="328.6" transform="translate(-36.3 500.59)" fill="#fff"/>
          <rect id="Rectangle_1307" data-name="Rectangle 1307" width="405.97" height="18.1" transform="translate(-49.14 482.49)" fill="#f5c070"/>
          <rect id="Rectangle_1308" data-name="Rectangle 1308" width="380.29" height="9.05" transform="translate(-36.3 500.59)" fill="#fdde90"/>
          <rect id="Rectangle_1309" data-name="Rectangle 1309" width="380.29" height="9.05" transform="translate(-36.3 820.13)" fill="#fdde90"/>
          <rect id="Rectangle_1310" data-name="Rectangle 1310" width="405.97" height="9.05" transform="translate(-49.14 829.18)" fill="#f5c070"/>
          <rect id="Rectangle_1311" data-name="Rectangle 1311" width="182.27" height="18.45" transform="translate(170.22 832.19) rotate(90)" fill="#f5c070"/>
          <g id="Group_2610" data-name="Group 2610">
            <path id="Path_22675" data-name="Path 22675" d="M120.75,783.39a190.845,190.845,0,0,1,16.05-12.67c5.47-3.92,11-7.69,16.58-11.36s11.21-7.24,16.98-10.67a188.268,188.268,0,0,1,17.96-9.66l.12-.05a9.68,9.68,0,0,1,12.74,4.6,9.277,9.277,0,0,1-.96,9.5,100.469,100.469,0,0,1-14.79,15.55,149.681,149.681,0,0,1-17.09,12.79,166.434,166.434,0,0,1-18.62,10.45,115.278,115.278,0,0,1-20.1,7.57,9.6,9.6,0,0,1-11.71-6.69,9.285,9.285,0,0,1,2.75-9.29l.08-.07Z" fill="#c7ebcd"/>
            <path id="Path_22676" data-name="Path 22676" d="M126.48,780.11c.86,1.26.07,2.21-1.18,3.03s-2.48,1.2-3.34-.06a2.678,2.678,0,0,1,.7-3.77A2.8,2.8,0,0,1,126.48,780.11Z" fill="#86cb93"/>
            <path id="Path_22677" data-name="Path 22677" d="M165.67,761.75c.86,1.26.07,2.21-1.18,3.03s-2.48,1.2-3.34-.06a2.678,2.678,0,0,1,.7-3.77,2.8,2.8,0,0,1,3.82.8Z" fill="#86cb93"/>
            <path id="Path_22678" data-name="Path 22678" d="M146.15,764.18c.86,1.26.07,2.21-1.18,3.03s-2.48,1.2-3.34-.06a2.678,2.678,0,0,1,.7-3.77,2.8,2.8,0,0,1,3.82.8Z" fill="#86cb93"/>
            <path id="Path_22679" data-name="Path 22679" d="M134.11,792.86c.86,1.26.07,2.21-1.18,3.03s-2.48,1.2-3.34-.06a2.678,2.678,0,0,1,.7-3.77,2.8,2.8,0,0,1,3.82.8Z" fill="#86cb93"/>
            <path id="Path_22680" data-name="Path 22680" d="M189.94,750.33c.86,1.26.07,2.21-1.18,3.03s-2.48,1.2-3.34-.06a2.678,2.678,0,0,1,.7-3.77,2.8,2.8,0,0,1,3.82.8Z" fill="#86cb93"/>
            <path id="Path_22681" data-name="Path 22681" d="M170.81,748.15c.86,1.26.07,2.21-1.18,3.03s-2.48,1.2-3.34-.06a2.678,2.678,0,0,1,.7-3.77,2.8,2.8,0,0,1,3.82.8Z" fill="#86cb93"/>
            <path id="Path_22682" data-name="Path 22682" d="M180.92,765.89c.86,1.26.07,2.21-1.18,3.03s-2.48,1.2-3.34-.06a2.678,2.678,0,0,1,.7-3.77,2.8,2.8,0,0,1,3.82.8Z" fill="#86cb93"/>
            <path id="Path_22683" data-name="Path 22683" d="M190.27,738.11c.51,1.43-.5,2.16-1.91,2.65s-2.71.55-3.22-.88a2.7,2.7,0,0,1,1.64-3.48,2.783,2.783,0,0,1,3.5,1.71Z" fill="#86cb93"/>
            <path id="Path_22684" data-name="Path 22684" d="M159.36,780.07c.51,1.43-.5,2.16-1.91,2.65s-2.71.55-3.22-.88a2.7,2.7,0,0,1,1.64-3.48,2.783,2.783,0,0,1,3.5,1.71Z" fill="#86cb93"/>
            <path id="Path_22685" data-name="Path 22685" d="M140.16,780.04c.51,1.43-.5,2.16-1.91,2.65s-2.71.55-3.22-.88a2.7,2.7,0,0,1,1.64-3.48,2.783,2.783,0,0,1,3.5,1.71Z" fill="#86cb93"/>
          </g>
          <g id="Group_2611" data-name="Group 2611">
            <path id="Path_22686" data-name="Path 22686" d="M277.11,661c-1.1-5.13-6.74-8.31-12.59-7.1a11.762,11.762,0,0,0-5.14,2.44,3.962,3.962,0,0,1-3.59.74,11.909,11.909,0,0,0-5.71-.2,11.762,11.762,0,0,0-5.14,2.44,3.962,3.962,0,0,1-3.59.74,11.909,11.909,0,0,0-5.71-.2c-5.85,1.21-9.7,6.35-8.59,11.48a8.356,8.356,0,0,0,1.52,3.31l13.01,28.38c1.1,5.13,6.74,8.31,12.59,7.1a11.922,11.922,0,0,0,3.67-1.41,7.279,7.279,0,0,1,4.59-.95,11.955,11.955,0,0,0,3.94-.17c5.12-1.06,8.7-5.13,8.78-9.56l.05-5.77,1.43-23.26c.11-1.76.41-3.51.62-5.26a8.3,8.3,0,0,0-.13-2.76Z" fill="#fcd46e"/>
            <path id="Path_22687" data-name="Path 22687" d="M262.33,654.07c-1.73-.3-5.98-.85-8.91.48a11.3,11.3,0,0,0-2.1,1.22,56.5,56.5,0,0,1-1.8-15.33.9.9,0,0,0-.93-.93l-4.33.1a.927.927,0,0,0-.91,1.02,61.159,61.159,0,0,0,4.53,16.42,8.379,8.379,0,0,0-4.53-.63c-3.21.27-6.62,2.81-7.97,3.92a.545.545,0,0,0,.08.92c1.53.86,5.33,2.78,8.54,2.51a11.791,11.791,0,0,0,1.29-.18,12.286,12.286,0,0,0-.61,2.74.312.312,0,0,0,.4.34,9.5,9.5,0,0,0,4.43-2.25,5.207,5.207,0,0,0,1.08-1.73,5.342,5.342,0,0,0,1.7,1.15,9.5,9.5,0,0,0,4.98.3.305.305,0,0,0,.22-.47,13.349,13.349,0,0,0-1.6-2.17c.22-.09.43-.16.66-.26,2.93-1.33,5.26-4.84,6.15-6.34a.548.548,0,0,0-.39-.84Z" fill="#71cd82"/>
          </g>
          <g id="Group_2612" data-name="Group 2612">
            <path id="Path_22688" data-name="Path 22688" d="M294.32,573.12c2.51-5.54-.58-12.27-6.9-15.02a13.686,13.686,0,0,0-6.51-1.13,4.494,4.494,0,0,1-3.87-1.69,13.47,13.47,0,0,0-5.22-3.98,13.808,13.808,0,0,0-6.51-1.13,4.494,4.494,0,0,1-3.87-1.69,13.47,13.47,0,0,0-5.22-3.98c-6.32-2.75-13.48-.49-15.99,5.05a9.758,9.758,0,0,0-.86,4.11l-.11,12.58c-.04,4.1-.57,8.17-.92,12.25-.4,4.72,2.6,9.58,7.74,11.81a13.969,13.969,0,0,0,4.42,1.12,8.3,8.3,0,0,1,4.95,2.16,13.971,13.971,0,0,0,3.81,2.47c5.53,2.41,11.7.98,14.84-3.13h0a42.962,42.962,0,0,1,9.55-9.29l4.68-3.32c1.32-1.58,2.81-3.02,4.22-4.52a9.767,9.767,0,0,0,1.79-2.67Z" fill="#e86965"/>
            <path id="Path_22689" data-name="Path 22689" d="M285.24,556.79c-1.41-1.44-5.02-4.77-8.68-5.47a13.216,13.216,0,0,0-2.81-.25,66.229,66.229,0,0,1,8.9-15.57,1.01,1.01,0,0,0-.23-1.49l-4.13-2.78a1.1,1.1,0,0,0-1.56.35,71.012,71.012,0,0,0-7.1,18.41,9.5,9.5,0,0,0-3.82-3.61c-3.2-1.88-8.15-1.77-10.18-1.63a.627.627,0,0,0-.56.91c.84,1.82,3.08,6.15,6.28,8.03a14.265,14.265,0,0,0,1.34.69,14.458,14.458,0,0,0-2.46,2.16.352.352,0,0,0,.14.58c1.06.41,3.68,1.3,5.71.84a6.31,6.31,0,0,0,2.2-.9,5.973,5.973,0,0,0,.8,2.21c1.01,1.79,3.44,3.11,4.46,3.6a.358.358,0,0,0,.53-.29,14.307,14.307,0,0,0,0-3.1c.27.07.51.14.8.2,3.66.7,8.28-1.05,10.14-1.85a.625.625,0,0,0,.21-1.05Z" fill="#71cd82"/>
          </g>
          <g id="Group_2613" data-name="Group 2613">
            <path id="Path_22690" data-name="Path 22690" d="M25.04,636.08l-4.22,6.64L-6.5,624a1.516,1.516,0,0,1-.5-2.12l.72-1.13a1.587,1.587,0,0,1,2.16-.49l29.16,15.83Z" fill="#86cb93"/>
            <path id="Path_22691" data-name="Path 22691" d="M28.62,641.7l-6.27,4.84L3.12,619.84a1.514,1.514,0,0,1,.26-2.16l1.07-.82a1.593,1.593,0,0,1,2.21.26l21.96,24.6Z" fill="#44bd5a"/>
            <path id="Path_22692" data-name="Path 22692" d="M28.51,636.66l-2.3,7.49L-5.17,633.12a1.532,1.532,0,0,1-1.05-1.92l.39-1.27a1.571,1.571,0,0,1,1.96-1.03l32.38,7.76Z" fill="#44bd5a"/>
            <path id="Path_22693" data-name="Path 22693" d="M35,631.96a687.032,687.032,0,0,0,58.89,45.47,3.678,3.678,0,0,1,.92,5.18,3.836,3.836,0,0,1-4.57,1.29,713.73,713.73,0,0,1-68.99-32.75l-.04-.02a11.682,11.682,0,0,1-4.68-16.04,12.157,12.157,0,0,1,16.36-4.59,11.921,11.921,0,0,1,2.12,1.47Z" fill="#f4b85e"/>
          </g>
          <g id="Group_2614" data-name="Group 2614">
            <path id="Path_22694" data-name="Path 22694" d="M44.42,730.81a23.257,23.257,0,0,0-17.2-.62,22.953,22.953,0,0,0-15.23-7.86C.2,721.21-11.69,729.56-16.43,742.3c-6.34,17.03,1.5,34.85,16.32,38.73a22.472,22.472,0,0,0,6.18.73,25.1,25.1,0,0,1,13.3,3.48,22.15,22.15,0,0,0,5.73,2.38c14.82,3.88,30.67-7.76,33.82-25.61,2.36-13.36-3.71-26.42-14.5-31.21Z" fill="#e86965"/>
            <path id="Path_22695" data-name="Path 22695" d="M55.66,732.12c-2.5-2.36-8.84-7.8-15.11-8.78-4.46-.69-7.71-.17-9.87,1.08a58.4,58.4,0,0,1,2.73-5.76,29.513,29.513,0,0,1,2.9-4.31,9.6,9.6,0,0,1,2.79-2.44.681.681,0,0,0,.24-1.01l-1.86-3h0a1.549,1.549,0,0,0-.35-.37.537.537,0,0,0-.33.05,11.548,11.548,0,0,0-4.61,4.51,31.4,31.4,0,0,0-2.46,5.15,61.06,61.06,0,0,0-1.82,5.92c-1.4-1.87-3.9-3.61-7.7-4.96-5.97-2.12-14.2-.35-17.55.53a1.069,1.069,0,0,0-.63,1.71,45.274,45.274,0,0,0,6.38,7.14,43.782,43.782,0,0,0-9.23,6.29,1.062,1.062,0,0,0,.23,1.8c3.07,1.59,10.7,5.09,17,4.32.32-.04.58-.11.88-.15a39.491,39.491,0,0,0,2.98,12.4,1.1,1.1,0,0,0,1.8.41,40.058,40.058,0,0,0,8.27-9.85c.43.35.83.7,1.32,1.05,5.14,3.66,13.55,4.2,17.01,4.27a1.081,1.081,0,0,0,1.09-1.47,43.486,43.486,0,0,0-4.54-9.28,45.316,45.316,0,0,0,10.15-3.45,1.058,1.058,0,0,0,.29-1.79Z" fill="#71cd82"/>
          </g>
          <g id="Group_2616" data-name="Group 2616">
            <path id="Path_22696" data-name="Path 22696" d="M304.1,764.26c0,14.7-11.32,37.34-23.18,37.34s-23.18-22.64-23.18-37.34,11.32-15.89,23.18-15.89S304.1,749.56,304.1,764.26Z" fill="#e86965"/>
            <path id="Path_22697" data-name="Path 22697" d="M287.21,750.99a12.3,12.3,0,0,0,3.37-3.21,7.833,7.833,0,0,0,1.55-4.72h0s-.04-.05-.07-.04a26.685,26.685,0,0,0-5.15,1.66,33.55,33.55,0,0,0-4.02,2.04c-.04.02-.07.05-.11.07.01-.12.03-.23.04-.35a21.38,21.38,0,0,0,0-3.92,17.139,17.139,0,0,0-.95-4.5c0-.01-.01-.02-.02-.03a.2.2,0,0,0-.25-.05,9.775,9.775,0,0,0-3.94,3.6,10.263,10.263,0,0,0-1.5,4.3c-.06-.05-.13-.11-.19-.17a31.228,31.228,0,0,0-3.59-2.53,25.951,25.951,0,0,0-4.77-2.3h-.03a.125.125,0,0,0-.13.08,7.589,7.589,0,0,0,.71,4.85,11.68,11.68,0,0,0,2.97,3.77,12.806,12.806,0,0,0-3.4,3.19,7.927,7.927,0,0,0-1.61,4.69v.04a.209.209,0,0,0,.24.12,27,27,0,0,0,5.09-1.7,33.162,33.162,0,0,0,3.99-2.07,1.053,1.053,0,0,0,.11-.07c-.01.12-.03.23-.05.35a23.128,23.128,0,0,0-.03,3.91,16.919,16.919,0,0,0,.92,4.49.085.085,0,0,0,.03.05.29.29,0,0,0,.36.07,9.824,9.824,0,0,0,3.9-3.62,10.277,10.277,0,0,0,1.48-4.3c.06.05.13.11.19.17a31.874,31.874,0,0,0,3.57,2.54,25.771,25.771,0,0,0,4.73,2.31.109.109,0,0,1,.05.01.207.207,0,0,0,.23-.14,7.594,7.594,0,0,0-.75-4.83,11.575,11.575,0,0,0-2.99-3.76Z" fill="#71cd82"/>
            <path id="Path_22698" data-name="Path 22698" d="M290.58,747.78a7.833,7.833,0,0,0,1.55-4.72h0s-.04-.05-.07-.04a26.685,26.685,0,0,0-5.15,1.66,33.55,33.55,0,0,0-4.02,2.04c-.04.02-.07.05-.11.07.01-.12.03-.23.04-.35a21.38,21.38,0,0,0,0-3.92,17.139,17.139,0,0,0-.95-4.5c0-.01-.01-.02-.02-.03a.2.2,0,0,0-.25-.05,9.638,9.638,0,0,0-2.48,1.79v21.23A10.7,10.7,0,0,0,280.7,759a10.277,10.277,0,0,0,1.48-4.3c.06.05.13.11.19.17a31.874,31.874,0,0,0,3.57,2.54,25.771,25.771,0,0,0,4.73,2.31.109.109,0,0,1,.05.01.207.207,0,0,0,.23-.14,7.594,7.594,0,0,0-.75-4.83,11.575,11.575,0,0,0-2.99-3.76,12.3,12.3,0,0,0,3.37-3.21Z" fill="#74b379"/>
            <g id="Group_2615" data-name="Group 2615">
              <ellipse id="Ellipse_1112" data-name="Ellipse 1112" cx="0.61" cy="1.35" rx="0.61" ry="1.35" transform="translate(264.91 761.87)" fill="#f7e1aa"/>
              <ellipse id="Ellipse_1113" data-name="Ellipse 1113" cx="0.61" cy="1.35" rx="0.61" ry="1.35" transform="translate(286.42 764.58)" fill="#f7e1aa"/>
              <ellipse id="Ellipse_1114" data-name="Ellipse 1114" cx="0.61" cy="1.35" rx="0.61" ry="1.35" transform="translate(275.06 766.78)" fill="#f7e1aa"/>
              <ellipse id="Ellipse_1115" data-name="Ellipse 1115" cx="0.61" cy="1.35" rx="0.61" ry="1.35" transform="translate(295.57 777.05)" fill="#f7e1aa"/>
              <ellipse id="Ellipse_1116" data-name="Ellipse 1116" cx="0.61" cy="1.35" rx="0.61" ry="1.35" transform="translate(297.94 765.42)" fill="#f7e1aa"/>
              <ellipse id="Ellipse_1117" data-name="Ellipse 1117" cx="0.61" cy="1.35" rx="0.61" ry="1.35" transform="translate(288.24 790.37)" fill="#f7e1aa"/>
              <ellipse id="Ellipse_1118" data-name="Ellipse 1118" cx="0.61" cy="1.35" rx="0.61" ry="1.35" transform="translate(278.69 789.01)" fill="#f7e1aa"/>
              <ellipse id="Ellipse_1119" data-name="Ellipse 1119" cx="0.61" cy="1.35" rx="0.61" ry="1.35" transform="translate(273.84 794.03)" fill="#f7e1aa"/>
              <ellipse id="Ellipse_1120" data-name="Ellipse 1120" cx="0.61" cy="1.35" rx="0.61" ry="1.35" transform="translate(278.08 777.05)" fill="#f7e1aa"/>
              <ellipse id="Ellipse_1121" data-name="Ellipse 1121" cx="0.61" cy="1.35" rx="0.61" ry="1.35" transform="translate(267.61 784.39)" fill="#f7e1aa"/>
              <ellipse id="Ellipse_1122" data-name="Ellipse 1122" cx="0.61" cy="1.35" rx="0.61" ry="1.35" transform="translate(265.52 772.31)" fill="#f7e1aa"/>
              <ellipse id="Ellipse_1123" data-name="Ellipse 1123" cx="0.61" cy="1.35" rx="0.61" ry="1.35" transform="translate(287.63 779.76)" fill="#f7e1aa"/>
            </g>
          </g>
          <g id="Group_2617" data-name="Group 2617">
            <path id="Path_22699" data-name="Path 22699" d="M147.56,617.81c4.52,7.8,1.01,19.24-4.28,20.73s-9.12-8.35-14.88-15.31c-5.5-6.66.42-14.39,5.71-15.89s8.63,2.14,13.45,10.47Z" fill="#27a33e"/>
            <path id="Path_22700" data-name="Path 22700" d="M171.51,625.72c-1.72,8.81-11.96,15.28-16.98,13.04s-1.42-12.16-1.18-21.12c.22-8.57,9.84-10.68,14.85-8.45s5.15,7.12,3.31,16.53Z" fill="#27a33e"/>
            <path id="Path_22701" data-name="Path 22701" d="M167,616.23c3.17,12.95-6.63,27.86-14.81,27.86s-9.52-15.59-14.81-27.86c-5.06-11.73,6.63-20.37,14.81-20.37S163.61,602.4,167,616.23Z" fill="#4ab25d"/>
            <path id="Path_22702" data-name="Path 22702" d="M150.72,633.98a35.9,35.9,0,0,1-3.95-4.33,21.8,21.8,0,0,1-1.63-2.42,11.467,11.467,0,0,1-1.13-2.68.092.092,0,0,1,.18-.04,15.1,15.1,0,0,0,2.95,4.86,35.458,35.458,0,0,0,4.08,4.05h.01a.39.39,0,1,1-.51.59h-.01Z" fill="#cfe4a7"/>
            <path id="Path_22703" data-name="Path 22703" d="M156.52,673.61a6.96,6.96,0,0,1-2.9,1.23,8.168,8.168,0,0,1-2.79,0,8.9,8.9,0,0,1-4.72-2.6,14.293,14.293,0,0,1-3.1-4.61c-.16-.44-.33-.87-.46-1.31s-.21-.89-.31-1.33a16.026,16.026,0,0,1-.26-2.41,32.533,32.533,0,0,1,.17-4.63c.14-1.52.42-2.98.59-4.35a22.779,22.779,0,0,0,.24-4.01,35.758,35.758,0,0,0-.38-3.97,73.191,73.191,0,0,0-1.72-8c-.69-2.66-1.5-5.29-2.4-7.9s-1.89-5.18-3.01-7.7,1.07,2.38-.49.13h0a.386.386,0,0,1,.1-.54.4.4,0,0,1,.54.1h0c1.52,2.39-.66-2.51.56,0s2.33,5.05,3.42,7.61a155.356,155.356,0,0,1,5.78,15.75,76.089,76.089,0,0,1,1.64,8.46,26.883,26.883,0,0,0,.96,3.93,38.226,38.226,0,0,0,1.45,3.55,15.821,15.821,0,0,0,.8,1.6c.13.21.22.44.36.63a5.464,5.464,0,0,1,.39.59,24.912,24.912,0,0,0,1.72,2.15,11.084,11.084,0,0,1,1.94,2.45c.31.54.63,1.14.97,1.86a26.641,26.641,0,0,1,1.08,2.59l.03.08a.575.575,0,0,1-.2.66Z" fill="#c0dc8c"/>
            <path id="Path_22704" data-name="Path 22704" d="M156.32,680.8a7.267,7.267,0,0,1-3.31-.37,8.674,8.674,0,0,1-2.59-1.43,10.509,10.509,0,0,1-3.2-4.39,11.246,11.246,0,0,1-.7-2.52,12.741,12.741,0,0,1-.1-2.54c.03-.4.05-.88.08-1.21l.09-.84c.06-.56.08-1.12.11-1.68.05-2.22-.04-4.6-.16-7.5-.06-1.43-.06-2.94-.04-4.43.05-1.5.14-2.98.26-4.44.08-.73.13-1.44.23-2.17s.21-1.46.35-2.16c.27-1.41.62-2.77.98-4.11.71-2.68,1.52-5.27,2.25-7.87.36-1.3.71-2.6,1.03-3.9.3-1.31.57-2.61.78-3.93a17.227,17.227,0,0,0-.24-7.83h0a.377.377,0,0,1,.25-.49.387.387,0,0,1,.49.24,22,22,0,0,1,.83,8.21c-.06,1.37-.17,2.73-.32,4.09-.13,1.36-.29,2.71-.45,4.06-.6,5.37-1.41,10.82-.61,15.7a25.143,25.143,0,0,0,2.53,7.13c.58,1.19,1.18,2.47,1.72,3.88a25.676,25.676,0,0,1,1.25,4.5c.14.78.27,1.57.36,2.36l.13,1.18c.05.35.1.54.14.81a11.917,11.917,0,0,1,.21,2.96,18.537,18.537,0,0,1-.54,3.26c-.31,1.26-.77,2.69-1.28,4.86l-.03.13a.586.586,0,0,1-.49.44Z" fill="#cfe4a7"/>
            <path id="Path_22705" data-name="Path 22705" d="M155.4,644.8c-.2.62-.41,1.24-.59,1.87a76.089,76.089,0,0,0-1.64,8.46,26.883,26.883,0,0,1-.96,3.93,38.226,38.226,0,0,1-1.45,3.55,15.821,15.821,0,0,1-.8,1.6c-.13.21-.22.44-.36.63a5.464,5.464,0,0,0-.39.59,24.912,24.912,0,0,1-1.72,2.15,11.084,11.084,0,0,0-1.94,2.45c-.31.54-.63,1.14-.97,1.86a26.641,26.641,0,0,0-1.08,2.59l-.03.08a.575.575,0,0,0,.2.66,6.96,6.96,0,0,0,2.9,1.23,8.168,8.168,0,0,0,2.79,0,8.9,8.9,0,0,0,4.72-2.6,14.293,14.293,0,0,0,3.1-4.61c.16-.44.33-.87.46-1.31s.21-.89.31-1.33a13.71,13.71,0,0,0,.25-2.21c-3.4-4.25-2.27-12.07-2.8-19.59Z" fill="#c0dc8c"/>
            <path id="Path_22706" data-name="Path 22706" d="M128.21,620.61a.4.4,0,0,1,.54.1h0a71.154,71.154,0,0,1,4,7.37c1.21,2.51,2.33,5.05,3.42,7.61a152.985,152.985,0,0,1,5.78,15.75,42,42,0,0,1,1.08,5.03c5.85-4.36,2.94-15.44,4.63-24.86,1.54-8.62-11.65-13.85-19.62-11.34l.13.39.04-.04Z" fill="#63bd74"/>
            <path id="Path_22707" data-name="Path 22707" d="M172.8,628.93a.4.4,0,0,0-.54.1h0a71.154,71.154,0,0,0-4,7.37c-1.21,2.51-2.33,5.05-3.42,7.61a152.985,152.985,0,0,0-5.78,15.75,42,42,0,0,0-1.08,5.03c-5.85-4.36-2.94-15.44-4.63-24.86-1.54-8.62,11.65-13.85,19.62-11.34l-.13.39-.04-.04Z" fill="#63bd74"/>
            <path id="Path_22708" data-name="Path 22708" d="M149.55,679.06a16.62,16.62,0,0,1,1.9-3.81,7.835,7.835,0,0,1,1.86-1.93,19.438,19.438,0,0,0,1.59-1.47l.35-.37c.1-.13.21-.26.32-.39a2.78,2.78,0,0,0,.31-.43,2.217,2.217,0,0,0,.33-.53,16.3,16.3,0,0,0,1.9-5.96,48.314,48.314,0,0,1,.88-7.1,92.244,92.244,0,0,1,4.65-13.06c.92-2.1,1.87-4.19,2.91-6.24s4.37-6.94,5.71-8.85a.4.4,0,0,1,.48-.09c.09.03.14.03.17.21a.439.439,0,0,1-.09.27h0a77.445,77.445,0,0,0-5.64,8.74,65.957,65.957,0,0,0-2.54,6.31c-.74,2.14-1.4,4.31-1.93,6.51a46.327,46.327,0,0,0-1.22,6.58,21.851,21.851,0,0,0-.08,3.23,19.618,19.618,0,0,0,.52,3.27c.25,1.14.56,2.38.72,3.68a23.425,23.425,0,0,1,.21,3.92,7.144,7.144,0,0,1-.13,1.12,8.023,8.023,0,0,1-.26,1.18c-.13.38-.27.77-.41,1.15s-.36.72-.55,1.09a11.269,11.269,0,0,1-3.12,3.51,7.342,7.342,0,0,1-4.06,1.62,6.675,6.675,0,0,1-2.28-.26,6.169,6.169,0,0,1-2.35-1.26.551.551,0,0,1-.16-.61l.02-.05Z" fill="#cfe4a7"/>
            <path id="Path_22709" data-name="Path 22709" d="M152.96,619.93a35.462,35.462,0,0,0,4.08-4.05,14.752,14.752,0,0,0,2.95-4.86.1.1,0,0,1,.12-.07.1.1,0,0,1,.07.11,11.467,11.467,0,0,1-1.13,2.68,19.7,19.7,0,0,1-1.63,2.42,35.9,35.9,0,0,1-3.95,4.33.392.392,0,0,1-.55-.01.38.38,0,0,1,.01-.54h.01v-.02Z" fill="#cfe4a7"/>
            <path id="Path_22710" data-name="Path 22710" d="M152.16,617.53a34.514,34.514,0,0,0-2.13-5.3,14.976,14.976,0,0,0-3.34-4.62.085.085,0,0,1-.01-.13.094.094,0,0,1,.13-.01,11.588,11.588,0,0,1,2.04,2.1,21.791,21.791,0,0,1,1.6,2.44,35.738,35.738,0,0,1,2.44,5.29.382.382,0,0,1-.23.49.4.4,0,0,1-.5-.23v-.02h-.01Z" fill="#cfe4a7"/>
            <path id="Path_22711" data-name="Path 22711" d="M152.28,629.72a35.462,35.462,0,0,0,4.08-4.05,14.752,14.752,0,0,0,2.95-4.86.1.1,0,0,1,.12-.07.1.1,0,0,1,.07.11,11.467,11.467,0,0,1-1.13,2.68,19.7,19.7,0,0,1-1.63,2.42,35.9,35.9,0,0,1-3.95,4.33.392.392,0,0,1-.55-.01.38.38,0,0,1,.01-.54h.01v-.02Z" fill="#cfe4a7"/>
            <path id="Path_22712" data-name="Path 22712" d="M134.96,633.79a35.67,35.67,0,0,0,2.16-5.28,14.67,14.67,0,0,0,.8-5.6.091.091,0,0,1,.08-.1.108.108,0,0,1,.11.08,11.262,11.262,0,0,1,.02,2.9,21.066,21.066,0,0,1-.54,2.85,35.083,35.083,0,0,1-1.93,5.49.4.4,0,0,1-.51.2.37.37,0,0,1-.2-.5v-.02h.01Z" fill="#cfe4a7"/>
            <path id="Path_22713" data-name="Path 22713" d="M139.22,644.42a35.67,35.67,0,0,0,2.16-5.28,14.67,14.67,0,0,0,.8-5.6.091.091,0,0,1,.08-.1.108.108,0,0,1,.11.08,11.262,11.262,0,0,1,.02,2.9,21.066,21.066,0,0,1-.54,2.85,35.083,35.083,0,0,1-1.93,5.49.4.4,0,0,1-.51.2.37.37,0,0,1-.2-.5v-.02h.01Z" fill="#cfe4a7"/>
            <path id="Path_22714" data-name="Path 22714" d="M164.94,642.8a35.67,35.67,0,0,1-2.16-5.28,14.67,14.67,0,0,1-.8-5.6.091.091,0,0,0-.08-.1.108.108,0,0,0-.11.08,11.262,11.262,0,0,0-.02,2.9,21.066,21.066,0,0,0,.54,2.85,35.083,35.083,0,0,0,1.93,5.49.4.4,0,0,0,.51.2.37.37,0,0,0,.2-.5v-.02h-.01Z" fill="#cfe4a7"/>
            <path id="Path_22715" data-name="Path 22715" d="M160.68,653.44a35.67,35.67,0,0,1-2.16-5.28,14.67,14.67,0,0,1-.8-5.6.091.091,0,0,0-.08-.1.108.108,0,0,0-.11.08,11.262,11.262,0,0,0-.02,2.9,21.066,21.066,0,0,0,.54,2.85,35.083,35.083,0,0,0,1.93,5.49.4.4,0,0,0,.51.2.37.37,0,0,0,.2-.5v-.02h-.01Z" fill="#cfe4a7"/>
            <path id="Path_22716" data-name="Path 22716" d="M152.28,624.63a35.9,35.9,0,0,1-3.95-4.33,21.8,21.8,0,0,1-1.63-2.42,11.467,11.467,0,0,1-1.13-2.68.092.092,0,0,1,.18-.04,15.1,15.1,0,0,0,2.95,4.86,35.458,35.458,0,0,0,4.08,4.05h.01a.39.39,0,1,1-.51.59h-.01Z" fill="#cfe4a7"/>
            <path id="Path_22717" data-name="Path 22717" d="M152.98,679.67a6.96,6.96,0,0,1-2.9,1.23,8.168,8.168,0,0,1-2.79,0,8.9,8.9,0,0,1-4.72-2.6,14.293,14.293,0,0,1-3.1-4.61c-.16-.44-.33-.87-.46-1.31s-.21-.89-.31-1.33a16.026,16.026,0,0,1-.26-2.41,32.533,32.533,0,0,1,.17-4.63c.14-1.52.42-2.98.59-4.35a22.779,22.779,0,0,0,.24-4.01,35.758,35.758,0,0,0-.38-3.97,73.191,73.191,0,0,0-1.72-8c-.69-2.66-1.5-5.29-2.4-7.9s-1.89-5.18-3.01-7.7a44.95,44.95,0,0,0-3.94-7.25h0a.386.386,0,0,1,.1-.54.4.4,0,0,1,.54.1h0a71.154,71.154,0,0,1,4,7.37c1.21,2.51,2.33,5.05,3.42,7.61a155.356,155.356,0,0,1,5.78,15.75,76.089,76.089,0,0,1,1.64,8.46,26.883,26.883,0,0,0,.96,3.93,38.226,38.226,0,0,0,1.45,3.55,15.821,15.821,0,0,0,.8,1.6c.13.21.22.44.36.63a5.464,5.464,0,0,1,.39.59,24.912,24.912,0,0,0,1.72,2.15,11.084,11.084,0,0,1,1.94,2.45c.31.54.63,1.14.97,1.86a26.641,26.641,0,0,1,1.08,2.59l.03.08a.575.575,0,0,1-.2.66Z" fill="#cfe4a7"/>
          </g>
          <path id="Path_22718" data-name="Path 22718" d="M70.6,1026.02l52.44-187.47-17.75-4.96L51.41,1026.02Z" fill="#f5c070"/>
          <g id="Group_2618" data-name="Group 2618">
            <path id="Path_22719" data-name="Path 22719" d="M44.62,543.23a.551.551,0,0,1-.49-.58c.04-.5.1-.97.17-1.46.1-.65.22-1.3.37-1.94a21.282,21.282,0,0,1,1.26-3.84,16.835,16.835,0,0,1,2.21-3.66,13.712,13.712,0,0,1,3.03-2.66.548.548,0,0,1,.79.24l1.43,3.24a.524.524,0,0,1-.31.71,8.875,8.875,0,0,0-2.22,1.15,13.762,13.762,0,0,0-2.43,2.4,19.175,19.175,0,0,0-1.95,3.06c-.29.54-.55,1.11-.79,1.68-.18.42-.36.89-.51,1.32a.538.538,0,0,1-.57.35h0Z" fill="#593920"/>
            <path id="Path_22720" data-name="Path 22720" d="M37.06,541.98a125.956,125.956,0,0,0,13.42.14c3.87-.28,8.7-1.12,13.35,4s4.8,13.52,3.04,19.38-6.48,14.64-9.48,17.55-4.69,3.3-6.08,3.3-4.26-1.09-7.73-.81-5.26,1.23-7.77.32-6.69-4.35-9.48-10.39-5.65-11.27-4.97-19.2,4.76-15.06,15.71-14.29Z" fill="#86cb93"/>
            <ellipse id="Ellipse_1124" data-name="Ellipse 1124" cx="5.25" cy="3.35" rx="5.25" ry="3.35" transform="translate(24.219 552.217) rotate(-41.43)" fill="#e1f2e4"/>
          </g>
          <path id="Path_22721" data-name="Path 22721" d="M270.85,1026.02,216.97,833.59l-17.74,4.96,52.44,187.47Z" fill="#f5c070"/>
          <g id="Group_2619" data-name="Group 2619">
            <path id="Path_22722" data-name="Path 22722" d="M129.84,799.51a2.476,2.476,0,0,1-1.75-.72,2.387,2.387,0,0,1,.02-3.41l56.45-54.68a2.5,2.5,0,0,1,3.48.02,2.387,2.387,0,0,1-.02,3.41l-56.45,54.68a2.5,2.5,0,0,1-1.73.7Z" fill="#bf4944"/>
            <path id="Path_22723" data-name="Path 22723" d="M185.94,799.86a2.476,2.476,0,0,1-1.75-.72l-55.75-55.37a2.387,2.387,0,0,1,.02-3.41,2.5,2.5,0,0,1,3.48.02l55.75,55.37a2.387,2.387,0,0,1-.02,3.41,2.5,2.5,0,0,1-1.73.7Z" fill="#bf4944"/>
          </g>
          <g id="Group_2620" data-name="Group 2620">
            <path id="Path_22724" data-name="Path 22724" d="M16.35,588.86a2.476,2.476,0,0,1-1.75-.72,2.387,2.387,0,0,1,.02-3.41l56.45-54.68a2.5,2.5,0,0,1,3.48.02,2.387,2.387,0,0,1-.02,3.41L18.08,588.16a2.5,2.5,0,0,1-1.73.7Z" fill="#bf4944"/>
            <path id="Path_22725" data-name="Path 22725" d="M72.45,589.21a2.476,2.476,0,0,1-1.75-.72L14.95,533.12a2.387,2.387,0,0,1,.02-3.41,2.5,2.5,0,0,1,3.48.02L74.2,585.1a2.387,2.387,0,0,1-.02,3.41,2.5,2.5,0,0,1-1.73.7Z" fill="#bf4944"/>
          </g>
          <rect id="Rectangle_1312" data-name="Rectangle 1312" width="41.69" height="12.86" transform="translate(40.78 1026.02)" fill="#f3b251"/>
          <rect id="Rectangle_1313" data-name="Rectangle 1313" width="41.69" height="12.86" transform="translate(242.68 1026.02)" fill="#f3b251"/>
          <rect id="Rectangle_1314" data-name="Rectangle 1314" width="41.69" height="12.86" transform="translate(140.14 1014.46)" fill="#f3b251"/>
          <path id="Path_22726" data-name="Path 22726" d="M262.81,612.02c-26.45,0-47.97-21.11-47.97-47.05s21.52-47.05,47.97-47.05,47.97,21.11,47.97,47.05S289.26,612.02,262.81,612.02Zm0-89.28c-23.74,0-43.05,18.94-43.05,42.23s19.31,42.23,43.05,42.23,43.05-18.94,43.05-42.23S286.55,522.74,262.81,522.74Z" fill="#6ca5ff"/>
          <path id="Path_22727" data-name="Path 22727" d="M277.3,816.81c-26.45,0-47.97-21.11-47.97-47.05s21.52-47.05,47.97-47.05,47.97,21.11,47.97,47.05S303.75,816.81,277.3,816.81Zm0-89.28c-23.74,0-43.05,18.94-43.05,42.23s19.31,42.23,43.05,42.23,43.05-18.94,43.05-42.23S301.04,727.53,277.3,727.53Z" fill="#6ca5ff"/>
          <path id="Path_22728" data-name="Path 22728" d="M49,708.36c-32.45,0-58.86-25.9-58.86-57.74S16.54,592.88,49,592.88s58.86,25.9,58.86,57.74S81.46,708.36,49,708.36Zm0-109.55c-29.13,0-52.82,23.25-52.82,51.82S19.88,702.45,49,702.45s52.83-23.25,52.83-51.82S78.13,598.81,49,598.81Z" fill="#6ca5ff"/>
        </g>
        <g id="Group_2623" data-name="Group 2623">
          <ellipse id="Ellipse_1125" data-name="Ellipse 1125" cx="17.74" cy="15.29" rx="17.74" ry="15.29" transform="translate(276.36 716.95)" fill="#232a2f"/>
          <ellipse id="Ellipse_1126" data-name="Ellipse 1126" cx="17.74" cy="15.29" rx="17.74" ry="15.29" transform="translate(297.78 755.72)" fill="#232a2f"/>
          <ellipse id="Ellipse_1127" data-name="Ellipse 1127" cx="17.74" cy="15.29" rx="17.74" ry="15.29" transform="translate(282.05 740.44)" fill="#232a2f"/>
          <ellipse id="Ellipse_1128" data-name="Ellipse 1128" cx="17.74" cy="15.29" rx="17.74" ry="15.29" transform="translate(294.1 732.24)" fill="#232a2f"/>
          <path id="Path_22729" data-name="Path 22729" d="M290.32,720.79c7.27,29.34,29.13,51.95,56.37,57.63v11.91c-3.97.42-9.26,1.31-7.94,1.09,3.89,9.99,11.77,16.85,20.87,16.85s17-6.86,20.88-16.87c-3.95-.8-6.95-1.34-6.95-1.14V778.42c27.24-5.68,49.1-28.29,56.37-57.63,8.07-2.65,14.96-12.68,14.96-20.82,0-7.51-5.88-11.12-13.12-12.29-3.92-40.3-34.3-68.69-71.63-68.69s-66.52,29.84-71.63,68.69c-7.25,1.17-13.12,4.78-13.12,12.29,0,8.14,6.89,18.17,14.96,20.82Z" fill="#b38563"/>
          <path id="Path_22730" data-name="Path 22730" d="M431.75,687.68c-3.92-40.3-34.3-68.69-71.63-68.69V808.24c8.9-.25,16.57-7.02,20.39-16.85-3.95-.8-6.95-1.34-6.95-1.14V778.41c27.24-5.68,49.1-28.29,56.37-57.63,8.07-2.65,14.96-12.68,14.96-20.82,0-7.51-5.88-11.12-13.12-12.29Z" fill="#9a6a45"/>
          <path id="Path_22731" data-name="Path 22731" d="M370.64,1060.49l3.08,200.55a2.934,2.934,0,0,0,2.97,2.85h37.63a2.953,2.953,0,0,0,2.97-2.85l2.91-200.56H370.65Z" fill="#bbbcbe"/>
          <path id="Path_22732" data-name="Path 22732" d="M295.67,1060.49l1.59,200.94a2.525,2.525,0,0,0,2.55,2.47h42.54a2.529,2.529,0,0,0,2.55-2.42l.98-200.99h-50.2Z" fill="#dadbde"/>
          <path id="Path_22733" data-name="Path 22733" d="M268.42,1018.61c-2.13-3.48-8.22-8.91-8.91-9.51a2.221,2.221,0,0,0-.27-.19c.04-1.37.07-2.74.12-4.11l-23.06-1.42c0,.99-.03,1.98-.03,2.97q0,3.66.06,7.31a13.409,13.409,0,0,0-3.41,8.93v13.33c0,8.4,7.95,14.73,16.33,13.58a14.011,14.011,0,0,0,12.32-13.58V1022.7a35.555,35.555,0,0,1,2.88,7.55,4,4,0,0,0,3.88,2.94,3.99,3.99,0,0,0,3.88-4.92,43.05,43.05,0,0,0-3.79-9.65Z" fill="#b38563"/>
          <path id="Path_22734" data-name="Path 22734" d="M344.91,779.26l-4.77,10.1a85.779,85.779,0,0,0-12.72,1.98c-12.9,3.41-24.28,6.46-35.39,14.1-12.45,8.56-22.94,20.24-29.04,33.96-31.9,71.71-28.37,120.5-32.3,162.47a1.16,1.16,0,0,0,.8,1.21l30.3,1.87a1.175,1.175,0,0,0,1.54-.95c4.96-38.72,15.02-113.84,28.32-147.09-5.74,34.85-11.28,201.03-11.34,203.58h79.8V790.92l-8.17-6.26-7.04-5.39Z" fill="#ebebed"/>
          <path id="Path_22735" data-name="Path 22735" d="M479.3,949.32a343.764,343.764,0,0,0-11.9-64.54,350.773,350.773,0,0,0-13.71-38.44c-4.61-10.93-9.87-21.13-18.46-29.63a72.2,72.2,0,0,0-8.61-7.28,69.974,69.974,0,0,0-8.17-5.07c-6.24-3.31-13.48-5.27-20.13-7.75a162.964,162.964,0,0,0-18.38-5.42h0l-5.54-11.93-14.27,11.65V817.1h0v243.39h75.11c-.02-2.28-6.11-125.76-8.07-188.18,10.74,37.3,18.86,98.14,23.16,131.68a1.167,1.167,0,0,0,1.54.95l30.3-1.87a1.167,1.167,0,0,0,.81-1.21c-1.64-17.49-2.07-35.06-3.68-52.55Z" fill="#dadbde"/>
          <path id="Path_22736" data-name="Path 22736" d="M477.4,1006.34c0-.99-.03-1.98-.03-2.97l-23.06,1.42c.05,1.37.08,2.74.12,4.11-.09.07-.19.12-.27.19-.69.61-6.78,6.03-8.91,9.51a43.568,43.568,0,0,0-3.79,9.65,3.99,3.99,0,0,0,3.88,4.92,4,4,0,0,0,3.88-2.94,36.891,36.891,0,0,1,2.88-7.55v13.22c0,6.89,5.43,12.64,12.32,13.58,8.38,1.14,16.33-5.18,16.33-13.58v-13.33a13.409,13.409,0,0,0-3.41-8.93c.03-2.43.06-4.86.06-7.31Z" fill="#9a6a45"/>
          <ellipse id="Ellipse_1129" data-name="Ellipse 1129" cx="4.44" cy="4.35" rx="4.44" ry="4.35" transform="translate(345.74 840.78)" fill="#414042"/>
          <ellipse id="Ellipse_1130" data-name="Ellipse 1130" cx="4.44" cy="4.35" rx="4.44" ry="4.35" transform="translate(238.02 989.36)" fill="#414042"/>
          <ellipse id="Ellipse_1131" data-name="Ellipse 1131" cx="4.44" cy="4.35" rx="4.44" ry="4.35" transform="translate(365.63 840.78)" fill="#414042"/>
          <ellipse id="Ellipse_1132" data-name="Ellipse 1132" cx="4.44" cy="4.35" rx="4.44" ry="4.35" transform="translate(345.69 906.96)" fill="#414042"/>
          <ellipse id="Ellipse_1133" data-name="Ellipse 1133" cx="4.44" cy="4.35" rx="4.44" ry="4.35" transform="translate(365.59 906.96)" fill="#414042"/>
          <ellipse id="Ellipse_1134" data-name="Ellipse 1134" cx="4.44" cy="4.35" rx="4.44" ry="4.35" transform="translate(345.69 973.14)" fill="#414042"/>
          <ellipse id="Ellipse_1135" data-name="Ellipse 1135" cx="4.44" cy="4.35" rx="4.44" ry="4.35" transform="translate(365.59 973.14)" fill="#414042"/>
          <ellipse id="Ellipse_1136" data-name="Ellipse 1136" cx="4.44" cy="4.35" rx="4.44" ry="4.35" transform="translate(468.02 989.36)" fill="#414042"/>
          <path id="Path_22737" data-name="Path 22737" d="M383.08,823.59H362.47V805.94h-4.14v21.71h20.61a4.1,4.1,0,0,1,4.14,4.06v228.77h4.14V827.64h0a4.1,4.1,0,0,0-4.14-4.06h0Z" fill="#d42e28"/>
          <path id="Path_22738" data-name="Path 22738" d="M360.12,790.91v18.45l7.45-10.63,12.36-7.54-5.54-11.93Z" fill="#bbbcbe"/>
          <path id="Path_22739" data-name="Path 22739" d="M438.74,671.59a9.932,9.932,0,0,0-9.33-6.42c-.14,0-.26.03-.4.04a10.619,10.619,0,0,0-7.87-3.21,10.148,10.148,0,0,0-8.71,4.34,7.2,7.2,0,0,0-6.72-.19c-1.69-2.49-5.08-4.21-9.05-4.21a11.381,11.381,0,0,0-8.42,3.36,13.164,13.164,0,0,0-8.22-2.71,12.825,12.825,0,0,0-8.78,3.23,7.5,7.5,0,0,0-6.88-4.44,7.41,7.41,0,0,0-6.78,4.26,9.883,9.883,0,0,0-14.9.69,8.664,8.664,0,0,0-11.26-5.67,13.216,13.216,0,0,0-23.91,2.21,16.3,16.3,0,0,0-9.22-2.73c-7.76,0-14.04,4.95-14.05,11.07-6.3.86-11.02,4.36-11.02,8.55a6.38,6.38,0,0,0,1.81,4.29c-3.52,1.1-6.01,3.74-6.01,6.82,0,4.08,4.33,7.38,9.68,7.38s9.68-3.3,9.68-7.38a5.725,5.725,0,0,0-.56-2.37c6.21-.15,11.37-2.8,12.98-6.39a14.141,14.141,0,0,0,10.05-5.94,13.277,13.277,0,0,0,18.58-.35,8.846,8.846,0,0,0,12.05-2.19,9.312,9.312,0,0,0,8.98,6.16,9.2,9.2,0,0,0,8.82-5.7,7.535,7.535,0,0,0,10.16.04c1.59,3.3,5.72,5.67,10.61,5.67,4.27,0,7.95-1.82,9.88-4.47a12.139,12.139,0,0,0,6.76,1.97,12.55,12.55,0,0,0,5.76-1.35,7.329,7.329,0,0,0,6.46,3.85,7.4,7.4,0,0,0,6.54-3.99,11.18,11.18,0,0,0,4.28,1.38,9.858,9.858,0,0,0,7.21,7.2,10.781,10.781,0,0,0,10.42,9.53c5.84,0,10.58-5.03,10.58-11.25a11.013,11.013,0,0,0-9.19-11.1Z" fill="#232a2f"/>
          <path id="Path_22740" data-name="Path 22740" d="M360.12,809.36l-5.78-10.99-14.2-9.01,4.77-10.1,15.21,11.65Z" fill="#dadbde"/>
          <g id="Group_2622" data-name="Group 2622">
            <path id="Path_22741" data-name="Path 22741" d="M465.88,553.57c-2.17-16.72-15.97-30.15-33.02-32.17a38.383,38.383,0,0,0-33.61,12.75,6.377,6.377,0,0,1-9.6-.03,38.512,38.512,0,0,0-57.7,0,6.377,6.377,0,0,1-9.6.03,38.383,38.383,0,0,0-33.61-12.75c-17.06,2.02-30.86,15.45-33.03,32.17a37.317,37.317,0,0,0,24.14,39.79,3.468,3.468,0,0,1,2.21,3.25v74.9H439.53V599.33a7.49,7.49,0,0,1,4.36-6.86,37.255,37.255,0,0,0,21.99-38.9Z" fill="#ebebed"/>
            <path id="Path_22742" data-name="Path 22742" d="M432.86,521.4a38.4,38.4,0,0,0-33.62,12.75,6.358,6.358,0,0,1-9.57,0,38.284,38.284,0,0,0-29.96-13.01l-.02.02V671.51h79.85V599.33a7.49,7.49,0,0,1,4.36-6.86,37.255,37.255,0,0,0,21.99-38.9c-2.17-16.72-15.97-30.15-33.02-32.17Z" fill="#dadbde"/>
            <rect id="Rectangle_1315" data-name="Rectangle 1315" width="157.47" height="20.39" transform="translate(282.06 651.11)" fill="#dadbde"/>
            <rect id="Rectangle_1316" data-name="Rectangle 1316" width="79.85" height="20.39" transform="translate(359.68 651.11)" fill="#bbbcbe"/>
          </g>
          <ellipse id="Ellipse_1137" data-name="Ellipse 1137" cx="7.57" cy="6.36" rx="7.57" ry="6.36" transform="translate(282.65 686.37)" fill="#232a2f"/>
          <ellipse id="Ellipse_1138" data-name="Ellipse 1138" cx="7.57" cy="6.36" rx="7.57" ry="6.36" transform="translate(280.08 693.53)" fill="#232a2f"/>
          <ellipse id="Ellipse_1139" data-name="Ellipse 1139" cx="7.57" cy="6.36" rx="7.57" ry="6.36" transform="translate(282.65 701.61)" fill="#232a2f"/>
          <ellipse id="Ellipse_1140" data-name="Ellipse 1140" cx="7.57" cy="6.36" rx="7.57" ry="6.36" transform="translate(286.43 693.53)" fill="#232a2f"/>
          <ellipse id="Ellipse_1141" data-name="Ellipse 1141" cx="7.57" cy="6.36" rx="7.57" ry="6.36" transform="translate(409.66 671.79)" fill="#232a2f"/>
          <ellipse id="Ellipse_1142" data-name="Ellipse 1142" cx="7.57" cy="6.36" rx="7.57" ry="6.36" transform="translate(417.893 678.209) rotate(-5.11)" fill="#232a2f"/>
          <ellipse id="Ellipse_1143" data-name="Ellipse 1143" cx="7.57" cy="6.36" rx="7.57" ry="6.36" transform="translate(423.438 684.58) rotate(-5.11)" fill="#232a2f"/>
          <ellipse id="Ellipse_1144" data-name="Ellipse 1144" cx="7.57" cy="6.36" rx="7.57" ry="6.36" transform="translate(429.576 690.44) rotate(-5.11)" fill="#232a2f"/>
          <ellipse id="Ellipse_1145" data-name="Ellipse 1145" cx="7.57" cy="6.36" rx="7.57" ry="6.36" transform="translate(296.7 677.49)" fill="#232a2f"/>
          <ellipse id="Ellipse_1146" data-name="Ellipse 1146" cx="7.57" cy="6.36" rx="7.57" ry="6.36" transform="translate(289.14 683.19)" fill="#232a2f"/>
          <ellipse id="Ellipse_1147" data-name="Ellipse 1147" cx="7.57" cy="6.36" rx="7.57" ry="6.36" transform="translate(304.27 672.19)" fill="#232a2f"/>
        </g>
      </g>
    </g>
    <g id="DEI-Toolkit-Illustrations_5-2" data-name="DEI-Toolkit-Illustrations_5" transform="translate(132.29 -4.593)">
      <rect id="Rectangle_945" data-name="Rectangle 945" width="283.584" height="335.434" transform="translate(697.073 782.111)" fill="#414042"/>
      <rect id="Rectangle_946" data-name="Rectangle 946" width="141.801" height="335.434" transform="translate(838.856 782.111)" fill="#2d2d2e"/>
      <path id="Path_19270" data-name="Path 19270" d="M665.037,143.438s-8.7-173.575,168.828-173.575,190.8,131.164,171,173.575,0,56.752,15.722,91.178c15.237,33.392-53.871,99.116-35.523,139.808s-15.951,63.383-15.951,63.383H675.536s-19.143-39.054,5.588-81.346-62.157-84.574-16.088-213.031Z" transform="translate(3.912 0)" fill="#413f42"/>
      <path id="Path_19271" data-name="Path 19271" d="M1010.883,234.615c-15.713-34.435-35.523-48.776-15.722-91.178,19.755-42.319,6.567-173.026-169.926-173.557V437.8H959.409s34.307-22.692,15.951-63.383,50.761-106.415,35.523-139.807Z" transform="translate(13.621 0.001)" fill="#282729"/>
      <path id="Path_19272" data-name="Path 19272" d="M617.241,863.561c13.92-1.9,24.868-13.509,24.868-27.411V809.462c2.6,4.28,5.076,12.43,5.817,15.228a8.07,8.07,0,0,0,7.82,5.936,8.255,8.255,0,0,0,2.04-.256,7.918,7.918,0,0,0,5.8-9.668c-.329-1.253-3.366-12.484-7.646-19.472-4.3-7.024-16.591-17.972-17.981-19.2-.174-.156-.366-.256-.549-.393.082-3.265.165-6.53.283-9.814,4.088-111,28.28-214.174,65.184-301.922V372.333a139.524,139.524,0,0,0-56.047,68.294c-36.118,94.653-55.782,215.217-55.782,335.845q0,7.395.119,14.744a27.106,27.106,0,0,0-6.878,18.018v26.908c0,16.957,16.042,29.716,32.944,27.411Z" transform="translate(0.17 22.468)" fill="#a76e4d"/>
      <path id="Path_19273" data-name="Path 19273" d="M853.238,367.153c-7.664,8.963-17.259,1.93-27.676,1.93-9.457,0-18.228,7.957-25.509.439v390.42h53.185Z" transform="translate(12.215 22.179)" fill="#d85041"/>
      <path id="Path_19274" data-name="Path 19274" d="M825.236,369.128V759.941h26.6V367.153C844.433,375.8,835.232,369.567,825.236,369.128Z" transform="translate(13.621 22.179)" fill="#d42e28"/>
      <path id="Path_19275" data-name="Path 19275" d="M805.5,374.18a.618.618,0,0,0-.064-.046A.279.279,0,0,0,805.5,374.18Z" transform="translate(12.515 22.569)" fill="#414042"/>
      <path id="Path_19276" data-name="Path 19276" d="M841.088,375.465c.219-.146.448-.284.677-.43C841.545,375.182,841.317,375.319,841.088,375.465Z" transform="translate(14.505 22.619)" fill="#414042"/>
      <path id="Path_19277" data-name="Path 19277" d="M807.391,370.849h0c-6.658-6.878-12.073-16.344-15.558-27.484-7.381,1.116-14.762,2.488-22.161,4.189-16.765,2.844-35.1,8.835-50.706,15.475a145.022,145.022,0,0,0-20.8,10.939L695.177,472,676.958,726.267a397.418,397.418,0,0,1-5.039,40.664l-3.21,18.155a5.753,5.753,0,0,0,5.744,6.7H807.391V370.849Z" transform="translate(4.877 20.851)" fill="#565457"/>
      <path id="Path_19278" data-name="Path 19278" d="M965.631,472.01l-5.89-99.153c-15.667-9.485-33.356-15.96-50.99-20.963-2.982-.851-29.46-5.762-44.853-8.771a71.781,71.781,0,0,1-13.472,25.371v423.3H981.646a5.743,5.743,0,0,0,5.68-7.006h0A414.874,414.874,0,0,1,976.8,709.525L965.613,472.01Z" transform="translate(15.027 20.837)" fill="#1d1d1d"/>
      <path id="Path_19279" data-name="Path 19279" d="M808.424,376.134c-.064-.037-.128-.082-.2-.128C808.286,376.042,808.351,376.088,808.424,376.134Z" transform="translate(12.671 22.673)" fill="#414042"/>
      <path id="Path_19280" data-name="Path 19280" d="M971.711,763.8,828.062,788.023l-36.914-210.58,143.658-24.228Z" transform="translate(11.718 32.566)" fill="#b6b6b6"/>
      <path id="Path_19281" data-name="Path 19281" d="M962.447,773.314,816.8,779.085l-8.8-213.489,145.643-5.78Z" transform="translate(12.659 32.934)" fill="#ebebeb"/>
      <path id="Path_19282" data-name="Path 19282" d="M869.741,743.859a25.741,25.741,0,0,0,22.225,9.338c6.978-.595,13.4-3.878,19.445-7.344a160.8,160.8,0,0,0,16.582-10.427,20.194,20.194,0,0,0,4.939-4.921c1.006-1.427,2.588-6.128,3.988-6.86,4.326-2.277,8.03-3.64,12.384-6.421,106.543-68.056,96.373-174.654,60.346-279.4C999.167,407.336,980.9,394,959,372.554c-.53-.512-1.262-.037-1.7-.741a794.142,794.142,0,0,0-7.235,86.623c30.841,77.083,62.395,166.313-23.981,219.36-2.524,1.546-4.729,2.186-7.344,3.485-.174.091-.165-.055-.906-.4-13.582-6.439-28.572-11.451-43.508-6.457a7.776,7.776,0,0,0-2.515,1.235c-2.3,1.921-2.433,6.85-1.079,9.338,1.637,3.018,5.515,4.372,8.771,3.905,4.408-.64,9.859-1.765,14.5-1.454-6.283,4.225-14.945,6.658-20.378,11.917-10.856,10.491-13.5,24.21-7.71,38.1a25.5,25.5,0,0,0,3.841,6.4Z" transform="translate(15.724 22.439)" fill="#965b39"/>
      <path id="Path_19283" data-name="Path 19283" d="M702.729,372.342c-25.527,16.152-47.048,38.816-57.9,67.251-25.82,67.672-49.81,147.161-57.73,231.854a2.36,2.36,0,0,0,1.628,2.442l60.337,19.893a2.387,2.387,0,0,0,3.119-1.93c10.18-79.4,24.32-154.807,51.822-220.184l-1.271-99.336Z" transform="translate(0.326 22.468)" fill="#565457"/>
      <path id="Path_19284" data-name="Path 19284" d="M995.686,681.984a1.549,1.549,0,0,0,2.442.119c55.014-66.172,37.911-159.5,8.414-245.271-10.481-30.484-30.045-44.057-51.95-65.5-.53-.512-2.835-.11-3.274-.814-4.143,28.819-7.857,59.166-8.835,88.233,23.89,59.724,48.9,122.622,18.466,174.407a1.435,1.435,0,0,0,.046,1.537l34.691,47.3Z" transform="translate(20.166 22.366)" fill="#1d1d1d"/>
      <path id="Path_19285" data-name="Path 19285" d="M829.3,371.194l-64.819,37.289-11.908-64.2,40.325-5.46c7.738,15.311,18.338,23.579,36.411,32.368Z" transform="translate(9.564 20.597)" fill="#d85041"/>
      <path id="Path_19286" data-name="Path 19286" d="M825.245,371.194l64.819,37.289,11.908-64.2-40.325-5.46c-7.738,15.311-18.338,23.579-36.411,32.368Z" transform="translate(13.621 20.597)" fill="#d42e28"/>
      <path id="Path_19287" data-name="Path 19287" d="M683.123,210.152c15.823,63.831,63.373,113.028,122.649,125.384v25.92c-1.7.183-3.4.412-5.113.622,7.39,12.667,17.4,20.286,33.3,28.133.64,0,1.28.027,1.921.073,16.079-7.921,26.14-15.585,33.566-28.426-3.229-.567-5.232-.814-5.232-.567V335.536c59.267-12.356,106.817-61.553,122.649-125.384,17.551-5.753,32.551-27.594,32.551-45.292,0-16.344-12.786-24.2-28.554-26.743C982.329,50.433,916.23-11.331,835-11.331S690.266,53.589,679.145,138.117c-15.768,2.543-28.554,10.4-28.554,26.743,0,17.707,15,39.539,32.551,45.292Z" transform="translate(3.871 1.05)" fill="#a76e4d"/>
      <path id="Path_19288" data-name="Path 19288" d="M677.627,138.629l9.475,54.758s-4.253-33.356,32.972-58.938S894,158.952,905.96,67.134c0,0,10.152,68.889,83.385,71.486,0,0,3.283-159.124-156.92-159.124s-154.8,159.124-154.8,159.124Z" transform="translate(5.379 0.538)" fill="#413f42"/>
      <path id="Path_19289" data-name="Path 19289" d="M1005.123,670.228l-8.8,7.042a1.855,1.855,0,0,1-2.579-.256l-48.2-57.913a1.773,1.773,0,0,1,.256-2.524l8.8-7.043a1.855,1.855,0,0,1,2.579.256l48.2,57.913A1.773,1.773,0,0,1,1005.123,670.228Z" transform="translate(20.314 35.687)" fill="#d42e28"/>
      <path id="Path_19290" data-name="Path 19290" d="M659.565,669l-2.186,10.93a1.829,1.829,0,0,1-2.149,1.418l-72.5-13.93a1.8,1.8,0,0,1-1.445-2.1l2.186-10.93a1.829,1.829,0,0,1,2.149-1.418l72.5,13.93A1.8,1.8,0,0,1,659.565,669Z" transform="translate(0 38.132)" fill="#d85041"/>
      <path id="Path_19291" data-name="Path 19291" d="M981.1,138.117C972.57,50.433,906.471-11.331,825.244-11.331h0V390.257c.3.009.594.009.9.037,16.079-7.921,26.14-15.585,33.566-28.426-3.229-.567-5.232-.814-5.232-.567V335.545c59.267-12.356,106.817-61.553,122.65-125.384,17.551-5.753,32.551-27.594,32.551-45.292,0-16.344-12.786-24.2-28.554-26.743Z" transform="translate(13.621 1.05)" fill="#965b39"/>
      <path id="Path_19292" data-name="Path 19292" d="M825.236-20.487v145.3c35.889-3.54,67.05-15.969,72.483-57.675,0,0,10.152,68.889,83.385,71.486,0,0,3.256-158.4-155.868-159.106Z" transform="translate(13.621 0.539)" fill="#282729"/>
    </g>
  </g>
</svg>
