<svg xmlns="http://www.w3.org/2000/svg" xmlns:xlink="http://www.w3.org/1999/xlink" width="1920" height="1080" viewBox="0 0 1920 1080">
  <defs>
    <clipPath id="clip-path">
      <rect id="Rectangle_1091" data-name="Rectangle 1091" width="1920" height="1079.74" transform="translate(0 0.26)" fill="none"/>
    </clipPath>
    <clipPath id="clip-Question_Two">
      <rect width="1920" height="1080"/>
    </clipPath>
  </defs>
  <g id="Question_Two" data-name="Question Two" clip-path="url(#clip-Question_Two)">
    <rect width="1920" height="1080" fill="#fff"/>
    <g id="DEI-Toolkit-Illustrations_2" clip-path="url(#clip-path)">
      <rect id="Rectangle_1003" data-name="Rectangle 1003" width="1923.54" height="859.66" transform="translate(-2.64 -14.12)" fill="#ecf2fd"/>
      <path id="Path_20760" data-name="Path 20760" d="M1867.64,50.93V8.1h53.26V5.21H-13.11V8.1H150.57V50.93h3.21V8.1H306.5V50.93h3.21V8.1H462.43V51.11H-13.11V54H71.86V89.25H-13.11v2.89h942.8v.09h-.76v42.92H777.48V92.4h-3.21v42.75H621.55V92.23h-3.21v42.92H465.62V92.4h-3.21v42.75H309.69V92.23h-3.21v42.92H153.78V92.23h-3.21v42.92H-13.11v2.89H71.7v43.01H-13.11v2.89H150.53v43.01H-13.11v2.89H71.82v39.31H-13.11v2.89H150.53v43.01H-13.11v2.89H71.86v43.01H-13.11v2.89H150.57v43.01H-13.11v2.89H850.82v.09h-.76v42.92H698.71V410.02H695.4v42.73H542.78V409.83h-3.31v42.92H386.85V410.02h-3.31v42.73H230.93V409.83h-3.31v42.92H75.01V409.83H71.7v42.92H-13.11v2.89H71.7v1.14h3.31v-1.14h75.52v43.01H-13.11v2.89H71.72v43.01H-13.11v2.89H150.57v41.7H-13.11v2.89H71.87v35.25H-13.11v2.89H150.55v43.01H-13.11v2.89H71.72v43.01H-13.11v2.89H150.55v43.01H-13.11v2.89h84.9v39.3h-84.9v2.89H1920.9v-2.89H1788.78v-39.3H1920.9v-2.89h-53.23V721.97h53.23v-2.89H1788.85V676.07H1920.9v-2.89h-53.23V630.17h53.23v-2.89H1788.7V592.03h132.2v-2.89h-53.26v-41.7h53.26v-2.89H1788.85V501.54H1920.9v-2.89h-53.21V455.64h53.21v-2.89H1788.87V409.83h-3.31v42.92H1632.94V410.02h-3.31v42.73H1477.01V409.83h-3.31v42.92H1321.13V410.02h-.05v-.19h-3.31v42.92H1165.96V409.74h754.92v-2.89h-53.26V363.84h53.26v-2.89H1788.81V317.94h132.07v-2.89h-53.21V272.04h53.21v-2.89H1788.73V229.84h132.15v-2.89h-53.21V183.94h53.21v-2.89H1788.85V138.04h132.03v-2.89h-53.26V92.23h-3.21v42.92H1711.69V92.4h-3.21v42.75H1555.76V92.23h-3.21v42.92H1399.89V92.4h-.05v-.18h-3.21v42.92h-151.9V92.13h676.14V89.24H1788.68V54h132.19V51.11H1711.69V8.1h152.72V50.93h3.21ZM1399.92,8.1h152.66V50.93h3.21V8.1h152.72V51.11H1399.92ZM1088.07,51.02h.76V8.1h151.95V50.93h3.21v-.09h.76V8.1h151.9V50.93h.05v.18H1088.06v-.09Zm697.61,178.85v39.31H1632.83V230.04h-3.07v39.14H1476.91V229.87h308.78Zm-229.84-2.89V183.97h152.63v43.01Zm152.63,88.11H1555.84V272.08h152.63Zm77.14,2.89v43.01H1632.9V317.98ZM1632.93,544.62V501.61h152.66v43.01Zm75.59,2.89v41.7H1555.8v-41.7ZM230.91,719.17V676.16H383.57v43.01Zm75.56,2.89v43.01H153.81V722.06H306.48ZM230.91,544.61V501.6H383.57v43.01Zm78.8,2.89H462.43v41.7H309.71Zm1242.85,82.74v43.01H1399.95V630.24Zm-75.71-2.89V592.1H1629.8v35.25Zm-2.97,0h-152.9V592.1h152.9Zm-77.25,2.89v43.01H1244.78V630.24Zm-78.68-2.89H1165.81V592.1h152.14Zm-77.2,2.89v43.01h-151.9V630.24Zm-78.68-2.89H1009.88V592.1h152.19Zm-775.39,0V592.1H539.63v35.25Zm75.71,2.89v43.01H309.72V630.24H462.39Zm3.26,0H618.32v43.01H465.65V630.24Zm76.96-2.89V592.1H695.56v35.25Zm78.97,2.89H774.25v43.01H621.58Zm76.96-2.89V592.1H850.23v35.25Zm78.97,2.89h151.4v43.01H777.51Zm76.46-2.89V592.1h152.19v35.25Zm78.97,2.89h151.9v43.01H932.94Zm-.03-41.04V547.5h151.95v41.7H932.91Zm73.1-44.59H854.11V501.6h151.9Zm-77.07,2.89v41.7H777.49V547.5Zm-78.85-2.89H698.69V501.6h151.4v43.01Zm-75.81,2.89v41.7H621.56V547.5Zm-78.85-2.89H542.77V501.6H695.43Zm-77.07,2.89v41.7H465.64V547.5Zm-78.85-2.89H386.85V501.6H539.51ZM383.73,592.1v35.25H230.76V592.1H383.71Zm-77.25,38.14v43.01H153.81V630.24H306.48Zm3.26,91.82H462.41v43.01H309.74V722.06Zm77.11-2.89V676.16H539.51v43.01H386.85Zm78.82,2.89H618.34v43.01H465.67Zm77.11-2.89V676.16H695.44v43.01H542.78Zm78.82,2.89H774.27v43.01H621.6Zm77.11-2.89V676.16H850.1v43.01Zm78.82,2.89h151.4v43.01H777.53V722.06Zm76.6-2.89V676.16h151.9v43.01H854.13Zm78.82,2.89h151.9v43.01H932.95Zm77.11-2.89V676.16h151.9v43.01Zm78.82,2.89h151.9v43.01h-151.9Zm77.11-2.89V676.16h151.84v43.01Zm78.82,2.89h151.85v43.01H1244.81Zm76.35-2.89V676.16h152.61v43.01Zm78.82,2.89h152.61v43.01H1399.98Zm77.06-2.89V676.16H1629.7v43.01Zm78.82,2.89h152.67v43.01H1555.86Zm77.11-2.89V676.16h152.66v43.01Zm75.56-45.91H1555.86V630.25h152.67Zm-75.71-45.91V592.1h152.95v35.25Zm-3.12-82.74H1477.04V501.6H1629.7Zm-77.07,2.89v41.7H1399.97V547.5Zm-78.85-2.89H1321.17V501.6h152.61Zm-77.07,2.89v41.7h-151.9V547.5Zm-78.85-2.89H1166.01V501.6h151.85Zm-77.02,2.89v41.7H1088.89V547.5Zm-78.85-2.89h-151.9V501.6h151.9Zm-77.12-45.91H933.01V455.69h73.04v1.33h3.31v-.1h.76v-1.23h74.76V498.7Zm-74.76-45.91V409.97h-3.31v.09h-.76v42.73H854.18V409.78h308.54v.09h-.76v42.92H1010.1Zm74.8-45.91H932.96V363.87h151.95ZM230.82,229.87H539.6v39.31H386.75V230.04h-3.07v39.14H230.82Zm-76.99-2.89V183.97H306.46v43.01H153.83Zm155.93,0V183.97H462.39v43.01Zm540.42,2.89v39.31H698.59V230.04h-3.07v39.14H542.67V229.87H850.18Zm-228.57-2.89V183.97H774.24v43.01Zm540.43,2.89v39.31H1009.95V229.95h-3.07v.08h-.76v39.14H854.03V229.86h308.01Zm-229.08-2.89V183.97h151.86v43.01H932.96Zm151.86,45.09v43.01H932.96V272.07ZM928.9,226.98H777.54V183.97H928.9Zm-310.58,0H465.69V183.97H618.32ZM306.47,272.07v43.01H153.83V272.07H306.46Zm-75.56,45.91H383.62v43.01H230.89V317.98Zm78.86-2.89V272.08H462.4v43.01Zm77.06,2.89H539.54v43.01H386.83Zm78.86-2.89V272.08H618.32v43.01Zm77.06,2.89H695.46v43.01H542.75Zm78.86-2.89V272.08H774.24v43.01Zm77.06,2.89H850.11v43.01H698.67Zm78.86-2.89V272.08H928.89v43.01Zm76.56,2.89h151.95v43.01H854.09Zm155.92,43.01V317.98h151.95v43.01H1010.01Zm78.86-45.91V272.07h151.86v43.01Zm77.06,2.89h151.9v43.01h-151.9Zm78.86-2.89V272.07H1396.6v43.01H1244.79Zm76.3,2.89h152.66v43.01H1321.09Zm78.86-2.89V272.07h152.57v43.01Zm77.01,2.89h152.71v43.01H1476.96Zm75.56-91H1399.95V183.96h152.57Zm-78.71,2.89v39.31h-152.8V230.03h-.05v-.16h152.85Zm-77.22-2.89H1244.78V183.96h151.81Zm-78.71,2.89v39.31H1165.84V229.86h152.04Zm-77.16-2.89H1088.86V183.96h151.86Zm-78.83-45.91H1010.03V138.05h151.86Zm-73.08-45.91V92.31h-3.21v.09h-.76v42.75H932.89V92.14h308.64v.09h-.76v42.92H1088.82Zm73.25-45.91H1009.88V54h152.18V89.25ZM777.48,8.1H928.93V50.93h3.21v-.09h.76V8.1h151.95V51.11H777.47V8.1Zm-311.85,0H618.35V50.93h3.21V8.1H774.28V51.11H465.63V8.1ZM227.79,89.25H74.85V54H227.79Zm155.92,0H230.77V54H383.71V89.25Zm155.92,0H386.69V54H539.63Zm155.92,0H542.61V54H695.55Zm154.66,0H698.53V54H850.21Zm3.74,0V54h152.18V89.25Zm.16,48.8h151.86v43.01H854.11Zm-155.42,0H850.04v43.01H698.69Zm-155.92,0H695.39v43.01H542.77Zm-155.92,0H539.47v43.01H386.85Zm-155.92,0H383.55v43.01H230.93V138.05ZM75.01,181.06V138.05H227.63v43.01H75.01Zm-.12,88.11V229.86H227.74v39.31H74.89Zm-.05,91.81V317.97H227.67v43.01H74.85Zm231.65,45.91H153.78V363.88H306.5v43.01Zm155.92,0H309.69V363.88H462.41Zm155.92,0H465.61V363.88H618.33Zm155.92,0H621.53V363.88H774.25v43.01Zm3.21,0V363.88H928.91v43.01Zm.05,48.8h72.53v1.14h3.31v-.1h.76v-1.05h74.76v43.01H777.51V455.68Zm-155.92,0h73.8v1.33h3.31v-1.33h75.52V498.7H621.59Zm-155.92,0h73.8v1.14h3.31v-1.14H618.3V498.7H465.67Zm-155.92,0h73.8v1.33h3.31v-1.33h75.52V498.7H309.75V455.69Zm-155.93,0h73.8v1.14h3.31v-1.14h75.52V498.7H153.83V455.69ZM74.98,501.6H227.65v43.01H74.99V501.6Zm231.51,45.91v41.7H153.78v-41.7H306.5ZM74.83,627.35V592.1H227.79v35.25H74.84Zm.15,91.82V676.16H227.64v43.01H74.99Zm152.73,88.1H74.91v-39.3H227.72v39.3Zm155.92,0H230.84v-39.3h152.8v39.3Zm155.92,0H386.75v-39.3h152.8Zm155.92,0H542.67v-39.3h152.8Zm154.66,0H698.59v-39.3H850.13Zm155.93,0H854.02v-39.3h152.04Zm155.92,0H1009.94v-39.3h152.04Zm155.87,0H1165.86v-39.3h151.99Zm155.92,0H1321.02v-39.3h152.75Zm155.92,0h-152.8v-39.3h152.8Zm155.92,0h-152.8v-39.3h152.8Zm78.75-85.21v43.01H1711.69V722.06Zm0-91.82v43.01H1711.69V630.24Zm.03-82.74v41.7H1711.67V547.5Zm-152.67-91.81h73.8v1.14h3.31v-1.14h75.52V498.7H1711.72V455.69Zm-155.93,0h73.8v1.33h3.31v-1.33h75.52V498.7H1555.79V455.69Zm-155.87,0h73.75v1.14h3.31v-1.14h75.52V498.7H1399.93V455.69Zm-155.16,0h72.99v1.14h.05v.19h3.31v-1.33h75.47V498.7H1244.77V455.69Zm-4.06,0V498.7H1088.84V455.69h73.04v1.14h3.31v-.1h.76v-1.05h74.76Zm.05-48.8H1088.8V363.88h151.95Zm155.87,0h-151.9V363.88h151.9Zm155.92,0H1399.88V363.88h152.66Zm155.93,0H1555.75V363.88h152.72Zm155.92-43.01v43.01H1711.67V363.88Zm-.05-91.81v43.01H1711.71V272.07Zm0-88.11v43.01H1711.71V183.96Zm-231.45-45.91h152.62v43.01H1632.89Zm-155.92,0h152.62v43.01H1476.97Zm-155.87,0h152.57v43.01H1321.1V138.05Zm-3.36,0v43.01H1165.93V138.05Zm.16-48.8H1165.77V54H1317.9V89.25Zm155.92,0H1320.93V54h152.89V89.25Zm155.92,0H1476.8V54h152.94V89.25ZM1785.66,54V89.25H1632.72V54h152.94Z" fill="#d3e1fa"/>
      <rect id="Rectangle_1004" data-name="Rectangle 1004" width="1935.39" height="315.53" transform="translate(-12.73 779.23)" fill="#dde6eb"/>
      <g id="Group_1832" data-name="Group 1832">
        <ellipse id="Ellipse_788" data-name="Ellipse 788" cx="39.21" cy="38.38" rx="39.21" ry="38.38" transform="translate(467.39 407.4)" fill="#dee8fc"/>
        <ellipse id="Ellipse_789" data-name="Ellipse 789" cx="28.72" cy="28.11" rx="28.72" ry="28.11" transform="translate(477.88 417.67)" fill="#ccdcfa"/>
        <path id="Path_20761" data-name="Path 20761" d="M504.32,358.03h4.56a2.68,2.68,0,0,1,2.68,2.68v50.4h-9.92v-50.4a2.68,2.68,0,0,1,2.68-2.68Z" fill="#dee8fc"/>
        <path id="Path_20762" data-name="Path 20762" d="M545.82,445.78c0-21.2-17.56-38.38-39.21-38.38v76.76C528.27,484.16,545.82,466.98,545.82,445.78Z" fill="#adc7f7"/>
        <path id="Path_20763" data-name="Path 20763" d="M535.33,445.78c0-15.53-12.86-28.11-28.72-28.11V473.9c15.86,0,28.72-12.59,28.72-28.11Z" fill="#b7cef8"/>
      </g>
      <g id="Group_1833" data-name="Group 1833">
        <ellipse id="Ellipse_790" data-name="Ellipse 790" cx="59.74" cy="58.47" rx="59.74" ry="58.47" transform="translate(576.97 432.22)" fill="#dee8fc"/>
        <ellipse id="Ellipse_791" data-name="Ellipse 791" cx="43.76" cy="42.83" rx="43.76" ry="42.83" transform="translate(592.95 447.86)" fill="#ccdcfa"/>
        <path id="Path_20764" data-name="Path 20764" d="M631.83,357.02h9.75a2.68,2.68,0,0,1,2.68,2.68v78.18H629.14V359.7a2.68,2.68,0,0,1,2.68-2.68Z" fill="#dee8fc"/>
        <path id="Path_20765" data-name="Path 20765" d="M696.45,490.69c0-32.29-26.75-58.47-59.74-58.47V549.17c32.99,0,59.74-26.18,59.74-58.47Z" fill="#adc7f7"/>
        <path id="Path_20766" data-name="Path 20766" d="M680.47,490.69c0-23.66-19.59-42.83-43.76-42.83v85.66C660.88,533.52,680.47,514.34,680.47,490.69Z" fill="#b7cef8"/>
      </g>
      <g id="Group_1834" data-name="Group 1834">
        <rect id="Rectangle_1005" data-name="Rectangle 1005" width="83.26" height="286.85" transform="translate(465.22 2.23)" fill="#dee8fc"/>
        <path id="Path_20767" data-name="Path 20767" d="M703.78,348.21H309.93l155.29-59.13h83.27Z" fill="#dee8fc"/>
        <rect id="Rectangle_1006" data-name="Rectangle 1006" width="393.85" height="17.62" transform="translate(309.93 348.21)" fill="#c3d6f9"/>
        <rect id="Rectangle_1007" data-name="Rectangle 1007" width="196.92" height="17.62" transform="translate(506.86 348.21)" fill="#b0c9f7"/>
        <path id="Path_20768" data-name="Path 20768" d="M506.86,348.21H703.78L548.49,289.08H506.86Z" fill="#d0dffa"/>
        <rect id="Rectangle_1008" data-name="Rectangle 1008" width="41.63" height="286.85" transform="translate(506.86 2.23)" fill="#d0dffa"/>
      </g>
      <g id="Group_1836" data-name="Group 1836">
        <rect id="Rectangle_1009" data-name="Rectangle 1009" width="928.62" height="168" transform="translate(315 611.79)" fill="#a6c2f6"/>
        <rect id="Rectangle_1010" data-name="Rectangle 1010" width="146.11" height="144.14" transform="translate(778.46 622.73) rotate(90)" fill="#ccdcfa"/>
        <rect id="Rectangle_1011" data-name="Rectangle 1011" width="146.11" height="144.14" transform="translate(926.17 622.74) rotate(90)" fill="#ccdcfa"/>
        <path id="Path_20769" data-name="Path 20769" d="M472.28,622.73H328.14V768.85H620.66V622.73Z" fill="#a6c2f6"/>
        <path id="Path_20770" data-name="Path 20770" d="M472.42,669.09H337.9v91.28H610.91V669.09Z" fill="#81a9f2"/>
        <rect id="Rectangle_1012" data-name="Rectangle 1012" width="123.72" height="121.26" transform="translate(767.02 633.93) rotate(90)" fill="#ecf2fd"/>
        <rect id="Rectangle_1013" data-name="Rectangle 1013" width="123.72" height="121.26" transform="translate(914.73 633.93) rotate(90)" fill="#ecf2fd"/>
        <rect id="Rectangle_1014" data-name="Rectangle 1014" width="938.75" height="8.21" rx="1.45" transform="translate(309.93 603.58)" fill="#81a9f2"/>
        <path id="Path_20771" data-name="Path 20771" d="M1083.03,622.73H938.9V768.85h291.85V622.73Z" fill="#81a9f2"/>
        <path id="Path_20772" data-name="Path 20772" d="M1083.03,622.73H938.9v39.64h291.85V622.73Z" fill="#ecf2fd"/>
        <path id="Path_20773" data-name="Path 20773" d="M1083.45,634.85h-3.58l-107.43,1.83v11.74l107.43,1.83h3.58l113.75-1.83V636.68Z" fill="#ccdcfa"/>
        <path id="Path_20774" data-name="Path 20774" d="M472.87,622.73H328.74v39.64H620.58V622.73Z" fill="#81a9f2"/>
        <rect id="Rectangle_1015" data-name="Rectangle 1015" width="3.93" height="26.01" transform="translate(751.84 640.36)" fill="#5c656a"/>
        <rect id="Rectangle_1016" data-name="Rectangle 1016" width="3.93" height="26.01" transform="translate(801.14 640.36)" fill="#5c656a"/>
        <g id="Group_1835" data-name="Group 1835">
          <path id="Path_20775" data-name="Path 20775" d="M379.06,760.37h21.31l119.99-91.28H499.04Z" fill="#ccdcfa"/>
          <path id="Path_20776" data-name="Path 20776" d="M549.12,669.09,429.14,760.37h54.72l119.98-91.28Z" fill="#ccdcfa"/>
        </g>
        <ellipse id="Ellipse_792" data-name="Ellipse 792" cx="12.39" cy="12.13" rx="12.39" ry="12.13" transform="translate(345.15 630.42)" fill="#ccdcfa"/>
        <ellipse id="Ellipse_793" data-name="Ellipse 793" cx="12.39" cy="12.13" rx="12.39" ry="12.13" transform="translate(389.9 630.42)" fill="#ccdcfa"/>
        <ellipse id="Ellipse_794" data-name="Ellipse 794" cx="12.39" cy="12.13" rx="12.39" ry="12.13" transform="translate(533.54 630.42)" fill="#ccdcfa"/>
        <ellipse id="Ellipse_795" data-name="Ellipse 795" cx="12.39" cy="12.13" rx="12.39" ry="12.13" transform="translate(578.29 630.42)" fill="#ccdcfa"/>
        <ellipse id="Ellipse_796" data-name="Ellipse 796" cx="12.39" cy="12.13" rx="12.39" ry="12.13" transform="translate(437.69 630.42)" fill="#ccdcfa"/>
        <ellipse id="Ellipse_797" data-name="Ellipse 797" cx="12.39" cy="12.13" rx="12.39" ry="12.13" transform="translate(482.43 630.42)" fill="#ccdcfa"/>
      </g>
      <g id="Group_1840" data-name="Group 1840">
        <rect id="Rectangle_1017" data-name="Rectangle 1017" width="109.35" height="3.99" transform="translate(802.9 484.17)" fill="#282c2f"/>
        <g id="Group_1837" data-name="Group 1837">
          <rect id="Rectangle_1018" data-name="Rectangle 1018" width="3.87" height="21.01" transform="translate(891.29 520.36)" fill="#a6c2f6"/>
          <rect id="Rectangle_1019" data-name="Rectangle 1019" width="5.53" height="38.9" transform="translate(890.46 481.46)" fill="#94b6f4"/>
          <rect id="Rectangle_1020" data-name="Rectangle 1020" width="24.17" height="34.86" transform="translate(889.74 541.37)" fill="#a6c2f6"/>
          <rect id="Rectangle_1021" data-name="Rectangle 1021" width="12.08" height="34.86" transform="translate(901.82 541.37)" fill="#94b6f4"/>
        </g>
        <g id="Group_1838" data-name="Group 1838">
          <rect id="Rectangle_1022" data-name="Rectangle 1022" width="3.87" height="21.01" transform="translate(817.43 520.88)" fill="#a6c2f6"/>
          <path id="Path_20777" data-name="Path 20777" d="M819.27,540.13c-6.73,0-12.19,7.6-12.19,16.97s5.46,16.97,12.19,16.97,12.19-7.6,12.19-16.97S826,540.13,819.27,540.13Zm-4.84,27.03h-2.46v-17.2h2.46Zm6.17,0h-2.46v-17.2h2.46Zm3.71,0v-17.2h2.46v17.2Z" fill="#a6c2f6"/>
          <rect id="Rectangle_1023" data-name="Rectangle 1023" width="5.53" height="38.9" transform="translate(816.62 481.98)" fill="#94b6f4"/>
          <path id="Path_20778" data-name="Path 20778" d="M819.27,540.13h0v9.83h1.33v17.2h-1.33v6.91h0c6.73,0,12.19-7.6,12.19-16.97s-5.46-16.97-12.19-16.97Zm7.5,27.03h-2.46v-17.2h2.46Z" fill="#94b6f4"/>
        </g>
        <g id="Group_1839" data-name="Group 1839">
          <path id="Path_20779" data-name="Path 20779" d="M850.73,561.99c0-8.22,2.41-14.11,5.38-14.11s5.38,5.9,5.38,14.11a71.038,71.038,0,0,1-1.51,13.69.467.467,0,0,0,.87.31c2.9-5.47,4.85-14.86,4.85-21.11,0-9.27-4.3-13.44-9.6-13.44s-9.6,4.17-9.6,13.44c0,6.25,1.95,15.64,4.85,21.11a.467.467,0,0,0,.87-.31,71.837,71.837,0,0,1-1.51-13.69Z" fill="#a6c2f6"/>
          <rect id="Rectangle_1024" data-name="Rectangle 1024" width="3.87" height="21.01" transform="translate(854.17 521.07)" fill="#a6c2f6"/>
          <rect id="Rectangle_1025" data-name="Rectangle 1025" width="5.53" height="38.9" transform="translate(853.34 482.17)" fill="#94b6f4"/>
          <path id="Path_20780" data-name="Path 20780" d="M861.49,561.99a71.038,71.038,0,0,1-1.51,13.69.467.467,0,0,0,.87.31c2.9-5.47,4.85-14.86,4.85-21.11,0-9.27-4.3-13.44-9.6-13.44v6.44c2.97,0,5.38,5.9,5.38,14.11Z" fill="#94b6f4"/>
        </g>
      </g>
      <g id="Group_1844" data-name="Group 1844">
        <rect id="Rectangle_1026" data-name="Rectangle 1026" width="109.35" height="3.99" transform="translate(927.39 484.63)" fill="#282c2f"/>
        <g id="Group_1841" data-name="Group 1841">
          <rect id="Rectangle_1027" data-name="Rectangle 1027" width="3.87" height="21.01" transform="translate(942.02 516.73)" fill="#a6c2f6"/>
          <ellipse id="Ellipse_798" data-name="Ellipse 798" cx="12.19" cy="16.97" rx="12.19" ry="16.97" transform="translate(931.67 535.97)" fill="#a6c2f6"/>
          <rect id="Rectangle_1028" data-name="Rectangle 1028" width="5.53" height="38.9" transform="translate(941.32 477.83)" fill="#94b6f4"/>
          <path id="Path_20781" data-name="Path 20781" d="M956.05,552.94c0-9.37-5.46-16.97-12.19-16.97V569.9c6.73,0,12.19-7.6,12.19-16.97Z" fill="#94b6f4"/>
        </g>
        <g id="Group_1842" data-name="Group 1842">
          <rect id="Rectangle_1029" data-name="Rectangle 1029" width="3.87" height="21.01" transform="translate(1015.65 527.06)" fill="#a6c2f6"/>
          <path id="Path_20782" data-name="Path 20782" d="M1017.59,546.27a14.933,14.933,0,1,0,15.25,14.93,15.091,15.091,0,0,0-15.25-14.93Zm-7.92,20.04a1.62,1.62,0,1,1,1.66-1.62A1.641,1.641,0,0,1,1009.67,566.31Zm2.94-9.41a1.62,1.62,0,1,1,1.66-1.62A1.641,1.641,0,0,1,1012.61,556.9Zm3.32,4.29a1.66,1.66,0,1,1,1.66,1.62A1.635,1.635,0,0,1,1015.93,561.19Zm2.92,10.34a1.62,1.62,0,1,1,1.66-1.62A1.641,1.641,0,0,1,1018.85,571.53Zm4.75-14.63a1.62,1.62,0,1,1,1.66-1.62A1.641,1.641,0,0,1,1023.6,556.9Zm2.94,8.13a1.62,1.62,0,1,1,1.66-1.62A1.641,1.641,0,0,1,1026.54,565.03Z" fill="#a6c2f6"/>
          <rect id="Rectangle_1030" data-name="Rectangle 1030" width="5.53" height="38.9" transform="translate(1014.95 488.16)" fill="#94b6f4"/>
          <path id="Path_20783" data-name="Path 20783" d="M1019.25,561.19a1.635,1.635,0,0,1-1.66,1.62v6.04a1.641,1.641,0,1,1,1.26,2.67,1.679,1.679,0,0,1-1.26-.57v5.16a14.933,14.933,0,1,0,0-29.86v13.3a1.641,1.641,0,0,1,1.66,1.62Zm7.28.59a1.62,1.62,0,1,1-1.66,1.62A1.641,1.641,0,0,1,1026.53,561.78Zm-2.94-8.13a1.62,1.62,0,1,1-1.66,1.62A1.641,1.641,0,0,1,1023.59,553.65Z" fill="#94b6f4"/>
        </g>
        <g id="Group_1843" data-name="Group 1843">
          <path id="Path_20784" data-name="Path 20784" d="M980.39,555.86h.66a15.3,15.3,0,0,1,15.29,15.29H965.09a15.3,15.3,0,0,1,15.29-15.29Z" transform="translate(1961.45 1127) rotate(180)" fill="#a6c2f6"/>
          <rect id="Rectangle_1031" data-name="Rectangle 1031" width="3.87" height="30.4" transform="translate(978.66 525.45)" fill="#a6c2f6"/>
          <rect id="Rectangle_1032" data-name="Rectangle 1032" width="5.53" height="38.9" transform="translate(977.96 486.55)" fill="#94b6f4"/>
          <path id="Path_20785" data-name="Path 20785" d="M980.6,571.14h.13a15.458,15.458,0,0,0,15.62-15.29H980.6Z" fill="#94b6f4"/>
        </g>
      </g>
      <g id="Group_1854" data-name="Group 1854">
        <rect id="Rectangle_1033" data-name="Rectangle 1033" width="214.1" height="506.96" transform="translate(90.51 272.27)" fill="#dee8fc"/>
        <rect id="Rectangle_1034" data-name="Rectangle 1034" width="80.34" height="506.96" transform="translate(-12.82 271.3)" fill="#dee8fc"/>
        <rect id="Rectangle_1035" data-name="Rectangle 1035" width="67.06" height="448.21" transform="translate(-12.82 301.86)" fill="#ccdcfa"/>
        <rect id="Rectangle_1036" data-name="Rectangle 1036" width="5.39" height="174.29" transform="translate(285.88 307.23) rotate(90)" fill="#ccdcfa"/>
        <rect id="Rectangle_1037" data-name="Rectangle 1037" width="5.39" height="174.29" transform="translate(285.88 290.43) rotate(90)" fill="#ccdcfa"/>
        <g id="Group_1847" data-name="Group 1847">
          <g id="Group_1846" data-name="Group 1846">
            <rect id="Rectangle_1038" data-name="Rectangle 1038" width="174.29" height="117.05" transform="translate(111.59 327.77)" fill="#c2d5f9"/>
            <rect id="Rectangle_1039" data-name="Rectangle 1039" width="101.81" height="158.72" transform="translate(278.09 335.4) rotate(90)" fill="#ccdcfa"/>
            <g id="Group_1845" data-name="Group 1845">
              <path id="Path_20786" data-name="Path 20786" d="M246.23,335.4,119.37,427.62v9.59h2.11L261.52,335.4Z" fill="#ecf2fd"/>
              <path id="Path_20787" data-name="Path 20787" d="M278.09,366.78V344.54L150.62,437.21h30.59Z" fill="#ecf2fd"/>
            </g>
          </g>
          <path id="Path_20788" data-name="Path 20788" d="M269.29,385.96v-.89l-1.01-26.8h-6.47l-1.01,26.8v.89l1.01,28.37h6.47Z" fill="#c0d4f9"/>
        </g>
        <g id="Group_1850" data-name="Group 1850">
          <g id="Group_1849" data-name="Group 1849">
            <rect id="Rectangle_1040" data-name="Rectangle 1040" width="174.29" height="117.05" transform="translate(111.59 463.51)" fill="#c2d5f9"/>
            <rect id="Rectangle_1041" data-name="Rectangle 1041" width="101.81" height="158.72" transform="translate(280.37 471.13) rotate(90)" fill="#ccdcfa"/>
            <g id="Group_1848" data-name="Group 1848">
              <path id="Path_20789" data-name="Path 20789" d="M246.23,471.13,119.37,563.35v9.59h2.11L261.52,471.13Z" fill="#ecf2fd"/>
              <path id="Path_20790" data-name="Path 20790" d="M278.09,502.51V480.27L150.62,572.94h30.59Z" fill="#ecf2fd"/>
            </g>
          </g>
          <path id="Path_20791" data-name="Path 20791" d="M269.29,521.69v-.89l-1.01-26.79h-6.47L260.8,520.8v.89l1.01,28.37h6.47Z" fill="#b3c0ca"/>
        </g>
        <g id="Group_1853" data-name="Group 1853">
          <g id="Group_1852" data-name="Group 1852">
            <rect id="Rectangle_1042" data-name="Rectangle 1042" width="174.29" height="117.05" transform="translate(111.59 599.91)" fill="#c2d5f9"/>
            <rect id="Rectangle_1043" data-name="Rectangle 1043" width="101.81" height="158.72" transform="translate(278.09 607.53) rotate(90)" fill="#ccdcfa"/>
            <g id="Group_1851" data-name="Group 1851">
              <path id="Path_20792" data-name="Path 20792" d="M246.23,607.53,119.37,699.75v9.59h2.11L261.52,607.53Z" fill="#ecf2fd"/>
              <path id="Path_20793" data-name="Path 20793" d="M278.09,638.91V616.67L150.62,709.34h30.59Z" fill="#ccdcfa"/>
            </g>
          </g>
          <path id="Path_20794" data-name="Path 20794" d="M269.29,658.09v-.89l-1.01-26.79h-6.47L260.8,657.2v.89l1.01,28.37h6.47Z" fill="#b3c0ca"/>
        </g>
      </g>
      <rect id="Rectangle_1044" data-name="Rectangle 1044" width="298.72" height="505.35" transform="translate(1256.68 274.44)" fill="#94b6f4"/>
      <rect id="Rectangle_1045" data-name="Rectangle 1045" width="298.72" height="442.04" transform="translate(1256.68 337.75)" fill="#a6c2f6"/>
      <rect id="Rectangle_1046" data-name="Rectangle 1046" width="9.44" height="442.04" transform="translate(1486.88 337.75)" fill="#81a9f2"/>
      <g id="Group_1855" data-name="Group 1855">
        <rect id="Rectangle_1047" data-name="Rectangle 1047" width="59.24" height="62.99" transform="translate(455.93 528.63)" fill="#ccdcfa"/>
        <rect id="Rectangle_1048" data-name="Rectangle 1048" width="29.62" height="62.99" transform="translate(485.55 528.63)" fill="#b4cbf7"/>
        <path id="Path_20795" data-name="Path 20795" d="M545.8,548.62l-30.63-.52v-6.14l30.63-.81a3.767,3.767,0,0,1,3.81,3.73h0a3.773,3.773,0,0,1-3.81,3.73Z" fill="#a6c2f6"/>
      </g>
      <g id="Group_1857" data-name="Group 1857">
        <path id="Path_20796" data-name="Path 20796" d="M173.5,573.25c4.51,18.14,18.05,32.12,34.92,35.63v7.36c-2.46.26-5.74.81-4.92.67,2.41,6.18,7.29,10.42,12.93,10.42s10.53-4.24,12.94-10.43a22.61,22.61,0,0,0-4.31-.7v-7.32c16.88-3.51,30.42-17.49,34.92-35.63,5-1.64,9.27-7.84,9.27-12.87,0-4.64-3.64-6.88-8.13-7.6-2.43-24.91-21.25-42.46-44.38-42.46s-41.21,18.45-44.38,42.46c-4.49.72-8.13,2.95-8.13,7.6,0,5.03,4.27,11.23,9.27,12.87Z" fill="#a76e4d"/>
        <path id="Path_20797" data-name="Path 20797" d="M261.13,552.78c-2.43-24.91-21.25-42.46-44.38-42.46v117c5.52-.15,10.27-4.34,12.63-10.42a22.61,22.61,0,0,0-4.31-.7v-7.32c16.88-3.51,30.42-17.49,34.92-35.63,5-1.64,9.27-7.84,9.27-12.87,0-4.64-3.64-6.88-8.13-7.6Z" fill="#965b39"/>
        <path id="Path_20798" data-name="Path 20798" d="M223.27,783.26l1.91,123.99a1.819,1.819,0,0,0,1.84,1.76h23.31a1.819,1.819,0,0,0,1.84-1.76l1.8-123.99Z" fill="#bbbcbe"/>
        <path id="Path_20799" data-name="Path 20799" d="M176.82,783.26l.99,124.23a1.56,1.56,0,0,0,1.58,1.53h26.35a1.568,1.568,0,0,0,1.58-1.5l.61-124.26h-31.1Z" fill="#dadbde"/>
        <path id="Path_20800" data-name="Path 20800" d="M249.63,909.01H228.11l.6,17.69a2.467,2.467,0,0,0,2.49,2.44h46.87c0-3.78-.43-7.25-3.66-9.81a25.267,25.267,0,0,0-7.2-3.53c-5.93-1.93-11.84-4.21-17.58-6.6v-.18h0Z" fill="#19181a"/>
        <path id="Path_20801" data-name="Path 20801" d="M164.67,929.13h35.25a2.461,2.461,0,0,0,2.49-2.44l.73-17.69H181.47c-1.61.64-3.03,1.27-3.89,1.62-4.84,1.76-9.7,3.4-14.56,5.09-3.12,1.08-6.22,2.59-8.26,5.13a10.7,10.7,0,0,0-2.24,8.27c4.05.07,8.11,0,12.16,0Z" fill="#282729"/>
        <path id="Path_20802" data-name="Path 20802" d="M159.93,757.37c-1.32-2.15-5.09-5.51-5.52-5.88a1.038,1.038,0,0,0-.17-.12c.02-.85.05-1.69.07-2.54l-14.29-.88c0,.61-.02,1.22-.02,1.84,0,1.51.02,3.01.04,4.52a8.306,8.306,0,0,0-2.11,5.52v8.24c0,5.19,4.93,9.1,10.12,8.4a8.674,8.674,0,0,0,7.63-8.4v-8.18a22.336,22.336,0,0,1,1.79,4.67,2.482,2.482,0,0,0,2.4,1.82,2.72,2.72,0,0,0,.63-.08,2.426,2.426,0,0,0,1.78-2.96,26.594,26.594,0,0,0-2.35-5.97Z" fill="#a76e4d"/>
        <path id="Path_20803" data-name="Path 20803" d="M207.33,609.39l-2.96,6.25a53.471,53.471,0,0,0-7.88,1.23c-7.99,2.11-15.04,3.99-21.93,8.72a51.293,51.293,0,0,0-17.99,20.99c-19.76,44.33-17.58,74.49-20.01,100.44a.733.733,0,0,0,.5.75l18.77,1.15a.735.735,0,0,0,.96-.59c3.07-23.94,9.3-70.38,17.55-90.93-3.56,21.55-6.99,124.28-7.03,125.86h49.44V616.6l-5.06-3.87-4.36-3.33Z" fill="#ebebed"/>
        <path id="Path_20804" data-name="Path 20804" d="M290.58,714.53a212.275,212.275,0,0,0-7.37-39.9,214.134,214.134,0,0,0-8.5-23.77c-2.86-6.76-6.11-13.06-11.44-18.32a44.98,44.98,0,0,0-5.33-4.5,41.748,41.748,0,0,0-5.06-3.13c-3.87-2.04-8.35-3.26-12.47-4.79a100.535,100.535,0,0,0-11.39-3.35h0l-3.43-7.38-8.84,7.2v16.19h0V783.25h46.53c-.01-1.41-3.78-77.75-5-116.34,6.66,23.06,11.68,60.67,14.35,81.41a.735.735,0,0,0,.96.59l18.77-1.15a.733.733,0,0,0,.5-.75c-1.01-10.81-1.28-21.67-2.28-32.49Z" fill="#dadbde"/>
        <path id="Path_20805" data-name="Path 20805" d="M289.41,749.78c0-.61-.02-1.22-.02-1.84l-14.29.88c.03.85.05,1.69.07,2.54a1.77,1.77,0,0,0-.17.12c-.43.37-4.2,3.73-5.52,5.88a26.74,26.74,0,0,0-2.35,5.97,2.421,2.421,0,0,0,1.78,2.96,2.72,2.72,0,0,0,.63.08,2.482,2.482,0,0,0,2.4-1.82,22.547,22.547,0,0,1,1.79-4.67v8.18a8.674,8.674,0,0,0,7.63,8.4c5.19.71,10.12-3.2,10.12-8.4v-8.24a8.306,8.306,0,0,0-2.11-5.52c.02-1.5.04-3.01.04-4.52Z" fill="#965b39"/>
        <ellipse id="Ellipse_799" data-name="Ellipse 799" cx="2.75" cy="2.69" rx="2.75" ry="2.69" transform="translate(207.84 647.43)" fill="#414042"/>
        <ellipse id="Ellipse_800" data-name="Ellipse 800" cx="2.75" cy="2.69" rx="2.75" ry="2.69" transform="translate(141.1 739.28)" fill="#414042"/>
        <ellipse id="Ellipse_801" data-name="Ellipse 801" cx="2.75" cy="2.69" rx="2.75" ry="2.69" transform="translate(220.16 647.43)" fill="#414042"/>
        <ellipse id="Ellipse_802" data-name="Ellipse 802" cx="2.75" cy="2.69" rx="2.75" ry="2.69" transform="translate(207.81 688.34)" fill="#414042"/>
        <ellipse id="Ellipse_803" data-name="Ellipse 803" cx="2.75" cy="2.69" rx="2.75" ry="2.69" transform="translate(220.13 688.34)" fill="#414042"/>
        <ellipse id="Ellipse_804" data-name="Ellipse 804" cx="2.75" cy="2.69" rx="2.75" ry="2.69" transform="translate(207.81 729.26)" fill="#414042"/>
        <ellipse id="Ellipse_805" data-name="Ellipse 805" cx="2.75" cy="2.69" rx="2.75" ry="2.69" transform="translate(220.13 729.26)" fill="#414042"/>
        <ellipse id="Ellipse_806" data-name="Ellipse 806" cx="2.75" cy="2.69" rx="2.75" ry="2.69" transform="translate(283.6 739.28)" fill="#414042"/>
        <path id="Path_20806" data-name="Path 20806" d="M230.97,636.8H218.2V625.89h-2.57v13.42H228.4a2.538,2.538,0,0,1,2.57,2.51V783.25h2.57V639.3h0a2.538,2.538,0,0,0-2.57-2.51h0Z" fill="#d42e28"/>
        <path id="Path_20807" data-name="Path 20807" d="M216.75,616.6V628l4.61-6.57,7.66-4.66-3.43-7.38Z" fill="#bbbcbe"/>
        <path id="Path_20808" data-name="Path 20808" d="M265.46,542.83a6.163,6.163,0,0,0-5.78-3.97c-.08,0-.16.02-.24.02a6.579,6.579,0,0,0-4.88-1.98,6.271,6.271,0,0,0-5.39,2.68,4.6,4.6,0,0,0-2.19-.57,4.494,4.494,0,0,0-1.97.46,6.737,6.737,0,0,0-5.6-2.6,7.047,7.047,0,0,0-5.22,2.08,8.141,8.141,0,0,0-5.09-1.68,7.936,7.936,0,0,0-5.44,2,4.643,4.643,0,0,0-4.26-2.74,4.592,4.592,0,0,0-4.2,2.63,6.131,6.131,0,0,0-9.23.43,5.386,5.386,0,0,0-5.18-3.82,5.676,5.676,0,0,0-1.8.32,8.2,8.2,0,0,0-14.81,1.37,10.106,10.106,0,0,0-5.71-1.69c-4.81,0-8.7,3.06-8.71,6.84-3.91.53-6.83,2.7-6.83,5.29a3.943,3.943,0,0,0,1.12,2.65c-2.18.68-3.72,2.31-3.72,4.22,0,2.52,2.68,4.56,6,4.56s6-2.04,6-4.56a3.634,3.634,0,0,0-.34-1.46c3.85-.09,7.04-1.73,8.04-3.95a8.806,8.806,0,0,0,6.23-3.67,8.239,8.239,0,0,0,11.51-.21,5.523,5.523,0,0,0,3.04.91,5.458,5.458,0,0,0,4.43-2.26,5.759,5.759,0,0,0,5.56,3.81,5.7,5.7,0,0,0,5.47-3.53,4.65,4.65,0,0,0,3.16,1.23,4.586,4.586,0,0,0,3.13-1.21c.98,2.04,3.54,3.51,6.57,3.51a7.543,7.543,0,0,0,6.12-2.76,7.529,7.529,0,0,0,4.19,1.22,7.739,7.739,0,0,0,3.57-.84,4.536,4.536,0,0,0,4,2.38,4.587,4.587,0,0,0,4.05-2.47,6.889,6.889,0,0,0,2.65.85,6.073,6.073,0,0,0,4.47,4.45,6.674,6.674,0,0,0,6.46,5.89,6.97,6.97,0,0,0,.87-13.81Z" fill="#282c2f"/>
        <path id="Path_20809" data-name="Path 20809" d="M216.75,628l-3.59-6.79-8.79-5.57,2.96-6.25,9.42,7.21Z" fill="#dadbde"/>
        <g id="Group_1856" data-name="Group 1856">
          <path id="Path_20810" data-name="Path 20810" d="M282.27,469.87a23.383,23.383,0,0,0-20.46-19.89,23.84,23.84,0,0,0-20.83,7.88,3.953,3.953,0,0,1-5.95-.02,23.9,23.9,0,0,0-35.76,0,3.96,3.96,0,0,1-5.95.02,23.8,23.8,0,0,0-20.82-7.88,23.383,23.383,0,0,0-20.46,19.89A23.057,23.057,0,0,0,167,494.47a2.133,2.133,0,0,1,1.37,2.01v46.3h97.56V498.16a4.64,4.64,0,0,1,2.7-4.24,23.008,23.008,0,0,0,13.62-24.05Z" fill="#ebebed"/>
          <path id="Path_20811" data-name="Path 20811" d="M261.81,449.98a23.84,23.84,0,0,0-20.83,7.88,3.953,3.953,0,0,1-5.93,0,23.719,23.719,0,0,0-18.56-8.04h-.01v92.96h49.47V498.16a4.64,4.64,0,0,1,2.7-4.24,23.008,23.008,0,0,0,13.62-24.05,23.383,23.383,0,0,0-20.46-19.89Z" fill="#dadbde"/>
          <rect id="Rectangle_1049" data-name="Rectangle 1049" width="97.56" height="12.61" transform="translate(168.38 530.17)" fill="#dadbde"/>
          <rect id="Rectangle_1050" data-name="Rectangle 1050" width="49.47" height="12.61" transform="translate(216.47 530.17)" fill="#bbbcbe"/>
        </g>
      </g>
      <g id="Group_1858" data-name="Group 1858">
        <path id="Path_20812" data-name="Path 20812" d="M1496.32,371.19V489.04l59.08-100.16V337.75h-39.36Z" fill="#ccdcfa"/>
        <path id="Path_20813" data-name="Path 20813" d="M1486.88,337.75h-5.24L1256.68,719.12v35.62l230.2-390.25Z" fill="#ccdcfa"/>
        <path id="Path_20814" data-name="Path 20814" d="M1486.88,413.27l-216.2,366.52h69.52l146.68-248.67Z" fill="#ccdcfa"/>
      </g>
      <rect id="Rectangle_1051" data-name="Rectangle 1051" width="9.24" height="192.58" transform="translate(1467.85 293.17) rotate(90)" fill="#81a9f2"/>
      <rect id="Rectangle_1052" data-name="Rectangle 1052" width="14.31" height="449.52" transform="translate(1216.54 369.82) rotate(90)" fill="#a6c2f6"/>
      <g id="Group_1864" data-name="Group 1864">
        <path id="Path_20815" data-name="Path 20815" d="M-12.97,567.6c0-33.53,23.37-51.78,52.3-51.78S91.8,534.07,91.8,567.6s-6.86,63.26-52.38,60.72a52.354,52.354,0,0,1-7.11-.91,36.235,36.235,0,0,1,1.85,11.61c0,13.14-6.48,23.79-14.48,23.79S5.2,652.16,5.2,639.02c0-8.61,2.79-16.12,6.96-20.3-15.05-10.64-25.11-29.17-25.11-51.11Z"/>
        <path id="Path_20816" data-name="Path 20816" d="M39.33,515.81c.44,0,.88.02,1.32.03V628.35c-.42-.02-.81-.02-1.23-.04a52.354,52.354,0,0,1-7.11-.91,36.235,36.235,0,0,1,1.85,11.61c0,13.14-6.48,23.79-14.48,23.79S5.2,652.15,5.2,639.01c0-8.61,2.79-16.12,6.96-20.3-15.05-10.64-25.11-29.17-25.11-51.11,0-33.53,23.37-51.78,52.3-51.78Z" fill="#5e4433"/>
        <path id="Path_20817" data-name="Path 20817" d="M87.88,582.73c-4.93,19.83-19.74,35.12-38.19,38.96v8.05c1.49.16,2.97.36,4.46.6-.94,5.32-.91,15.56-13.15,15.54-11.83-.02-12.58-9.87-13.35-15.59a18.865,18.865,0,0,1,3.83-.59v-8c-18.46-3.84-33.27-19.13-38.19-38.96-5.46-1.79-10.14-8.57-10.14-14.08,0-5.08,3.98-7.52,8.89-8.31,2.66-27.25,23.24-46.44,48.54-46.44s45.07,20.17,48.54,46.44c4.91.79,8.89,3.23,8.89,8.31,0,5.5-4.67,12.29-10.14,14.08Z" fill="#cc895a"/>
        <path id="Path_20818" data-name="Path 20818" d="M-7.95,560.35c2.66-27.25,23.24-46.44,48.54-46.44l.08,131.96c-5.32-.12-13.09-3.21-13.01-15.57a18.865,18.865,0,0,1,3.83-.59v-8C13.03,617.87-1.78,602.58-6.7,582.75c-5.46-1.79-10.14-8.57-10.14-14.08,0-5.08,3.98-7.52,8.89-8.31Z" fill="#cd9d7a"/>
        <path id="Path_20819" data-name="Path 20819" d="M28.5,630.19c2.05,7.7,6.89,14.27,12.36,14.27s10.63-5.92,12.51-14.22a30.743,30.743,0,0,1,3.88.46c.86.12,1.72.27,2.56.44.69.13,1.15.22,1.15.22l-.03.03c.11.03.23.05.34.08,4.86,1.28,10.35,1.73,14.56,4.33,9.62,5.95,14.67,10.69,20.65,20.82a45.923,45.923,0,0,0,29.61,21.33,19.155,19.155,0,0,0,8.97-.08,97.341,97.341,0,0,0,13.55-4.52,30.179,30.179,0,0,1,3.47-1.06l.68,15.02a19.906,19.906,0,0,0-2.63.79c-8.97,4.25-20.32,7.26-21.72,7.68v.03c-.06.01-.1.02-.12.02-18.43,3.6-31.46-3.55-44.87-24.16,1.34,7.48-3.13,46.43-3.13,46.43s-.38,5.46-.95,14.52L41,734.38V679.95L32.74,647.5l-10.8-15.58a51.826,51.826,0,0,1,6.55-1.76Z" fill="#ba1e18"/>
        <path id="Path_20820" data-name="Path 20820" d="M34.41,814.79,32.5,922.82a1.83,1.83,0,0,1-1.85,1.77H7.26a1.843,1.843,0,0,1-1.85-1.77L3.6,814.79H34.4Z" fill="#282729"/>
        <path id="Path_20821" data-name="Path 20821" d="M81.01,814.79l-.99,108.27a1.567,1.567,0,0,1-1.58,1.53H52a1.562,1.562,0,0,1-1.58-1.5l-.61-108.3H81.02Z" fill="#413f42"/>
        <g id="Group_1859" data-name="Group 1859">
          <path id="Path_20822" data-name="Path 20822" d="M3.59,710.82c.07.54.14,1.07.21,1.56C3.73,711.89,3.67,711.36,3.59,710.82Z" fill="#dbdcdf"/>
          <path id="Path_20823" data-name="Path 20823" d="M3.25,708.15c-.23-1.75-.47-3.65-.72-5.63C2.78,704.51,3.02,706.4,3.25,708.15Z" fill="#dbdcdf"/>
          <path id="Path_20824" data-name="Path 20824" d="M2.53,702.52c-.12-.98-.25-1.99-.37-3,.13,1.02.25,2.02.37,3Z" fill="#dbdcdf"/>
          <path id="Path_20825" data-name="Path 20825" d="M2.15,699.52c-.19-1.55-.38-3.14-.57-4.72C1.77,696.38,1.96,697.97,2.15,699.52Z" fill="#dbdcdf"/>
          <path id="Path_20826" data-name="Path 20826" d="M3.97,713.63c.11.79.2,1.5.28,2.1C4.17,715.13,4.07,714.42,3.97,713.63Z" fill="#dbdcdf"/>
          <path id="Path_20827" data-name="Path 20827" d="M41,734.4,6.75,735.97,41,734.4Z" fill="#dbdcdf"/>
          <path id="Path_20828" data-name="Path 20828" d="M4.36,716.56c.07.5.12.89.16,1.15C4.48,717.45,4.43,717.06,4.36,716.56Z" fill="#dbdcdf"/>
          <path id="Path_20829" data-name="Path 20829" d="M3.59,710.82c-.11-.84-.23-1.73-.35-2.66C3.36,709.09,3.48,709.98,3.59,710.82Z" fill="#dbdcdf"/>
          <path id="Path_20830" data-name="Path 20830" d="M.18,682.1c-.09-.92-.17-1.8-.24-2.63C.01,680.3.09,681.18.18,682.1Z" fill="#dbdcdf"/>
          <path id="Path_20831" data-name="Path 20831" d="M.74,687.44c-.12-1.08-.23-2.14-.34-3.17C.51,685.3.62,686.35.74,687.44Z" fill="#dbdcdf"/>
          <path id="Path_20832" data-name="Path 20832" d="M1.01,689.9c-.09-.83-.19-1.65-.27-2.46Q.875,688.655,1.01,689.9Z" fill="#dbdcdf"/>
          <path id="Path_20833" data-name="Path 20833" d="M1.58,694.8c-.2-1.64-.39-3.29-.57-4.9.18,1.61.37,3.26.57,4.9Z" fill="#dbdcdf"/>
          <path id="Path_20834" data-name="Path 20834" d="M.4,684.28c-.08-.75-.15-1.47-.22-2.18C.25,682.81.32,683.53.4,684.28Z" fill="#dbdcdf"/>
        </g>
        <path id="Path_20835" data-name="Path 20835" d="M-.43,672.51l.33-31.49c4.76-3.22,10.31-4.91,17.18-7.47.67-.25,2.83-.99,5.33-1.75a47.044,47.044,0,0,1,6.09-1.61h0c1.92,7.22,6.31,13.59,11.35,14.21a8.6,8.6,0,0,0,1.02.06h.14v89.95L6.76,735.98,4.58,718.13s-5.25-38.23-5-45.61Z" fill="#e23f39"/>
        <rect id="Rectangle_1053" data-name="Rectangle 1053" width="25.42" height="45.56" transform="translate(28.9 806.11) rotate(180)" fill="#b2b5bc"/>
        <rect id="Rectangle_1054" data-name="Rectangle 1054" width="25.42" height="45.56" transform="translate(80.69 806.11) rotate(180)"/>
        <path id="Path_20836" data-name="Path 20836" d="M53.77,938.37H69.62l.89-2.4a5.654,5.654,0,0,1,7.47-3.44l16.66,6.04h0a10.229,10.229,0,0,1,7.66,9.92v1.98H52.2V939.91a1.554,1.554,0,0,1,1.57-1.54Z" fill="#393d42"/>
        <path id="Path_20837" data-name="Path 20837" d="M70.52,935.98l-.89,2.4H54.66V924.59H74.72v7.65a5.849,5.849,0,0,0-4.2,3.74Z" fill="#b36327"/>
        <rect id="Rectangle_1055" data-name="Rectangle 1055" width="50.11" height="2.1" transform="translate(102.32 952.57) rotate(180)" fill="#d7d9de"/>
        <g id="Group_1860" data-name="Group 1860">
          <path id="Path_20838" data-name="Path 20838" d="M9.36,702.67V664.7a1.05,1.05,0,0,1,1.06-1.04H12.1L5.22,638.27a3.586,3.586,0,0,1,2.47-4.47l4.06-1.18a3.69,3.69,0,0,1,4.57,2.42l7.86,28.62H57.41l7.33-31.53a2.7,2.7,0,0,1,3.35-1.77l5.94,1.73a2.615,2.615,0,0,1,1.81,3.28l-6.35,28.3h2.5a1.05,1.05,0,0,1,1.06,1.04v37.97a48.332,48.332,0,0,0,2.43,15.12l6.82,20.72a35.5,35.5,0,0,1,1.79,11.15V810.3a6.24,6.24,0,0,1-6.3,6.17H4.63a6.234,6.234,0,0,1-6.3-6.17V749.67A35.547,35.547,0,0,1,.12,738.52L6.94,717.8a48.332,48.332,0,0,0,2.43-15.12Z" fill="#dadbde"/>
          <path id="Path_20839" data-name="Path 20839" d="M10.64,663.66H12.1L5.22,638.27a3.586,3.586,0,0,1,2.47-4.47l4.06-1.18a3.69,3.69,0,0,1,4.57,2.42l7.86,28.62H41V816.45H4.63a6.234,6.234,0,0,1-6.3-6.17V743.94L9.36,710.41v-45.5a1.264,1.264,0,0,1,1.28-1.25Z" fill="#ebebed"/>
          <path id="Path_20840" data-name="Path 20840" d="M41,705.75h0a13.149,13.149,0,0,0,13.29-13.01V674.07c-9.77,3.82-18.61,3.74-26.58,0v18.67A13.156,13.156,0,0,0,41,705.75Z" fill="#bbbcbe"/>
          <path id="Path_20841" data-name="Path 20841" d="M27.72,692.74V674.07a29.566,29.566,0,0,0,13.29,2.82v28.86a13.149,13.149,0,0,1-13.29-13.01Z" fill="#dadbde"/>
        </g>
        <path id="Path_20842" data-name="Path 20842" d="M-11.23,938.57h0l16.66-6.04a5.659,5.659,0,0,1,7.47,3.44l.89,2.4H29.64a1.554,1.554,0,0,1,1.57,1.54v10.56h-50.1v-1.98a10.231,10.231,0,0,1,7.66-9.92Z" fill="#393d42"/>
        <g id="Group_1861" data-name="Group 1861">
          <path id="Path_20843" data-name="Path 20843" d="M160.31,694.38a6.36,6.36,0,0,1,5.14-1.04,7.034,7.034,0,0,1,4.23-3.41c3.49-.95,7.43,1.33,9.41,5.45,2.65,5.5,1.08,11.96-3.2,13.99a6.356,6.356,0,0,1-1.82.55,7.1,7.1,0,0,0-3.84,1.83,6.4,6.4,0,0,1-1.62,1.09c-4.28,2.03-9.55-1.17-11.28-7.11-1.29-4.44-.04-9.19,2.99-11.34Z" fill="#e23f39"/>
          <ellipse id="Ellipse_807" data-name="Ellipse 807" cx="1.78" cy="1.54" rx="1.78" ry="1.54" transform="matrix(0.776, -0.631, 0.631, 0.776, 158.413, 703.346)" fill="#f7c7c6"/>
          <path id="Path_20844" data-name="Path 20844" d="M157,695.37c.65-.92,2.31-3.09,4.15-3.72a4.031,4.031,0,0,1,3.01-.1,19.458,19.458,0,0,0-1.07-1.83,10.145,10.145,0,0,0-1.06-1.33,2.938,2.938,0,0,0-.95-.7.246.246,0,0,1-.12-.33l.43-1.11h0a.51.51,0,0,1,.09-.14.328.328,0,0,1,.1,0,3.589,3.589,0,0,1,1.58,1.32,11.96,11.96,0,0,1,.97,1.64c.3.63.57,1.28.81,1.93a5.049,5.049,0,0,1,2.1-2.06c1.7-1.01,4.25-.8,5.29-.66a.368.368,0,0,1,.26.55,15.873,15.873,0,0,1-1.6,2.74,13.1,13.1,0,0,1,3.05,1.7.389.389,0,0,1,.01.62c-.85.69-2.99,2.25-4.92,2.29a2.346,2.346,0,0,1-.27-.01,15.188,15.188,0,0,1-.35,4.37.325.325,0,0,1-.52.23,13.113,13.113,0,0,1-2.92-2.96c-.11.14-.22.28-.35.42-1.38,1.49-3.88,2.08-4.92,2.27a.352.352,0,0,1-.39-.45,15.962,15.962,0,0,1,.96-3.38,12.409,12.409,0,0,1-3.2-.69.393.393,0,0,1-.17-.6Z" fill="#44bd5a"/>
        </g>
        <path id="Path_20845" data-name="Path 20845" d="M-11.23,938.57h0l16.66-6.04a5.659,5.659,0,0,1,7.47,3.44l.89,2.4H29.64a1.554,1.554,0,0,1,1.57,1.54v10.56h-50.1v-1.98a10.231,10.231,0,0,1,7.66-9.92Z" fill="#1d2124"/>
        <rect id="Rectangle_1056" data-name="Rectangle 1056" width="50.11" height="2.1" transform="translate(-18.89 950.47)" fill="#bec0c3"/>
        <path id="Path_20846" data-name="Path 20846" d="M13.79,938.37l-.89-2.4a5.82,5.82,0,0,0-4.16-3.73v-7.66H28.8v13.79Z" fill="#b36327"/>
        <path id="Path_20847" data-name="Path 20847" d="M13.79,938.37l-.89-2.4a5.82,5.82,0,0,0-4.16-3.73v-7.66H28.8v13.79Z" fill="#9a4605"/>
        <g id="Group_1862" data-name="Group 1862">
          <path id="Path_20848" data-name="Path 20848" d="M37.85,736.53l4.23,2.25,14.9-26.85-4.22-2.24Z" fill="#bbbcbe"/>
          <path id="Path_20849" data-name="Path 20849" d="M37.85,736.53l4.23,2.25L53.7,717.83l-4.22-2.25Z" fill="#413f42"/>
          <path id="Path_20850" data-name="Path 20850" d="M52.76,709.69l6.75,3.59a33.034,33.034,0,0,0,10.26-29.32l-2.11-1.12-14.9,26.85Z" fill="#bbbcbe"/>
          <path id="Path_20851" data-name="Path 20851" d="M59.06,713.04l.45.24a33.034,33.034,0,0,0,10.26-29.32l-.51-.27a40.784,40.784,0,0,1-10.2,29.35Z" fill="#f1f2f3"/>
        </g>
        <path id="Path_20852" data-name="Path 20852" d="M145.05,673.47l.25,1.2,4.58-1.75c.82-.26,1.76-.53,2.21-.62a11.882,11.882,0,0,1,5.82-3.21c2.1-.34,4.59-.66,6.73.06a12.855,12.855,0,0,1,9.05,11.39c.45,4.45-1.48,6.36-5.86,6.71-2.1.16-4.95-.2-7.16.15.13-.02.57.28.7.34.3.12.6.22.91.31.62.19,1.25.33,1.87.54,1.93.65,4.25,2.81,2.55,4.82a1.493,1.493,0,0,1-.8.55,1.821,1.821,0,0,1-.77-.06,21.573,21.573,0,0,1-6.37-2.24,34.562,34.562,0,0,1-5.69-4.14c-.17-.17-.16-.24-.23-.22s-.16.04-.24.07c-.62.19-1.19.29-1.78.48l-2.53,1.11.23,1.1-3.43.69-3.46-16.6,3.43-.69Z" fill="#3e89ff"/>
        <path id="Path_20853" data-name="Path 20853" d="M29.44,721.25l-3.53,13.4c-40.86-4.33-51.68-35.4-41.78-73.48,2.58-9.93,5.91-14.51,16.23-20.42.3,12.05.42,23.39-1.43,35.12-5.13,26.05,6.28,40.08,30.51,45.38Z" fill="#e23f39"/>
        <path id="Path_20854" data-name="Path 20854" d="M24.72,737.08l3.49.75,3.7-16.55-3.48-.75Z" fill="#3e89ff"/>
        <path id="Path_20855" data-name="Path 20855" d="M31.55,722.9c.92.18,1.84.34,2.79.5s1.88-.41,2.85-.48c.07,0,.08-.11.25-.32a55.562,55.562,0,0,1,5.18-5.51c1.5-1.43,3.75-1.65,5.13-1.86,1.92-.29,1.74.06,2.96.83.45.29.44.73.57,1.18a1.72,1.72,0,0,1-.25,1.39,4.23,4.23,0,0,1-2.67,1.51,23.64,23.64,0,0,0-3.06.95c2.33.61,4.98.24,7.25,1.06,4.57,1.65,7.76,4.7,7.05,9.74-.58,4.19-4.21,6.14-8.24,6.68-2.37.32-5.31-.28-7.61-.33s-3.7-.86-5.57-1.87a47.489,47.489,0,0,1-4.92,0c-1.6-.04-3.14-.13-4.66-.24l2.96-13.22Z" fill="#3e89ff"/>
        <path id="Path_20856" data-name="Path 20856" d="M-8.97,554.54h0l.28-2.79.83-.08,1.48-3.85s10.46-35.76,46.97-33.91,47.83,33.37,47.83,33.37l-.8,2.07,2.32,7.57.89,3.75s-5.95-2.3-6.87,14.58c-.1,1.79-.33,2.74-.67,3.08a.6.6,0,0,0-.08.08.469.469,0,0,1-.09.06c-.35.17-.82-.24-1.46-1.4-.05-.09-.1-.18-.15-.28-.03-.07-.07-.12-.1-.19-4.6-9.33-50.08-19.07-50.08-19.07-11.49-2.27-19.14-1.63-23.08-.9a4.872,4.872,0,0,0-3.86,3.54c-1.73,6.64-6.05,22.65-6.05,17.28,0-15.13-7.91-18-7.91-18l.61-4.9Z"/>
        <path id="Path_20857" data-name="Path 20857" d="M-8.97,554.54l.28-2.79.83-.08,1.48-3.85s10.46-35.76,46.97-33.91h.07v45.82c-5.52-1.38-9.33-2.2-9.33-2.2-11.49-2.27-19.14-1.63-23.08-.9a4.872,4.872,0,0,0-3.86,3.54c-1.73,6.64-6.05,22.65-6.05,17.28,0-15.13-7.91-18-7.91-18l.61-4.9h0Z" fill="#5e4433"/>
        <g id="Group_1863" data-name="Group 1863">
          <path id="Path_20858" data-name="Path 20858" d="M105.69,487.41a23.383,23.383,0,0,0-20.46-19.89A23.84,23.84,0,0,0,64.4,475.4a3.953,3.953,0,0,1-5.95-.02,23.9,23.9,0,0,0-35.76,0,3.96,3.96,0,0,1-5.95.02,23.8,23.8,0,0,0-20.82-7.88,23.383,23.383,0,0,0-20.46,19.89,23.057,23.057,0,0,0,14.96,24.6,2.133,2.133,0,0,1,1.37,2.01v46.3H89.37V515.7a4.64,4.64,0,0,1,2.7-4.24,23.008,23.008,0,0,0,13.62-24.05Z" fill="#ebebed"/>
          <path id="Path_20859" data-name="Path 20859" d="M85.23,467.52A23.84,23.84,0,0,0,64.4,475.4a3.953,3.953,0,0,1-5.93,0,23.719,23.719,0,0,0-18.56-8.04H39.9v92.96H89.37V515.7a4.64,4.64,0,0,1,2.7-4.24,23.008,23.008,0,0,0,13.62-24.05,23.383,23.383,0,0,0-20.46-19.89Z" fill="#dadbde"/>
          <rect id="Rectangle_1057" data-name="Rectangle 1057" width="97.56" height="12.61" transform="translate(-8.2 547.71)" fill="#dadbde"/>
          <rect id="Rectangle_1058" data-name="Rectangle 1058" width="49.47" height="12.61" transform="translate(39.9 547.71)" fill="#bbbcbe"/>
        </g>
      </g>
      <g id="Group_1868" data-name="Group 1868">
        <rect id="Rectangle_1059" data-name="Rectangle 1059" width="109.35" height="3.99" transform="translate(324.38 423.46)" fill="#94b6f4"/>
        <g id="Group_1865" data-name="Group 1865">
          <rect id="Rectangle_1060" data-name="Rectangle 1060" width="3.87" height="21.01" transform="translate(339.01 464.17)" fill="#a6c2f6"/>
          <ellipse id="Ellipse_808" data-name="Ellipse 808" cx="12.19" cy="16.97" rx="12.19" ry="16.97" transform="translate(328.66 483.41)" fill="#a6c2f6"/>
          <rect id="Rectangle_1061" data-name="Rectangle 1061" width="5.53" height="38.9" transform="translate(338.31 425.27)" fill="#94b6f4"/>
          <path id="Path_20860" data-name="Path 20860" d="M353.04,500.38c0-9.37-5.46-16.97-12.19-16.97v33.93c6.73,0,12.19-7.6,12.19-16.97Z" fill="#94b6f4"/>
        </g>
        <g id="Group_1866" data-name="Group 1866">
          <rect id="Rectangle_1062" data-name="Rectangle 1062" width="3.87" height="21.01" transform="translate(412.65 463.69)" fill="#a6c2f6"/>
          <path id="Path_20861" data-name="Path 20861" d="M414.58,482.89a14.933,14.933,0,1,0,15.25,14.93A15.091,15.091,0,0,0,414.58,482.89Zm-7.92,20.04a1.62,1.62,0,1,1,1.66-1.62A1.641,1.641,0,0,1,406.66,502.93Zm2.94-9.41a1.62,1.62,0,1,1,1.66-1.62A1.641,1.641,0,0,1,409.6,493.52Zm3.32,4.29a1.66,1.66,0,1,1,1.66,1.62A1.635,1.635,0,0,1,412.92,497.81Zm2.92,10.34a1.62,1.62,0,1,1,1.66-1.62A1.641,1.641,0,0,1,415.84,508.15Zm4.75-14.63a1.62,1.62,0,1,1,1.66-1.62A1.641,1.641,0,0,1,420.59,493.52Zm2.94,8.13a1.62,1.62,0,1,1,1.66-1.62A1.641,1.641,0,0,1,423.53,501.65Z" fill="#a6c2f6"/>
          <rect id="Rectangle_1063" data-name="Rectangle 1063" width="5.53" height="38.9" transform="translate(411.95 424.79)" fill="#94b6f4"/>
          <path id="Path_20862" data-name="Path 20862" d="M416.24,497.82a1.635,1.635,0,0,1-1.66,1.62v6.04a1.641,1.641,0,1,1,1.26,2.67,1.679,1.679,0,0,1-1.26-.57v5.16a14.933,14.933,0,1,0,0-29.86v13.3a1.641,1.641,0,0,1,1.66,1.62Zm7.28.59a1.62,1.62,0,1,1-1.66,1.62A1.641,1.641,0,0,1,423.52,498.41Zm-2.94-8.13a1.62,1.62,0,1,1-1.66,1.62A1.641,1.641,0,0,1,420.58,490.28Z" fill="#94b6f4"/>
        </g>
        <g id="Group_1867" data-name="Group 1867">
          <path id="Path_20863" data-name="Path 20863" d="M377.39,494.68h.66a15.3,15.3,0,0,1,15.29,15.29H362.09a15.3,15.3,0,0,1,15.29-15.29Z" transform="translate(755.44 1004.66) rotate(180)" fill="#a6c2f6"/>
          <rect id="Rectangle_1064" data-name="Rectangle 1064" width="3.87" height="30.4" transform="translate(375.66 464.28)" fill="#a6c2f6"/>
          <rect id="Rectangle_1065" data-name="Rectangle 1065" width="5.53" height="38.9" transform="translate(374.95 425.38)" fill="#94b6f4"/>
          <path id="Path_20864" data-name="Path 20864" d="M377.59,509.97h.13a15.458,15.458,0,0,0,15.62-15.29H377.59Z" fill="#94b6f4"/>
        </g>
      </g>
      <rect id="Rectangle_1066" data-name="Rectangle 1066" width="14.31" height="449.52" transform="translate(1216.54 474.74) rotate(90)" fill="#a6c2f6"/>
      <rect id="Rectangle_1067" data-name="Rectangle 1067" width="9.24" height="192.58" transform="translate(1467.86 315.46) rotate(90)" fill="#81a9f2"/>
      <rect id="Rectangle_1068" data-name="Rectangle 1068" width="9.24" height="38.56" transform="translate(1555.4 293.17) rotate(90)" fill="#81a9f2"/>
      <rect id="Rectangle_1069" data-name="Rectangle 1069" width="9.24" height="38.56" transform="translate(1555.4 315.46) rotate(90)" fill="#81a9f2"/>
      <path id="Path_20865" data-name="Path 20865" d="M1466.98,565.81v-3.17l-1.7-95.5h-10.9l-1.69,95.5v3.17l1.69,101.12h10.9Z" fill="#81a9f2"/>
      <path id="Path_20866" data-name="Path 20866" d="M1530.5,565.81v-3.17l-1.69-95.5h-10.9l-1.69,95.5v3.17l1.69,101.12h10.9Z" fill="#81a9f2"/>
      <g id="Group_1869" data-name="Group 1869">
        <rect id="Rectangle_1070" data-name="Rectangle 1070" width="291.85" height="6.76" transform="translate(328.74 596.82)" fill="#a6c2f6"/>
        <rect id="Rectangle_1071" data-name="Rectangle 1071" width="22.58" height="5.2" transform="translate(346.25 591.62)" fill="#81a9f2"/>
        <rect id="Rectangle_1072" data-name="Rectangle 1072" width="22.58" height="5.2" transform="translate(391 591.62)" fill="#81a9f2"/>
        <rect id="Rectangle_1073" data-name="Rectangle 1073" width="22.58" height="5.2" transform="translate(452.88 591.62)" fill="#81a9f2"/>
        <rect id="Rectangle_1074" data-name="Rectangle 1074" width="22.58" height="5.2" transform="translate(497.63 591.62)" fill="#81a9f2"/>
        <rect id="Rectangle_1075" data-name="Rectangle 1075" width="22.58" height="5.2" transform="translate(548.07 591.62)" fill="#81a9f2"/>
        <rect id="Rectangle_1076" data-name="Rectangle 1076" width="22.58" height="5.2" transform="translate(592.81 591.62)" fill="#81a9f2"/>
      </g>
      <g id="Group_1870" data-name="Group 1870">
        <path id="Path_20867" data-name="Path 20867" d="M810.16,429.61a.179.179,0,0,0-.08.34c.93.44,2.72,1.3,5.22,2.49a71.99,71.99,0,0,0,15.84,5.43h30.78a72.514,72.514,0,0,0,15.84-5.43c2.49-1.2,4.29-2.05,5.22-2.49a.179.179,0,0,0-.08-.34Z" fill="#a6c2f6"/>
        <path id="Path_20868" data-name="Path 20868" d="M810.16,432.1a.179.179,0,0,0-.08.34c.93.44,2.72,1.3,5.22,2.49a71.99,71.99,0,0,0,15.84,5.43h30.78a72.514,72.514,0,0,0,15.84-5.43c2.49-1.2,4.29-2.05,5.22-2.49a.179.179,0,0,0-.08-.34Z" fill="#fafbfe"/>
        <path id="Path_20869" data-name="Path 20869" d="M810.16,434.51a.179.179,0,0,0-.08.34c.93.44,2.72,1.3,5.22,2.49a71.99,71.99,0,0,0,15.84,5.43h30.78a72.514,72.514,0,0,0,15.84-5.43c2.49-1.2,4.29-2.05,5.22-2.49a.179.179,0,0,0-.08-.34Z" fill="#a6c2f6"/>
        <path id="Path_20870" data-name="Path 20870" d="M810.16,437a.179.179,0,0,0-.08.34c.93.44,2.72,1.3,5.22,2.49a71.99,71.99,0,0,0,15.84,5.43h30.78a72.514,72.514,0,0,0,15.84-5.43c2.49-1.2,4.29-2.05,5.22-2.49a.179.179,0,0,0-.08-.34Z" fill="#fafbfe"/>
        <path id="Path_20871" data-name="Path 20871" d="M810.16,439.4a.179.179,0,0,0-.08.34c.93.44,2.72,1.3,5.22,2.49a71.99,71.99,0,0,0,15.84,5.43h30.78a72.514,72.514,0,0,0,15.84-5.43c2.49-1.2,4.29-2.05,5.22-2.49a.179.179,0,0,0-.08-.34Z" fill="#a6c2f6"/>
        <path id="Path_20872" data-name="Path 20872" d="M810.16,441.89a.179.179,0,0,0-.08.34c.93.44,2.72,1.3,5.22,2.49a71.99,71.99,0,0,0,15.84,5.43h30.78a72.514,72.514,0,0,0,15.84-5.43c2.49-1.2,4.29-2.05,5.22-2.49a.179.179,0,0,0-.08-.34Z" fill="#fafbfe"/>
        <path id="Path_20873" data-name="Path 20873" d="M810.16,444.3a.179.179,0,0,0-.08.34c.93.44,2.72,1.3,5.22,2.49a71.99,71.99,0,0,0,15.84,5.43h30.78a72.514,72.514,0,0,0,15.84-5.43c2.49-1.2,4.29-2.05,5.22-2.49a.179.179,0,0,0-.08-.34Z" fill="#a6c2f6"/>
        <path id="Path_20874" data-name="Path 20874" d="M810.16,446.79a.179.179,0,0,0-.08.34c.93.44,2.72,1.3,5.22,2.49a71.99,71.99,0,0,0,15.84,5.43h30.78a72.514,72.514,0,0,0,15.84-5.43c2.49-1.2,4.29-2.05,5.22-2.49a.179.179,0,0,0-.08-.34Z" fill="#fafbfe"/>
        <path id="Path_20875" data-name="Path 20875" d="M809.14,449.29a.179.179,0,0,0-.08.34c.93.44,2.72,1.3,5.22,2.49a71.99,71.99,0,0,0,15.84,5.43H860.9a72.514,72.514,0,0,0,15.84-5.43c2.49-1.2,4.29-2.05,5.22-2.49a.179.179,0,0,0-.08-.34Z" fill="#a6c2f6"/>
        <path id="Path_20876" data-name="Path 20876" d="M809.14,451.78a.179.179,0,0,0-.08.34c.93.44,2.72,1.3,5.22,2.49a71.99,71.99,0,0,0,15.84,5.43H860.9a72.514,72.514,0,0,0,15.84-5.43c2.49-1.2,4.29-2.05,5.22-2.49a.179.179,0,0,0-.08-.34Z" fill="#fafbfe"/>
        <path id="Path_20877" data-name="Path 20877" d="M809.14,454.19a.179.179,0,0,0-.08.34c.93.44,2.72,1.3,5.22,2.49a71.99,71.99,0,0,0,15.84,5.43H860.9a72.514,72.514,0,0,0,15.84-5.43c2.49-1.2,4.29-2.05,5.22-2.49a.179.179,0,0,0-.08-.34Z" fill="#a6c2f6"/>
        <path id="Path_20878" data-name="Path 20878" d="M809.14,456.68a.179.179,0,0,0-.08.34c.93.44,2.72,1.3,5.22,2.49a71.99,71.99,0,0,0,15.84,5.43H860.9a72.514,72.514,0,0,0,15.84-5.43c2.49-1.2,4.29-2.05,5.22-2.49a.179.179,0,0,0-.08-.34Z" fill="#fafbfe"/>
        <path id="Path_20879" data-name="Path 20879" d="M809.14,459.08a.179.179,0,0,0-.08.34c.93.44,2.72,1.3,5.22,2.49a71.99,71.99,0,0,0,15.84,5.43H860.9a72.514,72.514,0,0,0,15.84-5.43c2.49-1.2,4.29-2.05,5.22-2.49a.179.179,0,0,0-.08-.34Z" fill="#a6c2f6"/>
        <path id="Path_20880" data-name="Path 20880" d="M809.14,461.57a.179.179,0,0,0-.08.34c.93.44,2.72,1.3,5.22,2.49a71.99,71.99,0,0,0,15.84,5.43H860.9a72.514,72.514,0,0,0,15.84-5.43c2.49-1.2,4.29-2.05,5.22-2.49a.179.179,0,0,0-.08-.34Z" fill="#fafbfe"/>
        <path id="Path_20881" data-name="Path 20881" d="M809.14,463.98a.179.179,0,0,0-.08.34c.93.44,2.72,1.3,5.22,2.49a71.99,71.99,0,0,0,15.84,5.43H860.9a72.514,72.514,0,0,0,15.84-5.43c2.49-1.2,4.29-2.05,5.22-2.49a.179.179,0,0,0-.08-.34Z" fill="#a6c2f6"/>
        <path id="Path_20882" data-name="Path 20882" d="M809.14,466.47a.179.179,0,0,0-.08.34c.93.44,2.72,1.3,5.22,2.49a71.99,71.99,0,0,0,15.84,5.43H860.9a72.514,72.514,0,0,0,15.84-5.43c2.49-1.2,4.29-2.05,5.22-2.49a.179.179,0,0,0-.08-.34Z" fill="#fafbfe"/>
      </g>
      <g id="Group_1871" data-name="Group 1871">
        <path id="Path_20883" data-name="Path 20883" d="M925.55,428.32a.179.179,0,0,0-.08.34c.93.44,2.72,1.3,5.22,2.49a71.99,71.99,0,0,0,15.84,5.43h30.78a72.514,72.514,0,0,0,15.84-5.43c2.49-1.2,4.29-2.05,5.22-2.49a.179.179,0,0,0-.08-.34Z" fill="#a6c2f6"/>
        <path id="Path_20884" data-name="Path 20884" d="M925.55,430.81a.179.179,0,0,0-.08.34c.93.44,2.72,1.3,5.22,2.49a71.99,71.99,0,0,0,15.84,5.43h30.78a72.514,72.514,0,0,0,15.84-5.43c2.49-1.2,4.29-2.05,5.22-2.49a.179.179,0,0,0-.08-.34Z" fill="#fafbfe"/>
        <path id="Path_20885" data-name="Path 20885" d="M925.55,433.22a.179.179,0,0,0-.08.34c.93.44,2.72,1.3,5.22,2.49a71.99,71.99,0,0,0,15.84,5.43h30.78a72.514,72.514,0,0,0,15.84-5.43c2.49-1.2,4.29-2.05,5.22-2.49a.179.179,0,0,0-.08-.34Z" fill="#a6c2f6"/>
        <path id="Path_20886" data-name="Path 20886" d="M925.55,435.71a.179.179,0,0,0-.08.34c.93.44,2.72,1.3,5.22,2.49a71.99,71.99,0,0,0,15.84,5.43h30.78a72.514,72.514,0,0,0,15.84-5.43c2.49-1.2,4.29-2.05,5.22-2.49a.179.179,0,0,0-.08-.34Z" fill="#fafbfe"/>
        <path id="Path_20887" data-name="Path 20887" d="M925.55,438.11a.179.179,0,0,0-.08.34c.93.44,2.72,1.3,5.22,2.49a71.99,71.99,0,0,0,15.84,5.43h30.78a72.514,72.514,0,0,0,15.84-5.43c2.49-1.2,4.29-2.05,5.22-2.49a.179.179,0,0,0-.08-.34Z" fill="#a6c2f6"/>
        <path id="Path_20888" data-name="Path 20888" d="M925.55,440.6a.179.179,0,0,0-.08.34c.93.44,2.72,1.3,5.22,2.49a71.99,71.99,0,0,0,15.84,5.43h30.78a72.514,72.514,0,0,0,15.84-5.43c2.49-1.2,4.29-2.05,5.22-2.49a.179.179,0,0,0-.08-.34Z" fill="#fafbfe"/>
        <path id="Path_20889" data-name="Path 20889" d="M925.55,443.01a.179.179,0,0,0-.08.34c.93.44,2.72,1.3,5.22,2.49a71.99,71.99,0,0,0,15.84,5.43h30.78a72.514,72.514,0,0,0,15.84-5.43c2.49-1.2,4.29-2.05,5.22-2.49a.179.179,0,0,0-.08-.34Z" fill="#a6c2f6"/>
        <path id="Path_20890" data-name="Path 20890" d="M925.55,445.5a.179.179,0,0,0-.08.34c.93.44,2.72,1.3,5.22,2.49a71.99,71.99,0,0,0,15.84,5.43h30.78a72.514,72.514,0,0,0,15.84-5.43c2.49-1.2,4.29-2.05,5.22-2.49a.179.179,0,0,0-.08-.34Z" fill="#fafbfe"/>
        <path id="Path_20891" data-name="Path 20891" d="M924.53,448.01a.179.179,0,0,0-.08.34c.93.44,2.72,1.3,5.22,2.49a71.99,71.99,0,0,0,15.84,5.43h30.78a72.514,72.514,0,0,0,15.84-5.43c2.49-1.2,4.29-2.05,5.22-2.49a.179.179,0,0,0-.08-.34Z" fill="#a6c2f6"/>
        <path id="Path_20892" data-name="Path 20892" d="M924.53,450.5a.179.179,0,0,0-.08.34c.93.44,2.72,1.3,5.22,2.49a71.99,71.99,0,0,0,15.84,5.43h30.78a72.514,72.514,0,0,0,15.84-5.43c2.49-1.2,4.29-2.05,5.22-2.49a.179.179,0,0,0-.08-.34Z" fill="#fafbfe"/>
        <path id="Path_20893" data-name="Path 20893" d="M924.53,452.91a.179.179,0,0,0-.08.34c.93.44,2.72,1.3,5.22,2.49a71.99,71.99,0,0,0,15.84,5.43h30.78a72.514,72.514,0,0,0,15.84-5.43c2.49-1.2,4.29-2.05,5.22-2.49a.179.179,0,0,0-.08-.34Z" fill="#a6c2f6"/>
        <path id="Path_20894" data-name="Path 20894" d="M924.53,455.4a.179.179,0,0,0-.08.34c.93.44,2.72,1.3,5.22,2.49a71.99,71.99,0,0,0,15.84,5.43h30.78a72.514,72.514,0,0,0,15.84-5.43c2.49-1.2,4.29-2.05,5.22-2.49a.179.179,0,0,0-.08-.34Z" fill="#fafbfe"/>
        <path id="Path_20895" data-name="Path 20895" d="M924.53,457.79a.179.179,0,0,0-.08.34c.93.44,2.72,1.3,5.22,2.49a71.99,71.99,0,0,0,15.84,5.43h30.78a72.514,72.514,0,0,0,15.84-5.43c2.49-1.2,4.29-2.05,5.22-2.49a.179.179,0,0,0-.08-.34Z" fill="#a6c2f6"/>
        <path id="Path_20896" data-name="Path 20896" d="M924.53,460.29a.179.179,0,0,0-.08.34c.93.44,2.72,1.3,5.22,2.49a71.99,71.99,0,0,0,15.84,5.43h30.78a72.514,72.514,0,0,0,15.84-5.43c2.49-1.2,4.29-2.05,5.22-2.49a.179.179,0,0,0-.08-.34Z" fill="#fafbfe"/>
        <path id="Path_20897" data-name="Path 20897" d="M924.53,462.69a.179.179,0,0,0-.08.34c.93.44,2.72,1.3,5.22,2.49a71.99,71.99,0,0,0,15.84,5.43h30.78a72.514,72.514,0,0,0,15.84-5.43c2.49-1.2,4.29-2.05,5.22-2.49a.179.179,0,0,0-.08-.34Z" fill="#a6c2f6"/>
        <path id="Path_20898" data-name="Path 20898" d="M924.53,465.19a.179.179,0,0,0-.08.34c.93.44,2.72,1.3,5.22,2.49a71.99,71.99,0,0,0,15.84,5.43h30.78a72.514,72.514,0,0,0,15.84-5.43c2.49-1.2,4.29-2.05,5.22-2.49a.179.179,0,0,0-.08-.34Z" fill="#fafbfe"/>
      </g>
      <g id="Group_1872" data-name="Group 1872">
        <path id="Path_20899" data-name="Path 20899" d="M1077.83,324.72a.179.179,0,0,0-.08.34c.93.44,2.72,1.3,5.22,2.49a71.992,71.992,0,0,0,15.84,5.43h30.78a72.513,72.513,0,0,0,15.84-5.43c2.49-1.2,4.29-2.05,5.22-2.49a.179.179,0,0,0-.08-.34Z" fill="#a6c2f6"/>
        <path id="Path_20900" data-name="Path 20900" d="M1077.83,327.21a.179.179,0,0,0-.08.34c.93.44,2.72,1.3,5.22,2.49a71.992,71.992,0,0,0,15.84,5.43h30.78a72.513,72.513,0,0,0,15.84-5.43c2.49-1.2,4.29-2.05,5.22-2.49a.179.179,0,0,0-.08-.34Z" fill="#fafbfe"/>
        <path id="Path_20901" data-name="Path 20901" d="M1077.83,329.62a.179.179,0,0,0-.08.34c.93.44,2.72,1.3,5.22,2.49a71.992,71.992,0,0,0,15.84,5.43h30.78a72.513,72.513,0,0,0,15.84-5.43c2.49-1.2,4.29-2.05,5.22-2.49a.179.179,0,0,0-.08-.34Z" fill="#a6c2f6"/>
        <path id="Path_20902" data-name="Path 20902" d="M1077.83,332.11a.179.179,0,0,0-.08.34c.93.44,2.72,1.3,5.22,2.49a71.992,71.992,0,0,0,15.84,5.43h30.78a72.513,72.513,0,0,0,15.84-5.43c2.49-1.2,4.29-2.05,5.22-2.49a.179.179,0,0,0-.08-.34Z" fill="#fafbfe"/>
        <path id="Path_20903" data-name="Path 20903" d="M1077.83,334.51a.179.179,0,0,0-.08.34c.93.44,2.72,1.3,5.22,2.49a71.992,71.992,0,0,0,15.84,5.43h30.78a72.513,72.513,0,0,0,15.84-5.43c2.49-1.2,4.29-2.05,5.22-2.49a.179.179,0,0,0-.08-.34Z" fill="#a6c2f6"/>
        <path id="Path_20904" data-name="Path 20904" d="M1077.83,337a.179.179,0,0,0-.08.34c.93.44,2.72,1.3,5.22,2.49a71.992,71.992,0,0,0,15.84,5.43h30.78a72.513,72.513,0,0,0,15.84-5.43c2.49-1.2,4.29-2.05,5.22-2.49a.179.179,0,0,0-.08-.34Z" fill="#fafbfe"/>
        <path id="Path_20905" data-name="Path 20905" d="M1077.83,339.41a.179.179,0,0,0-.08.34c.93.44,2.72,1.3,5.22,2.49a71.992,71.992,0,0,0,15.84,5.43h30.78a72.513,72.513,0,0,0,15.84-5.43c2.49-1.2,4.29-2.05,5.22-2.49a.179.179,0,0,0-.08-.34Z" fill="#a6c2f6"/>
        <path id="Path_20906" data-name="Path 20906" d="M1077.83,341.9a.179.179,0,0,0-.08.34c.93.44,2.72,1.3,5.22,2.49a71.992,71.992,0,0,0,15.84,5.43h30.78a72.513,72.513,0,0,0,15.84-5.43c2.49-1.2,4.29-2.05,5.22-2.49a.179.179,0,0,0-.08-.34Z" fill="#fafbfe"/>
        <path id="Path_20907" data-name="Path 20907" d="M1076.81,344.41a.179.179,0,0,0-.08.34c.93.44,2.72,1.3,5.22,2.49a71.992,71.992,0,0,0,15.84,5.43h30.78a72.513,72.513,0,0,0,15.84-5.43c2.49-1.2,4.29-2.05,5.22-2.49a.179.179,0,0,0-.08-.34Z" fill="#a6c2f6"/>
        <path id="Path_20908" data-name="Path 20908" d="M1076.81,346.9a.179.179,0,0,0-.08.34c.93.44,2.72,1.3,5.22,2.49a71.992,71.992,0,0,0,15.84,5.43h30.78a72.513,72.513,0,0,0,15.84-5.43c2.49-1.2,4.29-2.05,5.22-2.49a.179.179,0,0,0-.08-.34Z" fill="#fafbfe"/>
        <path id="Path_20909" data-name="Path 20909" d="M1076.81,349.31a.179.179,0,0,0-.08.34c.93.44,2.72,1.3,5.22,2.49a71.992,71.992,0,0,0,15.84,5.43h30.78a72.513,72.513,0,0,0,15.84-5.43c2.49-1.2,4.29-2.05,5.22-2.49a.179.179,0,0,0-.08-.34Z" fill="#a6c2f6"/>
        <path id="Path_20910" data-name="Path 20910" d="M1076.81,351.8a.179.179,0,0,0-.08.34c.93.44,2.72,1.3,5.22,2.49a71.992,71.992,0,0,0,15.84,5.43h30.78a72.513,72.513,0,0,0,15.84-5.43c2.49-1.2,4.29-2.05,5.22-2.49a.179.179,0,0,0-.08-.34Z" fill="#fafbfe"/>
        <path id="Path_20911" data-name="Path 20911" d="M1076.81,354.2a.179.179,0,0,0-.08.34c.93.44,2.72,1.3,5.22,2.49a71.992,71.992,0,0,0,15.84,5.43h30.78a72.513,72.513,0,0,0,15.84-5.43c2.49-1.2,4.29-2.05,5.22-2.49a.179.179,0,0,0-.08-.34Z" fill="#a6c2f6"/>
        <path id="Path_20912" data-name="Path 20912" d="M1076.81,356.69a.179.179,0,0,0-.08.34c.93.44,2.72,1.3,5.22,2.49a71.992,71.992,0,0,0,15.84,5.43h30.78a72.513,72.513,0,0,0,15.84-5.43c2.49-1.2,4.29-2.05,5.22-2.49a.179.179,0,0,0-.08-.34Z" fill="#fafbfe"/>
        <path id="Path_20913" data-name="Path 20913" d="M1076.81,359.1a.179.179,0,0,0-.08.34c.93.44,2.72,1.3,5.22,2.49a71.992,71.992,0,0,0,15.84,5.43h30.78a72.513,72.513,0,0,0,15.84-5.43c2.49-1.2,4.29-2.05,5.22-2.49a.179.179,0,0,0-.08-.34Z" fill="#a6c2f6"/>
        <path id="Path_20914" data-name="Path 20914" d="M1076.81,361.59a.179.179,0,0,0-.08.34c.93.44,2.72,1.3,5.22,2.49a71.992,71.992,0,0,0,15.84,5.43h30.78a72.513,72.513,0,0,0,15.84-5.43c2.49-1.2,4.29-2.05,5.22-2.49a.179.179,0,0,0-.08-.34Z" fill="#fafbfe"/>
      </g>
      <g id="Group_1873" data-name="Group 1873">
        <path id="Path_20915" data-name="Path 20915" d="M836.04,310.11a.179.179,0,0,0-.08.34c.93.44,2.72,1.3,5.22,2.49a71.99,71.99,0,0,0,15.84,5.43H887.8a72.514,72.514,0,0,0,15.84-5.43c2.49-1.2,4.29-2.05,5.22-2.49a.179.179,0,0,0-.08-.34Z" fill="#a6c2f6"/>
        <path id="Path_20916" data-name="Path 20916" d="M836.04,312.61a.179.179,0,0,0-.08.34c.93.44,2.72,1.3,5.22,2.49a71.99,71.99,0,0,0,15.84,5.43H887.8a72.514,72.514,0,0,0,15.84-5.43c2.49-1.2,4.29-2.05,5.22-2.49a.179.179,0,0,0-.08-.34Z" fill="#fafbfe"/>
        <path id="Path_20917" data-name="Path 20917" d="M836.04,315.01a.179.179,0,0,0-.08.34c.93.44,2.72,1.3,5.22,2.49a71.99,71.99,0,0,0,15.84,5.43H887.8a72.514,72.514,0,0,0,15.84-5.43c2.49-1.2,4.29-2.05,5.22-2.49a.179.179,0,0,0-.08-.34Z" fill="#a6c2f6"/>
        <path id="Path_20918" data-name="Path 20918" d="M836.04,317.51a.179.179,0,0,0-.08.34c.93.44,2.72,1.3,5.22,2.49a71.99,71.99,0,0,0,15.84,5.43H887.8a72.514,72.514,0,0,0,15.84-5.43c2.49-1.2,4.29-2.05,5.22-2.49a.179.179,0,0,0-.08-.34Z" fill="#fafbfe"/>
        <path id="Path_20919" data-name="Path 20919" d="M836.04,319.9a.179.179,0,0,0-.08.34c.93.44,2.72,1.3,5.22,2.49a71.99,71.99,0,0,0,15.84,5.43H887.8a72.514,72.514,0,0,0,15.84-5.43c2.49-1.2,4.29-2.05,5.22-2.49a.179.179,0,0,0-.08-.34Z" fill="#a6c2f6"/>
        <path id="Path_20920" data-name="Path 20920" d="M836.04,322.4a.179.179,0,0,0-.08.34c.93.44,2.72,1.3,5.22,2.49a71.99,71.99,0,0,0,15.84,5.43H887.8a72.514,72.514,0,0,0,15.84-5.43c2.49-1.2,4.29-2.05,5.22-2.49a.179.179,0,0,0-.08-.34Z" fill="#fafbfe"/>
        <path id="Path_20921" data-name="Path 20921" d="M836.04,324.8a.179.179,0,0,0-.08.34c.93.44,2.72,1.3,5.22,2.49a71.99,71.99,0,0,0,15.84,5.43H887.8a72.514,72.514,0,0,0,15.84-5.43c2.49-1.2,4.29-2.05,5.22-2.49a.179.179,0,0,0-.08-.34Z" fill="#b9cff8"/>
        <path id="Path_20922" data-name="Path 20922" d="M836.04,327.3a.179.179,0,0,0-.08.34c.93.44,2.72,1.3,5.22,2.49a71.99,71.99,0,0,0,15.84,5.43H887.8a72.514,72.514,0,0,0,15.84-5.43c2.49-1.2,4.29-2.05,5.22-2.49a.179.179,0,0,0-.08-.34Z" fill="#fafbfe"/>
      </g>
      <g id="Group_1874" data-name="Group 1874">
        <path id="Path_20923" data-name="Path 20923" d="M835.02,329.8a.179.179,0,0,0-.08.34c.93.44,2.72,1.3,5.22,2.49A71.99,71.99,0,0,0,856,338.06h30.78a72.514,72.514,0,0,0,15.84-5.43c2.49-1.2,4.29-2.05,5.22-2.49a.179.179,0,0,0-.08-.34Z" fill="#b9cff8"/>
        <path id="Path_20924" data-name="Path 20924" d="M835.02,332.29a.179.179,0,0,0-.08.34c.93.44,2.72,1.3,5.22,2.49A71.99,71.99,0,0,0,856,340.55h30.78a72.514,72.514,0,0,0,15.84-5.43c2.49-1.2,4.29-2.05,5.22-2.49a.179.179,0,0,0-.08-.34Z" fill="#fafbfe"/>
        <path id="Path_20925" data-name="Path 20925" d="M835.02,334.7a.179.179,0,0,0-.08.34c.93.44,2.72,1.3,5.22,2.49A71.99,71.99,0,0,0,856,342.96h30.78a72.514,72.514,0,0,0,15.84-5.43c2.49-1.2,4.29-2.05,5.22-2.49a.179.179,0,0,0-.08-.34Z" fill="#b9cff8"/>
        <path id="Path_20926" data-name="Path 20926" d="M835.02,337.19a.179.179,0,0,0-.08.34c.93.44,2.72,1.3,5.22,2.49A71.99,71.99,0,0,0,856,345.45h30.78a72.514,72.514,0,0,0,15.84-5.43c2.49-1.2,4.29-2.05,5.22-2.49a.179.179,0,0,0-.08-.34Z" fill="#fafbfe"/>
        <path id="Path_20927" data-name="Path 20927" d="M835.02,339.59a.179.179,0,0,0-.08.34c.93.44,2.72,1.3,5.22,2.49A71.99,71.99,0,0,0,856,347.85h30.78a72.514,72.514,0,0,0,15.84-5.43c2.49-1.2,4.29-2.05,5.22-2.49a.179.179,0,0,0-.08-.34Z" fill="#b9cff8"/>
        <path id="Path_20928" data-name="Path 20928" d="M835.02,342.08a.179.179,0,0,0-.08.34c.93.44,2.72,1.3,5.22,2.49A71.99,71.99,0,0,0,856,350.34h30.78a72.514,72.514,0,0,0,15.84-5.43c2.49-1.2,4.29-2.05,5.22-2.49a.179.179,0,0,0-.08-.34Z" fill="#fafbfe"/>
        <path id="Path_20929" data-name="Path 20929" d="M835.02,344.49a.179.179,0,0,0-.08.34c.93.44,2.72,1.3,5.22,2.49A71.99,71.99,0,0,0,856,352.75h30.78a72.514,72.514,0,0,0,15.84-5.43c2.49-1.2,4.29-2.05,5.22-2.49a.179.179,0,0,0-.08-.34Z" fill="#b9cff8"/>
        <path id="Path_20930" data-name="Path 20930" d="M835.02,346.98a.179.179,0,0,0-.08.34c.93.44,2.72,1.3,5.22,2.49A71.99,71.99,0,0,0,856,355.24h30.78a72.514,72.514,0,0,0,15.84-5.43c2.49-1.2,4.29-2.05,5.22-2.49a.179.179,0,0,0-.08-.34Z" fill="#fafbfe"/>
      </g>
      <path id="Path_20931" data-name="Path 20931" d="M836.04,324.73a.179.179,0,0,0-.08.34c.93.44,2.72,1.3,5.22,2.49a71.99,71.99,0,0,0,15.84,5.43H887.8a72.514,72.514,0,0,0,15.84-5.43c2.49-1.2,4.29-2.05,5.22-2.49a.179.179,0,0,0-.08-.34Z" fill="#a6c2f6"/>
      <path id="Path_20932" data-name="Path 20932" d="M836.04,327.23a.179.179,0,0,0-.08.34c.93.44,2.72,1.3,5.22,2.49a71.99,71.99,0,0,0,15.84,5.43H887.8a72.514,72.514,0,0,0,15.84-5.43c2.49-1.2,4.29-2.05,5.22-2.49a.179.179,0,0,0-.08-.34Z" fill="#fafbfe"/>
      <path id="Path_20933" data-name="Path 20933" d="M836.04,329.63a.179.179,0,0,0-.08.34c.93.44,2.72,1.3,5.22,2.49a71.99,71.99,0,0,0,15.84,5.43H887.8a72.514,72.514,0,0,0,15.84-5.43c2.49-1.2,4.29-2.05,5.22-2.49a.179.179,0,0,0-.08-.34Z" fill="#a6c2f6"/>
      <path id="Path_20934" data-name="Path 20934" d="M836.04,332.13a.179.179,0,0,0-.08.34c.93.44,2.72,1.3,5.22,2.49a71.99,71.99,0,0,0,15.84,5.43H887.8a72.514,72.514,0,0,0,15.84-5.43c2.49-1.2,4.29-2.05,5.22-2.49a.179.179,0,0,0-.08-.34Z" fill="#fafbfe"/>
      <path id="Path_20935" data-name="Path 20935" d="M836.04,334.52a.179.179,0,0,0-.08.34c.93.44,2.72,1.3,5.22,2.49a71.99,71.99,0,0,0,15.84,5.43H887.8a72.514,72.514,0,0,0,15.84-5.43c2.49-1.2,4.29-2.05,5.22-2.49a.179.179,0,0,0-.08-.34Z" fill="#a6c2f6"/>
      <path id="Path_20936" data-name="Path 20936" d="M836.04,337.01a.179.179,0,0,0-.08.34c.93.44,2.72,1.3,5.22,2.49a71.99,71.99,0,0,0,15.84,5.43H887.8a72.514,72.514,0,0,0,15.84-5.43c2.49-1.2,4.29-2.05,5.22-2.49a.179.179,0,0,0-.08-.34Z" fill="#fafbfe"/>
      <path id="Path_20937" data-name="Path 20937" d="M836.04,339.42a.179.179,0,0,0-.08.34c.93.44,2.72,1.3,5.22,2.49a71.99,71.99,0,0,0,15.84,5.43H887.8a72.514,72.514,0,0,0,15.84-5.43c2.49-1.2,4.29-2.05,5.22-2.49a.179.179,0,0,0-.08-.34Z" fill="#a6c2f6"/>
      <path id="Path_20938" data-name="Path 20938" d="M836.04,341.91a.179.179,0,0,0-.08.34c.93.44,2.72,1.3,5.22,2.49a71.99,71.99,0,0,0,15.84,5.43H887.8a72.514,72.514,0,0,0,15.84-5.43c2.49-1.2,4.29-2.05,5.22-2.49a.179.179,0,0,0-.08-.34Z" fill="#fafbfe"/>
      <path id="Path_20939" data-name="Path 20939" d="M835.02,344.42a.179.179,0,0,0-.08.34c.93.44,2.72,1.3,5.22,2.49A71.99,71.99,0,0,0,856,352.68h30.78a72.514,72.514,0,0,0,15.84-5.43c2.49-1.2,4.29-2.05,5.22-2.49a.179.179,0,0,0-.08-.34Z" fill="#a6c2f6"/>
      <path id="Path_20940" data-name="Path 20940" d="M835.02,346.91a.179.179,0,0,0-.08.34c.93.44,2.72,1.3,5.22,2.49A71.99,71.99,0,0,0,856,355.17h30.78a72.514,72.514,0,0,0,15.84-5.43c2.49-1.2,4.29-2.05,5.22-2.49a.179.179,0,0,0-.08-.34Z" fill="#fafbfe"/>
      <path id="Path_20941" data-name="Path 20941" d="M835.02,349.32a.179.179,0,0,0-.08.34c.93.44,2.72,1.3,5.22,2.49A71.99,71.99,0,0,0,856,357.58h30.78a72.514,72.514,0,0,0,15.84-5.43c2.49-1.2,4.29-2.05,5.22-2.49a.179.179,0,0,0-.08-.34Z" fill="#a6c2f6"/>
      <path id="Path_20942" data-name="Path 20942" d="M835.02,351.81a.179.179,0,0,0-.08.34c.93.44,2.72,1.3,5.22,2.49A71.99,71.99,0,0,0,856,360.07h30.78a72.514,72.514,0,0,0,15.84-5.43c2.49-1.2,4.29-2.05,5.22-2.49a.179.179,0,0,0-.08-.34Z" fill="#fafbfe"/>
      <path id="Path_20943" data-name="Path 20943" d="M835.02,354.21a.179.179,0,0,0-.08.34c.93.44,2.72,1.3,5.22,2.49A71.99,71.99,0,0,0,856,362.47h30.78a72.514,72.514,0,0,0,15.84-5.43c2.49-1.2,4.29-2.05,5.22-2.49a.179.179,0,0,0-.08-.34Z" fill="#a6c2f6"/>
      <path id="Path_20944" data-name="Path 20944" d="M835.02,356.7a.179.179,0,0,0-.08.34c.93.44,2.72,1.3,5.22,2.49A71.99,71.99,0,0,0,856,364.96h30.78a72.514,72.514,0,0,0,15.84-5.43c2.49-1.2,4.29-2.05,5.22-2.49a.179.179,0,0,0-.08-.34Z" fill="#fafbfe"/>
      <path id="Path_20945" data-name="Path 20945" d="M835.02,359.11a.179.179,0,0,0-.08.34c.93.44,2.72,1.3,5.22,2.49A71.99,71.99,0,0,0,856,367.37h30.78a72.514,72.514,0,0,0,15.84-5.43c2.49-1.2,4.29-2.05,5.22-2.49a.179.179,0,0,0-.08-.34Z" fill="#a6c2f6"/>
      <path id="Path_20946" data-name="Path 20946" d="M835.02,361.6a.179.179,0,0,0-.08.34c.93.44,2.72,1.3,5.22,2.49A71.99,71.99,0,0,0,856,369.86h30.78a72.514,72.514,0,0,0,15.84-5.43c2.49-1.2,4.29-2.05,5.22-2.49a.179.179,0,0,0-.08-.34Z" fill="#fafbfe"/>
      <g id="Group_1875" data-name="Group 1875">
        <path id="Path_20947" data-name="Path 20947" d="M1027.97,447.8a17.117,17.117,0,0,0,5.9,13.28l22.42.59a17.134,17.134,0,0,0,6.62-12.95l-34.94-.91Z" fill="#a6c2f6"/>
        <path id="Path_20948" data-name="Path 20948" d="M1026.9,448.98a17.95,17.95,0,0,0,5.94,14.1l23.61,1.07a18.046,18.046,0,0,0,7.24-13.51l-36.79-1.66Z" fill="#fafbfe"/>
        <path id="Path_20949" data-name="Path 20949" d="M1025.34,451.55a19.227,19.227,0,0,0,6.65,14.96l25.27.66a19.325,19.325,0,0,0,7.46-14.59Z" fill="#a6c2f6"/>
        <path id="Path_20950" data-name="Path 20950" d="M1024.13,452.88a20.305,20.305,0,0,0,6.69,15.9l26.61,1.2a20.379,20.379,0,0,0,8.16-15.23Z" fill="#fafbfe"/>
        <path id="Path_20951" data-name="Path 20951" d="M1023.81,457.16a20.858,20.858,0,0,0,8.07,15.73l27.26-.76a20.815,20.815,0,0,0,7.15-16.16l-42.48,1.18Z" fill="#a6c2f6"/>
        <path id="Path_20952" data-name="Path 20952" d="M1023.72,458.55a21.11,21.11,0,0,0,7.73,16.19h27.68a21.127,21.127,0,0,0,7.73-16.19h-43.13Z" fill="#fafbfe"/>
      </g>
      <g id="Group_1876" data-name="Group 1876">
        <path id="Path_20953" data-name="Path 20953" d="M1172.12,430.84a27.845,27.845,0,0,1-9.62,21.64l-36.55.96a27.92,27.92,0,0,1-10.78-21.11l56.95-1.49Z" fill="#a6c2f6"/>
        <path id="Path_20954" data-name="Path 20954" d="M1173.87,432.76a29.34,29.34,0,0,1-9.68,22.99l-38.48,1.74a29.445,29.445,0,0,1-11.8-22.02l59.96-2.71Z" fill="#fafbfe"/>
        <path id="Path_20955" data-name="Path 20955" d="M1176.4,436.94a31.408,31.408,0,0,1-10.84,24.39l-41.19,1.08a31.462,31.462,0,0,1-12.15-23.79l64.18-1.68Z" fill="#a6c2f6"/>
        <path id="Path_20956" data-name="Path 20956" d="M1178.37,439.11a33.071,33.071,0,0,1-10.91,25.91l-43.37,1.96a33.194,33.194,0,0,1-13.3-24.82l67.58-3.05Z" fill="#fafbfe"/>
        <path id="Path_20957" data-name="Path 20957" d="M1178.91,446.09a33.967,33.967,0,0,1-13.16,25.64l-44.44-1.24a33.882,33.882,0,0,1-11.65-26.33l69.24,1.93Z" fill="#a6c2f6"/>
        <path id="Path_20958" data-name="Path 20958" d="M1179.05,448.35a34.417,34.417,0,0,1-12.59,26.38h-45.11a34.384,34.384,0,0,1-12.59-26.38h70.3Z" fill="#fafbfe"/>
      </g>
      <g id="Group_1877" data-name="Group 1877">
        <path id="Path_20959" data-name="Path 20959" d="M962.77,325.92a27.845,27.845,0,0,0,9.62,21.64l36.55.96a27.92,27.92,0,0,0,10.78-21.11l-56.95-1.49Z" fill="#a6c2f6"/>
        <path id="Path_20960" data-name="Path 20960" d="M961.02,327.84a29.34,29.34,0,0,0,9.68,22.99l38.48,1.74a29.445,29.445,0,0,0,11.8-22.02l-59.96-2.71Z" fill="#fafbfe"/>
        <path id="Path_20961" data-name="Path 20961" d="M958.49,332.02a31.407,31.407,0,0,0,10.84,24.39l41.19,1.08a31.461,31.461,0,0,0,12.15-23.79l-64.18-1.68Z" fill="#a6c2f6"/>
        <path id="Path_20962" data-name="Path 20962" d="M956.52,334.19a33.072,33.072,0,0,0,10.91,25.91l43.37,1.96a33.194,33.194,0,0,0,13.3-24.82l-67.58-3.05Z" fill="#fafbfe"/>
        <path id="Path_20963" data-name="Path 20963" d="M955.99,341.17a33.968,33.968,0,0,0,13.16,25.64l44.44-1.24a33.882,33.882,0,0,0,11.65-26.33L956,341.17Z" fill="#a6c2f6"/>
        <path id="Path_20964" data-name="Path 20964" d="M955.84,343.44a34.417,34.417,0,0,0,12.59,26.38h45.11a34.384,34.384,0,0,0,12.59-26.38h-70.3Z" fill="#fafbfe"/>
      </g>
      <g id="Group_1878" data-name="Group 1878">
        <path id="Path_20965" data-name="Path 20965" d="M680.52,603.58h-23a.21.21,0,0,1-.22-.18l-1.28-26.41h25.99l-1.28,26.41a.2.2,0,0,1-.22.18Z" fill="#a6c2f6"/>
        <path id="Path_20966" data-name="Path 20966" d="M678.77,602.11h-19.5c-.1,0-.18-.04-.18-.08l-1.08-12.25h22.04l-1.08,12.25a.328.328,0,0,1-.18.08Z" fill="#ccdcfa"/>
        <rect id="Rectangle_1077" data-name="Rectangle 1077" width="27.72" height="3.11" transform="translate(655.16 573.89)" fill="#81a9f2"/>
      </g>
      <g id="Group_1879" data-name="Group 1879">
        <path id="Path_20967" data-name="Path 20967" d="M716.81,603.58H691.17a.169.169,0,0,1-.17-.17V572.6h25.99v30.81a.175.175,0,0,1-.17.17Z" fill="#a6c2f6"/>
        <path id="Path_20968" data-name="Path 20968" d="M715.7,602.24H692.28c-.09,0-.16-.04-.16-.09V584.96h23.74v17.19c0,.05-.07.09-.16.09Z" fill="#ccdcfa"/>
        <rect id="Rectangle_1078" data-name="Rectangle 1078" width="28.29" height="5.84" transform="translate(689.84 566.76)" fill="#81a9f2"/>
      </g>
      <g id="Group_1880" data-name="Group 1880">
        <path id="Path_20969" data-name="Path 20969" d="M747.93,603.62H736.86s-.08-.03-.08-.07V578.62H748v24.93s-.03.07-.08.07Z" fill="#a6c2f6"/>
        <rect id="Rectangle_1079" data-name="Rectangle 1079" width="12.45" height="2.52" transform="translate(736.17 576.09)" fill="#81a9f2"/>
      </g>
      <g id="Group_1881" data-name="Group 1881">
        <path id="Path_20970" data-name="Path 20970" d="M772.49,603.58H761.42s-.08-.03-.08-.07V587.48h11.22v16.03s-.03.07-.08.07Z" fill="#a6c2f6"/>
        <rect id="Rectangle_1080" data-name="Rectangle 1080" width="12.45" height="2.52" transform="translate(760.73 584.96)" fill="#81a9f2"/>
      </g>
      <g id="Group_1882" data-name="Group 1882">
        <path id="Path_20971" data-name="Path 20971" d="M802.42,603.62H791.35s-.08-.03-.08-.07V578.62h11.22v24.93s-.03.07-.08.07Z" fill="#a6c2f6"/>
        <rect id="Rectangle_1081" data-name="Rectangle 1081" width="12.45" height="2.52" transform="translate(790.66 576.09)" fill="#81a9f2"/>
      </g>
      <path id="Path_20972" data-name="Path 20972" d="M867.32,584.14c.05,7.81,4.14,14.79,10.54,19.45h37.77c6.4-4.66,10.49-11.64,10.54-19.45Z" fill="#a6c2f6"/>
      <g id="Group_1885" data-name="Group 1885">
        <rect id="Rectangle_1082" data-name="Rectangle 1082" width="517.01" height="207.29" transform="translate(1038.4 884.31)" fill="#487e3f"/>
        <rect id="Rectangle_1083" data-name="Rectangle 1083" width="175.7" height="484.73" transform="translate(1539.27 900.1) rotate(90)" fill="#579150"/>
        <rect id="Rectangle_1084" data-name="Rectangle 1084" width="535.84" height="24.84" rx="2.27" transform="translate(1030.86 859.46)" fill="#282c2f"/>
        <path id="Path_20973" data-name="Path 20973" d="M1301.09,821.68a49.274,49.274,0,0,0,18.03,37.78h64.61a49.29,49.29,0,0,0,18.03-37.78H1301.08Z" fill="#e9ecef"/>
        <g id="Group_1883" data-name="Group 1883">
          <path id="Path_20974" data-name="Path 20974" d="M1579.7,809.7l-3.56-5.55,45.77-28.12,3.56,5.55Z" fill="#e9eaec"/>
          <path id="Path_20975" data-name="Path 20975" d="M1609.83,794.25l-6.22-9.69,48.37-29.72a1.088,1.088,0,0,1,1.48.33l5.08,7.92a1.033,1.033,0,0,1-.34,1.44Z" fill="#6c777f"/>
          <path id="Path_20976" data-name="Path 20976" d="M1525.91,859.46h58.99c21.65-10.6,36.51-32.5,36.51-57.81H1489.4C1489.4,826.95,1504.26,848.85,1525.91,859.46Z" fill="#fbb040"/>
        </g>
        <g id="Group_1884" data-name="Group 1884">
          <path id="Path_20977" data-name="Path 20977" d="M1119.88,859.46h61.92c17.69-7.16,29.54-20.27,29.54-35.26,0-7.58,0-18.51-2.26-29.7H1092.6c-2.26,11.19-2.26,22.12-2.26,29.7,0,14.99,11.85,28.1,29.54,35.26Z" fill="#d42e28"/>
          <path id="Path_20978" data-name="Path 20978" d="M1225.22,816.68l-14.99-.63v-7.47l14.99-.99c1.03,0,1.87,2.03,1.87,4.54h0c0,2.51-.84,4.54-1.87,4.54Z" fill="#262626"/>
          <path id="Path_20979" data-name="Path 20979" d="M1076.42,816.68l14.99-.63v-7.47l-14.99-.99c-1.03,0-1.87,2.03-1.87,4.54h0c0,2.51.84,4.54,1.87,4.54Z" fill="#262626"/>
        </g>
      </g>
      <g id="Group_1887" data-name="Group 1887">
        <rect id="Rectangle_1085" data-name="Rectangle 1085" width="728.08" height="207.29" transform="translate(-12.82 768.48)" fill="#487e3f"/>
        <rect id="Rectangle_1086" data-name="Rectangle 1086" width="175.7" height="695.81" transform="translate(694.03 781.12) rotate(90)" fill="#579150"/>
        <rect id="Rectangle_1087" data-name="Rectangle 1087" width="746.92" height="24.84" rx="2.27" transform="translate(-20.36 743.63)" fill="#282c2f"/>
        <g id="Group_1886" data-name="Group 1886">
          <path id="Path_20980" data-name="Path 20980" d="M189.27,717.41l-1.87-2.91,24.03-14.77,1.87,2.91Z" fill="#e9eaec"/>
          <path id="Path_20981" data-name="Path 20981" d="M205.09,709.29l-3.26-5.09,25.4-15.61a.585.585,0,0,1,.78.17l2.67,4.16a.535.535,0,0,1-.18.76l-25.4,15.61Z" fill="#6c777f"/>
          <path id="Path_20982" data-name="Path 20982" d="M161.02,743.54H192a33.86,33.86,0,0,0,19.17-30.36H141.85A33.877,33.877,0,0,0,161.02,743.54Z" fill="#fbb040"/>
        </g>
      </g>
      <rect id="Rectangle_1088" data-name="Rectangle 1088" width="1925.3" height="1061.04" transform="translate(-2.64 2.23)" fill="none"/>
      <g id="Group_1889" data-name="Group 1889">
        <ellipse id="Ellipse_809" data-name="Ellipse 809" cx="40.39" cy="39.21" rx="40.39" ry="39.21" transform="translate(467.67 740.49)" fill="#5e4433"/>
        <ellipse id="Ellipse_810" data-name="Ellipse 810" cx="22.9" cy="22.23" rx="22.9" ry="22.23" transform="translate(465.38 728.22)" fill="#5e4433"/>
        <path id="Path_20983" data-name="Path 20983" d="M475.59,732.51c9.35,37.3,37.43,66.05,72.43,73.27v15.15c-5.1.54-11.9,1.66-10.2,1.38,5,12.71,15.12,21.42,26.82,21.42s21.84-8.73,26.84-21.45c-5.08-1.02-8.94-1.71-8.94-1.45V805.78c35-7.22,63.09-35.97,72.43-73.27,10.36-3.36,19.22-16.12,19.22-26.47,0-9.55-7.55-14.14-16.86-15.63-5.04-51.24-44.08-87.33-92.05-87.33s-85.48,37.93-92.05,87.33c-9.31,1.49-16.86,6.08-16.86,15.63,0,10.35,8.86,23.11,19.22,26.47Z" fill="#cd9d7a"/>
        <path id="Path_20984" data-name="Path 20984" d="M657.33,690.41c-5.04-51.24-44.08-87.33-92.05-87.33V843.7c11.44-.31,21.29-8.93,26.2-21.42-5.08-1.02-8.94-1.71-8.94-1.45V805.78c35-7.22,63.09-35.97,72.43-73.27,10.36-3.36,19.22-16.12,19.22-26.47C674.19,696.49,666.64,691.9,657.33,690.41Z" fill="#cc895a"/>
        <path id="Path_20985" data-name="Path 20985" d="M545.74,806.86l-6.13,12.84a112.492,112.492,0,0,0-16.35,2.52c-16.58,4.34-31.2,8.21-45.47,17.93-15.99,10.88-29.47,25.73-37.31,43.17-40.99,91.18-36.46,153.21-41.5,206.57a1.5,1.5,0,0,0,1.03,1.54l38.94,2.37a1.508,1.508,0,0,0,1.98-1.21c6.38-49.23,19.29-144.74,36.4-187.02-7.38,44.31-14.49,255.6-14.58,258.85H565.29V821.67l-10.5-7.96-9.05-6.86Z" fill="#ebebed"/>
        <path id="Path_20986" data-name="Path 20986" d="M718.42,1023.08a433.4,433.4,0,0,0-15.29-82.07,444.421,444.421,0,0,0-17.62-48.88c-5.93-13.9-12.68-26.86-23.73-37.68a91.559,91.559,0,0,0-11.06-9.25,90.059,90.059,0,0,0-10.5-6.45c-8.02-4.2-17.32-6.7-25.86-9.85a209.766,209.766,0,0,0-23.62-6.89h0l-7.11-15.17L565.3,821.66v33.29h0v309.46h96.51c-.03-2.9-7.84-159.9-10.36-239.26,13.8,47.43,24.23,124.78,29.76,167.42a1.511,1.511,0,0,0,1.98,1.21l38.94-2.37a1.477,1.477,0,0,0,1.03-1.54c-2.1-22.23-2.66-44.57-4.73-66.81Z" fill="#dadbde"/>
        <ellipse id="Ellipse_811" data-name="Ellipse 811" cx="5.7" cy="5.54" rx="5.7" ry="5.54" transform="translate(546.81 885.07)" fill="#414042"/>
        <ellipse id="Ellipse_812" data-name="Ellipse 812" cx="5.7" cy="5.54" rx="5.7" ry="5.54" transform="translate(408.39 1073.98)" fill="#414042"/>
        <ellipse id="Ellipse_813" data-name="Ellipse 813" cx="5.7" cy="5.54" rx="5.7" ry="5.54" transform="translate(572.37 885.07)" fill="#414042"/>
        <ellipse id="Ellipse_814" data-name="Ellipse 814" cx="5.7" cy="5.54" rx="5.7" ry="5.54" transform="translate(546.75 969.21)" fill="#414042"/>
        <ellipse id="Ellipse_815" data-name="Ellipse 815" cx="5.7" cy="5.54" rx="5.7" ry="5.54" transform="translate(572.31 969.21)" fill="#414042"/>
        <ellipse id="Ellipse_816" data-name="Ellipse 816" cx="5.7" cy="5.54" rx="5.7" ry="5.54" transform="translate(546.75 1053.36)" fill="#414042"/>
        <ellipse id="Ellipse_817" data-name="Ellipse 817" cx="5.7" cy="5.54" rx="5.7" ry="5.54" transform="translate(572.31 1053.36)" fill="#414042"/>
        <ellipse id="Ellipse_818" data-name="Ellipse 818" cx="5.7" cy="5.54" rx="5.7" ry="5.54" transform="translate(703.94 1073.98)" fill="#414042"/>
        <path id="Path_20987" data-name="Path 20987" d="M594.78,863.22H568.29V840.78h-5.32v27.6h26.49a5.242,5.242,0,0,1,5.32,5.17v290.88h5.32V868.39h0a5.249,5.249,0,0,0-5.32-5.17h0Z" fill="#d42e28"/>
        <path id="Path_20988" data-name="Path 20988" d="M565.29,821.67v23.46l9.56-13.52,15.88-9.59-7.11-15.16Z" fill="#bbbcbe"/>
        <path id="Path_20989" data-name="Path 20989" d="M463.05,695.24l6.18,35.35s-2.78-21.53,21.51-38.04S604.2,708.37,612,649.1c0,0,6.62,43.01,54.39,44.69,0,0,2.15-101.26-102.36-101.26S463.05,695.24,463.05,695.24Z" fill="#5e4433"/>
        <path id="Path_20990" data-name="Path 20990" d="M564.72,686.33c23.41-2.29,43.74-10.31,47.29-37.23,0,0,6.61,43.01,54.39,44.69,0,0,1.48-70.71-59.02-93.95H564.73v86.48Z"/>
        <path id="Path_20991" data-name="Path 20991" d="M565.29,845.13l-7.44-13.98L539.61,819.7l6.13-12.84,19.55,14.81Z" fill="#dadbde"/>
        <g id="Group_1888" data-name="Group 1888">
          <path id="Path_20992" data-name="Path 20992" d="M701.18,519.9c-2.78-21.26-20.52-38.34-42.44-40.9a49.59,49.59,0,0,0-43.19,16.21,8.251,8.251,0,0,1-12.33-.04,49.854,49.854,0,0,0-74.16,0,8.251,8.251,0,0,1-12.33.04A49.6,49.6,0,0,0,473.54,479c-21.92,2.57-39.65,19.64-42.44,40.9-3,22.87,10.78,43.06,31.02,50.59a4.407,4.407,0,0,1,2.84,4.13v95.23H667.31V578.08a9.508,9.508,0,0,1,5.61-8.72c18.71-8.27,31.11-27.65,28.25-49.46Z" fill="#ebebed"/>
          <path id="Path_20993" data-name="Path 20993" d="M658.74,479a49.626,49.626,0,0,0-43.2,16.22,8.232,8.232,0,0,1-12.3-.01,49.431,49.431,0,0,0-38.5-16.54l-.03.03V669.86h102.6V578.09a9.508,9.508,0,0,1,5.61-8.72c18.71-8.27,31.11-27.65,28.25-49.46-2.78-21.26-20.52-38.34-42.43-40.9Z" fill="#dadbde"/>
          <rect id="Rectangle_1089" data-name="Rectangle 1089" width="202.35" height="25.93" transform="translate(464.97 643.92)" fill="#dadbde"/>
          <rect id="Rectangle_1090" data-name="Rectangle 1090" width="102.6" height="25.93" transform="translate(564.72 643.92)" fill="#bbbcbe"/>
        </g>
      </g>
    </g>
    <g id="DEI-Toolkit-Illustrations_2-2" data-name="DEI-Toolkit-Illustrations_2" transform="translate(0 -0.26)" clip-path="url(#clip-path)">
      <g id="Group_1240" data-name="Group 1240">
        <path id="Path_19180" data-name="Path 19180" d="M716.54,571.68c22.58,90.88,90.43,160.93,175,178.52v36.9c-12.31,1.31-28.76,4.05-24.66,3.37,12.07,30.96,36.53,52.19,64.81,52.19s52.77-21.26,64.84-52.27c-12.27-2.49-21.59-4.16-21.59-3.53V750.19c84.57-17.59,152.42-87.64,175-178.52,25.04-8.2,46.44-39.28,46.44-64.49,0-23.27-18.25-34.45-40.75-38.08-12.17-124.85-106.49-212.78-222.39-212.78S726.72,348.75,710.85,469.1c-22.5,3.63-40.75,14.81-40.75,38.08,0,25.21,21.4,56.3,46.44,64.49Z" fill="#a76e4d"/>
        <path id="Path_19181" data-name="Path 19181" d="M1155.63,469.11c-12.17-124.85-106.49-212.78-222.39-212.78V842.59c27.64-.76,51.45-21.76,63.29-52.2-12.27-2.49-21.59-4.16-21.59-3.53V750.19c84.57-17.59,152.42-87.64,175-178.52,25.04-8.2,46.44-39.28,46.44-64.49,0-23.27-18.25-34.45-40.75-38.08Z" fill="#965b39"/>
        <path id="Path_19182" data-name="Path 19182" d="M886.03,752.82l-14.81,31.3c-13.31,1.43-26.84,2.8-39.5,6.14-40.05,10.57-75.38,20.01-109.87,43.68-38.64,26.52-71.2,62.69-90.15,105.19-99.03,222.15-88.08,373.28-100.27,503.31a3.607,3.607,0,0,0,2.5,3.75l94.08,5.78a3.659,3.659,0,0,0,4.79-2.96c15.41-119.95,46.62-352.65,87.94-455.66-17.83,107.97-35.01,622.77-35.22,630.68H933.27V788.92L907.9,769.53l-21.86-16.71Z" fill="#ebebed"/>
        <path id="Path_19183" data-name="Path 19183" d="M1303.24,1279.65c-6.23-67.63-17.93-134.61-36.95-199.95a1083.865,1083.865,0,0,0-42.57-119.09c-14.32-33.87-30.63-65.44-57.32-91.8a223.434,223.434,0,0,0-26.73-22.55,220.934,220.934,0,0,0-25.37-15.71c-19.39-10.24-41.84-16.32-62.48-24-6.02-2.24-36.23-12.55-57.07-16.78h0l-17.19-36.96-44.3,36.1v81.12h0v753.99h233.17c-.06-7.07-18.95-389.59-25.04-582.95,33.35,115.55,58.55,304.04,71.9,407.93a3.659,3.659,0,0,0,4.79,2.96l94.08-5.78a3.607,3.607,0,0,0,2.5-3.75c-5.08-54.17-6.43-108.6-11.42-162.78Z" fill="#dadbde"/>
        <ellipse id="Ellipse_447" data-name="Ellipse 447" cx="13.78" cy="13.49" rx="13.78" ry="13.49" transform="translate(888.6 943.4)" fill="#414042"/>
        <ellipse id="Ellipse_448" data-name="Ellipse 448" cx="13.78" cy="13.49" rx="13.78" ry="13.49" transform="translate(950.36 943.4)" fill="#414042"/>
        <path id="Path_19184" data-name="Path 19184" d="M1004.52,890.14H940.53V835.47H927.67v67.26h63.99a12.731,12.731,0,0,1,12.86,12.59v708.72h12.86V902.73h0a12.731,12.731,0,0,0-12.86-12.59h0Z" fill="#d42e28"/>
        <path id="Path_19185" data-name="Path 19185" d="M933.26,788.92v57.15l23.1-32.94,38.38-23.35-17.19-36.96Z" fill="#bbbcbe"/>
        <path id="Path_19186" data-name="Path 19186" d="M1172.93,450.25a19.584,19.584,0,0,0-14.36-13.54c.04-.64.12-1.32.15-1.95a19.252,19.252,0,0,0,12.79-23.46,19.49,19.49,0,0,0-11.22-12.5,19.2,19.2,0,0,0,11.22-22.86,19.54,19.54,0,0,0-11.83-12.77,17.417,17.417,0,0,0,1.57-1.85,19.079,19.079,0,0,0-5.51-26.94,20.115,20.115,0,0,0-8.16-3,18.158,18.158,0,0,0,1.26-1.48,19.079,19.079,0,0,0-5.51-26.94,20.483,20.483,0,0,0-21.37-.47,19.129,19.129,0,0,0-8.61-18.99,19.987,19.987,0,0,0-2.56-1.32,18.878,18.878,0,0,0,2.17-4.86,19.37,19.37,0,0,0-14.31-23.69,20.337,20.337,0,0,0-18.86,4.82,19.74,19.74,0,0,0-13.41-11.48,20.467,20.467,0,0,0-5.19-.55,19.51,19.51,0,0,0-14.83-17.46,20.319,20.319,0,0,0-16.48,2.96,19.583,19.583,0,0,0-11.08-9.74,19.636,19.636,0,0,0-14.18-13.73,20.366,20.366,0,0,0-16.12,2.7,20.011,20.011,0,0,0-9.83-5.83,20.247,20.247,0,0,0-21.62,8.05,20.024,20.024,0,0,0-7.65-3.85,20.351,20.351,0,0,0-18.63,4.59v28.33c.12.11.22.23.34.34V407.74c-.13.21-.22.45-.34.66v25.83c4.89,8.51,14.11,13.5,23.41,11.66,8.69-1.71,14.93-8.88,16.61-17.71,9.92,6.87,22.93,6.52,30.42-1.41,6.27-6.64,6.77-16.58,2.13-24.92a27.307,27.307,0,0,0,18.02-.75c10.26-4.01,16.46-13.14,16.17-22.24a19.932,19.932,0,0,0,10.26,9.89c7.79,3.22,16.63,1.08,23.11-4.64,4.87,6.19,13.4,9.21,22.23,7.95a19.245,19.245,0,0,0-.4,15.16c3.25,7.84,11.41,12.44,20.46,12.61.17.36.34.74.51,1.11-6.45,6.21-9.07,15.03-5.81,22.89,3.02,7.3,10.31,11.77,18.59,12.51-4.2,2.31-6.73,6.58-6.02,11,.87,5.44,6.34,9.16,12.58,8.93-2.95,3.67-4.37,9.46-3.37,15.69,1.04,6.48,4.45,11.71,8.63,14.22a4.6,4.6,0,0,0-3.25,2.17c-1.28,2.51.63,5.93,4.23,7.89a6.91,6.91,0,0,0,1.15,11.99,7.4,7.4,0,0,0,4.38.53c1.32,8.3,2.27,15.4,2.9,20.75a.952.952,0,0,0,1.89-.08l2.85-41.64a19.76,19.76,0,0,0,5.07-.65,19.107,19.107,0,0,0,5.77-34.77,19.179,19.179,0,0,0,9.6-22.11Z" fill="#1d1d1d"/>
        <path id="Path_19187" data-name="Path 19187" d="M930.79,407.21c.12-.2.2-.43.33-.63V249.47c-.12-.1-.21-.22-.33-.32v-17.5c-.08-.01-.16-.03-.24-.04a18.693,18.693,0,0,0-13.69-13.8,19.224,19.224,0,0,0-21.98,9.92,19.024,19.024,0,0,0-5.19-2.25,19.279,19.279,0,0,0-20.14,7.04c-.09.03-.18.05-.27.08a18.759,18.759,0,0,0-12.55-10.49,19.122,19.122,0,0,0-23.25,13.23,17.717,17.717,0,0,0-.58,3.98c-.35-.11-.67-.28-1.03-.37-10.19-2.58-20.6,3.34-23.25,13.23a17.347,17.347,0,0,0-.41,2.55,18.935,18.935,0,0,0-11.03-7.74c-10.19-2.58-20.6,3.35-23.25,13.23a17.894,17.894,0,0,0-.5,5.84,19.341,19.341,0,0,0-6.71-3.17,19.122,19.122,0,0,0-23.25,13.23,17.887,17.887,0,0,0,1.58,13.15,18.8,18.8,0,0,0-2.61-.94c-10.18-2.58-20.6,3.35-23.25,13.23a18.1,18.1,0,0,0,5.45,18.1,18.755,18.755,0,0,0-13.87,13.2,17.735,17.735,0,0,0-.27,7.92,18.962,18.962,0,0,0-18.79,13.78,18.318,18.318,0,0,0,11.54,21.81,16.161,16.161,0,0,0-.74,1.94,18.217,18.217,0,0,0,8.62,20.43,18.886,18.886,0,0,0-17.8,13.73,18.3,18.3,0,0,0,11.18,21.68,18.283,18.283,0,0,0,2.45,34.93,19.248,19.248,0,0,0,8.01.3,18.141,18.141,0,0,0-6.39,15.26,18.387,18.387,0,0,0,9.08,14.26,18.1,18.1,0,0,0-5.83,14.73c.81,9.8,9.36,17.12,19.35,16.94q1.035,3.84,1.93,6.94c.01.05.03.09.04.13,2.13,7.36,3.59,11.54,3.59,11.54l.08-.62.17,1.58s.68-3.17,1.77-8.36c2.87-.24,5.79-2.68,7.16-6.32,1.46-3.92.55-7.78-1.87-9.6a14.477,14.477,0,0,0,5.85-7.32,13.01,13.01,0,0,0-.7-11.24c-.06-.24-.14-.47-.22-.7,6.58-1.75,11.09-8.52,10.3-16.19a15.941,15.941,0,0,0-7.4-12.06,25.947,25.947,0,0,0,5.37-5.76,23.467,23.467,0,0,0,3.35-19.24c8.52,4.69,19.63,2.27,26.85-5.54a18.411,18.411,0,0,0,6.58,5.94c9.1,4.83,20.71,1.49,27.53-7.31a18.5,18.5,0,0,0,7.39,7.31c8.93,4.74,20.31,1.64,27.18-6.8,5.21,8.72,17.31,12.33,28.5,7.97,7.87-3.07,13.24-9.32,14.91-16.16a25.48,25.48,0,0,0,20.03.45,25.842,25.842,0,0,0,10.81-7.85c.14-.04.29-.1.43-.14V407.21Z" fill="#2f3538"/>
        <path id="Path_19188" data-name="Path 19188" d="M933.26,846.07l-17.97-34.05-44.07-27.91,14.81-31.29,47.23,36.1Z" fill="#dadbde"/>
        <g id="Group_1239" data-name="Group 1239">
          <path id="Path_19189" data-name="Path 19189" d="M1261.58,53.67c-6.73-51.79-49.57-93.4-102.53-99.66-41.73-4.93-79.77,11.46-104.35,39.5a19.817,19.817,0,0,1-29.79-.09,119.75,119.75,0,0,0-179.16,0,19.809,19.809,0,0,1-29.79.09c-24.58-28.04-62.62-44.43-104.35-39.5-52.95,6.25-95.8,47.86-102.53,99.65-7.24,55.71,26.04,104.91,74.94,123.25a10.731,10.731,0,0,1,6.86,10.07V419.01h488.89V195.41a23.2,23.2,0,0,1,13.55-21.25c45.2-20.16,75.16-67.37,68.26-120.5Z" fill="#ebebed"/>
          <path id="Path_19190" data-name="Path 19190" d="M1159.06-45.99c-41.73-4.93-79.78,11.46-104.37,39.51a19.775,19.775,0,0,1-29.72-.03,118.985,118.985,0,0,0-93.02-40.31l-.07.07V419.01h247.9V195.41a23.208,23.208,0,0,1,13.54-21.25c45.2-20.16,75.16-67.37,68.26-120.5-6.73-51.79-49.57-93.41-102.52-99.66Z" fill="#dadbde"/>
          <rect id="Rectangle_930" data-name="Rectangle 930" width="488.89" height="63.17" transform="translate(690.89 355.84)" fill="#dadbde"/>
          <rect id="Rectangle_931" data-name="Rectangle 931" width="247.9" height="63.17" transform="translate(931.88 355.84)" fill="#bbbcbe"/>
        </g>
      </g>
    </g>
  </g>
</svg>
