<svg xmlns="http://www.w3.org/2000/svg" xmlns:xlink="http://www.w3.org/1999/xlink" width="1920" height="1080" viewBox="0 0 1920 1080">
  <defs>
    <clipPath id="clip-path">
      <rect id="Rectangle_2148" data-name="Rectangle 2148" width="1955.17" height="1116.36" fill="none"/>
    </clipPath>
    <filter id="Rectangle_2149" x="-9" y="-6" width="1938" height="1098" filterUnits="userSpaceOnUse">
      <feOffset dy="3" input="SourceAlpha"/>
      <feGaussianBlur stdDeviation="3" result="blur"/>
      <feFlood flood-opacity="0.161"/>
      <feComposite operator="in" in2="blur"/>
      <feComposite in="SourceGraphic"/>
    </filter>
    <clipPath id="clip-Transparency_Programs_Learn_More">
      <rect width="1920" height="1080"/>
    </clipPath>
  </defs>
  <g id="Transparency_Programs_Learn_More" data-name="Transparency Programs – Learn More" clip-path="url(#clip-Transparency_Programs_Learn_More)">
    <rect width="1920" height="1080" fill="#fff"/>
    <rect id="Rectangle_2147" data-name="Rectangle 2147" width="1920" height="1080" fill="#17c7ff"/>
    <g id="Group_642" data-name="Group 642" transform="translate(-17 -18)">
      <g id="Group_641" data-name="Group 641" clip-path="url(#clip-path)">
        <path id="Path_35702" data-name="Path 35702" d="M1955.17,0V348.5c-121.67-27.78-263.37-3.2-414.8,43.69q-8.76,2.715-17.57,5.53-5.19,1.65-10.38,3.34-4.53,1.47-9.07,2.96c-.77.25-1.53.5-2.29.76-3.15,1.04-6.32,2.09-9.48,3.15q-5.04,1.68-10.07,3.39-6.2,2.085-12.41,4.24-4.485,1.545-8.98,3.11-9.66,3.36-19.36,6.8c-4.21,1.5-8.41,3-12.63,4.52-3.55,1.28-7.12,2.57-10.68,3.87-40.31,14.64-81.08,30.24-122.14,46.28v.01c-1.19.46-2.38.92-3.57,1.39-42.62,16.66-85.54,33.78-128.57,50.78q-5.535,2.175-11.06,4.36t-11.06,4.36l-11.07,4.35q-11.07,4.335-22.14,8.65-5.535,2.16-11.07,4.3-16.605,6.45-33.22,12.79-5.535,2.115-11.07,4.22-7.185,2.73-14.38,5.44-5.385,2.025-10.76,4.04-6.33,2.355-12.64,4.7-4.665,1.725-9.33,3.44-6.45,2.385-12.88,4.71-4.47,1.65-8.94,3.25-5.445,1.98-10.9,3.92t-10.89,3.88q-5.445,1.935-10.88,3.84-4.41,1.545-8.8,3.07c-74.37,25.81-148.03,48.25-219.94,64.26q-13.575,3.03-27.07,5.73c-1.86.38-3.71.75-5.57,1.11q-8.085,1.59-16.13,3.05-5.2.945-10.38,1.84c-2.73.47-5.46.94-8.18,1.38q-3.345.555-6.67,1.08-2.91.465-5.8.91c-.29.04-.57.08-.86.13-2.1.32-4.21.63-6.31.94q-4.14.615-8.25,1.17-5.97.825-11.93,1.57-3.3.42-6.59.81t-6.58.76q-8.55.96-17.06,1.74l-3.64.33c-1.68.15-3.37.29-5.05.43s-3.36.28-5.04.4c-1.2.1-2.39.19-3.59.27s-2.39.17-3.58.25c-.61.05-1.22.09-1.83.13-1.49.09-2.98.19-4.46.27q-3.3.21-6.6.38c-1.12.06-2.24.12-3.35.17-.98.05-1.95.09-2.92.13-1.14.06-2.27.1-3.41.15-.22.01-.44.02-.66.02-1.54.07-3.08.12-4.61.17q-3.87.135-7.72.22-1.545.045-3.09.06c-1.01.03-2.01.04-3.01.05q-8.13.135-16.2.07c-1.02-.01-2.04-.02-3.06-.04-1.7-.01-3.41-.03-5.11-.07-1.81-.03-3.62-.07-5.43-.13-1.75-.04-3.49-.09-5.24-.16-1.35-.04-2.71-.09-4.06-.15-.56-.02-1.12-.05-1.67-.07-1.16-.05-2.33-.1-3.49-.16-.12-.01-.24-.01-.36-.02q-5.535-.27-11.03-.64c-.11,0-.22-.01-.33-.02q-3.09-.21-6.17-.45c-1.52-.11-3.04-.23-4.56-.37-1.54-.12-3.09-.26-4.63-.41-1.32-.11-2.63-.24-3.94-.37-1.66-.16-3.32-.33-4.97-.51-.41-.04-.83-.08-1.24-.13q-6.075-.66-12.09-1.45c-2.03-.26-4.07-.54-6.1-.82l-.2-.03c-1.92-.27-3.83-.55-5.75-.84q-2.745-.42-5.49-.87c-.35-.05-.71-.11-1.07-.18a501.855,501.855,0,0,1-104.07-28.44h-.01q-8.13-3.2-16.14-6.74-5.355-2.325-10.66-4.84-5.31-2.475-10.57-5.13-2.625-1.32-5.25-2.67t-5.23-2.75q-5.22-2.76-10.39-5.71-2.595-1.455-5.16-2.96c-1.63-.95-3.24-1.91-4.86-2.88-.33-.19-.65-.39-.98-.58q-4.77-2.865-9.5-5.89-2.55-1.605-5.07-3.26v-.01C136.61,569.93,61.34,481.06,0,348.5V0Z" fill="#3bcfff"/>
        <path id="Path_35703" data-name="Path 35703" d="M1955.17,0V177.84c-155.59-14.26-297.82-16.22-428.47-10.15q-13.56.63-26.95,1.38-23.43,1.29-46.37,2.93c-.35.02-.7.05-1.04.07q-6.03.42-12.03.88-6.51.5-12.99,1.01-3.225.255-6.45.52h-.01q-46.185,3.78-90.36,8.76h-.01c-3.23.36-6.46.72-9.68,1.1q-14.94,1.725-29.66,3.55-9.09,1.125-18.09,2.31-9.435,1.23-18.77,2.51-18.675,2.55-37,5.27c-3.06.45-6.1.9-9.14,1.37q-13.68,2.055-27.15,4.22-17.97,2.85-35.58,5.86-4.41.735-8.79,1.5t-8.75,1.52q-17.445,3.045-34.55,6.22-4.275.78-8.54,1.59-21.285,3.96-42.05,8.09c-51.46,10.19-100.59,20.91-147.63,31.6l-.01.01q-19.335,4.38-38.21,8.78-18.87,4.365-37.29,8.7-9.21,2.16-18.31,4.3-36.66,8.61-71.58,16.77-4.1.96-8.16,1.89-15.03,3.48-29.76,6.82-4.245.96-8.46,1.91-5.175,1.17-10.32,2.31c-2.16.48-4.3.96-6.45,1.43q-16.665,3.69-32.96,7.14c-2.45.52-4.9,1.03-7.33,1.54q-6.39,1.335-12.72,2.63c-40.91,8.34-80.05,15.33-117.69,20.31q-3.63.48-7.24.93c-1.33.17-2.65.34-3.98.49-1.76.23-3.52.44-5.28.64q-2.73.33-5.43.63c-.97.11-1.93.21-2.9.32-.11.01-.23.03-.35.04q-5.7.63-11.36,1.18c-.18.02-.36.03-.54.05-1.19.12-2.38.23-3.57.34-1.43.14-2.85.27-4.27.39-.53.05-1.07.1-1.6.14-1.37.13-2.74.24-4.1.35-1.41.12-2.81.24-4.21.34l-1.07.09c-1.72.13-3.44.26-5.16.38a1.5,1.5,0,0,1-.22.02q-6,.42-11.95.77-4.815.27-9.6.48c-1.1.05-2.19.1-3.28.14-1.29.05-2.57.1-3.85.14q-2.8.105-5.58.18c-.43.02-.85.03-1.28.03h-.01C250.13,356.49,123.83,314.41,0,177.84V0Z" fill="#73ddff"/>
        <path id="Path_35704" data-name="Path 35704" d="M1163.17,532.32q-5.535,2.175-11.06,4.36t-11.06,4.36l-11.07,4.35q-11.07,4.335-22.14,8.65-5.535,2.16-11.07,4.3-16.605,6.45-33.22,12.79-5.535,2.115-11.07,4.22-7.185,2.73-14.38,5.44-5.385,2.025-10.76,4.04-6.33,2.355-12.64,4.7-4.665,1.725-9.33,3.44-6.45,2.385-12.88,4.71-4.47,1.65-8.94,3.25-5.445,1.98-10.9,3.92t-10.89,3.88q-5.445,1.935-10.88,3.84-4.41,1.545-8.8,3.07L880.81,851.39q12.27,2.565,23.94,5.88l-.012,0c92.639-21.423,207.88-19.9,341.431,37.567v-.013l49.14-414.67v-.01c-1.19.46-2.38.93-3.57,1.4-42.62,16.66-85.54,33.78-128.57,50.78" fill="#54d6ff"/>
        <path id="Path_35705" data-name="Path 35705" d="M279.13,657.71q-5.295-2.49-10.57-5.13-2.625-1.32-5.25-2.67t-5.23-2.75q-5.22-2.775-10.39-5.71-2.595-1.455-5.16-2.96c-1.63-.95-3.24-1.91-4.86-2.88-.33-.19-.65-.39-.98-.58q-4.77-2.88-9.5-5.89c-1.69-1.08-3.38-2.16-5.06-3.27h-.01v.01L66.16,866.82c49.55-17.24,95.56-23.75,137.66-22.91h.01l102.1-174.62q-8.115-3.225-16.14-6.74-5.34-2.355-10.66-4.84" fill="#54d6ff"/>
        <path id="Path_35706" data-name="Path 35706" d="M689.5,686.74q-8.085,1.59-16.13,3.05-5.2.945-10.38,1.84c-2.73.47-5.46.94-8.18,1.38q-3.345.555-6.67,1.08-2.91.465-5.8.91c-.29.04-.57.08-.86.13-2.1.32-4.21.63-6.31.94q-4.14.615-8.25,1.17-5.985.825-11.93,1.57-3.3.42-6.59.81t-6.58.76q-8.55.96-17.06,1.74l-3.64.33c-1.68.15-3.37.29-5.05.43s-3.36.28-5.04.4c-1.2.1-2.39.19-3.59.27s-2.39.17-3.58.25c-.61.05-1.22.09-1.83.13-1.49.09-2.98.19-4.46.27q-3.3.21-6.6.38c-1.12.06-2.24.12-3.35.17-.98.05-1.95.09-2.92.13-1.14.06-2.27.1-3.41.15-.22.01-.44.02-.66.02-1.54.07-3.08.12-4.61.17q-3.87.135-7.72.22-1.545.045-3.09.06c-1.01.03-2.01.04-3.01.05q-8.13.135-16.2.07c-1.02-.01-2.04-.02-3.06-.04-1.7-.01-3.41-.03-5.11-.07-1.81-.03-3.62-.07-5.43-.13-1.75-.04-3.49-.09-5.24-.16-1.35-.04-2.71-.09-4.06-.15-.56-.02-1.12-.05-1.67-.07-1.16-.05-2.33-.1-3.49-.16-.12-.01-.24-.01-.36-.02q-5.535-.27-11.03-.64c-.11,0-.22-.01-.33-.02q-3.09-.21-6.17-.45c-1.52-.11-3.04-.23-4.56-.37-1.54-.12-3.09-.26-4.63-.41-1.32-.11-2.63-.24-3.94-.37-1.66-.16-3.32-.33-4.97-.51-.41-.04-.83-.08-1.24-.13q-6.06-.66-12.09-1.45c-2.03-.26-4.07-.54-6.1-.82l-.2-.03c-1.92-.27-3.83-.55-5.75-.84q-2.745-.42-5.49-.87c-.36-.05-.71-.11-1.07-.17l-64.62,118.6-.005.008c85.795-27.137,191-31.083,312.317,20.013l.008-.021L722.14,679.9q-13.575,3.03-27.07,5.73c-1.86.38-3.71.75-5.57,1.11" fill="#54d6ff"/>
        <path id="Path_35707" data-name="Path 35707" d="M1295.31,480.14l35.19-296.9h-.01Z" fill="#30cdff"/>
        <path id="Path_35708" data-name="Path 35708" d="M1540.37,392.19q-8.76,2.715-17.57,5.53c-3.46,1.09-6.91,2.21-10.38,3.34q-4.53,1.455-9.07,2.96c-.77.25-1.53.5-2.29.76-3.16,1.03-6.31,2.08-9.48,3.15-3.35,1.11-6.71,2.25-10.07,3.39q-6.2,2.086-12.41,4.24-4.485,1.53-8.98,3.11-9.66,3.345-19.36,6.8c-4.21,1.5-8.41,3-12.63,4.52q-5.34,1.92-10.68,3.86v.01l-5.73,434.74c42.78-27.23,94.34-51.25,153.8-63.42v-.01Z" fill="#54d6ff"/>
        <path id="Path_35709" data-name="Path 35709" d="M1526.7,167.69v.01q-13.545.63-26.95,1.37-23.43,1.3-46.37,2.93c-.35.02-.7.05-1.04.07q-6.03.435-12.03.88-6.51.5-12.99,1.01-3.225.255-6.45.52h-.01L1423.16,0h93.33ZM790.18,0,613.55,324.18q6.33-1.29,12.72-2.63c2.43-.51,4.88-1.02,7.33-1.54q16.29-3.435,32.96-7.14c2.15-.47,4.29-.95,6.45-1.43q5.145-1.14,10.32-2.31,4.215-.945,8.46-1.91,14.73-3.33,29.76-6.82,4.065-.93,8.16-1.89,34.935-8.1,71.58-16.77,9.105-2.145,18.31-4.3,18.42-4.32,37.29-8.7t38.21-8.78l.01-.01,43.93-106.67L1002.18,0ZM627.25,0,399.04,352.56h-.01v.01c.43-.01.86-.02,1.29-.04q2.775-.075,5.58-.18c1.28-.04,2.56-.09,3.85-.14,1.09-.04,2.18-.09,3.28-.14q4.785-.21,9.6-.48,5.955-.345,11.95-.77a1.5,1.5,0,0,0,.22-.02c1.72-.12,3.44-.25,5.16-.38l1.07-.09c1.4-.1,2.8-.22,4.21-.34,1.36-.11,2.73-.22,4.1-.35.53-.04,1.07-.09,1.6-.14,1.42-.12,2.84-.25,4.27-.39,1.19-.11,2.38-.22,3.57-.34.18-.02.36-.03.54-.05q5.655-.555,11.36-1.18c.12-.01.24-.03.35-.04.97-.11,1.93-.21,2.9-.32q2.7-.3,5.43-.63c1.76-.2,3.52-.41,5.28-.64,1.33-.15,2.65-.32,3.98-.49q3.615-.45,7.24-.93L697.3,0Zm474.84,0-59.35,228.35v.01q20.775-4.11,42.05-8.1c2.84-.53,5.68-1.06,8.54-1.59q17.1-3.15,34.55-6.22,4.365-.75,8.75-1.52,4.38-.75,8.79-1.5,17.61-3,35.58-5.86,13.47-2.145,27.15-4.22c3.04-.46,6.08-.91,9.14-1.37q18.33-2.715,37-5.27,9.33-1.275,18.77-2.51,9-1.17,18.09-2.31,14.715-1.83,29.66-3.55,4.83-.555,9.68-1.1h.01L1352.21,0Z" fill="#abecff"/>
        <path id="Path_35710" data-name="Path 35710" d="M819.6,277.44q-9.21,2.16-18.31,4.3-36.66,8.61-71.58,16.77-4.1.96-8.16,1.89-15.03,3.48-29.76,6.82-4.245.96-8.46,1.91-5.175,1.17-10.32,2.31c-2.16.48-4.3.96-6.45,1.43q-16.665,3.69-32.96,7.14c-2.45.52-4.9,1.03-7.33,1.54q-6.39,1.335-12.72,2.63L410.01,697.73v.01c.36.06.71.12,1.07.17q2.745.452,5.49.87c1.92.29,3.83.57,5.75.84l.2.03c2.03.28,4.07.561,6.1.82q6.03.8,12.09,1.45c.41.05.83.09,1.24.13,1.65.18,3.31.35,4.97.51,1.31.13,2.62.26,3.94.37,1.54.15,3.09.29,4.63.41,1.52.14,3.04.26,4.56.371q3.075.238,6.17.449c.11.01.22.02.33.02q5.49.375,11.03.64c.12.01.24.01.36.02,1.16.06,2.33.11,3.49.16.55.02,1.11.05,1.67.07,1.35.06,2.71.11,4.06.15,1.75.07,3.49.12,5.24.16,1.81.06,3.62.1,5.43.13,1.7.04,3.41.06,5.11.07,1.02.02,2.04.03,3.06.04q8.07.06,16.2-.07c1-.01,2-.02,3.01-.05q1.545-.015,3.09-.06,3.855-.09,7.72-.22c1.53-.05,3.07-.1,4.61-.17.22,0,.44-.01.66-.02,1.14-.05,2.27-.09,3.41-.15.97-.04,1.94-.08,2.92-.13,1.11-.05,2.23-.11,3.35-.17q3.3-.165,6.6-.38c1.48-.08,2.97-.18,4.46-.27.61-.04,1.22-.08,1.83-.13,1.19-.08,2.39-.16,3.58-.25s2.39-.17,3.59-.27c1.68-.12,3.36-.26,5.04-.4s3.37-.28,5.05-.43l3.64-.33q8.5-.78,17.06-1.74,3.285-.375,6.58-.76t6.59-.81q5.955-.735,11.93-1.57,4.11-.555,8.25-1.17c2.1-.31,4.21-.62,6.31-.94.29-.05.57-.09.86-.13q2.895-.45,5.8-.91,3.33-.525,6.67-1.08c2.72-.44,5.45-.91,8.18-1.38q5.175-.9,10.38-1.84,8.04-1.455,16.13-3.05c1.86-.36,3.71-.73,5.57-1.11q13.485-2.7,27.07-5.73L895.1,259.961q-19.335,4.394-38.21,8.779t-37.29,8.7" fill="#73ddff"/>
        <path id="Path_35711" data-name="Path 35711" d="M488.62,345.42c-1.33.17-2.65.34-3.98.49-1.76.23-3.52.44-5.28.64q-2.73.33-5.43.63c-.97.11-1.93.21-2.9.32-.11.01-.23.03-.35.04q-5.7.615-11.36,1.18c-.18.02-.36.03-.54.05-1.19.12-2.38.23-3.57.34-1.43.14-2.85.27-4.27.39-.53.05-1.07.1-1.6.14-1.37.13-2.74.24-4.1.35-1.41.12-2.81.24-4.21.34l-1.07.09c-1.72.13-3.44.26-5.16.38a1.5,1.5,0,0,1-.22.02q-6,.435-11.95.77-4.815.27-9.6.48c-1.1.05-2.19.1-3.28.14-1.29.05-2.57.1-3.85.14q-2.8.105-5.58.18c-.43.02-.86.03-1.29.04L222.12,625.87h.01c1.68,1.11,3.37,2.19,5.06,3.27q4.725,3,9.5,5.89c.33.19.65.39.98.58,1.62.97,3.23,1.93,4.86,2.88q2.565,1.5,5.16,2.96,5.175,2.925,10.39,5.71,2.61,1.4,5.23,2.75t5.25,2.67q5.265,2.64,10.57,5.13t10.66,4.84q8.025,3.525,16.14,6.74h.01l189.92-324.8q-3.63.48-7.24.93" fill="#73ddff"/>
        <path id="Path_35712" data-name="Path 35712" d="M1526.7,167.7q-13.545.63-26.95,1.37-23.43,1.3-46.37,2.93c-.35.02-.7.05-1.04.07q-6.03.435-12.03.88-6.509.5-12.99,1.01-3.225.255-6.45.52h-.01l-.87,66.69-2.54,192.68q5.342-1.935,10.68-3.86c4.22-1.52,8.42-3.02,12.631-4.52q9.69-3.435,19.359-6.8,4.5-1.575,8.98-3.11,6.225-2.145,12.411-4.24c3.359-1.14,6.719-2.28,10.069-3.39,3.17-1.07,6.32-2.12,9.48-3.15.76-.26,1.52-.51,2.29-.76q4.545-1.5,9.07-2.96c3.47-1.13,6.92-2.25,10.38-3.34q8.8-2.82,17.57-5.53Z" fill="#73ddff"/>
        <path id="Path_35713" data-name="Path 35713" d="M1291.15,187.89q-9.09,1.14-18.09,2.31-9.435,1.23-18.77,2.51-18.675,2.55-37,5.27c-3.06.46-6.1.91-9.14,1.37q-13.68,2.07-27.15,4.22-17.97,2.865-35.58,5.86-4.41.75-8.79,1.5-4.38.765-8.75,1.52-17.445,3.06-34.55,6.22c-2.86.53-5.7,1.06-8.54,1.59q-21.285,3.99-42.05,8.1L942.08,615.64q4.395-1.53,8.8-3.07,5.445-1.905,10.88-3.84,5.445-1.92,10.89-3.88t10.9-3.92q4.47-1.605,8.94-3.25,6.435-2.325,12.88-4.71,4.665-1.71,9.33-3.44,6.315-2.34,12.64-4.7,5.37-2.01,10.76-4.04,7.185-2.715,14.38-5.44,5.535-2.1,11.07-4.22,16.6-6.345,33.22-12.79,5.535-2.145,11.07-4.3,11.07-4.3,22.14-8.65l11.07-4.35q5.535-2.175,11.06-4.36t11.06-4.36c43.03-17,85.95-34.12,128.57-50.78,1.19-.47,2.38-.94,3.57-1.4l35.18-296.9q-4.845.54-9.68,1.1-14.94,1.725-29.66,3.55" fill="#73ddff"/>
        <path id="Path_35714" data-name="Path 35714" d="M1955.17,1091.17v25.19H0V996.41l.48-.18a218.073,218.073,0,0,1,51.61-12.09,215.741,215.741,0,0,1,51.41.7h.01q8.04,1.05,16.3,2.75a252.879,252.879,0,0,1,31.42,8.64q9.135,3.135,18.51,7.11c.17.07.34.14.51.22a333.184,333.184,0,0,1,41.77,21.56,127.412,127.412,0,0,0,15.31,7.9,134,134,0,0,0,74.77,9.1c38.88-6.29,83.97-6.82,134.48,3.63a160.327,160.327,0,0,0,66.09-.34,351.771,351.771,0,0,1,72.14-7.8c40.58-.22,86.1,6.34,135.94,23.74a220.346,220.346,0,0,0,113.22,8.72,213.752,213.752,0,0,0,56.8-19.2c76.59-38.63,196.78-71.26,349.54-22.24a616.006,616.006,0,0,1,70.7,27.73,186.7,186.7,0,0,0,164.11-3.5,438.627,438.627,0,0,1,113.05-40.02c89.98-18.49,206.73-12.72,344.05,59.85q16.29,8.6,32.95,18.48" fill="#087599"/>
        <path id="Path_35715" data-name="Path 35715" d="M1693.35,882.88a370.953,370.953,0,0,0-39.79,13.99A423.759,423.759,0,0,0,1574,940.86c-.07.05-.13.09-.2.14a104.258,104.258,0,0,1-91.04,13.59c-25.88-8.25-49.97-9.76-72.09-6.62a162.3,162.3,0,0,0-42.86,12.39,201.08,201.08,0,0,0-37.29,21.68,26.731,26.731,0,0,1-28.19,2.09q-7.5-3.93-14.86-7.39a338.453,338.453,0,0,0-48.8-18.71c-63.91-18.83-119.32-12.63-164.65,3.79a170.089,170.089,0,0,1-104.74,3.72c-42.71-12.22-81.59-13.28-116.16-7.63v.01c-.61.09-1.23.2-1.84.3a259.626,259.626,0,0,0-54.67,15.75,110.327,110.327,0,0,1-74.68,3.22q-17.655-5.5-34.94-10.16c-26.02-7.03-51.4-12.64-76.11-16.99A801.787,801.787,0,0,0,500.4,938.26q-9.03-.315-17.9-.43a727.546,727.546,0,0,0-220.04,30.73,708.964,708.964,0,0,0-75.81,27.67q-8.175,3.525-15.93,7.11c-.16.07-.32.14-.47.22a333.184,333.184,0,0,1,41.77,21.56,127.412,127.412,0,0,0,15.31,7.9,134,134,0,0,0,74.77,9.1c38.88-6.29,83.97-6.82,134.48,3.63a160.327,160.327,0,0,0,66.09-.34,351.771,351.771,0,0,1,72.14-7.8c40.58-.22,86.1,6.34,135.94,23.74a220.346,220.346,0,0,0,113.22,8.72,213.752,213.752,0,0,0,56.8-19.2c76.59-38.63,196.78-71.26,349.54-22.24a616.006,616.006,0,0,1,70.7,27.73,186.7,186.7,0,0,0,164.11-3.5,438.627,438.627,0,0,1,113.05-40.02c89.98-18.49,206.73-12.72,344.05,59.85q16.29,8.6,32.95,18.48V906.57c-100.28-45.02-188.32-44.9-261.82-23.69" fill="#0989b3"/>
        <path id="Path_35716" data-name="Path 35716" d="M904.75,857.27l-.012,0c94.729-21.907,213.087-19.836,350.493,41.531l-.011,0q-4.875,1.2-9.83,2.59a381.224,381.224,0,0,0-55.26,20.31c-58.04,26.41-121.82,21.88-176.71-14.21-30-19.72-66.42-38.29-108.67-50.22m506.54,44.1a128.408,128.408,0,0,0,63.81-.82c34.34-9.26,66.29-12.15,95.58-10.66a283.556,283.556,0,0,1,44.2,5.75,109.281,109.281,0,0,0,38.68,1.23,370.953,370.953,0,0,1,39.79-13.99,124.4,124.4,0,0,0,15.15-10.28c32.27-25.45,62.81-41.26,91.48-49.62-87.64-30.19-166.24-31.79-234.46-17.81v.01c-59.46,12.17-111.02,36.19-153.8,63.42-12.63,8.05-24.5,16.37-35.58,24.76a286.845,286.845,0,0,1,30.26,6.74q2.43.69,4.89,1.27M406.05,910.19c24.05,16.21,50.1,25.43,76.45,27.64q8.865.105,17.9.43c26.04-.94,52-8.7,76.23-23.33a570.946,570.946,0,0,1,62.17-32.67v-.01h.01a467.651,467.651,0,0,1,65.658-23.829c-183.5-95.936-333.37-65.212-439.233-7.888A361.736,361.736,0,0,1,318.65,865.42a401.927,401.927,0,0,1,87.4,44.77" fill="#0cb5eb"/>
        <path id="Path_35717" data-name="Path 35717" d="M904.75,857.27l-.012,0c94.729-21.907,213.087-19.836,350.493,41.531l-.011,0q-4.875,1.2-9.83,2.59a381.224,381.224,0,0,0-55.26,20.31c-58.04,26.41-121.82,21.88-176.71-14.21-30-19.72-66.42-38.29-108.67-50.22" fill="#28bbeb"/>
        <path id="Path_35718" data-name="Path 35718" d="M203.995,1020.415q-8.2-4.686-16.249-8.72,8.044,4.036,16.249,8.72M186.65,996.229a708.95,708.95,0,0,1,75.81-27.67,727.609,727.609,0,0,1,220.04-30.73c-26.35-2.21-52.4-11.429-76.45-27.64a401.926,401.926,0,0,0-87.4-44.769,361.665,361.665,0,0,0-53.43-14.89,353.968,353.968,0,0,0-61.39-6.621h-.01c-42.1-.839-88.11,5.67-137.66,22.911A507.246,507.246,0,0,0,0,895.429v100.98l.48-.18a218.171,218.171,0,0,1,51.61-12.09,215.8,215.8,0,0,1,51.41.7h.01q8.04,1.048,16.3,2.75a252.7,252.7,0,0,1,31.42,8.639q9.135,3.137,18.51,7.111c.17.069.34.139.51.219.15-.08.31-.15.47-.219q7.755-3.587,15.93-7.111m500.34-29.2q17.28,4.65,34.94,10.159a110.327,110.327,0,0,0,74.68-3.219,259.565,259.565,0,0,1,54.67-15.75c.61-.1,1.23-.21,1.84-.3v-.011c34.57-5.649,73.45-4.589,116.16,7.63a170.1,170.1,0,0,0,104.74-3.719c45.33-16.42,100.74-22.621,164.65-3.79a338.331,338.331,0,0,1,48.8,18.71q7.365,3.465,14.86,7.39a26.731,26.731,0,0,0,28.19-2.091,201.13,201.13,0,0,1,37.29-21.679,162.262,162.262,0,0,1,42.86-12.39c22.12-3.141,46.21-1.63,72.09,6.62A104.258,104.258,0,0,0,1573.8,941c.07-.05.13-.09.2-.139a423.758,423.758,0,0,1,79.56-43.991,109.234,109.234,0,0,1-38.68-1.23,283.571,283.571,0,0,0-44.2-5.75c-29.29-1.489-61.24,1.4-95.58,10.661a128.408,128.408,0,0,1-63.81.819q-2.46-.585-4.89-1.27a286.83,286.83,0,0,0-30.26-6.739c-35.77-5.94-76.26-5.62-120.92,5.44-3.25.8-6.53,1.67-9.83,2.589a381.353,381.353,0,0,0-55.26,20.31c-58.04,26.411-121.82,21.88-176.71-14.209-30-19.721-66.42-38.291-108.67-50.221q-11.67-3.3-23.94-5.88c-51.43-10.779-110.53-11.29-176.34,7.031a467.385,467.385,0,0,0-65.66,23.829h-.01v.011a571.1,571.1,0,0,0-62.17,32.669c-24.23,14.63-50.19,22.391-76.23,23.331a801.771,801.771,0,0,1,110.48,11.779c24.71,4.35,50.09,9.96,76.11,16.991M181.8,1008.783q-1.179-.562-2.354-1.111,1.176.547,2.354,1.111m1618.181-185.8c-28.67,8.361-59.21,24.171-91.48,49.62a124.294,124.294,0,0,1-15.15,10.281c73.5-21.21,161.54-21.33,261.82,23.69V848.61c-42.34-27.81-94.56-43.35-155.19-25.631M176.668,1006.4c-.6-.271-1.192-.545-1.785-.81.593.265,1.19.539,1.785.81m10.053,4.782c-.953-.474-1.9-.937-2.853-1.4.95.461,1.9.923,2.853,1.4" fill="#0ba5d6"/>
        <path id="Path_35719" data-name="Path 35719" d="M610.618,949.995A801.808,801.808,0,0,0,500.4,938.26q-9.03-.315-17.9-.43a727.55,727.55,0,0,0-220.04,30.73c-.124.038-.244.077-.368.114l-35,64.238c.08.035.158.073.238.108a134,134,0,0,0,74.77,9.1c38.88-6.29,83.97-6.82,134.48,3.63a160.327,160.327,0,0,0,66.09-.34,351.723,351.723,0,0,1,71.86-7.8Z" fill="#209bc2"/>
        <path id="Path_35720" data-name="Path 35720" d="M262.46,968.56A727.546,727.546,0,0,1,482.5,937.83c-26.35-2.21-52.4-11.43-76.45-27.64a401.927,401.927,0,0,0-87.4-44.77l-.252-.088L262.092,968.674c.124-.037.244-.076.368-.114" fill="#22b2e0"/>
        <path id="Path_35721" data-name="Path 35721" d="M638.45,882.42a571.417,571.417,0,0,0-61.82,32.51c-24.23,14.63-50.19,22.39-76.23,23.33a801.794,801.794,0,0,1,110.217,11.735Z" fill="#22b2e0"/>
        <path id="Path_35722" data-name="Path 35722" d="M345.025,816.463,318.4,865.331c.083.03.168.058.251.089a401.883,401.883,0,0,1,87.4,44.769c24.05,16.211,50.1,25.43,76.45,27.64q8.865.107,17.9.43c26.04-.94,52-8.7,76.23-23.33a571.326,571.326,0,0,1,61.821-32.51l19.012-46.16c-121.384-51.062-226.635-47.018-312.438-19.8" fill="#28bbeb"/>
        <path id="Path_35723" data-name="Path 35723" d="M1571.234,889.923c-.186-.01-.368-.023-.554-.034-29.29-1.489-61.24,1.4-95.58,10.66a128.419,128.419,0,0,1-63.81.821l-.213-.052L1410.462,948c.07-.01.138-.024.208-.034,22.12-3.14,46.21-1.629,72.09,6.621A104.251,104.251,0,0,0,1573.8,941c.07-.05.13-.089.2-.138.107-.076.216-.149.323-.224Z" fill="#22b2e0"/>
        <path id="Path_35724" data-name="Path 35724" d="M1566.066,805.063c-.181.037-.365.07-.546.107v.01c-59.46,12.17-111.02,36.19-153.8,63.42l-.214.138-.429,32.579.213.053a128.408,128.408,0,0,0,63.81-.82c34.34-9.26,66.29-12.15,95.58-10.66.186.009.368.024.554.034Z" fill="#28bbeb"/>
      </g>
    </g>
    <g transform="matrix(1, 0, 0, 1, 0, 0)" filter="url(#Rectangle_2149)">
      <rect id="Rectangle_2149-2" data-name="Rectangle 2149" width="1920" height="1080" fill="#fff" opacity="0.746"/>
    </g>
  </g>
</svg>
