<svg xmlns="http://www.w3.org/2000/svg" xmlns:xlink="http://www.w3.org/1999/xlink" width="1920" height="1080" viewBox="0 0 1920 1080">
  <defs>
    <clipPath id="clip-You_Did_It_">
      <rect width="1920" height="1080"/>
    </clipPath>
  </defs>
  <g id="You_Did_It_" data-name="You Did It!" clip-path="url(#clip-You_Did_It_)">
    <rect width="1920" height="1080" fill="#fff"/>
    <g id="Background" transform="translate(-196 -18.002)">
      <rect id="Rectangle_436" data-name="Rectangle 436" width="2035.675" height="1162.328" transform="translate(167.147 0.002)" fill="#00a5f9"/>
      <g id="Group_402" data-name="Group 402">
        <g id="Group_640" data-name="Group 640">
          <path id="Path_3832" data-name="Path 3832" d="M2202.822,0V185.166c-162-14.847-310.083-16.888-446.113-10.568q-14.117.655-28.059,1.437-24.395,1.342-48.28,3.05c-.364.021-.728.053-1.082.073q-6.279.438-12.525.917-6.778.515-13.526,1.051-3.357.265-6.715.541h-.011q-48.086,3.936-94.08,9.121h-.011c-3.362.375-6.726.75-10.078,1.146q-15.555,1.8-30.881,3.7-9.465,1.17-18.835,2.4-9.823,1.279-19.543,2.613-19.445,2.655-38.523,5.487c-3.187.469-6.352.937-9.517,1.426q-14.244,2.141-28.268,4.394-18.71,2.969-37.045,6.1-4.592.765-9.152,1.561t-9.11,1.583q-18.164,3.169-35.973,6.476-4.451.812-8.891,1.656-22.163,4.122-43.782,8.423c-53.579,10.609-104.732,21.771-153.709,32.9l-.01.01q-20.132,4.562-39.783,9.142-19.647,4.545-38.826,9.058-9.588,2.248-19.064,4.477Q963.261,302.308,926.9,310.8q-4.263,1-8.5,1.968-15.649,3.622-30.985,7.1-4.421,1-8.809,1.989-5.388,1.218-10.744,2.4c-2.249.5-4.478,1-6.716,1.489Q843.8,329.6,826.836,333.19c-2.551.541-5.1,1.072-7.632,1.6q-6.652,1.391-13.244,2.739c-42.594,8.683-83.346,15.961-122.536,21.146q-3.78.5-7.538.968c-1.385.177-2.759.354-4.144.51-1.832.24-3.665.458-5.5.667q-2.843.342-5.654.656c-1.01.114-2.009.218-3.019.333-.115.01-.24.031-.365.041q-5.934.657-11.828,1.229c-.187.021-.374.031-.562.052-1.239.125-2.478.239-3.717.354-1.489.146-2.967.281-4.445.406-.552.052-1.114.1-1.666.146-1.427.135-2.853.25-4.269.364-1.468.125-2.926.25-4.384.354-.364.032-.739.063-1.114.094-1.791.135-3.581.271-5.372.4a1.62,1.62,0,0,1-.229.021q-6.247.436-12.442.8-5.013.28-10,.5c-1.145.052-2.28.1-3.414.146-1.344.052-2.676.1-4.009.145q-2.921.111-5.81.188c-.447.021-.885.031-1.332.031h-.011c-155.031,4.092-286.531-39.721-415.46-181.914V0Z" fill="#3ac2fa"/>
          <path id="Path_3833" data-name="Path 3833" d="M1378.211,554.242q-5.763,2.263-11.515,4.539t-11.516,4.54l-11.526,4.529q-11.525,4.514-23.051,9.006-5.763,2.248-11.526,4.477-17.289,6.715-34.588,13.317-5.763,2.2-11.526,4.394-7.481,2.843-14.972,5.664-5.605,2.107-11.2,4.206-6.589,2.453-13.16,4.894-4.857,1.8-9.714,3.581-6.717,2.484-13.411,4.9-4.653,1.719-9.308,3.384-5.668,2.061-11.349,4.081t-11.338,4.04q-5.67,2.015-11.328,4-4.592,1.609-9.162,3.2L1084.225,886.45q12.774,2.67,24.925,6.122l-.012,0c96.453-22.3,216.439-20.724,355.489,39.113l0-.013,51.163-431.744v-.011c-1.239.479-2.478.969-3.717,1.458-44.375,17.346-89.062,35.171-133.864,52.871" fill="#16b6fa"/>
          <path id="Path_3834" data-name="Path 3834" d="M457.77,684.795q-5.512-2.594-11-5.342-2.733-1.374-5.466-2.779t-5.446-2.864q-5.434-2.889-10.817-5.945-2.7-1.515-5.373-3.082c-1.7-.989-3.373-1.988-5.06-3-.344-.2-.677-.406-1.02-.6q-4.967-3-9.892-6.133c-1.759-1.124-3.519-2.249-5.268-3.4h-.01v.01L236.031,902.515c51.59-17.95,99.495-24.728,143.328-23.853h.011l106.3-181.811q-8.45-3.357-16.805-7.017-5.561-2.453-11.1-5.039" fill="#16b6fa"/>
          <path id="Path_3835" data-name="Path 3835" d="M885.038,715.02q-8.418,1.656-16.794,3.175-5.42.985-10.808,1.916c-2.842.49-5.685.979-8.516,1.437q-3.483.579-6.945,1.125c-2.02.323-4.029.635-6.039.947-.3.042-.593.083-.895.136-2.187.333-4.384.655-6.57.978q-4.311.641-8.59,1.218-6.231.859-12.421,1.635-3.437.438-6.861.843t-6.851.792q-8.9,1-17.762,1.811l-3.791.344c-1.749.156-3.508.3-5.258.448s-3.5.291-5.247.416c-1.249.1-2.488.2-3.738.281s-2.489.177-3.727.261c-.635.051-1.27.093-1.906.135-1.551.093-3.1.2-4.643.281q-3.437.219-6.872.4c-1.166.063-2.332.125-3.488.177-1.02.053-2.03.094-3.041.136-1.186.062-2.363.1-3.55.156-.229.01-.458.021-.687.021-1.6.073-3.207.125-4.8.177q-4.029.14-8.038.229-1.608.047-3.217.062c-1.052.032-2.093.042-3.134.053q-8.465.14-16.867.072c-1.062-.01-2.124-.021-3.186-.041-1.77-.011-3.55-.031-5.32-.073-1.885-.032-3.769-.073-5.654-.135-1.822-.042-3.633-.094-5.455-.167-1.406-.042-2.822-.094-4.228-.156-.583-.021-1.166-.053-1.738-.073-1.208-.052-2.426-.1-3.634-.167-.125-.01-.25-.01-.375-.02q-5.763-.282-11.484-.667c-.115,0-.229-.01-.344-.021q-3.216-.219-6.424-.468c-1.583-.115-3.165-.24-4.748-.385-1.6-.125-3.217-.271-4.82-.427-1.374-.115-2.738-.251-4.1-.386q-2.593-.249-5.175-.531c-.427-.041-.864-.083-1.291-.135q-6.311-.687-12.588-1.51c-2.114-.27-4.238-.562-6.351-.853l-.209-.032c-2-.281-3.987-.572-5.986-.874q-2.859-.438-5.716-.906c-.375-.052-.739-.115-1.114-.177L526.759,849.956l0,.009C616.081,821.711,725.621,817.6,851.93,870.8l.009-.021L919.022,707.9q-14.134,3.155-28.185,5.965c-1.936.4-3.863.781-5.8,1.156" fill="#16b6fa"/>
          <path id="Path_3836" data-name="Path 3836" d="M1515.792,499.913l36.639-309.125h-.011Z" fill="#00aaf9"/>
          <path id="Path_3837" data-name="Path 3837" d="M1770.943,408.341q-9.121,2.828-18.294,5.758c-3.6,1.135-7.194,2.3-10.807,3.477q-4.716,1.517-9.443,3.082c-.8.261-1.594.521-2.385.792-3.29,1.072-6.57,2.165-9.87,3.279-3.488,1.156-6.986,2.343-10.484,3.53q-6.452,2.17-12.922,4.414-4.67,1.593-9.349,3.239-10.059,3.483-20.157,7.08c-4.384,1.561-8.757,3.123-13.151,4.706q-5.559,2-11.12,4.019v.01L1637,904.368c44.541-28.352,98.224-53.361,160.132-66.032v-.01Z" fill="#16b6fa"/>
          <path id="Path_3838" data-name="Path 3838" d="M1756.71,174.6v.01q-14.1.657-28.06,1.427-24.395,1.357-48.279,3.05c-.365.021-.729.053-1.083.073q-6.279.453-12.525.917-6.778.515-13.525,1.051-3.359.265-6.716.541h-.01L1648.907,0h97.172ZM989.863,0,805.96,337.532q6.591-1.344,13.244-2.739c2.53-.531,5.081-1.062,7.632-1.6q16.961-3.576,34.317-7.434c2.238-.489,4.467-.989,6.716-1.489q5.356-1.186,10.745-2.4,4.387-.984,8.808-1.989,15.336-3.466,30.985-7.1,4.233-.969,8.5-1.968,36.373-8.434,74.528-17.461,9.478-2.233,19.064-4.477,19.178-4.5,38.825-9.058t39.783-9.142l.011-.01L1144.853,159.6,1210.593,0ZM820.224,0,582.618,367.08h-.011v.011c.448-.011.9-.021,1.343-.042q2.889-.078,5.81-.188c1.333-.041,2.666-.093,4.009-.145,1.134-.042,2.27-.094,3.415-.146q4.981-.219,9.995-.5,6.2-.359,12.442-.8a1.606,1.606,0,0,0,.229-.021c1.791-.125,3.581-.261,5.373-.4.374-.031.749-.062,1.113-.094,1.458-.1,2.916-.229,4.384-.354,1.416-.114,2.843-.229,4.269-.364.552-.042,1.114-.094,1.666-.146,1.478-.125,2.956-.26,4.445-.406,1.239-.115,2.478-.229,3.717-.354.188-.021.375-.031.563-.052,3.925-.385,7.871-.8,11.828-1.229.124-.01.249-.031.364-.041,1.01-.115,2.009-.219,3.02-.333q2.81-.314,5.653-.656c1.832-.209,3.665-.427,5.5-.667,1.385-.156,2.759-.333,4.144-.51q3.764-.468,7.538-.968L893.159,0Zm494.392,0-61.794,237.753v.01q21.632-4.28,43.782-8.433c2.957-.553,5.914-1.1,8.892-1.656q17.8-3.279,35.972-6.476,4.545-.782,9.11-1.583,4.56-.78,9.152-1.561,18.336-3.125,37.045-6.1,14.025-2.233,28.268-4.394c3.165-.478,6.331-.947,9.517-1.426q19.084-2.826,38.523-5.487,9.714-1.327,19.543-2.613,9.371-1.218,18.835-2.4,15.321-1.905,30.881-3.7,5.028-.579,10.078-1.146h.011L1575.035,0Z" fill="#83dbfc"/>
          <path id="Path_3839" data-name="Path 3839" d="M1020.495,288.867q-9.59,2.25-19.064,4.477Q963.262,302.308,926.9,310.8q-4.265,1-8.5,1.968-15.648,3.622-30.985,7.1-4.419,1-8.808,1.989-5.388,1.218-10.745,2.4c-2.249.5-4.477,1-6.716,1.489Q843.8,329.6,826.836,333.19c-2.551.542-5.1,1.072-7.632,1.6q-6.652,1.389-13.244,2.738L594.04,726.463v.01c.375.063.739.125,1.114.177q2.858.469,5.716.906c2,.3,3.987.594,5.986.875.074.01.136.021.209.031,2.113.292,4.237.583,6.351.854q6.279.827,12.588,1.51c.427.052.864.093,1.291.135,1.718.187,3.446.364,5.174.531,1.365.135,2.729.271,4.1.385,1.6.156,3.217.3,4.82.427q2.374.217,4.748.385,3.2.25,6.424.469c.115.01.229.02.344.02q5.716.392,11.484.667c.125.01.25.01.375.021,1.208.062,2.426.114,3.634.166.572.021,1.155.052,1.738.073,1.406.063,2.822.115,4.228.156,1.822.073,3.633.125,5.455.167q2.827.093,5.654.135c1.77.042,3.55.063,5.32.073,1.062.021,2.124.032,3.186.042q8.4.062,16.867-.073c1.041-.011,2.082-.021,3.134-.052q1.608-.015,3.217-.063,4.014-.093,8.038-.229c1.593-.052,3.2-.1,4.8-.177.229,0,.458-.01.687-.02,1.187-.053,2.364-.094,3.55-.156,1.011-.042,2.021-.084,3.041-.136,1.156-.052,2.322-.115,3.488-.177q3.435-.172,6.871-.4c1.541-.083,3.093-.187,4.644-.281.636-.041,1.271-.083,1.905-.135,1.239-.083,2.489-.167,3.728-.26s2.489-.177,3.738-.281c1.749-.126,3.5-.271,5.247-.417s3.509-.292,5.258-.448l3.79-.343q8.856-.813,17.763-1.812,3.42-.39,6.851-.791t6.861-.844q6.2-.765,12.421-1.634,4.28-.579,8.59-1.218c2.186-.323,4.383-.646,6.57-.979.3-.052.593-.094.895-.136,2.01-.312,4.019-.624,6.039-.947q3.467-.546,6.945-1.124c2.831-.458,5.674-.948,8.516-1.437q5.388-.937,10.808-1.916,8.37-1.515,16.794-3.176c1.936-.374,3.863-.76,5.8-1.155q14.042-2.812,28.185-5.966L1099.1,270.668q-20.132,4.575-39.783,9.141t-38.826,9.058" fill="#3ac2fa"/>
          <path id="Path_3840" data-name="Path 3840" d="M675.886,359.646c-1.385.177-2.759.354-4.144.51q-2.75.358-5.5.666-2.841.344-5.653.656c-1.01.115-2.009.219-3.02.333-.114.011-.239.032-.364.042q-5.934.641-11.828,1.229c-.187.02-.374.031-.562.051-1.239.126-2.478.24-3.717.355-1.489.145-2.967.281-4.446.406-.551.052-1.114.1-1.666.145-1.426.136-2.852.251-4.269.365-1.467.125-2.925.25-4.383.354l-1.114.094c-1.791.135-3.581.27-5.372.4a1.488,1.488,0,0,1-.229.021q-6.247.453-12.442.8-5.015.28-10,.5c-1.145.052-2.28.1-3.415.146-1.343.051-2.675.1-4.008.145q-2.921.109-5.81.188c-.447.02-.9.031-1.343.041L398.413,651.643h.01c1.749,1.156,3.509,2.28,5.268,3.4q4.92,3.123,9.891,6.133c.344.2.677.406,1.021.6,1.687,1.009,3.363,2.009,5.06,3q2.67,1.561,5.372,3.082,5.388,3.045,10.818,5.945,2.718,1.453,5.446,2.863t5.466,2.78q5.481,2.75,11,5.342t11.1,5.039q8.355,3.671,16.8,7.017h.011l197.74-338.174q-3.78.5-7.538.969" fill="#3ac2fa"/>
          <path id="Path_3841" data-name="Path 3841" d="M1756.71,174.608q-14.1.655-28.059,1.427-24.4,1.357-48.281,3.05c-.363.021-.727.052-1.082.073q-6.277.453-12.525.916-6.777.516-13.525,1.052-3.357.265-6.715.541h-.011l-.906,69.436-2.645,200.614q5.562-2.015,11.12-4.019c4.395-1.583,8.767-3.144,13.151-4.706q10.089-3.576,20.157-7.08,4.684-1.639,9.35-3.238,6.48-2.234,12.921-4.415c3.5-1.187,7-2.374,10.484-3.529,3.3-1.114,6.58-2.208,9.871-3.28.791-.271,1.582-.531,2.384-.792q4.732-1.561,9.443-3.081c3.613-1.177,7.2-2.343,10.807-3.478q9.166-2.936,18.294-5.758Z" fill="#3ac2fa"/>
          <path id="Path_3842" data-name="Path 3842" d="M1511.461,195.629q-9.465,1.188-18.835,2.4-9.823,1.281-19.543,2.614-19.443,2.655-38.523,5.486c-3.186.479-6.351.948-9.517,1.427q-14.242,2.155-28.267,4.394-18.711,2.982-37.045,6.1-4.593.781-9.152,1.562-4.562.8-9.111,1.582-18.162,3.186-35.972,6.477c-2.978.551-5.935,1.1-8.892,1.655q-22.161,4.155-43.782,8.434l-104.8,403.226q4.577-1.593,9.162-3.2,5.67-1.984,11.329-4,5.668-2,11.338-4.039,5.685-2.031,11.348-4.082,4.655-1.671,9.308-3.384,6.7-2.419,13.411-4.9,4.857-1.782,9.714-3.582,6.576-2.436,13.16-4.894,5.592-2.093,11.2-4.206,7.481-2.827,14.972-5.664,5.763-2.187,11.525-4.394,17.289-6.606,34.588-13.316,5.763-2.234,11.526-4.478,11.526-4.48,23.052-9.006l11.525-4.529q5.763-2.264,11.516-4.539t11.515-4.54c44.8-17.7,89.49-35.525,133.864-52.871,1.24-.489,2.479-.978,3.717-1.457l36.629-309.125q-5.045.561-10.079,1.145-15.555,1.8-30.881,3.7" fill="#3ac2fa"/>
          <path id="Path_3843" data-name="Path 3843" d="M1109.15,892.571l-.012,0c98.629-22.809,221.861-20.653,364.925,43.241l-.011,0q-5.076,1.25-10.235,2.7a396.9,396.9,0,0,0-57.536,21.146c-60.43,27.5-126.836,22.781-183.986-14.795-31.235-20.532-69.155-39.867-113.145-52.288m527.4,45.916a133.685,133.685,0,0,0,66.437-.854c35.754-9.641,69.02-12.65,99.516-11.1a295.208,295.208,0,0,1,46.019,5.987,113.777,113.777,0,0,0,40.273,1.281,386.18,386.18,0,0,1,41.429-14.566,129.476,129.476,0,0,0,15.773-10.7c33.6-26.5,65.4-42.958,95.247-51.663-91.249-31.433-173.085-33.1-244.114-18.543v.01c-61.908,12.671-115.591,37.68-160.132,66.032-13.151,8.381-25.509,17.044-37.046,25.779a298.5,298.5,0,0,1,31.506,7.018c1.687.479,3.384.916,5.092,1.322M589.916,947.67c25.041,16.878,52.163,26.477,79.6,28.778q9.231.109,18.637.448c27.112-.979,54.141-9.058,79.369-24.291a594.724,594.724,0,0,1,64.73-34.015v-.01h.01a486.844,486.844,0,0,1,68.362-24.811c-191.056-99.885-347.1-67.9-457.319-8.212a376.577,376.577,0,0,1,55.614,15.5,418.47,418.47,0,0,1,91,46.613" fill="#0096e5"/>
          <path id="Path_3844" data-name="Path 3844" d="M1109.151,892.571l-.012,0c98.629-22.808,221.861-20.652,364.924,43.242l-.011,0q-5.076,1.25-10.235,2.7a396.94,396.94,0,0,0-57.535,21.146c-60.43,27.5-126.836,22.781-183.986-14.795-31.236-20.532-69.155-39.867-113.145-52.288" fill="#009be5"/>
          <path id="Path_3845" data-name="Path 3845" d="M1930.222,919.236a386.087,386.087,0,0,0-41.428,14.566,441.172,441.172,0,0,0-82.836,45.8c-.073.052-.136.094-.209.146a108.548,108.548,0,0,1-94.788,14.15c-26.946-8.59-52.028-10.162-75.059-6.893a168.984,168.984,0,0,0-44.624,12.9,209.359,209.359,0,0,0-38.826,22.573,27.834,27.834,0,0,1-29.351,2.176q-7.807-4.092-15.471-7.694a352.378,352.378,0,0,0-50.81-19.481c-66.541-19.6-124.233-13.15-171.429,3.946a177.094,177.094,0,0,1-109.053,3.873c-44.469-12.723-84.95-13.826-120.943-7.944v.011c-.635.093-1.281.208-1.916.312a270.27,270.27,0,0,0-56.921,16.4,114.874,114.874,0,0,1-77.755,3.352q-18.381-5.732-36.379-10.578c-27.091-7.32-53.516-13.161-79.244-17.69A834.828,834.828,0,0,0,688.151,976.9q-9.4-.327-18.637-.448a757.521,757.521,0,0,0-229.1,32,738.163,738.163,0,0,0-78.932,28.809q-8.511,3.67-16.585,7.4c-.167.073-.334.145-.49.229a346.826,346.826,0,0,1,43.49,22.448,132.776,132.776,0,0,0,15.941,8.225,139.513,139.513,0,0,0,77.848,9.475c40.481-6.55,87.428-7.1,140.018,3.779a166.926,166.926,0,0,0,68.811-.354,366.233,366.233,0,0,1,75.11-8.121c42.251-.229,89.646,6.6,141.538,24.717a229.409,229.409,0,0,0,117.882,9.08,222.548,222.548,0,0,0,59.138-19.991c79.744-40.221,204.883-74.194,363.933-23.156a641.405,641.405,0,0,1,73.611,28.872,194.395,194.395,0,0,0,170.867-3.644,456.693,456.693,0,0,1,117.7-41.668c93.685-19.251,215.242-13.244,358.217,62.314q16.96,8.951,34.306,19.242V943.9c-104.409-46.873-196.074-46.748-272.6-24.665" fill="#0071ae"/>
          <path id="Path_3846" data-name="Path 3846" d="M379.543,1062.434q-8.543-4.878-16.919-9.079,8.376,4.2,16.919,9.079m-18.06-25.181a738.351,738.351,0,0,1,78.931-28.81,757.525,757.525,0,0,1,229.1-31.995c-27.435-2.3-54.558-11.9-79.6-28.778a418.469,418.469,0,0,0-91-46.613,376.512,376.512,0,0,0-55.63-15.5,368.6,368.6,0,0,0-63.918-6.893h-.01c-43.834-.874-91.738,5.9-143.328,23.854A528.016,528.016,0,0,0,167.147,932.3V1037.44l.5-.187a227.032,227.032,0,0,1,53.735-12.588,224.656,224.656,0,0,1,53.527.729h.011q8.37,1.094,16.971,2.863a263.169,263.169,0,0,1,32.713,9q9.512,3.264,19.273,7.4c.177.073.354.145.531.229.156-.084.322-.156.489-.229q8.074-3.734,16.586-7.4m520.941-30.4q17.992,4.84,36.38,10.578a114.865,114.865,0,0,0,77.754-3.353,270.348,270.348,0,0,1,56.921-16.4c.636-.1,1.281-.219,1.916-.312v-.011c35.994-5.882,76.474-4.779,120.943,7.944a177.094,177.094,0,0,0,109.053-3.873c47.2-17.1,104.888-23.551,171.428-3.946a352.45,352.45,0,0,1,50.811,19.48q7.668,3.609,15.472,7.7a27.832,27.832,0,0,0,29.35-2.176,209.414,209.414,0,0,1,38.825-22.573,169,169,0,0,1,44.625-12.9c23.03-3.27,48.113-1.7,75.059,6.893a108.548,108.548,0,0,0,94.788-14.15c.074-.052.136-.094.209-.146a441.172,441.172,0,0,1,82.836-45.8,113.777,113.777,0,0,1-40.273-1.281,295.234,295.234,0,0,0-46.021-5.987c-30.495-1.551-63.761,1.458-99.515,11.1a133.689,133.689,0,0,1-66.438.854c-1.706-.406-3.4-.843-5.09-1.322a298.549,298.549,0,0,0-31.506-7.018c-37.243-6.184-79.4-5.851-125.9,5.664q-5.078,1.25-10.235,2.7a396.951,396.951,0,0,0-57.536,21.146c-60.429,27.5-126.835,22.781-183.985-14.795-31.236-20.532-69.155-39.867-113.145-52.288q-12.15-3.435-24.926-6.122c-53.548-11.224-115.081-11.755-183.6,7.32a486.615,486.615,0,0,0-68.364,24.811h-.011v.01A594.813,594.813,0,0,0,767.52,952.6c-25.227,15.233-52.256,23.312-79.368,24.291a834.845,834.845,0,0,1,115.029,12.265c25.727,4.529,52.153,10.37,79.243,17.69m-525.992,43.472q-1.227-.585-2.45-1.156,1.224.57,2.45,1.156M2041.243,856.869c-29.852,8.7-61.649,25.166-95.248,51.663a129.476,129.476,0,0,1-15.773,10.7c76.527-22.083,168.192-22.208,272.6,24.665V883.555c-44.084-28.955-98.455-45.135-161.58-26.686M351.09,1047.838c-.62-.282-1.241-.567-1.859-.844.618.277,1.239.562,1.859.844m10.467,4.979c-.992-.494-1.981-.976-2.97-1.456.989.481,1.978.962,2.97,1.456" fill="#0089d0"/>
          <path id="Path_3847" data-name="Path 3847" d="M802.907,989.115A834.844,834.844,0,0,0,688.151,976.9q-9.4-.328-18.637-.448a757.515,757.515,0,0,0-229.1,31.995l-.384.119-36.441,66.883c.083.036.165.076.248.112a139.509,139.509,0,0,0,77.849,9.475c40.481-6.549,87.427-7.1,140.017,3.78a166.924,166.924,0,0,0,68.811-.354,366.233,366.233,0,0,1,74.819-8.118Z" fill="#0080bd"/>
          <path id="Path_3848" data-name="Path 3848" d="M440.414,1008.444a757.52,757.52,0,0,1,229.1-31.995c-27.435-2.3-54.557-11.9-79.6-28.779a418.486,418.486,0,0,0-91-46.612c-.087-.032-.176-.061-.262-.093l-58.626,107.6c.13-.039.255-.08.384-.119" fill="#0094da"/>
          <path id="Path_3849" data-name="Path 3849" d="M831.886,918.757a594.862,594.862,0,0,0-64.366,33.849c-25.227,15.232-52.256,23.312-79.369,24.291a834.524,834.524,0,0,1,114.756,12.218Z" fill="#0094da"/>
          <path id="Path_3850" data-name="Path 3850" d="M526.378,850.085l-27.723,50.88.262.092a418.516,418.516,0,0,1,91,46.613c25.04,16.878,52.163,26.478,79.6,28.779q9.23.109,18.637.447c27.112-.978,54.141-9.058,79.369-24.29a594.771,594.771,0,0,1,64.366-33.849l19.8-48.061c-126.382-53.164-235.967-48.954-325.3-20.611" fill="#009be5"/>
          <path id="Path_3851" data-name="Path 3851" d="M1803.078,926.57c-.194-.01-.384-.025-.578-.035-30.5-1.551-63.76,1.457-99.515,11.1a133.712,133.712,0,0,1-66.438.854c-.073-.018-.148-.038-.222-.055l-.64,48.608c.073-.01.144-.024.217-.035,23.031-3.269,48.112-1.7,75.058,6.893a108.553,108.553,0,0,0,94.79-14.15l.207-.145.336-.231Z" fill="#0094da"/>
          <path id="Path_3852" data-name="Path 3852" d="M1797.7,838.215c-.189.039-.38.073-.568.112v.01c-61.909,12.671-115.592,37.68-160.133,66.031l-.223.144-.447,33.921.222.055a133.712,133.712,0,0,0,66.438-.854c35.753-9.641,69.019-12.65,99.515-11.1.193.01.384.025.577.035Z" fill="#009be5"/>
          <path id="Path_3853" data-name="Path 3853" d="M1827.4,668.068c-6.127,11.593,9.333,27.114,2.844,46.212s-6.955,37.407,6.8,53.837,8.8,27.562,5.744,35.888-21.426,19.757-4.123,37.163,4.707,25.215-6,36-10.247,18.6,2.044,34.734,7.792,18.381,3.622,33.716,7.622,22.168,18.875,27.63,17.158,19.046,7.763,31.77-4.757,20.078,3.814,25.963,10.783,8.892,6.181,17.907-11,15.887,5.118,22.442,13.964,17.771,20.073,16c0,0,4.132-2.547,4.6-9.883s-3.989-13.745,1.275-25.554,14.936-11.136,14.368-25.693-12.25-12.866-7.328-27.122,8.259-22.516-2.7-33.16-13.7-14.73-11.668-22.919,10.249-22.588-6.811-36.438-11.812-27.582-2.561-36.123,18.665-24.507,10.369-39.316-7.891-18.678-1.548-27.973,19.728-19.019-.824-38.945-16.32-28.477-12.659-41.792,2.194-19.148-6.65-24.272-22.941-8.359-19.757-24.691-15.305-34.794-30.851-5.382" fill="#27a33e"/>
          <path id="Path_3854" data-name="Path 3854" d="M1897.32,764.206c-20.551-19.926-16.32-28.478-12.66-41.792s2.195-19.148-6.65-24.273-22.941-8.358-19.756-24.691c2.018-10.351-4.672-21.553-13.8-20.884l52.046,433.716a3.2,3.2,0,0,0,3.65,1.05s4.131-2.548,4.6-9.884-3.988-13.745,1.275-25.553,14.937-11.136,14.368-25.694-12.249-12.866-7.327-27.122,8.259-22.516-2.7-33.159-13.7-14.73-11.668-22.92,10.249-22.587-6.811-36.438-11.813-27.582-2.562-36.123,18.665-24.506,10.37-39.315-7.891-18.679-1.549-27.974,19.728-19.018-.823-38.944" fill="#27a33e"/>
          <path id="Path_3855" data-name="Path 3855" d="M1903.6,1110.689l-2.658.319a.821.821,0,0,1-.913-.717l-2.958-24.649,4.288-.515,2.958,24.65a.82.82,0,0,1-.717.912" fill="#fbb040"/>
          <path id="Path_3856" data-name="Path 3856" d="M2015.482,756.771c4.471,8.909-7.527,20.458-2.9,35.077s4.687,28.541-6.028,40.808-7.127,20.807-4.94,27.184,15.968,15.358,2.539,28.31-3.981,19.089,3.986,27.46,7.49,14.3-2.109,26.366-6.217,13.845-3.293,25.567-6.148,16.726-14.788,20.7-13.345,14.2-6.409,24.021,3.294,15.336-3.314,19.671-8.339,6.586-4.985,13.511,8.1,12.251-4.25,16.975-10.9,13.282-15.512,11.837c0,0-3.1-2-3.335-7.585s3.252-10.383-.559-19.441-11.174-8.7-10.509-19.758,9.516-9.582,6-20.5-5.916-17.245,2.583-25.159,10.646-10.976,9.235-17.233-7.427-17.331,5.761-27.584,9.419-20.774,2.525-27.413-13.793-18.925-7.251-30.047,6.3-14.07,1.624-21.236-14.689-14.77,1.25-29.585,12.86-21.383,10.291-31.56-1.362-14.588,5.443-18.341,17.569-5.986,15.41-18.45,12.19-26.2,23.534-3.6" fill="#27a33e"/>
          <path id="Path_3857" data-name="Path 3857" d="M1960.8,828.719c15.938-14.815,12.86-21.383,10.291-31.56s-1.361-14.588,5.443-18.341,17.57-5.986,15.411-18.45c-1.369-7.9,3.9-16.306,10.822-15.651l-46.5,328.8a2.431,2.431,0,0,1-2.791.739s-3.1-2-3.335-7.585,3.251-10.383-.56-19.441-11.174-8.7-10.509-19.758,9.516-9.582,6-20.5-5.917-17.245,2.583-25.159,10.645-10.976,9.235-17.233-7.428-17.33,5.76-27.584,9.419-20.774,2.525-27.413-13.793-18.925-7.251-30.047,6.3-14.07,1.625-21.236-14.689-14.77,1.249-29.585" fill="#27a33e"/>
          <path id="Path_3858" data-name="Path 3858" d="M1950.482,1091.953l2.015.285a.624.624,0,0,0,.705-.53l2.643-18.687-3.25-.46-2.643,18.687a.624.624,0,0,0,.53.7" fill="#fbb040"/>
          <path id="Path_3859" data-name="Path 3859" d="M351.729,773.424c4.206,7.957-6.406,18.611-1.952,31.719s4.774,25.676-4.666,36.953-6.038,18.919-3.942,24.633,14.706,13.561,2.83,25.508-3.231,17.308,4.121,24.712,7.033,12.767-1.4,23.841-5.349,12.616-2.486,23.143S339,979.148,331.275,982.9,319.5,995.97,325.947,1004.7s3.265,13.782-2.618,17.821-7.4,6.1-4.243,12.291,7.549,10.905-3.513,15.4-9.584,12.2-13.777,10.981c0,0-2.836-1.748-3.155-6.784s2.737-9.434-.875-17.539-10.253-7.644-9.863-17.636,8.409-8.831,5.03-18.616-5.669-15.455,1.853-22.76,9.4-10.111,8.009-15.732-7.035-15.5,4.675-25.01,8.108-18.932,1.758-24.794-12.811-16.821-7.117-26.986,5.416-12.821,1.063-19.2-13.541-13.054.565-26.731,11.2-19.546,8.689-28.685-1.506-13.143,4.565-16.66,15.746-5.738,13.56-16.948,10.506-23.882,21.176-3.694" fill="#fbb040"/>
          <path id="Path_3860" data-name="Path 3860" d="M303.738,839.412c14.106-13.677,11.2-19.547,8.689-28.686s-1.506-13.143,4.565-16.66,15.746-5.737,13.561-16.947c-1.386-7.106,3.206-14.8,9.471-14.335l-35.723,297.7a2.2,2.2,0,0,1-2.506.72s-2.836-1.749-3.155-6.784,2.738-9.434-.875-17.539-10.252-7.644-9.862-17.636,8.408-8.831,5.029-18.616-5.668-15.455,1.854-22.761,9.4-10.11,8.008-15.731-7.034-15.5,4.675-25.011,8.108-18.932,1.758-24.794-12.811-16.821-7.117-26.985,5.416-12.821,1.063-19.2-13.541-13.054.565-26.731" fill="#fbb040"/>
          <path id="Path_3861" data-name="Path 3861" d="M299.684,1077.263l1.313.158a.82.82,0,0,0,.912-.717l2-16.664-2.943-.353-2,16.664a.82.82,0,0,0,.718.912" fill="#fbb040"/>
          <path id="Path_3862" data-name="Path 3862" d="M222.634,834.308c-3.069,6.115,5.167,14.042,1.992,24.076s-3.217,19.591,4.137,28.01,4.892,14.282,3.391,18.659-10.96,10.542-1.742,19.432,2.732,13.1-2.737,18.848-5.141,9.815,1.448,18.1,4.268,9.5,2.26,17.549,4.22,11.48,10.151,14.206,9.16,9.747,4.4,16.488-2.261,10.526,2.275,13.5,5.723,4.52,3.421,9.274-5.563,8.408,2.917,11.651,7.48,9.117,10.647,8.125c0,0,2.127-1.375,2.289-5.207s-2.232-7.126.384-13.344,7.67-5.974,7.213-13.562-6.531-6.577-4.12-14.068,4.061-11.836-1.773-17.268-7.307-7.534-6.339-11.829,5.1-11.9-3.954-18.933-6.465-14.259-1.733-18.816,9.468-12.99,4.977-20.624-4.321-9.657-1.115-14.576,10.082-10.138-.858-20.307-8.826-14.676-7.063-21.662.934-10.013-3.736-12.589-12.06-4.108-10.578-12.664-8.367-17.982-16.153-2.468" fill="#fbb040"/>
          <path id="Path_3863" data-name="Path 3863" d="M260.164,883.692c-10.94-10.169-8.827-14.677-7.063-21.663s.934-10.013-3.737-12.589-12.059-4.108-10.577-12.663c.939-5.422-2.674-11.192-7.428-10.743l31.918,225.684a1.669,1.669,0,0,0,1.916.507s2.127-1.374,2.289-5.206-2.232-7.127.384-13.344,7.67-5.974,7.213-13.562-6.532-6.577-4.121-14.068,4.061-11.837-1.773-17.269-7.307-7.533-6.339-11.828,5.1-11.9-3.953-18.933-6.465-14.259-1.733-18.816,9.467-12.99,4.977-20.624-4.322-9.657-1.116-14.576,10.083-10.138-.857-20.307" fill="#fbb040"/>
          <path id="Path_3864" data-name="Path 3864" d="M267.055,1064.4l-1,.141a.624.624,0,0,1-.7-.53l-1.786-12.633,2.231-.315,1.786,12.632a.624.624,0,0,1-.53.705" fill="#fbb040"/>
          <path id="Path_4062" data-name="Path 4062" d="M2059.36,626.037c-.89-2.1-1.285-3.373-1.039-3.507.273-.149,1.3,1.124,2.817,3.418q-.892.042-1.778.089" fill="#27a33e"/>
          <path id="Path_4419" data-name="Path 4419" d="M522.447,410.473h0c-6.315,16.046-39,31.645-56.767,20.659a5.381,5.381,0,0,1-2.325-3.644c-.658-3.7,2.256-6.778,5.355-5.545,12.518,4.979,33.348-2.989,46.234-17.4,2.393-2.675,6.567.662,7.5,5.928" fill="#282729"/>
          <path id="Path_4420" data-name="Path 4420" d="M387.056,370.133h0c17.161-1.7,45.943,20.279,44.267,41.105a5.377,5.377,0,0,1-2.183,3.731c-3,2.275-7.061,1.082-7.377-2.238-1.275-13.411-17.863-28.317-36.562-33.218-3.472-.91-2.406-6.146,1.855-9.38" fill="#282729"/>
          <path id="Path_4421" data-name="Path 4421" d="M553.68,288.424l-39.442-25.493a10.147,10.147,0,0,0-1.935-.958c-17.457-8.338-48.177-.173-56.2,26.551-7.372,24.568-13.52,45.259-7.1,58.089L415.99,397.691l39.192,25.332,16.093-24.9a1.26,1.26,0,0,1,1.87-.276c11.411,9.38,24.947,20.168,38.082,15.252,6.834-2.557,14.754-14.12,18.881-20.5L566.4,336.448c10.022-15.505,4.328-37.006-12.719-48.024" fill="#e8a967"/>
          <path id="Path_4422" data-name="Path 4422" d="M537.992,388.5l-33.733-21.8a3.642,3.642,0,0,1-1.081-5.034l18.348-28.387a3.64,3.64,0,0,1,5.034-1.081L560.293,354a3.642,3.642,0,0,1,1.081,5.034l-18.348,28.387a3.642,3.642,0,0,1-5.034,1.081" fill="#282729"/>
          <path id="Path_4423" data-name="Path 4423" d="M538.39,388.756l-23.575-15.238a3.164,3.164,0,0,1-.94-4.377l18.862-29.183a3.169,3.169,0,0,1,4.379-.942l23.575,15.239a3.167,3.167,0,0,1,.94,4.378l-18.862,29.182a3.167,3.167,0,0,1-4.379.941" fill="#f0b520"/>
          <path id="Path_4424" data-name="Path 4424" d="M517.251,412.3l-6.552-4.235a2.725,2.725,0,0,1-.809-3.769l9.5-14.7a2.728,2.728,0,0,1,3.77-.81l6.551,4.235a2.726,2.726,0,0,1,.81,3.769l-9.5,14.7a2.726,2.726,0,0,1-3.769.81" fill="#282729"/>
          <path id="Path_4425" data-name="Path 4425" d="M520.354,414.3l-4.409-2.85a2.345,2.345,0,0,1-.7-3.242l9.913-15.337a2.345,2.345,0,0,1,3.242-.7l4.409,2.85a2.345,2.345,0,0,1,.7,3.242L523.6,413.609a2.345,2.345,0,0,1-3.242.7" fill="#282729"/>
          <path id="Path_4426" data-name="Path 4426" d="M538.807,389.026l-16.954-10.958a2.671,2.671,0,0,1-.793-3.692l19.4-30.017a2.669,2.669,0,0,1,3.692-.793l16.954,10.958a2.671,2.671,0,0,1,.793,3.692l-19.4,30.017a2.67,2.67,0,0,1-3.692.793" fill="#316cc9"/>
          <path id="Path_4427" data-name="Path 4427" d="M539.24,389.306,528.9,382.621a2.155,2.155,0,0,1-.64-2.979l19.961-30.883a2.156,2.156,0,0,1,2.98-.64l10.342,6.685a2.155,2.155,0,0,1,.64,2.979L542.22,388.666a2.156,2.156,0,0,1-2.98.64" fill="#4e81d1"/>
          <rect id="Rectangle_437" data-name="Rectangle 437" width="14.839" height="66.182" transform="matrix(0.543, -0.84, 0.84, 0.543, 461.128, 322.765)" fill="#282729"/>
          <path id="Path_4428" data-name="Path 4428" d="M570.274,311.143a68.77,68.77,0,0,0-30.815-47.413c-31.7-20.489-73.66-11.933-93.724,19.108a66.43,66.43,0,0,0-5.251,61.906,19.171,19.171,0,0,1-1.745,17.753l-22.748,35.195,39.192,25.331,16.093-24.9a1.4,1.4,0,0,1,1.273-.552c-18.977-13.16-28.543-35.708-12.127-61.105,20.8-32.188,60.573-20.323,90.158-1.2a68.7,68.7,0,0,1,10.924,8.756l4.9-7.574a31.832,31.832,0,0,0,3.874-25.306" fill="#282729"/>
          <path id="Path_4429" data-name="Path 4429" d="M547.565,457.7l-3.892,18.729c-2.281,10.979-12.451,18.833-22.349,17.262L419.7,477.559c-10.391-1.127-17.007-10.743-14.775-21.478s12.462-18.523,22.852-17.4Z" fill="#282729"/>
          <path id="Path_4430" data-name="Path 4430" d="M641.587,416.251l4.055,21.527-110.7,52.791c-8.615,4.318-17.862-.124-19.613-9.421l-3.674-19.505Z" fill="#282729"/>
          <path id="Path_4431" data-name="Path 4431" d="M642.91,409.082c-1.885,2.178-4.081,6.51-5.221,8.895-.95,8.784.564,16.056,7.514,20,.99-.382,1.986-.756,2.971-1.141a14.057,14.057,0,0,0,9.19-.3l12.17-4.574c7.652-2.875,11-11.647,7.351-18-2.965-5.158-9.9-7.583-16.089-5.256l-12.071,4.536a38.285,38.285,0,0,1,6.009-4.929,3.557,3.557,0,0,0,1.5-4.157,3.219,3.219,0,0,0-.424-.776,3.881,3.881,0,0,0-5.25-.687,45.577,45.577,0,0,0-7.653,6.385" fill="#f5d4b5"/>
          <path id="Path_4432" data-name="Path 4432" d="M385.849,596.205l-86.881-56.156,99.386-153.765a18.068,18.068,0,0,1,24.983-5.367l45.891,29.662a30.739,30.739,0,0,1,9.13,42.5Z" fill="#282729"/>
          <path id="Path_4433" data-name="Path 4433" d="M349.329,652.706l-66.244-42.817a24.572,24.572,0,0,1-7.3-33.976l23.181-35.864L385.849,596.2Z" fill="#282729"/>
          <path id="Path_4434" data-name="Path 4434" d="M271.877,732.417l-25.15-16.256,51.349-98.435,51.254,34.98-48.937,75.713c-5.648,8.737-18.415,10.527-28.516,4" fill="#282729"/>
          <path id="Path_4435" data-name="Path 4435" d="M117.08,842.543,96.231,817.054,279.8,683.166l17.412,21.286c8.1,9.909,6.69,23.143-3.121,29.179Z" fill="#282729"/>
          <path id="Path_4436" data-name="Path 4436" d="M413.743,386.246a101.216,101.216,0,0,1,19.233,42.4c4.419,23.248-.512,45.414-13.881,62.412-14.15,17.986-36.76,28.3-62.035,28.3a102.257,102.257,0,0,1-39.452-8.158l-9.327,14.432c44.923,20.106,96.057,11.606,124.142-24.1,24.735-31.448,24.748-75.307,3.82-111.915a38.093,38.093,0,0,0-22.5-3.384" fill="#3e89ff"/>
          <path id="Path_4437" data-name="Path 4437" d="M304.521,722.032l15.838-24.5c-2.323-22.831-13.248-41.371-31.706-56.315l-8.659,14.426c16.625,18.363,25.31,40.266,24.527,66.393" fill="#dd9a00"/>
          <path id="Path_4438" data-name="Path 4438" d="M242.785,715.375,221.2,694.867,303.183,601.6l46.146,51.111-76.966,64.636c-7.665,7.15-20.908,6.269-29.578-1.968" fill="#282729"/>
          <path id="Path_4439" data-name="Path 4439" d="M34.51,696.544l-1.985-31.258,239.689,10.988,1.658,26.105c.772,12.151-8.643,21.064-20.758,19.652Z" fill="#282729"/>
          <path id="Path_4440" data-name="Path 4440" d="M463.7,538.963l-18.693,4.059c-10.958,2.379-22.269-3.718-24.857-13.4l-26.575-99.41c-3.2-9.951,2.9-19.9,13.616-22.231s21.99,3.855,25.185,13.806Z" fill="#282729"/>
          <path id="Path_4441" data-name="Path 4441" d="M539.8,608.012l-18.019,12.456L428.543,540.8c-7.447-6.116-7.148-16.37.634-21.749L445.5,507.762Z" fill="#282729"/>
          <path id="Path_4442" data-name="Path 4442" d="M116.131,846.886h0a8.529,8.529,0,0,0-4.014,8.482l.043.3c2.5,17.833,10.053,33.983,20.457,48.554,3.732,5.228,22.451,31.6,25.993,36.964L163.9,949.2a5.415,5.415,0,0,1-.887,7.606L111.865,889.93c-.01.009-.019.023-.03.032l-9.74-12.313L74.358,842.588c-.012-.016-.019-.033-.03-.048l-1.235-1.559a4.614,4.614,0,0,1,.681-6.427L94.3,816.51a2.982,2.982,0,0,1,4.307.389L117.277,840.5a4.327,4.327,0,0,1-1.146,6.382" fill="#3e89ff"/>
          <path id="Path_4443" data-name="Path 4443" d="M72.439,836.418l.036-.088a4.53,4.53,0,0,1,.347-.666l.02-.03a4.536,4.536,0,0,1,.932-1.08L94.52,816.313a2.7,2.7,0,0,1,3.9.352l2.065,2.61a37.664,37.664,0,0,0-1.343,48.339l65.9,85.515a5.394,5.394,0,0,1-2.02,3.677L111.865,889.93c-.011.009-.019.023-.03.032l-9.74-12.313L76.942,845.854l-2.584-3.266c-.012-.016-.019-.033-.031-.048l-1.234-1.559a4.551,4.551,0,0,1-.478-.743c-.052-.1-.085-.2-.129-.308a4.6,4.6,0,0,1-.187-.479c-.043-.142-.066-.286-.1-.43-.025-.125-.054-.249-.068-.375a4.626,4.626,0,0,1-.022-.526c0-.091,0-.182,0-.273a4.523,4.523,0,0,1,.08-.6c.012-.058.021-.116.035-.173a4.579,4.579,0,0,1,.206-.653" fill="#316cc9"/>
          <path id="Path_4444" data-name="Path 4444" d="M547.887,610.613c-2.545-1.339-7.245-2.494-9.816-3.063-8.717,1.061-15.4,4.175-17.6,11.819.6.876,1.192,1.759,1.793,2.629a14.126,14.126,0,0,0,2.42,8.864l7.249,10.791c4.558,6.787,13.819,8.058,19.115,3.077,4.3-4.046,5.036-11.33,1.348-16.822l-7.19-10.7a38.526,38.526,0,0,1,6.163,4.724,3.535,3.535,0,0,0,4.369.522,3.112,3.112,0,0,0,.652-.588,3.886,3.886,0,0,0-.554-5.256,45.842,45.842,0,0,0-7.953-5.994" fill="#e8a967"/>
          <path id="Path_4445" data-name="Path 4445" d="M285.624,548.6,243.8,521.571a7.186,7.186,0,0,1-2.134-9.937L345.444,351.076a12.18,12.18,0,0,1,16.841-3.617L395.72,369.07a12.179,12.179,0,0,1,3.618,16.84L295.561,546.468a7.186,7.186,0,0,1-9.937,2.135" fill="#de6b0f"/>
          <rect id="Rectangle_438" data-name="Rectangle 438" width="6.311" height="41.162" transform="matrix(0.543, -0.84, 0.84, 0.543, 359.64, 349.721)" fill="#5c5b5d"/>
          <rect id="Rectangle_439" data-name="Rectangle 439" width="10.757" height="26.677" transform="matrix(0.543, -0.84, 0.84, 0.543, 369.57, 348.625)" fill="#282729"/>
          <rect id="Rectangle_440" data-name="Rectangle 440" width="5.737" height="31.122" transform="translate(373.241 338.19) rotate(-57.124)" fill="#5c5b5d"/>
          <rect id="Rectangle_441" data-name="Rectangle 441" width="31.176" height="64.173" transform="translate(311.775 403.165) rotate(-57.123)" fill="#c6c6c7"/>
          <rect id="Rectangle_442" data-name="Rectangle 442" width="29.832" height="64.173" transform="translate(262.212 479.848) rotate(-57.123)" fill="#c6c6c7"/>
          <path id="Path_4446" data-name="Path 4446" d="M278.238,629.975c13.571,21.876,18.052,45.968,11.548,72.736l19.723-16.563c4.321-26.089-2.967-48.793-20.163-68.81Z" fill="#fbc640"/>
          <path id="Path_4447" data-name="Path 4447" d="M645.317,436.055c-4.886-5.735-7.424-11.9-7.34-18.542l-13.745,4.8c.18,7.494,4.114,14.2,11.41,20.232l10.841-5.064Z" fill="#fbc640"/>
          <path id="Path_4448" data-name="Path 4448" d="M509.507,609.983l11.027,9.423a41.28,41.28,0,0,1,18.921-11.159l.341-.235-11.945-12.7c-7.24,2.644-13.315,7.6-18.344,14.672" fill="#fbc640"/>
          <path id="Path_4449" data-name="Path 4449" d="M34.284,701.161h0a8.528,8.528,0,0,0-8.511,3.951l-.161.261c-9.489,15.3-14.014,32.55-15.339,50.405C9.8,762.184,7.31,794.431,6.6,800.816l-1.056,9.545A5.413,5.413,0,0,1,0,815.639l3.468-84.124c-.013,0-.029.006-.043.005l.391-15.694,1.112-44.692c0-.02.006-.038.007-.057l.047-1.988a4.616,4.616,0,0,1,4.636-4.5l27.316-.739A2.981,2.981,0,0,1,40,666.9l-.749,30.089a4.327,4.327,0,0,1-4.963,4.172" fill="#3e89ff"/>
          <path id="Path_4450" data-name="Path 4450" d="M7.4,665.164l.085-.045a4.6,4.6,0,0,1,.692-.29l.034-.01a4.592,4.592,0,0,1,1.408-.234l27.615-.748A2.7,2.7,0,0,1,40,666.6l-.083,3.328A37.663,37.663,0,0,0,7.963,706.222L3.9,814.106A5.389,5.389,0,0,1,0,815.639l3.468-84.124c-.014,0-.03.006-.043.005l.39-15.694L4.823,675.3l.1-4.163c0-.02.006-.038.007-.057l.048-1.988a4.583,4.583,0,0,1,.108-.876c.025-.111.067-.213.1-.32a4.5,4.5,0,0,1,.162-.488c.058-.136.132-.261.2-.39.061-.112.118-.226.188-.332a4.486,4.486,0,0,1,.32-.418c.059-.071.114-.142.177-.209a4.734,4.734,0,0,1,.448-.412c.046-.037.09-.075.137-.11a4.55,4.55,0,0,1,.576-.37" fill="#316cc9"/>
          <path id="Path_4451" data-name="Path 4451" d="M1827.641,410.473h0c6.315,16.046,38.995,31.645,56.766,20.659a5.379,5.379,0,0,0,2.326-3.644c.658-3.7-2.256-6.778-5.355-5.545-12.518,4.979-33.348-2.989-46.234-17.4-2.393-2.675-6.567.662-7.5,5.928" fill="#282729"/>
          <path id="Path_4452" data-name="Path 4452" d="M1963.032,370.133h0c-17.161-1.7-45.943,20.279-44.267,41.105a5.377,5.377,0,0,0,2.183,3.731c3,2.275,7.061,1.082,7.377-2.238,1.275-13.411,17.863-28.317,36.562-33.218,3.472-.91,2.406-6.146-1.855-9.38" fill="#282729"/>
          <path id="Path_4453" data-name="Path 4453" d="M1796.408,288.424l39.442-25.493a10.148,10.148,0,0,1,1.935-.958c17.457-8.338,48.177-.173,56.2,26.551,7.372,24.568,13.52,45.259,7.1,58.089l33.015,51.078-39.192,25.332-16.093-24.9a1.26,1.26,0,0,0-1.87-.276c-11.411,9.38-24.947,20.168-38.082,15.252-6.834-2.557-14.755-14.12-18.881-20.5l-36.291-56.149c-10.022-15.505-4.328-37.006,12.719-48.024" fill="#e8a967"/>
          <path id="Path_4454" data-name="Path 4454" d="M1812.1,388.5l33.733-21.8a3.642,3.642,0,0,0,1.081-5.034l-18.348-28.387a3.64,3.64,0,0,0-5.034-1.081L1789.8,354a3.642,3.642,0,0,0-1.081,5.034l18.348,28.387a3.642,3.642,0,0,0,5.034,1.081" fill="#282729"/>
          <path id="Path_4455" data-name="Path 4455" d="M1811.7,388.756l23.575-15.238a3.164,3.164,0,0,0,.94-4.377l-18.862-29.183a3.169,3.169,0,0,0-4.379-.942L1789.4,354.255a3.166,3.166,0,0,0-.94,4.378l18.862,29.182a3.167,3.167,0,0,0,4.379.941" fill="#f0b520"/>
          <path id="Path_4456" data-name="Path 4456" d="M1832.837,412.3l6.552-4.235a2.725,2.725,0,0,0,.809-3.769l-9.5-14.7a2.728,2.728,0,0,0-3.77-.81l-6.551,4.235a2.726,2.726,0,0,0-.81,3.769l9.5,14.7a2.726,2.726,0,0,0,3.769.81" fill="#282729"/>
          <path id="Path_4457" data-name="Path 4457" d="M1829.734,414.3l4.409-2.85a2.345,2.345,0,0,0,.7-3.242l-9.913-15.337a2.345,2.345,0,0,0-3.242-.7l-4.409,2.85a2.345,2.345,0,0,0-.7,3.242l9.913,15.337a2.345,2.345,0,0,0,3.242.7" fill="#282729"/>
          <path id="Path_4458" data-name="Path 4458" d="M1811.281,389.026l16.954-10.958a2.671,2.671,0,0,0,.793-3.692l-19.4-30.017a2.669,2.669,0,0,0-3.692-.793l-16.954,10.958a2.671,2.671,0,0,0-.793,3.692l19.4,30.017a2.67,2.67,0,0,0,3.692.793" fill="#316cc9"/>
          <path id="Path_4459" data-name="Path 4459" d="M1810.848,389.306l10.342-6.685a2.154,2.154,0,0,0,.64-2.979l-19.961-30.883a2.156,2.156,0,0,0-2.98-.64l-10.342,6.685a2.155,2.155,0,0,0-.64,2.979l19.961,30.883a2.156,2.156,0,0,0,2.98.64" fill="#4e81d1"/>
          <rect id="Rectangle_443" data-name="Rectangle 443" width="66.182" height="14.839" transform="translate(1825.323 346.229) rotate(-32.877)" fill="#282729"/>
          <path id="Path_4460" data-name="Path 4460" d="M1779.814,311.143a68.77,68.77,0,0,1,30.815-47.413c31.7-20.489,73.66-11.933,93.724,19.108a66.43,66.43,0,0,1,5.251,61.906,19.168,19.168,0,0,0,1.745,17.753l22.748,35.195-39.192,25.331-16.093-24.9a1.4,1.4,0,0,0-1.273-.552c18.977-13.16,28.543-35.708,12.127-61.105-20.805-32.188-60.573-20.323-90.158-1.2a68.7,68.7,0,0,0-10.924,8.756l-4.9-7.574a31.832,31.832,0,0,1-3.874-25.306" fill="#282729"/>
          <path id="Path_4461" data-name="Path 4461" d="M1802.523,457.7l3.891,18.729c2.281,10.979,12.451,18.833,22.349,17.262l101.627-16.136c10.391-1.127,17.006-10.743,14.775-21.478s-12.462-18.523-22.852-17.4Z" fill="#282729"/>
          <path id="Path_4462" data-name="Path 4462" d="M1708.5,416.251l-4.055,21.527,110.7,52.791c8.615,4.318,17.862-.124,19.613-9.421l3.674-19.505Z" fill="#282729"/>
          <path id="Path_4463" data-name="Path 4463" d="M1707.178,409.082c1.885,2.178,4.081,6.51,5.221,8.895.95,8.784-.564,16.056-7.514,20-.99-.382-1.986-.756-2.971-1.141a14.057,14.057,0,0,1-9.19-.3l-12.17-4.574c-7.652-2.875-11-11.647-7.351-18,2.965-5.158,9.9-7.583,16.089-5.256l12.071,4.536a38.288,38.288,0,0,0-6.009-4.929,3.557,3.557,0,0,1-1.5-4.157,3.221,3.221,0,0,1,.424-.776,3.881,3.881,0,0,1,5.25-.687,45.577,45.577,0,0,1,7.653,6.385" fill="#f5d4b5"/>
          <path id="Path_4464" data-name="Path 4464" d="M1964.239,596.205l86.881-56.156-99.386-153.765a18.069,18.069,0,0,0-24.983-5.367l-45.891,29.662a30.738,30.738,0,0,0-9.13,42.5Z" fill="#282729"/>
          <path id="Path_4465" data-name="Path 4465" d="M2000.758,652.706,2067,609.889a24.573,24.573,0,0,0,7.3-33.976l-23.181-35.864L1964.238,596.2Z" fill="#282729"/>
          <path id="Path_4466" data-name="Path 4466" d="M2078.211,732.417l25.15-16.256-51.349-98.435-51.254,34.98,48.937,75.713c5.648,8.737,18.415,10.527,28.516,4" fill="#282729"/>
          <path id="Path_4467" data-name="Path 4467" d="M2233.008,842.543l20.85-25.489L2070.287,683.166l-17.412,21.286c-8.1,9.909-6.69,23.143,3.121,29.179Z" fill="#282729"/>
          <path id="Path_4468" data-name="Path 4468" d="M1936.345,386.246a101.216,101.216,0,0,0-19.233,42.4c-4.419,23.248.512,45.414,13.881,62.412,14.15,17.986,36.76,28.3,62.035,28.3a102.257,102.257,0,0,0,39.452-8.158l9.327,14.432c-44.924,20.106-96.057,11.606-124.142-24.1-24.735-31.448-24.748-75.307-3.82-111.915a38.093,38.093,0,0,1,22.5-3.384" fill="#3e89ff"/>
          <path id="Path_4469" data-name="Path 4469" d="M2045.567,722.032l-15.838-24.5c2.323-22.831,13.248-41.371,31.706-56.315l8.659,14.426c-16.625,18.363-25.31,40.266-24.527,66.393" fill="#dd9a00"/>
          <path id="Path_4470" data-name="Path 4470" d="M2107.3,715.375l21.587-20.508L2046.905,601.6l-46.146,51.111,76.966,64.636c7.665,7.15,20.908,6.269,29.578-1.968" fill="#282729"/>
          <path id="Path_4471" data-name="Path 4471" d="M2315.578,696.544l1.985-31.258-239.689,10.988-1.658,26.105c-.772,12.151,8.643,21.064,20.758,19.652Z" fill="#282729"/>
          <path id="Path_4472" data-name="Path 4472" d="M1886.389,538.963l18.693,4.059c10.958,2.379,22.269-3.718,24.857-13.4l26.575-99.41c3.195-9.951-2.9-19.9-13.616-22.231s-21.99,3.855-25.185,13.806Z" fill="#282729"/>
          <path id="Path_4473" data-name="Path 4473" d="M1810.291,608.012l18.019,12.456,93.235-79.671c7.447-6.116,7.148-16.37-.634-21.749l-16.326-11.286Z" fill="#282729"/>
          <path id="Path_4474" data-name="Path 4474" d="M2233.957,846.886h0a8.529,8.529,0,0,1,4.014,8.482l-.043.3c-2.5,17.833-10.053,33.983-20.457,48.554-3.732,5.228-22.451,31.6-25.993,36.964l-5.294,8.011a5.415,5.415,0,0,0,.887,7.606l51.152-66.876c.01.009.019.023.03.032l9.74-12.313,27.737-35.061c.012-.016.019-.033.03-.048l1.235-1.559a4.614,4.614,0,0,0-.681-6.427l-20.522-18.044a2.982,2.982,0,0,0-4.307.389L2232.811,840.5a4.327,4.327,0,0,0,1.146,6.382" fill="#3e89ff"/>
          <path id="Path_4475" data-name="Path 4475" d="M2277.649,836.418l-.036-.088a4.545,4.545,0,0,0-.347-.666l-.02-.03a4.52,4.52,0,0,0-.933-1.08l-20.745-18.241a2.7,2.7,0,0,0-3.9.352l-2.066,2.61a37.662,37.662,0,0,1,1.343,48.339l-65.9,85.515a5.39,5.39,0,0,0,2.02,3.677l51.152-66.876c.01.009.02.023.029.032l9.741-12.313,25.153-31.795,2.583-3.266c.012-.016.02-.033.031-.048l1.235-1.559a4.619,4.619,0,0,0,.478-.743c.052-.1.085-.2.129-.308a4.648,4.648,0,0,0,.187-.479c.043-.142.065-.286.095-.43.024-.125.054-.249.068-.375a4.923,4.923,0,0,0,.022-.526c0-.091,0-.182,0-.273a4.672,4.672,0,0,0-.08-.6c-.013-.058-.021-.116-.036-.173a4.581,4.581,0,0,0-.205-.653" fill="#316cc9"/>
          <path id="Path_4476" data-name="Path 4476" d="M1802.2,610.613c2.545-1.339,7.245-2.494,9.816-3.063,8.717,1.061,15.4,4.175,17.6,11.819-.6.876-1.192,1.759-1.793,2.629a14.125,14.125,0,0,1-2.42,8.864l-7.249,10.791c-4.558,6.787-13.819,8.058-19.115,3.077-4.3-4.046-5.036-11.33-1.348-16.822l7.19-10.7a38.525,38.525,0,0,0-6.163,4.724,3.535,3.535,0,0,1-4.369.522,3.114,3.114,0,0,1-.652-.588,3.886,3.886,0,0,1,.554-5.256,45.834,45.834,0,0,1,7.953-5.994" fill="#e8a967"/>
          <path id="Path_4477" data-name="Path 4477" d="M2064.464,548.6l41.822-27.032a7.186,7.186,0,0,0,2.135-9.937L2004.644,351.076a12.18,12.18,0,0,0-16.841-3.617l-33.435,21.611a12.179,12.179,0,0,0-3.618,16.84l103.777,160.558a7.186,7.186,0,0,0,9.937,2.135" fill="#de6b0f"/>
          <rect id="Rectangle_444" data-name="Rectangle 444" width="41.162" height="6.311" transform="translate(1952.452 366.764) rotate(-32.876)" fill="#5c5b5d"/>
          <rect id="Rectangle_445" data-name="Rectangle 445" width="26.677" height="10.757" transform="matrix(0.84, -0.543, 0.543, 0.84, 1952.274, 354.072)" fill="#282729"/>
          <rect id="Rectangle_446" data-name="Rectangle 446" width="31.122" height="5.737" transform="translate(1947.594 350.266) rotate(-32.876)" fill="#5c5b5d"/>
          <rect id="Rectangle_447" data-name="Rectangle 447" width="64.173" height="31.176" transform="translate(1967.494 411.818) rotate(-32.877)" fill="#c6c6c7"/>
          <rect id="Rectangle_448" data-name="Rectangle 448" width="64.173" height="29.832" transform="translate(2017.787 489.629) rotate(-32.877)" fill="#c6c6c7"/>
          <path id="Path_4478" data-name="Path 4478" d="M2071.85,629.975c-13.571,21.876-18.052,45.968-11.548,72.736l-19.723-16.563c-4.321-26.089,2.967-48.793,20.163-68.81Z" fill="#fbc640"/>
          <path id="Path_4479" data-name="Path 4479" d="M1704.771,436.055c4.886-5.735,7.424-11.9,7.34-18.542l13.745,4.8c-.18,7.494-4.114,14.2-11.41,20.232l-10.841-5.064Z" fill="#fbc640"/>
          <path id="Path_4480" data-name="Path 4480" d="M1840.58,609.983l-11.027,9.423a41.28,41.28,0,0,0-18.921-11.159l-.341-.235,11.945-12.7c7.24,2.644,13.315,7.6,18.344,14.672" fill="#fbc640"/>
          <path id="Path_4481" data-name="Path 4481" d="M2315.8,701.161h0a8.528,8.528,0,0,1,8.511,3.951l.161.261c9.489,15.3,14.013,32.55,15.339,50.405.476,6.406,2.963,38.653,3.669,45.038l1.056,9.545a5.413,5.413,0,0,0,5.548,5.278l-3.468-84.124c.013,0,.029.006.043.005l-.391-15.694-1.112-44.692c0-.02-.006-.038-.007-.057l-.047-1.988a4.616,4.616,0,0,0-4.636-4.5l-27.316-.739a2.981,2.981,0,0,0-3.062,3.054l.749,30.089a4.327,4.327,0,0,0,4.963,4.172" fill="#3e89ff"/>
          <path id="Path_4482" data-name="Path 4482" d="M2342.688,665.164l-.084-.045a4.641,4.641,0,0,0-.693-.29l-.034-.01a4.592,4.592,0,0,0-1.408-.234l-27.615-.748a2.7,2.7,0,0,0-2.77,2.764l.083,3.328a37.663,37.663,0,0,1,31.957,36.293l4.059,107.884a5.389,5.389,0,0,0,3.9,1.533l-3.468-84.124c.014,0,.03.006.043.005l-.39-15.694-1.008-40.529-.1-4.163c0-.02-.006-.038-.007-.057l-.048-1.988a4.588,4.588,0,0,0-.108-.876c-.025-.111-.067-.213-.1-.32a4.484,4.484,0,0,0-.162-.488c-.058-.136-.132-.261-.2-.39-.061-.112-.118-.226-.188-.332a4.306,4.306,0,0,0-.32-.418c-.058-.071-.114-.142-.177-.209a4.731,4.731,0,0,0-.448-.412c-.046-.037-.09-.075-.137-.11a4.548,4.548,0,0,0-.576-.37" fill="#316cc9"/>
          <path id="Path_4483" data-name="Path 4483" d="M2202.822,1136.1v26.227H167.147V1037.441l.5-.188a227.088,227.088,0,0,1,53.734-12.587,224.6,224.6,0,0,1,53.527.729h.011q8.371,1.092,16.971,2.863a263.2,263.2,0,0,1,32.714,8.995q9.512,3.266,19.272,7.4c.177.073.354.146.531.229a347.043,347.043,0,0,1,43.49,22.448,132.621,132.621,0,0,0,15.94,8.225,139.509,139.509,0,0,0,77.849,9.475c40.481-6.549,87.427-7.1,140.017,3.779a166.924,166.924,0,0,0,68.811-.353,366.184,366.184,0,0,1,75.111-8.121c42.251-.23,89.645,6.6,141.537,24.717a229.425,229.425,0,0,0,117.883,9.079,222.56,222.56,0,0,0,59.138-19.991c79.743-40.22,204.882-74.194,363.933-23.155a641.405,641.405,0,0,1,73.611,28.872,194.394,194.394,0,0,0,170.867-3.644,456.657,456.657,0,0,1,117.7-41.668c93.685-19.252,215.242-13.244,358.217,62.314q16.96,8.949,34.306,19.241" fill="#006395"/>
          <path id="Path_24846" data-name="Path 24846" d="M1062.447,802.135c5.012,9.484-7.635,22.182-2.327,37.806s5.689,30.6-5.561,44.043-7.2,22.549-4.7,29.36,17.528,16.163,3.374,30.4-3.852,20.629,4.912,29.454,8.381,15.216-1.672,28.416-6.377,15.037-2.964,27.583-6.236,18.135-15.442,22.6-14.037,15.581-6.35,25.99,3.891,16.425-3.12,21.24-8.822,7.275-5.057,14.65,9,13-4.187,18.359-11.424,14.538-16.422,13.088c0,0-3.38-2.084-3.76-8.085s3.263-11.245-1.044-20.905-12.219-9.111-11.753-21.02,10.021-10.525,5.994-22.188-6.757-18.42,2.209-27.128,11.205-12.05,9.545-18.75-8.384-18.479,5.572-29.81,9.664-22.564,2.1-29.551-15.27-20.049-8.484-32.164,6.456-15.281,1.268-22.885-16.14-15.559.672-31.86,13.352-23.3,10.357-34.19-1.794-15.665,5.44-19.857,18.769-6.838,16.164-20.2,12.521-28.465,25.239-4.4" transform="translate(-217.938 -28.183)" fill="#c3c3c4"/>
          <path id="Path_24847" data-name="Path 24847" d="M1005.248,880.784c16.813-16.3,13.352-23.3,10.357-34.19s-1.8-15.665,5.44-19.857,18.768-6.838,16.163-20.2c-1.652-8.469,3.821-17.633,11.289-17.086l-42.579,354.82a2.617,2.617,0,0,1-2.986.858s-3.38-2.084-3.76-8.086,3.263-11.244-1.043-20.9-12.22-9.111-11.755-21.02,10.022-10.526,5.995-22.189-6.757-18.42,2.209-27.127,11.205-12.05,9.545-18.75-8.384-18.479,5.572-29.81,9.664-22.564,2.1-29.551-15.27-20.049-8.483-32.164,6.455-15.281,1.267-22.885-16.14-15.559.673-31.86" transform="translate(-217.938 -28.183)" fill="#413f42"/>
          <path id="Path_24849" data-name="Path 24849" d="M908.58,874.7c-3.658,7.288,6.158,16.736,2.374,28.7s-3.835,23.349,4.931,33.385,5.831,17.022,4.042,22.239-13.063,12.564-2.077,23.16,3.257,15.617-3.261,22.465-6.128,11.7,1.725,21.569,5.087,11.327,2.694,20.916,5.03,13.684,12.1,16.933,10.918,11.617,5.243,19.651-2.694,12.546,2.712,16.093,6.821,5.388,4.078,11.053-6.63,10.022,3.476,13.887,8.915,10.866,12.69,9.684c0,0,2.536-1.638,2.729-6.206s-2.66-8.493.458-15.9,9.141-7.12,8.6-16.164-7.785-7.839-4.912-16.768,4.841-14.108-2.113-20.582-8.709-8.979-7.555-14.1,6.077-14.178-4.712-22.566-7.706-16.995-2.066-22.427,11.284-15.482,5.932-24.581-5.151-11.51-1.329-17.372,12.017-12.084-1.022-24.2-10.521-17.493-8.419-25.819,1.114-11.934-4.453-15.005-14.373-4.9-12.607-15.093-9.973-21.433-19.253-2.942" transform="translate(-217.938 -28.183)" fill="#413f42"/>
          <path id="Path_24850" data-name="Path 24850" d="M953.312,933.561c-13.039-12.12-10.521-17.493-8.419-25.819s1.114-11.935-4.453-15.005-14.373-4.9-12.607-15.093c1.119-6.462-3.187-13.339-8.854-12.8l38.043,268.987a1.99,1.99,0,0,0,2.283.6s2.536-1.638,2.729-6.206-2.66-8.494.458-15.905,9.141-7.119,8.6-16.163-7.785-7.839-4.911-16.768,4.84-14.108-2.114-20.582-8.709-8.979-7.555-14.1,6.077-14.178-4.712-22.566-7.706-16.995-2.066-22.427,11.284-15.481,5.932-24.58-5.15-11.51-1.329-17.372,12.017-12.084-1.022-24.205" transform="translate(-217.938 -28.183)" fill="#c3c3c4"/>
        </g>
      </g>
    </g>
    <path id="Path_24640" data-name="Path 24640" d="M1157.259,775.91c-1.374,2.6,2.093,6.08.638,10.363s-1.56,8.388,1.524,12.072,1.973,6.181,1.288,8.048-4.8,4.43-.925,8.334,1.056,5.654-1.346,8.073-2.3,4.171.458,7.789,1.748,4.122.813,7.561,1.709,4.971,4.232,6.195a4.581,4.581,0,0,1,1.741,7.125c-2.107,2.853-1.067,4.5.855,5.822s2.418,1.994,1.386,4.015-2.466,3.563,1.148,5.033,3.131,3.985,4.5,3.587a2.757,2.757,0,0,0,1.031-2.216c.1-1.645-.894-3.082.286-5.73s3.349-2.5,3.222-5.762-2.747-2.885-1.643-6.082,1.852-5.049-.606-7.436-3.071-3.3-2.616-5.139,2.3-5.065-1.528-8.171-2.648-6.185-.574-8.1,4.186-5.495,2.325-8.816-1.769-4.188-.347-6.273,4.424-4.265-.184-8.733-3.66-6.386-2.839-9.371.492-4.294-1.492-5.443-5.144-1.875-4.43-5.537-3.432-7.8-6.918-1.207" transform="translate(-266 10.574)" fill="#fbb040"/>
    <path id="Path_24643" data-name="Path 24643" d="M1199.435,795.8c1,2-1.688,4.588-.651,7.866s1.051,6.4-1.351,9.151-1.6,4.666-1.108,6.1,3.58,3.444.569,6.348-.893,4.281.894,6.158,1.68,3.206-.473,5.912-1.394,3.105-.738,5.733-1.379,3.751-3.317,4.641a3.483,3.483,0,0,0-1.437,5.387c1.556,2.2.739,3.439-.743,4.411s-1.87,1.477-1.118,3.03,1.818,2.747-.953,3.806-2.443,2.979-3.478,2.655a2.1,2.1,0,0,1-.748-1.7c-.053-1.252.729-2.328-.125-4.36s-2.506-1.951-2.357-4.43,2.134-2.149,1.346-4.6-1.327-3.867.58-5.642,2.387-2.461,2.07-3.864-1.665-3.887,1.292-6.186,2.112-4.658.566-6.147-3.093-4.244-1.626-6.738,1.412-3.155.365-4.762-3.294-3.312.28-6.634,2.884-4.795,2.307-7.078-.3-3.271,1.221-4.112,3.94-1.343,3.456-4.138,2.733-5.875,5.277-.806" transform="translate(-266 10.574)" fill="#fbb040"/>
  </g>
</svg>
