<svg id="Layer_1" data-name="Layer 1" xmlns="http://www.w3.org/2000/svg" viewBox="0 0 600 600"><defs><style>.cls-1{fill:none;stroke:#95c33c;stroke-linecap:round;stroke-linejoin:round;stroke-width:24px;}</style></defs><path class="cls-1" d="M569,412.42V187a60,60,0,0,0-31.13-52.6l-210-115.28a60,60,0,0,0-57.74,0l-210,115.28A60,60,0,0,0,29,187V412.42A60,60,0,0,0,60.11,465l210,115.28a60,60,0,0,0,57.74,0L537.85,465A60,60,0,0,0,569,412.42Z"/><line class="cls-1" x1="304.45" y1="194.51" x2="304.45" y2="301.56"/><path class="cls-1" d="M304.45,195.35l.48-4.15c7.26-63,15.13-70.91,78.18-78.18l4.14-.48h0c-5.58,66.42-16.39,77.23-82.8,82.81Z"/><path class="cls-1" d="M304.45,248.44l-.48-4.15c-7.27-63-15.13-70.91-78.18-78.18l-4.14-.48h0c5.58,66.42,16.39,77.23,82.8,82.81Z"/><line class="cls-1" x1="107.81" y1="430.42" x2="482.85" y2="430.42"/><path class="cls-1" d="M186.32,424.22v-.8a114,114,0,0,1,114-114h0a114,114,0,0,1,114,114v.8"/><line class="cls-1" x1="249.72" y1="360.09" x2="285.19" y2="360.09"/><line class="cls-1" x1="320.67" y1="393.88" x2="356.15" y2="393.88"/></svg>