<svg id="Layer_1" data-name="Layer 1" xmlns="http://www.w3.org/2000/svg" viewBox="0 0 600 600"><defs><style>.cls-1{fill:none;stroke:#95c33c;stroke-linecap:round;stroke-linejoin:round;stroke-width:24px;}</style></defs><line class="cls-1" x1="112.06" y1="430.42" x2="487.1" y2="430.42"/><path class="cls-1" d="M568.31,412.42V187a60,60,0,0,0-31.13-52.6l-210-115.28a60,60,0,0,0-57.74,0l-210,115.28A60,60,0,0,0,28.31,187V412.42A60,60,0,0,0,59.44,465l210,115.28a60,60,0,0,0,57.74,0L537.18,465A60,60,0,0,0,568.31,412.42Z"/><line class="cls-1" x1="172.3" y1="422.03" x2="172.3" y2="257.6"/><circle class="cls-1" cx="172.3" cy="243" r="77.75"/><polyline class="cls-1" points="286.63 428.23 286.63 338.02 311.97 309.69 338.44 338.02 338.44 428.23"/><polyline class="cls-1" points="338.44 428.23 338.44 338.02 363.78 309.69 390.24 338.02 390.24 428.23"/><polyline class="cls-1" points="390.24 428.23 390.24 338.02 415.58 309.69 442.05 338.02 442.05 428.23"/></svg>