<svg id="Layer_1" data-name="Layer 1" xmlns="http://www.w3.org/2000/svg" viewBox="0 0 600 600"><defs><style>.cls-1{fill:none;stroke:#95c33c;stroke-linecap:round;stroke-linejoin:round;stroke-width:24px;}</style></defs><path class="cls-1" d="M568.31,412.42V187a60,60,0,0,0-31.13-52.6l-210-115.28a60,60,0,0,0-57.74,0l-210,115.28A60,60,0,0,0,28.31,187V412.42A60,60,0,0,0,59.44,465l210,115.28a60,60,0,0,0,57.74,0L537.18,465A60,60,0,0,0,568.31,412.42Z"/><line class="cls-1" x1="298.79" y1="194.51" x2="298.79" y2="277.56"/><path class="cls-1" d="M298.79,195.35l.48-4.15c7.26-63,15.12-70.91,78.18-78.18l4.14-.48h0C376,179,365.2,189.77,298.79,195.35Z"/><path class="cls-1" d="M298.79,248.44l-.48-4.15c-7.27-63-15.13-70.91-78.18-78.18l-4.15-.48h0c5.58,66.42,16.4,77.23,82.81,82.81Z"/><circle class="cls-1" cx="298.31" cy="401.04" r="117.13"/><path class="cls-1" d="M191.35,354.3h93.33a22.38,22.38,0,0,1,22.39,22.39h0a22.38,22.38,0,0,1-22.39,22.38H277.5a23.65,23.65,0,0,0-23.65,23.65h0a23.65,23.65,0,0,0,23.65,23.65h0a27,27,0,0,1,27,27v44.77"/><path class="cls-1" d="M404.74,394H369.69a24.92,24.92,0,0,0-24.92,24.92h0a24.92,24.92,0,0,0,24.92,24.92H403.9"/></svg>