<svg xmlns="http://www.w3.org/2000/svg" width="63.77" height="67.961" viewBox="0 0 63.77 67.961"><defs><style>.a{fill:none;stroke:#95c33c;stroke-linecap:round;stroke-linejoin:round;stroke-width:3px;}</style></defs><g transform="translate(1.5 1.572)"><path class="a" d="M89.77,56.812V31.443a6.752,6.752,0,0,0-3.5-5.92L62.634,12.551a6.752,6.752,0,0,0-6.5,0L32.5,25.524A6.752,6.752,0,0,0,29,31.443V56.812a6.752,6.752,0,0,0,3.5,5.917L56.134,75.7a6.752,6.752,0,0,0,6.5,0L86.264,62.729a6.752,6.752,0,0,0,3.506-5.917Z" transform="translate(-29 -11.718)"/><line class="a" y2="22.433" transform="translate(29.401 22.981)"/><path class="a" d="M290.26,128.147l.065-.563c.989-8.581,2.058-9.65,10.639-10.639l.563-.065h0C300.769,125.911,299.3,127.382,290.26,128.147Z" transform="translate(-260.859 -105.045)"/><path class="a" d="M290.251,266.636l.065-.563c.989-8.58,2.058-9.65,10.639-10.638l.563-.065h0c-.76,9.037-2.23,10.509-11.268,11.268Z" transform="translate(-260.85 -227.95)"/><path class="a" d="M201.416,192.3l-.065-.563c-.988-8.58-2.058-9.65-10.638-10.639l-.563-.064h0c.76,9.037,2.231,10.509,11.268,11.267Z" transform="translate(-172.015 -161.976)"/><line class="a" x2="50.444" transform="translate(4.56 45.415)"/><line class="a" x2="18.504" transform="translate(24.965 51.498)"/></g></svg>