<svg xmlns="http://www.w3.org/2000/svg" width="49.748" height="51.338" viewBox="0 0 49.748 51.338">
  <g id="Group_641" data-name="Group 641" transform="translate(-759.514 -1129.54)">
    <g id="Icons_Increase_Resilience" data-name="Icons_Increase Resilience" transform="translate(761.001 1129.54)" style="isolation: isolate">
      <path id="Path_5" data-name="Path 5" d="M75.135,46.464V26.917a5.2,5.2,0,0,0-2.7-4.561l-18.209-10a5.2,5.2,0,0,0-5.007,0l-18.21,10a5.2,5.2,0,0,0-2.7,4.561V46.464a5.2,5.2,0,0,0,2.7,4.559l18.21,10a5.2,5.2,0,0,0,5.007,0l18.21-10a5.2,5.2,0,0,0,2.7-4.559Z" transform="translate(-28.31 -11.718)" fill="#42b294"/>
      <path id="Path_382" data-name="Path 382" d="M0,25.891" transform="translate(23.454 -2.84)" fill="none"/>
      <path id="Path_9" data-name="Path 9" d="M363.2,409.538" transform="translate(-330.636 -372.068)" fill="#bfbfbf"/>
    </g>
    <g id="REDUCEDINPUTS-AQUACULTURE" transform="translate(759.514 1129.583)">
      <g id="Your_Icon" transform="translate(5.059 1.801)">
        <path id="Path_1159" data-name="Path 1159" d="M43.779,57" transform="translate(-27.924 -29.564)" fill="#fcfcfc"/>
        <path id="Path_1160" data-name="Path 1160" d="M12.865,57" transform="translate(-12.865 -29.564)" fill="#fcfcfc"/>
        <path id="Path_1161" data-name="Path 1161" d="M44.745,68.481c-.933-1.328-3.54-4.417-7.584-4.417a9.305,9.305,0,0,0-7,3.619,5.118,5.118,0,0,0-4.328-2.31,1.027,1.027,0,0,0-.964,1.375,9.41,9.41,0,0,1,.47,2.817,11.175,11.175,0,0,1-.508,3.051,1.025,1.025,0,0,0,.972,1.351,5.165,5.165,0,0,0,4.345-2.31,9.218,9.218,0,0,0,6.971,3.619c4.041,0,6.673-3.088,7.618-4.415A2.066,2.066,0,0,0,44.745,68.481ZM27.189,71.613a11.465,11.465,0,0,0,.2-2.049,10.688,10.688,0,0,0-.167-1.832,3.614,3.614,0,0,1,1.682,1.934A3.673,3.673,0,0,1,27.189,71.613Zm4.025-1.94c.769-1.076,2.839-3.5,5.857-3.554a6.146,6.146,0,0,0-1.108,3.55,7.255,7.255,0,0,0,1.144,3.553C34.052,73.216,31.98,70.758,31.214,69.673Zm8.088,3.12a5.736,5.736,0,0,1-1.288-3.124,3.982,3.982,0,0,1,1.4-3.09,8.923,8.923,0,0,1,3.649,3.091A9.045,9.045,0,0,1,39.3,72.794Z" transform="translate(-18.669 -33.005)" fill="#fcfcfc"/>
        <ellipse id="Ellipse_343" data-name="Ellipse 343" cx="0.573" cy="0.567" rx="0.573" ry="0.567" transform="translate(20.62 34.945)" fill="#fcfcfc"/>
        <g id="Group_363" data-name="Group 363" transform="translate(16.956)">
          <path id="Path_1162" data-name="Path 1162" d="M55.981,16.18a3.114,3.114,0,0,1-1.557-.443,1.026,1.026,0,0,1,1.018-1.782.958.958,0,0,0,.707.149.631.631,0,0,0,.356-.3l.389-.681.012,0c.377-.654,1.139-1.988,2.669-4.694l.008-.014L55.116,5.868l-.174.3c-.784,1.36-2.919,5.074-2.919,5.074-.078.136-.283.622.427,1.027a1.026,1.026,0,0,1-1.018,1.782,2.773,2.773,0,0,1-1.189-3.828s2.138-3.719,2.92-5.076l.6-1.052a1.193,1.193,0,0,1,1.624-.437l5.957,3.4a1.19,1.19,0,0,1,.562.722,1.174,1.174,0,0,1-.113.9l-.433.759c-.29.513-1.052,1.86-1.745,3.077-.347.61-.677,1.188-.922,1.613-.153.267-.286.5-.417.684l.01.006a2.669,2.669,0,0,1-1.545,1.244A2.612,2.612,0,0,1,55.981,16.18Zm4.346-7.334,0,0Z" transform="translate(-47.858 -3.504)" fill="#fcfcfc"/>
          <path id="Path_1163" data-name="Path 1163" d="M51.139,30.34a1.36,1.36,0,0,1-.676-.182l-3.848-2.2a1.357,1.357,0,0,1-.641-.825,1.329,1.329,0,0,1,.129-1.017l.949-1.661a1.353,1.353,0,0,1,1.846-.494l3.849,2.2A1.353,1.353,0,0,1,53.259,28l-.949,1.661a1.326,1.326,0,0,1-.81.627A1.38,1.38,0,0,1,51.139,30.34Zm-.611-1.693v0Zm-2.293-2.124,2.644,1.51.248-.435-2.644-1.51Zm-.35.612h0Zm3.593-.151h0Z" transform="translate(-45.927 -13.383)" fill="#fcfcfc"/>
        </g>
        <ellipse id="Ellipse_344" data-name="Ellipse 344" cx="1.347" cy="1.347" rx="1.347" ry="1.347" transform="translate(17.024 16.677)" fill="#fcfcfc"/>
        <ellipse id="Ellipse_345" data-name="Ellipse 345" cx="1.347" cy="1.347" rx="1.347" ry="1.347" transform="translate(13.429 20.711)" fill="#fcfcfc"/>
        <ellipse id="Ellipse_346" data-name="Ellipse 346" cx="1.347" cy="1.347" rx="1.347" ry="1.347" transform="translate(17.982 20.118)" fill="#fcfcfc"/>
        <ellipse id="Ellipse_347" data-name="Ellipse 347" cx="1.347" cy="1.347" rx="1.347" ry="1.347" transform="translate(11.337 28.63)" fill="#fcfcfc"/>
      </g>
      <g id="Modifier_x5F_Down" transform="translate(0 0)">
        <path id="Path_1164" data-name="Path 1164" d="M50.888,37.2a6.127,6.127,0,0,0,.322-1.925V16a6.154,6.154,0,0,0-3.193-5.395L41.071,6.8a1.026,1.026,0,0,0-.988,1.8l6.946,3.813A4.1,4.1,0,0,1,49.158,16V27.767h-8.14a2.458,2.458,0,0,0-4.446,0H17.53a2.458,2.458,0,0,0-4.446,0H5.051V16a4.1,4.1,0,0,1,2.128-3.6L25.13,2.554a4.086,4.086,0,0,1,3.95,0,1.026,1.026,0,0,0,.987-1.8,6.128,6.128,0,0,0-5.923,0L6.193,10.61A6.153,6.153,0,0,0,3,16v19.27a6.153,6.153,0,0,0,3.193,5.395l17.95,9.854a6.125,6.125,0,0,0,5.924,0l6.457-3.545A8.709,8.709,0,1,0,50.888,37.2Zm-2.037,6.087-3.969,3.969a.964.964,0,0,1-.11.134,1.022,1.022,0,0,1-.725.3h-.025a1.065,1.065,0,0,1-.2-.02c-.031-.006-.059-.017-.089-.026a1.032,1.032,0,0,1-.1-.032.937.937,0,0,1-.1-.053c-.025-.014-.052-.025-.076-.042a1.03,1.03,0,0,1-.273-.269l-3.962-3.962a1.026,1.026,0,1,1,1.45-1.45L43,44.164V38.458a1.026,1.026,0,1,1,2.051,0v5.73L47.4,41.836a1.026,1.026,0,0,1,1.451,1.45Zm.308-8.012c0,.082-.012.162-.016.243A8.708,8.708,0,0,0,35.689,45.1l-6.609,3.629a4.087,4.087,0,0,1-3.949,0L7.18,38.871a4.1,4.1,0,0,1-2.129-3.6V29.819h8.033a2.459,2.459,0,0,0,4.446,0H36.572a2.459,2.459,0,0,0,4.446,0h8.14Z" transform="translate(-3 0.008)" fill="#fcfcfc"/>
      </g>
    </g>
  </g>
</svg>
