<svg xmlns="http://www.w3.org/2000/svg" width="48.158" height="51.339" viewBox="0 0 48.158 51.339">
  <g id="Group_669" data-name="Group 669" transform="translate(-18932.377 -11267.908)">
    <g id="Icons_Increase_Resilience" data-name="Icons_Increase Resilience" transform="translate(18933.402 11267.908)" opacity="0.94">
      <path id="Path_5" data-name="Path 5" d="M75.135,46.464V26.917a5.2,5.2,0,0,0-2.7-4.561l-18.209-10a5.2,5.2,0,0,0-5.007,0l-18.21,10a5.2,5.2,0,0,0-2.7,4.561V46.464a5.2,5.2,0,0,0,2.7,4.559l18.21,10a5.2,5.2,0,0,0,5.007,0l18.21-10a5.2,5.2,0,0,0,2.7-4.559Z" transform="translate(-28.31 -11.718)" fill="#42b294"/>
      <path id="Path_382" data-name="Path 382" d="M0,25.891" transform="translate(23.454 -2.84)" fill="none"/>
      <path id="Path_9" data-name="Path 9" d="M363.2,409.538" transform="translate(-330.636 -372.068)" fill="#bfbfbf"/>
    </g>
    <g id="CARBONFOOTPRINT" transform="translate(18932.377 11267.96)">
      <g id="Default_x5F_Hexagon_copy" transform="translate(0)">
        <g id="Default_1_">
          <path id="Path_1113" data-name="Path 1113" d="M27.1,51.287a6.123,6.123,0,0,1-2.975-.769L6.18,40.671A6.15,6.15,0,0,1,3,35.285V16a6.15,6.15,0,0,1,3.18-5.385L24.13.769a6.037,6.037,0,0,1,5.9,0l17.95,9.847A6.15,6.15,0,0,1,51.158,16V35.285a6.15,6.15,0,0,1-3.18,5.385l-17.95,9.847A5.792,5.792,0,0,1,27.1,51.287Zm0-49.235a4.148,4.148,0,0,0-2,.513L7.154,12.411A4.037,4.037,0,0,0,5.051,16V35.285a4.139,4.139,0,0,0,2.1,3.59L25.1,48.723a4.148,4.148,0,0,0,3.949,0L47,38.875a4.037,4.037,0,0,0,2.1-3.59V16a4.084,4.084,0,0,0-2.154-3.59l-17.9-9.847A3.825,3.825,0,0,0,27.1,2.051Z" transform="translate(-3 0)" fill="#fcfcfc"/>
        </g>
      </g>
      <g id="Your_Icon" transform="translate(3.847 7.539)">
        <path id="Path_1114" data-name="Path 1114" d="M15.27,32.939a4.77,4.77,0,1,1,4.77-4.77A4.794,4.794,0,0,1,15.27,32.939Zm0-7.488a2.718,2.718,0,1,0,2.718,2.718A2.736,2.736,0,0,0,15.27,25.451Z" transform="translate(-10.5 -18.938)" fill="#fcfcfc"/>
        <path id="Path_1115" data-name="Path 1115" d="M32.49,23.88a3.59,3.59,0,1,1,3.59-3.59A3.6,3.6,0,0,1,32.49,23.88Zm0-5.129a1.539,1.539,0,1,0,1.539,1.539A1.511,1.511,0,0,0,32.49,18.751Z" transform="translate(-19.463 -15.674)" fill="#fcfcfc"/>
        <path id="Path_1116" data-name="Path 1116" d="M47.682,21.265a3.282,3.282,0,1,1,3.282-3.282A3.305,3.305,0,0,1,47.682,21.265Zm0-4.513a1.231,1.231,0,1,0,1.231,1.231A1.248,1.248,0,0,0,47.682,16.751Z" transform="translate(-27.014 -14.7)" fill="#fcfcfc"/>
        <path id="Path_1117" data-name="Path 1117" d="M72.975,31.449a2.975,2.975,0,1,1,2.975-2.975A2.977,2.977,0,0,1,72.975,31.449Zm0-3.9a.923.923,0,1,0,.923.923A.953.953,0,0,0,72.975,27.551Z" transform="translate(-39.484 -19.961)" fill="#fcfcfc"/>
        <path id="Path_1118" data-name="Path 1118" d="M61.275,24.749a2.975,2.975,0,1,1,2.975-2.975A2.977,2.977,0,0,1,61.275,24.749Zm0-3.847a.923.923,0,1,0,.923.923A.953.953,0,0,0,61.275,20.9Z" transform="translate(-33.785 -16.697)" fill="#fcfcfc"/>
        <path id="Path_1119" data-name="Path 1119" d="M31.055,63.514a1,1,0,0,1-.974-.718c-.667-2.308-2.1-4.1-3.744-6.154-.513-.667-1.077-1.385-1.641-2.1l-.923-1.128A15.059,15.059,0,0,1,20.9,44.486a15.386,15.386,0,0,1,30.772-.051h0a50.754,50.754,0,0,1-1.9,13.745,1.039,1.039,0,1,1-2-.564,50.233,50.233,0,0,0,1.8-13.181,13.335,13.335,0,0,0-26.669,0,13.61,13.61,0,0,0,2.462,7.744l.872,1.128c.564.769,1.077,1.436,1.641,2.1,1.692,2.154,3.334,4.206,4.1,6.872a1.037,1.037,0,0,1-.667,1.282C31.209,63.462,31.157,63.514,31.055,63.514Z" transform="translate(-15.566 -21.715)" fill="#fcfcfc"/>
        <g id="Group_356" data-name="Group 356" transform="translate(8.719 18.104)">
          <path id="Path_1120" data-name="Path 1120" d="M31.808,58.616a4.308,4.308,0,0,1,0-8.616,4.181,4.181,0,0,1,3.334,1.59,1.021,1.021,0,1,1-1.59,1.282A2.265,2.265,0,1,0,33.4,55.9a1.015,1.015,0,1,1,1.436,1.436A4.1,4.1,0,0,1,31.808,58.616Z" transform="translate(-27.5 -50)" fill="#fcfcfc"/>
          <path id="Path_1121" data-name="Path 1121" d="M47.606,58.811a4.206,4.206,0,1,1,4.206-4.206A4.225,4.225,0,0,1,47.606,58.811Zm0-6.308a2.154,2.154,0,1,0,2.154,2.154A2.167,2.167,0,0,0,47.606,52.5Z" transform="translate(-35.245 -50.195)" fill="#fcfcfc"/>
          <path id="Path_1122" data-name="Path 1122" d="M66.293,58.908H61.677a1.029,1.029,0,0,1-1.026-1.026c0-1.641,1.539-2.564,2.923-3.334.564-.308,1.744-.974,1.744-1.282,0-.462-.769-.667-1.333-.667h0c-.359,0-1.282.1-1.333.718a1.029,1.029,0,0,1-1.026,1.026h0A1.029,1.029,0,0,1,60.6,53.318c0-1.59,1.436-2.718,3.334-2.718h.051c1.949,0,3.385,1.18,3.385,2.718,0,1.487-1.487,2.359-2.77,3.077-.256.154-.615.359-.923.564h2.564a1.029,1.029,0,0,1,1.026,1.026A.931.931,0,0,1,66.293,58.908Z" transform="translate(-43.624 -50.292)" fill="#fcfcfc"/>
        </g>
      </g>
    </g>
  </g>
</svg>
