<svg xmlns="http://www.w3.org/2000/svg" width="48.158" height="51.339" viewBox="0 0 48.158 51.339">
  <g id="Group_670" data-name="Group 670" transform="translate(-18998.021 -11267.908)">
    <g id="Icons_Increase_Resilience" data-name="Icons_Increase Resilience" transform="translate(18998.604 11267.908)" opacity="0.94">
      <path id="Path_5" data-name="Path 5" d="M75.135,46.464V26.917a5.2,5.2,0,0,0-2.7-4.561l-18.209-10a5.2,5.2,0,0,0-5.007,0l-18.21,10a5.2,5.2,0,0,0-2.7,4.561V46.464a5.2,5.2,0,0,0,2.7,4.559l18.21,10a5.2,5.2,0,0,0,5.007,0l18.21-10a5.2,5.2,0,0,0,2.7-4.559Z" transform="translate(-28.31 -11.718)" fill="#42b294"/>
      <path id="Path_382" data-name="Path 382" d="M0,25.891" transform="translate(23.454 -2.84)" fill="none"/>
      <path id="Path_9" data-name="Path 9" d="M363.2,409.538" transform="translate(-330.636 -372.068)" fill="#bfbfbf"/>
    </g>
    <g id="COASTAL" transform="translate(18998.021 11267.96)">
      <g id="Default_x5F_Hexagon" transform="translate(0)">
        <g id="Default">
          <path id="Path_1123" data-name="Path 1123" d="M27.1,51.287a6.123,6.123,0,0,1-2.975-.769L6.18,40.671A6.15,6.15,0,0,1,3,35.285V16a6.15,6.15,0,0,1,3.18-5.385L24.13.769a6.037,6.037,0,0,1,5.9,0l17.95,9.847A6.15,6.15,0,0,1,51.158,16V35.285a6.15,6.15,0,0,1-3.18,5.385l-17.95,9.847A5.792,5.792,0,0,1,27.1,51.287Zm0-49.235a4.148,4.148,0,0,0-2,.513L7.154,12.411A4.037,4.037,0,0,0,5.051,16V35.285a4.139,4.139,0,0,0,2.1,3.59L25.1,48.723a4.148,4.148,0,0,0,3.949,0L47,38.875a4.037,4.037,0,0,0,2.1-3.59V16a4.084,4.084,0,0,0-2.154-3.59l-17.9-9.847A3.825,3.825,0,0,0,27.1,2.051Z" transform="translate(-3 0)" fill="#fcfcfc"/>
        </g>
      </g>
      <g id="Your_Icon" transform="translate(1.641 4.411)">
        <g id="Group_358" data-name="Group 358" transform="translate(0 21.595)">
          <g id="Group_357" data-name="Group 357">
            <path id="Path_1124" data-name="Path 1124" d="M64.24,65c-.564,3.334-4.924,3.334-5.129,3.334l-9.386-.154a1.026,1.026,0,1,0,0,2.051l9.386.154c2.205.051,6.513-.974,7.18-5.026A1.042,1.042,0,0,0,64.24,65Z" transform="translate(-26.903 -57.263)" fill="#fcfcfc"/>
            <path id="Path_1125" data-name="Path 1125" d="M68.544,78.951,65.826,78.9a1.026,1.026,0,1,0,0,2.051L68.544,81a1.026,1.026,0,1,0,0-2.051Z" transform="translate(-34.746 -64.441)" fill="#fcfcfc"/>
            <path id="Path_1126" data-name="Path 1126" d="M51.025,55.217c-1.9-.154-3.026-.564-5.744-2.821l-.41-.359a5.964,5.964,0,0,0-4.513-1.282,5.5,5.5,0,0,0-3.8,2.616.927.927,0,0,0,.051,1.077.877.877,0,0,0,1.026.256c1.128-.41,1.8-.1,2,.154.154.308-.1.718-.41.974-1.846,1.744-9.693,1.128-14.258.359a.462.462,0,0,0-.256-.051c-.615-.1-1.128-.205-1.59-.308C21.073,55.37,18,54.96,14.97,54.55a82.817,82.817,0,0,1-8.719-1.436l-.051,1.9c2,.513,5.18.923,8.514,1.385,2.513.308,5.077.667,6.975,1.026a5.85,5.85,0,0,0-1.8,1.744,2.073,2.073,0,0,0-.205,2,3.7,3.7,0,0,0,2.1,1.59,2.7,2.7,0,0,1,1.026.564,2.486,2.486,0,0,1,.615,1.385l.051.256c.872,3.949,3.8,4.667,6.565,4.821a24.906,24.906,0,0,0,2.667.051c1.539-.051,1.846-.051,2.564,1.077l1.59-.872c-1.333-2.051-2.257-2.1-4.206-2.051a22.041,22.041,0,0,1-2.513-.051c-3.077-.205-4.359-1.128-4.872-3.436l-.051-.256a4.305,4.305,0,0,0-1.077-2.308,5.394,5.394,0,0,0-1.59-.923,3.572,3.572,0,0,1-1.18-.667.506.506,0,0,1,.1-.308,7.032,7.032,0,0,1,3.18-2.154,55.592,55.592,0,0,0,6.616.718c.564.051,1.077.051,1.59.051,3.9.051,6.411-.462,7.59-1.59a2.428,2.428,0,0,0-.718-4.359,2.289,2.289,0,0,1,.923-.256,3.978,3.978,0,0,1,3.077.872l.41.359c2.923,2.41,4.308,3.026,6.872,3.231Z" transform="translate(-6.2 -50.707)" fill="#fcfcfc"/>
          </g>
        </g>
        <g id="Group_360" data-name="Group 360" transform="translate(3.371)">
          <g id="Group_359" data-name="Group 359">
            <path id="Path_1127" data-name="Path 1127" d="M22.157,19.575a6.309,6.309,0,0,1-5.693-3.59,3.971,3.971,0,0,1-.564-2.051l2.051-.1a2.185,2.185,0,0,0,.41,1.231,4.2,4.2,0,1,0,7.59-3.59,2.678,2.678,0,0,0-.923-1.231L26.26,8.6a4.5,4.5,0,0,1,1.539,2,6.29,6.29,0,0,1-5.642,8.975Z" transform="translate(-14.296 -8.6)" fill="#fcfcfc"/>
            <path id="Path_1128" data-name="Path 1128" d="M13.812,27.194a1.071,1.071,0,0,1-.821-.41,1.042,1.042,0,0,1,.154-1.436l2.821-2.257a1.021,1.021,0,0,1,1.282,1.59l-2.821,2.257A.69.69,0,0,1,13.812,27.194Z" transform="translate(-12.772 -15.552)" fill="#fcfcfc"/>
            <path id="Path_1129" data-name="Path 1129" d="M22.313,29.434a.873.873,0,0,1-.359-.051,1.067,1.067,0,0,1-.615-1.333l.667-1.8a1.038,1.038,0,1,1,1.949.718l-.667,1.8A1.052,1.052,0,0,1,22.313,29.434Z" transform="translate(-16.914 -16.869)" fill="#fcfcfc"/>
            <path id="Path_1130" data-name="Path 1130" d="M29.778,32.135a1.093,1.093,0,0,1-1.026-.821l-.769-4a1.046,1.046,0,1,1,2.051-.41l.769,3.949a1.052,1.052,0,0,1-.821,1.231A.388.388,0,0,1,29.778,32.135Z" transform="translate(-20.173 -17.108)" fill="#fcfcfc"/>
            <path id="Path_1131" data-name="Path 1131" d="M35.6,27.375a1.131,1.131,0,0,1-.769-.308l-1.8-1.949a1.052,1.052,0,1,1,1.539-1.436l1.8,1.949a1.054,1.054,0,0,1-.051,1.487A1.361,1.361,0,0,1,35.6,27.375Z" transform="translate(-22.503 -15.784)" fill="#fcfcfc"/>
            <path id="Path_1132" data-name="Path 1132" d="M40.463,23.071a.65.65,0,0,1-.308-.051l-3.949-1.231a1.022,1.022,0,1,1,.615-1.949l3.949,1.231a.98.98,0,0,1,.667,1.282A1.048,1.048,0,0,1,40.463,23.071Z" transform="translate(-23.832 -14.044)" fill="#fcfcfc"/>
            <path id="Path_1133" data-name="Path 1133" d="M38.009,15.4a1.035,1.035,0,0,1-.205-2.051l2.359-.462a1.046,1.046,0,1,1,.41,2.051l-2.359.462Z" transform="translate(-24.558 -10.678)" fill="#fcfcfc"/>
          </g>
        </g>
      </g>
    </g>
  </g>
</svg>
