<svg xmlns="http://www.w3.org/2000/svg" width="48.295" height="51.295" viewBox="0 0 48.295 51.295">
  <g id="Group_640" data-name="Group 640" transform="translate(-827.108 -1129.54)">
    <g id="Icons_Increase_Resilience" data-name="Icons_Increase Resilience" transform="translate(827.108 1129.54)" style="isolation: isolate">
      <path id="Path_5" data-name="Path 5" d="M75.135,46.464V26.917a5.2,5.2,0,0,0-2.7-4.561l-18.209-10a5.2,5.2,0,0,0-5.007,0l-18.21,10a5.2,5.2,0,0,0-2.7,4.561V46.464a5.2,5.2,0,0,0,2.7,4.559l18.21,10a5.2,5.2,0,0,0,5.007,0l18.21-10a5.2,5.2,0,0,0,2.7-4.559Z" transform="translate(-28.31 -11.718)" fill="#42b294"/>
      <path id="Path_382" data-name="Path 382" d="M0,25.891" transform="translate(23.454 -2.84)" fill="none"/>
      <path id="Path_9" data-name="Path 9" d="M363.2,409.538" transform="translate(-330.636 -372.068)" fill="#42b294"/>
    </g>
    <g id="FISHFRIENDLY" transform="translate(827.193 1129.54)">
      <path id="Path_1143" data-name="Path 1143" d="M48.017,10.609,30.066.755a6.128,6.128,0,0,0-5.923,0L6.193,10.61A6.153,6.153,0,0,0,3,16V34.848a1.024,1.024,0,0,0,1.761.713l9-6.51a5.135,5.135,0,0,1,2.92-.906h9.135a2.257,2.257,0,0,1,2.257,2.266v.1a2.261,2.261,0,0,1-2.257,2.248H19.877a1.026,1.026,0,1,0,0,2.051h7.185a4.1,4.1,0,0,0,2.164-.617l9.328-5.79.022-.013a2.076,2.076,0,0,1,1.279-.167,2.052,2.052,0,0,1,.9,3.616l-13.9,9.294a5.116,5.116,0,0,1-2.84.857H12.8a1.021,1.021,0,0,0-.875.5,1,1,0,0,0-.079.114A1.026,1.026,0,0,0,12.256,44l11.887,6.526a6.125,6.125,0,0,0,5.924,0l17.95-9.854a6.153,6.153,0,0,0,3.193-5.395V16A6.156,6.156,0,0,0,48.017,10.609Zm1.141,24.665a4.1,4.1,0,0,1-2.129,3.6l-17.95,9.854a4.087,4.087,0,0,1-3.949,0L16.6,44.043h7.41a7.161,7.161,0,0,0,3.977-1.2l13.936-9.319c.021-.013.041-.028.06-.043a4.1,4.1,0,0,0-4.46-6.855,1.044,1.044,0,0,0-.142.093l-7.331,4.55a4.27,4.27,0,0,0,.072-.747v-.1a4.309,4.309,0,0,0-4.309-4.327H16.68a7.194,7.194,0,0,0-4.1,1.281L5.051,32.819V16a4.1,4.1,0,0,1,2.128-3.6L25.13,2.554a4.085,4.085,0,0,1,3.949,0l17.95,9.854A4.1,4.1,0,0,1,49.158,16v19.27Z" transform="translate(-3 0.008)" fill="#fcfcfc"/>
      <path id="Path_1144" data-name="Path 1144" d="M41.242,17.9c-6.247,0-10.366,4.319-12.037,6.482a12.283,12.283,0,0,0-9.14-4.43,1.026,1.026,0,0,0-.832,1.626,8.788,8.788,0,0,1,1.526,4.46,9.464,9.464,0,0,1-1.586,4.609,1.026,1.026,0,0,0,.84,1.614,12.416,12.416,0,0,0,9.182-4.43C30.85,30,34.929,34.315,41.175,34.315c6.422,0,10.645-4.651,12.162-6.65a2.591,2.591,0,0,0,.01-3.109C51.847,22.556,47.665,17.9,41.242,17.9ZM21.855,30.019a9.894,9.894,0,0,0,.956-3.978,9.587,9.587,0,0,0-.9-3.839,11.139,11.139,0,0,1,6.051,3.9A11.3,11.3,0,0,1,21.855,30.019Zm8.626-3.907c1.135-1.579,4.932-6.157,10.762-6.156a10.951,10.951,0,0,1,1.189.071,8.538,8.538,0,0,0-.681,12.211c-.192.01-.381.027-.576.027C35.374,32.264,31.607,27.69,30.481,26.112Zm21.222.313a15.188,15.188,0,0,1-7.44,5.392.993.993,0,0,0-.1-.1,6.7,6.7,0,0,1-2.606-5.234,6.766,6.766,0,0,1,3.5-5.845,15.305,15.305,0,0,1,6.647,5.148A.526.526,0,0,1,51.7,26.425Z" transform="translate(-10.788 -8.717)" fill="#fcfcfc"/>
      <ellipse id="Ellipse_342" data-name="Ellipse 342" cx="1.026" cy="1.026" rx="1.026" ry="1.026" transform="translate(34.356 14.315)" fill="#fcfcfc"/>
    </g>
  </g>
</svg>
