<svg xmlns="http://www.w3.org/2000/svg" width="49.8" height="51.338" viewBox="0 0 49.8 51.338">
  <g id="Group_642" data-name="Group 642" transform="translate(-691.835 -1129.54)">
    <g id="Icons_Increase_Resilience" data-name="Icons_Increase Resilience" transform="translate(693.323 1129.54)" style="isolation: isolate">
      <path id="Path_5" data-name="Path 5" d="M75.135,46.464V26.917a5.2,5.2,0,0,0-2.7-4.561l-18.209-10a5.2,5.2,0,0,0-5.007,0l-18.21,10a5.2,5.2,0,0,0-2.7,4.561V46.464a5.2,5.2,0,0,0,2.7,4.559l18.21,10a5.2,5.2,0,0,0,5.007,0l18.21-10a5.2,5.2,0,0,0,2.7-4.559Z" transform="translate(-28.31 -11.718)" fill="#42b294"/>
      <path id="Path_382" data-name="Path 382" d="M0,25.891" transform="translate(23.454 -2.84)" fill="none"/>
      <path id="Path_9" data-name="Path 9" d="M363.2,409.538" transform="translate(-330.636 -372.068)" fill="#bfbfbf"/>
    </g>
    <g id="IMPROVEDWATERQUALITY-VeroÌnicaDiaz" transform="translate(691.835 1129.54)">
      <g id="Group_362" data-name="Group 362" transform="translate(12.617 9.539)">
        <path id="Path_1145" data-name="Path 1145" d="M39.037,48.5C32.729,48.5,27.6,43.013,27.6,36.243c0-6.565,10.309-16.873,10.719-17.335a.992.992,0,0,1,1.436,0c.462.462,10.719,10.77,10.719,17.335C50.474,43.013,45.345,48.5,39.037,48.5Zm0-27.336c-3.18,3.334-9.386,10.77-9.386,15.13,0,5.642,4.206,10.206,9.386,10.206s9.386-4.616,9.386-10.206C48.422,31.935,42.217,24.5,39.037,21.164Z" transform="translate(-27.6 -18.6)" fill="#fcfcfc"/>
      </g>
      <path id="Path_1146" data-name="Path 1146" d="M40.485,57.77a1.029,1.029,0,0,1-1.026-1.026,3.327,3.327,0,0,0-3.334-3.334,1.026,1.026,0,1,1,0-2.051,3.327,3.327,0,0,0,3.334-3.334,1.026,1.026,0,1,1,2.051,0,3.327,3.327,0,0,0,3.334,3.334,1.026,1.026,0,0,1,0,2.051,3.327,3.327,0,0,0-3.334,3.334A1.029,1.029,0,0,1,40.485,57.77Zm-1.18-5.385a5.149,5.149,0,0,1,1.18,1.18,5.149,5.149,0,0,1,1.18-1.18,5.148,5.148,0,0,1-1.18-1.18A5.148,5.148,0,0,1,39.306,52.385Z" transform="translate(-18.637 -22.895)" fill="#fcfcfc"/>
      <path id="Path_1147" data-name="Path 1147" d="M50.9,37.234a6.2,6.2,0,0,0,.308-1.949V16a6.15,6.15,0,0,0-3.18-5.385L30.079.769a6.037,6.037,0,0,0-5.9,0L6.231,10.616A6.1,6.1,0,0,0,3,16V35.285a6.15,6.15,0,0,0,3.18,5.385l17.95,9.847a6.136,6.136,0,0,0,5.949,0l6.462-3.539a8.816,8.816,0,0,0,7.539,4.359A8.711,8.711,0,0,0,52.8,42.619,9.252,9.252,0,0,0,50.9,37.234Zm-2.051,6.1a.992.992,0,0,1-1.436,0L45.055,41.03v5.693a1.026,1.026,0,1,1-2.051,0V40.978l-2.359,2.359a.992.992,0,0,1-1.436,0,.992.992,0,0,1,0-1.436l3.949-3.949c.051-.051.051-.1.1-.154a1.013,1.013,0,0,1,.718-.308h.205c.051,0,.051,0,.1.051.051,0,.051,0,.1.051.051,0,.051.051.1.051a.05.05,0,0,1,.051.051.618.618,0,0,1,.256.256L48.748,41.9A.922.922,0,0,1,48.851,43.337Zm.308-8.052v.256a8.747,8.747,0,0,0-13.847,7.078,10.252,10.252,0,0,0,.359,2.513l-6.616,3.59a4.148,4.148,0,0,1-3.949,0L7.154,38.875a4.037,4.037,0,0,1-2.1-3.59V16a4.139,4.139,0,0,1,2.1-3.59L25.1,2.564a3.878,3.878,0,0,1,2-.513,3.825,3.825,0,0,1,1.949.513L47,12.411A4.084,4.084,0,0,1,49.158,16Z" transform="translate(-3 0)" fill="#fcfcfc"/>
    </g>
  </g>
</svg>
