<svg xmlns="http://www.w3.org/2000/svg" width="47.515" height="50.61" viewBox="0 0 47.515 50.61">
  <g id="Group_648" data-name="Group 648" transform="translate(-588.988 -1286.242)">
    <g id="Icons_Increase_Resilience" data-name="Icons_Increase Resilience" transform="translate(588.988 1286.909)" opacity="0.94">
      <path id="Path_5" data-name="Path 5" d="M75.135,46.464V26.917a5.2,5.2,0,0,0-2.7-4.561l-18.209-10a5.2,5.2,0,0,0-5.007,0l-18.21,10a5.2,5.2,0,0,0-2.7,4.561V46.464a5.2,5.2,0,0,0,2.7,4.559l18.21,10a5.2,5.2,0,0,0,5.007,0l18.21-10a5.2,5.2,0,0,0,2.7-4.559Z" transform="translate(-28.31 -11.718)" fill="#3e89ff"/>
      <path id="Path_382" data-name="Path 382" d="M0,25.891" transform="translate(23.454 -2.84)" fill="none"/>
      <path id="Path_9" data-name="Path 9" d="M363.2,409.538" transform="translate(-330.636 -372.068)" fill="#3e89ff"/>
    </g>
    <g id="WORKERWELFARE_1_" data-name="WORKERWELFARE (1)" transform="translate(588.988 1286.242)">
      <path id="Path_1172" data-name="Path 1172" d="M47.378,10.475,29.667.759a5.956,5.956,0,0,0-5.819,0L6.137,10.475A6.068,6.068,0,0,0,3,15.788V34.814a6.068,6.068,0,0,0,3.137,5.313l17.711,9.716a6.042,6.042,0,0,0,2.935.759,5.715,5.715,0,0,0,2.884-.759l17.711-9.716a6.068,6.068,0,0,0,3.137-5.313V15.788A6.068,6.068,0,0,0,47.378,10.475Zm1.164,24.339a4.03,4.03,0,0,1-2.125,3.542L28.706,48.072a4.093,4.093,0,0,1-3.9,0L7.1,38.356a4.084,4.084,0,0,1-2.075-3.542V15.788A3.983,3.983,0,0,1,7.1,12.246L24.809,2.53a4.093,4.093,0,0,1,1.973-.506,3.773,3.773,0,0,1,1.923.506l17.711,9.716a4.03,4.03,0,0,1,2.125,3.542Z" transform="translate(-3 0)" fill="#fcfcfc"/>
      <path id="Path_1173" data-name="Path 1173" d="M47.575,56.476c2.277,0,2.479-1.417,2.479-1.569a1,1,0,0,0-1.923-.506,5.272,5.272,0,0,1-.557.051,1.424,1.424,0,0,1-.557-.051.952.952,0,0,0-1.012-.607,1.021,1.021,0,0,0-.911,1.113C45.1,55.059,45.3,56.476,47.575,56.476Z" transform="translate(-23.792 -26.57)" fill="#fcfcfc"/>
      <path id="Path_1174" data-name="Path 1174" d="M47.818,20.9,37.242,15.791l-.051-.051a3.777,3.777,0,0,0-2.783,0L23.529,20.9A3.851,3.851,0,0,0,21.1,24.495l.708,11.79a2.865,2.865,0,0,0,.152.911c.3,1.012,3.289,10.07,12.448,13.46a4.338,4.338,0,0,0,1.366.253,6.369,6.369,0,0,0,1.366-.2c9.159-3.39,12.144-12.448,12.448-13.46a3.114,3.114,0,0,0,.152-.911L50.3,24.495A3.874,3.874,0,0,0,47.818,20.9ZM29.8,45.343a4.9,4.9,0,0,1,1.4-4.576l-.868,5.279q-.267-.215-.521-.436A1.032,1.032,0,0,0,29.8,45.343Zm2.986-19.482a3.653,3.653,0,0,1,2.429.253,1.072,1.072,0,0,0,.961,0,3.735,3.735,0,0,1,2.429-.253c1.083.316,2.043,1.721,1.987,3.745H30.833C30.77,27.582,31.72,26.173,32.789,25.861ZM30.705,31.63h9.937a5.161,5.161,0,1,1-9.937,0Zm10.99,13.764a.969.969,0,0,0-.027.345c-.144.123-.293.244-.444.364l-.871-5.3A4.888,4.888,0,0,1,41.695,45.393Zm-5-5.287-.014.024c-.4.759-.607,1.012-.911,1.012s-.548-.343-.938-1.023a6.426,6.426,0,0,0,1.863-.014Zm-.217,8.677a1.956,1.956,0,0,1-1.316,0,16.921,16.921,0,0,1-3-1.451,1.177,1.177,0,0,0,.069-.219l.956-5.812a3.055,3.055,0,0,0,2.586,1.865,3.009,3.009,0,0,0,2.587-1.859l.955,5.806a1.154,1.154,0,0,0,.089.261A16.812,16.812,0,0,1,36.483,48.784Zm11.234-12.5a.861.861,0,0,1-.051.354,20.481,20.481,0,0,1-3.859,6.94,6.067,6.067,0,0,0-3.431-5.135A6.949,6.949,0,0,0,42.808,33a7.9,7.9,0,0,0-.114-1.366h2.543a1.012,1.012,0,1,0,0-2.024h-2.59c.089-3.067-1.566-5.172-3.432-5.718a5.447,5.447,0,0,0-3.492.2,5.447,5.447,0,0,0-3.492-.2c-1.848.586-3.491,2.661-3.4,5.718H26.565a1.012,1.012,0,1,0,0,2.024h2.109A7.309,7.309,0,0,0,28.538,33a7.176,7.176,0,0,0,2.547,5.468,6.073,6.073,0,0,0-3.344,5.024,21.364,21.364,0,0,1-3.808-6.849.861.861,0,0,1-.051-.354l-.708-11.79a1.914,1.914,0,0,1,1.214-1.72l10.778-5.161a1.814,1.814,0,0,1,1.265,0L47.21,22.825h.051a1.861,1.861,0,0,1,1.012,1.619Z" transform="translate(-11.941 -7.644)" fill="#fcfcfc"/>
    </g>
  </g>
</svg>
